<svg width="144" height="50" viewBox="0 0 144 50" fill="none" xmlns="http://www.w3.org/2000/svg">
<path d="M49.81 49.21L0.860001 0.26001V49.21" fill="#7030A0"/>
<path d="M12.92 12.32L0.860001 0.26001H12.92" fill="#500786"/>
<path d="M49.81 49.21L37.75 37.16H49.81" fill="#500786"/>
<path d="M49.81 24.38L25.7 0.27002H49.81" fill="#00F0AB"/>
<path d="M68.37 2.93H55.57V10.47H66.66V13.36H55.57V24.38H52.45V0.0500031H68.37V2.93V2.93Z" fill="#565657"/>
<path d="M83 22.14C81.49 23.91 79.79 24.8 77.9 24.8C74.05 24.8 72.12 22.63 72.12 18.29V6.77H75.16V18.16C75.16 19.6 75.41 20.63 75.9 21.26C76.39 21.89 77.21 22.21 78.35 22.21C80.04 22.21 81.6 21.27 83 19.39V6.77H86.03V24.38H83V22.14Z" fill="#565657"/>
<path d="M97.14 24.42C96.47 24.55 95.75 24.62 94.97 24.62C93.72 24.62 92.81 24.39 92.23 23.93C91.65 23.47 91.29 22.88 91.15 22.16C91.01 21.44 90.94 20.46 90.94 19.22V9.23H88.83V6.77H90.94V2.39H93.97V6.77H96.74V9.23H93.97V19.39C93.97 20.6 94.12 21.36 94.41 21.69C94.7 22.02 95.11 22.18 95.62 22.18C96.15 22.18 96.65 22.14 97.13 22.05V24.42H97.14Z" fill="#565657"/>
<path d="M110.48 22.14C108.97 23.91 107.27 24.8 105.38 24.8C101.53 24.8 99.6 22.63 99.6 18.29V6.77H102.64V18.16C102.64 19.6 102.89 20.63 103.38 21.26C103.87 21.89 104.69 22.21 105.83 22.21C107.53 22.21 109.08 21.27 110.48 19.39V6.77H113.51V24.38H110.48V22.14Z" fill="#565657"/>
<path d="M126.87 9.63C126.44 9.5 125.82 9.43 125.02 9.43C123.48 9.43 122.15 10.27 121.05 11.94V24.39H118V6.77H121.04V9.23C122.32 7.33 123.8 6.37 125.48 6.37C125.91 6.37 126.37 6.41 126.86 6.5V9.63H126.87Z" fill="#565657"/>
<path d="M136.23 24.8C133.72 24.8 131.7 23.99 130.18 22.37C128.66 20.75 127.89 18.49 127.89 15.59C127.89 12.71 128.63 10.46 130.1 8.82C131.57 7.19 133.5 6.37 135.89 6.37C138.33 6.37 140.27 7.16999 141.72 8.77999C143.17 10.38 143.9 12.65 143.9 15.59V16.34H131.04C131.17 18.38 131.71 19.89 132.67 20.87C133.63 21.86 134.81 22.35 136.22 22.35C137.28 22.35 138.24 22.07 139.09 21.51C139.94 20.95 140.39 20.16 140.43 19.13H143.57C143.33 20.95 142.54 22.35 141.18 23.33C139.84 24.31 138.19 24.8 136.23 24.8ZM140.71 13.88C140.46 12.19 139.91 10.92 139.05 10.08C138.19 9.24 137.14 8.82 135.9 8.82C134.69 8.82 133.65 9.24 132.78 10.07C131.91 10.91 131.36 12.18 131.12 13.88H140.71V13.88Z" fill="#565657"/>
<path d="M72.11 26.77L63.75 48.96H60.82L52.46 26.77H55.5L62.29 45.8L69.08 26.77H72.11V26.77Z" fill="#565657"/>
<path d="M80.67 32.54C82.89 32.54 84.66 33.27 85.99 34.73C87.32 36.19 87.98 38.26 87.98 40.94C87.98 43.6 87.32 45.67 85.99 47.14C84.66 48.61 82.89 49.34 80.67 49.34C78.46 49.34 76.69 48.61 75.37 47.14C74.04 45.67 73.38 43.61 73.38 40.94C73.38 38.27 74.04 36.2 75.37 34.73C76.69 33.27 78.46 32.54 80.67 32.54ZM80.67 47.1C81.99 47.1 83.06 46.58 83.88 45.55C84.7 44.52 85.11 42.98 85.11 40.94C85.11 38.89 84.7 37.35 83.88 36.32C83.06 35.29 81.99 34.77 80.67 34.77C79.35 34.77 78.28 35.29 77.46 36.32C76.64 37.35 76.23 38.9 76.23 40.94C76.23 42.98 76.64 44.51 77.46 45.55C78.28 46.58 79.35 47.1 80.67 47.1Z" fill="#565657"/>
<path d="M93.85 29.86H91.08V26.77H93.85V29.86ZM93.85 48.96H91.08V32.9H93.85V48.96Z" fill="#565657"/>
<path d="M104.23 49.34C102.02 49.34 100.25 48.61 98.93 47.14C97.6 45.67 96.94 43.61 96.94 40.94C96.94 38.27 97.6 36.2 98.93 34.73C100.26 33.27 102.02 32.54 104.23 32.54C105.93 32.54 107.35 32.98 108.49 33.87C109.63 34.76 110.3 36.04 110.51 37.71H107.66C107.62 36.75 107.27 36.02 106.61 35.52C105.95 35.02 105.15 34.76 104.23 34.76C102.91 34.76 101.84 35.28 101.02 36.31C100.2 37.34 99.79 38.89 99.79 40.93C99.79 42.97 100.2 44.5 101.02 45.54C101.84 46.57 102.91 47.09 104.23 47.09C105.16 47.09 105.95 46.84 106.61 46.33C107.27 45.83 107.62 45.1 107.66 44.15H110.51C110.3 45.83 109.63 47.11 108.49 47.99C107.36 48.9 105.94 49.34 104.23 49.34Z" fill="#565657"/>
<path d="M119.57 49.34C117.28 49.34 115.44 48.6 114.05 47.12C112.66 45.64 111.97 43.58 111.97 40.94C111.97 38.32 112.64 36.26 113.99 34.77C115.33 33.28 117.09 32.54 119.26 32.54C121.48 32.54 123.25 33.27 124.58 34.73C125.91 36.19 126.57 38.26 126.57 40.94V41.62H114.85C114.97 43.48 115.46 44.85 116.34 45.75C117.22 46.65 118.29 47.1 119.58 47.1C120.55 47.1 121.42 46.85 122.2 46.34C122.98 45.83 123.39 45.11 123.43 44.17H126.29C126.07 45.83 125.35 47.1 124.11 48C122.86 48.89 121.35 49.34 119.57 49.34ZM123.65 39.38C123.42 37.84 122.92 36.68 122.14 35.91C121.36 35.14 120.4 34.76 119.26 34.76C118.15 34.76 117.21 35.14 116.41 35.9C115.62 36.66 115.11 37.82 114.9 39.37H123.65V39.38Z" fill="#565657"/>
<path d="M92.46 30.44C93.6364 30.44 94.59 29.4864 94.59 28.31C94.59 27.1336 93.6364 26.18 92.46 26.18C91.2836 26.18 90.33 27.1336 90.33 28.31C90.33 29.4864 91.2836 30.44 92.46 30.44Z" fill="#00F0AB"/>
</svg>
