<svg width="805" height="735" viewBox="0 0 805 735" fill="none" xmlns="http://www.w3.org/2000/svg">
<path d="M818.311 51.6811C835.161 57.1203 860.231 81.6477 882.321 120.748C909.446 168.879 925.577 173.087 963.901 149.38C1002.33 125.674 1047.33 141.581 1080 204.695C1112.68 267.81 1055.45 316.865 1002.53 393.731C949.516 470.597 1055.34 450.688 1089.56 540.587C1123.87 630.282 1075.48 731.06 916.535 729.828C757.281 728.597 516.652 730.957 516.652 730.957C516.652 730.957 293.491 752.201 212.117 697.296C130.846 642.392 230.816 615.812 155.196 580.714C79.576 545.616 0.667847 543.256 33.7517 452.638C66.8356 362.02 113.585 380.8 143.792 356.478C173.998 332.156 192.184 305.884 148.929 262.781C105.776 219.679 72.692 190.533 94.5767 133.371C125.914 51.4759 201.842 40.9055 285.374 75.5928C368.905 110.28 446.889 250.877 516.55 215.266C586.211 179.655 675.085 5.70507 818.311 51.6811Z" fill="#E9FBF6"/>
<path d="M688.371 636.017L687.625 687.755L636.862 677.728L688.371 636.017Z" stroke="#00F0AB"/>
<path d="M334.637 208.94C336.455 208.958 338.265 208.719 340.016 208.229L335.683 187.21C340.041 181.534 342.398 174.578 342.387 167.425C342.387 163.145 341.543 158.907 339.904 154.953C338.264 150.999 335.86 147.407 332.83 144.381C329.8 141.355 326.203 138.954 322.244 137.317C318.285 135.679 314.042 134.837 309.757 134.837H265.219C260.934 134.837 256.691 135.679 252.732 137.317C248.773 138.954 245.176 141.355 242.146 144.381C239.116 147.407 236.712 150.999 235.072 154.953C233.432 158.907 232.588 163.145 232.588 167.425C232.588 176.069 236.026 184.359 242.146 190.471C248.265 196.583 256.565 200.016 265.219 200.016H285.99C285.922 198.773 285.919 197.526 285.919 196.279C285.919 197.526 285.919 198.773 285.99 200.016H309.743C311.931 200.017 314.114 199.799 316.259 199.366L339.648 218.376C339.868 217.918 339.983 217.418 339.985 216.91C339.983 217.418 339.868 217.918 339.648 218.376L342.61 220.789L340.016 208.202C338.267 208.701 336.456 208.949 334.637 208.94Z" fill="#A644F0"/>
<path d="M307.901 162.808C306.656 162.808 305.44 163.177 304.405 163.867C303.37 164.558 302.564 165.54 302.087 166.688C301.611 167.836 301.487 169.1 301.729 170.319C301.972 171.538 302.571 172.658 303.451 173.537C304.332 174.416 305.453 175.015 306.673 175.257C307.894 175.5 309.159 175.375 310.309 174.9C311.459 174.424 312.442 173.619 313.133 172.585C313.825 171.551 314.194 170.336 314.194 169.093C314.194 167.426 313.531 165.828 312.351 164.649C311.171 163.47 309.57 162.808 307.901 162.808Z" fill="white"/>
<path d="M268.037 162.808C266.792 162.808 265.575 163.177 264.541 163.867C263.506 164.558 262.699 165.54 262.223 166.688C261.747 167.836 261.622 169.1 261.865 170.319C262.108 171.538 262.707 172.658 263.587 173.537C264.467 174.416 265.588 175.015 266.809 175.257C268.03 175.5 269.295 175.375 270.445 174.9C271.594 174.424 272.577 173.619 273.269 172.585C273.96 171.551 274.329 170.336 274.329 169.093C274.329 167.426 273.666 165.828 272.486 164.649C271.306 163.47 269.705 162.808 268.037 162.808Z" fill="white"/>
<path d="M289.843 175.711C293.281 175.156 295.619 171.922 295.063 168.488C294.507 165.053 291.269 162.719 287.83 163.274C284.391 163.829 282.054 167.063 282.61 170.498C283.166 173.932 286.404 176.267 289.843 175.711Z" fill="white"/>
<path d="M250.99 289.161L250.939 303.753L272.618 303.829L272.669 289.236L250.99 289.161Z" fill="#333333"/>
<path d="M261.828 226.606C255.783 226.591 249.906 228.589 245.125 232.284C240.344 235.978 236.932 241.159 235.428 247.006C233.924 252.854 234.413 259.035 236.819 264.574C239.225 270.112 243.41 274.692 248.713 277.59L250.96 289.082L272.693 289.156L274.717 277.617C280.02 274.737 284.212 270.177 286.634 264.654C289.055 259.132 289.568 252.962 288.091 247.116C286.614 241.271 283.231 236.082 278.476 232.369C273.721 228.655 267.864 226.628 261.828 226.606Z" fill="#FFEC00"/>
<path d="M261.828 226.606C255.783 226.591 249.906 228.589 245.125 232.284C240.344 235.978 236.932 241.159 235.428 247.006C233.924 252.854 234.413 259.035 236.819 264.574C239.225 270.112 243.41 274.692 248.713 277.59L250.96 289.082L272.693 289.156L274.717 277.617C280.02 274.737 284.212 270.177 286.634 264.654C289.055 259.132 289.568 252.962 288.091 247.116C286.614 241.271 283.231 236.082 278.476 232.369C273.721 228.655 267.864 226.628 261.828 226.606Z" fill="white"/>
<path d="M250.215 291.979L250.21 293.35C250.208 294.059 250.781 294.636 251.491 294.639L272.184 294.711C272.894 294.713 273.472 294.141 273.474 293.431L273.479 292.06C273.481 291.351 272.908 290.774 272.198 290.771L251.505 290.699C250.795 290.697 250.217 291.27 250.215 291.979Z" fill="#A644F0"/>
<path d="M261.916 309.39C265.89 309.39 269.123 307.135 269.133 304.294L254.743 304.244C254.722 307.085 257.938 309.366 261.916 309.39Z" fill="#A644F0"/>
<path d="M250.198 296.862L250.193 298.234C250.191 298.943 250.764 299.52 251.474 299.522L272.167 299.594C272.877 299.597 273.455 299.024 273.457 298.315L273.462 296.943C273.465 296.234 272.891 295.657 272.181 295.655L251.488 295.583C250.778 295.58 250.2 296.153 250.198 296.862Z" fill="#A644F0"/>
<path d="M250.32 301.783L250.315 303.161C250.312 303.869 250.884 304.444 251.592 304.446L272.154 304.518C272.862 304.521 273.438 303.949 273.441 303.242L273.445 301.864C273.448 301.156 272.876 300.581 272.168 300.579L251.606 300.507C250.898 300.504 250.322 301.076 250.32 301.783Z" fill="#A644F0"/>
<path d="M258.768 270.247C258.589 269.748 254.513 258.428 252.283 253.963C252.204 253.82 252.072 253.713 251.916 253.665C251.76 253.617 251.591 253.631 251.444 253.704C251.298 253.777 251.186 253.903 251.131 254.057C251.076 254.211 251.082 254.38 251.149 254.529C253.174 258.604 256.929 268.892 257.503 270.473C257.527 270.54 257.539 270.61 257.54 270.682L257.594 283.424C257.594 283.507 257.611 283.589 257.643 283.666C257.676 283.743 257.723 283.812 257.782 283.871C257.841 283.929 257.911 283.975 257.988 284.007C258.065 284.038 258.148 284.054 258.231 284.054C258.399 284.053 258.559 283.986 258.678 283.867C258.796 283.748 258.862 283.588 258.862 283.42L258.791 270.456C258.795 270.385 258.787 270.315 258.768 270.247Z" fill="#0ABC89"/>
<path d="M273.587 253.761C273.513 253.72 273.431 253.694 273.347 253.685C273.263 253.676 273.177 253.684 273.096 253.709C273.015 253.734 272.94 253.775 272.875 253.83C272.811 253.884 272.758 253.952 272.72 254.027C270.456 258.476 266.309 269.765 266.123 270.267C266.097 270.334 266.083 270.405 266.083 270.476L265.938 283.437C265.933 283.605 265.995 283.768 266.11 283.89C266.225 284.013 266.384 284.085 266.552 284.091C266.719 284.092 266.881 284.026 267 283.909C267.12 283.792 267.188 283.632 267.19 283.464L267.335 270.722C267.335 270.651 267.348 270.58 267.372 270.513C267.955 268.936 271.758 258.675 273.833 254.614C273.913 254.468 273.932 254.296 273.886 254.137C273.84 253.977 273.732 253.842 273.587 253.761Z" fill="#0ABC89"/>
<path d="M270.857 256.039C270.732 256.005 270.52 255.493 270.439 255.304C270.216 254.775 269.939 254.115 269.214 254.061C268.488 254.007 268.04 254.691 267.709 255.24C267.588 255.455 267.45 255.659 267.294 255.85C267.122 255.639 266.969 255.414 266.835 255.176C266.498 254.573 266.083 253.886 265.324 253.956C264.564 254.027 264.311 254.758 264.102 255.345C264.055 255.473 263.987 255.655 263.923 255.8C263.819 255.672 263.704 255.51 263.623 255.392C263.228 254.833 262.739 254.132 261.936 254.209C261.133 254.287 260.86 254.991 260.623 255.51C260.58 255.604 260.522 255.736 260.465 255.847C260.334 255.663 260.212 255.473 260.1 255.277C259.699 254.603 259.243 253.838 258.413 253.882C257.583 253.926 257.266 254.701 256.983 255.325C256.915 255.466 256.821 255.662 256.733 255.827C256.669 255.732 256.602 255.618 256.551 255.53C256.241 255.014 255.819 254.314 255.012 254.182C253.865 254.014 252.951 255.132 252.364 255.985L253.501 256.659C254.381 255.375 254.796 255.422 254.8 255.422C254.962 255.446 255.228 255.891 255.37 256.127C255.674 256.629 256.045 257.256 256.787 257.225C257.587 257.195 257.938 256.423 258.225 255.8C258.299 255.638 258.41 255.395 258.505 255.237C258.654 255.44 258.791 255.652 258.916 255.87C259.314 256.544 259.766 257.303 260.603 257.239C261.335 257.181 261.636 256.518 261.879 255.985C261.936 255.857 262.024 255.672 262.098 255.544C262.244 255.711 262.378 255.887 262.499 256.073C262.881 256.615 263.356 257.296 264.126 257.202C264.895 257.107 265.165 256.356 265.388 255.749C265.415 255.672 265.448 255.591 265.486 255.5C265.546 255.597 265.607 255.729 265.654 255.813C266.019 256.433 266.467 257.256 267.297 257.259C268.107 257.259 268.539 256.487 268.887 255.911C268.941 255.82 269.015 255.648 269.086 255.54L269.18 255.763C269.406 256.305 269.72 257.05 270.493 257.256C270.616 257.288 270.743 257.303 270.871 257.303C271.802 257.303 272.649 256.46 273.232 255.786L272.18 254.991C271.275 256.059 270.864 256.039 270.857 256.039Z" fill="#0ABC89"/>
<path d="M346.028 88.1625C346.242 84.1185 347.76 80.0745 350.583 76.0305C353.406 71.9865 357.391 68.7378 362.537 66.2845C367.68 63.8131 373.584 62.7505 380.251 63.0964C386.448 63.42 391.859 64.8477 396.484 67.3797C401.109 69.9117 404.612 73.2087 406.994 77.2707C409.337 81.1907 410.455 85.7204 410.203 90.2789C410.014 93.9072 409.114 97.0526 407.504 99.7149C405.976 102.255 404.071 104.548 401.852 106.516C399.718 108.396 395.894 111.547 390.38 115.968C389.093 117.001 387.865 118.104 386.703 119.274C385.9 120.072 385.195 120.962 384.604 121.927C384.147 122.702 383.77 123.522 383.48 124.373C383.199 125.193 382.77 126.637 382.191 128.704C381.15 133.1 378.491 135.188 374.215 134.965C373.181 134.938 372.162 134.705 371.219 134.281C370.275 133.857 369.425 133.25 368.719 132.495C367.277 130.965 366.631 128.77 366.782 125.91C366.967 122.315 367.684 119.238 368.935 116.679C370.128 114.19 371.747 111.927 373.719 109.993C376.208 107.635 378.814 105.404 381.527 103.307C384.388 101.061 386.46 99.3599 387.742 98.2051C389.014 97.0612 390.121 95.7468 391.032 94.2993C391.94 92.8551 392.458 91.2007 392.536 89.497C392.645 87.8673 392.4 86.2333 391.818 84.707C391.235 83.1807 390.329 81.7982 389.162 80.6542C386.742 78.1828 383.523 76.8348 379.506 76.6102C374.802 76.363 371.279 77.3673 368.935 79.6229C366.591 81.8786 364.527 85.2699 362.743 89.797C361.04 94.5442 358.158 96.8122 354.096 96.601C352.964 96.5651 351.853 96.2936 350.832 95.8038C349.812 95.314 348.905 94.6168 348.171 93.7567C346.639 91.9908 345.925 90.1261 346.028 88.1625ZM373.645 159.974C371.132 159.879 368.744 158.85 366.951 157.089C365.093 155.292 364.244 152.882 364.403 149.86C364.442 148.594 364.744 147.35 365.29 146.207C365.837 145.064 366.616 144.047 367.578 143.222C368.535 142.369 369.654 141.717 370.869 141.306C372.083 140.895 373.368 140.733 374.647 140.829C375.908 140.876 377.146 141.176 378.288 141.709C379.431 142.243 380.454 143.001 381.299 143.937C382.143 144.873 382.79 145.969 383.203 147.159C383.615 148.35 383.784 149.611 383.7 150.868C383.544 153.858 382.46 156.156 380.447 157.76C378.542 159.332 376.111 160.123 373.645 159.974Z" fill="#00F0AB"/>
<path d="M458.408 62.0982L440.619 109.344L510.868 135.731L528.658 88.4853L458.408 62.0982Z" fill="#F4E6FF"/>
<path d="M481.683 95.4754L440.627 109.38L510.875 135.771L489.17 98.2826C488.403 97.0595 487.254 96.1222 485.901 95.6149C484.549 95.1077 483.066 95.0587 481.683 95.4754Z" fill="#A644F0"/>
<path d="M480.984 97.3527L440.627 109.38L510.875 135.771L488.461 100.16C487.686 98.9475 486.539 98.0187 485.191 97.5126C483.843 97.0065 482.367 96.9504 480.984 97.3527Z" fill="#F4E6FF"/>
<path d="M480.131 99.5903C480.896 100.814 482.042 101.753 483.394 102.262C484.746 102.771 486.227 102.822 487.611 102.408L528.677 88.4996L458.429 62.1091L480.131 99.5903Z" fill="#A644F0"/>
<path d="M480.846 97.7299C481.621 98.9429 482.768 99.8725 484.116 100.379C485.464 100.886 486.94 100.943 488.323 100.541L528.68 88.5096L458.432 62.1191L480.846 97.7299Z" fill="#F4E6FF"/>
<path d="M173.515 324.059C195.455 324.059 213.242 306.295 213.242 284.381C213.242 262.467 195.455 244.702 173.515 244.702C151.575 244.702 133.789 262.467 133.789 284.381C133.789 306.295 151.575 324.059 173.515 324.059Z" fill="#00F0AB"/>
<path d="M191.705 290.726C191.98 290.827 192.231 290.985 192.44 291.19C192.649 291.395 192.813 291.643 192.919 291.916C193.025 292.189 193.071 292.481 193.055 292.773C193.039 293.066 192.96 293.351 192.825 293.611C191.273 296.567 187.825 301.487 181.353 303.63C173.62 306.188 166.986 303.037 163.855 301.049C163.606 300.89 163.394 300.679 163.233 300.431C163.073 300.184 162.968 299.904 162.925 299.612C162.882 299.32 162.902 299.022 162.985 298.738C163.067 298.455 163.21 298.192 163.403 297.969C163.729 297.588 164.182 297.339 164.679 297.266C165.175 297.194 165.681 297.303 166.102 297.574C168.582 299.141 173.954 301.733 180.064 299.714C185.216 298.009 187.953 294.07 189.174 291.721C189.405 291.277 189.788 290.933 190.253 290.75C190.718 290.567 191.234 290.559 191.705 290.726Z" fill="#2F4263"/>
<path d="M162.171 282.844C162.404 283.568 162.415 284.345 162.205 285.076C161.996 285.808 161.573 286.46 160.992 286.951C160.411 287.443 159.697 287.751 158.94 287.837C158.183 287.923 157.418 287.783 156.741 287.434C156.064 287.086 155.506 286.545 155.137 285.879C154.768 285.214 154.605 284.454 154.668 283.697C154.732 282.939 155.019 282.216 155.493 281.621C155.967 281.026 156.608 280.585 157.333 280.354C158.305 280.043 159.361 280.131 160.268 280.598C161.176 281.065 161.86 281.873 162.171 282.844Z" fill="#2F4263"/>
<path d="M182.129 276.852C182.335 277.584 182.754 278.239 183.332 278.734C183.911 279.228 184.623 279.54 185.379 279.63C186.135 279.721 186.901 279.585 187.58 279.24C188.258 278.896 188.82 278.358 189.192 277.695C189.565 277.032 189.733 276.273 189.674 275.515C189.615 274.757 189.332 274.033 188.862 273.435C188.391 272.838 187.753 272.393 187.029 272.157C186.305 271.921 185.528 271.905 184.795 272.111C183.812 272.387 182.98 273.042 182.48 273.931C181.98 274.82 181.854 275.87 182.129 276.852Z" fill="#2F4263"/>
<path d="M648.082 204.239C647.584 204.234 647.091 204.328 646.63 204.515C646.169 204.703 645.75 204.98 645.397 205.33C645.044 205.681 644.764 206.098 644.574 206.557C644.384 207.017 644.287 207.509 644.29 208.006C644.263 208.529 644.354 209.051 644.554 209.534C644.755 210.017 645.061 210.45 645.45 210.8C646.187 211.458 647.142 211.818 648.129 211.811C649.107 211.821 650.053 211.459 650.775 210.8C651.159 210.45 651.462 210.019 651.66 209.538C651.859 209.058 651.95 208.539 651.925 208.02C651.931 207.522 651.835 207.027 651.641 206.568C651.447 206.109 651.16 205.694 650.798 205.351C650.443 204.993 650.02 204.71 649.553 204.519C649.087 204.328 648.586 204.233 648.082 204.239Z" fill="white"/>
<path d="M255.471 560.313C257.104 561.931 254.874 563.447 257.857 566.797C259.544 568.688 262.668 569.631 264.659 570.561C266.346 571.347 268.536 571.842 270.162 572.209C272.308 572.691 273.199 572.722 273.874 573.611C274.886 574.882 274.633 576.782 274.585 577.109C274.511 577.774 274.28 578.411 273.911 578.97C273.236 579.94 272.224 580.351 271.316 580.591C266.073 581.999 259.53 580.233 259.53 580.233C257.118 579.58 256.112 579.05 253.14 578.464C251.237 578.087 249.573 577.79 247.843 578.491C244.89 579.708 238.672 578.98 238.618 575.596C238.569 573.651 238.648 571.704 238.854 569.769C239.644 563.633 240.038 560.566 240.571 559.909C243.547 556.273 251.682 556.566 255.471 560.313Z" fill="black"/>
<path d="M261.585 570.447C261.713 570.069 261.738 569.664 261.656 569.274C260.239 568.64 258.815 567.872 257.857 566.797C254.874 563.447 257.104 561.931 255.471 560.313C251.682 556.566 243.547 556.269 240.592 559.909C240.079 560.539 239.694 563.39 238.969 569.038C241.022 569.764 243.118 570.367 245.245 570.841C247.175 571.272 260.229 574.191 261.585 570.447Z" fill="#FFC48A"/>
<path d="M231.03 572.368C234.316 575.623 232.993 578.326 236.83 581.035C239.191 582.697 241.523 584.348 244.431 584.597C245.134 584.61 245.818 584.821 246.405 585.207C247.731 586.148 248.372 588.24 247.809 589.925C247.394 591.189 246.432 591.873 245.579 592.463C242.178 594.822 238.233 594.407 237.785 594.357C235.207 594.057 233.061 592.938 230.81 591.775C229.012 590.842 227.946 590.053 225.962 589.777C224.871 589.631 223.768 589.604 222.672 589.696C221.009 589.871 220.523 590.259 219.46 590.067C218.44 589.84 217.524 589.28 216.859 588.476C215.36 586.7 215.748 584.169 215.988 582.259C217.233 572.344 216.98 570.73 218.795 569.18C221.802 566.625 227.298 568.667 231.03 572.368Z" fill="black"/>
<path d="M237.089 582.114C237.211 581.866 237.258 581.589 237.224 581.315L236.83 581.035C232.993 578.339 234.316 575.623 231.03 572.368C227.298 568.661 221.802 566.639 218.795 569.193C217.29 570.477 217.206 571.805 216.514 577.861C217.22 578.299 218.019 578.761 218.917 579.209C226.225 582.973 235.824 584.567 237.089 582.114Z" fill="#FFC48A"/>
<path d="M257.256 562.24C256.524 558.897 257.577 550.745 259.308 532.77C260.361 521.804 262.453 521.039 264.217 505.955C264.868 500.404 265.007 496.927 265.401 486.928C266.927 448.335 267.065 445.197 264.507 443.775C258.36 440.351 242.842 450.309 239.323 463.021C238.527 465.889 238.986 470.135 239.866 478.621C241.419 493.348 243.949 498.082 243.416 509.736C243.369 510.787 243.079 513.51 242.508 518.956C241.692 526.707 240.943 532.605 239.897 541.097C237.575 559.905 238.858 565.941 238.858 565.941C242.687 569.867 258.68 568.731 257.256 562.24Z" fill="#A644F0"/>
<path d="M250.356 445.015C251.706 448.325 247.084 483.895 242.755 499.653C241.763 503.256 241.874 505.534 240.477 513.807C239.37 520.378 238.266 526.95 237.164 533.521C232.896 558.827 234.357 569.146 234.653 576.179C234.88 581.517 215.479 577.19 215.361 573.82C214.615 552.481 215.803 550.23 218.06 533.262C218.37 530.933 219.905 519.816 221.829 508.934C222.166 507.102 222.409 505.254 222.557 503.397C222.962 498.073 222.567 492.718 221.387 487.511C215.06 458.124 216.545 446.279 218.013 444.577C223.411 438.268 246.254 435.067 250.356 445.015Z" fill="#7030A0"/>
<path d="M266.677 365.621C266.677 365.621 271.738 367.819 273.489 371.532C277.767 380.571 277.538 395.22 277.875 397.906C278.462 402.813 278.82 405.805 277.018 407.851C275.571 409.495 274.592 425.813 273.435 424.364C268.037 417.624 268.01 406.29 268.037 401.98C268.087 396.497 267.983 395.014 268.425 390.428C269.636 377.912 265.01 366.147 266.677 365.621Z" fill="#00F0AB"/>
<path d="M277.794 400.693L283.432 400.979C283.704 400.993 283.974 400.939 284.219 400.821C284.463 400.703 284.674 400.526 284.832 400.305L295.704 386.957C296.041 386.502 295.623 385.117 294.354 385.161L285.723 385.461C285.465 385.469 285.212 385.539 284.987 385.665C284.761 385.791 284.569 385.969 284.428 386.185L276.512 398.196C276.355 398.434 276.263 398.71 276.248 398.995C276.232 399.28 276.292 399.564 276.423 399.818C276.553 400.072 276.749 400.287 276.99 400.441C277.231 400.595 277.508 400.682 277.794 400.693Z" fill="#4B4B82"/>
<path d="M285.447 409.873C284.829 411.123 285.713 411.669 285.743 413.859C285.781 416.444 284.59 418.578 283.486 420.576C283.086 421.32 282.628 422.031 282.116 422.702C280.794 424.418 279.488 426.116 277.578 426.298C275.847 426.46 274.464 425.287 273.995 424.903C272.308 423.484 271.869 421.584 271.485 419.791C270.86 416.906 270.118 413.462 271.896 410.901C273.739 408.242 275.918 409.944 279.474 406.961C283.031 403.979 282.568 400.855 285.797 399.304C287.018 398.714 288.11 397.888 289.01 396.875C289.431 396.437 289.743 395.906 289.921 395.324C290.17 394.378 289.813 393.896 290.177 393.474C290.592 392.996 291.594 393.009 292.266 393.404C293.042 393.859 293.463 394.873 293.227 395.608C292.991 396.342 292.215 396.309 291.128 397.68C290.862 397.948 290.678 398.288 290.599 398.657C290.514 399.271 290.909 399.476 291.058 400.322C291.188 400.915 291.125 401.534 290.879 402.088C290.541 402.782 290.069 402.712 289.867 403.322C289.651 403.996 290.17 404.333 289.921 404.838C289.644 405.391 288.908 405.175 288.186 405.778C287.714 406.183 287.731 406.537 287.356 407.325C286.638 408.838 285.916 408.906 285.447 409.873Z" fill="#F2A050"/>
<path d="M232.136 357.894C232.099 356.701 233.051 355.198 233.52 354.47C233.894 353.887 235.544 351.437 237.801 350.655C243.085 348.856 249.705 357.058 251.483 359.252C253.892 362.235 255.37 364.065 254.746 365.217C252.826 368.783 232.315 363.286 232.136 357.894Z" fill="#0C8787"/>
<path d="M213.032 370.616C211.909 371.792 209.891 373.881 209.753 376.709C209.604 379.708 211.669 381.235 213.923 385.056C216.285 389.04 217.061 392.527 217.786 395.726C219.416 402.917 218.384 409.172 217.631 413.482C216.17 421.86 213.974 423.865 215.576 426.868C217.938 431.249 219.541 449.255 222.156 449.41C228.374 449.78 264.332 454.219 266.599 447.175C267.068 445.709 269.099 412.127 269.099 409.967C269.099 406.402 268.05 392.076 268.799 378.289C269.103 372.715 269.335 370.538 267.854 367.96C267.071 366.612 266.7 366.181 264.069 365.15C260.158 363.62 256.467 363.906 252.435 361.78C247.104 358.959 242.684 354.214 239.883 350.996C238.368 349.243 235.817 346.544 236.084 347.653C240.993 368.061 215.212 368.341 213.032 370.616Z" fill="#F9EFEF"/>
<path d="M235.2 341.347C233.661 342.695 236.61 349.513 235.386 355.114C233.881 361.965 229.282 359.896 227.79 360.887C225.695 362.278 230.827 364.887 233.462 366.467C237.147 368.685 244.816 377.191 248.308 375.432C254.331 372.399 253.433 362.733 252.425 361.77C251.655 361.035 250.343 361.77 249.567 356.89C249.094 353.911 249.256 350.618 248.521 348.054C246.776 341.937 237.757 339.093 235.2 341.347Z" fill="#FFC48A"/>
<path d="M268.158 366.777C267.095 365.621 266.049 365.271 263.414 364.243C261.808 363.613 255.559 361.722 253.677 360.944C254.119 369.467 254.847 371.964 254.547 376.267C253.923 385.174 255.512 393.727 256.339 410.752C256.676 417.9 256.194 450.707 256.295 454.899C263.313 454.482 269.339 454.482 269.693 451.866C269.899 450.347 269.093 419.781 269.089 417.634C269.089 414.069 270.861 397.488 269.724 378.276C269.396 372.722 270.513 369.352 268.158 366.777Z" fill="#28DABC"/>
<path d="M242.991 379.799C242.552 377.416 240.848 375.014 233.482 364.354C232.273 362.603 230.973 360.916 229.589 359.299C223.246 365.429 209.759 370.565 209.034 373.72C208.67 375.303 209.3 373.888 209.159 376.715C209.01 379.715 211.075 381.241 213.329 385.063C215.691 389.046 216.47 392.534 217.192 395.732C218.822 402.924 221.741 407.925 220.988 412.245C219.527 420.62 216.103 434.417 217.705 437.419C220.067 441.8 224.568 431.69 227.183 431.862C229.596 432.004 235.787 431.67 242.596 430.797C242.562 426.632 242.596 421.361 242.825 415.265C243.449 398.374 244.468 387.823 242.991 379.799Z" fill="#17A1A4"/>
<path d="M242.987 379.762C242.549 377.383 240.848 374.977 233.479 364.317C232.269 362.567 230.971 360.88 229.589 359.262C223.242 365.389 209.756 370.525 209.031 373.679C208.666 375.263 209.297 373.848 209.159 376.678C209.01 379.674 211.075 381.201 213.329 385.022C215.691 389.009 216.467 392.494 217.193 395.695C218.819 402.883 217.506 405.859 216.754 410.186C215.293 418.564 212.813 444.56 214.419 447.553C216.781 451.934 236.047 452.608 242.852 451.721C242.822 447.556 242.599 421.317 242.822 415.235C243.45 398.334 244.465 387.772 242.987 379.762Z" fill="#17A1A4"/>
<path d="M242.987 379.762C242.549 377.383 240.848 374.977 233.479 364.317C232.269 362.567 230.971 360.88 229.589 359.262C223.242 365.389 209.756 370.525 209.031 373.679C208.666 375.263 209.297 373.848 209.159 376.678C209.01 379.674 211.075 381.201 213.329 385.022C215.691 389.009 216.467 392.494 217.193 395.695C218.819 402.883 217.506 405.859 216.754 410.186C215.293 418.564 212.789 449.096 213.218 452.47C213.478 454.512 236.27 456.15 243.079 455.273C243.048 451.112 242.599 421.317 242.822 415.235C243.45 398.334 244.465 387.772 242.987 379.762Z" fill="#28DABC"/>
<path d="M254.405 381.147C254.372 381.74 254.355 369.632 253.903 367.512C252.512 360.978 249.574 358.433 249.516 357.18C249.493 356.435 252.968 359.289 254.459 360.627C255.506 361.597 256.398 362.721 257.104 363.96C258.832 366.814 260.59 371.091 259.574 371.822C258.964 372.26 257.621 371.236 257.371 371.586C257.121 371.937 258.508 372.783 258.721 374.033C259.078 376.362 254.405 381.147 254.405 381.147Z" fill="#00F0AB"/>
<path d="M250.778 360.61C250.144 359.69 249.766 358.12 249.577 356.903C245.528 357.021 242.576 356.094 240.372 354.881C237.751 353.429 236.165 350.328 235.588 349.863C235.507 349.991 235.709 351.046 235.676 351.184C236.293 353.092 239.988 361.176 250.778 360.61Z" fill="#F2A050"/>
<path d="M256.639 338.068C256.683 339.659 256.44 342.082 255.667 345.29C255.019 347.986 255.33 350.652 253.73 353.577C252.519 355.771 251.17 357.129 248.96 358.002C242.417 360.59 235.173 351.211 234.161 346.739C233.823 345.317 232.666 339.925 235.625 334.365C236.469 332.781 238.591 328.794 243.18 327.203C244.239 326.836 248.271 325.609 252.023 327.769C257.078 330.685 256.612 337 256.639 338.068Z" fill="#FFC48A"/>
<path d="M239.441 334.267C240.332 333.256 246.658 335.43 248.49 336.073C253.788 337.93 256.885 338.432 257.84 336.511C258.643 334.894 258.562 329.876 254.702 326.523C243.905 317.141 232.872 325.256 232.872 325.256C232.872 325.256 225.962 330.017 229.717 340.913C229.717 340.913 233.091 348.327 234.93 348.31C235.743 348.31 232.339 340.96 233.918 339.885C234.593 339.433 236.89 339.885 237.656 340.862C238.878 342.419 238.614 341.294 238.668 339.052C238.749 336.255 238.679 335.133 239.441 334.267Z" fill="#1C2546"/>
<path d="M236.985 340.896C236.938 340.812 236.023 339.231 234.825 339.403C233.628 339.575 232.976 341.25 232.801 342.342C232.366 344.953 234.259 347.912 235.527 347.734C236.931 347.508 238.331 343.278 236.985 340.896Z" fill="#FFC48A"/>
<path d="M235.703 351.922C234.275 352.751 232.968 353.771 231.819 354.955C230.922 355.966 230.392 356.536 229.953 357.459C229.393 358.642 229.278 359.721 229.356 362.292C229.508 368.183 230.186 367.9 230.031 371.323C229.953 373.12 229.734 373.979 230.368 374.592C231.495 375.694 234.188 374.879 235.22 374.565C236.634 374.134 237.126 373.197 237.72 373.46C238.314 373.723 238.159 374.784 238.517 375.947C239.363 378.697 243.395 382.626 243.395 382.626C243.395 382.626 244.168 380.305 240.227 373.912C238.017 370.329 237.191 367.34 236.418 365.365C233.509 357.891 234.765 355.063 234.991 353.934C235.152 353.239 235.391 352.564 235.703 351.922Z" fill="#00F0AB"/>
<path d="M278.476 401.559L284.114 401.846C284.385 401.859 284.655 401.805 284.9 401.687C285.145 401.569 285.356 401.392 285.514 401.172L295.636 387.092C295.708 386.989 295.751 386.869 295.758 386.744C295.765 386.619 295.738 386.494 295.678 386.384C295.619 386.273 295.529 386.182 295.421 386.119C295.312 386.057 295.188 386.026 295.063 386.03L286.432 386.327C286.173 386.336 285.921 386.407 285.695 386.533C285.47 386.66 285.278 386.839 285.136 387.055L277.217 399.065C277.061 399.302 276.971 399.575 276.954 399.858C276.938 400.141 276.997 400.423 277.124 400.676C277.252 400.929 277.444 401.144 277.681 401.299C277.919 401.454 278.193 401.544 278.476 401.559Z" fill="#090951"/>
<path d="M270.186 398.041L270.25 398.017C270.307 397.997 270.118 398.051 270.186 398.041Z" fill="#EB8E6C"/>
<path d="M288.426 398.395C289.101 397.839 289.556 397.384 289.522 396.834C289.492 396.539 289.369 396.261 289.172 396.039C288.974 395.817 288.712 395.663 288.423 395.597C287.923 395.537 287.663 395.934 287.377 395.803C286.995 395.608 287.326 394.792 286.938 394.404C286.55 394.017 285.48 394.374 284.735 394.637L280.493 395.756C277.605 396.517 277.001 396.352 275.095 397.104C274.892 397.181 274.356 397.397 273.604 397.646C272.929 397.865 272.72 397.933 272.669 397.943C271.194 398.58 271.586 398.047 273.587 396.595C274.16 396.174 275.81 395.223 275.8 394.627C275.793 394.423 275.735 394.224 275.632 394.047C275.529 393.871 275.384 393.723 275.21 393.616C274.892 393.414 274.565 393.464 273.944 393.555C273.431 393.643 272.926 393.776 272.436 393.953C271.141 394.378 270.921 394.553 270.773 394.708C270.533 394.954 270.621 394.994 270.273 395.483C269.777 396.177 269.514 396.221 269.099 396.76C268.759 397.213 268.517 397.732 268.391 398.283C268.222 398.981 268.391 399.126 268.37 400.164C268.35 401.087 268.327 402.024 267.78 402.829C267.611 403.075 267.443 403.315 266.515 403.901C253.562 412.107 236.307 413.917 235.338 414.072C235.24 416.256 233.499 418.625 233.24 421.001C232.953 423.639 231.606 428.816 231.606 428.816C231.606 428.816 257.347 422.841 264.308 416.926C265.658 415.791 267.395 414.732 268.455 413.988C269.514 413.243 270.209 412.124 271.704 411.72C272.305 411.554 272.527 411.618 273.523 411.527C274.905 411.386 276.271 411.114 277.602 410.715C279.485 410.126 279.059 409.762 282.727 407.864C284.822 406.779 285.197 406.459 285.997 405.785C288.375 403.763 287.039 402.833 287.039 402.833C287.477 402.602 287.903 402.349 288.315 402.075C289.533 400.983 288.74 399.692 287.528 400.13C285.841 400.747 284.546 401.077 284.522 401.023C284.498 400.969 286.459 400.019 288.426 398.395Z" fill="#FFC48A"/>
<path d="M277.686 400.562L277.477 399.948C278.669 399.551 279.839 399.093 280.983 398.577C281.32 398.422 281.56 398.311 281.81 398.189C282.147 398.027 282.525 397.852 283.247 397.515L284.023 397.178C284.509 396.963 284.897 396.794 285.457 396.524C286.017 396.255 286.503 396.009 287.009 395.739L287.316 396.309C286.8 396.582 286.27 396.851 285.74 397.104C285.211 397.357 284.759 397.559 284.286 397.778L283.514 398.115C282.802 398.452 282.424 398.617 282.093 398.789C281.84 398.91 281.6 399.025 281.253 399.183C280.123 399.682 278.921 400.144 277.686 400.562Z" fill="#F2A050"/>
<path d="M281.091 402.88L280.753 402.321C281.317 402 281.904 401.724 282.511 401.495C282.886 401.354 283.277 401.229 283.665 401.125L283.834 401.751C283.463 401.843 283.098 401.955 282.741 402.088C282.171 402.308 281.619 402.573 281.091 402.88Z" fill="#F2A050"/>
<path d="M282.289 405.553L281.971 404.99C282.849 404.501 283.75 404.029 284.65 403.591C285.278 403.288 285.919 402.995 286.557 402.715L286.817 403.305C286.186 403.581 285.555 403.874 284.937 404.174C284.046 404.606 283.156 405.074 282.289 405.553Z" fill="#F2A050"/>
<path d="M238.21 412.936C235.794 413.152 234.91 412.818 234.91 412.818C234.91 412.818 234.272 408.1 233.466 405.273C233.391 405.017 229.221 390.155 226.94 384.173C225.813 381.29 224.351 378.55 222.584 376.008C220.016 372.301 218.556 371.549 217.914 371.263C217.752 371.192 213.744 369.477 210.637 371.515C208.669 372.806 207.937 375.037 207.428 377.811C205.832 386.792 208.136 394.742 208.97 397.377C210.994 403.78 213.866 408.302 217.486 414.143C221.339 420.37 221.65 419.407 224.038 423.946C225.725 427.11 226.302 429.001 228.317 429.769C229.754 430.322 234.221 428.758 238.719 427.656C237.241 423.36 237.923 415.349 238.21 412.936Z" fill="#00F0AB"/>
<path d="M229.842 578.72C228.998 578.748 228.154 578.733 227.311 578.676C223.356 578.398 219.526 577.172 216.146 575.101L216.427 574.646C221.165 577.561 226.772 578.737 232.285 577.972L232.359 578.501C231.532 578.629 230.685 578.69 229.842 578.72Z" fill="#257493"/>
<path d="M233.25 583.903C233.064 583.644 232.237 582.478 232.622 581.254C233.037 579.927 234.701 579.084 235.956 579.357C236.819 579.546 237.525 580.27 237.788 580.54C237.995 580.754 238.182 580.986 238.348 581.234C239.934 583.569 242.323 584.126 242.059 584.847C241.624 586.016 235.308 586.805 233.25 583.903Z" fill="#253956"/>
<path d="M259.908 573.186C259.571 573.048 258.343 571.471 257.982 569.335C257.82 568.371 258.012 566.975 258.785 566.638C259.385 566.386 260.067 566.905 261.7 568.142C266.066 571.451 266.424 571.704 266.312 572.078C266.059 573.048 262.115 574.12 259.908 573.186Z" fill="#253956"/>
<path d="M632.744 342.948C629.501 341.637 622.621 341.388 618.809 344.023C611.605 348.987 618.626 367.212 626.397 370.794C629.869 372.398 634.663 371.266 637.822 368.361C641.334 365.129 641.766 360.667 641.871 359.441C642.505 353.018 640.44 346.055 632.744 342.948Z" fill="#1C2546"/>
<path d="M640.598 380.685C628.614 379 632.332 372.26 634.667 363.303C635.385 360.553 621.103 365.453 620.3 369.706C619.962 371.532 620.597 374.04 620.06 376.109C619.325 378.973 616.065 380.348 614.304 380.827C610.873 381.723 608.268 381.069 607.877 382.003C606.358 385.629 611.548 393.916 614.348 394.809C627.753 399.089 644.111 381.181 640.598 380.685Z" fill="#FFC48A"/>
<path d="M648.106 572.074C646.419 569.072 640.008 568.536 638.345 570.652C637.552 571.663 638.294 572.738 637.197 575.033C636.398 576.688 635.716 576.718 635.379 577.786C634.657 580.054 636.428 584.051 639.971 585.093C643.294 586.066 646.695 584.011 647.731 581.675C647.846 581.419 648.932 580.961 648.113 578.925C647.229 576.725 648.561 572.9 648.106 572.074Z" fill="#FFC48A"/>
<path d="M614.804 572.563C614.993 570.329 615.478 570.005 615.09 569.055C613.869 565.965 607.047 564.718 605.231 566.871C604.01 568.32 605.872 570.339 604.277 573.513C603.878 574.302 603.342 575.01 603.511 575.98C603.679 576.951 604.351 577.392 605.329 578.258C608.346 580.927 607.873 581.628 609.253 582.147C611.136 582.858 614.004 582.296 615.09 580.627C616.251 578.831 614.419 577.254 614.804 572.563Z" fill="#FFC48A"/>
<path d="M627.787 458.798C621.65 451.539 613.211 441.163 608.605 445.47C605.721 448.166 600.474 470.671 602.232 492.943C602.674 498.511 603.558 503.983 604.084 506.895C605.356 513.935 606.294 516.254 606.308 521.582C606.308 524.422 606.055 528.008 605.937 529.67C605.68 533.225 605.417 535.26 605.194 537.38C604.182 547.025 604.907 547.247 604.455 556.104C604.162 561.792 604.455 569.874 604.455 569.874L616.12 570.972C616.12 570.972 616.146 565.702 616.676 562.345C617.658 556.141 618.876 556.117 620.01 550.597C621.235 544.619 620.914 534.445 620.644 529.299C620.535 527.215 620.78 525.127 621.37 523.125C623.61 515.526 625.604 491.585 622.935 479.959C622.156 476.545 636.013 468.538 627.787 458.798Z" fill="#00F0AB"/>
<path d="M647.414 517.541C646.689 513.716 646.797 509.308 647.043 500.654C647.249 493.536 647.35 489.974 647.785 484.865C648.629 474.948 649.601 472.174 648.524 466.509C647.779 462.573 642.981 448.028 640.599 445.47C633.361 437.682 618.589 441.527 616.396 447.634C616.15 448.308 617.672 459.678 618.529 465.04C618.751 466.428 622.79 499.667 629.916 522.175C630.993 525.582 633.203 528.719 634.451 531.86C635.038 533.336 635.656 535.291 636.303 540.673C637.292 548.858 636.496 549.583 637.417 557.93C637.899 562.311 636.259 572.266 637.231 573.689C637.231 573.689 648.862 574.282 648.895 573.352C649.267 563.622 652.162 552.795 652.229 543.979C652.338 539.424 651.966 534.871 651.119 530.394C649.793 523.59 648.538 523.462 647.414 517.541Z" fill="#E3FDF6"/>
<path d="M647.971 577.389C647.488 577.419 647.741 579.839 646.489 580.327C646.263 580.412 645.696 580.553 643.527 579.225C641.475 577.968 641.425 577.5 640.193 576.839C638.962 576.179 636.323 575.239 635.007 576.287C634.154 576.961 634.7 577.79 633.897 580.142C633.322 581.763 632.443 583.259 631.306 584.55C630.484 585.513 629.551 586.375 628.526 587.118C627.011 588.2 626.363 588.22 625.378 589.322C624.882 589.878 624.177 590.69 624.082 591.893C624.065 592.129 623.961 593.443 624.824 594.279C625.374 594.812 626.032 594.872 627.23 595.014C628.58 595.172 629.929 595.439 631.306 595.563C635.925 595.988 635.692 596.257 637.042 596.113C638.534 595.979 639.983 595.542 641.3 594.829C642.953 593.915 642.798 593.383 644.634 592.257C646.776 590.946 647.603 591.287 648.521 590.235C649.06 589.622 649.425 588.766 649.448 586.013C649.485 581.662 648.615 577.352 647.971 577.389Z" fill="black"/>
<path d="M615.009 577.022C614.442 577.022 614.567 578.949 612.985 579.96C612.266 580.415 611.136 580.725 610.208 580.328C609.088 579.846 609.263 578.757 608.184 577.389C606.868 575.738 604.391 574.524 602.815 575.185C602.212 575.441 602.313 575.727 600.791 577.756C599.904 578.929 599.178 579.748 598.014 581.062C596.85 582.376 596.327 582.98 595.791 583.448C594.56 584.628 593.115 585.563 591.533 586.201C588.894 587.212 587.821 586.414 586.532 587.671C585.829 588.435 585.377 589.396 585.237 590.424C585.149 591.004 585.021 591.87 585.422 592.625C585.962 593.636 587.214 594.003 588.941 594.279C591.583 594.701 593.564 595.017 596.904 594.461C600.055 593.936 599.755 593.41 604.125 592.439C607.634 591.664 610.421 591.337 610.421 591.337C614.395 590.872 615.431 591.192 616.345 590.235C617.26 589.278 617.152 587.691 616.902 584.547C616.595 581.197 615.849 577.008 615.009 577.022Z" fill="black"/>
<path d="M604.438 384.032C603.905 384.706 600.167 388.413 599.813 389.963C599.263 392.322 598.861 394.651 594.64 400.039C592.022 403.386 578.664 416.407 590.277 425.072C591.914 426.295 604.702 422.21 604.729 405.768C604.729 392.585 610.103 385.066 610.022 381.504C610.009 380.871 606.2 381.858 604.438 384.032Z" fill="#7030A0"/>
<path d="M597.653 406.166C596.023 408.744 592.929 414.732 593.786 424.681C597.049 423.42 601.597 420.02 603.649 413.367C603.486 412.252 603.425 411.124 603.467 409.997C603.568 407.741 604.023 405.514 604.816 403.399C604.975 401.654 605.297 399.928 605.778 398.243C604.108 398.748 600.271 402.041 597.653 406.166Z" fill="#A644F0"/>
<path d="M598.75 388.312C598.483 388.15 597.437 387.516 596.675 388.109C596.209 388.522 595.923 389.1 595.878 389.72C595.841 390.286 596.047 390.569 595.878 390.927C595.71 391.284 595.325 391.203 595.082 391.53C594.745 391.982 594.974 392.824 595.16 393.744C595.497 395.429 595.16 394.755 595.639 397.768C596.027 400.201 596.189 400.268 596.118 400.986C595.963 402.543 595.058 403.561 594.522 404.204C591.35 408.016 589.65 412.559 589.1 414.261C588.567 415.905 588.02 417.664 588.304 419.895C588.381 420.525 588.779 423.697 590.854 425.024C591.638 425.513 592.577 425.692 593.486 425.526C596.425 425.112 598.247 421.819 598.75 420.899C599.252 419.979 600.13 418.173 600.902 410.641C601.304 406.719 601.658 403.133 601.381 398.27C601.169 394.549 600.845 389.572 598.75 388.312Z" fill="#F2A050"/>
<path d="M627.962 370.114C626.11 371.222 623.6 372.099 620.141 372.136C620.256 373.326 620.256 374.524 620.141 375.715C620.661 375.729 621.18 375.695 621.693 375.614C628.34 374.643 631.613 368.749 632.082 367.087C632.048 366.968 631.996 366.854 631.927 366.75C631.458 367.148 630.162 368.799 627.962 370.114Z" fill="#F2A050"/>
<path d="M628.479 344.717C627.537 344.242 623.934 342.604 620.168 344.144C615.08 346.224 614.719 352.135 614.557 353.136C614.318 354.605 614.24 356.886 614.557 359.96C614.824 362.528 614.186 364.978 615.32 367.896C616.173 370.083 617.26 371.509 619.21 372.594C624.98 375.806 632.899 367.997 634.427 363.974C634.913 362.693 636.674 357.833 634.616 352.303C634.029 350.729 632.551 346.773 628.479 344.717Z" fill="#FFC48A"/>
<path d="M636.887 353.196C635.979 350.463 635.355 348.596 633.631 346.699C632.825 345.81 631.895 345.044 630.867 344.424C629.553 343.649 628.115 343.105 626.616 342.817C625.219 342.545 623.782 342.552 622.388 342.837C622.115 342.894 621.842 342.978 621.558 343.046C611.51 345.405 613.936 356.495 614.425 358.426C613.862 352.333 628.934 349.803 628.894 350.568C628.583 359.259 633.553 358.699 637.44 358.497C637.54 357.878 637.581 357.251 637.562 356.624C637.506 355.454 637.279 354.299 636.887 353.196Z" fill="#1C2546"/>
<path d="M634.64 357.523C633.547 357.217 632.494 358.568 632.44 358.642C630.884 360.688 631.66 364.789 632.946 365.16C634.103 365.497 636.239 362.983 636.165 360.502C636.131 359.468 635.693 357.816 634.64 357.523Z" fill="#FFC48A"/>
<path d="M633.345 363.04L633.27 363.122L633.345 363.04Z" fill="#C36252"/>
<path d="M633.482 362.888L633.344 363.04L633.371 363.013L633.476 362.898L633.482 362.888Z" fill="#C36252"/>
<path d="M640.598 380.685C640.598 380.685 635.338 386.37 621.504 386.593C611.446 386.758 610.033 381.487 610.033 381.487C610.033 381.487 597.167 405.189 602.741 415.056C603.871 417.058 599.782 433.847 605.103 451.789C607.127 458.559 643.588 458.721 645.562 451.115C647.002 445.558 646.301 428.506 647.218 406.712C647.481 400.433 654.979 399.82 652.242 387.651C650.98 381.993 640.598 380.685 640.598 380.685Z" fill="#7030A0"/>
<path d="M608.416 384.285C608.358 383.887 608.163 383.523 607.865 383.253C607.567 382.983 607.185 382.825 606.783 382.805L599.634 382.441C597.663 382.441 597.022 383.6 597.201 384.686L600.309 399.719C600.373 400.112 600.571 400.47 600.869 400.734C601.167 400.998 601.547 401.151 601.945 401.168L608.794 401.482C609.049 401.494 609.303 401.451 609.539 401.354C609.775 401.258 609.987 401.11 610.159 400.923C610.331 400.735 610.46 400.512 610.536 400.269C610.612 400.026 610.634 399.769 610.599 399.517L608.416 384.285Z" fill="#474B4C"/>
<path d="M607.822 384.722C607.764 384.325 607.57 383.959 607.272 383.689C606.974 383.418 606.591 383.26 606.189 383.24L599.04 382.876C598.782 382.861 598.523 382.905 598.284 383.003C598.045 383.102 597.831 383.252 597.658 383.444C597.485 383.635 597.356 383.863 597.282 384.111C597.209 384.358 597.191 384.619 597.231 384.874L599.715 400.154C599.779 400.546 599.977 400.904 600.275 401.168C600.573 401.432 600.953 401.586 601.351 401.603L608.2 401.916C608.455 401.929 608.709 401.885 608.945 401.789C609.181 401.692 609.393 401.545 609.565 401.357C609.737 401.17 609.866 400.946 609.942 400.704C610.018 400.461 610.04 400.204 610.005 399.951L607.822 384.722Z" fill="#092226"/>
<path d="M648.193 383.735C646.601 383.449 645.342 384.446 643.669 385.713C641.929 387.023 640.401 388.593 639.141 390.367C638.378 391.456 637.298 393.175 634.964 399.214C633.314 403.47 633.388 403.817 631.711 408.174C629.987 412.656 629.727 412.771 628.695 415.737C626.714 421.435 625.749 424.327 626.954 426.443C628.242 428.715 631.377 429.985 633.918 429.476C635.979 429.058 636.506 429.688 638.888 426.359C642.28 421.677 645.351 416.77 648.079 411.672C649.695 408.511 651.675 404.575 652.721 399.102C652.721 399.096 655.117 384.972 648.193 383.735Z" fill="#A644F0"/>
<path d="M621.963 409.391C620.947 408.351 619.987 407.256 619.089 406.112C618.11 404.858 617.864 404.38 617.699 403.868C617.334 402.759 617.648 402.445 617.361 401.192C617.091 400.063 616.592 399.298 615.971 398.344C614.999 396.861 614.706 396.996 613.883 395.672C613.37 394.745 612.905 393.794 612.489 392.821C611.703 391.119 611.514 390.583 611.008 390.492C610.502 390.401 609.773 390.873 609.53 391.442C609.412 391.712 609.402 391.985 609.53 392.649C609.748 393.752 610.098 394.824 610.573 395.844C611.048 396.855 611.315 397.168 611.183 397.31C610.964 397.545 609.894 397.03 609.095 396.359C608.17 395.591 608.022 394.967 607.178 393.687C606.193 392.191 606.109 392.605 604.816 390.836C603.602 389.151 603.268 388.224 602.117 387.803C601.932 387.739 601.233 387.489 600.896 387.803C600.558 388.116 600.774 388.861 600.896 389.269C601.125 389.961 601.479 390.605 601.942 391.169C603.328 393.08 603.666 393.636 603.942 394.202C604.415 395.143 604.725 395.756 604.465 396.103C604.05 396.659 602.417 396.201 601.429 395.672C600.631 395.229 599.946 394.609 599.428 393.859C598.918 393.153 598.534 392.364 598.294 391.527C597.761 389.798 597.957 388.639 597.687 388.595C597.417 388.551 596.955 389.498 596.816 390.404C596.713 391.396 596.828 392.398 597.154 393.34C597.277 393.645 597.364 393.964 597.414 394.29C597.478 394.837 597.449 395.391 597.329 395.928C597.066 398.189 598.342 397.882 598.284 398.961C598.224 399.563 598.224 400.169 598.284 400.771C598.48 401.684 599.296 402.119 600.724 403.015C603.588 404.835 602.92 404.778 604.729 405.778C607.04 407.059 607.495 406.789 609.081 407.848C609.925 408.407 610.788 409.138 612.212 410.881C616.41 415.973 621.828 424.276 623.947 424.846C626.066 425.415 627.767 424.987 628.857 422.935C629.062 422.548 630.297 418.534 629.899 417.081C629.656 416.195 623.984 411.477 621.963 409.391Z" fill="#FFC48A"/>
<path d="M597.66 394.661L597.245 394.954C598.844 397.161 600.919 398.169 602.033 398.708C602.259 398.819 602.454 398.914 602.6 398.994L602.849 398.556C602.691 398.469 602.492 398.371 602.255 398.256C601.105 397.697 599.182 396.764 597.66 394.661Z" fill="#F2A050"/>
<path d="M598.109 399.129C598.851 399.847 600.322 401.05 601.854 401.05V400.548C600.504 400.548 599.155 399.433 598.48 398.769L598.109 399.129Z" fill="#F2A050"/>
<path d="M636.35 418.891C635.622 418.217 635.153 417.998 632.639 416.704C627.139 413.883 626.262 412.39 626.137 413.024C625.304 417.28 623.86 419.612 618.825 420.617C618.825 420.617 622.426 424.886 622.655 425.105C624.312 426.679 627.041 429.22 631.127 430.16C632.43 430.464 633.179 430.629 634.164 430.393C637.076 429.682 639.404 425.992 638.807 422.797C638.425 420.826 637.025 419.521 636.35 418.891Z" fill="#A644F0"/>
<path d="M638.476 337.182C636.404 336.781 633.513 337.249 632.403 338.827C631.212 340.512 630.857 345.388 634.488 347.814C635.295 348.344 636.152 348.796 637.045 349.162C639.097 350.049 640.554 350.679 641.904 350.298C643.719 349.786 644.424 347.707 644.563 347.295C645.818 343.565 643.014 338.065 638.476 337.182Z" fill="#1C2546"/>
<path d="M146.045 356H99.2768C94.1533 356 90 360.162 90 365.296V412.159C90 417.293 94.1533 421.454 99.2768 421.454H146.045C151.168 421.454 155.322 417.293 155.322 412.159V365.296C155.322 360.162 151.168 356 146.045 356Z" fill="#00F0AB"/>
<path d="M122.407 410.159C134.507 410.159 144.315 400.33 144.315 388.206C144.315 376.083 134.507 366.254 122.407 366.254C110.308 366.254 100.5 376.083 100.5 388.206C100.5 400.33 110.308 410.159 122.407 410.159Z" fill="white"/>
<path d="M132.549 385.926L119.97 378.648C119.703 378.488 119.399 378.403 119.088 378.401C118.777 378.398 118.471 378.479 118.202 378.635C117.932 378.791 117.71 379.015 117.556 379.286C117.402 379.557 117.324 379.864 117.328 380.175V394.727C117.323 395.039 117.401 395.347 117.554 395.618C117.708 395.89 117.93 396.115 118.2 396.271C118.469 396.427 118.775 396.509 119.087 396.506C119.398 396.504 119.703 396.419 119.97 396.259L132.549 388.981C132.82 388.829 133.045 388.607 133.203 388.339C133.36 388.07 133.442 387.765 133.442 387.454C133.442 387.142 133.36 386.837 133.203 386.568C133.045 386.3 132.82 386.078 132.549 385.926Z" fill="#00F0AB"/>
<path d="M742.212 413.576C743.096 411.864 722.963 405.733 722.632 422.552C722.632 422.552 684.906 421.613 702.913 400.596C709.154 393.305 708.519 387.312 708.326 381.706C708.132 376.099 712.22 359.805 726.167 361.462C726.167 361.462 729.812 359.971 734.396 362.346C744.781 367.704 768.034 419.762 742.212 413.576Z" fill="#7030A0"/>
<path d="M680.543 432.356C680.543 432.356 678.085 428.627 676.096 428.544C674.108 428.462 670.462 427.44 670.739 428.185C671.042 428.931 673.307 428.986 673.528 429.428C673.749 429.87 670.159 430.533 669.137 430.588C668.115 430.671 665.685 430.588 665.767 431.113C665.85 431.638 670.131 433.764 673.141 433.46C676.179 433.156 679.908 434.344 679.908 434.344L680.543 432.356Z" fill="#FFC48A"/>
<path d="M716.059 433.571C716.059 433.571 714.733 436.223 712.303 439.26C709.375 442.906 704.874 447.131 699.24 447.96C696.533 448.347 693.91 447.767 691.479 446.69C684.63 443.652 679.466 436.637 679.466 436.637C678.251 433.35 680.239 431.113 680.239 431.113C680.239 431.113 694.103 434.234 695.401 433.571C696.727 432.908 704.404 410.732 706.254 407.942C708.077 405.153 714.346 403.717 714.346 403.717L716.059 433.571Z" fill="#CBB1DF"/>
<path d="M712.302 439.232C709.375 442.878 704.873 447.103 699.239 447.932C696.533 448.318 693.909 447.738 691.479 446.661C691.755 446.689 698.604 447.545 701.338 442.657C704.128 437.686 707.138 429.76 711.28 432.383C713.048 433.571 712.965 436.388 712.302 439.232Z" fill="#7030A0"/>
<path d="M767.73 583.091C767.73 583.091 771.956 586.958 771.127 589.692C770.299 592.426 766.487 594.248 765.963 597.618C765.438 600.959 763.394 602.782 761.516 602.782C759.666 602.782 752.679 602.782 752.679 602.782C752.679 602.782 751.326 600.435 754.612 599.717C757.899 598.999 759.169 595.077 758.948 591.404C758.755 587.758 759.252 582.87 759.252 582.87L766.267 581.241L767.73 583.091Z" fill="#282830"/>
<path d="M731.966 584.72C731.966 584.72 733.485 601.07 731.635 601.981L707.884 601.926C707.884 601.926 707.884 599.192 711.695 598.584C715.506 597.976 722.217 595.739 723.349 590.768C724.482 585.797 731.966 584.72 731.966 584.72Z" fill="#282830"/>
<path d="M748.895 467.485C744.007 456.521 741.024 453.372 741.577 449.975C741.991 447.435 740.279 402.777 740.279 402.777C739.699 402.584 738.539 402.446 737.904 402.308C735.887 401.866 734.23 400.458 733.54 398.524C732.711 396.205 732.049 392.752 732.049 388.444L731.413 388.555L720.891 390.626C720.891 390.626 721.14 393.94 721.14 397.061C721.14 397.088 721.14 397.116 721.14 397.144C721.14 399.85 719.372 402.253 716.776 402.998C715.451 403.385 714.291 403.716 714.291 403.716C714.291 403.716 710.424 414.763 709.679 426.086C708.933 437.41 716.721 442.353 709.623 464.999C702.415 488.142 751.574 473.533 748.895 467.485Z" fill="#FFC48A"/>
<path d="M720.919 390.626C720.919 390.626 721.168 393.94 721.168 397.061C727.05 396.895 730.171 391.51 731.441 388.555L720.919 390.626Z" fill="#F2A050"/>
<path d="M718.958 393.581C718.958 393.581 732.905 393.802 732.905 385.13C732.905 376.458 734.727 370.631 725.835 370.106C716.942 369.582 715.202 372.896 714.484 375.795C713.766 378.723 715.34 393.305 718.958 393.581Z" fill="#FFC48A"/>
<path d="M719.482 369.913C719.482 369.913 723.293 380.104 729.148 381.595C735.003 383.114 737.544 381.54 737.544 381.54C737.544 381.54 733.042 377.977 732.131 371.736C732.103 371.736 722.354 365.052 719.482 369.913Z" fill="#7030A0"/>
<path d="M720.422 370.742C720.422 370.742 717.605 371.791 716.418 373.862C715.286 375.878 714.319 378.557 714.54 381.844C714.54 381.844 711.668 374.912 714.899 371.018C718.323 366.847 720.422 370.742 720.422 370.742Z" fill="#7030A0"/>
<path d="M721.996 388.196C721.996 388.196 721.029 389.466 719.124 389.383C717.577 389.301 716.97 387.975 716.97 387.975C716.97 387.975 719.814 387.284 721.996 388.196Z" fill="#EBF3FA"/>
<path d="M750.219 422.524C750.219 422.524 750.578 427.523 750.219 433.488C749.971 437.465 745.966 442.767 745.386 444.093C743.95 447.379 742.348 447.932 742.348 447.932L729.865 450.997L725.474 452.074L711.638 447.932C711.638 447.932 705.341 430.367 707.882 420.453C710.423 410.566 714.262 403.689 714.262 403.689C714.262 403.689 725.557 414.736 740.222 402.75L750.219 422.524Z" fill="#CBB1DF"/>
<path d="M746.575 435.145C746.326 439.122 745.967 442.823 745.415 444.121C743.979 447.407 742.377 447.96 742.377 447.96L729.894 451.025L724.481 449.423C724.481 449.423 742.57 446.689 740.554 431.141L746.575 435.145Z" fill="#F2CCAA"/>
<path d="M712.579 450.611C712.579 450.611 705.73 471.931 705.288 479.167C704.846 486.43 718.379 582.235 718.931 585.604C719.456 588.752 723.35 590.768 723.35 590.768C723.35 590.768 725.145 591.818 727.714 591.1C731.276 590.105 732.408 588.89 732.408 588.89C732.408 588.89 737.739 520.565 734.425 496.151C731.138 471.738 731.083 450.638 731.083 450.638H712.579V450.611Z" fill="#00F0AB"/>
<path d="M741.577 449.975C741.577 449.975 752.016 463.977 752.983 473.45C753.95 482.923 754.502 516.202 756.573 525.426C758.644 534.65 766.267 552.435 766.267 581.24C766.267 581.24 765.466 582.897 763.036 583.781C762.262 584.057 761.213 584.333 760.191 584.582C758.175 585.051 756.104 584.057 755.192 582.207C750.028 571.823 733.623 538.378 732.795 531.419C732.187 526.503 727.023 493.97 715.7 474.886C712.993 470.302 717.357 452.074 717.357 452.074L741.577 449.975Z" fill="#E3FDF6"/>
<path d="M721.665 388.444C721.665 388.444 721.416 389.466 718.876 389.3C718.876 389.3 716.749 389.162 716.804 388.057C716.832 388.03 718.903 387.256 721.665 388.444Z" fill="white"/>
<path d="M711.474 447.324C711.474 447.324 714.236 449.506 719.677 449.617C726.194 449.755 742.35 447.96 742.35 447.96C742.35 447.96 743.068 449.976 743.041 452.075C743.041 452.075 723.294 457.046 711.861 452.793C711.888 452.793 710.397 450.031 711.474 447.324Z" fill="#282830"/>
<path d="M721.085 451.853C721.085 450.003 719.759 448.484 718.102 448.484C716.473 448.484 715.12 450.003 715.12 451.853C715.12 453.704 716.445 455.223 718.102 455.223C719.759 455.223 721.085 453.731 721.085 451.853ZM720.118 451.853C720.118 453.179 719.235 454.229 718.13 454.229C717.025 454.229 716.141 453.151 716.141 451.853C716.141 450.528 717.025 449.478 718.13 449.478C719.207 449.478 720.118 450.555 720.118 451.853Z" fill="white"/>
<path d="M763.62 451.163L743.395 468.774L719.292 441.092L739.517 423.482L763.62 451.163Z" fill="#7030A0"/>
<path d="M737.82 451.246C737.82 451.246 730.419 452.102 730.446 453.87C730.474 455.637 732.297 459.255 733.208 459.393C734.119 459.559 739.229 454.505 739.229 454.505L737.82 451.246Z" fill="#FFC48A"/>
<path d="M740.278 402.778C740.278 402.778 750.165 403.468 753.976 412.692C757.76 421.916 764.968 437.382 764.968 440.006C764.968 442.602 760.936 450.638 739.367 455.25C739.367 455.25 737.13 452.903 737.268 451.053C737.268 451.053 750.745 439.481 750.718 438.128C750.662 435.559 748.508 432.19 736.688 420.37C733.429 417.111 740.278 402.778 740.278 402.778Z" fill="#CBB1DF"/>
<path d="M719.513 285.077C719.596 285.371 719.759 285.635 719.984 285.84C720.209 286.045 720.487 286.183 720.786 286.237C723.769 286.793 728.034 290.164 730 292.131L726.446 306.141C723.784 306.928 718.43 307.844 715.545 306.909C715.257 306.815 714.948 306.804 714.654 306.877C714.36 306.949 714.092 307.103 713.881 307.32L705.968 315.459C705.757 315.677 705.611 315.95 705.546 316.247C705.481 316.543 705.5 316.852 705.601 317.139C706.61 320.006 705.833 325.395 705.115 328.086L691.239 332C689.229 330.084 685.758 325.891 685.128 322.918C685.064 322.62 684.919 322.346 684.709 322.127C684.498 321.908 684.231 321.752 683.937 321.677L672.952 318.876C672.659 318.802 672.35 318.811 672.061 318.903C671.772 318.996 671.515 319.167 671.318 319.397C669.346 321.707 664.302 323.727 661.62 324.448L651.294 314.359C651.946 311.654 653.831 306.545 656.084 304.511C656.308 304.306 656.472 304.044 656.556 303.751C656.64 303.459 656.641 303.149 656.559 302.857L653.487 291.92C653.404 291.627 653.241 291.362 653.016 291.157C652.791 290.952 652.513 290.814 652.214 290.758C649.241 290.203 644.966 286.831 643 284.867L646.554 270.855C649.216 270.067 654.57 269.152 657.455 270.089C657.743 270.182 658.052 270.194 658.346 270.121C658.64 270.048 658.908 269.893 659.119 269.676L667.038 261.547C667.249 261.329 667.396 261.056 667.461 260.759C667.526 260.462 667.506 260.152 667.405 259.865C666.397 256.998 667.174 251.609 667.891 248.921L681.769 245C683.779 246.916 687.25 251.109 687.881 254.082C687.944 254.38 688.089 254.653 688.299 254.873C688.509 255.092 688.776 255.248 689.07 255.323L700.056 258.122C700.35 258.197 700.658 258.188 700.947 258.096C701.236 258.005 701.494 257.834 701.691 257.603C703.663 255.291 708.707 253.273 711.388 252.55L721.714 262.639C721.062 265.346 719.167 270.453 716.925 272.489C716.7 272.693 716.536 272.955 716.452 273.247C716.368 273.539 716.367 273.849 716.449 274.141L719.513 285.077ZM690.004 274.703C687.282 274.009 684.416 274.14 681.768 275.079C679.12 276.018 676.81 277.723 675.129 279.979C673.447 282.235 672.471 284.94 672.323 287.752C672.175 290.564 672.862 293.357 674.298 295.777C675.733 298.198 677.852 300.137 680.386 301.35C682.921 302.563 685.758 302.995 688.537 302.592C691.317 302.189 693.915 300.968 696.003 299.085C698.09 297.201 699.574 294.739 700.266 292.01C700.726 290.197 700.824 288.312 700.557 286.461C700.289 284.61 699.661 282.83 698.707 281.223C697.753 279.616 696.493 278.213 694.998 277.094C693.503 275.976 691.803 275.163 689.995 274.703H690.004ZM692.248 265.853C687.78 264.714 683.076 264.929 678.73 266.47C674.384 268.012 670.592 270.811 667.833 274.514C665.074 278.216 663.472 282.656 663.229 287.271C662.986 291.887 664.114 296.471 666.47 300.444C668.826 304.416 672.304 307.599 676.464 309.59C680.624 311.581 685.28 312.291 689.842 311.629C694.405 310.967 698.669 308.963 702.095 305.872C705.522 302.78 707.957 298.739 709.093 294.26C709.847 291.285 710.01 288.19 709.571 285.153C709.132 282.115 708.1 279.194 706.535 276.556C704.97 273.918 702.902 271.615 700.449 269.779C697.996 267.942 695.207 266.608 692.239 265.853H692.248Z" fill="#00F0AB"/>
<path d="M642.861 216.277H569.566C564.895 216.277 560.27 215.355 555.954 213.563C551.639 211.772 547.718 209.147 544.415 205.837C541.113 202.527 538.493 198.598 536.706 194.273C534.919 189.949 533.999 185.314 534 180.633C534.001 171.182 537.749 162.119 544.419 155.436C551.089 148.754 560.134 145 569.566 145H642.861C647.531 145 652.155 145.922 656.469 147.712C660.784 149.503 664.704 152.128 668.006 155.437C671.308 158.746 673.928 162.674 675.715 166.997C677.502 171.32 678.422 175.954 678.422 180.633C678.423 185.314 677.504 189.948 675.718 194.273C673.931 198.597 671.312 202.527 668.01 205.836C664.707 209.146 660.787 211.772 656.472 213.563C652.157 215.355 647.531 216.277 642.861 216.277Z" fill="#D4BDE6"/>
<path d="M553.222 212.536L545.428 253.982L580.397 210.897L553.222 212.536Z" fill="#D4BDE6"/>
<path d="M554.917 172.485H660.413C660.753 172.5 661.092 172.446 661.411 172.326C661.729 172.206 662.021 172.022 662.267 171.787C662.513 171.551 662.708 171.268 662.842 170.954C662.976 170.64 663.045 170.303 663.045 169.962C663.045 169.621 662.976 169.283 662.842 168.97C662.708 168.656 662.513 168.373 662.267 168.137C662.021 167.901 661.729 167.718 661.411 167.598C661.092 167.478 660.753 167.424 660.413 167.439H554.917C554.577 167.424 554.237 167.478 553.919 167.598C553.6 167.718 553.309 167.901 553.063 168.137C552.817 168.373 552.621 168.656 552.488 168.97C552.354 169.283 552.285 169.621 552.285 169.962C552.285 170.303 552.354 170.64 552.488 170.954C552.621 171.268 552.817 171.551 553.063 171.787C553.309 172.022 553.6 172.206 553.919 172.326C554.237 172.446 554.577 172.5 554.917 172.485Z" fill="white"/>
<path d="M554.917 191.218H660.413C660.753 191.233 661.092 191.179 661.411 191.059C661.729 190.939 662.021 190.756 662.267 190.52C662.513 190.284 662.708 190.001 662.842 189.687C662.976 189.374 663.045 189.036 663.045 188.695C663.045 188.354 662.976 188.016 662.842 187.703C662.708 187.389 662.513 187.106 662.267 186.87C662.021 186.634 661.729 186.451 661.411 186.331C661.092 186.211 660.753 186.157 660.413 186.172H554.917C554.577 186.157 554.237 186.211 553.919 186.331C553.6 186.451 553.309 186.634 553.063 186.87C552.817 187.106 552.621 187.389 552.488 187.703C552.354 188.016 552.285 188.354 552.285 188.695C552.285 189.036 552.354 189.374 552.488 189.687C552.621 190.001 552.817 190.284 553.063 190.52C553.309 190.756 553.6 190.939 553.919 191.059C554.237 191.179 554.577 191.233 554.917 191.218Z" fill="white"/>
<path d="M501.653 379.204L372.64 376.588C369.874 376.524 367.246 375.368 365.331 373.372C363.416 371.375 362.368 368.702 362.419 365.936C362.483 363.17 363.639 360.542 365.635 358.627C367.631 356.711 370.305 355.664 373.071 355.715L502.083 358.331C504.849 358.395 507.478 359.551 509.393 361.548C511.309 363.545 512.356 366.219 512.305 368.985C512.24 371.751 511.083 374.378 509.087 376.293C507.091 378.208 504.418 379.254 501.653 379.204Z" fill="black"/>
<path d="M533.756 341.553C533.483 354.955 522.298 365.695 508.898 365.425L367.355 362.553C353.955 362.281 343.213 351.096 343.486 337.696L344.143 305.287C344.63 280.868 365.021 261.296 389.44 261.79L490.923 263.849C515.343 264.336 534.916 284.728 534.42 309.147L533.756 341.553Z" fill="#00F0AB"/>
<path d="M366.288 368.102L509.737 371.022C522.614 371.282 532.935 382.032 532.674 394.906L532.292 413.728C531.231 466.051 486.591 555.329 434.268 554.268C381.944 553.207 340.959 462.191 342.02 409.868L342.402 391.046C342.665 378.162 353.412 367.841 366.288 368.102Z" fill="#00F0AB"/>
<path d="M507.785 322.093C507.716 325.498 506.382 328.755 504.042 331.229C501.703 333.704 498.526 335.218 495.13 335.478C457.01 338.287 417.539 337.596 376.979 333.045C373.583 332.659 370.453 331.019 368.202 328.447C365.951 325.874 364.742 322.554 364.811 319.136L364.962 311.714C365.033 308.316 366.362 305.066 368.692 302.593C371.023 300.12 374.188 298.601 377.576 298.329C417.142 295.206 456.669 295.321 496.094 300.543C499.43 300.994 502.484 302.657 504.671 305.216C506.859 307.775 508.027 311.05 507.953 314.415L507.785 322.093Z" fill="black"/>
<path d="M406.463 316.323C406.428 318.04 405.885 319.709 404.902 321.118C403.92 322.528 402.541 323.614 400.941 324.239C399.341 324.865 397.591 325.003 395.913 324.634C394.235 324.265 392.704 323.408 391.513 322.169C390.322 320.93 389.526 319.367 389.224 317.675C388.922 315.984 389.128 314.241 389.816 312.667C390.505 311.093 391.644 309.758 393.091 308.831C394.538 307.905 396.227 307.428 397.945 307.462C399.086 307.484 400.212 307.731 401.258 308.188C402.304 308.645 403.249 309.304 404.04 310.127C404.831 310.95 405.452 311.921 405.868 312.984C406.284 314.047 406.486 315.181 406.463 316.323Z" fill="#F4E6FF"/>
<path d="M483.639 317.888C483.605 319.605 483.062 321.274 482.079 322.684C481.096 324.093 479.717 325.179 478.117 325.805C476.517 326.43 474.767 326.568 473.089 326.199C471.411 325.831 469.88 324.973 468.689 323.734C467.499 322.496 466.702 320.932 466.4 319.24C466.098 317.549 466.304 315.806 466.993 314.232C467.681 312.658 468.821 311.323 470.268 310.397C471.714 309.47 473.404 308.993 475.121 309.027C476.263 309.049 477.388 309.296 478.434 309.753C479.48 310.21 480.425 310.869 481.216 311.692C482.007 312.515 482.628 313.486 483.044 314.549C483.46 315.612 483.662 316.746 483.639 317.888Z" fill="#F4E6FF"/>
<path d="M397.794 328.23C397.788 328.094 397.835 327.962 397.926 327.861C398.018 327.76 398.145 327.699 398.281 327.692C398.348 327.689 398.416 327.699 398.479 327.721C398.543 327.744 398.601 327.779 398.651 327.824C398.701 327.869 398.742 327.924 398.77 327.985C398.799 328.046 398.816 328.112 398.819 328.179C398.822 328.246 398.811 328.312 398.789 328.375C398.766 328.438 398.731 328.495 398.685 328.544C398.64 328.594 398.586 328.633 398.525 328.661C398.464 328.689 398.399 328.705 398.332 328.707H398.305C398.175 328.71 398.048 328.662 397.953 328.573C397.857 328.483 397.801 328.361 397.794 328.23ZM395.18 328.474C395.048 328.443 394.932 328.363 394.858 328.249C394.784 328.135 394.758 327.996 394.784 327.863C394.798 327.796 394.825 327.734 394.864 327.678C394.902 327.622 394.951 327.574 395.008 327.537C395.065 327.5 395.129 327.475 395.196 327.463C395.262 327.451 395.331 327.452 395.397 327.466C395.463 327.48 395.526 327.507 395.581 327.546C395.637 327.584 395.684 327.633 395.721 327.69C395.758 327.747 395.783 327.81 395.795 327.876C395.807 327.943 395.806 328.011 395.791 328.077C395.767 328.193 395.702 328.297 395.61 328.371C395.517 328.445 395.401 328.485 395.283 328.483C395.246 328.476 395.215 328.466 395.18 328.466V328.474ZM400.792 327.853C400.772 327.789 400.766 327.721 400.772 327.654C400.779 327.587 400.799 327.522 400.832 327.463C400.864 327.404 400.908 327.352 400.962 327.31C401.015 327.268 401.075 327.238 401.14 327.22C401.204 327.198 401.272 327.189 401.339 327.194C401.406 327.199 401.472 327.218 401.531 327.25C401.591 327.282 401.643 327.326 401.685 327.379C401.726 327.432 401.756 327.493 401.773 327.559C401.814 327.689 401.801 327.829 401.737 327.95C401.674 328.07 401.565 328.161 401.435 328.201C401.383 328.214 401.33 328.219 401.277 328.216C401.167 328.215 401.06 328.178 400.973 328.111C400.886 328.045 400.822 327.951 400.792 327.846V327.853ZM392.202 327.437C392.142 327.407 392.088 327.366 392.044 327.316C392 327.266 391.967 327.207 391.946 327.144C391.925 327.08 391.917 327.013 391.922 326.947C391.927 326.88 391.945 326.815 391.975 326.755C392.003 326.694 392.042 326.638 392.092 326.592C392.142 326.546 392.2 326.51 392.264 326.487C392.328 326.465 392.395 326.455 392.463 326.459C392.53 326.464 392.596 326.482 392.657 326.512C392.717 326.541 392.771 326.582 392.816 326.632C392.86 326.682 392.894 326.741 392.915 326.805C392.936 326.868 392.945 326.935 392.94 327.002C392.935 327.069 392.916 327.134 392.886 327.194C392.845 327.283 392.779 327.359 392.695 327.41C392.611 327.461 392.514 327.486 392.416 327.481C392.341 327.482 392.268 327.464 392.202 327.43V327.437ZM403.611 326.741C403.575 326.683 403.551 326.619 403.54 326.552C403.529 326.485 403.531 326.416 403.547 326.35C403.563 326.284 403.592 326.222 403.632 326.167C403.672 326.112 403.723 326.065 403.781 326.03C403.898 325.963 404.036 325.943 404.167 325.974C404.298 326.006 404.412 326.087 404.484 326.201C404.555 326.318 404.576 326.459 404.544 326.593C404.512 326.726 404.428 326.841 404.312 326.914C404.227 326.963 404.13 326.987 404.032 326.982C403.946 326.979 403.863 326.955 403.789 326.912C403.716 326.868 403.654 326.807 403.611 326.734V326.741ZM389.573 325.694C389.522 325.65 389.479 325.596 389.449 325.535C389.418 325.474 389.4 325.408 389.395 325.34C389.39 325.272 389.399 325.204 389.421 325.139C389.443 325.075 389.477 325.015 389.522 324.964C389.613 324.862 389.74 324.799 389.877 324.79C390.013 324.78 390.148 324.825 390.252 324.913C390.355 325.004 390.417 325.131 390.427 325.268C390.436 325.404 390.392 325.539 390.303 325.643C390.253 325.7 390.191 325.746 390.121 325.776C390.051 325.807 389.976 325.822 389.899 325.821C389.779 325.821 389.663 325.776 389.573 325.694ZM406.052 324.964C405.956 324.867 405.903 324.736 405.903 324.599C405.903 324.463 405.956 324.332 406.052 324.234C406.099 324.186 406.156 324.148 406.219 324.121C406.281 324.095 406.349 324.082 406.417 324.082C406.485 324.082 406.552 324.095 406.614 324.121C406.677 324.148 406.734 324.186 406.782 324.234C406.83 324.282 406.869 324.339 406.895 324.401C406.921 324.464 406.935 324.531 406.935 324.599C406.935 324.667 406.921 324.735 406.895 324.797C406.869 324.86 406.83 324.917 406.782 324.964C406.734 325.015 406.675 325.054 406.611 325.08C406.546 325.107 406.477 325.118 406.407 325.115C406.274 325.11 406.148 325.056 406.052 324.964ZM387.456 323.361C387.38 323.249 387.351 323.111 387.374 322.978C387.398 322.845 387.473 322.726 387.583 322.647C387.639 322.607 387.702 322.578 387.769 322.563C387.837 322.547 387.906 322.545 387.974 322.557C388.042 322.569 388.107 322.594 388.165 322.632C388.223 322.669 388.274 322.717 388.313 322.774C388.351 322.83 388.378 322.892 388.391 322.958C388.405 323.025 388.406 323.093 388.393 323.159C388.381 323.225 388.355 323.288 388.318 323.345C388.28 323.401 388.232 323.449 388.176 323.487C388.09 323.551 387.985 323.584 387.877 323.582C387.793 323.58 387.711 323.558 387.638 323.518C387.565 323.478 387.502 323.42 387.456 323.351V323.361ZM407.984 322.63C407.866 322.562 407.78 322.45 407.744 322.319C407.708 322.188 407.725 322.048 407.792 321.93C407.861 321.813 407.973 321.728 408.104 321.692C408.234 321.657 408.374 321.674 408.493 321.74C408.551 321.773 408.603 321.817 408.645 321.871C408.686 321.924 408.717 321.985 408.735 322.05C408.752 322.116 408.757 322.184 408.748 322.251C408.739 322.318 408.717 322.382 408.682 322.441C408.637 322.522 408.57 322.59 408.489 322.636C408.408 322.682 408.316 322.704 408.222 322.701C408.137 322.695 408.054 322.665 407.984 322.616V322.63ZM385.991 320.579C385.945 320.451 385.951 320.309 386.007 320.185C386.063 320.061 386.166 319.964 386.293 319.915C386.421 319.87 386.561 319.877 386.684 319.933C386.807 319.989 386.904 320.091 386.955 320.216C387.001 320.344 386.996 320.485 386.939 320.609C386.883 320.733 386.78 320.83 386.653 320.878C386.59 320.899 386.524 320.91 386.458 320.912C386.354 320.908 386.254 320.872 386.171 320.81C386.088 320.748 386.025 320.662 385.991 320.564V320.579ZM409.274 319.89C409.208 319.874 409.146 319.844 409.092 319.803C409.039 319.762 408.994 319.71 408.96 319.651C408.927 319.593 408.906 319.528 408.898 319.46C408.89 319.393 408.897 319.325 408.916 319.26C408.954 319.131 409.041 319.021 409.158 318.954C409.275 318.888 409.413 318.869 409.544 318.902C409.609 318.92 409.67 318.95 409.723 318.991C409.776 319.032 409.821 319.083 409.854 319.141C409.888 319.2 409.909 319.264 409.918 319.331C409.926 319.397 409.922 319.465 409.904 319.53C409.872 319.639 409.805 319.735 409.713 319.802C409.621 319.869 409.509 319.903 409.395 319.9C409.354 319.897 409.313 319.889 409.274 319.876V319.89ZM385.263 317.508C385.248 317.371 385.288 317.233 385.375 317.125C385.461 317.018 385.586 316.949 385.723 316.933C385.859 316.921 385.994 316.962 386.1 317.047C386.205 317.133 386.274 317.256 386.29 317.391C386.304 317.527 386.264 317.662 386.178 317.768C386.092 317.874 385.968 317.943 385.833 317.958H385.767C385.641 317.954 385.521 317.905 385.428 317.82C385.335 317.735 385.277 317.618 385.263 317.493V317.508ZM409.335 316.4V316.381C409.334 316.369 409.334 316.356 409.335 316.344C409.336 316.277 409.35 316.211 409.377 316.149C409.403 316.087 409.442 316.032 409.49 315.985C409.539 315.938 409.596 315.902 409.659 315.878C409.721 315.853 409.788 315.841 409.855 315.843C409.988 315.851 410.112 315.909 410.203 316.006C410.294 316.103 410.344 316.231 410.342 316.364V316.393V316.42C410.341 316.487 410.326 316.553 410.299 316.615C410.273 316.676 410.234 316.732 410.186 316.778C410.137 316.825 410.08 316.861 410.018 316.886C409.955 316.91 409.888 316.922 409.821 316.921C409.686 316.914 409.558 316.854 409.466 316.754C409.374 316.654 409.325 316.522 409.33 316.386L409.335 316.4ZM385.76 314.938C385.625 314.919 385.503 314.848 385.42 314.74C385.337 314.632 385.3 314.496 385.317 314.361C385.326 314.294 385.349 314.23 385.384 314.171C385.418 314.113 385.464 314.063 385.518 314.022C385.573 313.982 385.635 313.953 385.7 313.937C385.766 313.92 385.834 313.917 385.901 313.928C385.967 313.937 386.031 313.959 386.089 313.992C386.147 314.026 386.197 314.071 386.237 314.125C386.278 314.178 386.307 314.239 386.324 314.304C386.34 314.368 386.344 314.436 386.334 314.502C386.317 314.627 386.255 314.742 386.159 314.824C386.063 314.907 385.94 314.95 385.813 314.947C385.799 314.933 385.779 314.923 385.762 314.923L385.76 314.938ZM409.021 313.478C409.005 313.413 409.002 313.345 409.012 313.279C409.022 313.213 409.045 313.15 409.08 313.093C409.115 313.036 409.161 312.986 409.215 312.947C409.269 312.908 409.33 312.88 409.395 312.864C409.461 312.848 409.529 312.845 409.596 312.855C409.663 312.865 409.727 312.888 409.785 312.922C409.843 312.957 409.893 313.003 409.933 313.057C409.973 313.112 410.002 313.173 410.018 313.239C410.049 313.373 410.026 313.513 409.954 313.629C409.882 313.746 409.767 313.83 409.634 313.862C409.591 313.866 409.548 313.866 409.505 313.862C409.39 313.859 409.28 313.816 409.192 313.742C409.105 313.668 409.045 313.566 409.023 313.453L409.021 313.478ZM386.432 311.998C386.306 311.944 386.207 311.843 386.156 311.717C386.104 311.591 386.105 311.45 386.157 311.324C386.21 311.199 386.311 311.1 386.437 311.049C386.564 310.997 386.705 310.998 386.831 311.051C386.956 311.105 387.055 311.206 387.106 311.332C387.158 311.458 387.158 311.599 387.106 311.725C387.063 311.819 386.995 311.898 386.908 311.954C386.822 312.009 386.722 312.039 386.619 312.039C386.555 312.026 386.492 312.004 386.434 311.974L386.432 311.998ZM407.998 310.781C407.935 310.662 407.921 310.522 407.96 310.392C407.999 310.263 408.088 310.154 408.208 310.09C408.267 310.057 408.332 310.037 408.398 310.03C408.465 310.023 408.533 310.029 408.598 310.049C408.662 310.068 408.722 310.1 408.774 310.143C408.825 310.186 408.868 310.239 408.899 310.299C408.931 310.358 408.951 310.423 408.958 310.49C408.965 310.557 408.959 310.624 408.939 310.689C408.92 310.753 408.888 310.813 408.845 310.865C408.802 310.916 408.749 310.959 408.69 310.99C408.615 311.03 408.531 311.051 408.446 311.051C408.351 311.047 408.26 311.016 408.181 310.963C408.103 310.91 408.04 310.836 408.001 310.749L407.998 310.781ZM387.833 309.321C387.723 309.238 387.649 309.115 387.629 308.978C387.609 308.841 387.644 308.702 387.726 308.591C387.768 308.536 387.82 308.491 387.879 308.457C387.938 308.422 388.003 308.4 388.071 308.391C388.139 308.382 388.208 308.386 388.274 308.404C388.34 308.421 388.402 308.452 388.456 308.493C388.513 308.533 388.56 308.584 388.596 308.643C388.632 308.702 388.656 308.768 388.665 308.836C388.675 308.904 388.671 308.974 388.653 309.04C388.635 309.107 388.604 309.169 388.561 309.223C388.512 309.288 388.448 309.341 388.375 309.376C388.302 309.412 388.221 309.43 388.14 309.428C388.026 309.42 387.918 309.371 387.836 309.292L387.833 309.321ZM406.329 308.406C406.283 308.356 406.248 308.297 406.225 308.233C406.202 308.169 406.191 308.102 406.194 308.034C406.198 307.966 406.214 307.899 406.243 307.838C406.272 307.776 406.313 307.721 406.363 307.676C406.465 307.586 406.599 307.539 406.735 307.545C406.871 307.551 407 307.61 407.093 307.71C407.14 307.76 407.176 307.818 407.199 307.882C407.222 307.946 407.233 308.014 407.23 308.082C407.227 308.15 407.21 308.217 407.181 308.278C407.151 308.34 407.11 308.395 407.059 308.44C406.962 308.527 406.835 308.575 406.704 308.574C406.631 308.569 406.561 308.549 406.497 308.515C406.433 308.481 406.376 308.434 406.331 308.377L406.329 308.406ZM389.861 307.028C389.776 306.92 389.737 306.783 389.752 306.647C389.767 306.511 389.835 306.385 389.941 306.298C390.049 306.214 390.186 306.175 390.322 306.19C390.459 306.205 390.584 306.273 390.671 306.379C390.757 306.486 390.796 306.623 390.781 306.76C390.766 306.897 390.698 307.022 390.591 307.109C390.496 307.187 390.377 307.227 390.255 307.223C390.179 307.221 390.104 307.203 390.036 307.17C389.968 307.136 389.908 307.088 389.861 307.028ZM404.144 306.493C404.031 306.418 403.952 306.301 403.925 306.169C403.898 306.036 403.925 305.898 404 305.785C404.074 305.671 404.19 305.591 404.322 305.562C404.455 305.533 404.594 305.558 404.708 305.631C404.766 305.669 404.817 305.718 404.856 305.775C404.895 305.832 404.923 305.897 404.937 305.965C404.951 306.032 404.952 306.102 404.939 306.171C404.926 306.239 404.9 306.304 404.862 306.362C404.811 306.432 404.745 306.488 404.669 306.527C404.592 306.566 404.507 306.586 404.421 306.585C404.317 306.584 404.217 306.552 404.131 306.493H404.144ZM392.374 305.344C392.319 305.221 392.313 305.082 392.358 304.954C392.404 304.827 392.497 304.723 392.618 304.663C392.68 304.635 392.747 304.62 392.815 304.618C392.882 304.616 392.95 304.628 393.013 304.652C393.077 304.676 393.135 304.713 393.184 304.76C393.233 304.807 393.272 304.863 393.299 304.926C393.327 304.987 393.341 305.054 393.343 305.121C393.344 305.188 393.332 305.256 393.308 305.318C393.283 305.381 393.246 305.438 393.199 305.486C393.152 305.535 393.096 305.573 393.034 305.6C392.968 305.634 392.894 305.651 392.82 305.651C392.722 305.649 392.627 305.619 392.546 305.564C392.465 305.51 392.401 305.434 392.362 305.344H392.374ZM401.552 305.215C401.423 305.169 401.318 305.074 401.258 304.952C401.198 304.829 401.188 304.688 401.231 304.558C401.252 304.494 401.286 304.434 401.331 304.383C401.376 304.333 401.431 304.291 401.493 304.262C401.554 304.233 401.621 304.217 401.689 304.214C401.756 304.211 401.824 304.223 401.888 304.247C401.953 304.265 402.014 304.297 402.067 304.341C402.119 304.384 402.162 304.438 402.192 304.499C402.222 304.56 402.24 304.627 402.242 304.695C402.245 304.763 402.234 304.831 402.209 304.894C402.176 304.997 402.111 305.087 402.023 305.15C401.936 305.213 401.83 305.246 401.722 305.244C401.661 305.248 401.599 305.238 401.542 305.215H401.552ZM395.224 304.334C395.212 304.268 395.214 304.2 395.229 304.134C395.244 304.069 395.272 304.007 395.311 303.952C395.35 303.898 395.4 303.851 395.457 303.816C395.515 303.781 395.579 303.758 395.645 303.748C395.711 303.735 395.779 303.736 395.845 303.75C395.911 303.764 395.973 303.791 396.029 303.83C396.084 303.868 396.132 303.917 396.168 303.973C396.205 304.03 396.23 304.093 396.242 304.159C396.262 304.294 396.229 304.431 396.151 304.542C396.072 304.653 395.954 304.729 395.821 304.755C395.787 304.759 395.752 304.759 395.718 304.755C395.599 304.755 395.483 304.712 395.391 304.635C395.299 304.558 395.237 304.452 395.215 304.334H395.224ZM398.709 304.629C398.573 304.616 398.448 304.551 398.36 304.447C398.272 304.342 398.229 304.207 398.24 304.071C398.252 303.935 398.317 303.81 398.422 303.721C398.526 303.633 398.661 303.589 398.797 303.599C398.932 303.613 399.057 303.679 399.145 303.783C399.232 303.887 399.276 304.021 399.267 304.157C399.254 304.286 399.194 304.405 399.098 304.492C399.002 304.58 398.878 304.628 398.748 304.629H398.709Z" fill="#F4E6FF"/>
<path d="M474.927 329.795C474.923 329.728 474.933 329.66 474.955 329.597C474.978 329.533 475.013 329.475 475.058 329.425C475.103 329.375 475.158 329.334 475.219 329.306C475.28 329.277 475.346 329.26 475.413 329.257C475.481 329.254 475.548 329.263 475.612 329.286C475.675 329.309 475.734 329.343 475.784 329.389C475.834 329.434 475.874 329.489 475.903 329.55C475.932 329.611 475.948 329.677 475.951 329.744C475.954 329.811 475.944 329.877 475.921 329.94C475.898 330.003 475.863 330.06 475.818 330.109C475.773 330.158 475.718 330.198 475.657 330.226C475.597 330.254 475.531 330.27 475.465 330.272H475.435C475.305 330.274 475.18 330.225 475.085 330.136C474.99 330.047 474.934 329.925 474.927 329.795ZM472.313 330.039C472.181 330.007 472.065 329.926 471.992 329.812C471.918 329.697 471.891 329.559 471.916 329.425C471.945 329.292 472.026 329.175 472.141 329.101C472.256 329.027 472.396 329.002 472.53 329.031C472.663 329.06 472.779 329.141 472.853 329.255C472.928 329.369 472.954 329.508 472.926 329.642C472.901 329.758 472.836 329.862 472.743 329.936C472.65 330.01 472.534 330.049 472.415 330.048C472.379 330.041 472.362 330.031 472.313 330.031V330.039ZM477.925 329.418C477.905 329.354 477.899 329.286 477.906 329.219C477.913 329.152 477.933 329.087 477.965 329.028C477.998 328.969 478.042 328.917 478.095 328.875C478.147 328.834 478.208 328.803 478.273 328.785C478.337 328.763 478.404 328.754 478.471 328.759C478.538 328.764 478.604 328.783 478.663 328.814C478.723 328.846 478.775 328.889 478.817 328.942C478.858 328.995 478.889 329.056 478.906 329.121C478.926 329.186 478.933 329.254 478.927 329.321C478.921 329.388 478.902 329.454 478.871 329.514C478.839 329.574 478.796 329.627 478.744 329.67C478.692 329.713 478.632 329.746 478.567 329.766C478.516 329.779 478.462 329.784 478.409 329.781C478.299 329.779 478.193 329.743 478.106 329.676C478.018 329.609 477.955 329.516 477.925 329.411V329.418ZM469.334 329.002C469.274 328.972 469.221 328.931 469.177 328.881C469.133 328.83 469.099 328.772 469.078 328.708C469.057 328.645 469.049 328.578 469.054 328.511C469.059 328.445 469.077 328.38 469.108 328.32C469.136 328.259 469.175 328.203 469.225 328.157C469.275 328.111 469.333 328.076 469.397 328.053C469.46 328.031 469.528 328.021 469.595 328.025C469.663 328.029 469.729 328.047 469.789 328.077C469.85 328.106 469.904 328.147 469.948 328.197C469.992 328.247 470.026 328.306 470.048 328.369C470.069 328.433 470.077 328.5 470.072 328.567C470.067 328.634 470.049 328.699 470.018 328.758C469.978 328.848 469.912 328.924 469.828 328.975C469.744 329.026 469.647 329.051 469.548 329.046C469.474 329.046 469.4 329.029 469.334 328.995V329.002ZM480.743 328.306C480.707 328.248 480.683 328.183 480.672 328.116C480.661 328.049 480.664 327.98 480.68 327.914C480.696 327.847 480.724 327.785 480.764 327.73C480.805 327.675 480.855 327.628 480.914 327.593C481.03 327.525 481.169 327.506 481.3 327.538C481.431 327.57 481.545 327.652 481.617 327.766C481.687 327.883 481.709 328.023 481.676 328.156C481.644 328.289 481.56 328.404 481.444 328.476C481.36 328.526 481.262 328.551 481.164 328.547C481.079 328.544 480.996 328.519 480.922 328.476C480.849 328.433 480.787 328.372 480.743 328.298V328.306ZM466.706 327.259C466.654 327.215 466.612 327.161 466.581 327.1C466.55 327.039 466.532 326.973 466.527 326.905C466.523 326.837 466.532 326.769 466.553 326.704C466.575 326.64 466.61 326.58 466.655 326.529C466.746 326.427 466.873 326.364 467.009 326.355C467.146 326.345 467.281 326.389 467.385 326.478C467.488 326.569 467.551 326.696 467.56 326.833C467.57 326.969 467.525 327.104 467.436 327.208C467.385 327.265 467.323 327.311 467.253 327.341C467.184 327.372 467.108 327.387 467.032 327.386C466.91 327.384 466.794 327.336 466.706 327.252V327.259ZM483.184 326.529C483.088 326.432 483.035 326.301 483.035 326.164C483.035 326.028 483.088 325.897 483.184 325.799C483.232 325.751 483.289 325.713 483.352 325.687C483.414 325.661 483.481 325.648 483.549 325.648C483.617 325.648 483.684 325.661 483.747 325.687C483.809 325.713 483.866 325.751 483.914 325.799C483.962 325.847 484.001 325.904 484.027 325.966C484.053 326.029 484.067 326.096 484.067 326.164C484.067 326.232 484.053 326.299 484.027 326.362C484.001 326.425 483.962 326.481 483.914 326.529C483.866 326.579 483.809 326.619 483.744 326.645C483.68 326.671 483.611 326.683 483.542 326.68C483.406 326.673 483.279 326.615 483.184 326.517V326.529ZM464.591 324.928C464.514 324.816 464.484 324.679 464.507 324.546C464.53 324.413 464.605 324.294 464.715 324.215C464.771 324.174 464.835 324.146 464.902 324.13C464.969 324.115 465.039 324.113 465.107 324.125C465.175 324.136 465.24 324.162 465.298 324.199C465.356 324.236 465.406 324.284 465.445 324.341C465.484 324.397 465.511 324.459 465.525 324.525C465.539 324.591 465.539 324.659 465.527 324.725C465.514 324.792 465.488 324.855 465.451 324.911C465.413 324.967 465.365 325.015 465.309 325.052C465.223 325.117 465.117 325.151 465.01 325.149C464.926 325.148 464.844 325.125 464.771 325.085C464.698 325.044 464.636 324.986 464.591 324.916V324.928ZM485.116 324.198C484.999 324.13 484.913 324.018 484.877 323.886C484.842 323.755 484.86 323.615 484.927 323.497C484.995 323.38 485.107 323.295 485.237 323.26C485.368 323.224 485.507 323.241 485.625 323.307C485.684 323.34 485.735 323.385 485.777 323.438C485.818 323.492 485.849 323.553 485.867 323.618C485.884 323.683 485.889 323.751 485.881 323.818C485.872 323.885 485.851 323.949 485.817 324.008C485.771 324.089 485.704 324.157 485.622 324.203C485.541 324.248 485.448 324.271 485.355 324.268C485.269 324.261 485.186 324.231 485.116 324.181V324.198ZM463.124 322.144C463.078 322.016 463.083 321.875 463.14 321.751C463.196 321.628 463.299 321.531 463.425 321.482C463.553 321.436 463.694 321.443 463.817 321.499C463.941 321.555 464.038 321.657 464.087 321.784C464.134 321.911 464.128 322.053 464.072 322.176C464.016 322.3 463.913 322.397 463.786 322.446C463.722 322.465 463.657 322.477 463.591 322.48C463.485 322.476 463.382 322.441 463.297 322.378C463.212 322.315 463.148 322.227 463.114 322.127L463.124 322.144ZM486.406 321.457C486.341 321.441 486.279 321.411 486.225 321.37C486.171 321.329 486.126 321.278 486.093 321.219C486.059 321.16 486.038 321.095 486.031 321.027C486.023 320.96 486.029 320.892 486.049 320.827C486.087 320.698 486.173 320.588 486.29 320.522C486.407 320.455 486.546 320.436 486.676 320.469C486.741 320.487 486.803 320.517 486.856 320.558C486.909 320.599 486.954 320.65 486.988 320.708C487.021 320.767 487.043 320.831 487.051 320.898C487.06 320.965 487.055 321.032 487.037 321.097C487.004 321.207 486.936 321.302 486.844 321.369C486.751 321.436 486.64 321.47 486.526 321.467C486.485 321.463 486.445 321.454 486.406 321.44V321.457ZM462.396 319.075C462.382 318.939 462.423 318.804 462.508 318.697C462.594 318.591 462.718 318.523 462.853 318.508C462.989 318.496 463.124 318.536 463.23 318.622C463.336 318.707 463.404 318.83 463.42 318.965C463.434 319.101 463.394 319.237 463.308 319.343C463.223 319.449 463.098 319.517 462.963 319.532H462.897C462.77 319.529 462.649 319.478 462.556 319.391C462.464 319.303 462.407 319.185 462.396 319.058V319.075ZM486.467 317.968V317.948C486.469 317.936 486.469 317.924 486.467 317.912C486.468 317.844 486.482 317.778 486.509 317.716C486.536 317.655 486.575 317.599 486.623 317.552C486.671 317.506 486.729 317.469 486.791 317.445C486.854 317.42 486.921 317.409 486.988 317.41C487.123 317.414 487.251 317.471 487.344 317.568C487.438 317.666 487.489 317.796 487.487 317.931V317.96V317.987C487.486 318.054 487.471 318.12 487.444 318.182C487.417 318.243 487.379 318.299 487.33 318.346C487.282 318.392 487.225 318.429 487.162 318.453C487.1 318.478 487.033 318.49 486.966 318.488C486.83 318.481 486.703 318.42 486.611 318.32C486.52 318.219 486.472 318.087 486.477 317.951L486.467 317.968ZM462.892 316.505C462.758 316.486 462.636 316.415 462.553 316.307C462.47 316.199 462.433 316.063 462.449 315.928C462.459 315.861 462.481 315.797 462.516 315.738C462.55 315.68 462.596 315.629 462.65 315.589C462.705 315.548 462.767 315.519 462.833 315.503C462.898 315.487 462.967 315.484 463.034 315.495C463.1 315.504 463.164 315.525 463.222 315.559C463.28 315.593 463.33 315.638 463.371 315.691C463.411 315.745 463.44 315.806 463.457 315.871C463.473 315.936 463.477 316.003 463.467 316.069C463.451 316.195 463.389 316.309 463.293 316.391C463.197 316.474 463.074 316.518 462.948 316.515C462.931 316.498 462.912 316.488 462.895 316.488L462.892 316.505ZM486.153 315.045C486.122 314.914 486.143 314.775 486.214 314.66C486.284 314.544 486.397 314.461 486.528 314.429C486.661 314.397 486.801 314.418 486.917 314.489C487.034 314.56 487.118 314.674 487.151 314.806C487.182 314.94 487.159 315.08 487.088 315.196C487.016 315.313 486.902 315.396 486.769 315.429C486.725 315.433 486.681 315.433 486.637 315.429C486.522 315.426 486.412 315.383 486.324 315.308C486.237 315.234 486.177 315.131 486.156 315.018L486.153 315.045ZM463.564 313.565C463.439 313.512 463.34 313.411 463.289 313.284C463.238 313.158 463.239 313.017 463.291 312.891C463.345 312.766 463.446 312.667 463.572 312.615C463.698 312.564 463.84 312.564 463.966 312.616C464.091 312.671 464.189 312.772 464.24 312.899C464.291 313.025 464.29 313.167 464.238 313.293C464.196 313.386 464.127 313.465 464.041 313.521C463.955 313.577 463.854 313.606 463.751 313.607C463.687 313.593 463.625 313.57 463.566 313.538L463.564 313.565ZM485.131 312.348C485.067 312.229 485.053 312.089 485.093 311.959C485.132 311.83 485.221 311.721 485.34 311.657C485.399 311.624 485.464 311.604 485.531 311.597C485.598 311.589 485.666 311.595 485.731 311.615C485.795 311.634 485.855 311.666 485.907 311.709C485.96 311.752 486.003 311.804 486.034 311.864C486.066 311.923 486.087 311.988 486.094 312.056C486.101 312.123 486.094 312.191 486.074 312.256C486.055 312.32 486.022 312.38 485.979 312.432C485.936 312.484 485.882 312.527 485.822 312.558C485.748 312.598 485.664 312.618 485.579 312.616C485.483 312.612 485.391 312.581 485.312 312.527C485.233 312.473 485.171 312.397 485.133 312.309L485.131 312.348ZM464.966 310.888C464.855 310.805 464.782 310.682 464.762 310.545C464.742 310.408 464.777 310.269 464.859 310.158C464.9 310.104 464.952 310.058 465.011 310.024C465.07 309.99 465.136 309.967 465.204 309.958C465.271 309.949 465.34 309.954 465.406 309.971C465.473 309.989 465.535 310.019 465.589 310.061C465.643 310.101 465.689 310.151 465.724 310.209C465.759 310.267 465.782 310.331 465.792 310.398C465.801 310.465 465.798 310.533 465.781 310.598C465.764 310.663 465.734 310.725 465.693 310.779C465.645 310.844 465.581 310.896 465.508 310.932C465.434 310.967 465.354 310.985 465.272 310.983C465.159 310.976 465.051 310.928 464.968 310.849L464.966 310.888ZM483.462 309.973C483.415 309.923 483.38 309.865 483.356 309.801C483.333 309.737 483.323 309.669 483.326 309.601C483.329 309.533 483.346 309.466 483.375 309.405C483.404 309.344 483.445 309.288 483.496 309.243C483.598 309.152 483.731 309.105 483.868 309.111C484.004 309.118 484.133 309.177 484.226 309.277C484.272 309.327 484.308 309.385 484.332 309.449C484.355 309.513 484.365 309.581 484.362 309.649C484.359 309.717 484.342 309.784 484.313 309.845C484.284 309.907 484.242 309.962 484.192 310.007C484.094 310.095 483.967 310.142 483.836 310.141C483.764 310.136 483.693 310.115 483.629 310.081C483.565 310.047 483.509 309.999 483.464 309.941L483.462 309.973ZM466.978 308.625C466.894 308.517 466.855 308.38 466.87 308.243C466.885 308.107 466.953 307.982 467.059 307.895C467.167 307.81 467.304 307.771 467.44 307.786C467.577 307.801 467.702 307.869 467.789 307.975C467.875 308.083 467.914 308.22 467.899 308.357C467.884 308.494 467.816 308.619 467.709 308.705C467.614 308.782 467.495 308.823 467.373 308.82C467.295 308.814 467.219 308.79 467.151 308.751C467.083 308.712 467.025 308.658 466.981 308.593L466.978 308.625ZM481.262 308.089C481.148 308.014 481.07 307.897 481.043 307.764C481.016 307.631 481.043 307.492 481.118 307.379C481.193 307.266 481.309 307.187 481.441 307.158C481.574 307.13 481.712 307.155 481.826 307.228C481.884 307.266 481.934 307.315 481.974 307.372C482.013 307.429 482.041 307.493 482.055 307.561C482.069 307.629 482.07 307.699 482.057 307.767C482.044 307.835 482.018 307.9 481.979 307.958C481.929 308.028 481.863 308.085 481.787 308.124C481.71 308.163 481.625 308.183 481.539 308.182C481.438 308.167 481.342 308.124 481.264 308.058L481.262 308.089ZM469.492 306.941C469.437 306.817 469.431 306.677 469.476 306.55C469.522 306.422 469.615 306.317 469.736 306.257C469.798 306.229 469.865 306.215 469.933 306.213C470.001 306.211 470.068 306.223 470.132 306.248C470.195 306.273 470.253 306.31 470.302 306.357C470.351 306.404 470.39 306.46 470.417 306.522C470.444 306.584 470.459 306.65 470.46 306.717C470.462 306.784 470.45 306.851 470.426 306.914C470.401 306.976 470.365 307.034 470.318 307.082C470.272 307.131 470.216 307.169 470.154 307.196C470.087 307.23 470.013 307.248 469.938 307.247C469.839 307.24 469.745 307.204 469.666 307.144C469.588 307.084 469.528 307.002 469.495 306.909L469.492 306.941ZM478.67 306.809C478.541 306.764 478.435 306.67 478.375 306.548C478.315 306.425 478.306 306.284 478.348 306.155C478.37 306.09 478.404 306.031 478.449 305.98C478.494 305.929 478.549 305.888 478.611 305.859C478.672 305.83 478.739 305.813 478.806 305.811C478.874 305.808 478.942 305.819 479.006 305.843C479.071 305.862 479.132 305.894 479.185 305.937C479.237 305.98 479.28 306.034 479.31 306.095C479.34 306.156 479.357 306.223 479.36 306.291C479.363 306.359 479.352 306.427 479.327 306.491C479.294 306.593 479.229 306.683 479.141 306.746C479.054 306.809 478.948 306.842 478.84 306.841C478.78 306.832 478.723 306.811 478.672 306.778L478.67 306.809ZM472.342 305.931C472.33 305.865 472.332 305.797 472.347 305.731C472.362 305.665 472.39 305.603 472.429 305.549C472.468 305.494 472.518 305.448 472.575 305.413C472.633 305.378 472.697 305.354 472.763 305.344C472.829 305.332 472.897 305.333 472.963 305.347C473.029 305.361 473.091 305.388 473.147 305.426C473.202 305.464 473.25 305.513 473.286 305.57C473.323 305.626 473.347 305.689 473.359 305.756C473.381 305.89 473.349 306.028 473.27 306.139C473.191 306.251 473.072 306.327 472.938 306.352C472.904 306.355 472.87 306.355 472.836 306.352C472.715 306.346 472.599 306.297 472.509 306.215C472.42 306.132 472.362 306.02 472.347 305.899L472.342 305.931ZM475.827 306.223C475.691 306.21 475.566 306.145 475.478 306.041C475.39 305.936 475.347 305.802 475.358 305.666C475.371 305.53 475.437 305.405 475.541 305.318C475.645 305.23 475.779 305.186 475.915 305.196C476.05 305.209 476.175 305.275 476.263 305.379C476.352 305.483 476.396 305.617 476.387 305.753C476.374 305.882 476.313 306.002 476.217 306.089C476.121 306.176 475.996 306.225 475.866 306.225H475.827V306.223Z" fill="#F4E6FF"/>
<path d="M358.639 240.917C358.62 241.87 358.319 242.797 357.774 243.579C357.228 244.361 356.463 244.964 355.575 245.311C354.686 245.658 353.715 245.734 352.784 245.53C351.852 245.325 351.003 244.848 350.342 244.161C349.682 243.473 349.24 242.604 349.073 241.666C348.906 240.727 349.021 239.759 349.404 238.886C349.787 238.012 350.42 237.272 351.223 236.759C352.027 236.245 352.965 235.981 353.918 236.001C355.196 236.028 356.411 236.561 357.296 237.482C358.181 238.404 358.664 239.639 358.639 240.917Z" fill="#7030A0"/>
<path d="M353.013 280.648C353.013 280.648 364.493 282.352 371.093 267.456L368.173 261.087C367.935 260.571 367.597 260.108 367.179 259.723C366.761 259.339 366.27 259.042 365.736 258.849C365.202 258.656 364.635 258.571 364.067 258.6C363.5 258.628 362.944 258.768 362.432 259.013L355.756 262.177C355.037 262.519 354.428 263.054 353.996 263.722C353.564 264.39 353.327 265.166 353.31 265.961L353.013 280.648Z" fill="black"/>
<path d="M354.729 243.068C354.704 243.009 354.657 242.96 354.599 242.932C354.54 242.904 354.473 242.898 354.411 242.916C354.348 242.934 354.294 242.973 354.259 243.028C354.223 243.082 354.209 243.148 354.218 243.212L357.757 264.448C357.797 264.685 357.895 264.909 358.042 265.1C358.19 265.29 358.382 265.441 358.602 265.539C358.822 265.637 359.063 265.679 359.303 265.662C359.543 265.644 359.775 265.567 359.979 265.438L361.222 264.645C361.722 264.326 362.095 263.841 362.276 263.276C362.456 262.71 362.433 262.1 362.21 261.549L354.729 243.068Z" fill="#7030A0"/>
<path d="M522.518 244.242C522.499 245.195 522.762 246.133 523.276 246.937C523.789 247.74 524.53 248.373 525.403 248.756C526.277 249.139 527.244 249.254 528.183 249.087C529.122 248.92 529.99 248.478 530.678 247.818C531.366 247.157 531.842 246.307 532.047 245.376C532.252 244.445 532.176 243.473 531.829 242.585C531.481 241.697 530.879 240.932 530.096 240.386C529.314 239.841 528.388 239.539 527.434 239.52C526.156 239.495 524.921 239.978 523.999 240.863C523.077 241.749 522.545 242.964 522.518 244.242Z" fill="#7030A0"/>
<path d="M526.529 284.168C526.529 284.168 514.989 285.407 509.007 270.252L512.195 264.008C512.453 263.503 512.809 263.054 513.241 262.688C513.673 262.321 514.174 262.044 514.715 261.873C515.255 261.701 515.824 261.638 516.389 261.688C516.953 261.738 517.502 261.899 518.004 262.163L524.546 265.602C525.25 265.972 525.837 266.531 526.242 267.216C526.646 267.901 526.852 268.686 526.836 269.481L526.529 284.168Z" fill="black"/>
<path d="M526.844 246.714L522.463 267.697C522.412 267.943 522.301 268.172 522.139 268.365C521.978 268.557 521.771 268.707 521.538 268.799C521.304 268.892 521.051 268.926 520.802 268.897C520.552 268.868 520.314 268.778 520.108 268.634L518.974 267.845C518.486 267.506 518.133 267.006 517.976 266.434C517.818 265.861 517.867 265.252 518.112 264.711L526.335 246.548C526.36 246.484 526.408 246.431 526.47 246.401C526.532 246.371 526.603 246.367 526.669 246.388C526.734 246.409 526.789 246.455 526.822 246.516C526.854 246.577 526.862 246.647 526.844 246.714Z" fill="#7030A0"/>
<path d="M385.801 286.341C384.5 286.293 383.267 285.75 382.353 284.824C381.439 283.897 380.912 282.657 380.881 281.356C380.85 280.055 381.317 278.791 382.186 277.822C383.055 276.853 384.261 276.252 385.557 276.142C422.729 273.601 456.642 274.195 489.231 277.918C490.533 278.123 491.706 278.824 492.504 279.873C493.302 280.922 493.664 282.239 493.514 283.549C493.364 284.859 492.713 286.06 491.698 286.901C490.683 287.743 489.382 288.159 488.068 288.064C456.102 284.399 422.797 283.832 386.251 286.329C386.103 286.341 385.952 286.344 385.801 286.341Z" fill="#7030A0"/>
<path d="M436.643 339.827C416.015 339.409 395.241 337.963 374.46 335.498C366.841 334.592 361.221 327.727 361.387 319.531L361.555 311.256C361.72 303.123 367.563 296.499 375.144 295.846C419.86 292.006 460.246 292.756 498.61 298.139C506.036 299.18 511.509 306.026 511.348 314.06L511.175 322.614C511.007 330.791 505.142 337.42 497.527 338.031C477.275 339.647 456.955 340.247 436.643 339.827ZM440.159 294.513C419.429 294.094 397.884 294.858 375.227 296.805C368.135 297.414 362.672 303.636 362.516 311.278L362.348 319.553C362.192 327.255 367.459 333.699 374.575 334.546C415.93 339.455 457.273 340.307 497.452 337.08C504.57 336.508 510.058 330.282 510.214 322.599L510.387 314.045C510.54 306.501 505.42 300.069 498.477 299.095C479.146 296.407 459.672 294.877 440.159 294.513Z" fill="#7030A0"/>
<path d="M469.794 427.77L402.968 426.414C399.892 426.349 396.968 425.065 394.837 422.846C392.706 420.627 391.542 417.653 391.601 414.577L391.987 395.551C392.053 392.475 393.336 389.551 395.555 387.42C397.774 385.289 400.749 384.126 403.825 384.186L470.65 385.541C473.726 385.607 476.65 386.889 478.781 389.108C480.913 391.327 482.076 394.3 482.018 397.376L481.631 416.405C481.566 419.481 480.283 422.405 478.063 424.536C475.844 426.667 472.87 427.83 469.794 427.77ZM403.805 385.113C400.974 385.059 398.237 386.13 396.195 388.093C394.153 390.055 392.973 392.747 392.915 395.578L392.537 414.597C392.483 417.428 393.554 420.165 395.516 422.207C397.478 424.249 400.171 425.429 403.002 425.487L469.828 426.843C472.659 426.898 475.396 425.826 477.438 423.864C479.48 421.902 480.66 419.209 480.718 416.378L481.105 397.352C481.159 394.521 480.088 391.784 478.126 389.742C476.164 387.7 473.472 386.52 470.64 386.461L403.805 385.113Z" fill="#7030A0"/>
<path d="M409.928 395.916C409.807 395.915 409.686 395.899 409.568 395.869C409.45 395.849 409.334 395.813 409.225 395.762C409.111 395.713 409.004 395.651 408.904 395.577C408.802 395.509 408.71 395.427 408.631 395.334C408.461 395.158 408.328 394.951 408.239 394.723C408.149 394.496 408.106 394.253 408.111 394.009C408.116 393.764 408.169 393.523 408.268 393.3C408.366 393.076 408.508 392.874 408.685 392.706C409.049 392.382 409.521 392.208 410.008 392.218C410.495 392.228 410.96 392.421 411.311 392.759C411.393 392.854 411.464 392.949 411.537 393.051C411.6 393.153 411.654 393.261 411.698 393.372C411.742 393.486 411.773 393.605 411.792 393.725C411.837 393.967 411.832 394.216 411.778 394.455C411.755 394.573 411.718 394.687 411.668 394.796C411.622 394.909 411.564 395.016 411.496 395.117C411.422 395.214 411.34 395.305 411.252 395.39C411.166 395.479 411.068 395.555 410.96 395.616C410.861 395.686 410.754 395.743 410.641 395.787C410.407 395.872 410.16 395.915 409.911 395.913L409.928 395.916Z" fill="#7030A0"/>
<path d="M451.945 394.91C451.955 394.419 452.158 393.952 452.512 393.61C452.865 393.269 453.34 393.082 453.831 393.09C454.324 393.1 454.794 393.305 455.136 393.661C455.479 394.016 455.667 394.492 455.659 394.986C455.647 395.479 455.439 395.947 455.083 396.288C454.726 396.629 454.249 396.814 453.756 396.804C453.265 396.791 452.799 396.586 452.459 396.231C452.12 395.876 451.935 395.401 451.945 394.91ZM443.184 394.733C443.195 394.24 443.401 393.773 443.756 393.431C444.112 393.09 444.587 392.904 445.08 392.912C445.572 392.923 446.04 393.129 446.381 393.484C446.721 393.84 446.907 394.316 446.898 394.808C446.887 395.3 446.681 395.767 446.326 396.108C445.972 396.449 445.496 396.635 445.004 396.626C444.511 396.617 444.041 396.413 443.698 396.058C443.355 395.703 443.166 395.226 443.174 394.733H443.184ZM434.423 394.555C434.433 394.063 434.638 393.595 434.993 393.253C435.348 392.912 435.824 392.725 436.316 392.735C436.808 392.746 437.276 392.952 437.617 393.307C437.958 393.662 438.145 394.138 438.136 394.63C438.124 395.122 437.918 395.589 437.563 395.93C437.208 396.27 436.733 396.457 436.241 396.448C435.749 396.441 435.281 396.238 434.938 395.886C434.595 395.533 434.406 395.059 434.413 394.567L434.423 394.555ZM425.662 394.377C425.673 393.885 425.879 393.418 426.233 393.077C426.588 392.736 427.063 392.549 427.555 392.557C428.047 392.567 428.515 392.772 428.856 393.127C429.197 393.482 429.383 393.958 429.373 394.45C429.368 394.694 429.316 394.935 429.218 395.159C429.121 395.382 428.98 395.584 428.804 395.753C428.628 395.923 428.421 396.055 428.193 396.144C427.966 396.233 427.723 396.276 427.48 396.271C427.234 396.268 426.991 396.218 426.765 396.121C426.539 396.025 426.334 395.884 426.163 395.708C425.991 395.532 425.856 395.324 425.766 395.096C425.675 394.867 425.631 394.623 425.635 394.377H425.662ZM416.9 394.197C416.911 393.705 417.116 393.237 417.471 392.896C417.826 392.555 418.302 392.369 418.794 392.379C419.286 392.391 419.753 392.596 420.093 392.951C420.434 393.306 420.62 393.781 420.612 394.273C420.601 394.765 420.396 395.232 420.041 395.574C419.686 395.915 419.211 396.102 418.718 396.093C418.472 396.091 418.229 396.041 418.002 395.945C417.776 395.848 417.571 395.708 417.399 395.531C417.228 395.355 417.093 395.146 417.003 394.917C416.912 394.688 416.869 394.443 416.874 394.197H416.9Z" fill="#7030A0"/>
<path d="M462.527 396.981C462.283 396.977 462.043 396.924 461.82 396.826C461.597 396.727 461.396 396.585 461.23 396.407C461.141 396.324 461.065 396.229 461.003 396.125C460.938 396.023 460.881 395.917 460.833 395.806C460.789 395.691 460.757 395.572 460.738 395.45C460.714 395.331 460.704 395.209 460.709 395.088C460.713 394.844 460.766 394.604 460.865 394.381C460.963 394.158 461.106 393.958 461.283 393.791C461.365 393.701 461.46 393.625 461.566 393.564C461.666 393.492 461.777 393.435 461.894 393.394C462.005 393.348 462.121 393.316 462.24 393.299C462.541 393.247 462.851 393.269 463.142 393.364C463.433 393.458 463.696 393.622 463.909 393.842C464.247 394.198 464.431 394.673 464.42 395.163C464.419 395.285 464.404 395.405 464.376 395.524C464.353 395.644 464.316 395.761 464.267 395.874C464.218 395.985 464.157 396.089 464.084 396.185C464.018 396.285 463.941 396.377 463.856 396.46C463.766 396.546 463.669 396.622 463.564 396.687C463.464 396.755 463.357 396.812 463.245 396.857C463.13 396.901 463.011 396.933 462.889 396.952C462.77 396.975 462.648 396.985 462.527 396.981Z" fill="#7030A0"/>
</svg>
