<svg width="20" height="40" viewBox="0 0 20 40" fill="none" xmlns="http://www.w3.org/2000/svg">
<path d="M0.769231 35.5495C0.805861 33.0952 1.15385 30.989 1.81319 29.2308C2.50916 27.4359 3.38828 25.8974 4.45055 24.6154C5.54945 23.2967 6.7033 22.1062 7.91209 21.044C9.12088 19.9451 10.2564 18.8645 11.3187 17.8022C12.381 16.7033 13.2601 15.5311 13.956 14.2857C14.652 13.0037 15 11.5018 15 9.78022C15 9.78022 15.1648 9.78022 15.4945 9.78022C15.8242 9.78022 16.2271 9.78022 16.7033 9.78022C17.2161 9.78022 17.7289 9.78022 18.2418 9.78022C18.7546 9.78022 19.1758 9.78022 19.5055 9.78022C19.8352 9.78022 20 9.78022 20 9.78022C20 12.0513 19.652 13.9927 18.956 15.6044C18.2601 17.1795 17.3626 18.5714 16.2637 19.7802C15.2015 20.989 14.0476 22.1245 12.8022 23.1868C11.5934 24.2125 10.4396 25.293 9.34066 26.4286C8.27839 27.5641 7.39927 28.8645 6.7033 30.3297C6.00733 31.7582 5.64103 33.4982 5.6044 35.5495H0.769231ZM0.769231 40V35.5495H19.9451V40H0.769231ZM4.61538 9.12088L0 8.18681C0.21978 6.57509 0.769231 5.16484 1.64835 3.95605C2.5641 2.71062 3.73626 1.73993 5.16484 1.04396C6.59341 0.347985 8.15018 0 9.83516 0V4.34066C8.51648 4.34066 7.36264 4.72528 6.37363 5.49451C5.38462 6.26374 4.79853 7.47253 4.61538 9.12088ZM20 9.83517H15C15 8.22344 14.5055 6.90476 13.5165 5.87912C12.5275 4.85348 11.2821 4.34066 9.78022 4.34066V0C11.7216 0 13.4615 0.43956 15 1.31868C16.5385 2.16117 17.7473 3.33333 18.6264 4.83516C19.5421 6.30037 20 7.96703 20 9.83517Z" fill="white"/>
</svg>
