<svg width="40" height="41" viewBox="0 0 40 41" fill="none" xmlns="http://www.w3.org/2000/svg">
<path d="M27.5 12.9998V22.3748C27.5 23.8667 28.0926 25.2974 29.1475 26.3523C30.2024 27.4072 31.6332 27.9998 33.125 27.9998C34.6168 27.9998 36.0476 27.4072 37.1025 26.3523C38.1574 25.2974 38.75 23.8667 38.75 22.3748V20.4998C38.7497 16.268 37.3179 12.1607 34.6874 8.84581C32.0568 5.53091 28.3823 3.20336 24.2612 2.24162C20.1401 1.27988 15.8149 1.74052 11.9888 3.54863C8.16267 5.35674 5.06073 8.40598 3.18735 12.2005C1.31396 15.9951 0.779298 20.3118 1.6703 24.4488C2.5613 28.5857 4.82557 32.2996 8.09492 34.9866C11.3643 37.6735 15.4464 39.1755 19.6776 39.2482C23.9088 39.321 28.0402 37.9603 31.4 35.3873M27.5 20.4998C27.5 24.6419 24.1421 27.9998 20 27.9998C15.8579 27.9998 12.5 24.6419 12.5 20.4998C12.5 16.3577 15.8579 12.9998 20 12.9998C24.1421 12.9998 27.5 16.3577 27.5 20.4998Z" stroke="#B9FF66" stroke-width="2" stroke-linecap="round" stroke-linejoin="round"/>
</svg>
