<svg width="29" height="28" viewBox="0 0 29 28" fill="none" xmlns="http://www.w3.org/2000/svg">
<path d="M-0.000183105 13.9981C7.93973 13.8639 14.3331 7.6483 14.3331 0.000325501C14.3331 7.62089 20.7188 13.8194 28.6665 13.9964V14.0042C20.7188 14.1813 14.3331 20.3798 14.3331 28.0003C14.3331 20.3523 7.93973 14.1367 -0.000183105 14.0025V13.9981Z" fill="#0042FF"/>
<path d="M14.3291 28.3337C14.3318 28.2229 14.3331 28.1117 14.3331 28.0003C14.3331 28.1117 14.3345 28.2229 14.3372 28.3337H14.3291Z" fill="#0042FF"/>
<path d="M14.3372 -0.333008C14.3345 -0.22221 14.3331 -0.111094 14.3331 0.000325501C14.3331 -0.111094 14.3318 -0.22221 14.3291 -0.333008H14.3372Z" fill="#0042FF"/>
</svg>
