<svg width="25" height="25" viewBox="0 0 25 25" fill="none" xmlns="http://www.w3.org/2000/svg">
<path d="M0 12.271C6.96032 12.1534 12.5649 6.70461 12.5649 0.00021562C12.5649 6.68058 18.1628 12.1143 25.1299 12.2695V12.2764C18.1628 12.4316 12.5649 17.8653 12.5649 24.5457C12.5649 17.8413 6.96032 12.3925 0 12.2749V12.271Z" fill="white"/>
<path d="M12.5614 24.8379C12.5637 24.7408 12.5649 24.6433 12.5649 24.5457C12.5649 24.6433 12.5661 24.7408 12.5685 24.8379H12.5614Z" fill="white"/>
<path d="M12.5685 -0.291992C12.5661 -0.194864 12.5649 -0.0974577 12.5649 0.00021562C12.5649 -0.0974577 12.5637 -0.194864 12.5614 -0.291992H12.5685Z" fill="white"/>
</svg>
