<svg width="223" height="48" viewBox="0 0 223 48" fill="none" xmlns="http://www.w3.org/2000/svg">
<path d="M221.5 17.8249C205.645 11.9949 188.508 9.54554 171.827 7.48335C144.599 4.11717 117.313 2.39038 89.8872 2.05784C68.6929 1.80086 47.2279 2.24809 26.3856 6.56636C22.1678 7.44023 -5.02696 12.9513 2.95974 22.3589C6.54377 26.5806 12.5024 29.1027 17.4434 31.0449C30.1158 36.0258 43.7416 38.6328 57.1414 40.6223C77.3178 43.618 97.7275 44.9867 118.099 45.6148C138.04 46.2296 158.269 46.4789 178.049 43.4242C185.143 42.3286 221.231 36.9048 211.172 21.7476C206.424 14.5924 196.965 10.3701 189.308 7.5343C180.8 4.38326 172.319 3.54654 163.464 2.23614" stroke="#B9FF66" stroke-width="3" stroke-linecap="round"/>
</svg>
