<svg width="37" height="37" viewBox="0 0 37 37" fill="none" xmlns="http://www.w3.org/2000/svg">
<path d="M35.4583 16.9583H32.375V13.875C32.375 13.4661 32.2126 13.074 31.9235 12.7849C31.6343 12.4958 31.2422 12.3333 30.8333 12.3333C30.4245 12.3333 30.0323 12.4958 29.7432 12.7849C29.4541 13.074 29.2917 13.4661 29.2917 13.875V16.9583H26.2083C25.7995 16.9583 25.4073 17.1208 25.1182 17.4099C24.8291 17.699 24.6667 18.0911 24.6667 18.5C24.6667 18.9089 24.8291 19.301 25.1182 19.5901C25.4073 19.8792 25.7995 20.0417 26.2083 20.0417H29.2917V23.125C29.2917 23.5339 29.4541 23.926 29.7432 24.2151C30.0323 24.5042 30.4245 24.6667 30.8333 24.6667C31.2422 24.6667 31.6343 24.5042 31.9235 24.2151C32.2126 23.926 32.375 23.5339 32.375 23.125V20.0417H35.4583C35.8672 20.0417 36.2593 19.8792 36.5485 19.5901C36.8376 19.301 37 18.9089 37 18.5C37 18.0911 36.8376 17.699 36.5485 17.4099C36.2593 17.1208 35.8672 16.9583 35.4583 16.9583Z" fill="#1D202C"/>
<path d="M13.875 18.5C15.7045 18.5 17.4929 17.9575 19.014 16.9411C20.5352 15.9247 21.7208 14.48 22.4209 12.7898C23.121 11.0996 23.3042 9.23974 22.9473 7.44542C22.5904 5.65109 21.7094 4.0029 20.4157 2.70927C19.1221 1.41563 17.4739 0.534654 15.6796 0.17774C13.8853 -0.179173 12.0254 0.0040079 10.3352 0.704118C8.64496 1.40423 7.20031 2.58982 6.18391 4.11098C5.1675 5.63213 4.625 7.42053 4.625 9.25C4.62745 11.7025 5.60279 14.0539 7.33697 15.788C9.07115 17.5222 11.4225 18.4976 13.875 18.5ZM13.875 3.08334C15.0947 3.08334 16.2869 3.44501 17.301 4.12261C18.3151 4.80021 19.1055 5.76331 19.5723 6.89012C20.039 8.01693 20.1611 9.25684 19.9232 10.4531C19.6852 11.6493 19.0979 12.7481 18.2355 13.6105C17.3731 14.4729 16.2743 15.0602 15.0781 15.2982C13.8818 15.5361 12.6419 15.414 11.5151 14.9473C10.3883 14.4805 9.42521 13.6901 8.7476 12.676C8.07 11.6619 7.70833 10.4697 7.70833 9.25C7.70833 7.6145 8.35803 6.04599 9.51451 4.88951C10.671 3.73304 12.2395 3.08334 13.875 3.08334Z" fill="#1D202C"/>
<path d="M13.875 21.5833C10.1964 21.5874 6.66958 23.0506 4.0684 25.6517C1.46722 28.2529 0.00408057 31.7797 0 35.4583C0 35.8672 0.162425 36.2593 0.451544 36.5485C0.740662 36.8376 1.13279 37 1.54167 37C1.95054 37 2.34267 36.8376 2.63179 36.5485C2.92091 36.2593 3.08333 35.8672 3.08333 35.4583C3.08333 32.5962 4.22031 29.8513 6.24414 27.8275C8.26797 25.8036 11.0129 24.6667 13.875 24.6667C16.7371 24.6667 19.482 25.8036 21.5059 27.8275C23.5297 29.8513 24.6667 32.5962 24.6667 35.4583C24.6667 35.8672 24.8291 36.2593 25.1182 36.5485C25.4073 36.8376 25.7995 37 26.2083 37C26.6172 37 27.0093 36.8376 27.2985 36.5485C27.5876 36.2593 27.75 35.8672 27.75 35.4583C27.7459 31.7797 26.2828 28.2529 23.6816 25.6517C21.0804 23.0506 17.5536 21.5874 13.875 21.5833Z" fill="#1D202C"/>
</svg>
