<svg width="16" height="16" viewBox="0 0 16 16" fill="none" xmlns="http://www.w3.org/2000/svg">
<path d="M12.3125 0.500127H3.6875C2.85064 0.492628 2.045 0.817469 1.4474 1.40335C0.849801 1.98923 0.509072 2.78829 0.5 3.62513V5.50013C0.5 5.66589 0.565848 5.82486 0.683058 5.94207C0.800269 6.05928 0.95924 6.12513 1.125 6.12513C1.29076 6.12513 1.44973 6.05928 1.56694 5.94207C1.68415 5.82486 1.75 5.66589 1.75 5.50013V3.62513C1.75888 3.11975 1.96785 2.63853 2.33107 2.28702C2.69429 1.93552 3.1821 1.74244 3.6875 1.75013H12.3125C12.8179 1.74244 13.3057 1.93552 13.6689 2.28702C14.0322 2.63853 14.2411 3.11975 14.25 3.62513V12.3751C14.2411 12.8805 14.0322 13.3617 13.6689 13.7132C13.3057 14.0647 12.8179 14.2578 12.3125 14.2501H3.6875C3.1821 14.2578 2.69429 14.0647 2.33107 13.7132C1.96785 13.3617 1.75888 12.8805 1.75 12.3751V10.5001C1.75 10.3344 1.68415 10.1754 1.56694 10.0582C1.44973 9.94098 1.29076 9.87513 1.125 9.87513C0.95924 9.87513 0.800269 9.94098 0.683058 10.0582C0.565848 10.1754 0.5 10.3344 0.5 10.5001V12.3751C0.509072 13.212 0.849801 14.011 1.4474 14.5969C2.045 15.1828 2.85064 15.5076 3.6875 15.5001H12.3125C13.1494 15.5076 13.955 15.1828 14.5526 14.5969C15.1502 14.011 15.4909 13.212 15.5 12.3751V3.62513C15.4909 2.78829 15.1502 1.98923 14.5526 1.40335C13.955 0.817469 13.1494 0.492628 12.3125 0.500127Z" fill="#1D202C"/>
<path d="M2.375 8.00005C2.375 8.16581 2.44085 8.32478 2.55806 8.44199C2.67527 8.5592 2.83424 8.62505 3 8.62505L11.2425 8.6063L8.54062 11.3082C8.48093 11.3658 8.43332 11.4348 8.40056 11.511C8.36781 11.5873 8.35056 11.6693 8.34984 11.7523C8.34912 11.8353 8.36494 11.9176 8.39636 11.9944C8.42779 12.0712 8.4742 12.141 8.53288 12.1997C8.59156 12.2584 8.66134 12.3048 8.73815 12.3362C8.81496 12.3676 8.89726 12.3834 8.98025 12.3827C9.06324 12.382 9.14525 12.3647 9.2215 12.332C9.29776 12.2992 9.36672 12.2516 9.42437 12.1919L12.2906 9.32568C12.6421 8.97406 12.8396 8.49723 12.8396 8.00005C12.8396 7.50287 12.6421 7.02604 12.2906 6.67443L9.42562 3.80818C9.30775 3.69433 9.14987 3.63133 8.986 3.63275C8.82213 3.63418 8.66537 3.69991 8.54949 3.81579C8.43361 3.93167 8.36788 4.08843 8.36645 4.2523C8.36503 4.41617 8.42803 4.57405 8.54187 4.69193L11.2056 7.3563L3 7.37505C2.83424 7.37505 2.67527 7.4409 2.55806 7.55811C2.44085 7.67532 2.375 7.83429 2.375 8.00005Z" fill="#1D202C"/>
</svg>
