<svg width="208" height="49" viewBox="0 0 208 49" fill="none" xmlns="http://www.w3.org/2000/svg">
<path d="M194.345 13.889C175.892 9.61556 156.835 6.82349 137.864 4.77342C110.549 1.82172 82.3722 0.857971 54.977 3.70949C45.0683 4.74087 35.129 6.33164 25.6546 9.016C19.081 10.8785 12.5169 13.3134 7.66914 17.6062C4.63186 20.2958 2.17855 23.8039 2.00851 27.5888C1.7521 33.2959 7.33572 37.2194 12.9848 39.5021C23.4329 43.7241 35.7043 45.0707 47.1054 45.9908C61.8828 47.1833 76.9071 47.1339 91.7319 46.7789C107.266 46.4068 122.728 45.1187 138.083 43.1273C155.161 40.9125 172.758 38.3313 189.092 33.4601C193.29 32.2078 196.863 31.0204 200.57 28.9811C202.777 27.7667 205.032 26.4139 205.791 24.1474C207.662 18.5603 196.458 15.329 192.322 14.0598C177.925 9.64186 162.341 7.70145 147.194 6.15259C131.499 4.54778 115.852 4.05723 100.074 3.72263" stroke="#B9FF66" stroke-width="3" stroke-linecap="round"/>
</svg>
