<svg width="52" height="52" viewBox="0 0 52 52" fill="none" xmlns="http://www.w3.org/2000/svg">
<circle cx="26" cy="26" r="26" fill="#A1FD42"/>
<path d="M23.8508 13.3729C24.8408 13.3729 25.6868 13.7329 26.3888 14.4529C27.1088 15.1549 27.4688 16.0009 27.4688 16.9909V28.6549C27.4688 29.6449 27.1088 30.4999 26.3888 31.2199C25.6868 31.9219 24.8408 32.2729 23.8508 32.2729H20.3948C19.4048 32.2729 18.5498 31.9219 17.8298 31.2199C17.1278 30.4999 16.7768 29.6449 16.7768 28.6549V16.9909C16.7768 16.0009 17.1278 15.1549 17.8298 14.4529C18.5498 13.7329 19.4048 13.3729 20.3948 13.3729H23.8508ZM24.1748 27.4669V18.1789C24.1748 17.9629 24.1388 17.7649 24.0668 17.5849C23.9948 17.4049 23.8868 17.2519 23.7428 17.1259C23.6168 16.9819 23.4638 16.8739 23.2838 16.8019C22.9418 16.7479 22.5548 16.7119 22.1228 16.6939C21.6908 16.7119 21.2948 16.7479 20.9348 16.8019C20.6828 16.9279 20.4758 17.1169 20.3138 17.3689C20.1518 17.6029 20.0708 17.8729 20.0708 18.1789V27.4669C20.0708 27.7909 20.1518 28.0789 20.3138 28.3309C20.4938 28.5649 20.7188 28.7449 20.9888 28.8709C21.3308 28.9249 21.7088 28.9609 22.1228 28.9789C22.5368 28.9609 22.9148 28.9249 23.2568 28.8709C23.5268 28.7449 23.7428 28.5649 23.9048 28.3309C24.0848 28.0789 24.1748 27.7909 24.1748 27.4669ZM32.0244 13.3999L34.8594 13.3729V32.2729H31.8624V16.5589C30.8544 17.4049 29.7564 17.8279 28.5684 17.8279V14.8309C28.6224 14.8309 28.6944 14.8399 28.7844 14.8579C28.8744 14.8579 29.0544 14.8399 29.3244 14.8039C29.6124 14.7679 29.8824 14.7049 30.1344 14.6149C30.4044 14.5249 30.7104 14.3809 31.0524 14.1829C31.4124 13.9669 31.7364 13.7059 32.0244 13.3999Z" fill="#A6EE51"/>
</svg>
