<svg width="52" height="52" viewBox="0 0 52 52" fill="none" xmlns="http://www.w3.org/2000/svg">
<circle cx="26" cy="26" r="26" fill="#A1FD42"/>
<path d="M21.4524 13.3729C22.4424 13.3729 23.2884 13.7329 23.9904 14.4529C24.7104 15.1549 25.0704 16.0009 25.0704 16.9909V28.6549C25.0704 29.6449 24.7104 30.4999 23.9904 31.2199C23.2884 31.9219 22.4424 32.2729 21.4524 32.2729H17.9964C17.0064 32.2729 16.1514 31.9219 15.4314 31.2199C14.7294 30.4999 14.3784 29.6449 14.3784 28.6549V16.9909C14.3784 16.0009 14.7294 15.1549 15.4314 14.4529C16.1514 13.7329 17.0064 13.3729 17.9964 13.3729H21.4524ZM21.7764 27.4669V18.1789C21.7764 17.9629 21.7404 17.7649 21.6684 17.5849C21.5964 17.4049 21.4884 17.2519 21.3444 17.1259C21.2184 16.9819 21.0654 16.8739 20.8854 16.8019C20.5434 16.7479 20.1564 16.7119 19.7244 16.6939C19.2924 16.7119 18.8964 16.7479 18.5364 16.8019C18.2844 16.9279 18.0774 17.1169 17.9154 17.3689C17.7534 17.6029 17.6724 17.8729 17.6724 18.1789V27.4669C17.6724 27.7909 17.7534 28.0789 17.9154 28.3309C18.0954 28.5649 18.3204 28.7449 18.5904 28.8709C18.9324 28.9249 19.3104 28.9609 19.7244 28.9789C20.1384 28.9609 20.5164 28.9249 20.8584 28.8709C21.1284 28.7449 21.3444 28.5649 21.5064 28.3309C21.6864 28.0789 21.7764 27.7909 21.7764 27.4669ZM36.403 13.3729V16.6669V17.0719C36.403 18.0079 36.286 18.8179 36.052 19.5019C35.836 20.1859 35.467 20.9959 34.945 21.9319C34.819 22.1479 34.675 22.3909 34.513 22.6609C35.089 23.0389 35.548 23.5429 35.89 24.1729C36.232 24.7849 36.403 25.4599 36.403 26.1979V27.4939C36.403 28.8079 35.935 29.9329 34.999 30.8689C34.063 31.8049 32.938 32.2729 31.624 32.2729H30.409C29.473 32.2729 28.546 32.1829 27.628 32.0029L26.737 31.5979V28.3309L28.627 28.7899C29.383 28.9159 30.148 28.9789 30.922 28.9789H31.84C32.272 28.9789 32.632 28.8259 32.92 28.5199C33.226 28.2139 33.37 27.8449 33.352 27.4129C33.334 26.9629 33.154 26.4859 32.812 25.9819C32.488 25.4779 32.137 25.2259 31.759 25.2259H29.356C29.23 24.8839 29.095 24.5419 28.951 24.1999C28.825 23.8399 28.699 23.4889 28.573 23.1469C31.147 20.9869 32.632 18.8269 33.028 16.6669H26.737V13.3729H33.109H36.403Z" fill="#A6EE51"/>
</svg>
