<svg width="50" height="50" viewBox="0 0 50 50" fill="none" xmlns="http://www.w3.org/2000/svg">
<path d="M24.5191 11.941C17.5629 11.941 11.952 17.552 11.952 24.5082C11.952 31.4645 17.5629 37.0754 24.5191 37.0754C31.4754 37.0754 37.0863 31.4645 37.0863 24.5082C37.0863 17.552 31.4754 11.941 24.5191 11.941ZM24.5191 32.6785C20.0238 32.6785 16.3488 29.0145 16.3488 24.5082C16.3488 20.002 20.0129 16.3379 24.5191 16.3379C29.0254 16.3379 32.6895 20.002 32.6895 24.5082C32.6895 29.0145 29.0145 32.6785 24.5191 32.6785ZM40.5316 11.427C40.5316 13.0566 39.2191 14.3582 37.6004 14.3582C35.9707 14.3582 34.6691 13.0457 34.6691 11.427C34.6691 9.8082 35.9816 8.4957 37.6004 8.4957C39.2191 8.4957 40.5316 9.8082 40.5316 11.427ZM48.8551 14.402C48.6691 10.4754 47.7723 6.99727 44.8957 4.13164C42.0301 1.26602 38.552 0.369141 34.6254 0.172266C30.5785 -0.0574219 18.4488 -0.0574219 14.402 0.172266C10.4863 0.358203 7.0082 1.25508 4.13164 4.1207C1.25508 6.98633 0.369141 10.4645 0.172266 14.391C-0.0574219 18.4379 -0.0574219 30.5676 0.172266 34.6145C0.358203 38.541 1.25508 42.0191 4.13164 44.8848C7.0082 47.7504 10.4754 48.6473 14.402 48.8441C18.4488 49.0738 30.5785 49.0738 34.6254 48.8441C38.552 48.6582 42.0301 47.7613 44.8957 44.8848C47.7613 42.0191 48.6582 38.541 48.8551 34.6145C49.0848 30.5676 49.0848 18.4488 48.8551 14.402ZM43.627 38.9566C42.7738 41.1004 41.1223 42.752 38.9676 43.616C35.741 44.8957 28.0848 44.6004 24.5191 44.6004C20.9535 44.6004 13.2863 44.8848 10.0707 43.616C7.92695 42.7629 6.27539 41.1113 5.41133 38.9566C4.13164 35.7301 4.42695 28.0738 4.42695 24.5082C4.42695 20.9426 4.14258 13.2754 5.41133 10.0598C6.26445 7.91602 7.91602 6.26445 10.0707 5.40039C13.2973 4.1207 20.9535 4.41602 24.5191 4.41602C28.0848 4.41602 35.752 4.13164 38.9676 5.40039C41.1113 6.25352 42.7629 7.90508 43.627 10.0598C44.9066 13.2863 44.6113 20.9426 44.6113 24.5082C44.6113 28.0738 44.9066 35.741 43.627 38.9566Z" fill="white"/>
</svg>
