<svg width="129" height="35" viewBox="0 0 129 35" fill="none" xmlns="http://www.w3.org/2000/svg">
<path d="M71.1969 12.9212C70.6404 12.4399 69.9362 12.1853 69.1778 12.0932C67.6417 11.9056 65.8832 12.3834 64.6847 12.9951C64.1296 13.2783 63.4643 13.6753 62.8612 14.1538V14.0882C62.8612 12.8375 61.8343 11.8232 60.568 11.8232C59.3018 11.8232 58.2749 12.8375 58.2749 14.0882V32.7346C58.2749 33.9854 59.3018 34.9996 60.568 34.9996C61.8343 34.9996 62.8612 33.9854 62.8612 32.7346V18.3615C64.6628 16.8659 66.648 16.0609 69.2011 16.1634C70.2675 16.206 71.4716 16.026 71.8494 14.8779C72.0769 14.1859 71.7506 13.4004 71.1969 12.9212Z" fill="white"/>
<path d="M128.274 12.9212C127.718 12.4399 127.014 12.1853 126.255 12.0932C124.719 11.9056 122.96 12.3834 121.762 12.9951C121.207 13.2783 120.542 13.6753 119.938 14.1538V14.0882C119.938 12.8375 118.912 11.8232 117.645 11.8232C116.379 11.8232 115.352 12.8375 115.352 14.0882V32.7346C115.352 33.9854 116.379 34.9996 117.645 34.9996C118.912 34.9996 119.938 33.9854 119.938 32.7346V18.3615C121.74 16.8659 123.725 16.0609 126.278 16.1634C127.345 16.206 128.549 16.026 128.927 14.8779C129.154 14.1859 128.829 13.4004 128.274 12.9212Z" fill="white"/>
<path d="M52.7123 20.8328V32.0948C52.7123 33.3414 51.7744 34.3731 50.6176 34.3731C49.4608 34.3731 48.5229 33.3414 48.5229 32.0948V30.7946C47.1464 33.3197 44.753 34.5879 41.9803 34.5879C38.31 34.5879 34.9187 32.3529 34.9187 27.7965C34.9187 23.3691 38.5495 20.8328 43.3363 20.8328C45.0122 20.8328 46.6478 21.1767 48.5229 21.9502V21.0902C48.5229 17.9951 47.1662 16.3189 43.4959 16.3189C41.7508 16.3189 40.3744 16.8239 39.5763 17.1999C38.8581 17.5438 38.4591 17.7586 37.8008 17.7586C36.9929 17.7586 36.1751 17.0925 36.1751 15.8996C36.1751 15.126 36.5642 14.3524 37.6808 13.7721C39.0572 13.0627 41.5206 12.2354 44.313 12.2354C50.179 12.2354 52.7123 14.9007 52.7123 20.8328ZM48.5229 25.0021C46.8873 24.1852 45.2516 23.8413 43.7756 23.8413C40.6237 23.8413 39.1081 25.1311 39.1081 27.4951C39.1081 29.8159 40.5446 30.9341 42.7784 30.9341C45.8498 30.9341 48.5229 28.8707 48.5229 25.0021Z" fill="white"/>
<path d="M74.5195 12.7257V8.76009C74.5195 7.51704 75.5231 6.50977 76.7618 6.50977C78.0006 6.50977 79.0041 7.51704 79.0041 8.76009V12.7257H84.5029C85.6237 12.7257 86.5312 13.6367 86.5312 14.7619C86.5312 15.887 85.6237 16.7981 84.5029 16.7981H79.0041V26.3999C79.0041 29.1867 80.6059 30.3007 82.613 30.3007C83.2747 30.3007 84.0007 30.1723 84.3962 30.0649C84.9301 29.9149 85.2183 29.8933 85.3998 29.8933C86.5319 29.8933 87.332 30.6864 87.332 31.8116C87.332 32.8084 86.7664 33.5904 85.6131 34.0089C84.6632 34.3521 83.339 34.5879 81.9724 34.5879C78.5987 34.5879 74.5202 32.8733 74.5202 27.0863V16.7981" fill="white"/>
<path d="M108.186 24.0542H93.91C94.3916 27.6425 97.045 30.199 101.759 30.199C103.394 30.199 104.984 29.9026 106.585 29.288C106.831 29.2001 107.111 29.1457 107.391 29.1457C108.6 29.1457 109.574 30.1 109.574 31.2851C109.574 32.1626 109.037 32.9202 108.276 33.2494C106.26 34.1165 104.01 34.5881 101.625 34.5881C93.7426 34.5881 89.0398 29.5405 89.0398 23.1328C89.0398 16.8122 93.6084 11.7646 100.64 11.7646C106.865 11.7646 110.896 15.7149 110.896 21.7062C110.896 23.3413 109.865 24.0542 108.186 24.0542ZM106.137 20.8176C106.137 17.3284 102.924 15.7156 100.483 15.7156C97.1686 15.7156 94.7836 17.7016 94.0675 20.7631L106.137 20.8176Z" fill="white"/>
<path d="M29.3271 21.293C28.1759 21.293 27.243 22.2144 27.243 23.3515C27.243 24.0769 27.1286 24.7905 26.904 25.4727C25.945 28.3802 23.1772 30.3326 20.0168 30.3326C16.0322 30.3326 12.7913 27.2013 12.7913 23.3515C12.7913 19.5023 16.0329 16.3703 20.0168 16.3703C22.0953 16.3703 24.0741 17.236 25.4478 18.7462C26.2169 19.5923 27.5347 19.6621 28.3914 18.9017C29.248 18.1421 29.3186 16.8405 28.5488 15.9943C26.3863 13.6163 23.2761 12.2526 20.0168 12.2526C17.2109 12.2526 14.6395 13.2459 12.6522 14.8894V2.15685C12.6522 0.965419 11.6748 0 10.4685 0C9.26227 0 8.28484 0.965419 8.28484 2.15685C8.28484 6.1692 8.12452 10.2171 8.28413 14.226C8.41691 17.552 8.01647 20.9226 8.6203 24.2381C9.22131 27.5389 10.8004 30.6926 13.6904 32.5788C15.5598 33.7988 17.7766 34.4503 20.0161 34.4503C24.9873 34.4503 29.3476 31.3552 30.8667 26.7486C31.2276 25.6534 31.4105 24.5108 31.4105 23.3522C31.4112 22.2151 30.4783 21.293 29.3271 21.293Z" fill="white"/>
<path d="M3.44133 11.3474C4.3213 11.7666 4.9668 12.5737 5.34958 13.4617C5.73306 14.349 5.87784 15.3179 5.96471 16.2791C6.11302 17.9246 6.0996 19.5841 5.92516 21.2269C5.90468 21.4194 5.83335 21.6622 5.63843 21.6796C5.50495 21.6915 5.39478 21.5833 5.30579 21.4829C3.6532 19.619 2.1574 17.6177 0.866398 15.493C0.48715 14.8686 0.118495 14.2136 0.0224474 13.4917C-0.236741 11.5413 1.80075 10.5654 3.44133 11.3474Z" fill="white"/>
</svg>
