<svg width="60" height="40" viewBox="0 0 60 40" fill="none" xmlns="http://www.w3.org/2000/svg">
<rect width="60" height="40" rx="20" fill="#B9FF66"/>
<path d="M33.5455 17.9254C33.9195 17.261 34.2313 16.6615 34.4236 16.2052C35.3573 13.9895 34.434 11.4408 32.1769 10.4011C29.9199 9.36148 27.6534 10.4395 26.6587 12.5209C24.7566 11.2157 22.2192 11.4074 20.8199 13.4442C19.4206 15.4811 19.8598 18.142 21.7763 19.594C22.6461 20.253 24.3664 21.2242 25.986 22.0884M34.2972 19.7499C33.8751 17.482 31.9454 15.8233 29.5156 16.2742C27.0859 16.725 25.5149 18.9171 25.8433 21.299C26.1072 23.2127 27.5639 27.7027 28.1264 29.394C28.2032 29.6248 28.2415 29.7402 28.3175 29.8206C28.3837 29.8907 28.4717 29.9416 28.5655 29.9638C28.6732 29.9894 28.7923 29.9649 29.0306 29.916C30.7765 29.5575 35.3933 28.574 37.1826 27.8457C39.4096 26.9392 40.5589 24.4841 39.6981 22.153C38.8372 19.8219 36.4723 18.9815 34.2972 19.7499Z" stroke="#1D202C" stroke-width="2" stroke-linecap="round" stroke-linejoin="round"/>
</svg>
