<svg width="87" height="87" viewBox="0 0 87 87" fill="none" xmlns="http://www.w3.org/2000/svg">
<g clip-path="url(#clip0_11_3197)">
<rect x="9.80951" y="19.8921" width="58.0645" height="58.0645" rx="9" transform="rotate(-10 9.80951 19.8921)" fill="white"/>
<path d="M35.4807 16.2866L25.6326 18.0231C20.4619 18.9348 17.8765 19.3907 16.079 20.7452C14.4978 21.9367 13.3345 23.5982 12.7556 25.4915C12.0976 27.6438 12.5534 30.2292 13.4652 35.3999L18.0234 61.2511C18.9352 66.4219 19.3911 69.0072 20.7456 70.8048C21.9371 72.3859 23.5985 73.5493 25.4918 74.1281C27.6442 74.7861 30.2296 74.3303 35.4003 73.4185L61.2515 68.8603C66.4222 67.9485 69.0076 67.4927 70.8051 66.1381C72.3863 64.9467 73.5496 63.2852 74.1285 61.3919C74.7865 59.2395 74.3306 56.6542 73.4189 51.4834L71.6824 41.6354M41.2714 31.1316L53.5815 28.961L55.7521 41.2711M49.6008 15.3834L48.7869 10.7672M62.2998 16.51L64.9885 12.6702M67.7333 28.0523L72.3496 27.2383M16.4753 52.4713C18.5363 52.4273 20.6202 52.2256 22.7133 51.8565C36.2125 49.4763 46.9712 40.6857 52.4111 29.1674" stroke="white" stroke-width="9" stroke-linecap="round" stroke-linejoin="round"/>
<path d="M35.4807 16.2866L25.6326 18.0231C20.4619 18.9348 17.8766 19.3907 16.079 20.7452C14.4979 21.9367 13.3345 23.5982 12.7557 25.4915C12.0976 27.6438 12.5535 30.2292 13.4652 35.3999L18.0235 61.2511C18.9352 66.4219 19.3911 69.0072 20.7456 70.8048C21.9371 72.3859 23.5986 73.5493 25.4919 74.1281C27.6443 74.7861 30.2296 74.3303 35.4004 73.4185L61.2516 68.8603C66.4223 67.9485 69.0077 67.4927 70.8052 66.1381C72.3863 64.9467 73.5497 63.2852 74.1285 61.3919C74.7866 59.2395 74.3307 56.6542 73.419 51.4834L71.6825 41.6354M41.2715 31.1316L53.5816 28.961L55.7522 41.2711M49.6009 15.3834L48.7869 10.7672M62.2999 16.51L64.9885 12.6702M67.7333 28.0523L72.3496 27.2383M16.4754 52.4713C18.5364 52.4273 20.6203 52.2256 22.7134 51.8565C36.2125 49.4763 46.9713 40.6857 52.4112 29.1674" stroke="#1D202C" stroke-width="3" stroke-linecap="round" stroke-linejoin="round"/>
</g>
<defs>
<clipPath id="clip0_11_3197">
<rect width="75" height="75" fill="white" transform="translate(0 13.0234) rotate(-10)"/>
</clipPath>
</defs>
</svg>
