<svg width="75" height="75" viewBox="0 0 75 75" fill="none" xmlns="http://www.w3.org/2000/svg">
<rect x="34.2122" y="31" width="11" height="9" transform="rotate(15 34.2122 31)" fill="white"/>
<path d="M30.1741 40.7695L34.7345 23.7497C29.8856 23.0794 20.0706 21.7076 19.6014 21.5818C19.1322 21.4561 14.4959 27.3428 12.2364 30.3019L12.0531 49.7526L22.2096 58.7644L40.6321 58.0394L47.4532 46.6575L30.1741 40.7695Z" fill="white"/>
<path d="M44.4193 34.5221L48.7078 16.1713L60.6663 23.1497L62.5994 39.3934L44.4193 34.5221Z" fill="white"/>
<path d="M48.6107 46.0283C49.2668 46.2041 49.5949 46.292 49.8217 46.5089C50.0089 46.6879 50.1526 46.9683 50.1885 47.2247C50.2322 47.5355 50.1228 47.8245 49.9041 48.4025C48.77 51.3991 46.9151 54.0823 44.4913 56.2079C41.5742 58.7662 37.9639 60.4019 34.1171 60.9084C30.2703 61.4148 26.3598 60.7692 22.8799 59.0531C19.4001 57.337 16.5072 54.6276 14.5672 51.2674C12.6272 47.9073 11.7272 44.0473 11.981 40.1756C12.2347 36.3039 13.6309 32.5944 15.9929 29.5162C18.3549 26.438 21.5766 24.1294 25.2507 22.8822C28.3035 21.8459 31.5546 21.5812 34.7167 22.0973C35.3267 22.1969 35.6316 22.2466 35.879 22.4398C36.0831 22.5992 36.254 22.8638 36.3154 23.1154C36.3899 23.4203 36.302 23.7484 36.1262 24.4045L32.0643 39.5637C31.8865 40.227 31.7977 40.5587 31.8589 40.8466C31.9127 41.0999 32.0453 41.3296 32.2378 41.5028C32.4565 41.6998 32.7882 41.7887 33.4514 41.9664L48.6107 46.0283Z" stroke="white" stroke-width="10.98" stroke-linecap="round" stroke-linejoin="round"/>
<path d="M48.1394 17.4686C48.3152 16.8125 48.4031 16.4844 48.6201 16.2576C48.799 16.0704 49.0794 15.9268 49.3358 15.8908C49.6466 15.8471 49.9356 15.9565 50.5136 16.1752C54.7281 17.7701 58.2861 20.7772 60.5591 24.714C62.832 28.6509 63.6572 33.2358 62.9312 37.683C62.8316 38.293 62.7818 38.5979 62.5886 38.8453C62.4292 39.0494 62.1646 39.2203 61.9131 39.2817C61.6082 39.3562 61.2801 39.2683 60.624 39.0925L45.4647 35.0305C44.8014 34.8528 44.4698 34.764 44.251 34.567C44.0586 34.3937 43.926 34.164 43.8721 33.9107C43.8109 33.6228 43.8998 33.2912 44.0775 32.6279L48.1394 17.4686Z" stroke="white" stroke-width="10.98" stroke-linecap="round" stroke-linejoin="round"/>
<path d="M48.6107 46.0283C49.2668 46.2041 49.5949 46.292 49.8217 46.5089C50.0089 46.6879 50.1526 46.9683 50.1885 47.2247C50.2322 47.5355 50.1228 47.8245 49.9041 48.4025C48.77 51.3991 46.9151 54.0823 44.4913 56.2079C41.5742 58.7662 37.9639 60.4019 34.1171 60.9084C30.2703 61.4148 26.3598 60.7692 22.8799 59.0531C19.4001 57.337 16.5072 54.6276 14.5672 51.2674C12.6272 47.9073 11.7272 44.0473 11.981 40.1756C12.2347 36.3039 13.6309 32.5944 15.9929 29.5162C18.3549 26.438 21.5766 24.1294 25.2507 22.8822C28.3035 21.8459 31.5546 21.5812 34.7167 22.0973C35.3267 22.1969 35.6316 22.2466 35.879 22.4398C36.0831 22.5992 36.254 22.8638 36.3154 23.1154C36.3899 23.4203 36.302 23.7484 36.1262 24.4045L32.0643 39.5637C31.8865 40.227 31.7977 40.5587 31.8589 40.8466C31.9127 41.0999 32.0453 41.3296 32.2378 41.5028C32.4565 41.6998 32.7882 41.7887 33.4514 41.9664L48.6107 46.0283Z" stroke="#1D202C" stroke-width="3.66" stroke-linecap="round" stroke-linejoin="round"/>
<path d="M48.1394 17.4686C48.3152 16.8125 48.4031 16.4844 48.6201 16.2576C48.799 16.0704 49.0794 15.9268 49.3358 15.8908C49.6466 15.8471 49.9356 15.9565 50.5136 16.1752C54.7281 17.7701 58.2861 20.7772 60.5591 24.714C62.832 28.6509 63.6572 33.2358 62.9312 37.683C62.8316 38.293 62.7818 38.5979 62.5886 38.8453C62.4292 39.0494 62.1646 39.2203 61.9131 39.2817C61.6082 39.3562 61.2801 39.2683 60.624 39.0925L45.4647 35.0305C44.8014 34.8528 44.4698 34.764 44.251 34.567C44.0586 34.3937 43.926 34.164 43.8721 33.9107C43.8109 33.6228 43.8998 33.2912 44.0775 32.6279L48.1394 17.4686Z" stroke="#1D202C" stroke-width="3.66" stroke-linecap="round" stroke-linejoin="round"/>
</svg>
