<svg width="137" height="102" viewBox="0 0 137 102" fill="none" xmlns="http://www.w3.org/2000/svg">
<path d="M129.648 91.0812L125.99 89.6769C124.618 89.1506 123.218 88.7332 121.783 88.4226L94.3169 44.4652L106.994 39.1124C109.991 37.8471 111.409 34.3822 110.156 31.3844C108.899 28.3789 105.449 26.9725 102.466 28.2365L71.126 41.4693C69.5451 42.1778 67.7666 42.1717 66.1905 41.4086C64.6068 40.6489 63.4893 39.2651 63.0365 37.5103C62.3376 34.8391 64.0572 31.7366 66.7802 30.5116L101.945 16.0027C108.603 13.2655 116.677 15.0684 121.498 20.3781L131.75 31.6365C134.805 34.9907 138.665 37.6234 142.894 39.2466L148.686 41.4699C151.719 42.6342 155.116 41.1116 156.286 38.0638C157.456 35.0159 155.95 31.6111 152.917 30.4469L147.125 28.2236C144.586 27.2488 142.266 25.669 140.433 23.6565L130.192 12.4023C122.119 3.53008 108.628 0.495044 97.5005 5.08938L92.8797 6.99596L90.3902 2.00584C87.1205 -4.54215 81.569 -9.58836 74.5431 -12.2854C70.3144 -13.9086 65.7116 -14.5246 61.2179 -14.0805L46.0764 -12.57C43.3623 -12.3029 40.5813 -12.6811 38.0418 -13.6559L32.261 -15.875C29.2279 -17.0393 25.8305 -15.5167 24.6606 -12.4688C23.4906 -9.42097 24.9966 -6.01622 28.0296 -4.85194L33.8215 -2.62866C38.0502 -1.0054 42.6825 -0.384447 47.2002 -0.82559L62.3528 -2.33186C69.0456 -3.01308 76.6276 0.776353 79.8808 7.31803L81.9684 11.5025L62.1836 19.6664C54.0305 23.3157 49.5065 32.2977 51.6692 40.5328C52.9916 45.6125 57.5233 50.7415 62.4102 52.6174C66.7595 54.287 71.5935 54.1696 75.7758 52.2907L83.3308 49.1011L108.068 88.6912C107.852 88.7472 64.2447 101.249 64.2447 101.249C59.0902 102.824 53.5561 100.7 50.7207 95.9876L26.9777 57.9871C23.6309 52.6237 18.5353 48.4227 12.6392 46.1594L8.98094 44.7551C5.9479 43.5909 2.55052 45.1134 1.38056 48.1613C0.21059 51.2092 1.71655 54.6139 4.74959 55.7782L8.4079 57.1825C11.9455 58.5405 14.9996 61.0598 17.011 64.2791L40.6983 102.195C43.4815 106.83 47.6511 110.214 52.4063 112.039C57.1342 113.854 62.4468 114.129 67.5392 112.568L110.622 100.219C114.265 99.1706 118.221 99.342 121.758 100.7L125.417 102.104C128.45 103.269 131.847 101.746 133.017 98.6981C134.187 95.6502 132.681 92.2455 129.648 91.0812Z" fill="#232533"/>
</svg>
