<svg width="206" height="45" viewBox="0 0 206 45" fill="none" xmlns="http://www.w3.org/2000/svg">
<path d="M204.5 16.746C189.87 11.3134 174.057 9.03107 158.666 7.10949C133.542 3.97281 108.364 2.36376 83.0573 2.05389C63.5007 1.81443 43.6944 2.23118 24.4626 6.25502C20.5708 7.0693 -4.5226 12.2046 2.84694 20.9708C6.15403 24.9047 11.6522 27.2548 16.2115 29.0645C27.9046 33.7059 40.4775 36.1351 52.8418 37.989C71.4592 40.7804 90.2917 42.0558 109.089 42.641C127.489 43.2139 146.155 43.4462 164.406 40.5998C170.953 39.5789 204.252 34.5249 194.971 20.4012C190.589 13.7339 181.861 9.79939 174.796 7.15696C166.945 4.22076 159.12 3.4411 150.949 2.22004" stroke="#0042FF" stroke-width="3" stroke-linecap="round"/>
</svg>
