<svg width="136" height="90" viewBox="0 0 136 90" fill="none" xmlns="http://www.w3.org/2000/svg">
<path d="M136 56.6669C136 56.2533 135.955 55.8409 135.864 55.4373L128.497 22.1854C127.129 15.8741 123.632 10.2253 118.593 6.18608C113.554 2.1469 107.279 -0.0370394 100.821 0.000475368H35.1787C28.7246 -0.0318262 22.4555 2.15449 17.4212 6.19325C12.3869 10.232 8.89325 15.8779 7.52534 22.1854L0.136008 55.4373C0.045387 55.8409 -0.000224739 56.2533 7.75992e-06 56.6669V62.3336C-0.00456415 67.8506 2.01123 73.1783 5.66667 77.3105V107.667C5.67567 115.178 8.66367 122.38 13.9753 127.691C19.2868 133.003 26.4883 135.991 34 136H102C109.512 135.991 116.713 133.003 122.025 127.691C127.336 122.38 130.324 115.178 130.333 107.667V77.3105C133.989 73.1783 136.005 67.8506 136 62.3336V56.6669ZM11.3333 57.2846L18.5867 24.6447C19.4086 20.8608 21.5051 17.474 24.5254 15.051C27.5457 12.6279 31.3066 11.3157 35.1787 11.3338H39.6667V28.3337C39.6667 29.8366 40.2637 31.2779 41.3264 32.3406C42.3891 33.4033 43.8304 34.0004 45.3333 34.0004C46.8362 34.0004 48.2776 33.4033 49.3403 32.3406C50.403 31.2779 51 29.8366 51 28.3337V11.3338H85V28.3337C85 29.8366 85.597 31.2779 86.6597 32.3406C87.7224 33.4033 89.1638 34.0004 90.6667 34.0004C92.1696 34.0004 93.6109 33.4033 94.6736 32.3406C95.7363 31.2779 96.3333 29.8366 96.3333 28.3337V11.3338H100.821C104.693 11.3157 108.454 12.6279 111.475 15.051C114.495 17.474 116.591 20.8608 117.413 24.6447L124.667 57.2846V62.3336C124.667 65.3394 123.473 68.222 121.347 70.3474C119.222 72.4728 116.339 73.6669 113.333 73.6669H107.667C104.661 73.6669 101.778 72.4728 99.6528 70.3474C97.5274 68.222 96.3333 65.3394 96.3333 62.3336C96.3333 60.8307 95.7363 59.3894 94.6736 58.3267C93.6109 57.264 92.1696 56.6669 90.6667 56.6669C89.1638 56.6669 87.7224 57.264 86.6597 58.3267C85.597 59.3894 85 60.8307 85 62.3336C85 65.3394 83.8059 68.222 81.6805 70.3474C79.5551 72.4728 76.6724 73.6669 73.6667 73.6669H62.3333C59.3275 73.6669 56.4449 72.4728 54.3195 70.3474C52.194 68.222 51 65.3394 51 62.3336C51 60.8307 50.403 59.3894 49.3403 58.3267C48.2776 57.264 46.8362 56.6669 45.3333 56.6669C43.8304 56.6669 42.3891 57.264 41.3264 58.3267C40.2637 59.3894 39.6667 60.8307 39.6667 62.3336C39.6667 65.3394 38.4726 68.222 36.3472 70.3474C34.2218 72.4728 31.3391 73.6669 28.3333 73.6669H22.6667C19.6609 73.6669 16.7782 72.4728 14.6528 70.3474C12.5274 68.222 11.3333 65.3394 11.3333 62.3336V57.2846ZM102 124.667H34C29.4913 124.667 25.1673 122.876 21.9792 119.688C18.7911 116.499 17 112.175 17 107.667V84.2805C18.8507 84.7597 20.7549 85.0016 22.6667 85.0002H28.3333C31.551 85.0019 34.7319 84.3168 37.6635 82.9907C40.5952 81.6646 43.21 79.7281 45.3333 77.3105C47.4566 79.7281 50.0715 81.6646 53.0031 82.9907C55.9348 84.3168 59.1157 85.0019 62.3333 85.0002H73.6667C76.8843 85.0019 80.0652 84.3168 82.9969 82.9907C85.9285 81.6646 88.5434 79.7281 90.6667 77.3105C92.79 79.7281 95.4048 81.6646 98.3365 82.9907C101.268 84.3168 104.449 85.0019 107.667 85.0002H113.333C115.245 85.0016 117.149 84.7597 119 84.2805V107.667C119 112.175 117.209 116.499 114.021 119.688C110.833 122.876 106.509 124.667 102 124.667Z" fill="#232533"/>
</svg>
