<svg width="22" height="22" viewBox="0 0 22 22" fill="none" xmlns="http://www.w3.org/2000/svg">
<path d="M9.22813 18.3132C8.26699 16.2855 7.45652 14.6024 7.42707 14.5729C7.39763 14.5435 5.71449 13.733 3.68677 12.7719C1.65905 11.8107 0 11.0134 0 11C0 10.9866 1.65905 10.1893 3.68677 9.22813C5.71449 8.26699 7.39763 7.45652 7.42707 7.42707C7.45652 7.39763 8.26699 5.71449 9.22813 3.68677C10.1893 1.65905 10.9866 0 11 0C11.0134 0 11.8107 1.65905 12.7719 3.68677C13.733 5.71449 14.5435 7.39763 14.5729 7.42707C14.6024 7.45652 16.2855 8.26699 18.3132 9.22813C20.341 10.1893 22 10.9866 22 11C22 11.0134 20.341 11.8107 18.3132 12.7719C16.2855 13.733 14.6024 14.5435 14.5729 14.5729C14.5435 14.6024 13.733 16.2855 12.7719 18.3132C11.8107 20.341 11.0134 22 11 22C10.9866 22 10.1893 20.341 9.22813 18.3132V18.3132Z" fill="white"/>
</svg>
