<svg width="14" height="13" viewBox="0 0 14 13" fill="none" xmlns="http://www.w3.org/2000/svg">
<path d="M0.0949707 6.499C3.69563 6.43816 6.59497 3.61943 6.59497 0.151163C6.59497 3.607 9.4908 6.41794 13.095 6.49824V6.50176C9.4908 6.58206 6.59497 9.393 6.59497 12.8488C6.59497 9.38057 3.69563 6.56184 0.0949707 6.501V6.499Z" fill="#B9FF66"/>
<path d="M6.59313 13C6.59436 12.9498 6.59497 12.8994 6.59497 12.8488C6.59497 12.8994 6.59559 12.9498 6.59682 13H6.59313Z" fill="#B9FF66"/>
<path d="M6.59682 0C6.59559 0.0502454 6.59497 0.100635 6.59497 0.151163C6.59497 0.100635 6.59436 0.0502454 6.59313 0H6.59682Z" fill="#B9FF66"/>
</svg>
