<svg width="265" height="50" viewBox="0 0 265 50" fill="none" xmlns="http://www.w3.org/2000/svg">
<path d="M1.59478 15.0311C20.6729 9.73107 41.1574 7.9399 61.0837 6.5254C93.6101 4.21646 126.147 3.58556 158.801 4.38556C184.035 5.00377 209.567 6.35303 234.219 11.633C239.207 12.7015 271.377 19.4646 261.536 28.7483C257.12 32.9143 249.938 35.2446 243.988 37.0242C228.727 41.5886 212.417 43.6869 196.398 45.1634C172.277 47.3868 147.937 47.9375 123.669 47.7328C99.9136 47.5323 75.8283 46.9464 52.3959 43.0021C43.9913 41.5874 1.23338 34.5438 13.7464 19.4697C19.6534 12.3537 31.0618 8.43114 40.276 5.85091C50.5146 2.98383 60.6384 2.48111 71.2242 1.50978" stroke="#B9FF66" stroke-width="3" stroke-linecap="round"/>
</svg>
