<svg width="47" height="47" viewBox="0 0 47 47" fill="none" xmlns="http://www.w3.org/2000/svg">
<path d="M3.30371 3.30371C0 6.60741 0 11.9253 0 22.56V24.44C0 35.0747 0 40.3926 3.30371 43.6963C6.60741 47 11.9253 47 22.56 47H24.44C35.0747 47 40.3926 47 43.6963 43.6963C47 40.3926 47 35.0747 47 24.44V22.56C47 11.9253 47 6.60741 43.6963 3.30371C40.3926 0 35.0747 0 24.44 0H22.56C11.9253 0 6.60741 0 3.30371 3.30371ZM7.93125 14.2959H13.2971C13.4734 23.265 17.4291 27.0641 20.5625 27.8475V14.2959H25.615V22.0313C28.7091 21.6984 31.96 18.1734 33.0566 14.2959H38.1091C37.6958 16.3068 36.8719 18.2107 35.6892 19.8889C34.5065 21.5669 32.9903 22.9829 31.2354 24.0484C33.1948 25.0211 34.9255 26.3987 36.313 28.0899C37.7004 29.7813 38.7131 31.7479 39.2841 33.8596H33.7225C33.21 32.0253 32.1671 30.3832 30.7247 29.1394C29.2824 27.8957 27.5048 27.1056 25.615 26.8684V33.8596H25.0079C14.2959 33.8596 8.18584 26.5159 7.93125 14.2959Z" fill="white"/>
</svg>
