<svg width="15" height="15" viewBox="0 0 15 15" fill="none" xmlns="http://www.w3.org/2000/svg">
<path d="M14.625 10.9992V13.7985C14.6251 13.9989 14.5492 14.1919 14.4125 14.3386C14.2759 14.4852 14.0887 14.5746 13.8888 14.5886C13.5428 14.6123 13.2602 14.625 13.0417 14.625C6.04571 14.625 0.375 8.95429 0.375 1.95833C0.375 1.73983 0.386875 1.45721 0.411417 1.11125C0.425447 0.91131 0.514793 0.724134 0.661428 0.58749C0.808062 0.450847 1.00107 0.374909 1.2015 0.375H4.00083C4.09903 0.374901 4.19376 0.411305 4.26662 0.477141C4.33948 0.542977 4.38526 0.633545 4.39508 0.73125C4.41329 0.913334 4.42992 1.05821 4.44575 1.16825C4.60308 2.26623 4.9255 3.33412 5.40208 4.33571C5.47729 4.49404 5.42821 4.68325 5.28571 4.78458L3.57729 6.00533C4.62186 8.43927 6.56152 10.3789 8.99546 11.4235L10.2146 9.71825C10.2645 9.64858 10.3372 9.59861 10.4201 9.57706C10.503 9.5555 10.5908 9.56372 10.6683 9.60029C11.6697 10.076 12.7373 10.3976 13.8349 10.5542C13.945 10.5701 14.0898 10.5875 14.2703 10.6049C14.3679 10.6149 14.4583 10.6608 14.5239 10.7336C14.5896 10.8065 14.6259 10.9011 14.6258 10.9992H14.625Z" fill="#FE5C01"/>
</svg>
