<svg width="16" height="15" viewBox="0 0 16 15" fill="none" xmlns="http://www.w3.org/2000/svg">
<path d="M13.2898 5.0903L12.8637 5.5359C12.1812 3.57499 10.7314 1.98152 8.91431 1.19237L9.23106 0.862428C9.6989 0.375098 10.4479 0.383301 10.9045 0.862428L13.2898 3.34709C13.7501 3.82313 13.7573 4.60333 13.2898 5.0903Z" fill="#FE5C01"/>
<path d="M6.50012 3C4.01871 3 2 5.01858 2 7.49974C2 9.98114 4.01871 12 6.50012 12C8.98129 12 11 9.98119 11 7.49974C11 5.01863 8.98129 3 6.50012 3Z" fill="#FE5C01"/>
<path d="M6.5535 1.33693C2.96813 1.19992 0 4.18666 0 7.91506C0 11.5459 2.83594 14.5 6.32 14.5H11.3159C12.0457 14.5 12.6384 13.8827 12.6384 13.1225V8.06477C12.6384 4.48148 9.90859 1.46277 6.5535 1.33693ZM6.31987 11.7293C4.30091 11.7293 2.65819 10.0182 2.65819 7.91516C2.65819 5.81226 4.30091 4.10138 6.31987 4.10138C8.33884 4.10138 9.98141 5.81226 9.98141 7.91516C9.98141 10.0182 8.33884 11.7293 6.31987 11.7293Z" fill="#FE5C01"/>
<path d="M15.9998 9.77729V13.1684C15.9998 13.2576 15.9651 13.3468 15.9035 13.4082C15.8448 13.4694 15.7631 13.5085 15.6733 13.5085H13.2554C13.2799 13.3827 13.2913 13.2551 13.2913 13.1225V10.7025H15.3468V9.77733C15.3468 9.59029 15.4921 9.43719 15.6733 9.43719C15.8529 9.43719 15.9998 9.59025 15.9998 9.77729Z" fill="#FE5C01"/>
</svg>
