<svg width="19" height="19" viewBox="0 0 19 19" fill="none" xmlns="http://www.w3.org/2000/svg">
<path d="M0.091279 18.1041L1.31496 13.7054C0.508651 12.3532 0.0850302 10.8154 0.0876586 9.24998C0.0876586 4.35982 4.13976 0.395813 9.13858 0.395813C14.1374 0.395813 18.1895 4.35982 18.1895 9.24998C18.1895 14.1401 14.1374 18.1041 9.13858 18.1041C7.53909 18.1067 5.96773 17.6926 4.58597 16.9044L0.091279 18.1041ZM5.87211 5.0956C5.75522 5.1027 5.64101 5.13282 5.53632 5.18415C5.43813 5.23854 5.34851 5.30653 5.27022 5.38602C5.16161 5.48607 5.10006 5.57284 5.03399 5.65696C4.69948 6.08284 4.51954 6.60561 4.52261 7.14269C4.52442 7.57654 4.64027 7.99889 4.82129 8.39378C5.19148 9.19243 5.8006 10.038 6.60523 10.8216C6.79892 11.0102 6.98808 11.1997 7.19173 11.3759C8.1904 12.236 9.38047 12.8563 10.6673 13.1874L11.1823 13.2645C11.3497 13.2733 11.5172 13.2609 11.6855 13.2529C11.9491 13.2396 12.2065 13.1698 12.4395 13.0484C12.5897 12.9705 12.6603 12.9315 12.7861 12.8536C12.7861 12.8536 12.825 12.8288 12.8992 12.7739C13.0214 12.6854 13.0966 12.6225 13.1979 12.5189C13.273 12.4428 13.3382 12.3534 13.388 12.2515C13.4586 12.1072 13.5292 11.8319 13.5582 11.6025C13.5799 11.4272 13.5735 11.3316 13.5708 11.2723C13.5672 11.1775 13.4867 11.0793 13.3989 11.0376L12.8721 10.8065C12.8721 10.8065 12.0847 10.471 11.6041 10.2567C11.5534 10.2351 11.4991 10.2228 11.4439 10.2204C11.3819 10.2142 11.3194 10.221 11.2603 10.2404C11.2013 10.2598 11.1473 10.2913 11.1017 10.3328V10.3311C11.0972 10.3311 11.0366 10.3815 10.3822 11.1572C10.3446 11.2065 10.2929 11.2439 10.2336 11.2644C10.1742 11.2849 10.11 11.2876 10.0491 11.2723C9.99013 11.2568 9.93236 11.2373 9.87623 11.2138C9.764 11.1678 9.72508 11.1501 9.64815 11.1173L9.64363 11.1156C9.12583 10.8944 8.64642 10.5957 8.22263 10.2301C8.10859 10.1327 8.00269 10.0265 7.89408 9.92378C7.538 9.59019 7.22768 9.2128 6.97089 8.80107L6.91749 8.71696C6.87913 8.66044 6.84812 8.59947 6.82517 8.53545C6.79077 8.40529 6.88038 8.30081 6.88038 8.30081C6.88038 8.30081 7.10032 8.06529 7.20259 7.93779C7.28775 7.83183 7.3672 7.72159 7.44063 7.60753C7.54743 7.4393 7.58092 7.26665 7.5248 7.13295C7.27138 6.52732 7.0089 5.92435 6.73918 5.32581C6.68578 5.20717 6.52739 5.12217 6.38348 5.10534C6.33461 5.10003 6.28573 5.09472 6.23686 5.09118C6.11531 5.08527 5.99351 5.08645 5.87211 5.09472V5.0956Z" fill="#3B9F18"/>
</svg>
