<svg width="25" height="25" viewBox="0 0 25 25" fill="none" xmlns="http://www.w3.org/2000/svg">
<path d="M4.49994 6.21575L0.851562 2.5685L2.44344 0.976624L6.09069 4.625H23.2379C23.4133 4.62499 23.5862 4.66596 23.7429 4.74466C23.8996 4.82336 24.0357 4.9376 24.1404 5.07826C24.2452 5.21892 24.3155 5.3821 24.346 5.5548C24.3764 5.72749 24.366 5.9049 24.3157 6.07287L21.6157 15.0729C21.5462 15.3047 21.4038 15.508 21.2097 15.6525C21.0155 15.797 20.78 15.875 20.5379 15.875H6.74994V18.125H19.1249V20.375H5.62494C5.32657 20.375 5.04042 20.2565 4.82944 20.0455C4.61846 19.8345 4.49994 19.5484 4.49994 19.25V6.21575ZM6.74994 6.875V13.625H19.7009L21.7259 6.875H6.74994ZM6.18744 24.875C5.73988 24.875 5.31066 24.6972 4.99419 24.3807C4.67773 24.0643 4.49994 23.6351 4.49994 23.1875C4.49994 22.7399 4.67773 22.3107 4.99419 21.9943C5.31066 21.6778 5.73988 21.5 6.18744 21.5C6.63499 21.5 7.06421 21.6778 7.38068 21.9943C7.69715 22.3107 7.87494 22.7399 7.87494 23.1875C7.87494 23.6351 7.69715 24.0643 7.38068 24.3807C7.06421 24.6972 6.63499 24.875 6.18744 24.875ZM19.6874 24.875C19.2399 24.875 18.8107 24.6972 18.4942 24.3807C18.1777 24.0643 17.9999 23.6351 17.9999 23.1875C17.9999 22.7399 18.1777 22.3107 18.4942 21.9943C18.8107 21.6778 19.2399 21.5 19.6874 21.5C20.135 21.5 20.5642 21.6778 20.8807 21.9943C21.1971 22.3107 21.3749 22.7399 21.3749 23.1875C21.3749 23.6351 21.1971 24.0643 20.8807 24.3807C20.5642 24.6972 20.135 24.875 19.6874 24.875Z" fill="#0C0A3E"/>
</svg>
