<svg width="12" height="13" viewBox="0 0 12 13" fill="none" xmlns="http://www.w3.org/2000/svg">
<path d="M5.99996 12.3337C2.77821 12.3337 0.166626 9.72207 0.166626 6.50033C0.166626 3.27858 2.77821 0.666992 5.99996 0.666992C9.22171 0.666992 11.8333 3.27858 11.8333 6.50033C11.8333 9.72207 9.22171 12.3337 5.99996 12.3337ZM5.99996 11.167C7.23764 11.167 8.42462 10.6753 9.29979 9.80016C10.175 8.92499 10.6666 7.738 10.6666 6.50033C10.6666 5.26265 10.175 4.07566 9.29979 3.20049C8.42462 2.32532 7.23764 1.83366 5.99996 1.83366C4.76228 1.83366 3.5753 2.32532 2.70013 3.20049C1.82496 4.07566 1.33329 5.26265 1.33329 6.50033C1.33329 7.738 1.82496 8.92499 2.70013 9.80016C3.5753 10.6753 4.76228 11.167 5.99996 11.167V11.167ZM6.58329 6.50033H8.91663V7.66699H5.41663V3.58366H6.58329V6.50033Z" fill="#474D63"/>
</svg>
