<svg width="29" height="29" viewBox="0 0 29 29" fill="none" xmlns="http://www.w3.org/2000/svg">
<path fill-rule="evenodd" clip-rule="evenodd" d="M0.585786 0.585786C1.36683 -0.195262 2.63316 -0.195262 3.41421 0.585786L14.3744 11.546L25.3346 0.585786C26.1156 -0.195262 27.3819 -0.195262 28.163 0.585786C28.944 1.36684 28.944 2.63317 28.163 3.41421L17.2028 14.3744L28.163 25.3345C28.944 26.1156 28.944 27.3819 28.163 28.1629C27.3819 28.944 26.1156 28.944 25.3345 28.1629L14.3744 17.2028L3.41426 28.1629C2.63321 28.944 1.36688 28.944 0.585829 28.1629C-0.19522 27.3819 -0.195219 26.1156 0.585829 25.3345L11.546 14.3744L0.585786 3.41421C-0.195262 2.63317 -0.195262 1.36684 0.585786 0.585786Z" fill="#DDDDDD"/>
</svg>
