<svg width="21" height="21" viewBox="0 0 21 21" fill="none" xmlns="http://www.w3.org/2000/svg">
<path d="M10.4999 0.0833282C16.2499 0.0833282 20.9166 4.75 20.9166 10.5C20.9166 16.25 16.2499 20.9167 10.4999 20.9167C4.74992 20.9167 0.083252 16.25 0.083252 10.5C0.083252 4.75 4.74992 0.0833282 10.4999 0.0833282ZM10.4999 18.8333C15.1041 18.8333 18.8333 15.1042 18.8333 10.5C18.8333 5.89583 15.1041 2.16666 10.4999 2.16666C5.89575 2.16666 2.16659 5.89583 2.16659 10.5C2.16659 15.1042 5.89575 18.8333 10.4999 18.8333ZM14.1833 5.34375L15.6562 6.81666L10.4999 11.9729L9.027 10.5L14.1833 5.34375Z" fill="#0C0A3E"/>
</svg>
