<svg width="35" height="35" viewBox="0 0 35 35" fill="none" xmlns="http://www.w3.org/2000/svg">
<path d="M28.3692 30.8984H6.15238V32.9492C6.15238 33.696 5.95079 34.3962 5.60059 35H27.3438C28.4764 35 29.3946 34.0819 29.3946 32.9492V31.9238C29.3946 31.3575 28.9355 30.8984 28.3692 30.8984Z" fill="white"/>
<path d="M25.293 1.02539C25.293 0.459102 24.8339 0 24.2676 0H21.5332C20.9669 0 20.5078 0.459102 20.5078 1.02539C20.5078 1.59079 20.0478 2.05078 19.4824 2.05078C18.917 2.05078 18.457 1.59079 18.457 1.02539C18.457 0.459102 17.9979 0 17.4316 0H14.6973C14.131 0 13.6719 0.459102 13.6719 1.02539C13.6719 1.59079 13.2119 2.05078 12.6465 2.05078C12.0811 2.05078 11.6211 1.59079 11.6211 1.02539C11.6211 0.459102 11.162 0 10.5957 0H7.86133C7.29504 0 6.83594 0.459102 6.83594 1.02539C6.83594 1.59079 6.37595 2.05078 5.81055 2.05078C5.24515 2.05078 4.78516 1.59079 4.78516 1.02539C4.78516 0.459102 4.32605 0 3.75977 0H1.02539C0.459102 0 0 0.459102 0 1.02539V32.9492C0 34.0819 0.918135 35 2.05078 35C3.18343 35 4.10156 34.0819 4.10156 32.9492V29.873C4.10156 29.3068 4.56066 28.8477 5.12695 28.8477H25.293V1.02539ZM5.12695 6.2207H13.3301C13.8964 6.2207 14.3555 6.6798 14.3555 7.24609C14.3555 7.81238 13.8964 8.27148 13.3301 8.27148H5.12695C4.56066 8.27148 4.10156 7.81238 4.10156 7.24609C4.10156 6.6798 4.56066 6.2207 5.12695 6.2207ZM5.12695 10.3223H13.3301C13.8964 10.3223 14.3555 10.7814 14.3555 11.3477C14.3555 11.9139 13.8964 12.373 13.3301 12.373H5.12695C4.56066 12.373 4.10156 11.9139 4.10156 11.3477C4.10156 10.7814 4.56066 10.3223 5.12695 10.3223ZM20.166 26.0449H5.12695C4.56066 26.0449 4.10156 25.5858 4.10156 25.0195C4.10156 24.4532 4.56066 23.9941 5.12695 23.9941H20.166C20.7323 23.9941 21.1914 24.4532 21.1914 25.0195C21.1914 25.5858 20.7323 26.0449 20.166 26.0449ZM20.166 21.9434H5.12695C4.56066 21.9434 4.10156 21.4843 4.10156 20.918C4.10156 20.3517 4.56066 19.8926 5.12695 19.8926H20.166C20.7323 19.8926 21.1914 20.3517 21.1914 20.918C21.1914 21.4843 20.7323 21.9434 20.166 21.9434ZM20.166 17.8418H5.12695C4.56066 17.8418 4.10156 17.3827 4.10156 16.8164C4.10156 16.2501 4.56066 15.791 5.12695 15.791H20.166C20.7323 15.791 21.1914 16.2501 21.1914 16.8164C21.1914 17.3827 20.7323 17.8418 20.166 17.8418Z" fill="white"/>
<path d="M31.9238 0.0683594H30.2148C29.271 0.0683594 28.5059 0.833506 28.5059 1.77734V4.16992H33.6328V1.77734C33.6328 0.833506 32.8677 0.0683594 31.9238 0.0683594Z" fill="white"/>
<path d="M28.5059 17.2589C28.5059 20.6959 29.0414 24.112 30.0932 27.3841C30.3981 28.3329 31.7406 28.3329 32.0456 27.3841C33.0973 24.1119 33.6328 20.6959 33.6328 17.2589V6.2207H28.5059V17.2589Z" fill="white"/>
<path d="M33.9746 4.16992H33.6328V6.2207H33.9746C34.5409 6.2207 35 5.7616 35 5.19531C35 4.62902 34.5409 4.16992 33.9746 4.16992Z" fill="white"/>
</svg>
