<svg width="32" height="40" viewBox="0 0 32 40" fill="none" xmlns="http://www.w3.org/2000/svg">
<path d="M16 11.7188C11.4773 11.7188 7.79688 15.3992 7.79688 19.9219C7.79688 24.4446 11.4773 28.125 16 28.125C20.5227 28.125 24.2031 24.4446 24.2031 19.9219C24.2031 15.3992 20.5227 11.7188 16 11.7188ZM21.5161 18.4067L15.6567 24.2661C15.4278 24.4949 15.1278 24.6094 14.8281 24.6094C14.5284 24.6094 14.2285 24.4949 13.9996 24.2661L10.4839 20.7504C10.0262 20.2927 10.0262 19.5511 10.4839 19.0933C10.9417 18.6356 11.6833 18.6356 12.1411 19.0933L14.8281 21.7804L19.859 16.7496C20.3167 16.2918 21.0583 16.2918 21.5161 16.7496C21.9738 17.2073 21.9738 17.9489 21.5161 18.4067Z" fill="white"/>
<path d="M30.0625 4.68751H27.3172C23.3551 4.68751 19.6301 3.06672 16.8286 0.265198C16.3708 -0.192566 15.6292 -0.192566 15.1715 0.265198C12.37 3.06672 8.64497 4.68751 4.68287 4.68751H1.9375C1.28961 4.68751 0.765625 5.21149 0.765625 5.85938V19.9219C0.765625 30.4526 8.4286 35.351 13.4994 38.5404C13.963 38.8312 15.5066 39.9219 16 39.9219C16.4923 39.9219 17.995 38.8593 18.457 38.5691C23.5452 35.3776 31.2344 30.4743 31.2344 19.9219V5.85938C31.2344 5.21149 30.7101 4.68751 30.0625 4.68751ZM16 30.4688C10.184 30.4688 5.45313 25.7376 5.45313 19.9219C5.45313 14.1059 10.184 9.37501 16 9.37501C21.8158 9.37501 26.5469 14.1059 26.5469 19.9219C26.5469 25.7376 21.8158 30.4688 16 30.4688Z" fill="white"/>
</svg>
