<svg width="40" height="28" viewBox="0 0 40 28" fill="none" xmlns="http://www.w3.org/2000/svg">
<path d="M40 6.73438V4.625C40 2.20875 38.0412 0.25 35.625 0.25H4.375C1.95875 0.25 0 2.20875 0 4.625V6.73438C0 6.95008 0.174922 7.125 0.390625 7.125H39.6094C39.8251 7.125 40 6.95008 40 6.73438Z" fill="#8F42E5"/>
<path d="M0 10.0156V23.375C0 25.7913 1.95875 27.75 4.375 27.75H35.625C38.0412 27.75 40 25.7913 40 23.375V10.0156C40 9.79992 39.8251 9.625 39.6094 9.625H0.390625C0.174922 9.625 0 9.79992 0 10.0156ZM10 20.25C10 20.9403 9.44031 21.5 8.75 21.5H7.5C6.80969 21.5 6.25 20.9403 6.25 20.25V19C6.25 18.3097 6.80969 17.75 7.5 17.75H8.75C9.44031 17.75 10 18.3097 10 19V20.25Z" fill="#8F42E5"/>
</svg>
