<svg width="25" height="18" viewBox="0 0 25 18" fill="none" xmlns="http://www.w3.org/2000/svg">
<path d="M25 4.30273V2.98438C25 1.47422 23.7758 0.25 22.2656 0.25H2.73438C1.22422 0.25 0 1.47422 0 2.98438V4.30273C0 4.43755 0.109326 4.54688 0.244141 4.54688H24.7559C24.8907 4.54688 25 4.43755 25 4.30273Z" fill="#8F42E5"/>
<path d="M0 6.35352V14.7031C0 16.2133 1.22422 17.4375 2.73438 17.4375H22.2656C23.7758 17.4375 25 16.2133 25 14.7031V6.35352C25 6.2187 24.8907 6.10938 24.7559 6.10938H0.244141C0.109326 6.10938 0 6.2187 0 6.35352ZM6.25 12.75C6.25 13.1814 5.9002 13.5312 5.46875 13.5312H4.6875C4.25605 13.5312 3.90625 13.1814 3.90625 12.75V11.9688C3.90625 11.5373 4.25605 11.1875 4.6875 11.1875H5.46875C5.9002 11.1875 6.25 11.5373 6.25 11.9688V12.75Z" fill="#8F42E5"/>
</svg>
