<svg width="40" height="40" viewBox="0 0 40 40" fill="none" xmlns="http://www.w3.org/2000/svg">
<path d="M25 8.125V0.234375C25 0.104922 24.8951 0 24.7656 0H8.125C6.39914 0 5 1.39914 5 3.125V36.875C5 38.6009 6.39914 40 8.125 40H31.875C33.6009 40 35 38.6009 35 36.875V10.2344C35 10.1049 34.8951 10 34.7656 10H26.875C25.8395 10 25 9.16055 25 8.125ZM24.375 33.75H10.625C10.2797 33.75 10 33.4703 10 33.125C10 32.7797 10.2797 32.5 10.625 32.5H24.375C24.7203 32.5 25 32.7797 25 33.125C25 33.4703 24.7203 33.75 24.375 33.75ZM29.375 28.75H10.625C10.2797 28.75 10 28.4703 10 28.125C10 27.7797 10.2797 27.5 10.625 27.5H29.375C29.7203 27.5 30 27.7797 30 28.125C30 28.4703 29.7203 28.75 29.375 28.75ZM29.375 23.75H10.625C10.2797 23.75 10 23.4703 10 23.125C10 22.7797 10.2797 22.5 10.625 22.5H29.375C29.7203 22.5 30 22.7797 30 23.125C30 23.4703 29.7203 23.75 29.375 23.75ZM29.375 18.75H10.625C10.2797 18.75 10 18.4703 10 18.125C10 17.7797 10.2797 17.5 10.625 17.5H29.375C29.7203 17.5 30 17.7797 30 18.125C30 18.4703 29.7203 18.75 29.375 18.75ZM30 13.125C30 13.4703 29.7203 13.75 29.375 13.75H10.625C10.2797 13.75 10 13.4703 10 13.125C10 12.7797 10.2797 12.5 10.625 12.5H29.375C29.7203 12.5 30 12.7797 30 13.125Z" fill="#8F42E5"/>
<path d="M26.25 0.883594V8.125C26.25 8.47016 26.5298 8.75 26.875 8.75H34.1164C34.6044 8.75 35 8.35437 35 7.86641V7.86602C35 7.63164 34.9069 7.40695 34.7412 7.24125L27.7588 0.258828C27.5931 0.093125 27.3684 0 27.134 0H27.1336C26.6456 0 26.25 0.395625 26.25 0.883594Z" fill="#8F42E5"/>
</svg>
