<svg width="66" height="66" viewBox="0 0 66 66" fill="none" xmlns="http://www.w3.org/2000/svg">
<g opacity="0.15" clip-path="url(#clip0_37_494)">
<path d="M51.3363 9.66605L32.6691 28.3333L14.0013 9.66563C12.7136 8.37785 10.6225 8.37785 9.33431 9.66606C8.04653 10.9538 8.04653 13.0449 9.33431 14.3327L28.002 33.0004L9.33431 51.6681C8.04653 52.9558 8.04653 55.0469 9.33431 56.3347C10.6225 57.6229 12.7136 57.6229 14.0013 56.3351L32.6691 37.6674L51.3363 56.3347C52.6245 57.6229 54.7156 57.6229 56.0034 56.3351C57.2916 55.0469 57.2916 52.9558 56.0034 51.6676L37.3361 33.0004L56.0034 14.3331C57.2916 13.0449 57.2916 10.9538 56.0034 9.66563C54.7156 8.37784 52.6245 8.37785 51.3363 9.66605Z" fill="#7800FF"/>
</g>
<defs>
<clipPath id="clip0_37_494">
<rect width="66" height="66" fill="white" transform="translate(0 66) rotate(-90)"/>
</clipPath>
</defs>
</svg>
