<svg width="19" height="19" viewBox="0 0 19 19" fill="none" xmlns="http://www.w3.org/2000/svg">
<path d="M5.34375 9.24023H4.15625C3.84884 9.24023 3.59961 9.48946 3.59961 9.79688C3.59961 10.1043 3.84884 10.3535 4.15625 10.3535H5.34375C5.65116 10.3535 5.90039 10.1043 5.90039 9.79688C5.90039 9.48946 5.65116 9.24023 5.34375 9.24023Z" fill="#8A8A8A"/>
<path d="M5.34375 11.6152H4.15625C3.84884 11.6152 3.59961 11.8645 3.59961 12.1719C3.59961 12.4793 3.84884 12.7285 4.15625 12.7285H5.34375C5.65116 12.7285 5.90039 12.4793 5.90039 12.1719C5.90039 11.8645 5.65116 11.6152 5.34375 11.6152Z" fill="#8A8A8A"/>
<path d="M5.34375 13.9902H4.15625C3.84884 13.9902 3.59961 14.2395 3.59961 14.5469C3.59961 14.8543 3.84884 15.1035 4.15625 15.1035H5.34375C5.65116 15.1035 5.90039 14.8543 5.90039 14.5469C5.90039 14.2395 5.65116 13.9902 5.34375 13.9902Z" fill="#8A8A8A"/>
<path d="M10.0938 9.24023H8.90625C8.59884 9.24023 8.34961 9.48946 8.34961 9.79688C8.34961 10.1043 8.59884 10.3535 8.90625 10.3535H10.0938C10.4012 10.3535 10.6504 10.1043 10.6504 9.79688C10.6504 9.48946 10.4012 9.24023 10.0938 9.24023Z" fill="#8A8A8A"/>
<path d="M10.0938 11.6152H8.90625C8.59884 11.6152 8.34961 11.8645 8.34961 12.1719C8.34961 12.4793 8.59884 12.7285 8.90625 12.7285H10.0938C10.4012 12.7285 10.6504 12.4793 10.6504 12.1719C10.6504 11.8645 10.4012 11.6152 10.0938 11.6152Z" fill="#8A8A8A"/>
<path d="M10.0938 13.9902H8.90625C8.59884 13.9902 8.34961 14.2395 8.34961 14.5469C8.34961 14.8543 8.59884 15.1035 8.90625 15.1035H10.0938C10.4012 15.1035 10.6504 14.8543 10.6504 14.5469C10.6504 14.2395 10.4012 13.9902 10.0938 13.9902Z" fill="#8A8A8A"/>
<path d="M14.8438 9.24023H13.6562C13.3488 9.24023 13.0996 9.48946 13.0996 9.79688C13.0996 10.1043 13.3488 10.3535 13.6562 10.3535H14.8438C15.1512 10.3535 15.4004 10.1043 15.4004 9.79688C15.4004 9.48946 15.1512 9.24023 14.8438 9.24023Z" fill="#8A8A8A"/>
<path d="M14.8438 11.6152H13.6562C13.3488 11.6152 13.0996 11.8645 13.0996 12.1719C13.0996 12.4793 13.3488 12.7285 13.6562 12.7285H14.8438C15.1512 12.7285 15.4004 12.4793 15.4004 12.1719C15.4004 11.8645 15.1512 11.6152 14.8438 11.6152Z" fill="#8A8A8A"/>
<path d="M14.8438 13.9902H13.6562C13.3488 13.9902 13.0996 14.2395 13.0996 14.5469C13.0996 14.8543 13.3488 15.1035 13.6562 15.1035H14.8438C15.1512 15.1035 15.4004 14.8543 15.4004 14.5469C15.4004 14.2395 15.1512 13.9902 14.8438 13.9902Z" fill="#8A8A8A"/>
<path d="M17.3301 2.41211H15.9941V1.48438C15.9941 1.17696 15.7449 0.927734 15.4375 0.927734C15.1301 0.927734 14.8809 1.17696 14.8809 1.48438V2.41211H10.0566V1.48438C10.0566 1.17696 9.80741 0.927734 9.5 0.927734C9.19259 0.927734 8.94336 1.17696 8.94336 1.48438V2.41211H4.11914V1.48438C4.11914 1.17696 3.86991 0.927734 3.5625 0.927734C3.25509 0.927734 3.00586 1.17696 3.00586 1.48438V2.41211H1.66992C0.749127 2.41211 0 3.16124 0 4.08203V16.4023C0 17.3231 0.749127 18.0723 1.66992 18.0723H17.3301C18.2509 18.0723 19 17.3231 19 16.4023C19 16.0431 19 4.39468 19 4.08203C19 3.16124 18.2509 2.41211 17.3301 2.41211ZM1.11328 4.08203C1.11328 3.7751 1.36299 3.52539 1.66992 3.52539H3.00586V4.45312C3.00586 4.76054 3.25509 5.00977 3.5625 5.00977C3.86991 5.00977 4.11914 4.76054 4.11914 4.45312V3.52539H8.94336V4.45312C8.94336 4.76054 9.19259 5.00977 9.5 5.00977C9.80741 5.00977 10.0566 4.76054 10.0566 4.45312V3.52539H14.8809V4.45312C14.8809 4.76054 15.1301 5.00977 15.4375 5.00977C15.7449 5.00977 15.9941 4.76054 15.9941 4.45312V3.52539H17.3301C17.637 3.52539 17.8867 3.7751 17.8867 4.08203V6.27148H1.11328V4.08203ZM17.3301 16.959H1.66992C1.36299 16.959 1.11328 16.7093 1.11328 16.4023V7.38477H17.8867V16.4023C17.8867 16.7093 17.637 16.959 17.3301 16.959Z" fill="#8A8A8A"/>
</svg>
