<?xml version="1.0" encoding="utf-8"?>
<!-- Generator: Adobe Illustrator 23.0.2, SVG Export Plug-In . SVG Version: 6.00 Build 0)  -->
<svg version="1.1" id="Слой_1" xmlns="http://www.w3.org/2000/svg" xmlns:xlink="http://www.w3.org/1999/xlink" x="0px" y="0px"
	 viewBox="0 0 393.9 158.3" style="enable-background:new 0 0 393.9 158.3;" xml:space="preserve">
<style type="text/css">
	.st0{fill-rule:evenodd;clip-rule:evenodd;fill:#D507D3;}
	.st1{fill-rule:evenodd;clip-rule:evenodd;fill:#6622CC;}
	.st2{fill-rule:evenodd;clip-rule:evenodd;fill:#081B1D;}
	.st3{fill-rule:evenodd;clip-rule:evenodd;fill:url(#Фигура_7_1_);}
	.st4{fill-rule:evenodd;clip-rule:evenodd;fill:url(#Фигура_8_1_);}
	.st5{fill-rule:evenodd;clip-rule:evenodd;fill:url(#Фигура_6_1_);}
	.st6{fill-rule:evenodd;clip-rule:evenodd;fill:#FADD2E;}
	.st7{fill-rule:evenodd;clip-rule:evenodd;fill:#781ECD;}
</style>
<g>
	<path id="Фигура_9" class="st0" d="M274.6,76.1c0,0-12.6,4.6-5.4,10.5c7.1,6,19.1-11.9,42.1,1.2
		C311.2,87.8,300.4,67.9,274.6,76.1z"/>
	<path id="Эллипс_37_копия" class="st1" d="M61.4,80.1c4.7-0.4,9.4,2.6,10.5,7.3c1.1,4.9-2.1,10-7.7,11.1
		c-6.2,1.2-11.6-3-11.9-8.5C51.9,84.8,56.1,80.5,61.4,80.1z"/>
	<path id="gasfort" class="st2" d="M0,31.2C0.1,51.7,15.6,62,30.9,62c11.1,0,22.5-4.8,26.9-17.4c2.1-5.9,2.1-11.6,1.7-17.6H31v13.3
		h12.8c-2.8,5.8-6.7,7.4-12.9,7.4c-9.1,0-15-6.5-15-16.5c0-9.2,5.3-16.8,15-16.8c6.1,0,10.1,2.1,12.6,7.2h15.1
		C55.7,6.6,43,0.3,30.9,0.3C15.6,0.3,0.1,10.6,0,31.2z M107.8,61.3h15.1V59L95.7,0.3h-6.6L62,59v2.2H77l3.5-7.6h23.8L107.8,61.3z
		 M99.3,40.5H85.6l6.8-15.8L99.3,40.5z M139.3,42.9h-14.9c-0.3,26.5,48.7,26.1,48.7,0.8c0-15.1-11.7-16.9-23.7-18.2
		c-5.4-0.6-9.9-1.5-9.6-6.1c0.5-7.1,16.7-7.8,16.7,0.2h14.6c0.3-26-46.5-26-46,0c0.2,13.1,8.8,17.6,21.9,18.5c6,0.3,11,1.3,11,5.5
		C158.2,50.6,139.3,50.5,139.3,42.9z M217.3,41.7V28H198V14.8h21.9V1h-37.5v60.2H198V41.7H217.3L217.3,41.7z M287.6,31.2
		c0-41.7-61.8-41.7-61.8,0C225.8,73,287.6,73,287.6,31.2L287.6,31.2z M241.7,31.2c0-21.7,30.2-21.7,30.2,0
		C271.9,53.1,241.7,53.1,241.7,31.2L241.7,31.2z M336.2,39.9C351.4,29.6,347.1,1.1,323.4,1H297v60.2h15.4V43.5h8l10.3,17.7H348V59
		L336.2,39.9z M323.4,29.9h-11V14.8c3.6,0,7.4-0.1,11,0C332.2,14.9,331.8,29.9,323.4,29.9L323.4,29.9z M364,14.8v46.5h15.2V14.8
		h14.7V1h-44.8v13.8L364,14.8L364,14.8z"/>
	
		<linearGradient id="Фигура_7_1_" gradientUnits="userSpaceOnUse" x1="192.7741" y1="76.5813" x2="212.8219" y2="14.8804" gradientTransform="matrix(1 0 0 -1 0 148.8912)">
		<stop  offset="0" style="stop-color:#F9C540"/>
		<stop  offset="0" style="stop-color:#F9C540"/>
		<stop  offset="1" style="stop-color:#FAE925"/>
		<stop  offset="1" style="stop-color:#FAE925"/>
	</linearGradient>
	<path id="Фигура_7" class="st3" d="M384.4,84.1c0,0-4.7,66.6-104.1,48.2c-124-22.9-106-43.9-180.3-18.4
		c-81.7,28-88.1-21.3-88.1-21.3s29,29.3,79.7,10.3c20.9-7.8,47.7-29.6,81.4-29.1c46.2,0.7,40.8,43.7,99,44.2
		c34.3,0.3,71.4-29,72.5-28.8C344.8,89.3,383.6,79,384.4,84.1z"/>
	
		<linearGradient id="Фигура_8_1_" gradientUnits="userSpaceOnUse" x1="170.2156" y1="67.9847" x2="127.5064" y2="2.2185" gradientTransform="matrix(1 0 0 -1 0 148.8912)">
		<stop  offset="0" style="stop-color:#811CCE"/>
		<stop  offset="0.682" style="stop-color:#F500D5"/>
		<stop  offset="1" style="stop-color:#F500D5"/>
	</linearGradient>
	<path id="Фигура_8" class="st4" d="M30.5,128.8c0,0,34.9,22.7,79.2,1.6c38.4-18.3,55.6-13.7,72.3-9.5
		c34.4,8.7,55.6,41,102.5,25.6c18.6-6.1,21.3-33.4,21.3-33.4s-43.7-35.5-89-7.8l-48.2-3.6l-39.6,7.4c0,0-76.9,29.6-113-15.9
		c-1.4-1.8-5.5-2-6.6-3.1c-3.4-3.3-4.8-6.4-5.1-4.9C2.2,96.2,9.6,115.8,30.5,128.8z"/>
	
		<linearGradient id="Фигура_6_1_" gradientUnits="userSpaceOnUse" x1="384.5278" y1="32.1922" x2="4.4634" y2="38.8263" gradientTransform="matrix(1 0 0 -1 0 148.8912)">
		<stop  offset="0" style="stop-color:#5409EA"/>
		<stop  offset="0.49" style="stop-color:#FD00F7"/>
		<stop  offset="1" style="stop-color:#FD00F7"/>
	</linearGradient>
	<path id="Фигура_6" class="st5" d="M18.3,109.3c0,0,27.4,24.9,72.7,11.8c43.7-12.6,58-18.4,89.1-13.5c37,5.7,51.5,42,82,42.4
		c26.5,0.4,37.1-10,58.8-35c13.6-15.6,27.7-29.5,58.2-30.4c10.6-0.3,4.8-2.9-8.7-3.6c-16.2-0.8-44.7,1.7-70.4,23
		c-45.1,37.5-72-33.6-174.9,0.4c-67.3,22.2-91.4,3.8-117.2-18c-6.6-5.6-1.9,4.8-1.9,4.8S11.9,103.7,18.3,109.3z"/>
	<path id="Эллипс_37" class="st6" d="M345.1,137.5c5.3-0.2,10,3.7,10.7,9c0.6,5.2-2.7,10.2-7.8,11.5
		c-5.5,1.5-11.1-1.8-12.6-7.3c-0.1-0.4-0.2-0.8-0.2-1.1c-0.9-5.7,3-11,8.7-11.9C344.3,137.5,344.7,137.5,345.1,137.5z"/>
	<path id="Фигура_10" class="st7" d="M130.2,133.7c0,0-11.8,11.3,1.1,14.6c13.9,3.6,21.6-20.6,62.5-1
		C193.8,147.4,158.2,111,130.2,133.7z"/>
</g>
</svg>
