<svg width="14" height="15" viewBox="0 0 14 15" fill="none" xmlns="http://www.w3.org/2000/svg">
<path d="M13.6329 10.2962L11.675 8.33835C10.9758 7.63912 9.7871 7.91884 9.50741 8.82781C9.29764 9.45715 8.5984 9.80676 7.96909 9.66689C6.57063 9.31727 4.6827 7.49927 4.33308 6.03088C4.12331 5.40154 4.54285 4.70231 5.17216 4.49257C6.08116 4.21288 6.36086 3.02418 5.66162 2.32495L3.70377 0.367097C3.14439 -0.122366 2.30531 -0.122366 1.81584 0.367097L0.4873 1.69564C-0.841242 3.0941 0.627147 6.80004 3.91354 10.0864C7.19994 13.3728 10.9059 14.9112 12.3043 13.5127L13.6329 12.1841C14.1224 11.6247 14.1224 10.7857 13.6329 10.2962Z" fill="#65BB56"/>
</svg>
