<svg width="13" height="13" viewBox="0 0 13 13" fill="none" xmlns="http://www.w3.org/2000/svg">
<path d="M10.8392 0.656901L6.31374 5.18232L1.78823 0.656798C1.47603 0.344607 0.969114 0.344607 0.65682 0.656901C0.344629 0.969091 0.344629 1.47601 0.65682 1.7882L5.18234 6.31372L0.65682 10.8392C0.344629 11.1514 0.344629 11.6584 0.65682 11.9705C0.969114 12.2828 1.47603 12.2828 1.78823 11.9706L6.31374 7.44513L10.8392 11.9705C11.1515 12.2828 11.6584 12.2828 11.9706 11.9706C12.2829 11.6584 12.2829 11.1514 11.9706 10.8391L7.44515 6.31372L11.9706 1.78831C12.2829 1.47601 12.2829 0.969091 11.9706 0.656797C11.6584 0.344607 11.1515 0.344607 10.8392 0.656901V0.656901Z" fill="#CB0B0B"/>
</svg>
