<svg id="Layer_1" data-name="Layer 1" xmlns="http://www.w3.org/2000/svg" width="90" height="90" viewBox="0 0 90 90"><defs><style>.cls-1,.cls-3{fill:#8f42e5;}.cls-1{opacity:0.1;}.cls-2{fill:#bfa2f9;}.cls-4{fill:#e6dcff;}</style></defs><circle class="cls-1" cx="45" cy="45" r="45"/><rect class="cls-2" x="23.45" y="18.84" width="43" height="53" rx="2.31"/><path class="cls-3" d="M38.16,39.75l6.84-.3,6.65.51a9.26,9.26,0,1,0-13.49-.21Z"/><rect class="cls-4" x="41.93" y="28.5" width="6.14" height="7.62" rx="3.07"/><path class="cls-4" d="M45,42.78a9.22,9.22,0,0,0,6.84-3,8.25,8.25,0,0,0-13.68,0A9.22,9.22,0,0,0,45,42.78Z"/><rect class="cls-3" x="32.45" y="47.84" width="25" height="5" rx="0.52"/><rect class="cls-3" x="32.45" y="56.84" width="25" height="5" rx="0.52"/><path class="cls-2" d="M76.15,32.11a4.09,4.09,0,0,0-5.59,1.5l-.63,1.08.38,7.54L77,38.78l.63-1.08A4.1,4.1,0,0,0,76.15,32.11Z"/><path class="cls-4" d="M56.88,57.31l0,.07a3.15,3.15,0,0,0-.41,1.43l-.28,7.41a.35.35,0,0,0,.53.31l6.23-4a3,3,0,0,0,1-1.06l0-.07L64.06,55Z"/><rect class="cls-3" x="53.89" y="43.96" width="26.12" height="8.18" transform="translate(-8.13 82.02) rotate(-60.01)"/></svg>