<svg width="103" height="103" viewBox="0 0 103 103" fill="none" xmlns="http://www.w3.org/2000/svg">
<g clip-path="url(#clip0_72_483)">
<path d="M67.7059 55.088C65.1017 53.8361 63.2581 52.8603 63.2581 51.7015C63.2581 50.5448 65.1017 49.5698 67.7059 48.3191C70.9547 46.7578 75 44.8143 75 40.4177C75 36.0202 70.9559 34.0759 67.7047 32.5137C66.1727 31.7771 64.829 31.0973 64.028 30.411L64.3703 30.0545C64.7352 29.6748 64.9355 29.1767 64.9355 28.6516C64.9355 27.5316 64.0222 26.6211 62.9001 26.6211C62.3731 26.6211 61.8735 26.8208 61.4926 27.1837L23.9845 62.9536C23.3592 63.5513 23 64.3883 23 65.2511C23 67.0047 24.4309 68.4314 26.1898 68.4314C27.0551 68.4314 27.8955 68.0733 28.4942 67.4498L60.5404 34.0457C61.9623 35.32 63.8367 36.224 65.5191 37.0328C68.1241 38.2847 69.9677 39.2605 69.9677 40.4177C69.9677 41.574 68.1241 42.549 65.5199 43.8C62.2711 45.3614 58.2258 47.3045 58.2258 51.7015C58.2258 56.1006 62.2711 58.0449 65.5211 59.6067C68.1241 60.8586 69.9677 61.8344 69.9677 62.9928C69.9677 64.1523 68.1241 65.1274 65.5158 66.3809C62.2674 67.9438 58.2258 69.8882 58.2258 74.2848V75.9572C58.2258 77.3401 59.3549 78.4658 60.7419 78.4658C62.129 78.4658 63.2581 77.3401 63.2581 75.9572V74.2848C63.2581 73.1248 65.1017 72.1498 67.71 70.8967C70.9584 69.3337 75 67.3894 75 62.9928C75 58.5941 70.9559 56.6502 67.7059 55.088ZM62.6516 28.3923C62.8621 28.1939 63.2581 28.3605 63.2581 28.6516C63.2581 28.7435 63.2228 28.8312 63.1581 28.8982L30.4603 62.9801L28.4676 60.9933L62.6516 28.3923ZM27.2816 66.2931C26.9982 66.5891 26.5997 66.7589 26.1898 66.7589C25.356 66.7589 24.6774 66.0824 24.6774 65.2511C24.6774 64.8424 24.8478 64.4451 25.1447 64.1617L27.2558 62.1488L29.3014 64.1883L27.2816 66.2931ZM66.9778 69.3921C64.2016 70.726 61.5806 71.9852 61.5806 74.2848V75.9572C61.5806 76.4186 61.2039 76.7934 60.7419 76.7934C60.28 76.7934 59.9032 76.4186 59.9032 75.9572V74.2848C59.9032 70.9383 63.1274 69.3872 66.248 67.8855C69.0242 66.5515 71.6452 65.2923 71.6452 62.9928C71.6452 60.6948 69.0242 59.4348 66.2488 58.1009C63.1291 56.6016 59.9032 55.0504 59.9032 51.7015C59.9032 48.3551 63.1291 46.8056 66.2488 45.3071C69.0242 43.9732 71.6452 42.714 71.6452 40.4177C71.6452 38.1205 69.0242 36.8605 66.248 35.5266C64.6107 34.739 62.9276 33.9277 61.6998 32.8375L62.8682 31.6191C63.8269 32.4627 65.2602 33.1944 66.977 34.02C70.0967 35.5201 73.3226 37.0704 73.3226 40.4177C73.3226 43.7641 70.0967 45.3136 66.977 46.8121C64.2016 48.146 61.5806 49.4052 61.5806 51.7015C61.5806 54.0003 64.2016 55.2603 66.9778 56.5942C70.0967 58.0943 73.3226 59.6447 73.3226 62.9928C73.3226 66.3392 70.0984 67.8912 66.9778 69.3921Z" fill="url(#paint0_linear_72_483)"/>
</g>
<circle cx="51.5" cy="51.5" r="51" stroke="url(#paint1_linear_72_483)" stroke-opacity="0.35"/>
<path d="M42.5571 0.7824C30.5277 2.90351 19.6438 9.23135 11.849 18.636C4.05411 28.0406 -0.144173 39.9097 0.00377782 52.1238C0.151729 64.3379 4.63628 76.1018 12.6566 85.3148C20.677 94.5279 31.711 100.59 43.7883 102.419L44.0196 100.892C32.3046 99.1175 21.6017 93.2371 13.8219 84.3004C6.04219 75.3637 1.69218 63.9528 1.54866 52.1051C1.40515 40.2574 5.47748 28.7444 13.0385 19.6219C20.5995 10.4994 31.1569 4.36141 42.8254 2.30393L42.5571 0.7824Z" fill="url(#paint2_linear_72_483)"/>
<defs>
<linearGradient id="paint0_linear_72_483" x1="23" y1="26.6211" x2="79.3454" y2="29.948" gradientUnits="userSpaceOnUse">
<stop stop-color="#7775E7"/>
<stop offset="0.6417" stop-color="#A93CF6"/>
<stop offset="1" stop-color="#C41DFF"/>
</linearGradient>
<linearGradient id="paint1_linear_72_483" x1="0" y1="0" x2="111.61" y2="6.57038" gradientUnits="userSpaceOnUse">
<stop stop-color="#7775E7"/>
<stop offset="0.6417" stop-color="#A93CF6"/>
<stop offset="1" stop-color="#C41DFF"/>
</linearGradient>
<linearGradient id="paint2_linear_72_483" x1="0" y1="0" x2="111.61" y2="6.57038" gradientUnits="userSpaceOnUse">
<stop stop-color="#7775E7"/>
<stop offset="0.6417" stop-color="#A93CF6"/>
<stop offset="1" stop-color="#C41DFF"/>
</linearGradient>
<clipPath id="clip0_72_483">
<rect width="52" height="51.8447" fill="white" transform="translate(23 26.6211)"/>
</clipPath>
</defs>
</svg>
