<svg width="63" height="57" viewBox="0 0 63 57" fill="none" xmlns="http://www.w3.org/2000/svg">
<rect x="28.2122" y="21" width="11" height="9" transform="rotate(15 28.2122 21)" fill="white"/>
<path d="M24.1741 30.7695L28.7345 13.7497C23.8856 13.0794 14.0706 11.7076 13.6014 11.5818C13.1322 11.4561 8.49591 17.3428 6.23639 20.3019L6.05306 39.7526L16.2096 48.7644L34.6321 48.0394L41.4532 36.6575L24.1741 30.7695Z" fill="white"/>
<path d="M38.4193 24.5221L42.7078 6.17129L54.6663 13.1497L56.5994 29.3934L38.4193 24.5221Z" fill="white"/>
<path d="M42.6107 36.0283C43.2668 36.2041 43.5949 36.292 43.8217 36.509C44.0089 36.6879 44.1526 36.9683 44.1885 37.2247C44.2322 37.5355 44.1228 37.8245 43.9041 38.4025C42.77 41.3991 40.9151 44.0823 38.4913 46.2079C35.5742 48.7662 31.9639 50.4019 28.1171 50.9084C24.2703 51.4148 20.3598 50.7692 16.8799 49.0531C13.4001 47.337 10.5072 44.6276 8.56723 41.2674C6.62724 37.9073 5.72722 34.0473 5.98098 30.1756C6.23475 26.3039 7.6309 22.5944 9.99288 19.5162C12.3549 16.438 15.5766 14.1294 19.2507 12.8822C22.3035 11.8459 25.5546 11.5812 28.7167 12.0973C29.3267 12.1969 29.6316 12.2466 29.879 12.4398C30.0831 12.5992 30.254 12.8638 30.3155 13.1154C30.3899 13.4203 30.302 13.7484 30.1262 14.4045L26.0643 29.5637C25.8865 30.227 25.7977 30.5587 25.8589 30.8466C25.9127 31.0999 26.0453 31.3296 26.2378 31.5028C26.4565 31.6998 26.7882 31.7887 27.4514 31.9664L42.6107 36.0283Z" stroke="white" stroke-width="10.98" stroke-linecap="round" stroke-linejoin="round"/>
<path d="M42.1394 7.46862C42.3152 6.8125 42.4031 6.48444 42.6201 6.25758C42.799 6.07044 43.0794 5.92676 43.3358 5.89076C43.6466 5.84713 43.9356 5.9565 44.5136 6.17523C48.7281 7.77008 52.2861 10.7772 54.5591 14.714C56.832 18.6509 57.6572 23.2358 56.9312 27.683C56.8316 28.293 56.7818 28.5979 56.5886 28.8453C56.4292 29.0494 56.1646 29.2203 55.9131 29.2817C55.6082 29.3562 55.2801 29.2683 54.624 29.0925L39.4647 25.0305C38.8014 24.8528 38.4698 24.764 38.251 24.567C38.0586 24.3937 37.926 24.164 37.8721 23.9107C37.8109 23.6228 37.8998 23.2912 38.0775 22.6279L42.1394 7.46862Z" stroke="white" stroke-width="10.98" stroke-linecap="round" stroke-linejoin="round"/>
<path d="M42.6107 36.0283C43.2668 36.2041 43.5949 36.292 43.8217 36.509C44.0089 36.6879 44.1526 36.9683 44.1885 37.2247C44.2322 37.5355 44.1228 37.8245 43.9041 38.4025C42.77 41.3991 40.9151 44.0823 38.4913 46.2079C35.5742 48.7662 31.9639 50.4019 28.1171 50.9084C24.2703 51.4148 20.3598 50.7692 16.8799 49.0531C13.4001 47.337 10.5072 44.6276 8.56723 41.2674C6.62724 37.9073 5.72722 34.0473 5.98098 30.1756C6.23475 26.3039 7.6309 22.5944 9.99288 19.5162C12.3549 16.438 15.5766 14.1294 19.2507 12.8822C22.3035 11.8459 25.5546 11.5812 28.7167 12.0973C29.3267 12.1969 29.6316 12.2466 29.879 12.4398C30.0831 12.5992 30.254 12.8638 30.3155 13.1154C30.3899 13.4203 30.302 13.7484 30.1262 14.4045L26.0643 29.5637C25.8865 30.227 25.7977 30.5587 25.8589 30.8466C25.9127 31.0999 26.0453 31.3296 26.2378 31.5028C26.4565 31.6998 26.7882 31.7887 27.4514 31.9664L42.6107 36.0283Z" stroke="#1D202C" stroke-width="3.66" stroke-linecap="round" stroke-linejoin="round"/>
<path d="M42.1394 7.46862C42.3152 6.8125 42.4031 6.48444 42.6201 6.25758C42.799 6.07044 43.0794 5.92676 43.3358 5.89076C43.6466 5.84713 43.9356 5.9565 44.5136 6.17523C48.7281 7.77008 52.2861 10.7772 54.5591 14.714C56.832 18.6509 57.6572 23.2358 56.9312 27.683C56.8316 28.293 56.7818 28.5979 56.5886 28.8453C56.4292 29.0494 56.1646 29.2203 55.9131 29.2817C55.6082 29.3562 55.2801 29.2683 54.624 29.0925L39.4647 25.0305C38.8014 24.8528 38.4698 24.764 38.251 24.567C38.0586 24.3937 37.926 24.164 37.8721 23.9107C37.8109 23.6228 37.8998 23.2912 38.0775 22.6279L42.1394 7.46862Z" stroke="#1D202C" stroke-width="3.66" stroke-linecap="round" stroke-linejoin="round"/>
</svg>
