<svg width="821" height="712" viewBox="0 0 821 712" fill="none" xmlns="http://www.w3.org/2000/svg">
<g opacity="0.3">
<g opacity="0.3">
<path d="M729.412 132.692V185.253L683.894 211.534L638.375 185.253V132.692L683.894 106.411L729.412 132.692Z" stroke="#EBEBEB" stroke-miterlimit="10"/>
<path d="M683.894 211.213V263.767L638.375 290.048L592.857 263.767V211.213L638.375 184.932L683.894 211.213Z" stroke="#EBEBEB" stroke-miterlimit="10"/>
<path d="M592.857 263.76V316.322L547.338 342.602L501.82 316.322V263.76L547.338 237.48L592.857 263.76Z" stroke="#EBEBEB" stroke-miterlimit="10"/>
<path d="M592.857 158.651V211.213L547.338 237.487L501.82 211.213V158.651L547.338 132.371L592.857 158.651Z" stroke="#EBEBEB" stroke-miterlimit="10"/>
<path d="M547.338 237.815V290.369L501.82 316.65L456.309 290.369V237.815L501.82 211.534L547.338 237.815Z" stroke="#EBEBEB" stroke-miterlimit="10"/>
<path d="M501.82 263.76V316.322L456.309 342.602L410.791 316.322V263.76L456.309 237.48L501.82 263.76Z" stroke="#EBEBEB" stroke-miterlimit="10"/>
<path d="M547.338 185.253V237.814L501.82 264.088L456.309 237.814V185.253L501.82 158.972L547.338 185.253Z" stroke="#EBEBEB" stroke-miterlimit="10"/>
<path d="M729.412 342.288V394.85L683.894 421.124L638.375 394.85V342.288L683.894 316.008L729.412 342.288Z" stroke="#EBEBEB" stroke-miterlimit="10"/>
<path d="M683.894 316.322V368.883L638.375 395.164L592.857 368.883V316.322L638.375 290.041L683.894 316.322Z" stroke="#EBEBEB" stroke-miterlimit="10"/>
<path d="M638.375 342.931V395.492L592.857 421.773L547.338 395.492V342.931L592.857 316.65L638.375 342.931Z" stroke="#EBEBEB" stroke-miterlimit="10"/>
<path d="M638.375 237.815V290.369L592.857 316.65L547.338 290.369V237.815L592.857 211.534L638.375 237.815Z" stroke="#EBEBEB" stroke-miterlimit="10"/>
<path d="M501.82 158.651V211.213L456.309 237.487L410.791 211.213V158.651L456.309 132.371L501.82 158.651Z" stroke="#EBEBEB" stroke-miterlimit="10"/>
<path d="M456.309 132.692V185.253L410.791 211.534L365.272 185.253V132.692L410.791 106.411L456.309 132.692Z" stroke="#EBEBEB" stroke-miterlimit="10"/>
<path d="M683.894 106.09V158.651L638.375 184.932L592.857 158.651V106.09L638.375 79.8094L683.894 106.09Z" stroke="#EBEBEB" stroke-miterlimit="10"/>
<path d="M592.857 106.09V158.651L547.338 184.932L501.82 158.651V106.09L547.338 79.8094L592.857 106.09Z" stroke="#EBEBEB" stroke-miterlimit="10"/>
<path d="M774.93 53.5284V106.09L729.412 132.371L683.894 106.09V53.5284L729.412 27.2547L774.93 53.5284Z" stroke="#EBEBEB" stroke-miterlimit="10"/>
<path d="M729.412 27.576V80.1304L683.894 106.411L638.375 80.1304V27.576L683.894 1.29532L729.412 27.576Z" stroke="#EBEBEB" stroke-miterlimit="10"/>
<path d="M774.93 158.651V211.213L729.412 237.487L683.894 211.213V158.651L729.412 132.371L774.93 158.651Z" stroke="#EBEBEB" stroke-miterlimit="10"/>
<path d="M820.448 237.815V290.369L774.93 316.65L729.412 290.369V237.815L774.93 211.534L820.448 237.815Z" stroke="#EBEBEB" stroke-miterlimit="10"/>
<path d="M410.791 106.09V158.651L365.272 184.932L319.754 158.651V106.09L365.272 79.8094L410.791 106.09Z" stroke="#EBEBEB" stroke-miterlimit="10"/>
<path d="M774.93 211.213V263.767L729.412 290.048L683.894 263.767V211.213L729.412 184.932L774.93 211.213Z" stroke="#EBEBEB" stroke-miterlimit="10"/>
<path d="M683.894 53.5284V106.09L638.375 132.371L592.857 106.09V53.5284L638.375 27.2547L683.894 53.5284Z" stroke="#EBEBEB" stroke-miterlimit="10"/>
</g>
<g opacity="0.3">
<path d="M410.665 421.92V474.481L365.147 500.762L319.628 474.481V421.92L365.147 395.639L410.665 421.92Z" stroke="#EBEBEB" stroke-miterlimit="10"/>
<path d="M365.146 500.44V552.995L319.628 579.276L274.11 552.995V500.44L319.628 474.16L365.146 500.44Z" stroke="#EBEBEB" stroke-miterlimit="10"/>
<path d="M274.11 552.988V605.549L228.592 631.83L183.073 605.549V552.988L228.592 526.707L274.11 552.988Z" stroke="#EBEBEB" stroke-miterlimit="10"/>
<path d="M274.11 447.879V500.44L228.592 526.721L183.073 500.44V447.879L228.592 421.598L274.11 447.879Z" stroke="#EBEBEB" stroke-miterlimit="10"/>
<path d="M228.592 527.042V579.596L183.073 605.877L137.555 579.596V527.042L183.073 500.761L228.592 527.042Z" stroke="#EBEBEB" stroke-miterlimit="10"/>
<path d="M183.073 552.988V605.549L137.555 631.83L92.0366 605.549V552.988L137.555 526.707L183.073 552.988Z" stroke="#EBEBEB" stroke-miterlimit="10"/>
<path d="M228.592 474.481V527.042L183.073 553.316L137.555 527.042V474.481L183.073 448.2L228.592 474.481Z" stroke="#EBEBEB" stroke-miterlimit="10"/>
<path d="M410.665 631.516V684.077L365.147 710.351L319.628 684.077V631.516L365.147 605.235L410.665 631.516Z" stroke="#EBEBEB" stroke-miterlimit="10"/>
<path d="M365.146 605.549V658.111L319.628 684.391L274.11 658.111V605.549L319.628 579.269L365.146 605.549Z" stroke="#EBEBEB" stroke-miterlimit="10"/>
<path d="M319.628 632.158V684.719L274.11 711L228.592 684.719V632.158L274.11 605.877L319.628 632.158Z" stroke="#EBEBEB" stroke-miterlimit="10"/>
<path d="M319.628 527.042V579.596L274.11 605.877L228.592 579.596V527.042L274.11 500.761L319.628 527.042Z" stroke="#EBEBEB" stroke-miterlimit="10"/>
<path d="M183.073 447.879V500.44L137.555 526.721L92.0366 500.44V447.879L137.555 421.598L183.073 447.879Z" stroke="#EBEBEB" stroke-miterlimit="10"/>
<path d="M137.555 421.92V474.481L92.0368 500.762L46.5186 474.481V421.92L92.0368 395.639L137.555 421.92Z" stroke="#EBEBEB" stroke-miterlimit="10"/>
<path d="M365.146 395.318V447.879L319.628 474.16L274.11 447.879V395.318L319.628 369.037L365.146 395.318Z" stroke="#EBEBEB" stroke-miterlimit="10"/>
<path d="M274.11 395.318V447.879L228.592 474.16L183.073 447.879V395.318L228.592 369.037L274.11 395.318Z" stroke="#EBEBEB" stroke-miterlimit="10"/>
<path d="M456.183 342.756V395.318L410.665 421.598L365.147 395.318V342.756L410.665 316.482L456.183 342.756Z" stroke="#EBEBEB" stroke-miterlimit="10"/>
<path d="M410.665 316.804V369.358L365.147 395.639L319.628 369.358V316.804L365.147 290.523L410.665 316.804Z" stroke="#EBEBEB" stroke-miterlimit="10"/>
<path d="M456.183 447.879V500.44L410.665 526.721L365.147 500.44V447.879L410.665 421.598L456.183 447.879Z" stroke="#EBEBEB" stroke-miterlimit="10"/>
<path d="M501.701 527.042V579.596L456.183 605.877L410.665 579.596V527.042L456.183 500.761L501.701 527.042Z" stroke="#EBEBEB" stroke-miterlimit="10"/>
<path d="M92.0366 395.318V447.879L46.5183 474.16L1.00005 447.879V395.318L46.5183 369.037L92.0366 395.318Z" stroke="#EBEBEB" stroke-miterlimit="10"/>
<path d="M456.183 500.44V552.995L410.665 579.276L365.147 552.995V500.44L410.665 474.16L456.183 500.44Z" stroke="#EBEBEB" stroke-miterlimit="10"/>
<path d="M365.146 342.756V395.318L319.628 421.598L274.11 395.318V342.756L319.628 316.482L365.146 342.756Z" stroke="#EBEBEB" stroke-miterlimit="10"/>
</g>
<path d="M638.375 132.692V185.253L592.857 211.534L547.339 185.253V132.692L592.857 106.411L638.375 132.692Z" stroke="#EBEBEB" stroke-miterlimit="10"/>
<path d="M592.857 211.213V263.767L547.339 290.048L501.821 263.767V211.213L547.339 184.932L592.857 211.213Z" stroke="#EBEBEB" stroke-miterlimit="10"/>
<path d="M501.82 263.76V316.322L456.309 342.602L410.791 316.322V263.76L456.309 237.48L501.82 263.76Z" stroke="#EBEBEB" stroke-miterlimit="10"/>
<path d="M501.82 158.651V211.213L456.309 237.487L410.791 211.213V158.651L456.309 132.371L501.82 158.651Z" stroke="#EBEBEB" stroke-miterlimit="10"/>
<path d="M456.31 237.815V290.369L410.791 316.65L365.273 290.369V237.815L410.791 211.534L456.31 237.815Z" stroke="#EBEBEB" stroke-miterlimit="10"/>
<path d="M410.791 263.76V316.322L365.272 342.602L319.754 316.322V263.76L365.272 237.48L410.791 263.76Z" stroke="#EBEBEB" stroke-miterlimit="10"/>
<path d="M456.31 185.253V237.814L410.791 264.088L365.273 237.814V185.253L410.791 158.972L456.31 185.253Z" stroke="#EBEBEB" stroke-miterlimit="10"/>
<path d="M638.375 342.288V394.85L592.857 421.124L547.339 394.85V342.288L592.857 316.008L638.375 342.288Z" stroke="#EBEBEB" stroke-miterlimit="10"/>
<path d="M592.857 316.322V368.883L547.339 395.164L501.821 368.883V316.322L547.339 290.041L592.857 316.322Z" stroke="#EBEBEB" stroke-miterlimit="10"/>
<path d="M547.339 342.931V395.492L501.82 421.773L456.309 395.492V342.931L501.82 316.65L547.339 342.931Z" stroke="#EBEBEB" stroke-miterlimit="10"/>
<path d="M547.339 237.815V290.369L501.82 316.65L456.309 290.369V237.815L501.82 211.534L547.339 237.815Z" stroke="#EBEBEB" stroke-miterlimit="10"/>
<path d="M410.791 158.651V211.213L365.272 237.487L319.754 211.213V158.651L365.272 132.371L410.791 158.651Z" stroke="#EBEBEB" stroke-miterlimit="10"/>
<path d="M365.273 132.692V185.253L319.754 211.534L274.236 185.253V132.692L319.754 106.411L365.273 132.692Z" stroke="#EBEBEB" stroke-miterlimit="10"/>
<path d="M592.857 106.09V158.651L547.339 184.932L501.821 158.651V106.09L547.339 79.8094L592.857 106.09Z" stroke="#EBEBEB" stroke-miterlimit="10"/>
<path d="M501.82 106.09V158.651L456.309 184.932L410.791 158.651V106.09L456.309 79.8094L501.82 106.09Z" stroke="#EBEBEB" stroke-miterlimit="10"/>
<path d="M683.894 53.5284V106.09L638.376 132.371L592.857 106.09V53.5284L638.376 27.2547L683.894 53.5284Z" stroke="#EBEBEB" stroke-miterlimit="10"/>
<path d="M638.375 27.576V80.1304L592.857 106.411L547.339 80.1304V27.576L592.857 1.29532L638.375 27.576Z" stroke="#EBEBEB" stroke-miterlimit="10"/>
<path d="M683.894 158.651V211.213L638.376 237.487L592.857 211.213V158.651L638.376 132.371L683.894 158.651Z" stroke="#EBEBEB" stroke-miterlimit="10"/>
<path d="M729.412 237.815V290.369L683.894 316.65L638.375 290.369V237.815L683.894 211.534L729.412 237.815Z" stroke="#EBEBEB" stroke-miterlimit="10"/>
<path d="M319.754 106.09V158.651L274.236 184.932L228.718 158.651V106.09L274.236 79.8094L319.754 106.09Z" stroke="#EBEBEB" stroke-miterlimit="10"/>
<path d="M683.894 211.213V263.767L638.376 290.048L592.857 263.767V211.213L638.376 184.932L683.894 211.213Z" stroke="#EBEBEB" stroke-miterlimit="10"/>
<path d="M592.857 53.5284V106.09L547.339 132.371L501.821 106.09V53.5284L547.339 27.2547L592.857 53.5284Z" stroke="#EBEBEB" stroke-miterlimit="10"/>
</g>
</svg>
