<svg id="Layer_1" data-name="Layer 1" xmlns="http://www.w3.org/2000/svg" width="163.57" height="50.42" viewBox="0 0 163.57 50.42"><defs><style>.cls-1{fill:#fff;}.cls-2{fill:#0f4f7b;}</style></defs><path class="cls-1" d="M155.41,43.05s2.94,0,5.28-.21a3.06,3.06,0,0,0,2.85-3c.12-7.25-.11-17-.91-17.86-.74-3.29-2-8.23-2-8.23L159.19,8.8a4.25,4.25,0,0,0-1.77-2.37,8.63,8.63,0,0,0-4-1.32C151,3,142.19.94,137.31.05a3.17,3.17,0,0,0-3.67,2.54c-.9,5-1.47,15.72-2.46,26.59a1.62,1.62,0,0,0,1.26,1.73c2.62.59,3.84,1,3.84,1l-1,2.5H91.16a2.44,2.44,0,0,0-2.31,3.21l.44,1.3A6,6,0,0,0,95,43.05h60.39Z"/><path class="cls-2" d="M156,12.13c.45,1.54,1.17,4.17,1.78,7.17a2,2,0,0,1-2.31,2.39A49.64,49.64,0,0,1,145.36,19c0-.12.36-4,.57-6.45a2,2,0,0,1,2-1.84h6.15A2,2,0,0,1,156,12.13Z"/><circle class="cls-2" cx="103.39" cy="44.15" r="6.26"/><circle class="cls-1" cx="103.39" cy="44.15" r="2.29"/><circle class="cls-2" cx="118.29" cy="44.15" r="6.26"/><circle class="cls-1" cx="118.29" cy="44.15" r="2.29"/><circle class="cls-2" cx="142.73" cy="44.15" r="6.26"/><circle class="cls-1" cx="142.73" cy="44.15" r="2.29"/><path class="cls-1" d="M4.25,28.49c4.62.37,110.37.62,110.37.62l7-.62s2.93-.16,2.93-5.71h0V3.26A3.26,3.26,0,0,0,121.29,0H3.26A3.26,3.26,0,0,0,0,3.26V23.88A4.45,4.45,0,0,0,4.25,28.49Z"/><path class="cls-2" d="M121.29,26H3.26A3.26,3.26,0,0,1,0,22.78v5.47a3.26,3.26,0,0,0,3.26,3.26h118a3.26,3.26,0,0,0,3.26-3.26V22.78A3.26,3.26,0,0,1,121.29,26Z"/><path class="cls-1" d="M3.37,34.42a3.73,3.73,0,0,1-.68-.07l.64,4.58a6,6,0,0,0,5.73,4.12H76.53a3.09,3.09,0,0,0,2.31-1l6.65-7.59Z"/><circle class="cls-2" cx="17.43" cy="44.15" r="6.26"/><circle class="cls-1" cx="17.43" cy="44.15" r="2.29"/><circle class="cls-2" cx="32.61" cy="44.15" r="6.26"/><circle class="cls-1" cx="32.61" cy="44.15" r="2.29"/><circle class="cls-2" cx="47.79" cy="44.15" r="6.26"/><circle class="cls-1" cx="47.79" cy="44.15" r="2.29"/></svg>