<svg id="Layer_1" data-name="Layer 1" xmlns="http://www.w3.org/2000/svg" width="111.35" height="88.82" viewBox="0 0 111.35 88.82"><defs><style>.cls-1{fill:#3eacce;}.cls-2{fill:#0f4f7b;}.cls-3{fill:#fff;}</style></defs><path class="cls-1" d="M70.85,59.23C68.77,55.77,59.77,53,53,51.79s-6.58-13.67-6.58-13.67l-2.77-3.29-5.79,5.26-5.79-5.26-2.77,3.29s.18,12.46-6.57,13.67S7,55.77,4.92,59.23-1.83,76.71.77,80s21.11,6.27,36.61,6.4h1C53.88,86.27,72.46,83.22,75,80S72.92,62.69,70.85,59.23Z"/><path class="cls-2" d="M47.8,46.47a26.79,26.79,0,0,1-1.36-8.35L43.7,34.86h-.08l-5.74,5.22-5.74-5.22h-.08l-2.74,3.26A27,27,0,0,1,28,46.47c1.94,2.65,5.78,7.05,9.91,7.05S45.86,49.12,47.8,46.47Z"/><path class="cls-1" d="M54.15,21.88s1-7-1.61-10.57S42,5.42,42,5.42H33.73s-7.85,2.31-10.5,5.89-1.62,10.57-1.62,10.57-3.92-.69-3,4.5,1.85,7.16,4.27,6.81C27,47.5,34.54,48.42,37.88,48.42s10.85-.92,15-15.23c2.43.35,3.35-1.61,4.27-6.81S54.15,21.88,54.15,21.88Z"/><path class="cls-2" d="M52.77,6.35C48.73,1.27,43.07,0,37.88,0S27,1.27,23,6.35s-2.08,16.11-2.08,16.11L23,23.85c0-1.4.81-12.54,5.19-11.16s11.31.81,16.15-1.84c7.62-1.39,8.43,10.44,8.43,13l2.07-1.39S56.81,11.42,52.77,6.35Z"/><path class="cls-2" d="M83.2,30.63a29.1,29.1,0,1,0,28.13,28.13A29.11,29.11,0,0,0,83.2,30.63ZM60.49,59.71A21.74,21.74,0,0,1,75.86,38.92a2.62,2.62,0,0,1,3.4,2.5v11A7.86,7.86,0,0,0,75,62.74l-7.8,7.8A2.62,2.62,0,0,1,63,69.93,21.7,21.7,0,0,1,60.49,59.71ZM71.42,74.76,79.22,67a7.81,7.81,0,0,0,6,0l7.8,7.81a2.61,2.61,0,0,1-.62,4.16,21.72,21.72,0,0,1-20.42,0A2.61,2.61,0,0,1,71.42,74.76Zm25.87-4.22-7.81-7.8a7.83,7.83,0,0,0-4.26-10.28v-11a2.62,2.62,0,0,1,3.4-2.5,21.74,21.74,0,0,1,12.83,31A2.61,2.61,0,0,1,97.29,70.54Z"/><path class="cls-3" d="M25.26,61.64l1.22,2.48a1.84,1.84,0,0,0,1.39,1l2.74.4a1.84,1.84,0,0,1,1,3.13l-2,1.93a1.85,1.85,0,0,0-.53,1.63L29.58,75a1.83,1.83,0,0,1-2.66,1.93l-2.45-1.29a1.85,1.85,0,0,0-1.71,0L20.3,76.88A1.83,1.83,0,0,1,17.64,75l.47-2.73a1.85,1.85,0,0,0-.53-1.63l-2-1.93a1.83,1.83,0,0,1,1-3.13l2.75-.4a1.85,1.85,0,0,0,1.38-1L22,61.64A1.83,1.83,0,0,1,25.26,61.64Z"/></svg>