<svg width="90" height="90" viewBox="0 0 90 90" fill="none" xmlns="http://www.w3.org/2000/svg">
<g clip-path="url(#clip0_86_512)">
<path d="M85.3082 77.4092H61.4354C70.3691 73.2383 77.2859 65.8774 80.9541 57.0462C81.2334 56.3738 80.9147 55.6023 80.2424 55.323C79.5698 55.0439 78.7985 55.3624 78.5192 56.0348C77.5867 58.28 76.4353 60.4033 75.0987 62.3854C62.064 73.0811 27.9234 73.0919 14.8867 62.3743C11.4302 57.2629 9.3774 51.4504 8.85393 45.2949C22.0862 58.6919 67.9264 58.6699 81.1419 45.2982C80.9935 47.0116 80.7254 48.7096 80.3389 50.3739C80.174 51.0832 80.6154 51.7916 81.3247 51.9563C81.425 51.9797 81.5254 51.9907 81.6242 51.9907C82.2234 51.9907 82.7657 51.5794 82.9071 50.9705C83.5766 48.0889 83.916 45.1143 83.916 42.1294C83.916 32.0468 80.0819 22.1756 72.5177 14.6112C60.7822 2.87569 43.569 0.274306 29.4309 6.45231C24.6799 8.52847 20.4476 11.4902 16.8514 15.2558C16.3485 15.7823 16.3679 16.6169 16.8943 17.1198C17.4208 17.6225 18.2552 17.6033 18.7583 17.0769C19.5587 16.2388 20.3938 15.4448 21.2602 14.6931C32.5821 21.6477 57.3861 21.6525 68.7234 14.7028C71.9452 17.4933 74.6701 20.8418 76.7508 24.5947C75.6093 27.2203 72.0116 29.7718 66.7496 31.6602C54.3665 36.104 35.6063 36.0945 23.2495 31.6602C17.9749 29.7674 14.3729 27.2082 13.2405 24.5759C13.792 23.581 14.3921 22.6087 15.0404 21.6618C15.4517 21.061 15.2981 20.2406 14.6971 19.8293C14.0963 19.4181 13.2757 19.5717 12.8646 20.1726C8.35207 26.7644 6.08309 34.3915 6.08309 42.1298C6.08309 51.1132 9.22359 59.7258 14.6259 66.4605C18.383 71.1444 23.1884 74.8915 28.5754 77.4096H4.69178C2.1048 77.4092 0 79.5139 0 82.101C0 84.688 2.1048 86.7928 4.69178 86.7928H85.3082C87.8952 86.7928 90 84.688 90 82.101C90 79.5139 87.8952 77.4092 85.3082 77.4092ZM23.4661 12.9237C25.6393 11.3178 27.986 9.96108 30.4868 8.86843C42.1497 3.77218 55.9264 5.11374 66.5123 12.9349C55.8803 18.7125 34.0989 18.718 23.4661 12.9237ZM78.1487 27.393C79.9545 31.4391 81.0397 35.8737 81.2424 40.534C79.7256 44.6023 73.7817 47.4561 69.6943 48.923C55.6323 53.9693 34.3412 53.96 20.305 48.923C16.2058 47.4519 10.269 44.5967 8.75566 40.5308C8.95395 35.9567 10.002 31.5112 11.8422 27.3815C21.8422 41.0055 68.1071 41.0352 78.1487 27.393ZM20.0405 68.4511C34.1285 74.5967 55.9092 74.5835 69.9664 68.4477C65.4015 72.7772 59.7335 75.9116 53.4809 77.409H36.5152C30.3513 75.9318 24.6463 72.8104 20.0405 68.4511ZM85.3082 84.1561H4.69178C3.55852 84.1561 2.63672 83.2341 2.63672 82.101C2.63672 80.9679 3.55869 80.0459 4.69178 80.0459H85.3082C86.4413 80.0459 87.3633 80.9679 87.3633 82.101C87.3633 83.2341 86.4413 84.1561 85.3082 84.1561Z" fill="url(#paint0_linear_86_512)"/>
</g>
<defs>
<linearGradient id="paint0_linear_86_512" x1="0" y1="3.20703" x2="97.4693" y2="9.38531" gradientUnits="userSpaceOnUse">
<stop stop-color="#7775E7"/>
<stop offset="0.6417" stop-color="#A93CF6"/>
<stop offset="1" stop-color="#C41DFF"/>
</linearGradient>
<clipPath id="clip0_86_512">
<rect width="90" height="90" fill="white"/>
</clipPath>
</defs>
</svg>
