<svg width="98" height="62" viewBox="0 0 98 62" fill="none" xmlns="http://www.w3.org/2000/svg">
<path d="M67.8679 58.9804C67.7259 58.8519 67.567 58.7435 67.3954 58.6583C67.2977 58.6013 67.2057 58.5351 67.1205 58.4607C67.0666 58.4081 67.0296 58.3405 67.0143 58.2667C66.999 58.1929 67.0061 58.1162 67.0348 58.0465C67.0634 57.9768 67.1122 57.9172 67.1749 57.8754C67.2377 57.8336 67.3115 57.8116 67.3868 57.8121C67.4343 57.8093 67.4819 57.8167 67.5263 57.8337C67.5708 57.8507 67.6111 57.877 67.6446 57.9109C67.7169 57.9937 67.7606 58.0976 67.7691 58.2072L67.971 58.1256C67.9704 58.0566 67.956 57.9884 67.9287 57.9249C67.9014 57.8615 67.8618 57.8042 67.8121 57.7562C67.6973 57.6439 67.5431 57.5811 67.3825 57.5811C67.222 57.5811 67.0678 57.6439 66.953 57.7562C66.8397 57.8705 66.7761 58.0249 66.7761 58.1858C66.7761 58.3467 66.8397 58.5011 66.953 58.6153C67.0833 58.7257 67.2277 58.8181 67.3825 58.8902C67.5004 58.963 67.6124 59.0449 67.7176 59.1351C67.7671 59.1829 67.8063 59.2403 67.8329 59.3038C67.8595 59.3673 67.8729 59.4356 67.8722 59.5045C67.8722 59.6442 67.8173 59.7784 67.7193 59.8781C67.6212 59.9777 67.4879 60.0348 67.3482 60.0371C67.2788 60.0371 67.2101 60.0235 67.1459 59.9969C67.0818 59.9704 67.0236 59.9315 66.9745 59.8825C66.8757 59.7797 66.8203 59.6427 66.8198 59.5002L66.5879 59.556C66.5898 59.6485 66.6105 59.7397 66.649 59.8239C66.6874 59.9081 66.7426 59.9836 66.8112 60.0457C66.8815 60.1159 66.9648 60.1717 67.0566 60.2097C67.1483 60.2477 67.2467 60.2673 67.346 60.2673C67.4454 60.2673 67.5437 60.2477 67.6355 60.2097C67.7272 60.1717 67.8106 60.1159 67.8808 60.0457C68.0187 59.9018 68.0946 59.7096 68.0921 59.5104C68.0897 59.3112 68.0092 59.1209 67.8679 58.9804Z" fill="white"/>
<path d="M38.6848 56.0513C38.1875 56.0512 37.7056 56.2236 37.3213 56.5392C36.937 56.8548 36.6741 57.294 36.5775 57.7818C36.4809 58.2696 36.5566 58.7758 36.7917 59.2141C37.0267 59.6523 37.4065 59.9954 37.8663 60.1848C38.3261 60.3742 38.8374 60.3982 39.3129 60.2526C39.7884 60.1071 40.1987 59.8011 40.4737 59.3868C40.7487 58.9725 40.8714 58.4755 40.8209 57.9808C40.7704 57.4861 40.5498 57.0243 40.1968 56.6741C40.0013 56.4716 39.7661 56.3118 39.5059 56.2046C39.2457 56.0974 38.9661 56.0452 38.6848 56.0513ZM40.0249 59.5262C39.8027 59.7412 39.5312 59.8984 39.2342 59.9842C38.9371 60.0701 38.6236 60.0819 38.321 60.0187C38.0183 59.9555 37.7357 59.8192 37.4979 59.6217C37.2601 59.4241 37.0742 59.1714 36.9565 58.8855C36.8388 58.5996 36.7929 58.2892 36.8228 57.9815C36.8526 57.6737 36.9574 57.378 37.1278 57.12C37.2983 56.8621 37.5293 56.6498 37.8007 56.5017C38.0721 56.3536 38.3756 56.2741 38.6848 56.2703C38.9352 56.2659 39.1839 56.3133 39.4152 56.4093C39.6466 56.5054 39.8556 56.6482 40.0292 56.8287C40.2077 57.0052 40.3492 57.2155 40.4457 57.4471C40.5422 57.6788 40.5917 57.9274 40.5913 58.1784C40.5909 58.4294 40.5406 58.6778 40.4434 58.9092C40.3462 59.1405 40.2039 59.3503 40.0249 59.5262Z" fill="white"/>
<path d="M33.7236 59.4994L32.8816 57.7168H32.6196L33.5904 59.8001L32.916 61.2433H33.178L34.8275 57.7168H34.5655L33.7236 59.4994Z" fill="white"/>
<path d="M60.6818 57.902C60.4129 58.1703 60.2616 58.5344 60.2612 58.9142C60.2608 59.294 60.4113 59.6584 60.6796 59.9273C60.9479 60.1961 61.312 60.3474 61.6918 60.3478C62.0716 60.3482 62.436 60.1977 62.7049 59.9294C62.7743 59.8666 62.8363 59.7959 62.8896 59.719L62.6405 59.6288C62.6018 59.6717 62.5674 59.7147 62.5288 59.7533C62.4191 59.8631 62.2888 59.9501 62.1455 60.0095C62.0021 60.0689 61.8485 60.0995 61.6933 60.0995C61.5382 60.0995 61.3845 60.0689 61.2412 60.0095C61.0978 59.9501 60.9676 59.8631 60.8579 59.7533C60.7443 59.6414 60.6549 59.5075 60.5951 59.3598C60.5352 59.212 60.5063 59.0536 60.5099 58.8942C60.5099 58.8513 60.5099 58.8083 60.5099 58.7654H63.0657C63.0665 58.6013 63.0342 58.4387 62.9707 58.2874C62.9073 58.1361 62.8139 57.9992 62.6963 57.8848C62.4261 57.6214 62.0628 57.4753 61.6855 57.4786C61.3082 57.4818 60.9474 57.634 60.6818 57.902ZM60.5658 58.5463C60.625 58.3707 60.7251 58.2117 60.8579 58.0824C60.9676 57.9727 61.0978 57.8856 61.2412 57.8262C61.3845 57.7668 61.5382 57.7362 61.6933 57.7362C61.8485 57.7362 62.0021 57.7668 62.1455 57.8262C62.2888 57.8856 62.4191 57.9727 62.5288 58.0824C62.6578 58.2123 62.7536 58.3715 62.808 58.5463H60.5658Z" fill="white"/>
<path d="M58.8475 57.5587H58.796C58.6639 57.5563 58.5327 57.5806 58.4102 57.63C58.2877 57.6795 58.1764 57.7531 58.0829 57.8465V56.1025H57.8467V60.2691H58.0829V58.2374C58.1204 58.1566 58.1729 58.0838 58.2376 58.0226C58.3863 57.8757 58.5869 57.7933 58.796 57.7933C59.005 57.7933 59.2056 57.8757 59.3544 58.0226C59.4292 58.0949 59.4884 58.1817 59.5283 58.2777C59.5681 58.3738 59.5879 58.477 59.5863 58.581V60.2691H59.8226V58.5509C59.8237 58.4218 59.7994 58.2936 59.751 58.1738C59.7026 58.0541 59.6311 57.945 59.5406 57.8529C59.45 57.7607 59.3422 57.6873 59.2233 57.6368C59.1044 57.5864 58.9767 57.5598 58.8475 57.5587Z" fill="white"/>
<path d="M42.5464 57.7176H42.2457H42.2414L41.5326 58.5939V56.6309H41.2964V60.2734H41.5326V58.9676L41.7603 58.6841L42.628 60.2734H42.9201L41.9149 58.4994L42.5464 57.7176Z" fill="white"/>
<path d="M29.9174 57.9062C29.8643 57.958 29.8154 58.014 29.7714 58.0737V56.1064H29.5352V60.273H29.7714V59.7533C29.8154 59.8144 29.8642 59.8718 29.9174 59.9251C30.1173 60.1257 30.3721 60.2625 30.6497 60.3181C30.9274 60.3738 31.2153 60.3458 31.4769 60.2377C31.7386 60.1296 31.9624 59.9463 32.1198 59.7109C32.2772 59.4756 32.3613 59.1988 32.3613 58.9157C32.3613 58.6325 32.2772 58.3557 32.1198 58.1204C31.9624 57.885 31.7386 57.7017 31.4769 57.5936C31.2153 57.4855 30.9274 57.4575 30.6497 57.5132C30.3721 57.5688 30.1173 57.7056 29.9174 57.9062ZM31.786 59.749C31.6763 59.8587 31.546 59.9458 31.4027 60.0052C31.2593 60.0646 31.1057 60.0951 30.9505 60.0951C30.7953 60.0951 30.6417 60.0646 30.4983 60.0052C30.355 59.9458 30.2247 59.8587 30.115 59.749C29.948 59.5919 29.8352 59.3858 29.7929 59.1605V58.6751C29.8349 58.4484 29.9477 58.2409 30.115 58.0823C30.2225 57.9642 30.3528 57.8691 30.4981 57.8028C30.6433 57.7365 30.8005 57.7003 30.9601 57.6964C31.1198 57.6926 31.2785 57.7211 31.4268 57.7803C31.5751 57.8396 31.7098 57.9282 31.8229 58.041C31.936 58.1538 32.025 58.2883 32.0846 58.4364C32.1442 58.5846 32.1731 58.7432 32.1697 58.9029C32.1662 59.0625 32.1304 59.2198 32.0645 59.3652C31.9985 59.5107 31.9038 59.6412 31.786 59.749Z" fill="white"/>
<path d="M66.1364 57.7168L65.462 59.8173L64.8607 58.1506H64.7275L64.1261 59.8173L63.4518 57.7168H63.1812L64.0488 60.2726H64.1992L64.7919 58.606L65.389 60.2726H65.535L66.407 57.7168H66.1364Z" fill="white"/>
<path d="M55.6214 58.0779C55.5761 58.0178 55.5274 57.9605 55.4754 57.9061C55.2753 57.7061 55.0204 57.5699 54.743 57.5148C54.4655 57.4596 54.1779 57.488 53.9166 57.5962C53.6553 57.7045 53.4319 57.8878 53.2747 58.1231C53.1176 58.3583 53.0337 58.6348 53.0337 58.9177C53.0337 59.2006 53.1176 59.4771 53.2747 59.7123C53.4319 59.9475 53.6553 60.1309 53.9166 60.2391C54.1779 60.3474 54.4655 60.3758 54.743 60.3206C55.0204 60.2655 55.2753 60.1293 55.4754 59.9293C55.5269 59.8734 55.5742 59.8176 55.6214 59.7574V60.2772H55.8405V57.7214H55.6042L55.6214 58.0779ZM55.6214 59.1475C55.5768 59.3767 55.4629 59.5866 55.2949 59.7489C55.1305 59.9138 54.9208 60.0261 54.6924 60.0718C54.464 60.1175 54.2272 60.0943 54.012 60.0053C53.7967 59.9163 53.6127 59.7655 53.4833 59.5719C53.3538 59.3783 53.2847 59.1506 53.2847 58.9177C53.2847 58.6848 53.3538 58.4571 53.4833 58.2635C53.6127 58.0699 53.7967 57.919 54.012 57.83C54.2272 57.741 54.464 57.7179 54.6924 57.7636C54.9208 57.8092 55.1305 57.9216 55.2949 58.0865C55.4576 58.2504 55.5695 58.4577 55.6171 58.6836L55.6214 59.1475Z" fill="white"/>
<path d="M56.9661 56.6309H56.7341V57.7176H56.2144V57.9538H56.7341V60.2734H56.9661V57.9538H57.4901V57.7176H56.9661V56.6309Z" fill="white"/>
<path d="M45.918 59.4994L45.0804 57.7168H44.8184L45.7891 59.8001L45.1147 61.2433H45.3768L47.0262 57.7168H46.7642L45.918 59.4994Z" fill="white"/>
<path d="M43.8565 58.658C43.7601 58.6009 43.6695 58.5348 43.5859 58.4604C43.5319 58.4078 43.4949 58.3402 43.4796 58.2664C43.4643 58.1926 43.4715 58.1159 43.5001 58.0462C43.5287 57.9765 43.5775 57.9169 43.6403 57.8751C43.703 57.8334 43.7768 57.8113 43.8522 57.8118C43.8996 57.8095 43.947 57.8172 43.9914 57.8342C44.0357 57.8512 44.0761 57.8772 44.1099 57.9106C44.1812 57.9936 44.2234 58.0977 44.2302 58.207L44.4363 58.1254C44.4359 58.0559 44.4212 57.9872 44.3931 57.9237C44.365 57.8601 44.3242 57.8031 44.2731 57.756C44.2171 57.6997 44.15 57.6558 44.076 57.6269C44.002 57.5981 43.9229 57.585 43.8436 57.5884C43.7635 57.5877 43.6841 57.6033 43.6102 57.6343C43.5363 57.6653 43.4696 57.7111 43.414 57.7688C43.3007 57.8831 43.2371 58.0375 43.2371 58.1984C43.2371 58.3593 43.3007 58.5137 43.414 58.6279C43.5439 58.7388 43.6885 58.8313 43.8436 58.9028C43.9621 58.9746 44.0742 59.0565 44.1786 59.1477C44.2287 59.1953 44.2686 59.2526 44.2959 59.3161C44.3233 59.3796 44.3374 59.4479 44.3376 59.5171C44.3381 59.5859 44.3251 59.6541 44.2993 59.7179C44.2735 59.7817 44.2354 59.8398 44.1871 59.8889C44.1388 59.9379 44.0814 59.977 44.018 60.0039C43.9547 60.0307 43.8866 60.0448 43.8178 60.0454C43.7477 60.046 43.6782 60.0326 43.6133 60.006C43.5484 59.9795 43.4895 59.9402 43.4399 59.8907C43.3903 59.8411 43.3511 59.7822 43.3246 59.7173C43.298 59.6524 43.2846 59.5829 43.2852 59.5128L43.0532 59.5686C43.0543 59.6609 43.0743 59.7519 43.112 59.8362C43.1496 59.9204 43.2042 59.996 43.2723 60.0583C43.4148 60.2005 43.6079 60.2803 43.8092 60.2803C44.0105 60.2803 44.2036 60.2005 44.3461 60.0583C44.4863 59.9147 44.5647 59.722 44.5647 59.5214C44.5647 59.3207 44.4863 59.128 44.3461 58.9844C44.1989 58.8533 44.0341 58.7434 43.8565 58.658Z" fill="white"/>
<path d="M50.6903 58.0823L49.1826 56.1064H48.8433V60.273H49.0795V56.3599L50.6903 58.4732L52.3054 56.3599V60.273H52.5373V56.1064H52.198L50.6903 58.0823Z" fill="white"/>
<path fill-rule="evenodd" clip-rule="evenodd" d="M65.4537 47.1248C65.4236 47.2794 65.3892 47.434 65.3592 47.593C65.2131 48.3146 65.0327 49.0534 64.8094 49.8008C64.6072 50.517 64.3019 51.2 63.903 51.8283C63.4735 52.4683 63.0826 52.6873 62.7905 52.5069C62.4349 52.208 62.2087 51.7833 62.1591 51.3214C61.9616 50.2624 61.8467 49.1896 61.8154 48.1127C61.7639 46.847 61.751 45.6744 61.7768 44.5948C61.7735 43.9057 61.8137 43.217 61.8971 42.533C61.924 42.4238 61.9215 42.3094 61.8898 42.2015C61.8581 42.0936 61.7984 41.996 61.7167 41.9187C61.6447 41.8529 61.558 41.8053 61.4638 41.7798C61.3696 41.7544 61.2707 41.752 61.1754 41.7727C61.067 41.7993 60.9686 41.857 60.8923 41.9386C60.816 42.0202 60.7652 42.1223 60.7459 42.2323C60.7459 42.2881 60.7115 42.3526 60.6943 42.4213C60.5753 42.0923 60.3777 41.7974 60.1188 41.5622C59.9738 41.4241 59.805 41.3135 59.6205 41.2358C59.1714 41.0697 58.6778 41.0697 58.2288 41.2358C57.7573 41.4012 57.3151 41.6405 56.9187 41.9445C56.1199 42.6371 55.5145 43.5251 55.1618 44.5218C54.8746 45.2824 54.6926 46.0787 54.6206 46.8885L54.582 46.9444C54.3285 47.404 54.0493 47.8937 53.7529 48.422C53.375 49.1221 53.0055 49.7922 52.6361 50.4323C52.339 50.9606 52.0135 51.4725 51.6611 51.9657C51.3819 52.348 51.18 52.4983 51.0597 52.3953C50.9394 52.2922 50.9394 51.897 51.0597 51.1453C51.18 50.3936 51.3991 49.4529 51.6482 48.4735C51.8973 47.4942 52.125 46.4805 52.3097 45.4925C52.4872 44.6224 52.5407 43.7316 52.4686 42.8465C52.3569 42.0519 52.125 41.5321 51.7814 41.283C51.6099 41.1619 51.4116 41.0846 51.2035 41.0576C50.9954 41.0307 50.7838 41.055 50.5872 41.1284C50.0926 41.295 49.6388 41.5644 49.2556 41.9187C48.5549 42.5751 47.9466 43.3236 47.4473 44.1438C46.9375 44.9828 46.571 45.6371 46.3476 46.1068C46.2918 46.2013 46.2446 46.2829 46.2145 46.3473C46.0598 46.6351 45.9181 46.9272 45.7849 47.2064L45.8236 46.7124C45.8837 46.0337 45.9439 45.4925 46.004 45.0887C46.02 44.9848 46.0091 44.8784 45.9723 44.7799C45.9354 44.6814 45.8739 44.594 45.7935 44.526C45.722 44.4612 45.6355 44.4151 45.5418 44.3919C45.4481 44.3686 45.3501 44.369 45.2566 44.3929C45.0633 44.4874 44.9044 44.8869 44.7755 45.5913C44.6896 46.0896 44.6166 46.5964 44.5693 47.1033C43.1175 50.1502 42.1396 51.9285 41.6356 52.4382C41.3864 52.7045 41.2404 52.6186 41.206 52.1848C41.1679 51.5425 41.1923 50.898 41.279 50.2604C41.3693 49.4013 41.4981 48.5036 41.657 47.5328C41.816 46.5621 41.9749 45.6729 42.1252 44.8697C42.2756 44.0664 42.3916 43.4823 42.4646 43.1515C42.4826 43.0724 42.4941 42.992 42.499 42.911C42.5634 42.5759 42.6192 42.271 42.6665 42.0046C42.7137 41.7383 42.7481 41.5751 42.7653 41.4591C42.8775 40.8546 42.9493 40.2433 42.98 39.6293C43.0015 39.2487 42.9415 38.8679 42.8039 38.5125C42.7556 38.3624 42.6763 38.224 42.5713 38.1064C42.4662 37.9888 42.3377 37.8944 42.194 37.8295C42.0158 37.7794 41.8282 37.7723 41.6467 37.8089C41.4652 37.8455 41.2951 37.9247 41.1502 38.04C40.2893 38.6681 39.5634 39.4627 39.0154 40.3767C38.2625 41.5344 37.5881 42.7412 36.9965 43.9891C36.3608 45.3164 35.7938 46.5664 35.3084 47.782C35.4095 46.6395 35.4411 45.4919 35.4029 44.3456C35.3997 43.5586 35.2542 42.7786 34.9734 42.0433C34.8972 41.7897 34.7513 41.5627 34.5523 41.388C34.3533 41.2133 34.1093 41.0981 33.848 41.0553C33.3583 41.0038 32.7526 41.3474 32.0224 42.0863C31.1805 42.9282 30.4231 44.4029 29.7501 46.5105C29.7501 46.0294 29.7802 45.6214 29.7974 45.282C29.814 45.1421 29.7987 45.0002 29.7526 44.867C29.7064 44.7338 29.6307 44.6128 29.5311 44.5132C29.4554 44.4482 29.3615 44.4084 29.2622 44.3991C29.163 44.3899 29.0633 44.4117 28.977 44.4616C28.8723 44.529 28.7873 44.6229 28.7307 44.7339C28.6741 44.8448 28.6479 44.9687 28.6548 45.093C28.6247 45.5655 28.599 46.1583 28.5775 46.8585L28.4357 47.026C28.1393 47.4488 27.7698 47.8153 27.3447 48.1084C26.9003 48.4219 26.4304 48.6978 25.9401 48.9331C25.7941 47.6445 25.6222 46.386 25.4161 45.1918C25.2099 43.9977 25.0123 42.9282 24.819 41.9832L24.7589 41.6653C24.6987 41.3345 24.5742 41.1455 24.3938 41.094C24.3069 41.0683 24.2154 41.0627 24.1261 41.0776C24.0368 41.0925 23.9521 41.1275 23.8783 41.1799C23.8061 41.2181 23.7433 41.2718 23.6942 41.3372C23.6452 41.4025 23.6113 41.4779 23.5948 41.5579C23.5115 42.2866 23.3591 43.0058 23.1395 43.7056C22.7972 44.8011 22.315 45.8478 21.7048 46.8198C21.155 47.6789 20.7126 48.1084 20.3904 48.1729C20.0683 48.2373 19.8449 47.9538 19.7332 47.3825C19.6329 46.4959 19.656 45.5996 19.802 44.7193C19.9175 43.7973 20.0911 42.8834 20.3217 41.9832C20.4119 41.6481 20.3818 41.4119 20.2315 41.283C20.1472 41.2129 20.05 41.1602 19.9453 41.1278C19.8407 41.0953 19.7306 41.0839 19.6215 41.094C19.3658 41.1013 19.1125 41.1461 18.8698 41.2272C18.7995 41.2482 18.7358 41.2868 18.6846 41.3395C18.6335 41.3921 18.5967 41.4569 18.5778 41.5278C18.5477 41.6739 18.6121 41.7641 18.771 41.8027C18.8774 41.8209 18.9785 41.8619 19.0674 41.923C19.0849 41.9652 19.0939 42.0105 19.0939 42.0562C19.0939 42.1019 19.0849 42.1471 19.0674 42.1893C18.768 43.4076 18.5867 44.6518 18.5262 45.9049C18.5104 46.3404 18.5655 46.7756 18.6894 47.1935C18.4502 48.3012 18.108 49.384 17.6671 50.428C17.142 51.7325 16.4782 52.9767 15.6869 54.1392C15.0957 55.1093 14.2466 55.896 13.2343 56.4115C13.0281 56.4918 12.8081 56.5305 12.5869 56.5253C12.3658 56.5202 12.1478 56.4713 11.9456 56.3814C11.542 56.1951 11.1908 55.9117 10.9233 55.5567C10.6611 55.2127 10.4539 54.8302 10.3091 54.4227C11.2896 53.7605 12.1339 52.9162 12.7961 51.9356C13.4301 51.0181 13.9739 50.0413 14.4198 49.0191C14.8407 48.0697 15.1673 47.0813 15.3948 46.0681C15.5369 45.4612 15.609 44.8401 15.6096 44.2168C15.5796 43.0699 15.3562 42.3053 14.9481 41.9316C14.7501 41.7467 14.5029 41.6229 14.2363 41.5749C13.9696 41.5269 13.6948 41.5568 13.4447 41.661C12.782 41.9021 12.1847 42.2949 11.7008 42.8079C11.1292 43.3821 10.6587 44.0486 10.3091 44.7795C9.64693 46.2639 9.18472 47.8297 8.93454 49.4357C8.63951 51.0746 8.68925 52.7569 9.08058 54.3754C8.68686 54.5018 8.26872 54.5327 7.86068 54.4656C5.15457 53.3574 4.88825 48.4521 6.70092 41.1498C6.78683 40.8191 6.87274 40.4969 6.96724 40.1877L7.50416 40.1447C8.52218 40.076 9.5359 39.9557 10.541 39.7968C11.5215 39.646 12.4732 39.3461 13.3631 38.9076C14.0664 38.5592 14.7078 38.0978 15.2617 37.5417C15.7082 37.0936 16.0602 36.5605 16.2969 35.9739C16.6806 34.9 16.6806 33.9822 16.2969 33.2205C15.8881 32.4481 15.216 31.8477 14.4026 31.5281C13.4662 31.1477 12.4447 31.0268 11.4454 31.1779C10.4461 31.3291 9.506 31.7469 8.72406 32.3872C7.2211 33.7627 6.05801 35.4684 5.32639 37.3699C4.9783 38.2023 4.67434 39.0526 4.41576 39.9171C3.48042 40.063 2.58371 40.3945 1.77837 40.8921C1.037 41.384 0.466654 42.0939 0.14611 42.9239C0.101308 43.0191 0.0653615 43.1184 0.0387242 43.2202C0.000287049 43.3291 -0.00860589 43.4462 0.0129517 43.5596C0.0602013 43.7142 0.214836 43.7486 0.468266 43.6713C0.552083 43.6492 0.629556 43.6078 0.694459 43.5503C0.759362 43.4929 0.809885 43.421 0.841968 43.3405C0.87379 43.2621 0.888344 43.1778 0.884638 43.0933C0.880931 43.0088 0.859052 42.9261 0.820491 42.8508C1.08842 42.2859 1.50209 41.8025 2.01891 41.4505C2.69085 41.0089 3.44452 40.7066 4.23535 40.5614C3.93801 41.6558 3.70849 42.7676 3.54808 43.8903C3.22565 45.9827 3.22565 48.1122 3.54808 50.2046C3.67548 51.0416 3.91834 51.8569 4.26971 52.6272C4.5908 53.3444 5.09073 53.9671 5.72156 54.4356C6.4242 54.9199 7.26589 55.1612 8.11841 55.1228C8.50747 55.1236 8.89382 55.0582 9.26099 54.9296C9.42738 55.3731 9.68226 55.7781 10.0101 56.12C10.338 56.4619 10.732 56.7335 11.1682 56.9183C11.6087 57.0988 12.0848 57.176 12.5598 57.1439C13.0349 57.1119 13.4962 56.9716 13.9086 56.7336C14.8343 56.1345 15.6113 55.3324 16.1809 54.3883C16.933 53.239 17.5622 52.0138 18.058 50.7329C18.2771 50.1706 18.4663 49.597 18.625 49.0148C18.7487 48.5912 18.8406 48.159 18.8999 47.7218C18.8999 47.7218 18.8999 47.7519 18.8999 47.7648C18.9983 48.0001 19.1507 48.209 19.3447 48.3747C19.5387 48.5403 19.7689 48.658 20.0167 48.7184C20.4892 48.8186 21.019 48.548 21.606 47.9065C22.1838 47.1815 22.6699 46.388 23.0536 45.5441C23.2454 45.1288 23.4087 44.7594 23.5433 44.4358C23.5991 45.1231 23.7924 47.4426 23.9041 49.8996C23.38 50.1659 22.8646 50.4494 22.362 50.7587C21.5028 51.292 20.7367 51.9623 20.094 52.7432C19.3222 53.7063 18.7392 54.8066 18.3759 55.9862C17.9764 57.3736 17.9893 58.5377 18.4231 59.4741C18.6539 59.9979 19.0294 60.445 19.5056 60.7627C19.9894 61.0702 20.5566 61.2203 21.1292 61.1923C21.7142 61.1773 22.2904 61.0461 22.8243 60.8065C23.3582 60.5668 23.8391 60.2234 24.2391 59.7963C25.0048 58.924 25.533 57.8693 25.7726 56.7336C26.0421 55.5036 26.1732 54.2472 26.1635 52.988C26.1635 51.708 26.1076 50.5625 25.9959 49.5517C26.4913 49.319 26.9706 49.0536 27.4306 48.757C27.8349 48.4955 28.2044 48.1837 28.5302 47.8292C28.5302 48.3676 28.5217 48.8916 28.5045 49.4013C28.5045 50.1316 28.483 50.69 28.483 51.0551C28.4739 51.1462 28.4868 51.2382 28.5204 51.3233C28.554 51.4085 28.6074 51.4844 28.6763 51.5448C28.8029 51.628 28.9569 51.6588 29.1058 51.6307C29.2386 51.6229 29.366 51.5749 29.4709 51.4932C29.5298 51.4388 29.5761 51.3721 29.6066 51.2979C29.637 51.2237 29.6508 51.1438 29.6471 51.0637C29.7125 49.9223 29.8822 48.7893 30.1539 47.6789C30.3777 46.5793 30.7012 45.5025 31.1204 44.4616C31.4442 43.7411 31.879 43.0758 32.409 42.49C32.5788 42.3184 32.7643 42.1631 32.9631 42.0261C34.5868 40.9523 33.6117 48.3275 33.1049 49.7922C32.598 51.257 32.9932 51.5877 34.0885 51.6736C34.1987 51.6994 34.3134 51.6994 34.4236 51.6736C34.5128 51.6605 34.5963 51.6219 34.6641 51.5625C34.732 51.5031 34.7812 51.4253 34.8059 51.3386C34.9089 50.8575 35.0722 50.269 35.2955 49.5732C35.5189 48.8773 35.7208 48.3046 35.9012 47.855C36.3737 46.6866 36.9163 45.4624 37.5291 44.1824C38.0964 42.987 38.7422 41.8305 39.4621 40.7203C39.7791 40.2235 40.1384 39.755 40.5359 39.32C41.4509 38.7659 41.3091 39.7495 41.017 41.1928C40.5875 43.1902 39.6468 45.7116 39.1614 48.9246C38.5257 53.1512 40.0205 53.1298 41.0084 53.25H41.1201C41.4638 53.25 41.9534 52.799 42.5892 51.897C43.28 50.8456 43.8999 49.7492 44.4448 48.6153C44.4147 49.2596 44.4104 49.8524 44.4233 50.385C44.4448 51.0852 44.5092 51.4846 44.6209 51.5791C44.7119 51.6188 44.8109 51.6367 44.9101 51.6315C45.0092 51.6263 45.1058 51.598 45.1922 51.5491C45.2793 51.5114 45.3553 51.4523 45.4132 51.3771C45.471 51.302 45.5088 51.2133 45.5229 51.1195C45.5861 50.3398 45.7213 49.5677 45.9267 48.8129C46.1101 48.0526 46.3736 47.314 46.7128 46.6093C47.2668 45.5536 47.8955 44.5387 48.5941 43.5725C48.8814 43.1879 49.1912 42.8207 49.522 42.4728C50.4068 41.8672 50.6903 42.9024 50.1963 44.7107C49.6988 46.496 49.3144 48.3108 49.0452 50.1445C48.5598 53.3875 49.9644 53.2329 50.6774 53.3445C50.9566 53.3961 51.3389 53.1555 51.8114 52.6272C52.4893 51.799 53.0876 50.9088 53.5983 49.9683C54.0279 49.2209 54.3457 48.6067 54.5906 48.1342C54.6229 48.9408 54.8342 49.7302 55.2091 50.4451C55.3852 50.7953 55.6508 51.0926 55.979 51.3068C56.3072 51.5211 56.6862 51.6447 57.0776 51.665C57.4379 51.679 57.7963 51.6059 58.1223 51.4518C58.4483 51.2978 58.7324 51.0674 58.9504 50.7802C59.4186 50.1788 59.771 49.4957 59.9899 48.7656C60.189 48.1476 60.3496 47.5178 60.471 46.8799C60.5096 46.6781 60.5483 46.5277 60.5784 46.4246C60.5784 47.3138 60.6084 48.1428 60.6643 48.8644C60.7151 49.5903 60.836 50.3095 61.0251 51.0121C61.0809 51.214 61.1582 51.4417 61.257 51.7424C61.3572 52.0229 61.4807 52.2944 61.6264 52.5542C61.7264 52.7701 61.883 52.9549 62.0797 53.0888C62.2764 53.2227 62.5057 53.3007 62.7433 53.3145C62.9852 53.2991 63.221 53.2317 63.4345 53.1168C63.6481 53.0019 63.8342 52.8422 63.9803 52.6487C64.5577 51.8947 64.9717 51.0286 65.1959 50.1058C65.4342 49.2827 65.591 48.4382 65.6641 47.5844C65.7113 47.2798 65.7113 46.9698 65.6641 46.6652C65.6341 46.532 65.5568 46.6866 65.4537 47.1248ZM14.6947 32.4001C15.0324 32.6034 15.3248 32.8739 15.5538 33.1947C16.0349 33.8562 16.0907 34.7153 15.7213 35.772C15.5097 36.2964 15.1924 36.7716 14.7892 37.168C14.2849 37.6656 13.705 38.0803 13.071 38.3965C12.2164 38.8151 11.3045 39.1046 10.3649 39.2556C9.39415 39.4073 8.41193 39.519 7.41826 39.5906H7.35812L7.11758 39.6121C9.1579 33.5427 13.071 31.919 14.6947 32.4001ZM10.0771 49.6161C10.3062 48.1165 10.7398 46.6553 11.3657 45.2734C11.6186 44.7469 11.9268 44.2487 12.285 43.7872C12.6224 43.331 13.0297 42.9309 13.492 42.6017C13.6336 42.4705 13.814 42.3887 14.006 42.3685C14.1981 42.3484 14.3915 42.391 14.5572 42.49C14.8436 42.6905 15.0025 43.2632 15.034 44.2082C15.033 44.787 14.9638 45.3637 14.8279 45.9264C14.6038 46.9034 14.2874 47.857 13.8829 48.7742C13.46 49.759 12.9391 50.6987 12.3279 51.5791C11.7325 52.4513 10.988 53.2118 10.1287 53.8256C9.8414 52.4388 9.8239 51.0096 10.0771 49.6161ZM23.8225 56.1709C23.2941 59.2078 21.6404 60.7498 19.7332 60.1356C19.7736 60.1944 19.8229 60.2465 19.8793 60.2902C19.4964 60.0289 19.1979 59.6617 19.0202 59.2336C18.6479 58.426 18.6479 57.4037 19.0202 56.1666C19.3455 55.0758 19.873 54.0558 20.5751 53.1598C21.1683 52.431 21.8728 51.8004 22.6627 51.2913C23.0922 51.0121 23.5433 50.7587 24.0029 50.5182C24.1078 52.4042 24.046 54.2958 23.8182 56.1709H23.8225ZM60.5053 43.4436C60.3679 44.2082 60.1918 45.0802 59.977 46.0595C59.7739 46.9922 59.5099 47.9105 59.1866 48.8086C58.9791 49.4926 58.6109 50.1171 58.1128 50.6298C57.9985 50.7376 57.8577 50.8132 57.7047 50.8489C56.0897 50.2991 56.4505 47.2536 56.7383 46.0123C57.1936 44.0493 58.1257 42.0648 59.4057 41.923L59.6162 41.9832C59.9985 42.1163 60.2949 42.6017 60.5053 43.4436ZM80.2643 39.9299C79.9877 40.1335 79.7928 40.4289 79.7145 40.7633C79.5255 41.4462 79.4868 41.9144 79.6071 42.1765C79.7273 42.4385 79.912 42.4771 80.1569 42.2967C80.4889 41.9657 80.7198 41.5471 80.8227 41.0897C80.9773 40.517 80.9773 40.1433 80.8227 39.9686C80.6895 39.7925 80.5005 39.7796 80.2643 39.9471V39.9299ZM90.0063 46.6738C89.8946 46.6995 89.8001 46.8026 89.7099 46.9873C89.3887 47.7313 88.9651 48.4267 88.4513 49.0534C87.9774 49.6679 87.3951 50.1905 86.7332 50.5955C86.4991 50.7633 86.2247 50.8661 85.9379 50.8933C85.6512 50.9204 85.3623 50.871 85.1009 50.7501C84.6112 50.501 84.2619 49.8123 84.0528 48.684C83.9997 48.3386 83.9724 47.9897 83.9712 47.6402C83.9727 47.2612 83.9957 46.8826 84.0399 46.5062C84.128 45.9488 84.2471 45.3967 84.3965 44.8525C84.5763 44.145 84.8297 43.4583 85.1525 42.8036C85.2467 42.5466 85.3941 42.3123 85.5851 42.1162C85.7761 41.92 86.0063 41.7664 86.2607 41.6653C86.3607 41.6386 86.4665 41.6436 86.5635 41.6798C86.6605 41.716 86.7438 41.7815 86.8019 41.8672C86.897 42.0447 86.9345 42.2473 86.9093 42.4471C86.8921 42.7048 86.9351 42.8379 87.0382 42.8465C87.1455 42.8465 87.2486 42.7821 87.3517 42.6275C87.4636 42.4531 87.5064 42.2433 87.472 42.039C87.4555 41.891 87.4088 41.748 87.335 41.6187C87.2611 41.4894 87.1616 41.3767 87.0424 41.2873C86.842 41.1454 86.6006 41.073 86.3552 41.0811C85.1138 40.9007 82.8158 41.8027 82.2488 45.3765C82.0857 46.3373 82.0596 47.3164 82.1714 48.2845C82.0082 48.6067 81.8321 48.9374 81.6474 49.2768C81.4635 49.6209 81.2569 49.9524 81.0289 50.269C79.9722 50.7974 79.9292 49.0319 80.1397 47.6918C80.3803 46.1325 80.4533 44.8525 80.5693 44.1781C80.7239 43.3964 80.784 42.3869 79.4954 42.9582H79.4653C79.3819 42.9614 79.3016 42.991 79.236 43.0427C79.1704 43.0945 79.1228 43.1656 79.1002 43.246C78.9542 43.8646 78.811 44.6778 78.6707 45.6858C78.6019 46.2313 78.5461 46.7811 78.5117 47.331C78.31 47.8247 78.0746 48.304 77.8073 48.7656C77.4625 49.3863 77.0443 49.9631 76.5616 50.4838C76.4145 50.6383 76.2451 50.7701 76.0591 50.8747C74.4268 51.2269 75.0582 46.5793 75.3288 43.8646C75.5135 42.0003 75.7927 39.8569 76.0591 38.1044C76.8881 38.3278 79.6071 39.1568 81.772 39.1439C84.4609 39.1439 85.1782 37.3312 85.277 36.4979C85.4918 34.7239 85.5648 31.5453 83.2453 27.7481C81.7505 25.2912 79.7445 22.9587 75.5522 21.305C69.1391 18.7278 68.9416 16.769 68.6795 14.1746C68.4175 11.5802 68.1168 9.85342 66.2183 9.15756C64.3197 8.4617 62.2922 9.1189 60.5053 9.74174C60.3937 9.43676 59.9899 9.35945 58.6325 9.24777C57.2752 9.13608 56.3646 9.29072 54.3758 10.0768C52.387 10.8628 48.7917 11.5157 47.3055 12.77C45.8193 14.0243 45.2137 14.1274 44.7583 14.209C44.303 14.2906 43.2163 14.3335 42.3701 14.3937C41.5239 14.4538 40.9784 14.5612 40.9182 14.0973C40.8581 13.6334 41.6914 13.3714 42.572 13.3714C43.0122 13.3525 43.4469 13.2655 43.8606 13.1136C43.9078 13.1824 43.8907 13.7966 44.8056 13.8353C45.7205 13.8739 46.2703 12.6497 45.9138 12.0398C45.5573 11.4298 44.8357 11.7821 44.8743 11.752C45.0058 11.1256 44.9506 10.4744 44.7154 9.87919C44.5763 9.59946 44.3796 9.35229 44.1383 9.1539C43.897 8.95551 43.6164 8.81038 43.3151 8.72802C42.7417 8.60038 42.1531 8.55411 41.5668 8.59057C41.1173 8.59165 40.6715 8.50861 40.2524 8.34573C39.8702 8.19539 39.8229 8.27271 39.8229 8.49177C39.8229 8.71084 39.9346 8.844 39.4578 9.03729C38.981 9.23058 38.4698 9.62576 38.56 10.0983C38.6502 10.5708 38.9423 11.2065 38.7061 11.6446C38.4698 12.0827 37.4175 13.947 37.0481 13.7923C36.6787 13.6377 37.2027 12.8602 37.4175 12.2889C37.5736 11.6997 37.5572 11.078 37.3702 10.4977C37.2647 9.81019 37.2647 9.11058 37.3702 8.42305C37.4475 7.47805 37.6752 6.0262 37.6752 6.0262C38.8694 4.69433 40.1616 3.45378 41.5411 2.31496C43.0574 1.08647 43.1862 1.97562 44.6853 1.5289C46.1844 1.08217 46.8889 0.291815 46.7901 0.150066C46.6913 0.00831683 46.3176 -0.103364 45.0719 0.150066C44.2046 0.315406 43.3206 0.375976 42.4388 0.330473C41.5797 0.330473 41.6055 1.02633 40.042 1.88971C38.6588 2.63711 37.4046 3.28143 36.3565 4.56576C35.3084 5.85009 35.0378 8.00209 35.0077 10.8671C34.9777 13.7322 34.7199 13.6205 34.3377 14.6299C33.9554 15.6393 32.7569 17.0697 32.7441 17.7828C32.771 18.3087 32.9551 18.8144 33.2724 19.2346C33.4098 19.488 33.3497 22.2887 33.586 23.2337C33.8222 24.1786 35.1538 25.609 34.8746 25.6305C34.0978 25.6763 33.319 25.6763 32.5422 25.6305C31.0259 25.5747 28.9684 25.5016 28.4572 25.2439C28.131 25.0513 27.7516 24.9685 27.3748 25.0077C26.4537 25.0952 25.5268 25.1039 24.6042 25.0334C22.74 24.969 20.5021 24.9303 18.8269 24.6984C17.1517 24.4664 17.1087 24.2044 15.5881 23.9338C14.5444 23.714 13.4662 23.714 12.4224 23.9338C11.1338 24.1056 10.1416 24.3633 9.78503 25.1322C9.7206 25.2826 9.78503 25.5317 10.3821 25.4157C10.541 25.3857 10.773 25.1709 11.0221 25.2611C11.2712 25.3513 11.6278 25.115 12.7618 25.3384C13.8957 25.5618 13.5135 26.2276 14.278 26.7086C15.0426 27.1897 15.6225 26.4209 16.327 26.1674C17.0314 25.914 17.2848 25.9698 20.1456 27.1983C23.0063 28.4268 24.4023 27.5505 25.9315 27.6837C27.4607 27.8169 27.2201 28.5428 30.4632 29.4792C32.9693 30.1842 35.6028 30.3105 38.1649 29.8486C39.883 29.578 40.6949 30.0591 42.1038 30.5359C43.5127 31.0127 44.7669 30.596 45.7978 30.4757C46.8287 30.3555 49.857 29.7111 51.9059 29.3847C53.9548 29.0582 54.5562 28.56 56.6008 27.8426C58.6454 27.1253 59.6076 26.8203 60.8962 26.7988C62.1849 26.7774 62.812 27.0351 64.0276 27.1253C65.2432 27.2155 65.7458 26.7645 66.6521 26.7516C67.5584 26.7387 68.7998 25.4071 68.1684 25.0334C68.0365 24.9725 67.8886 24.9554 67.7463 24.9848C67.604 25.0142 67.4749 25.0884 67.378 25.1967C66.8653 25.4533 66.2907 25.5605 65.72 25.5059C64.3068 25.4372 64.3626 24.3462 63.8128 23.9896C63.7076 23.928 63.5905 23.8895 63.4692 23.8766C63.3479 23.8638 63.2253 23.8769 63.1095 23.9151C62.9937 23.9533 62.8874 24.0157 62.7976 24.0982C62.7078 24.1806 62.6365 24.2813 62.5886 24.3934C62.4898 24.7199 62.5113 25.3942 61.3773 25.493C60.2433 25.5918 59.7494 25.2224 57.0819 25.0635C54.4144 24.9046 54.0322 26.2319 52.6233 26.2877C51.2144 26.3435 49.9773 25.9612 48.1217 25.9312C46.266 25.9011 44.5436 26.4982 44.2558 26.438C43.968 26.3779 43.9422 25.347 42.8769 24.6425C41.8117 23.9381 40.261 23.9982 39.6468 22.9244C39.0325 21.8505 39.7198 20.1409 42.383 17.8816C45.0461 15.6222 47.4645 15.1711 50.3295 13.8009C53.1945 12.4307 53.8646 10.6352 56.3903 10.7941C58.916 10.953 59.5088 10.4333 59.5088 10.4333C60.69 10.313 61.8112 9.19193 64.4786 9.24777C66.9313 9.4926 67.8591 10.1068 68.1297 14.2777C68.4003 18.4486 69.8479 19.3935 75.2687 21.8248C83.43 25.4759 85.0537 33.6543 84.5039 36.2058C84.2633 38.3535 82.3561 38.4137 81.3854 38.3793C80.7679 38.3325 80.1547 38.2391 79.5512 38.1001C78.4903 37.8638 77.5968 37.6706 76.1922 37.241C76.3469 36.266 76.4929 35.4756 76.6218 35.0117C76.9439 33.6801 77.3563 31.8631 75.5994 33.0959C75.4226 33.237 75.2561 33.3906 75.1012 33.5555C74.7176 34.0639 74.4507 34.6506 74.3194 35.2737C74.212 35.7033 74.1175 36.1672 74.0316 36.6482C72.9025 36.3428 71.7546 36.1118 70.5953 35.9567C69.6829 35.8062 68.749 35.8501 67.8548 36.0855C67.4935 36.1887 67.1633 36.3796 66.8935 36.6411C66.6238 36.9026 66.4228 37.2267 66.3085 37.5846C66.1776 37.9296 66.1391 38.3027 66.1968 38.6671C66.2655 38.899 66.36 39.0107 66.4889 38.9978C66.6177 38.985 66.695 38.8518 66.7165 38.5941C66.7135 38.2601 66.7897 37.9302 66.9391 37.6315C67.0884 37.3328 67.3066 37.0738 67.5756 36.8759C68.135 36.5485 68.7806 36.3988 69.4269 36.4464C70.2017 36.4771 70.9709 36.5923 71.7207 36.79C72.511 36.9962 73.2327 37.2195 73.8684 37.4343C73.7009 38.3449 73.5548 39.3028 73.4389 40.2951C73.1737 42.3644 73.0588 44.4503 73.0952 46.5363C72.0635 46.4914 71.0393 46.7322 70.1357 47.2322C68.25 45.0844 67.5584 43.8431 67.3737 42.2967C67.1933 40.6043 68.7268 39.6422 69.6116 39.9299L69.8522 39.9987C70.0608 40.0899 70.2547 40.2115 70.4278 40.3595C70.8608 40.7451 71.1914 41.2322 71.3899 41.777C71.5274 42.0562 71.652 42.1593 71.7679 42.0777C71.8839 41.996 71.9097 41.7942 71.8453 41.4634C71.7097 41.0048 71.4668 40.5851 71.1365 40.2392C70.6569 39.6908 69.9944 39.3351 69.2723 39.2384C68.7903 39.1784 68.301 39.2212 67.8368 39.3641C67.3726 39.507 66.9439 39.7467 66.5791 40.0674C65.8795 40.6776 65.4438 41.5352 65.3635 42.4599C65.2743 43.5334 65.5797 44.6025 66.2225 45.4667C66.7251 46.1583 67.3651 46.9487 68.134 47.8378L68.5893 48.379C68.0379 48.8555 67.5641 49.4149 67.1847 50.0371C66.5189 51.1668 66.2612 52.1075 66.4201 52.8506C66.4797 53.1957 66.6145 53.5236 66.8149 53.8109C67.0153 54.0981 67.2765 54.3378 67.5799 54.5129C68.1509 54.838 68.8002 54.9999 69.457 54.9811C69.9118 54.9879 70.3646 54.9197 70.7972 54.7792H70.8444C70.9304 54.7537 71.015 54.7235 71.0979 54.689C71.4736 54.5383 71.8058 54.2962 72.0643 53.9846C73.6966 52.3609 72.3951 49.7836 70.6726 47.898L70.5051 47.7175C70.9648 47.4772 71.4589 47.3092 71.9698 47.2193C72.3494 47.1498 72.7363 47.1296 73.121 47.1591C73.121 47.5071 73.1597 47.8507 73.1897 48.1814C73.2615 48.9156 73.4275 49.6374 73.6837 50.3292C74.0445 51.1882 74.5299 51.6521 75.1398 51.7209C75.7498 51.7896 76.3626 51.519 76.9783 50.909C77.4286 50.4284 77.8247 49.8998 78.1595 49.3326C78.2669 49.1522 78.37 48.9718 78.4731 48.7871C78.4729 49.2042 78.5161 49.6203 78.602 50.0285C78.6796 50.4725 78.8493 50.8954 79.1002 51.2699C79.2048 51.4345 79.3568 51.5637 79.5362 51.6404C79.7156 51.717 79.914 51.7376 80.1053 51.6994C80.541 51.5833 80.927 51.3285 81.205 50.9735C81.5653 50.5467 81.8819 50.0847 82.15 49.5946C82.2187 49.4744 82.2831 49.3541 82.3433 49.2381C82.7728 50.7759 83.7307 51.7424 85.1568 51.7295C85.5336 51.7548 85.9115 51.6991 86.265 51.5662C87.0812 51.2545 87.8157 50.761 88.4127 50.123C89.0835 49.4516 89.6226 48.6605 90.002 47.7906C90.1353 47.524 90.203 47.2295 90.1996 46.9315C90.2039 46.7253 90.1137 46.648 90.0063 46.6738ZM70.7199 51.0766C71.0021 51.4751 71.2008 51.9266 71.304 52.4038C71.3636 52.659 71.3587 52.9249 71.2897 53.1777C71.2207 53.4304 71.0898 53.662 70.9089 53.8514C70.7136 54.0385 70.4833 54.1853 70.2312 54.2833C69.9791 54.3813 69.7102 54.4287 69.4398 54.4227C68.8819 54.4294 68.3331 54.2806 67.8548 53.9931C67.6134 53.8544 67.4074 53.6616 67.2531 53.4298C67.0988 53.198 67.0004 52.9336 66.9657 52.6573C66.8626 52.0473 67.0902 51.2656 67.6486 50.312C68.0013 49.7434 68.4355 49.2297 68.9373 48.7871C69.6288 49.5946 70.2173 50.3549 70.7199 51.0766ZM97.8798 46.6609C97.7267 46.5785 97.5554 46.5357 97.3815 46.5363C96.4228 46.4923 95.4692 46.6996 94.6153 47.1377L94.5723 47.099C91.9951 44.8138 91.4238 43.7829 91.8232 41.7942C91.863 41.4792 91.9802 41.179 92.1644 40.9204C92.3486 40.6618 92.5941 40.453 92.8788 40.3125C93.1635 40.1721 93.4786 40.1044 93.7959 40.1156C94.1132 40.1268 94.4228 40.2165 94.6969 40.3767C95.1299 40.7623 95.4605 41.2494 95.6591 41.7942C95.7922 42.0734 95.9211 42.1765 96.0371 42.0948C96.153 42.0132 96.1788 41.8113 96.1144 41.4806C95.9773 41.0226 95.7346 40.6033 95.4056 40.2564C94.926 39.7079 94.2636 39.3523 93.5414 39.2556C93.0663 39.1941 92.5835 39.2326 92.1241 39.3687C91.6647 39.5048 91.2389 39.7355 90.874 40.0459C90.1744 40.6561 89.7387 41.5137 89.6584 42.4385C89.5707 43.5117 89.876 44.5803 90.5174 45.4453C91.0243 46.1383 91.6629 46.9286 92.4332 47.8163L92.8885 48.3576C92.3416 48.8295 91.8707 49.3829 91.4925 49.9984C90.8267 51.1281 90.569 52.0688 90.7279 52.8119C90.7875 53.1571 90.9223 53.4849 91.1227 53.7722C91.3231 54.0595 91.5843 54.2992 91.8877 54.4742C92.459 54.8083 93.1117 54.9778 93.7734 54.9639C94.3189 54.9713 94.8605 54.8706 95.367 54.6675V54.7019L95.5817 54.5859C95.7578 54.5005 95.9235 54.3953 96.0757 54.2724C98.8677 52.2922 97.0808 49.4787 95.0964 47.5543C95.4804 47.3817 95.8844 47.2576 96.2991 47.1849C96.7653 47.0984 97.2424 47.0868 97.7123 47.1505C97.7478 47.1529 97.7835 47.1476 97.8168 47.135C97.8502 47.1224 97.8804 47.1028 97.9056 47.0775C97.966 47.0264 98.0082 46.9571 98.0258 46.8799C98.023 46.8026 97.9743 46.7296 97.8798 46.6609ZM95.6247 52.3695C95.6843 52.6246 95.6794 52.8906 95.6104 53.1433C95.5414 53.396 95.4105 53.6276 95.2295 53.817C95.0342 54.0041 94.8039 54.1509 94.5519 54.2489C94.2998 54.347 94.0309 54.3943 93.7605 54.3883C93.2025 54.395 92.6537 54.2463 92.1755 53.9588C91.9336 53.8206 91.7273 53.6279 91.5729 53.396C91.4186 53.1641 91.3204 52.8994 91.2863 52.6229C91.1832 52.013 91.4109 51.2312 91.9693 50.2776C92.322 49.7091 92.7561 49.1953 93.2579 48.7527C93.9323 49.5431 94.5208 50.3034 95.0233 51.025C95.3129 51.4277 95.5175 51.8852 95.6247 52.3695Z" fill="white"/>
</svg>
