<svg width="103" height="103" viewBox="0 0 103 103" fill="none" xmlns="http://www.w3.org/2000/svg">
<g clip-path="url(#clip0_86_322)">
<path d="M61.9492 62.9434L61.8437 63.8898C61.7865 64.4028 62.1574 64.865 62.672 64.9219C63.1864 64.9786 63.65 64.6096 63.7072 64.0961L63.8127 63.1497C63.8699 62.6367 63.499 62.1745 62.9844 62.1176C62.4688 62.0608 62.0064 62.4302 61.9492 62.9434Z" fill="url(#paint0_linear_86_322)"/>
<path d="M79.5625 69.5987H62.2478C62.6453 69.1421 62.9691 68.6154 63.1966 68.0337C63.3845 67.5527 63.1459 67.0108 62.6635 66.8234C62.1809 66.6359 61.6375 66.8738 61.4495 67.3549C60.9235 68.7008 59.5915 69.6231 58.093 69.5952C52.154 69.5994 54.0143 69.5987 49.7686 69.5987C48.2509 69.4988 46.7597 68.6603 45.9878 67.122L45.6618 66.4718C47.5989 64.9645 48.7593 62.6581 48.7926 60.1352L53.5387 59.1891C53.8829 59.1205 54.1596 58.8659 54.2562 58.5295C55.7873 53.1917 55.7397 53.3735 55.7532 53.273C55.7638 53.1938 55.7275 54.3272 56.5012 28.0056H59.0868C61.9193 46.075 61.5739 45.0575 61.8166 45.4212C61.819 45.4248 62.0662 45.7981 62.5797 46.7986C63.1336 47.8776 63.6839 49.1718 63.5709 50.3835L60.5527 53.9953H58C57.4823 53.9953 57.0625 54.4138 57.0625 54.93C57.0625 55.4462 57.4823 55.8647 58 55.8647H59.1408L57.1263 65.1103C49.8933 65.1466 51.6211 65.1439 51.353 65.1388C50.0413 65.1133 49.9934 67.0085 51.3789 67.0085L57.8875 66.9758C58.3268 66.9736 58.7056 66.6676 58.7989 66.2395L60.9285 56.4656C65.5362 50.9517 63.303 53.6242 64.6572 52.0037C65.3986 52.861 65.4878 54.1916 64.7091 55.1616C62.5151 57.8964 62.5226 57.8076 62.4822 58.1691L62.3545 59.3118C62.297 59.8248 62.6677 60.287 63.1823 60.3442C63.6968 60.4016 64.1604 60.0318 64.2178 59.5189L64.3156 58.6452L66.1731 56.3296C67.6874 54.4433 67.3689 51.6834 65.4633 50.2002C65.5395 48.3817 64.4349 46.1214 63.4949 44.5729C61.3701 29.6251 62.0955 35.9792 59.9359 20.7105C60.8876 19.9558 61.267 18.6569 60.7967 17.4752L59.5253 14.3083C58.8784 12.6931 57.3338 11.6497 55.5906 11.6497C55.0729 11.6497 54.6531 12.0682 54.6531 12.5844C54.6531 31.972 54.85 20.3599 53.8905 53.005L52.6104 57.4677L48.3914 58.3088C47.7749 57.0729 46.5149 56.2235 45.0629 56.2235C39.7345 56.2235 39.0415 56.0255 37.3212 56.986C34.6559 58.474 33.5363 61.9704 34.9803 64.8708C33.3346 65.8547 32.9187 68.0629 34.0742 69.5988H21.4375C20.9198 69.5988 20.5 70.0173 20.5 70.5335C20.5 71.0497 20.9198 71.4682 21.4375 71.4682H79.5625C80.0802 71.4682 80.5 71.0497 80.5 70.5335C80.5 70.0173 80.0802 69.5987 79.5625 69.5987ZM57.7847 15.0021C59.1469 18.3953 59.1238 18.2682 59.1238 18.515C59.1238 18.8851 58.9042 19.2208 58.5644 19.3706C58.1847 19.5379 57.9326 19.9319 58.0151 20.5149L58.8101 26.1362H56.5281V13.7106C57.0902 13.9516 57.5462 14.4074 57.7847 15.0021ZM37.7955 58.913C38.9888 59.7778 39.6546 61.1675 39.6546 62.6031C39.6546 63.1193 40.0744 63.5378 40.5921 63.5378C41.1099 63.5378 41.5296 63.1193 41.5296 62.6031C41.5296 60.9239 40.8837 59.3156 39.728 58.1188C40.0371 58.0826 39.7622 58.0929 45.0627 58.0929C46.0865 58.0929 46.9195 58.959 46.9195 60.0234C46.9195 61.5013 46.4212 62.8671 45.5661 63.9476L43.7086 63.2014C43.2284 63.0085 42.6822 63.2402 42.4887 63.7191C42.2952 64.1979 42.5277 64.7425 43.008 64.9354L44.0202 65.342C43.0128 65.9766 41.9556 66.2524 40.7963 66.2524C40.0377 65.2783 39.12 65.1271 37.6292 64.6034C37.4199 64.5298 37.1437 64.4639 36.887 64.4392C35.7453 62.6746 36.0861 60.2417 37.7955 58.913ZM36.4736 66.2988C36.8535 66.2761 36.8339 66.3062 38.721 66.9691C39.3918 67.2062 39.7766 67.9682 39.5315 68.6936C39.2962 69.3921 38.5642 69.7598 37.8912 69.5231L36.1738 68.9204C34.8477 68.4531 35.0853 66.4308 36.4736 66.2988ZM41.4749 68.0961C42.3667 68.028 43.2298 67.8079 44.0507 67.4396C44.4419 68.2197 44.7292 68.8339 45.4896 69.5987H41.1868C41.4033 69.121 41.4986 68.6123 41.4749 68.0961Z" fill="url(#paint1_linear_86_322)"/>
</g>
<circle cx="51.5" cy="51.5" r="51" stroke="url(#paint2_linear_86_322)" stroke-opacity="0.35"/>
<path d="M42.5571 0.7824C30.5277 2.90351 19.6438 9.23135 11.849 18.636C4.05411 28.0406 -0.144173 39.9097 0.00377782 52.1238C0.151729 64.3379 4.63628 76.1018 12.6566 85.3148C20.677 94.5279 31.711 100.59 43.7883 102.419L44.0196 100.892C32.3046 99.1175 21.6017 93.2371 13.8219 84.3004C6.04219 75.3637 1.69218 63.9528 1.54866 52.1051C1.40515 40.2574 5.47748 28.7444 13.0385 19.6219C20.5995 10.4994 31.1569 4.36141 42.8254 2.30393L42.5571 0.7824Z" fill="url(#paint3_linear_86_322)"/>
<defs>
<linearGradient id="paint0_linear_86_322" x1="61.8379" y1="62.1118" x2="63.9878" y2="62.2008" gradientUnits="userSpaceOnUse">
<stop stop-color="#7775E7"/>
<stop offset="0.6417" stop-color="#A93CF6"/>
<stop offset="1" stop-color="#C41DFF"/>
</linearGradient>
<linearGradient id="paint1_linear_86_322" x1="20.5" y1="11.6497" x2="85.5139" y2="15.4886" gradientUnits="userSpaceOnUse">
<stop stop-color="#7775E7"/>
<stop offset="0.6417" stop-color="#A93CF6"/>
<stop offset="1" stop-color="#C41DFF"/>
</linearGradient>
<linearGradient id="paint2_linear_86_322" x1="0" y1="0" x2="111.61" y2="6.57038" gradientUnits="userSpaceOnUse">
<stop stop-color="#7775E7"/>
<stop offset="0.6417" stop-color="#A93CF6"/>
<stop offset="1" stop-color="#C41DFF"/>
</linearGradient>
<linearGradient id="paint3_linear_86_322" x1="0" y1="0" x2="111.61" y2="6.57038" gradientUnits="userSpaceOnUse">
<stop stop-color="#7775E7"/>
<stop offset="0.6417" stop-color="#A93CF6"/>
<stop offset="1" stop-color="#C41DFF"/>
</linearGradient>
<clipPath id="clip0_86_322">
<rect width="60" height="59.8208" fill="white" transform="translate(20.5 11.6484)"/>
</clipPath>
</defs>
</svg>
