<svg width="103" height="103" viewBox="0 0 103 103" fill="none" xmlns="http://www.w3.org/2000/svg">
<g clip-path="url(#clip0_86_297)">
<path d="M78.063 78.417H69.5873C69.2474 77.0364 68.1694 75.9222 66.7359 75.5649L64.6976 75.0566L67.2739 62.5991C67.7683 60.2055 66.406 57.7682 64.0476 56.9555C58.2834 54.9611 60.2549 55.8441 54.9525 54.6368C56.7976 53.5186 59.3393 51.9185 60.1325 51.1277C61.0615 50.2001 63.8888 47.3774 63.8888 44.6776C63.8888 43.9166 63.6582 43.0779 63.2026 42.1773L78.0036 27.4206C78.6464 26.7798 79.0005 25.9276 79.0005 25.0213C79.0005 22.0173 75.3286 20.4902 73.1906 22.6219C72.8244 22.9869 72.8244 23.5786 73.1906 23.9436C73.5567 24.3086 74.1502 24.3086 74.5163 23.9436C75.4769 22.9861 77.1256 23.6725 77.1256 25.0211C77.1256 25.4282 76.9665 25.8108 76.6779 26.0987L59.4287 43.2964C58.8364 43.8869 59.264 44.892 60.0916 44.892C60.6 44.892 60.7476 44.6251 61.7819 43.5939C61.9334 43.9948 62.0139 44.3612 62.0139 44.6776C62.0139 45.9558 60.9346 47.6815 58.8012 49.8115C58.0421 50.5683 54.5941 52.6969 52.2901 54.0468L49.1186 53.6515C48.6046 53.5869 48.1364 53.9507 48.0721 54.463C48.0079 54.9752 48.3724 55.4423 48.8861 55.5063L52.3192 55.9343C60.2922 57.8835 57.1549 56.5701 63.4486 58.727C64.891 59.2274 65.7461 60.7299 65.4381 62.2217L64.2459 67.9864H61.178L61.6729 63.661C61.7325 63.1404 61.3506 62.6716 60.8262 62.6242C49.6379 61.6122 50.6868 62.8408 46.8476 61.5084C46.5959 61.4237 46.2139 61.2755 45.946 61.1373C43.6542 59.9545 43.1613 56.5293 43.8855 54.6036C44.7733 53.9771 45.6578 53.2522 46.515 52.4474C46.892 52.0935 46.9098 51.502 46.5549 51.1261C46.1999 50.7504 45.6068 50.7327 45.2297 51.0864C44.263 51.994 43.0546 52.9266 42.9781 52.9443C42.7421 52.999 42.6764 53.0763 41.7437 53.6872C39.4128 55.2141 39.8649 54.9174 27.7772 65.0474L20.456 69.9173C19.1742 70.7698 18.6679 72.3657 19.2246 73.7982C20.7422 77.7027 20.74 77.8202 21.1625 78.417H19.9414C19.4237 78.417 19.004 78.8355 19.004 79.3516C19.004 79.8678 19.4237 80.2863 19.9414 80.2863H78.063C78.5807 80.2863 79.0005 79.8678 79.0005 79.3516C79.0005 78.8355 78.5807 78.417 78.063 78.417ZM41.7086 55.961C41.5581 58.3247 42.4574 60.9726 44.417 62.3851C40.931 64.0022 36.2534 65.858 30.5157 68.8083L29.456 66.0823C38.7437 58.2974 40.296 56.9478 41.7086 55.961ZM21.4965 71.4724L27.8879 67.2209L28.8681 69.7426L24.517 72.5054C24.1978 72.7081 24.0321 73.0823 24.097 73.4539L24.9619 78.4095C23.8739 78.4879 22.8133 77.8581 22.399 76.7923L20.9728 73.1228C20.736 72.5135 20.9514 71.8349 21.4965 71.4724ZM26.0512 73.7474C30.3138 71.0409 30.9515 70.3591 41.5808 65.6986C43.4973 64.8584 45.1692 64.1241 46.6223 63.402C50.4713 64.6206 50.1969 63.5919 59.7009 64.4018C58.3366 76.3235 58.6764 74.0036 58.1144 76.2447C57.9289 76.9844 58.0077 77.7458 58.3258 78.4169H26.8662L26.0512 73.7474ZM61.2792 78.417C60.3772 78.417 59.714 77.5722 59.9333 76.6983C60.5342 74.3017 60.2729 75.8926 60.9638 69.8558H63.859L62.6799 75.5571C62.5784 76.0478 62.883 76.531 63.3705 76.6525L66.2811 77.3783C66.8655 77.524 67.3366 77.911 67.599 78.417H61.2792Z" fill="url(#paint0_linear_86_297)"/>
<path d="M51.5751 31.0672C51.7081 32.9039 52.4633 34.6056 53.7201 35.957C52.8801 39.3894 51.583 42.5506 49.8591 45.3591C49.5887 45.7994 49.7276 46.3747 50.1693 46.6442C50.6135 46.9154 51.1895 46.7725 51.4582 46.335C53.1326 43.6073 54.4263 40.572 55.3127 37.2944C55.7823 37.5983 56.2798 37.8533 56.7953 38.0562L57.318 38.4467L55.9411 39.8195C55.3488 40.4099 55.7763 41.415 56.604 41.415C56.8439 41.415 57.0838 41.3238 57.2669 41.1413C67.008 31.4293 49.6474 48.7379 69.285 29.159C71.0522 27.3971 72.0255 25.0546 72.0255 22.5628C72.0255 22.0467 71.6058 21.6282 71.0881 21.6282C70.5704 21.6282 70.1507 22.0467 70.1507 22.5628C70.1507 24.5552 69.3725 26.4285 67.9594 27.8373L63.8885 31.896C63.8885 29.7254 64.0487 28.4869 63.0978 26.8174C61.4861 23.9856 57.8372 22.9427 54.8919 24.4202C53.4814 22.0166 49.809 22.345 48.8773 24.9749L48.2485 26.7557C47.4754 28.9367 49.207 31.1995 51.5751 31.0672ZM61.1663 27.2888C60.2851 28.5141 58.8618 29.2331 57.3382 29.2537C55.9699 29.2727 56.0622 31.1252 57.2711 31.1252C59.0292 31.1252 60.7293 30.4414 61.9765 29.2147C62.0264 29.5787 62.0134 29.3471 62.0134 33.7651L59.0433 36.7263C57.8208 36.5601 56.7146 36.0685 55.8227 35.3602L56.6117 33.408C56.8232 32.8846 56.525 32.279 55.9494 32.1483C55.5082 32.0478 55.0468 32.2776 54.8724 32.7094L54.4212 33.8263C53.7769 32.8357 53.4263 31.6904 53.4263 30.48C53.4263 30.3611 53.413 30.3932 53.4925 30.329C53.9917 29.9258 54.3341 29.4067 54.5195 28.8855C55.1478 27.1075 55.2727 26.841 55.3196 26.3268C57.199 25.1066 59.7799 25.4903 61.1663 27.2888ZM50.0164 27.3773L50.6452 25.5963C50.8497 25.0194 51.4107 24.6571 52.0124 24.6571C52.9966 24.6571 53.6991 25.5822 53.3801 26.484C52.7693 28.2128 52.7289 28.6619 52.1292 29.0042C50.9309 29.6782 49.5973 28.5608 50.0164 27.3773Z" fill="url(#paint1_linear_86_297)"/>
<path d="M47.8326 49.7458C48.2352 50.0685 48.8287 50.0021 49.1538 49.5989C49.2015 49.5398 49.2492 49.4805 49.2969 49.4202C49.6175 49.015 49.5479 48.4273 49.1414 48.1076C48.7349 47.7879 48.1453 47.8573 47.8248 48.2627C47.7808 48.3184 47.7367 48.373 47.686 48.4358C47.3616 48.8382 47.4291 49.4223 47.8326 49.7458Z" fill="#F754E7"/>
</g>
<circle cx="51.5" cy="51.5" r="51" stroke="url(#paint2_linear_86_297)" stroke-opacity="0.35"/>
<path d="M90.9513 84.6036C95.7944 78.8318 99.312 72.0677 101.256 64.7884C103.2 57.509 103.523 49.8918 102.203 42.4739C100.882 35.0561 97.9503 28.0183 93.6135 21.8571C89.2767 15.6959 83.6409 10.5613 77.1035 6.81545L76.3354 8.15599C82.6767 11.7894 88.1434 16.77 92.3501 22.7464C96.5568 28.7228 99.4009 35.5494 100.682 42.7447C101.963 49.94 101.649 57.3288 99.7634 64.3897C97.8776 71.4507 94.4655 78.0119 89.7678 83.6105L90.9513 84.6036Z" fill="url(#paint3_linear_86_297)"/>
<defs>
<linearGradient id="paint0_linear_86_297" x1="19.0005" y1="21.6279" x2="84.0054" y2="25.5423" gradientUnits="userSpaceOnUse">
<stop stop-color="#7775E7"/>
<stop offset="0.6417" stop-color="#A93CF6"/>
<stop offset="1" stop-color="#C41DFF"/>
</linearGradient>
<linearGradient id="paint1_linear_86_297" x1="48.062" y1="21.6282" x2="74.0369" y2="23.0849" gradientUnits="userSpaceOnUse">
<stop stop-color="#7775E7"/>
<stop offset="0.6417" stop-color="#A93CF6"/>
<stop offset="1" stop-color="#C41DFF"/>
</linearGradient>
<linearGradient id="paint2_linear_86_297" x1="0" y1="0" x2="111.61" y2="6.57038" gradientUnits="userSpaceOnUse">
<stop stop-color="#7775E7"/>
<stop offset="0.6417" stop-color="#A93CF6"/>
<stop offset="1" stop-color="#C41DFF"/>
</linearGradient>
<linearGradient id="paint3_linear_86_297" x1="0" y1="0" x2="111.61" y2="6.57038" gradientUnits="userSpaceOnUse">
<stop stop-color="#7775E7"/>
<stop offset="0.6417" stop-color="#A93CF6"/>
<stop offset="1" stop-color="#C41DFF"/>
</linearGradient>
<clipPath id="clip0_86_297">
<rect width="60" height="59.8206" fill="white" transform="translate(19 21.0469)"/>
</clipPath>
</defs>
</svg>
