<svg width="36" height="53" viewBox="0 0 36 53" fill="none" xmlns="http://www.w3.org/2000/svg">
<path d="M29.4545 0H6.54545C2.93011 0 0 2.96572 0 6.625V46.375C0 50.0343 2.93011 53 6.54545 53H29.4545C33.0699 53 36 50.0343 36 46.375V6.625C36 2.96572 33.0648 0 29.4545 0ZM18 49.6875C16.1847 49.6875 14.7273 48.2124 14.7273 46.375C14.7273 44.5376 16.1847 43.0625 18 43.0625C19.8153 43.0625 21.2727 44.5376 21.2727 46.375C21.2727 48.2124 19.8205 49.6875 18 49.6875ZM29.4545 6.625V39.75H6.54545V6.625H29.4545Z" fill="white"/>
</svg>
