<svg width="16" height="19" viewBox="0 0 16 19" fill="none" xmlns="http://www.w3.org/2000/svg">
<rect x="1" width="14" height="1" fill="#3EA491"/>
<rect x="1" y="1" width="14" height="1" fill="#229781"/>
<rect x="2" y="2" width="14" height="1" transform="rotate(90 2 2)" fill="#229781"/>
<rect x="15" y="2" width="14" height="1" transform="rotate(90 15 2)" fill="#229781"/>
<rect x="1" y="16" width="14" height="1" fill="#229781"/>
<rect x="1" y="17" width="14" height="1" fill="#3EA491"/>
<rect y="17" width="16" height="1" transform="rotate(-90 0 17)" fill="#3EA491"/>
<rect x="15" y="17" width="16" height="1" transform="rotate(-90 15 17)" fill="#3EA491"/>
<rect x="1" y="18" width="14" height="1" fill="#A1CFC7"/>
<rect x="15" y="17" width="1" height="1" fill="#A1CFC7"/>
<rect y="17" width="1" height="1" fill="#A1CFC7"/>
<rect x="15" width="1" height="1" fill="#D9E8E5"/>
<rect x="15" width="1" height="1" fill="#D9E8E5"/>
<rect x="3" y="2" width="10" height="1" fill="#D9E8E5"/>
<rect x="14" y="9" width="7" height="1" transform="rotate(90 14 9)" fill="#76BDAF"/>
<rect x="5" y="9" width="1" height="2" transform="rotate(90 5 9)" fill="#76BDAF"/>
<rect x="3" y="12" width="1" height="3" transform="rotate(-180 3 12)" fill="#76BDAF"/>
<rect x="3" y="16" width="1" height="3" transform="rotate(-180 3 16)" fill="#76BDAF"/>
<rect x="9" y="9" width="1" height="2" transform="rotate(90 9 9)" fill="#76BDAF"/>
<rect x="9" y="15" width="1" height="2" transform="rotate(90 9 15)" fill="#76BDAF"/>
<rect x="5" y="15" width="1" height="2" transform="rotate(90 5 15)" fill="#76BDAF"/>
<rect x="12" y="9" width="7" height="1" transform="rotate(90 12 9)" fill="#D9E8E5"/>
<rect x="3" y="2" width="5" height="1" transform="rotate(90 3 2)" fill="#A1CFC7"/>
<rect x="14" y="2" width="5" height="1" transform="rotate(90 14 2)" fill="#A1CFC7"/>
<rect x="12" y="9" width="7" height="1" transform="rotate(90 12 9)" fill="#A1CFC7"/>
<rect x="13" y="15" width="1" height="1" transform="rotate(90 13 15)" fill="#A1CFC7"/>
<rect x="13" y="9" width="1" height="1" transform="rotate(90 13 9)" fill="#A1CFC7"/>
<rect x="3" y="6" width="10" height="1" fill="#D9E8E5"/>
<rect width="1" height="1" fill="#D9E8E5"/>
<rect x="2" y="7" width="12" height="2" fill="#229781"/>
<rect x="11" y="8" width="8" height="2" transform="rotate(90 11 8)" fill="#229781"/>
<rect x="7" y="8" width="8" height="2" transform="rotate(90 7 8)" fill="#229781"/>
<rect x="2" y="12" width="8" height="1" fill="#229781"/>
</svg>
