<svg width="13" height="13" viewBox="0 0 13 13" fill="none" xmlns="http://www.w3.org/2000/svg">
<path d="M12.5328 4.13867C11.9011 3.64051 11.3775 3.24061 8.36113 1.05117C7.93965 0.74166 7.10176 0 6.51016 0H6.48984C5.89824 0 5.06035 0.74166 4.63633 1.05066C1.61992 3.24061 1.09687 3.61766 0.464648 4.13816C0.171387 4.36719 0 4.72266 0 5.09844V11.7812C0 12.4541 0.545644 13 1.21875 13H11.7812C12.4544 13 13 12.4544 13 11.8041V5.09844C13 4.72266 12.8299 4.36719 12.5328 4.13867ZM7.69844 9.33105C7.34043 9.61035 6.91895 9.75 6.5 9.75C6.08105 9.75 5.66059 9.61076 5.30258 9.33182L1.625 6.47207V5.29395C2.16227 4.87271 2.80516 4.38852 5.59609 2.36133C5.67684 2.30222 5.77106 2.22963 5.87488 2.14924C6.01504 2.04242 6.2918 1.82736 6.5 1.69711C6.70838 1.82739 6.98598 2.04242 7.12486 2.15008C7.22871 2.23046 7.32294 2.30311 7.40797 2.36534C10.1791 4.37988 10.8316 4.86738 11.375 5.29395V6.47004L7.69844 9.33105Z" fill="#869596"/>
<rect x="4.00195" y="2.62256" width="5.63916" height="3.22238" transform="rotate(40.5267 4.00195 2.62256)" fill="#869596"/>
<rect width="6.555" height="3.65328" transform="matrix(-0.760103 0.649802 0.649802 0.760103 8.92969 1.85718)" fill="#869596"/>
<rect width="4.01479" height="2.23755" transform="matrix(-0.760103 0.649802 0.649802 0.760103 6.76562 0.928467)" fill="#869596"/>
</svg>
