<svg width="13" height="13" viewBox="0 0 13 13" fill="none" xmlns="http://www.w3.org/2000/svg">
<path d="M12.9809 9.82582L12.3905 12.3851C12.3076 12.7469 11.9896 13 11.6171 13C5.21065 12.9995 0 7.7896 0 1.38387C0 1.01166 0.253143 0.693278 0.615019 0.610763L3.17464 0.0204609C3.54741 -0.0659136 3.9283 0.127553 4.0832 0.480516L5.26448 3.23526C5.40257 3.55974 5.30943 3.93778 5.03645 4.1607L3.66929 5.25828C4.53215 7.01573 5.96127 8.44464 7.71948 9.30788L8.8388 7.94194C9.05942 7.66824 9.44037 7.57354 9.76489 7.71407L12.52 8.89492C12.8514 9.06922 13.0673 9.45514 12.9809 9.82582Z" fill="#869596"/>
</svg>
