<svg width="18" height="18" viewBox="0 0 18 18" fill="none" xmlns="http://www.w3.org/2000/svg">
<path d="M17.5887 15.5972L13.3805 11.3894C14.3374 9.96889 14.8096 8.19404 14.5568 6.30283C14.1258 3.08603 11.4891 0.468219 8.26874 0.0605557C3.48079 -0.545227 -0.545316 3.48044 0.060569 8.26786C0.468383 11.4892 3.08683 14.1278 6.30434 14.5566C8.19576 14.8093 9.97115 14.3374 11.3915 13.3804L15.5997 17.5882C16.1488 18.1373 17.0393 18.1373 17.5885 17.5882C18.1371 17.0384 18.1371 16.1455 17.5887 15.5972ZM2.78083 7.31171C2.78083 4.83064 4.79951 2.81219 7.28085 2.81219C9.76218 2.81219 11.7809 4.83064 11.7809 7.31171C11.7809 9.79277 9.76218 11.8112 7.28085 11.8112C4.79951 11.8112 2.78083 9.79347 2.78083 7.31171Z" fill="#229781"/>
</svg>
