<svg width="37" height="24" viewBox="0 0 37 24" fill="none" xmlns="http://www.w3.org/2000/svg">
<path fill-rule="evenodd" clip-rule="evenodd" d="M0 2C0 1.17157 0.671573 0.5 1.5 0.5H35.5C36.3284 0.5 37 1.17157 37 2C37 2.82843 36.3284 3.5 35.5 3.5H1.5C0.671573 3.5 0 2.82843 0 2Z" fill="white"/>
<path fill-rule="evenodd" clip-rule="evenodd" d="M0 12C0 11.1716 0.671573 10.5 1.5 10.5H35.5C36.3284 10.5 37 11.1716 37 12C37 12.8284 36.3284 13.5 35.5 13.5H1.5C0.671573 13.5 0 12.8284 0 12Z" fill="white"/>
<path fill-rule="evenodd" clip-rule="evenodd" d="M0 22C0 21.1716 0.671573 20.5 1.5 20.5H35.5C36.3284 20.5 37 21.1716 37 22C37 22.8284 36.3284 23.5 35.5 23.5H1.5C0.671573 23.5 0 22.8284 0 22Z" fill="white"/>
</svg>
