<svg width="35" height="35" viewBox="0 0 35 35" fill="none" xmlns="http://www.w3.org/2000/svg">
<path d="M17.4375 0.0625C7.80469 0.0625 0 7.9375 0 17.5C0 27.1328 7.80469 34.9375 17.4375 34.9375C27 34.9375 34.875 27.1328 34.875 17.5C34.875 7.9375 27 0.0625 17.4375 0.0625ZM25.4531 11.9453C25.2422 14.6875 24.1172 21.4375 23.4844 24.4609C23.2734 25.7969 22.7812 26.2188 22.2891 26.2891C21.3047 26.3594 20.5312 25.5859 19.5469 24.9531C18 23.9688 17.1562 23.3359 15.6797 22.3516C13.9219 21.2266 15.0469 20.5938 16.0312 19.6094C16.3125 19.3281 20.7422 15.25 20.8125 14.8984C20.8828 14.8281 20.8828 14.6875 20.7422 14.5469C20.6719 14.4766 20.5312 14.5469 20.3906 14.5469C20.25 14.5469 17.7891 16.1641 13.0781 19.3984C12.375 19.8906 11.7422 20.1016 11.1797 20.1016C10.5469 20.1016 9.35156 19.75 8.4375 19.4688C7.38281 19.1172 6.46875 18.9062 6.53906 18.3438C6.60938 17.9922 7.03125 17.7109 7.875 17.3594C12.9375 15.1094 16.3125 13.7031 18 13C22.8516 10.9609 23.9062 10.6094 24.5391 10.6094C24.6797 10.6094 25.0312 10.6094 25.2422 10.8203C25.3125 10.8906 25.4531 11.1016 25.4531 11.2422C25.5234 11.5234 25.5234 11.7344 25.4531 11.9453Z" fill="white"/>
</svg>
