<svg width="32" height="33" viewBox="0 0 32 33" fill="none" xmlns="http://www.w3.org/2000/svg">
<path d="M2.17969 3C0 5.17969 0 8.76562 0 15.9375V17.1328C0 24.3047 0 27.8906 2.17969 30.0703C4.35938 32.25 7.94531 32.25 15.1172 32.25H16.3125C23.4844 32.25 27.0703 32.25 29.25 30.0703C31.5 27.8906 31.5 24.3047 31.5 17.1328V15.9375C31.5 8.76562 31.5 5.17969 29.25 3C27.0703 0.75 23.4844 0.75 16.3125 0.75H15.1172C7.94531 0.75 4.35938 0.75 2.17969 3ZM5.27344 10.3828H8.85938C9 16.3594 11.6719 18.8906 13.7812 19.4531V10.3828H17.1562V15.5156C19.1953 15.3047 21.375 12.9844 22.1484 10.3828H25.5234C25.2422 11.7188 24.6797 12.9844 23.9062 14.1094C23.0625 15.2344 22.0781 16.2188 20.8828 16.9219C22.2188 17.5547 23.3438 18.4688 24.3281 19.5938C25.2422 20.7188 25.9453 22.0547 26.2969 23.4609H22.5703C22.2188 22.2656 21.5156 21.1406 20.5312 20.2969C19.6172 19.4531 18.4219 18.9609 17.1562 18.8203V23.4609H16.7344C9.5625 23.4609 5.48438 18.5391 5.27344 10.3828Z" fill="white"/>
</svg>
