<svg width="32" height="33" viewBox="0 0 32 33" fill="none" xmlns="http://www.w3.org/2000/svg">
<path d="M15.75 7.14844C10.6172 7.14844 6.46875 11.2969 6.46875 16.4297C6.46875 18.1875 6.96094 19.875 7.875 21.3516L8.08594 21.7031L7.17188 25.1484L10.6875 24.2344L10.9688 24.4453C12.4453 25.2891 14.0625 25.7109 15.6797 25.7109H15.75C20.8125 25.7109 25.1016 21.5625 25.1016 16.4297C25.1016 13.9688 24.0469 11.6484 22.2891 9.89062C20.5312 8.13281 18.2109 7.14844 15.75 7.14844ZM21.1641 20.4375C20.9531 21.0703 19.8281 21.6328 19.2656 21.7031C18.4219 21.8438 17.7188 21.7734 15.9609 21.0703C13.1484 19.8047 11.3203 16.9922 11.1797 16.8516C11.0391 16.6406 10.0547 15.3047 10.0547 13.9688C10.0547 12.5625 10.7578 11.9297 11.0391 11.6484C11.25 11.3672 11.6016 11.2969 11.7422 11.2969C11.9531 11.2969 12.1641 11.2969 12.3047 11.2969C12.4453 11.2969 12.7266 11.2266 12.9375 11.7891C13.1484 12.2812 13.7109 13.6875 13.7812 13.8281C13.8516 13.9688 13.9219 14.1094 13.7812 14.3203C13.2891 15.375 12.7266 15.3047 13.0078 15.7969C14.0625 17.6953 15.1172 18.3281 16.8047 19.1719C17.0859 19.3125 17.2266 19.2422 17.3672 19.1016C17.5781 18.8906 18.0703 18.2578 18.2812 17.9766C18.4219 17.6953 18.6328 17.7656 18.9141 17.8359C19.125 17.9062 20.5312 18.6094 20.8125 18.75C21.0938 18.8906 21.2344 18.9609 21.3047 19.1016C21.375 19.1719 21.375 19.7344 21.1641 20.4375ZM28.125 0.75H3.375C1.47656 0.75 0 2.29688 0 4.125V28.875C0 30.7734 1.47656 32.25 3.375 32.25H28.125C29.9531 32.25 31.5 30.7734 31.5 28.875V4.125C31.5 2.29688 29.9531 0.75 28.125 0.75ZM15.6797 27.6094C13.8516 27.6094 12.0234 27.1172 10.4062 26.2031L4.5 27.75L6.04688 21.9844C5.0625 20.2969 4.57031 18.3984 4.57031 16.4297C4.57031 10.3125 9.5625 5.25 15.6797 5.25C18.7031 5.25 21.5156 6.44531 23.625 8.55469C25.7344 10.6641 27 13.4766 27 16.4297C27 22.6172 21.8672 27.6094 15.6797 27.6094Z" fill="white"/>
</svg>
