<svg width="90" height="90" viewBox="0 0 90 90" fill="none" xmlns="http://www.w3.org/2000/svg">
<path d="M42.1407 26.7882C44.8814 23.7105 45.6146 20.0668 44.3227 15.9598C43.256 12.5682 40.5886 9.71476 36.6106 7.70775C33.1492 5.96187 28.9545 5 24.8012 5C18.2579 5 13.1075 7.39408 11.0226 11.4054C8.50833 16.2427 9.53899 21.053 10.6018 23.8821C9.70946 23.9323 9 24.6589 9 25.5497V40.8147C9 43.1207 10.9055 44.9966 13.248 44.9966C15.5917 44.9966 17.4973 43.1207 17.4973 40.8147V25.5497C17.4973 24.6258 16.7356 23.8772 15.797 23.8772H15.1846C15.6152 21.4096 16.6136 17.7731 18.5041 16.1447C20.3723 14.5373 22.7484 14.1991 24.4138 14.1991C28.81 14.1991 33.0953 16.5589 33.7701 19.3501C34.1834 21.0567 31.6504 22.5209 28.0284 24.4017C24.6802 26.1402 21.2201 27.9377 21.128 31.0032C21.0372 34.0235 24.5222 36.0989 27.8927 38.1059C29.4448 39.0298 31.0492 39.9854 31.9877 40.8651C32.4706 41.3172 32.615 41.5966 32.6585 41.7228C32.6821 41.7915 32.6934 41.8233 32.6212 41.9471C31.9441 43.1111 30.4517 44.5644 28.8723 46.1016C26.0407 48.856 23.1133 51.706 22.6938 54.8133C22.303 57.7047 25.8441 60.6159 30.89 64.4143C31.9828 65.2373 33.3146 66.242 33.8013 66.7321C33.7827 67.3399 33.566 69.337 32.1384 75.512C31.2236 79.4648 30.2639 83.1748 30.2553 83.2092C30.0499 84.0031 30.457 84.8263 31.2174 85.1545C31.439 85.2501 31.6705 85.2966 31.9007 85.2966C32.4596 85.2966 33.001 85.0247 33.3233 84.5398C33.3507 84.498 36.0505 80.4277 38.638 75.9482C43.4935 67.5408 43.8582 64.8945 43.6341 63.5271C43.1574 60.6281 39.8728 58.5181 36.9739 56.6607C36.1462 56.1265 34.9738 55.3765 34.4211 54.8918C34.7808 54.431 35.4852 53.7155 36.079 53.1126C38.5547 50.5984 42.2973 46.8025 43.4088 41.3663C44.3249 36.8918 38.9404 33.4636 35.6893 31.4051C37.5553 30.4431 40.1466 29.028 42.1407 26.7882ZM14.0982 40.8146C14.0982 41.2754 13.7172 41.6515 13.248 41.6515C12.7799 41.6515 12.3992 41.2754 12.3992 40.8146V27.2231H14.0982V40.8146ZM33.6981 28.6543C33.0807 28.9704 32.5916 29.2203 32.2144 29.4642C30.5403 30.5399 31.1067 31.8532 31.236 32.1057C31.5896 32.7894 32.2853 33.2293 33.8075 34.1924C35.9931 35.5744 40.5387 38.4512 40.0781 40.7056C39.1633 45.1779 35.9708 48.4171 33.6394 50.7844C31.9057 52.5414 30.7605 53.7055 30.8463 55.1317C30.9446 56.783 32.6946 57.9055 35.1181 59.4639C37.0786 60.7211 40.042 62.6228 40.2786 64.0611C40.3072 64.2375 40.4267 65.982 36.0293 73.6914C37.5315 66.8054 37.2428 66.0653 37.0276 65.5163C36.6592 64.5757 35.5787 63.7327 32.955 61.7575C31.3482 60.5469 29.526 59.1746 28.1108 57.8562C26.1642 56.0379 26.0682 55.315 26.0646 55.2443C26.3397 53.2691 28.9547 50.7256 31.2623 48.4808C33.0111 46.7778 34.664 45.1693 35.5714 43.6094C36.1166 42.6709 36.2224 41.6464 35.8776 40.6455C35.6174 39.8946 35.112 39.1728 34.3317 38.4414C33.1256 37.3104 31.3594 36.2592 29.6517 35.2424C28.2377 34.4007 26.7766 33.5307 25.7547 32.6852C24.5985 31.7282 24.5212 31.2309 24.525 31.1009C24.5587 29.9861 27.4811 28.4692 29.6145 27.3602C31.4889 26.3874 33.4269 25.3816 34.8694 24.1453C36.8235 22.4728 37.5666 20.5983 37.0775 18.5753C36.5372 16.344 34.8396 14.3226 32.2954 12.8841C29.9779 11.5742 27.1786 10.854 24.4142 10.854C21.1917 10.854 18.375 11.812 16.2678 13.6267C14.8913 14.8116 13.7735 16.6186 12.9334 19.0129C12.7567 17.1492 12.962 15.0186 14.0486 12.9296C15.5397 10.0589 19.5601 8.34591 24.8013 8.34591C28.3735 8.34591 32.1125 9.19878 35.0598 10.6849C37.2541 11.7913 40.0783 13.7761 41.0766 16.9483C42.009 19.9121 41.521 22.4091 39.5855 24.5828C37.8564 26.5235 35.3534 27.8064 33.6981 28.6543Z" fill="url(#paint0_linear_86_539)"/>
<path d="M61.6778 55.1857L62.1907 54.5166C62.3076 54.3623 65.0784 50.6571 65.0784 44.9391C65.0784 39.1595 62.2405 35.8342 62.121 35.6957L61.6131 35.1113H54.882L54.3717 35.7802C54.2548 35.9346 51.4814 39.6362 51.4814 45.1484C51.4814 50.6618 54.2546 54.3621 54.3717 54.5165L54.882 55.1855H56.5798V75.5486C54.6032 76.2373 53.1843 78.0972 53.1843 80.2781C53.1843 83.0448 55.4696 85.2965 58.2826 85.2965C61.0904 85.2965 63.3806 83.0448 63.3806 80.2781C63.3806 78.0972 61.9566 76.2371 59.98 75.5486V55.1857H61.6778ZM56.6695 38.4576H59.9452C60.1394 38.7638 60.3758 39.1854 60.6124 39.7147C61.1327 40.8835 61.4638 42.1443 61.6032 43.4761H54.9916C55.2904 41.1457 56.1467 39.3655 56.6695 38.4576ZM59.98 80.2783C59.98 81.1997 59.2186 81.9495 58.2826 81.9495C57.3441 81.9495 56.5798 81.1997 56.5798 80.2783C56.5798 79.3569 57.3441 78.607 58.2826 78.607C59.2186 78.607 59.98 79.3569 59.98 80.2783ZM59.8907 51.8382H56.662C56.1367 50.9364 55.2853 49.1672 54.9865 46.8208H61.5534C61.2397 49.1745 60.4032 50.9364 59.8907 51.8382Z" fill="url(#paint1_linear_86_539)"/>
<path d="M76.9748 55.1857L77.4877 54.5166C77.6046 54.3623 80.3751 50.6571 80.3751 44.9391C80.3751 39.1595 77.5374 35.8342 77.4179 35.6957L76.91 35.1113H70.1786L69.6686 35.7802C69.5516 35.9346 66.7783 39.6362 66.7783 45.1484C66.7783 50.6618 69.5515 54.3621 69.6686 54.5165L70.1786 55.1855H71.8763V75.5486C69.9001 76.2373 68.481 78.0972 68.481 80.2781C68.481 83.0448 70.766 85.2965 73.579 85.2965C76.3871 85.2965 78.6773 83.0448 78.6773 80.2781C78.6773 78.0972 77.2533 76.2371 75.2767 75.5486V55.1857H76.9748ZM71.9662 38.4576H75.2422C75.4364 38.7638 75.6728 39.1854 75.9094 39.7147C76.4298 40.8835 76.7608 42.1443 76.9002 43.4761H70.2884C70.5871 41.1457 71.4434 39.3655 71.9662 38.4576ZM75.2771 80.2783C75.2771 81.1997 74.5153 81.9495 73.5793 81.9495C72.6407 81.9495 71.8765 81.1997 71.8765 80.2783C71.8765 79.3569 72.6407 78.607 73.5793 78.607C74.5153 78.607 75.2771 79.3569 75.2771 80.2783ZM75.1874 51.8382H71.9587C71.4334 50.9364 70.582 49.1672 70.2833 46.8208H76.8504C76.5367 49.1745 75.7002 50.9364 75.1874 51.8382Z" fill="url(#paint2_linear_86_539)"/>
<path d="M66.778 5C59.2976 5 53.2085 10.9804 53.186 18.3391C53.186 18.3465 53.186 18.3538 53.186 18.3612C53.186 18.3686 53.186 18.376 53.186 18.3833C53.186 25.7618 59.2851 31.7652 66.778 31.7652C74.2759 31.7652 80.3746 25.7618 80.3746 18.3833C80.3746 18.376 80.3746 18.3686 80.3746 18.3612C80.3746 18.3538 80.3746 18.3463 80.3746 18.3391C80.3497 10.9804 74.2609 5 66.778 5ZM66.778 28.4203C62.0829 28.4203 58.1201 25.2776 56.9402 21.0174C58.9317 21.44 62.0033 21.728 66.778 21.728C71.0695 21.728 74.3755 21.4879 76.6208 21.0136C75.4408 25.2764 71.4777 28.4203 66.778 28.4203ZM66.778 18.3832C60.2608 18.3832 57.6098 17.806 56.6264 17.4753C57.0945 12.3648 61.4681 8.34607 66.778 8.34607C72.0901 8.34607 76.4666 12.3648 76.9345 17.4753C75.9486 17.806 73.3 18.3832 66.778 18.3832Z" fill="url(#paint3_linear_86_539)"/>
<defs>
<linearGradient id="paint0_linear_86_539" x1="9" y1="5" x2="48.0535" y2="6.02907" gradientUnits="userSpaceOnUse">
<stop stop-color="#7775E7"/>
<stop offset="0.6417" stop-color="#A93CF6"/>
<stop offset="1" stop-color="#C41DFF"/>
</linearGradient>
<linearGradient id="paint1_linear_86_539" x1="51.4814" y1="35.1113" x2="66.2622" y2="35.3471" gradientUnits="userSpaceOnUse">
<stop stop-color="#7775E7"/>
<stop offset="0.6417" stop-color="#A93CF6"/>
<stop offset="1" stop-color="#C41DFF"/>
</linearGradient>
<linearGradient id="paint2_linear_86_539" x1="66.7783" y1="35.1113" x2="81.5589" y2="35.3471" gradientUnits="userSpaceOnUse">
<stop stop-color="#7775E7"/>
<stop offset="0.6417" stop-color="#A93CF6"/>
<stop offset="1" stop-color="#C41DFF"/>
</linearGradient>
<linearGradient id="paint3_linear_86_539" x1="53.186" y1="5" x2="82.644" y2="6.7616" gradientUnits="userSpaceOnUse">
<stop stop-color="#7775E7"/>
<stop offset="0.6417" stop-color="#A93CF6"/>
<stop offset="1" stop-color="#C41DFF"/>
</linearGradient>
</defs>
</svg>
