<svg width="262" height="628" viewBox="0 0 262 628" fill="none" xmlns="http://www.w3.org/2000/svg">
<g opacity="0.3">
<path d="M-225.143 216.6C-222.899 188.297 -202.686 164.657 -175.075 158.045L-13.275 119.296C14.3363 112.684 43.0653 124.603 57.8865 148.819L144.738 290.726C159.559 314.942 157.101 345.949 138.65 367.528L30.5268 493.98C12.0755 515.559 -18.1725 522.803 -44.3973 511.923L-198.072 448.167C-224.297 437.288 -240.533 410.758 -238.29 382.455L-225.143 216.6Z" fill="url(#paint0_radial_180_9)"/>
<path d="M-225.143 216.6C-222.899 188.297 -202.686 164.657 -175.075 158.045L-13.275 119.296C14.3363 112.684 43.0653 124.603 57.8865 148.819L144.738 290.726C159.559 314.942 157.101 345.949 138.65 367.528L30.5268 493.98C12.0755 515.559 -18.1725 522.803 -44.3973 511.923L-198.072 448.167C-224.297 437.288 -240.533 410.758 -238.29 382.455L-225.143 216.6Z" fill="url(#paint1_linear_180_9)"/>
</g>
<circle cx="34.5" cy="126.5" r="14.5" fill="url(#paint2_radial_180_9)"/>
<defs>
<radialGradient id="paint0_radial_180_9" cx="0" cy="0" r="1" gradientUnits="userSpaceOnUse" gradientTransform="translate(-43.5912 236.865) rotate(87.5028) scale(289.328 675.237)">
<stop stop-color="white"/>
<stop offset="0.367826" stop-color="#E8B4E2"/>
<stop offset="1" stop-color="#7775E7"/>
</radialGradient>
<linearGradient id="paint1_linear_180_9" x1="25.2493" y1="289.212" x2="167.997" y2="246.947" gradientUnits="userSpaceOnUse">
<stop stop-color="white"/>
<stop offset="1" stop-color="white" stop-opacity="0"/>
</linearGradient>
<radialGradient id="paint2_radial_180_9" cx="0" cy="0" r="1" gradientUnits="userSpaceOnUse" gradientTransform="translate(30.5 127) rotate(37.9716) scale(26.0048 32.448)">
<stop stop-color="white"/>
<stop offset="0.367826" stop-color="#E8B4E2"/>
<stop offset="1" stop-color="#7775E7"/>
</radialGradient>
</defs>
</svg>
