<svg width="50" height="50" viewBox="0 0 50 50" fill="none" xmlns="http://www.w3.org/2000/svg">
<g clip-path="url(#clip0_86_453)">
<path d="M46.6749 25.6478C46.4738 25.2362 46.4738 24.7641 46.6749 24.3526L48.5398 20.5377C49.578 18.4135 48.7554 15.8818 46.6669 14.7737L42.916 12.7835C42.5113 12.5689 42.2338 12.1868 42.1546 11.7358L41.4211 7.55326C41.0126 5.22457 38.8585 3.65973 36.518 3.99088L32.3136 4.58561C31.8598 4.64967 31.4111 4.50377 31.0819 4.18531L28.03 1.23299C26.3307 -0.410947 23.6686 -0.411045 21.9694 1.23299L18.9175 4.18561C18.5882 4.50416 18.1395 4.64977 17.6857 4.5859L13.4814 3.99118C11.1401 3.65983 8.98677 5.22486 8.57828 7.55356L7.84469 11.7359C7.76549 12.187 7.48805 12.569 7.08346 12.7837L3.33251 14.7739C1.24404 15.8819 0.421391 18.4138 1.45967 20.538L3.3244 24.3528C3.52557 24.7644 3.52557 25.2365 3.3244 25.648L1.45957 29.4628C0.421293 31.5869 1.24394 34.1186 3.33241 35.2267L7.08336 37.217C7.48805 37.4316 7.76549 37.8136 7.84469 38.2647L8.57828 42.4472C8.95015 44.5671 10.7679 46.0538 12.8571 46.0536C13.0628 46.0536 13.2716 46.0392 13.4815 46.0095L17.6858 45.4148C18.1393 45.3504 18.5883 45.4966 18.9176 45.815L21.9694 48.7674C22.8192 49.5894 23.9092 50.0004 24.9997 50.0003C26.0898 50.0002 27.1805 49.5892 28.0299 48.7674L31.0819 45.815C31.4111 45.4966 31.86 45.3511 32.3136 45.4148L36.518 46.0095C38.8595 46.3407 41.0126 44.7758 41.4211 42.4471L42.1547 38.2648C42.2339 37.8136 42.5114 37.4317 42.916 37.217L46.6669 35.2267C48.7554 34.1187 49.578 31.5868 48.5398 29.4627L46.6749 25.6478ZM45.3153 32.6792L41.5643 34.6694C40.3684 35.3041 39.5482 36.4328 39.3143 37.7664L38.5807 41.9488C38.4426 42.7366 37.7141 43.2658 36.9219 43.154L32.7175 42.5593C31.3767 42.3694 30.0499 42.8009 29.0768 43.7422L26.0249 46.6944C25.4501 47.2505 24.5494 47.2505 23.9744 46.6944L20.9225 43.7421C20.1001 42.9465 19.0249 42.5154 17.9024 42.5154C17.6968 42.5154 17.4895 42.5298 17.2818 42.5592L13.0775 43.1539C12.2859 43.2658 11.5569 42.7365 11.4186 41.9487L10.6849 37.7662C10.4509 36.4326 9.63081 35.3038 8.43482 34.6693L4.68387 32.6791C3.97723 32.3042 3.69891 31.4477 4.05018 30.729L5.91501 26.9141C6.50954 25.6977 6.50954 24.3026 5.91501 23.0862L4.05018 19.2713C3.69891 18.5526 3.97723 17.6961 4.68387 17.3212L8.43482 15.331C9.63071 14.6963 10.4509 13.5676 10.6848 12.234L11.4184 8.0516C11.5567 7.26371 12.285 6.73442 13.0773 6.84633L17.2816 7.44106C18.622 7.6308 19.9492 7.19946 20.9223 6.25815L23.9743 3.30583C24.5491 2.74978 25.4498 2.74978 26.0248 3.30583L29.0766 6.25815C30.0497 7.19955 31.3768 7.6308 32.7173 7.44106L36.9217 6.84633C37.7134 6.73432 38.4424 7.26371 38.5805 8.0516L39.3141 12.2341C39.5481 13.5677 40.3682 14.6965 41.5642 15.331L45.3152 17.3212C46.0218 17.6961 46.3001 18.5526 45.9489 19.2713L44.084 23.0861C43.4895 24.3024 43.4895 25.6977 44.084 26.914L45.9489 30.7288C46.3002 31.4477 46.0219 32.3043 45.3153 32.6792Z" fill="white"/>
<path d="M35.536 14.4648C34.973 13.9017 34.0599 13.9017 33.4968 14.4648L14.4648 33.4969C13.9017 34.06 13.9017 34.973 14.4648 35.5361C14.7463 35.8176 15.1154 35.9584 15.4843 35.9584C15.8533 35.9584 16.2224 35.8177 16.5038 35.5361L35.5359 16.504C36.0991 15.9409 36.0991 15.028 35.536 14.4648Z" fill="white"/>
<path d="M19.2328 12.0229C16.3176 12.0229 13.9458 14.3947 13.9458 17.3099C13.9458 20.2251 16.3176 22.5969 19.2328 22.5969C22.148 22.5969 24.5198 20.2251 24.5198 17.3099C24.5198 14.3947 22.148 12.0229 19.2328 12.0229ZM19.2328 19.713C17.9077 19.713 16.8297 18.635 16.8297 17.3098C16.8297 15.9847 17.9077 14.9067 19.2328 14.9067C20.5579 14.9067 21.636 15.9847 21.636 17.3098C21.6359 18.635 20.5579 19.713 19.2328 19.713Z" fill="white"/>
<path d="M30.7674 27.4033C27.8522 27.4033 25.4805 29.7751 25.4805 32.6903C25.4805 35.6055 27.8522 37.9773 30.7674 37.9773C33.6827 37.9773 36.0544 35.6055 36.0544 32.6903C36.0544 29.7751 33.6827 27.4033 30.7674 27.4033ZM30.7674 35.0934C29.4424 35.0934 28.3642 34.0154 28.3642 32.6903C28.3642 31.3652 29.4423 30.2872 30.7674 30.2872C32.0925 30.2872 33.1706 31.3652 33.1706 32.6903C33.1706 34.0154 32.0925 35.0934 30.7674 35.0934Z" fill="white"/>
</g>
<defs>
<clipPath id="clip0_86_453">
<rect width="50" height="50" fill="white"/>
</clipPath>
</defs>
</svg>
