<svg id="Layer_1" data-name="Layer 1" xmlns="http://www.w3.org/2000/svg" width="90" height="90" viewBox="0 0 90 90"><defs><style>.cls-1,.cls-3{fill:#8f42e5;}.cls-1{opacity:0.1;}.cls-2{fill:#bfa2f9;}.cls-4{fill:#e6dcff;}</style></defs><circle class="cls-1" cx="45" cy="45" r="45"/><path class="cls-2" d="M23.5,36V67.68A1.32,1.32,0,0,0,24.82,69H37.54L45,65.66,52.46,69H65.18a1.32,1.32,0,0,0,1.32-1.32V36Z"/><path class="cls-3" d="M66.31,65H23.69a1.19,1.19,0,0,0-1.19,1.19v3.62A1.19,1.19,0,0,0,23.69,71H37.5L43,68l9.5,3H66.31a1.19,1.19,0,0,0,1.19-1.19V66.19A1.19,1.19,0,0,0,66.31,65Z"/><path class="cls-3" d="M63.84,26H26.07a1.15,1.15,0,0,0-1.13.94L23.08,37a.81.81,0,0,0,.8,1H66a.82.82,0,0,0,.81-1L65,26.94A1.16,1.16,0,0,0,63.84,26Z"/><path class="cls-2" d="M46.86,34.66a5.08,5.08,0,0,1-3.72,0L32.52,29.74c-.65-.3-1-.74-1-1.21V17.08A2.08,2.08,0,0,1,33.58,15H56.42a2.08,2.08,0,0,1,2.08,2.08V28.53c0,.47-.37.91-1,1.21Z"/><path class="cls-4" d="M44,32.79l-5.92,4.94a1.57,1.57,0,0,0-.57,1.2V71h15V38.93a1.57,1.57,0,0,0-.57-1.2L46,32.79A1.57,1.57,0,0,0,44,32.79Z"/><rect class="cls-3" x="41.5" y="43" width="7" height="7" rx="1.56"/><path class="cls-2" d="M43.06,54h3.87a1.56,1.56,0,0,1,1.56,1.56V71a0,0,0,0,1,0,0h-7a0,0,0,0,1,0,0V55.56A1.56,1.56,0,0,1,43.06,54Z"/><rect class="cls-3" x="56.5" y="43" width="6" height="7" rx="1.56"/><rect class="cls-3" x="27.5" y="43" width="6" height="7" rx="1.56"/><rect class="cls-3" x="27.5" y="54" width="6" height="7" rx="1.56"/><rect class="cls-3" x="56.5" y="54" width="6" height="7" rx="1.56"/><path class="cls-3" d="M39.24,26.43V20.2l-1.43.87V19.66l1.43-.85h1.3v7.62Z"/><path class="cls-3" d="M45.77,18.81l-2,7.62H42.45l2-7.62Z"/><path class="cls-3" d="M46.93,26.42V25.31l3.26-2.91a2.2,2.2,0,0,0,.53-.64,1.32,1.32,0,0,0,.15-.58,1.48,1.48,0,0,0-.16-.68,1.25,1.25,0,0,0-.46-.48,1.3,1.3,0,0,0-.66-.17,1.33,1.33,0,0,0-.7.18,1.26,1.26,0,0,0-.48.49,1.31,1.31,0,0,0-.16.65H46.94a2.51,2.51,0,0,1,.34-1.33,2.35,2.35,0,0,1,.94-.88,3,3,0,0,1,1.39-.31,2.63,2.63,0,0,1,1.32.32,2.38,2.38,0,0,1,.91.9,2.55,2.55,0,0,1,.34,1.32,2.46,2.46,0,0,1-.15.92,2.27,2.27,0,0,1-.44.68c-.2.21-.44.44-.73.7l-2.31,2.05-.12-.32h3.75v1.2Z"/></svg>