<svg id="Layer_1" data-name="Layer 1" xmlns="http://www.w3.org/2000/svg" width="90" height="90" viewBox="0 0 90 90"><defs><style>.cls-1,.cls-3{fill:#8f42e5;}.cls-1{opacity:0.1;}.cls-2{fill:#fff;}.cls-4{fill:#bfa2f9;}.cls-5{fill:#e6dcff;}</style></defs><circle class="cls-1" cx="45" cy="45" r="45"/><path class="cls-2" d="M63.66,18.23a4.92,4.92,0,0,0-1.09.06,1.68,1.68,0,0,1-1.79-1A6.37,6.37,0,0,0,49,17.85,1.66,1.66,0,0,1,47.28,19,4.51,4.51,0,1,0,47,28H63.36a4.89,4.89,0,0,0,.3-9.77Z"/><path class="cls-2" d="M37.66,53.23a4.92,4.92,0,0,0-1.09.06,1.68,1.68,0,0,1-1.79-1A6.37,6.37,0,0,0,23,52.85,1.66,1.66,0,0,1,21.28,54,4.51,4.51,0,1,0,21,63H37.36a4.89,4.89,0,0,0,.3-9.77Z"/><path class="cls-3" d="M29.5,23A13.49,13.49,0,0,0,24,48.82V65.69a3.39,3.39,0,0,0,.37,1.53L27.1,72.6a1.13,1.13,0,0,0,1.81.28L35,66.67v-.85l-2.19-1.73a.93.93,0,0,1,0-1.46l1.75-1.39a1.14,1.14,0,0,0,.44-.9,1.16,1.16,0,0,0-.44-.91l-1.75-1.38a.93.93,0,0,1,0-1.46l1.75-1.38A1.15,1.15,0,0,0,35,54.3V48.82A13.49,13.49,0,0,0,29.5,23Zm0,14c-3,0-5.5-2-5.5-4.46s2.46-4.45,5.5-4.45,5.5,2,5.5,4.45S32.54,37,29.5,37Z"/><path class="cls-3" d="M45.5,49A16.5,16.5,0,1,1,62,32.5,16.52,16.52,0,0,1,45.5,49Zm0-30A13.5,13.5,0,1,0,59,32.5,13.52,13.52,0,0,0,45.5,19Z"/><path class="cls-4" d="M48,33H72a0,0,0,0,1,0,0V63.75A2.25,2.25,0,0,1,69.75,66H50.25A2.25,2.25,0,0,1,48,63.75V33A0,0,0,0,1,48,33Z"/><path class="cls-5" d="M52.94,37h4.13a.94.94,0,0,1,.94.94V43a0,0,0,0,1,0,0H52a0,0,0,0,1,0,0V37.94A.94.94,0,0,1,52.94,37Z"/><path class="cls-5" d="M62.94,37h4.13a.94.94,0,0,1,.94.94V43a0,0,0,0,1,0,0H62a0,0,0,0,1,0,0V37.94A.94.94,0,0,1,62.94,37Z"/><path class="cls-3" d="M52,42h6a0,0,0,0,1,0,0v1.22a.78.78,0,0,1-.78.78H52.78a.78.78,0,0,1-.78-.78V42A0,0,0,0,1,52,42Z"/><path class="cls-3" d="M62,42h6a0,0,0,0,1,0,0v1.22a.78.78,0,0,1-.78.78H62.78a.78.78,0,0,1-.78-.78V42A0,0,0,0,1,62,42Z"/><path class="cls-5" d="M52.94,46h4.13a.94.94,0,0,1,.94.94V52a0,0,0,0,1,0,0H52a0,0,0,0,1,0,0V46.94A.94.94,0,0,1,52.94,46Z"/><path class="cls-5" d="M62.94,46h4.13a.94.94,0,0,1,.94.94V52a0,0,0,0,1,0,0H62a0,0,0,0,1,0,0V46.94A.94.94,0,0,1,62.94,46Z"/><path class="cls-3" d="M52,51h6a0,0,0,0,1,0,0v1.22a.78.78,0,0,1-.78.78H52.78a.78.78,0,0,1-.78-.78V51A0,0,0,0,1,52,51Z"/><path class="cls-3" d="M62,51h6a0,0,0,0,1,0,0v1.22a.78.78,0,0,1-.78.78H62.78a.78.78,0,0,1-.78-.78V51A0,0,0,0,1,62,51Z"/><path class="cls-5" d="M52.94,55h4.13a.94.94,0,0,1,.94.94V61a0,0,0,0,1,0,0H52a0,0,0,0,1,0,0V55.94A.94.94,0,0,1,52.94,55Z"/><path class="cls-5" d="M62.94,55h4.13a.94.94,0,0,1,.94.94V61a0,0,0,0,1,0,0H62a0,0,0,0,1,0,0V55.94A.94.94,0,0,1,62.94,55Z"/><path class="cls-3" d="M52,60h6a0,0,0,0,1,0,0v1.22a.78.78,0,0,1-.78.78H52.78a.78.78,0,0,1-.78-.78V60A0,0,0,0,1,52,60Z"/><path class="cls-3" d="M62,60h6a0,0,0,0,1,0,0v1.22a.78.78,0,0,1-.78.78H62.78a.78.78,0,0,1-.78-.78V60A0,0,0,0,1,62,60Z"/><path class="cls-3" d="M57.54,23.74l-10,7.31a1.64,1.64,0,0,0-.67,1.32h0A1.63,1.63,0,0,0,48.46,34H71.37A1.63,1.63,0,0,0,73,32.37h0a1.64,1.64,0,0,0-.67-1.32l-10-7.31A4,4,0,0,0,57.54,23.74Z"/><circle class="cls-5" cx="59.5" cy="28.5" r="2.5"/><path class="cls-3" d="M59.65,24.06l-2.41,1.79A13.5,13.5,0,0,1,59,32.41l3-.08A16.38,16.38,0,0,0,59.65,24.06Z"/></svg>