<svg id="Layer_1" data-name="Layer 1" xmlns="http://www.w3.org/2000/svg" width="90" height="90" viewBox="0 0 90 90"><defs><style>.cls-1,.cls-5{fill:#8f42e5;}.cls-1{opacity:0.1;}.cls-2{fill:#fff;}.cls-3,.cls-6{fill:#bfa2f9;}.cls-4,.cls-7{fill:#e6dcff;}.cls-4{opacity:0.5;}.cls-6{opacity:0.3;}</style></defs><circle class="cls-1" cx="45" cy="45" r="45"/><path class="cls-2" d="M42.1,14.23a4.89,4.89,0,0,0-1.09.06,1.69,1.69,0,0,1-1.8-1,6.37,6.37,0,0,0-11.82.56A1.66,1.66,0,0,1,25.72,15,4.53,4.53,0,0,0,21,19.07,4.52,4.52,0,0,0,25.45,24H41.79a4.89,4.89,0,0,0,.31-9.77Z"/><path class="cls-2" d="M77.1,30.23a4.89,4.89,0,0,0-1.09.06,1.69,1.69,0,0,1-1.8-1,6.37,6.37,0,0,0-11.82.56A1.66,1.66,0,0,1,60.72,31,4.53,4.53,0,0,0,56,35.07,4.52,4.52,0,0,0,60.45,40H76.79a4.89,4.89,0,0,0,.31-9.77Z"/><path class="cls-3" d="M74.43,50.14a1.43,1.43,0,0,0-.8-1.3L48.46,36.05a6.71,6.71,0,0,0-6.05,0L17.23,48.84a1.45,1.45,0,0,0-.8,1.3V61.23a1.46,1.46,0,0,0,.8,1.31L42.41,75.32a6.65,6.65,0,0,0,6.05,0L73.63,62.54a1.46,1.46,0,0,0,.8-1.33V50.14Z"/><path class="cls-4" d="M45.43,46.38a6.71,6.71,0,0,0-3,.73l-.63.32a5.29,5.29,0,0,1-2.68.56l-9.75-.58L16.43,50.1V61.19a1.45,1.45,0,0,0,.8,1.3L42.38,75.26a6.71,6.71,0,0,0,3,.73Z"/><path class="cls-5" d="M74.43,39.5,52.8,38.22a5.2,5.2,0,0,1-2.08-.56l-2.23-1.12a6.78,6.78,0,0,0-6.11,0l-.62.31a5.39,5.39,0,0,1-2.7.56l-9.74-.58L16.43,39.5v11h0a1.43,1.43,0,0,0,.8,1.29L42.38,64.46a6.78,6.78,0,0,0,6.11,0L73.63,51.79a1.41,1.41,0,0,0,.8-1.29v-11Z"/><path class="cls-6" d="M45.41,35.81a6.71,6.71,0,0,0-3,.73l-.62.31a5.34,5.34,0,0,1-2.7.56l-9.73-.58L16.43,39.5v11a1.43,1.43,0,0,0,.8,1.29L42.36,64.46a6.71,6.71,0,0,0,3,.73Z"/><path class="cls-3" d="M42.38,25.54,17.23,38.21a1.44,1.44,0,0,0,0,2.58L42.38,53.46a6.78,6.78,0,0,0,6.11,0L73.63,40.79a1.44,1.44,0,0,0,0-2.58L48.49,25.54A6.78,6.78,0,0,0,42.38,25.54Z"/><circle class="cls-7" cx="45.43" cy="24" r="5"/><rect class="cls-5" x="23.43" y="26.41" width="9" height="13.5" rx="4.41"/><rect class="cls-5" x="26.71" y="35.82" width="2.45" height="8.18" rx="1.09"/><rect class="cls-5" x="59.43" y="21.41" width="9" height="13.5" rx="4.41"/><rect class="cls-5" x="62.71" y="30.82" width="2.45" height="8.18" rx="1.09"/><path class="cls-5" d="M45.43,14a9,9,0,0,0-9,9,7.94,7.94,0,0,0,.08,1.11c.72,6.82,7.82,14,8.13,14.31a1.11,1.11,0,0,0,.79.33,1.14,1.14,0,0,0,.8-.33c.3-.3,7.41-7.49,8.13-14.29A10.55,10.55,0,0,0,54.43,23,9,9,0,0,0,45.43,14Zm0,12.28A3.28,3.28,0,1,1,48.71,23,3.28,3.28,0,0,1,45.43,26.28Z"/></svg>