<svg id="Layer_1" data-name="Layer 1" xmlns="http://www.w3.org/2000/svg" width="90" height="90" viewBox="0 0 90 90"><defs><style>.cls-1,.cls-3{fill:#8f42e5;}.cls-1{opacity:0.1;}.cls-2{fill:#bfa2f9;}.cls-4{fill:#e6dcff;}</style></defs><circle class="cls-1" cx="45" cy="45" r="45"/><rect class="cls-2" x="17.5" y="56" width="10" height="9" rx="1.75"/><rect class="cls-2" x="62.5" y="56" width="10" height="9" rx="1.75"/><path class="cls-3" d="M75.24,34.71,75,34a1.68,1.68,0,0,0-1.31-1.13l-4-.66a1.65,1.65,0,0,0-1.62.65L65.67,36a7.74,7.74,0,0,0,1,3,29.45,29.45,0,0,0,7.75-2.32A1.61,1.61,0,0,0,75.24,34.71ZM20.32,32.17l-4,.66A1.68,1.68,0,0,0,15,34l-.25.75a1.61,1.61,0,0,0,.82,2A29.45,29.45,0,0,0,23.33,39a7.74,7.74,0,0,0,1-3l-2.39-3.18A1.65,1.65,0,0,0,20.32,32.17Z"/><path class="cls-3" d="M72.27,40.54l-4.52-5.36a1.26,1.26,0,0,1-.22-.39c-.44-1.15-2.66-6.81-5.05-9.9a2.86,2.86,0,0,0-1.88-1.06,147,147,0,0,0-31.2,0,2.86,2.86,0,0,0-1.88,1.06c-2.39,3.09-4.61,8.75-5.05,9.9a1.26,1.26,0,0,1-.22.39l-4.52,5.36a5.26,5.26,0,0,0-1.23,3.38V60a1,1,0,0,0,1,1H28.39a2.13,2.13,0,0,0,1.51-.63l.72-.74a2.13,2.13,0,0,1,1.5-.63H57.88a2.13,2.13,0,0,1,1.5.63l.72.74a2.13,2.13,0,0,0,1.51.63H72.49a1,1,0,0,0,1-1v-16A5.26,5.26,0,0,0,72.27,40.54Z"/><path class="cls-2" d="M56.56,31.49,48.24,26C46.33,26,45,26,45,26a144.44,144.44,0,0,0-15.17.8,42.64,42.64,0,0,0-4.58,9.08,1.66,1.66,0,0,1-.13.27C32.43,37.19,41.25,37,45,37c1.5,0,3.82,0,6.52,0Z"/><path class="cls-4" d="M51.52,37a103.74,103.74,0,0,0,13.36-.88,1.34,1.34,0,0,1-.13-.27,42.33,42.33,0,0,0-4.58-9.07A117.8,117.8,0,0,0,48.24,26C49.32,29.37,50.47,33.13,51.52,37Z"/><path class="cls-2" d="M69.26,42.64l-1.94-1a2,2,0,0,0-1.41-.14l-8.74,2.39A2.08,2.08,0,0,0,57.72,48H67.85A2.2,2.2,0,0,0,70,46.25l.31-1.41A2,2,0,0,0,69.26,42.64ZM32.83,43.92l-8.74-2.39a2,2,0,0,0-1.41.14l-1.94,1a2,2,0,0,0-1.06,2.2L20,46.25A2.2,2.2,0,0,0,22.15,48H32.28a2.08,2.08,0,0,0,.55-4.08Z"/><path class="cls-2" d="M36.65,45.94l.92,2.76a1.89,1.89,0,0,0,1.8,1.3H50.63a1.89,1.89,0,0,0,1.8-1.3l.92-2.76A1.47,1.47,0,0,0,52,44H38A1.47,1.47,0,0,0,36.65,45.94Z"/><circle class="cls-4" cx="66.5" cy="45" r="2"/><circle class="cls-4" cx="23.5" cy="45" r="2"/><circle class="cls-4" cx="29" cy="45.5" r="1.5"/><circle class="cls-4" cx="60" cy="45.5" r="1.5"/><path class="cls-2" d="M56.28,52H33.72a.8.8,0,0,0-.7,1.18l1,1.88a1.8,1.8,0,0,0,1.58.94H54.39A1.8,1.8,0,0,0,56,55.06l1-1.88A.8.8,0,0,0,56.28,52ZM28,53H24a1,1,0,0,0,0,2h4a1,1,0,0,0,0-2Zm38,0H62a1,1,0,0,0,0,2h4a1,1,0,0,0,0-2Z"/></svg>