<svg id="Layer_1" data-name="Layer 1" xmlns="http://www.w3.org/2000/svg" width="90" height="90" viewBox="0 0 90 90"><defs><style>.cls-1,.cls-4{fill:#8f42e5;}.cls-1{opacity:0.1;}.cls-2{fill:#fff;}.cls-3{fill:#bfa2f9;}.cls-5{fill:#e6dcff;}</style></defs><circle class="cls-1" cx="45" cy="45" r="45"/><path class="cls-2" d="M61,13.46a5.61,5.61,0,0,0-1.09,0,1.67,1.67,0,0,1-1.79-1,6.36,6.36,0,0,0-11.82.56,1.68,1.68,0,0,1-1.68,1.13,4.12,4.12,0,0,0-1,.06,4.51,4.51,0,0,0,.77,9H60.68a4.89,4.89,0,0,0,.3-9.77Z"/><path class="cls-2" d="M32.11,40.15A4.36,4.36,0,0,0,31,40.2a1.69,1.69,0,0,1-1.8-1,6.36,6.36,0,0,0-11.82.56,1.67,1.67,0,0,1-1.67,1.13,4.06,4.06,0,0,0-1,.05,4.51,4.51,0,0,0,.77,9H31.8a4.88,4.88,0,0,0,.31-9.76Z"/><path class="cls-2" d="M72,35.23a4.92,4.92,0,0,0-1.09.06,1.68,1.68,0,0,1-1.79-1,6.37,6.37,0,0,0-11.82.56A1.66,1.66,0,0,1,55.6,36a4.64,4.64,0,0,0-1,.06,4.51,4.51,0,0,0,.77,9H71.68a4.89,4.89,0,0,0,.3-9.77Z"/><polygon class="cls-3" points="21.8 26.25 18.69 31.77 18.69 66 70.69 66 70.69 30.13 54.65 19.38 44.36 26 33.75 19.38 21.8 26.25"/><path class="cls-4" d="M69.68,31.77,55.23,21.57,46.17,28a2.46,2.46,0,0,1-2.9,0l-9.06-6.46L19.76,31.77a1.34,1.34,0,0,1-1.87-.32l-1.34-1.9a1.34,1.34,0,0,1,.32-1.86L32.78,16.46a2.48,2.48,0,0,1,2.89,0l9,6.46,9.05-6.46a2.48,2.48,0,0,1,2.89,0L72.57,27.69a1.33,1.33,0,0,1,.32,1.86l-1.34,1.9A1.34,1.34,0,0,1,69.68,31.77Z"/><rect class="cls-4" x="16.69" y="64" width="57" height="6" rx="1.79"/><path class="cls-4" d="M35.23,50H29.16a1.47,1.47,0,0,0-1.47,1.46V65h9V51.46A1.46,1.46,0,0,0,35.23,50Z"/><path class="cls-4" d="M60.23,50H54.16a1.47,1.47,0,0,0-1.47,1.46V65h9V51.46A1.46,1.46,0,0,0,60.23,50Z"/><path class="cls-5" d="M37.59,34h-2l-.76,1.6L33.75,34H30.63l-.91,1.84L28.81,34h-2a1.11,1.11,0,0,0-1.11,1.11v5.28l3.53,3.26,6,.18,3.45-3.44V35.11A1.11,1.11,0,0,0,37.59,34Z"/><path class="cls-4" d="M35.69,40V34h-2v6h-3V34h-2v6h-3v3.89A1.11,1.11,0,0,0,26.8,45H37.59a1.11,1.11,0,0,0,1.1-1.11V40Z"/><path class="cls-5" d="M62.59,34h-2l-.76,1.6L58.75,34H55.63l-.91,1.84L53.81,34h-2a1.11,1.11,0,0,0-1.11,1.11v5.28l3.53,3.26,6,.18,3.45-3.44V35.11A1.11,1.11,0,0,0,62.59,34Z"/><path class="cls-4" d="M60.69,40V34h-2v6h-3V34h-2v6h-3v3.89A1.11,1.11,0,0,0,51.8,45H62.59a1.11,1.11,0,0,0,1.1-1.11V40Z"/><circle class="cls-5" cx="34.69" cy="57" r="1"/><circle class="cls-5" cx="59.69" cy="57" r="1"/></svg>