<svg id="Layer_1" data-name="Layer 1" xmlns="http://www.w3.org/2000/svg" width="90" height="90" viewBox="0 0 90 90"><defs><style>.cls-1,.cls-2{fill:#8f42e5;}.cls-1{opacity:0.1;}.cls-3{fill:#bfa2f9;}.cls-4{fill:#e6dcff;}</style></defs><circle class="cls-1" cx="45" cy="45" r="45"/><path class="cls-2" d="M39.92,44H63.08A6.92,6.92,0,0,1,70,50.92V64a0,0,0,0,1,0,0H33a0,0,0,0,1,0,0V50.92A6.92,6.92,0,0,1,39.92,44Z"/><rect class="cls-3" x="34" y="60" width="37" height="9"/><path class="cls-2" d="M33,53h0a4,4,0,0,1,4,4V68.75A1.25,1.25,0,0,1,35.75,70h-5.5A1.25,1.25,0,0,1,29,68.75V57A4,4,0,0,1,33,53Z"/><path class="cls-2" d="M70,53h0a4,4,0,0,1,4,4V68.75A1.25,1.25,0,0,1,72.75,70h-5.5A1.25,1.25,0,0,1,66,68.75V57a4,4,0,0,1,4-4Z"/><rect class="cls-2" x="26" y="34" width="2" height="11" rx="1"/><path class="cls-3" d="M44.5,50a2,2,0,1,0,2,2A2,2,0,0,0,44.5,50Zm14,0a2,2,0,1,0,2,2A2,2,0,0,0,58.5,50Z"/><path class="cls-2" d="M22,64.27s-5.39,0-5.81,4.64a1,1,0,0,0,1,1.09h9.54a1,1,0,0,0,1-1.09C27.39,64.27,22,64.27,22,64.27Z"/><rect class="cls-2" x="21" y="34" width="2" height="32"/><path class="cls-3" d="M25.57,20H18.43a1.62,1.62,0,0,0-1.6,1.17L13.41,34.3A1.41,1.41,0,0,0,14.85,36h14.3a1.41,1.41,0,0,0,1.44-1.7L27.17,21.17A1.62,1.62,0,0,0,25.57,20Z"/><rect class="cls-3" x="38" y="17" width="27" height="20" rx="1.61"/><path class="cls-4" d="M54.57,24.53,49,29.31,46.2,27a1.76,1.76,0,0,0-2.3,0L38,32v4H65V30.91l-7.51-6.38A2.24,2.24,0,0,0,54.57,24.53Z"/><circle class="cls-4" cx="49" cy="23" r="2"/><path class="cls-2" d="M63,19V35H40V19H63m1.25-3H38.75A1.75,1.75,0,0,0,37,17.75v18.5A1.75,1.75,0,0,0,38.75,38h25.5A1.75,1.75,0,0,0,66,36.25V17.75A1.75,1.75,0,0,0,64.25,16Z"/><circle class="cls-3" cx="27" cy="45" r="2"/></svg>