<svg width="40" height="40" viewBox="0 0 40 40" fill="none" xmlns="http://www.w3.org/2000/svg">
<rect width="40" height="40" fill="#6E65AC"/>
<path d="M30.8424 8.92125C30.1101 8.23579 27.1461 6.05052 20.5378 6.02123C20.5378 6.02123 12.7473 5.54668 8.95302 9.08529C6.8425 11.2296 6.09863 14.3756 6.0179 18.2716C5.93717 22.1676 5.83914 29.4675 12.7646 31.4477H12.7704L12.7646 34.4708C12.7646 34.4708 12.7185 35.6952 13.5143 35.9413C14.4715 36.2459 15.0366 35.3144 15.9535 34.3126C16.4552 33.7619 17.1471 32.9534 17.6719 32.3382C22.4119 32.7425 26.0505 31.8168 26.4657 31.6821C27.4229 31.3657 32.8376 30.6627 33.7141 23.3628C34.6252 15.8286 33.2759 11.0714 30.8424 8.92125V8.92125ZM31.644 22.8121C30.9001 28.9051 26.5118 29.2917 25.7045 29.5554C25.3585 29.6667 22.1582 30.4752 18.139 30.2115C18.139 30.2115 15.1404 33.8849 14.2062 34.8399C13.9006 35.1504 13.5662 35.1211 13.5719 34.5059C13.5719 34.1017 13.595 29.4851 13.595 29.4851C13.5892 29.4851 13.5892 29.4851 13.595 29.4851C7.72476 27.8329 8.07075 21.6169 8.13418 18.3654C8.19761 15.1138 8.80309 12.4482 10.5907 10.6554C13.8026 7.6968 20.4167 8.13619 20.4167 8.13619C26.0044 8.15963 28.68 9.87035 29.3028 10.4445C31.3614 12.2372 32.4109 16.5258 31.644 22.8121V22.8121ZM23.6286 18.0783C23.6517 18.5821 22.9078 18.6173 22.8847 18.1135C22.8213 16.8246 22.2274 16.1977 21.0049 16.1274C20.509 16.0981 20.5551 15.3423 21.0452 15.3716C22.6541 15.4595 23.5479 16.3969 23.6286 18.0783ZM24.7992 18.7403C24.8569 16.2563 23.3287 14.3112 20.4282 14.0944C19.9381 14.0593 19.99 13.3035 20.4801 13.3387C23.8247 13.5847 25.6065 15.9223 25.5431 18.7579C25.5373 19.2617 24.7877 19.2383 24.7992 18.7403V18.7403ZM27.5094 19.5254C27.5152 20.0292 26.7655 20.0351 26.7655 19.5312C26.7309 14.7565 23.5998 12.1552 19.7997 12.1259C19.3095 12.1201 19.3095 11.3702 19.7997 11.3702C24.0496 11.3995 27.4691 14.3815 27.5094 19.5254V19.5254ZM26.8578 25.2727V25.2844C26.235 26.3976 25.0702 27.6279 23.8708 27.2354L23.8593 27.2178C22.6425 26.8721 19.7766 25.3723 17.966 23.9076C17.0318 23.1577 16.1784 22.2731 15.521 21.4236C14.927 20.6678 14.3273 19.7715 13.7449 18.6935C12.5167 16.4379 12.2457 15.4302 12.2457 15.4302C11.8593 14.2116 13.0645 13.0282 14.1659 12.3954H14.1774C14.7079 12.1142 15.2154 12.2079 15.5556 12.6239C15.5556 12.6239 16.2706 13.491 16.5762 13.9187C16.8646 14.3171 17.2509 14.9556 17.4527 15.313C17.8045 15.9516 17.5854 16.6019 17.2394 16.8714L16.5474 17.4339C16.1957 17.7209 16.2418 18.2541 16.2418 18.2541C16.2418 18.2541 17.2682 22.1969 21.1029 23.1929C21.1029 23.1929 21.6276 23.2398 21.9102 22.8824L22.4638 22.1794C22.729 21.8278 23.3691 21.6052 23.9977 21.9626C24.8453 22.4488 25.9236 23.2046 26.6387 23.8901C27.0423 24.224 27.1346 24.7337 26.8578 25.2727Z" fill="white"/>
</svg>
