<svg width="41" height="37" viewBox="0 0 41 37" fill="none" xmlns="http://www.w3.org/2000/svg">
<path d="M37.5833 0H3.41667C1.53038 0 0 1.55371 0 3.46875V26.5938C0 28.5088 1.53038 30.0625 3.41667 30.0625H17.0833L15.9444 33.5312H10.8194C9.87986 33.5312 9.11111 34.3117 9.11111 35.2656C9.11111 36.2195 9.87986 37 10.8194 37H30.1806C31.1237 37 31.8889 36.2231 31.8889 35.2656C31.8889 34.3081 31.1237 33.5312 30.1806 33.5312H25.0556L23.9167 30.0625H37.5833C39.4696 30.0625 41 28.5088 41 26.5938V3.46875C41 1.55371 39.4696 0 37.5833 0ZM36.4444 20.8125H4.55556V4.625H36.4444V20.8125Z" fill="white"/>
</svg>
