<svg width="27" height="37" viewBox="0 0 27 37" fill="none" xmlns="http://www.w3.org/2000/svg">
<g clip-path="url(#clip0_56_414)">
<path d="M17.6456 9.57968C17.3565 9.57531 17.0765 9.47706 16.8466 9.29938C16.6167 9.12169 16.449 8.87393 16.3682 8.59249C16.1865 7.96432 15.8083 7.41312 15.2905 7.02205C14.7728 6.63099 14.1436 6.4213 13.498 6.42462C12.8523 6.42065 12.2228 6.6301 11.7049 7.02125C11.1871 7.41241 10.809 7.96399 10.6278 8.59249C10.5469 8.87235 10.3803 9.11884 10.1521 9.29632C9.92382 9.47379 9.64581 9.57303 9.35827 9.57968C8.7264 9.5691 8.1081 9.76605 7.59572 10.1411C7.08333 10.5162 6.70434 11.0492 6.51534 11.6607C6.29933 12.2906 6.28547 12.9737 6.47575 13.6121C6.66603 14.2505 7.05069 14.8114 7.57462 15.2146C7.81338 15.3993 7.9896 15.6548 8.0789 15.9455C8.16821 16.2363 8.16618 16.548 8.07311 16.8375C7.86969 17.46 7.8644 18.1316 8.05798 18.7573C8.25157 19.383 8.63423 19.9312 9.15186 20.3243C9.66232 20.7236 10.2889 20.9402 10.9336 20.9402C11.5783 20.9402 12.2048 20.7236 12.7153 20.3243C12.9384 20.1499 13.2124 20.0554 13.4941 20.0558C13.7758 20.0563 14.0494 20.1507 14.273 20.3243C14.7835 20.7236 15.41 20.9402 16.0547 20.9402C16.6994 20.9402 17.326 20.7236 17.8364 20.3243C18.3546 19.9324 18.7383 19.3854 18.9333 18.7605C19.1283 18.1355 19.1246 17.4642 18.923 16.8415C18.8299 16.5519 18.8279 16.2402 18.9172 15.9495C19.0065 15.6587 19.1827 15.4033 19.4214 15.2185C19.9454 14.8154 20.33 14.2544 20.5203 13.616C20.7106 12.9776 20.6967 12.2946 20.4807 11.6646C20.2928 11.0538 19.9153 10.5208 19.4044 10.1451C18.8935 9.76939 18.2766 9.57108 17.6456 9.57968ZM18.4245 13.8799C17.9099 14.2748 17.529 14.822 17.3344 15.4459C17.1397 16.0698 17.141 16.7396 17.3379 17.3627C17.4369 17.6514 17.4422 17.9645 17.3533 18.2565C17.2643 18.5484 17.0856 18.8039 16.8433 18.9857C16.6205 19.1616 16.3469 19.2587 16.0645 19.2621C15.7818 19.2601 15.5077 19.1629 15.2856 18.9857C14.771 18.5937 14.1455 18.3804 13.5019 18.3775C12.8583 18.3804 12.2328 18.5937 11.7183 18.9857C11.4958 19.1624 11.222 19.2596 10.9394 19.2621C10.6569 19.2593 10.3831 19.1621 10.1605 18.9857C9.91713 18.8047 9.73688 18.5498 9.64585 18.2581C9.55483 17.9663 9.55777 17.6527 9.65424 17.3627C9.85244 16.7408 9.85549 16.0718 9.66298 15.448C9.47047 14.8242 9.09187 14.2764 8.57938 13.8799C8.33737 13.6979 8.15866 13.4426 8.06907 13.1509C7.97947 12.8592 7.98361 12.5461 8.0809 12.257C8.15653 11.9725 8.32283 11.7215 8.55388 11.5429C8.78494 11.3644 9.06776 11.2683 9.35827 11.2698C10.0023 11.2663 10.6283 11.0534 11.1442 10.6625C11.6601 10.2716 12.0388 9.72321 12.2246 9.09793C12.3039 8.81487 12.4717 8.56558 12.7027 8.38755C12.9338 8.20951 13.2156 8.11237 13.5058 8.11074C13.7954 8.11323 14.0763 8.21075 14.3066 8.38872C14.5369 8.56669 14.7041 8.81552 14.7832 9.09793C14.9703 9.7232 15.3498 10.2713 15.8663 10.6621C16.3827 11.0529 17.009 11.2659 17.6534 11.2698C17.9441 11.2676 18.2272 11.3634 18.4584 11.5421C18.6896 11.7208 18.8557 11.9722 18.9307 12.257C19.0291 12.5468 19.033 12.8609 18.9418 13.1532C18.8507 13.4454 18.6693 13.7002 18.4245 13.8799Z" fill="white"/>
<path d="M13.498 0C9.9211 0.00627169 6.49261 1.45062 3.96443 4.01631C1.43625 6.582 0.0147457 10.0596 0.0116577 13.6864C0.0128748 16.8648 1.10316 19.9441 3.09604 22.3974L3.17782 22.4962V32.0482C3.15951 32.9549 3.19072 33.8619 3.27129 34.765C3.316 35.0934 3.39834 35.4155 3.51663 35.7246C3.59039 35.9649 3.7107 36.1878 3.87053 36.3804C4.03035 36.573 4.22647 36.7313 4.4474 36.846C4.73197 36.9605 5.0383 37.0085 5.34369 36.9867C5.64907 36.9648 5.94569 36.8735 6.21157 36.7196H6.24273V36.6959C6.37582 36.6429 6.50584 36.5823 6.63217 36.5143C7.42536 35.97 8.1837 35.3751 8.90261 34.7334L10.4876 33.3948C11.1066 32.8435 11.7568 32.3292 12.4349 31.8548C12.7418 31.62 13.1103 31.4826 13.4941 31.4599C13.8776 31.4842 14.2457 31.6214 14.5534 31.8548C15.2315 32.3292 15.8817 32.8435 16.5006 33.3948L18.0818 34.7334C18.8006 35.3752 19.559 35.97 20.3522 36.5143C20.4779 36.5904 20.608 36.659 20.7416 36.7196L20.7611 36.7433H20.7845C21.0497 36.8972 21.3456 36.9884 21.6504 37.0103C21.9551 37.0322 22.2608 36.9841 22.5448 36.8697C22.769 36.7531 22.9675 36.5914 23.1282 36.3946C23.2889 36.1977 23.4084 35.9697 23.4794 35.7246C23.6002 35.4141 23.6864 35.0909 23.7365 34.7611C23.817 33.8579 23.8482 32.9509 23.8299 32.0443V22.4962L23.9117 22.3974C25.9046 19.9441 26.9949 16.8648 26.9961 13.6864C26.992 10.0579 25.5685 6.57909 23.038 4.01329C20.5076 1.44749 17.0767 0.00418041 13.498 0ZM22.1631 31.9535C22.19 32.8574 22.1614 33.7621 22.0774 34.6623C22.0556 34.8891 22.0099 35.1128 21.9411 35.3297L21.9139 35.4323L21.8204 35.3692C21.6121 35.2754 21.4104 35.1672 21.2168 35.0454C20.4607 34.5287 19.7375 33.9642 19.0515 33.3553L17.4937 32.0364C16.8488 31.4624 16.1713 30.927 15.4647 30.4332C14.8962 30.0149 14.2192 29.7746 13.5175 29.7422C12.816 29.776 12.1395 30.0161 11.5703 30.4332C10.8658 30.9282 10.1897 31.4635 9.54519 32.0364L7.98743 33.3553C7.30223 33.9725 6.57901 34.5449 5.82213 35.0691C5.6293 35.19 5.42897 35.2981 5.22239 35.3929L5.13671 35.4363L5.0744 35.3297C5.00567 35.1193 4.95868 34.9023 4.9342 34.6821C4.85415 33.7816 4.82684 32.877 4.85242 31.9732V24.206L5.421 24.6403C7.74761 26.42 10.5836 27.3809 13.498 27.3768C16.4191 27.3852 19.2626 26.4241 21.5945 24.6403L22.1631 24.206V31.9535ZM22.3695 21.6235C21.2591 22.8995 19.894 23.9216 18.3645 24.6221C16.8351 25.3226 15.1763 25.6855 13.498 25.6868C11.8196 25.6865 10.1605 25.3241 8.63089 24.6235C7.10129 23.9229 5.73627 22.9002 4.62654 21.6235C2.71551 19.4341 1.66247 16.6102 1.66679 13.6864C1.66988 10.5058 2.91737 7.45627 5.13549 5.20719C7.35361 2.95812 10.3611 1.69321 13.498 1.69007C16.6339 1.6953 19.6399 2.961 21.8569 5.20974C24.074 7.45848 25.3213 10.5068 25.3254 13.6864C25.329 16.6093 24.2776 19.4325 22.3695 21.6235Z" fill="white"/>
</g>
<defs>
<clipPath id="clip0_56_414">
<rect width="27" height="37" fill="white"/>
</clipPath>
</defs>
</svg>
