<svg width="27" height="35" viewBox="0 0 27 35" fill="none" xmlns="http://www.w3.org/2000/svg">
<path d="M25.2744 7.80451L18.7796 1.7754C18.1394 1.19548 17.3034 0.868432 16.4323 0.857178H4.07816C3.17315 0.857166 2.30494 1.2089 1.66334 1.83547C1.02175 2.46205 0.658962 3.31251 0.654297 4.20091V30.8295C0.654291 31.27 0.742977 31.7062 0.915258 32.1131C1.08754 32.5199 1.34002 32.8893 1.65819 33.2C1.97636 33.5107 2.35394 33.7566 2.76924 33.9236C3.18454 34.0907 3.62937 34.1755 4.07816 34.1732H22.9271C23.3759 34.1755 23.8207 34.0907 24.236 33.9236C24.6513 33.7566 25.0289 33.5107 25.347 33.2C25.6652 32.8893 25.9177 32.5199 26.09 32.1131C26.2623 31.7062 26.3509 31.27 26.3509 30.8295V10.2473C26.3444 9.7906 26.2459 9.33964 26.0611 8.9204C25.8764 8.50117 25.609 8.12193 25.2744 7.80451ZM17.8442 2.84956L24.339 8.80936H18.4796C18.3141 8.80942 18.1551 8.7461 18.0364 8.63285C17.9178 8.51961 17.8488 8.36538 17.8442 8.20298V2.84956ZM24.9037 30.8295C24.9037 31.3441 24.6955 31.8376 24.3248 32.2015C23.9541 32.5654 23.4513 32.7699 22.9271 32.7699H4.04286C3.51862 32.7699 3.01585 32.5654 2.64515 32.2015C2.27445 31.8376 2.0662 31.3441 2.0662 30.8295V4.20091C2.0662 3.94609 2.11733 3.69377 2.21667 3.45835C2.316 3.22293 2.4616 3.00902 2.64515 2.82883C2.8287 2.64865 3.04661 2.50572 3.28643 2.40821C3.52625 2.31069 3.78329 2.2605 4.04286 2.2605H16.397V8.18566C16.397 8.45185 16.4504 8.71544 16.5542 8.96137C16.658 9.2073 16.8101 9.43076 17.0018 9.61899C17.1936 9.80721 17.4212 9.95652 17.6717 10.0584C17.9222 10.1603 18.1908 10.2127 18.4619 10.2127H24.8861L24.9037 30.8295Z" fill="white"/>
<path d="M5.13708 14.8038C5.14157 14.9908 5.21924 15.169 5.35399 15.3012C5.48873 15.4335 5.67018 15.5098 5.86069 15.5142H20.7033C20.8952 15.5142 21.0793 15.4393 21.215 15.3061C21.3507 15.1729 21.4269 14.9922 21.4269 14.8038C21.4269 14.6154 21.3507 14.4348 21.215 14.3016C21.0793 14.1683 20.8952 14.0935 20.7033 14.0935H5.86069C5.66877 14.0935 5.48472 14.1683 5.34902 14.3016C5.21332 14.4348 5.13708 14.6154 5.13708 14.8038Z" fill="white"/>
<path d="M20.7033 19.3949H5.86068C5.7574 19.3789 5.65182 19.3851 5.55121 19.413C5.4506 19.4409 5.35735 19.4899 5.27787 19.5566C5.19839 19.6233 5.13458 19.7061 5.09083 19.7993C5.04707 19.8925 5.02441 19.9939 5.02441 20.0966C5.02441 20.1992 5.04707 20.3006 5.09083 20.3938C5.13458 20.487 5.19839 20.5698 5.27787 20.6365C5.35735 20.7032 5.4506 20.7522 5.55121 20.7801C5.65182 20.808 5.7574 20.8142 5.86068 20.7982H20.7033C20.8066 20.8142 20.9122 20.808 21.0128 20.7801C21.1134 20.7522 21.2066 20.7032 21.2861 20.6365C21.3656 20.5698 21.4294 20.487 21.4732 20.3938C21.5169 20.3006 21.5396 20.1992 21.5396 20.0966C21.5396 19.9939 21.5169 19.8925 21.4732 19.7993C21.4294 19.7061 21.3656 19.6233 21.2861 19.5566C21.2066 19.4899 21.1134 19.4409 21.0128 19.413C20.9122 19.3851 20.8066 19.3789 20.7033 19.3949Z" fill="white"/>
<path d="M10.767 24.6964H5.86068C5.7574 24.6804 5.65182 24.6866 5.55121 24.7145C5.4506 24.7424 5.35735 24.7914 5.27787 24.8581C5.19839 24.9248 5.13458 25.0076 5.09083 25.1008C5.04707 25.194 5.02441 25.2954 5.02441 25.3981C5.02441 25.5007 5.04707 25.6021 5.09083 25.6953C5.13458 25.7885 5.19839 25.8713 5.27787 25.938C5.35735 26.0047 5.4506 26.0537 5.55121 26.0816C5.65182 26.1095 5.7574 26.1157 5.86068 26.0997H10.767C10.8703 26.1157 10.9759 26.1095 11.0765 26.0816C11.1771 26.0537 11.2704 26.0047 11.3499 25.938C11.4293 25.8713 11.4931 25.7885 11.5369 25.6953C11.5806 25.6021 11.6033 25.5007 11.6033 25.3981C11.6033 25.2954 11.5806 25.194 11.5369 25.1008C11.4931 25.0076 11.4293 24.9248 11.3499 24.8581C11.2704 24.7914 11.1771 24.7424 11.0765 24.7145C10.9759 24.6866 10.8703 24.6804 10.767 24.6964Z" fill="white"/>
</svg>
