<svg width="37" height="37" viewBox="0 0 37 37" fill="none" xmlns="http://www.w3.org/2000/svg">
<g clip-path="url(#clip0_55_404)">
<path d="M28.8559 14.9784L26.5398 17.2944C26.4516 17.3643 26.3792 17.4519 26.3273 17.5517C26.2754 17.6515 26.2453 17.7612 26.2388 17.8735C26.2323 17.9857 26.2496 18.0981 26.2896 18.2032C26.3296 18.3084 26.3914 18.4038 26.471 18.4833C26.5505 18.5629 26.6459 18.6247 26.7511 18.6647C26.8562 18.7047 26.9686 18.722 27.0809 18.7155C27.1931 18.709 27.3028 18.6789 27.4026 18.627C27.5024 18.5751 27.59 18.5027 27.6599 18.4145L29.9759 16.0984C30.0973 15.9451 30.1581 15.7526 30.1468 15.5574C30.1355 15.3622 30.0529 15.1779 29.9146 15.0397C29.7764 14.9014 29.5921 14.8188 29.3969 14.8075C29.2017 14.7962 29.0092 14.857 28.8559 14.9784Z" fill="white"/>
<path d="M35.823 11.5804L25.4197 1.19605C24.6599 0.449392 23.6373 0.0310059 22.5721 0.0310059C21.5068 0.0310059 20.4842 0.449392 19.7245 1.19605L1.25294 19.6676C0.506281 20.4273 0.0878906 21.45 0.0878906 22.5152C0.0878906 23.5804 0.506281 24.6031 1.25294 25.3628L11.6372 35.7661C12.3993 36.5083 13.4211 36.9236 14.4849 36.9236C15.5486 36.9236 16.5704 36.5083 17.3325 35.7661L35.823 17.2756C36.5607 16.5112 36.973 15.4903 36.973 14.428C36.973 13.3656 36.5607 12.3448 35.823 11.5804ZM2.31605 24.2997C2.08126 24.0715 1.89462 23.7985 1.76717 23.4968C1.63973 23.1952 1.57406 22.8711 1.57406 22.5437C1.57406 22.2162 1.63973 21.8921 1.76717 21.5905C1.89462 21.2889 2.08126 21.0159 2.31605 20.7876L20.7876 2.31612C21.2538 1.85125 21.8852 1.5902 22.5436 1.5902C23.202 1.5902 23.8334 1.85125 24.2996 2.31612L25.8563 3.87281L25.7234 4.0057L3.87275 25.8564L2.31605 24.2997ZM34.7029 16.2125L16.2124 34.703C15.7438 35.1633 15.1132 35.4212 14.4564 35.4212C13.7995 35.4212 13.1689 35.1633 12.7004 34.703L4.99281 26.9765L5.1257 26.8436L26.9764 4.99287L27.1093 5.12576L34.7029 12.7194C35.1632 13.1921 35.4219 13.8251 35.4243 14.4849C35.4161 15.1323 35.1575 15.7514 34.7029 16.2125Z" fill="white"/>
</g>
<defs>
<clipPath id="clip0_55_404">
<rect width="37" height="37" fill="white"/>
</clipPath>
</defs>
</svg>
