<svg width="214" height="44" viewBox="0 0 214 44" fill="none" xmlns="http://www.w3.org/2000/svg">
<g clip-path="url(#clip0_127_2367)">
<path d="M174.576 37.3677V36.3984H176.584V37.3677H174.576Z" fill="#2A3D9E"/>
<path d="M127.755 37.3677V36.3984H129.763V37.3677H127.755Z" fill="#2A3D9E"/>
<path d="M213.739 38.7186H212.567L212.099 37.5737H209.968L209.531 38.7186H208.389L210.466 33.666H211.608L213.747 38.7186H213.739ZM211.754 36.7189L211.018 34.8414L210.298 36.7189H211.754Z" fill="#2A3D9E"/>
<path d="M205.484 38.7186V34.5208H203.897V33.666H208.136V34.5208H206.557V38.7186H205.476H205.484Z" fill="#2A3D9E"/>
<path d="M192.49 38.7186V33.666H194.223C194.874 33.666 195.304 33.6889 195.503 33.7423C195.81 33.8187 196.063 33.9866 196.27 34.2384C196.476 34.4903 196.576 34.8185 196.576 35.223C196.576 35.5359 196.515 35.7954 196.4 36.0091C196.277 36.2228 196.132 36.3831 195.948 36.5052C195.764 36.6273 195.58 36.7037 195.388 36.7418C195.127 36.7876 194.759 36.8181 194.269 36.8181H193.564V38.7262H192.483L192.49 38.7186ZM193.571 34.5208V35.9557H194.161C194.583 35.9557 194.867 35.9328 195.012 35.8794C195.158 35.8259 195.265 35.742 195.35 35.6275C195.434 35.513 195.472 35.3833 195.472 35.2306C195.472 35.0475 195.419 34.8948 195.304 34.7727C195.189 34.6506 195.043 34.5819 194.867 34.5514C194.736 34.5285 194.483 34.5132 194.092 34.5132H193.571V34.5208Z" fill="#2A3D9E"/>
<path d="M166.167 33.666H167.179V37.0318L169.34 33.666H170.414V38.7186H169.402V35.4214L167.24 38.7186H166.159V33.666H166.167Z" fill="#2A3D9E"/>
<path d="M147.263 33.666H151.004V38.7186H149.923V34.5208H148.321V36.6808C148.321 37.299 148.298 37.734 148.252 37.9782C148.206 38.2225 148.099 38.4133 147.93 38.5507C147.762 38.688 147.501 38.7567 147.141 38.7567C147.018 38.7567 146.788 38.7491 146.451 38.7262V37.9401H146.689C146.911 37.9401 147.064 37.9172 147.141 37.8561C147.217 37.7951 147.256 37.6577 147.256 37.4287V36.5586V33.6736L147.263 33.666Z" fill="#2A3D9E"/>
<path d="M145.661 38.7186H144.489L144.021 37.5737H141.89L141.453 38.7186H140.311L142.388 33.666H143.53L145.669 38.7186H145.661ZM143.676 36.7189L142.94 34.8414L142.22 36.7189H143.676Z" fill="#2A3D9E"/>
<path d="M119.338 33.666H120.35V37.0318L122.511 33.666H123.584V38.7186H122.573V35.4214L120.411 38.7186H119.33V33.666H119.338Z" fill="#2A3D9E"/>
<path d="M113.389 38.7186V33.666H114.47V35.658H116.578V33.666H117.659V38.7186H116.578V36.5128H114.47V38.7186H113.389Z" fill="#2A3D9E"/>
<path d="M106.306 38.7186H105.133L104.666 37.5737H102.535L102.098 38.7186H100.956L103.033 33.666H104.175L106.314 38.7186H106.306ZM104.321 36.7189L103.585 34.8414L102.864 36.7189H104.321Z" fill="#2A3D9E"/>
<path d="M98.0504 38.7186V34.5208H96.4637V33.666H100.703V34.5208H99.1236V38.7186H98.0428H98.0504Z" fill="#2A3D9E"/>
<path d="M85.3792 33.666H86.4601V35.6886H87.9012C88.5834 35.6886 89.074 35.8412 89.3807 36.1389C89.6873 36.4365 89.8406 36.8029 89.8406 37.2227C89.8406 37.5661 89.7486 37.8638 89.5646 38.1004C89.3807 38.3446 89.166 38.5049 88.9361 38.5888C88.6984 38.6728 88.3611 38.7186 87.9089 38.7186H85.3869V33.666H85.3792ZM86.4601 37.8714H87.5103C87.8475 37.8714 88.0852 37.8561 88.2155 37.8256C88.3458 37.7951 88.4608 37.7264 88.5681 37.6119C88.6678 37.505 88.7214 37.3677 88.7214 37.2074C88.7214 36.9784 88.6371 36.8029 88.4608 36.696C88.2845 36.5892 87.9855 36.5357 87.5563 36.5357H86.4601V37.8714Z" fill="#2A3D9E"/>
<path d="M79.952 33.666H83.6928V38.7186H82.6119V34.5208H81.0098V36.6808C81.0098 37.299 80.9868 37.734 80.9409 37.9782C80.8949 38.2225 80.7875 38.4133 80.6189 38.5507C80.4503 38.688 80.1896 38.7567 79.8293 38.7567C79.7067 38.7567 79.4767 38.7491 79.1394 38.7262V37.9401H79.3771C79.5994 37.9401 79.7527 37.9172 79.8293 37.8561C79.906 37.7951 79.9443 37.6577 79.9443 37.4287V36.5586V33.6736L79.952 33.666Z" fill="#2A3D9E"/>
<path d="M67.8634 38.8025V33.666H69.6111C70.2704 33.666 70.6996 33.6889 70.9066 33.7423C71.2132 33.8187 71.4739 33.9866 71.6808 34.2461C71.8878 34.5056 71.9951 34.8414 71.9951 35.2459C71.9951 35.5588 71.9338 35.8259 71.8188 36.0397C71.6962 36.2534 71.5429 36.4213 71.3589 36.5434C71.1749 36.6655 70.9833 36.7495 70.7916 36.7876C70.531 36.8334 70.1554 36.8639 69.6648 36.8639H68.9596V38.8025H67.871H67.8634ZM68.9519 34.5361V35.9939H69.5498C69.9791 35.9939 70.2627 35.9633 70.4084 35.9099C70.554 35.8565 70.669 35.7725 70.7456 35.658C70.83 35.5436 70.8683 35.4138 70.8683 35.2612C70.8683 35.078 70.8146 34.9177 70.692 34.7956C70.577 34.6735 70.4314 34.5972 70.255 34.5666C70.1247 34.5437 69.8641 34.5285 69.4732 34.5285H68.9442L68.9519 34.5361Z" fill="#2A3D9E"/>
<path d="M180.379 33.6658H182.51C182.931 33.6658 183.246 33.6811 183.453 33.7193C183.66 33.7498 183.844 33.8261 184.012 33.9253C184.173 34.0322 184.311 34.1696 184.419 34.3451C184.526 34.5207 184.579 34.7191 184.579 34.9328C184.579 35.1694 184.511 35.3831 184.38 35.5815C184.242 35.78 184.066 35.925 183.836 36.0242C184.158 36.1158 184.411 36.2684 184.587 36.4821C184.763 36.6958 184.848 36.9553 184.848 37.2454C184.848 37.4743 184.794 37.6957 184.679 37.917C184.564 38.1307 184.411 38.3063 184.219 38.436C184.028 38.5658 183.782 38.6421 183.499 38.6726C183.322 38.6879 182.885 38.7031 182.195 38.7108H180.379V33.6582V33.6658ZM181.46 34.5054V35.6731H182.165C182.586 35.6731 182.847 35.6731 182.947 35.6579C183.131 35.635 183.276 35.5739 183.384 35.4747C183.491 35.3755 183.545 35.2457 183.545 35.0778C183.545 34.9099 183.499 34.7954 183.407 34.6962C183.315 34.597 183.184 34.5359 183 34.5206C182.893 34.5054 182.586 34.5054 182.081 34.5054H181.46ZM181.46 36.5127V37.8636H182.456C182.847 37.8636 183.092 37.8559 183.192 37.8331C183.353 37.8025 183.483 37.7415 183.583 37.6346C183.683 37.5278 183.736 37.3827 183.736 37.2072C183.736 37.0546 183.698 36.9248 183.621 36.818C183.545 36.7111 183.43 36.6348 183.284 36.589C183.138 36.5432 182.816 36.5127 182.326 36.5127H181.46Z" fill="#2A3D9E"/>
<path d="M107.441 33.6658H109.572C109.993 33.6658 110.308 33.6811 110.515 33.7193C110.722 33.7498 110.906 33.8261 111.074 33.9253C111.235 34.0322 111.373 34.1696 111.481 34.3451C111.588 34.5207 111.641 34.7191 111.641 34.9328C111.641 35.1694 111.573 35.3831 111.442 35.5815C111.304 35.78 111.128 35.925 110.898 36.0242C111.22 36.1158 111.473 36.2684 111.649 36.4821C111.825 36.6958 111.91 36.9553 111.91 37.2454C111.91 37.4743 111.856 37.6957 111.741 37.917C111.626 38.1307 111.473 38.3063 111.281 38.436C111.09 38.5658 110.844 38.6421 110.561 38.6726C110.384 38.6879 109.947 38.7031 109.258 38.7108H107.441V33.6582V33.6658ZM108.522 34.5054V35.6731H109.227C109.648 35.6731 109.909 35.6731 110.009 35.6579C110.193 35.635 110.338 35.5739 110.446 35.4747C110.553 35.3755 110.607 35.2457 110.607 35.0778C110.607 34.9099 110.561 34.7954 110.469 34.6962C110.377 34.597 110.239 34.5359 110.062 34.5206C109.955 34.5054 109.648 34.5054 109.143 34.5054H108.522ZM108.522 36.5127V37.8636H109.518C109.909 37.8636 110.154 37.8559 110.254 37.8331C110.415 37.8025 110.545 37.7415 110.645 37.6346C110.745 37.5278 110.798 37.3827 110.798 37.2072C110.798 37.0546 110.76 36.9248 110.683 36.818C110.607 36.7111 110.492 36.6348 110.346 36.589C110.2 36.5432 109.878 36.5127 109.388 36.5127H108.522Z" fill="#2A3D9E"/>
<path d="M136.9 33.6661V35.8184C137.076 35.8031 137.214 35.7421 137.306 35.6276C137.398 35.5131 137.528 35.2536 137.689 34.8567C137.904 34.3301 138.118 33.9943 138.341 33.8493C138.563 33.7043 138.931 33.6356 139.445 33.6356C139.468 33.6356 139.521 33.6356 139.598 33.6356V34.3912H139.445C139.23 34.3912 139.069 34.4141 138.962 34.4675C138.862 34.5209 138.778 34.5972 138.716 34.7041C138.655 34.8109 138.563 35.0246 138.433 35.3528C138.371 35.5284 138.295 35.6734 138.218 35.7879C138.141 35.9023 138.003 36.0168 137.812 36.116C138.049 36.1847 138.249 36.3145 138.41 36.5053C138.563 36.6961 138.739 36.9785 138.923 37.3296L139.652 38.7186H138.387L137.743 37.4135C137.743 37.4135 137.712 37.3601 137.681 37.3067C137.658 37.2685 137.62 37.1922 137.551 37.0701C137.413 36.8258 137.306 36.6732 137.214 36.6121C137.13 36.5435 137.015 36.5129 136.892 36.5129V38.7263H135.842V36.5129C135.719 36.5129 135.612 36.5435 135.52 36.6121C135.428 36.6732 135.32 36.8335 135.182 37.0777C135.106 37.2151 135.06 37.2914 135.045 37.3143C135.022 37.3525 134.999 37.383 134.983 37.4212L134.339 38.7263H133.074L133.803 37.3372C133.979 36.9938 134.148 36.7266 134.309 36.5206C134.47 36.3221 134.669 36.1847 134.914 36.116C134.723 36.0092 134.585 35.9023 134.508 35.7879C134.431 35.6734 134.362 35.5284 134.293 35.3452C134.171 35.0246 134.079 34.8109 134.017 34.7041C133.956 34.5972 133.872 34.5133 133.772 34.4598C133.672 34.4064 133.504 34.3835 133.266 34.3835C133.235 34.3835 133.189 34.3835 133.128 34.3835V33.6279C133.205 33.6279 133.258 33.6279 133.281 33.6279C133.803 33.6279 134.178 33.7043 134.393 33.8416C134.608 33.9866 134.822 34.3225 135.037 34.8415C135.205 35.246 135.328 35.5055 135.42 35.6123C135.512 35.7268 135.642 35.7879 135.826 35.8031V33.6508H136.877L136.9 33.6661Z" fill="#2A3D9E"/>
<path d="M94.5089 36.8641L95.5515 37.177C95.3905 37.7265 95.1222 38.1387 94.7542 38.4058C94.3786 38.6729 93.911 38.8103 93.3361 38.8103C92.6309 38.8103 92.0483 38.5813 91.5884 38.1234C91.1284 37.6655 90.9061 37.0396 90.9061 36.2459C90.9061 35.4063 91.1361 34.7499 91.596 34.2844C92.056 33.8188 92.6615 33.5898 93.4051 33.5898C94.0567 33.5898 94.5856 33.773 94.9995 34.1394C95.2448 34.3531 95.4211 34.666 95.5438 35.0705L94.4783 35.3147C94.417 35.0552 94.2866 34.8492 94.0797 34.6965C93.8804 34.5439 93.6351 34.4676 93.3514 34.4676C92.9528 34.4676 92.6385 34.6049 92.3856 34.8721C92.1403 35.1392 92.0176 35.5742 92.0176 36.1772C92.0176 36.8183 92.1403 37.2686 92.3779 37.5434C92.6232 37.8181 92.9375 37.9479 93.3208 37.9479C93.6044 37.9479 93.8574 37.8639 94.0567 37.6884C94.2636 37.5128 94.4093 37.2457 94.5013 36.8717L94.5089 36.8641Z" fill="#2A3D9E"/>
<path d="M161.682 35.0474L160.632 34.8185C160.855 33.9942 161.498 33.582 162.556 33.582C163.185 33.582 163.652 33.7118 163.974 33.9713C164.296 34.2308 164.45 34.5361 164.45 34.8871C164.45 35.1314 164.381 35.3451 164.235 35.5435C164.089 35.7343 163.875 35.9099 163.583 36.0549C163.936 36.1694 164.204 36.3296 164.381 36.5433C164.557 36.7571 164.649 37.0166 164.649 37.3218C164.649 37.7645 164.48 38.1232 164.135 38.398C163.79 38.6728 163.277 38.8101 162.595 38.8101C162.035 38.8101 161.598 38.7262 161.276 38.543C160.954 38.3675 160.709 38.0393 160.548 37.5584L161.537 37.2532C161.636 37.5584 161.774 37.7569 161.943 37.8408C162.112 37.9324 162.319 37.9782 162.564 37.9782C162.901 37.9782 163.154 37.9095 163.307 37.7721C163.461 37.6348 163.537 37.4745 163.537 37.2913C163.537 37.0852 163.453 36.9173 163.277 36.7952C163.101 36.6655 162.832 36.6044 162.48 36.6044H162.234V35.8412H162.357C162.687 35.8412 162.94 35.7725 163.116 35.6275C163.292 35.4901 163.376 35.2993 163.376 35.0703C163.376 34.8871 163.308 34.7345 163.162 34.6048C163.016 34.475 162.817 34.4139 162.549 34.4139C162.096 34.4139 161.805 34.6276 161.682 35.0474Z" fill="#2A3D9E"/>
<path d="M197.703 36.2226C197.703 35.7113 197.787 35.2762 197.948 34.9251C198.071 34.6656 198.232 34.4367 198.447 34.2306C198.654 34.0245 198.883 33.8719 199.136 33.7727C199.466 33.6429 199.849 33.5742 200.286 33.5742C201.076 33.5742 201.704 33.8032 202.172 34.2688C202.647 34.7343 202.877 35.3754 202.877 36.1921C202.877 37.0087 202.64 37.6498 202.172 38.1078C201.704 38.5657 201.076 38.8023 200.294 38.8023C199.512 38.8023 198.868 38.5733 198.401 38.1154C197.933 37.6575 197.695 37.024 197.695 36.2226H197.703ZM198.814 36.1845C198.814 36.7569 198.952 37.1919 199.236 37.4896C199.512 37.7872 199.872 37.9322 200.302 37.9322C200.731 37.9322 201.083 37.7872 201.359 37.4896C201.635 37.1995 201.773 36.7569 201.773 36.1692C201.773 35.5815 201.643 35.1617 201.375 34.8717C201.106 34.5893 200.754 34.4443 200.309 34.4443C199.865 34.4443 199.504 34.5893 199.236 34.8793C198.968 35.1694 198.83 35.6044 198.83 36.1845H198.814Z" fill="#2A3D9E"/>
<path d="M185.913 36.2226C185.913 35.7113 185.998 35.2762 186.159 34.9251C186.281 34.6656 186.442 34.4367 186.657 34.2306C186.864 34.0245 187.094 33.8719 187.347 33.7727C187.676 33.6429 188.06 33.5742 188.497 33.5742C189.286 33.5742 189.915 33.8032 190.382 34.2688C190.858 34.7343 191.088 35.3754 191.088 36.1921C191.088 37.0087 190.85 37.6498 190.382 38.1078C189.915 38.5657 189.286 38.8023 188.504 38.8023C187.722 38.8023 187.078 38.5733 186.611 38.1154C186.143 37.6575 185.906 37.024 185.906 36.2226H185.913ZM187.025 36.1845C187.025 36.7569 187.163 37.1919 187.446 37.4896C187.722 37.7872 188.083 37.9322 188.512 37.9322C188.941 37.9322 189.294 37.7872 189.57 37.4896C189.846 37.1995 189.984 36.7569 189.984 36.1692C189.984 35.5815 189.853 35.1617 189.585 34.8717C189.317 34.5893 188.964 34.4443 188.52 34.4443C188.075 34.4443 187.715 34.5893 187.446 34.8793C187.178 35.1694 187.04 35.6044 187.04 36.1845H187.025Z" fill="#2A3D9E"/>
<path d="M152.675 33.6658H153.756V35.7723H154.622C154.684 35.1465 154.914 34.6275 155.32 34.2077C155.719 33.7879 156.301 33.5742 157.068 33.5742C157.834 33.5742 158.386 33.8032 158.823 34.2535C159.26 34.7038 159.475 35.3449 159.475 36.1845C159.475 36.734 159.383 37.1995 159.191 37.5888C158.999 37.978 158.731 38.2757 158.386 38.4894C158.041 38.7031 157.612 38.8099 157.098 38.8099C156.585 38.8099 156.156 38.7336 155.849 38.5734C155.542 38.4207 155.266 38.1612 155.036 37.8178C154.806 37.4667 154.668 37.0698 154.63 36.6271H153.764V38.726H152.683V33.6734L152.675 33.6658ZM155.696 36.1997C155.696 36.7569 155.811 37.1919 156.048 37.4972C156.286 37.8025 156.615 37.9551 157.045 37.9551C157.474 37.9551 157.811 37.8025 158.034 37.5048C158.256 37.1995 158.363 36.7492 158.363 36.1463C158.363 35.5433 158.233 35.1465 157.98 34.8717C157.727 34.6046 157.405 34.4672 157.006 34.4672C156.608 34.4672 156.309 34.6046 156.064 34.8793C155.818 35.1541 155.696 35.5968 155.696 36.2073V36.1997Z" fill="#2A3D9E"/>
<path d="M73.122 36.2684C73.122 35.7418 73.2063 35.3067 73.3673 34.948C73.4899 34.6885 73.6586 34.4519 73.8655 34.2459C74.0802 34.0398 74.3101 33.8871 74.5631 33.7803C74.9004 33.6429 75.2837 33.5742 75.7206 33.5742C76.5101 33.5742 77.1464 33.8108 77.6217 34.2764C78.0969 34.7496 78.3346 35.3983 78.3346 36.2379C78.3346 37.0774 78.0969 37.7185 77.6293 38.1841C77.1617 38.6497 76.5255 38.8863 75.7359 38.8863C74.9464 38.8863 74.3025 38.6497 73.8272 38.1841C73.3519 37.7185 73.122 37.0774 73.122 36.2608V36.2684ZM74.2411 36.2302C74.2411 36.8103 74.3791 37.253 74.6627 37.5506C74.9464 37.8483 75.299 38.0009 75.7359 38.0009C76.1729 38.0009 76.5255 37.8483 76.8014 37.5506C77.0774 37.253 77.2154 36.8027 77.2154 36.2073C77.2154 35.612 77.0774 35.177 76.8091 34.887C76.5408 34.5969 76.1805 34.4519 75.7283 34.4519C75.276 34.4519 74.9157 34.5969 74.6474 34.8946C74.3715 35.1846 74.2335 35.6273 74.2335 36.2226L74.2411 36.2302Z" fill="#2A3D9E"/>
<path d="M187.646 27.11C186.228 27.11 185.147 26.6444 184.411 25.7133C183.675 24.7822 183.307 23.4007 183.307 21.569V12.7461H186.833V20.7905C186.833 22.9581 187.6 24.0495 189.125 24.0495C189.807 24.0495 190.474 23.8358 191.111 23.416C191.754 22.9962 192.276 22.3551 192.674 21.4927V12.7461H196.201V22.7062C196.201 23.0802 196.269 23.3549 196.4 23.5152C196.53 23.6755 196.745 23.7671 197.044 23.7823V26.8505C196.691 26.9192 196.4 26.965 196.162 26.9879C195.925 27.0032 195.71 27.0184 195.518 27.0184C194.89 27.0184 194.376 26.8734 193.977 26.5758C193.587 26.2781 193.349 25.8736 193.28 25.3546L193.203 24.225C192.59 25.1943 191.8 25.9194 190.835 26.4078C189.869 26.8887 188.811 27.1329 187.653 27.1329L187.646 27.11Z" fill="#2A3D9E"/>
<path d="M99.5069 26.8429L94.4246 12.7461H98.0581L101.561 23.9121L105.087 12.7461H108.407L103.324 26.8429H99.5069Z" fill="#2A3D9E"/>
<path d="M166.473 15.9366C165.4 15.9519 164.45 16.1656 163.606 16.5701C162.763 16.9746 162.158 17.5775 161.79 18.3866V26.9194H158.264V12.815H161.498V15.8298C161.744 15.3489 162.035 14.9139 162.365 14.5246C162.694 14.143 163.055 13.7996 163.445 13.5172C163.829 13.2272 164.22 13.0134 164.618 12.8608C165.017 12.7082 165.393 12.6318 165.761 12.6318H166.197C166.297 12.6318 166.389 12.6395 166.473 12.6624V15.9442V15.9366Z" fill="#2A3D9E"/>
<path d="M207.967 27.1099C206.879 27.1099 205.928 26.8657 205.123 26.3696C204.318 25.8735 203.682 25.2095 203.23 24.3623V30.3765H199.704V12.7384H202.785V15.1578C203.291 14.3335 203.95 13.6848 204.763 13.2039C205.568 12.7307 206.503 12.4941 207.553 12.4941C208.481 12.4941 209.339 12.6849 210.137 13.0742C210.926 13.4634 211.608 13.9824 212.176 14.6388C212.743 15.2952 213.195 16.066 213.517 16.9514C213.839 17.8367 214.008 18.7755 214.008 19.7601C214.008 20.7446 213.862 21.7444 213.563 22.6374C213.264 23.538 212.85 24.3165 212.314 24.9805C211.777 25.6445 211.141 26.1635 210.405 26.5451C209.669 26.9191 208.864 27.1099 207.983 27.1099H207.967ZM206.779 24.0418C207.308 24.0418 207.791 23.9273 208.243 23.6907C208.688 23.4541 209.071 23.1411 209.385 22.7519C209.7 22.355 209.945 21.8971 210.121 21.3781C210.298 20.8591 210.382 20.3172 210.382 19.7601C210.382 19.1647 210.282 18.6152 210.091 18.1039C209.899 17.5925 209.631 17.1498 209.286 16.7682C208.941 16.3942 208.542 16.0966 208.074 15.8829C207.607 15.6692 207.109 15.5623 206.564 15.5623C206.227 15.5623 205.89 15.6234 205.537 15.7379C205.185 15.8523 204.863 16.0202 204.564 16.2339C204.265 16.4477 203.996 16.6995 203.759 16.9895C203.521 17.2796 203.345 17.5925 203.222 17.9283V21.2407C203.536 22.0497 204.019 22.7137 204.671 23.248C205.323 23.7746 206.02 24.0418 206.779 24.0418Z" fill="#2A3D9E"/>
<path d="M179.413 14.6922C178.792 14.0206 178.033 13.4863 177.152 13.0895C176.262 12.6926 175.258 12.4941 174.139 12.4941C173.02 12.4941 172.008 12.6926 171.111 13.0895C170.214 13.4863 169.455 14.0206 168.834 14.6922C168.213 15.3639 167.731 16.1424 167.401 17.0201C167.071 17.8978 166.903 18.8289 166.903 19.8211C166.903 20.8133 167.071 21.7139 167.401 22.5916C167.731 23.4693 168.213 24.2478 168.834 24.9195C169.455 25.5911 170.214 26.1254 171.111 26.5222C172.008 26.9191 173.012 27.1176 174.139 27.1176C175.266 27.1176 176.27 26.9191 177.167 26.5222C178.064 26.1254 178.815 25.5911 179.428 24.9195C180.041 24.2478 180.517 23.4693 180.846 22.5916C181.176 21.7139 181.345 20.7904 181.345 19.8211C181.345 18.8518 181.176 17.9054 180.846 17.0201C180.509 16.1424 180.034 15.3639 179.413 14.6922ZM177.466 21.5155C177.282 22.0345 177.029 22.4848 176.699 22.8588C176.377 23.2327 175.994 23.5304 175.557 23.7365C175.12 23.9425 174.645 24.0494 174.139 24.0494C173.633 24.0494 173.158 23.9425 172.721 23.7365C172.284 23.5304 171.901 23.2404 171.579 22.8588C171.257 22.4848 170.996 22.0345 170.812 21.5231C170.628 21.0117 170.536 20.4393 170.536 19.8135C170.536 19.1876 170.628 18.6381 170.812 18.1191C170.996 17.6001 171.249 17.1498 171.579 16.7758C171.901 16.4019 172.284 16.1042 172.721 15.8905C173.158 15.6768 173.633 15.5699 174.139 15.5699C174.645 15.5699 175.12 15.6768 175.557 15.8829C175.994 16.0889 176.377 16.379 176.699 16.7606C177.021 17.1346 177.282 17.5849 177.466 18.1039C177.65 18.6228 177.742 19.1876 177.742 19.7982C177.742 20.4088 177.65 21.0041 177.466 21.5231V21.5155Z" fill="#2A3D9E"/>
<path d="M130.07 26.8428H126.543V18.9281C126.543 17.7986 126.352 16.9743 125.961 16.4553C125.578 15.9363 125.041 15.6768 124.359 15.6768C124.006 15.6768 123.646 15.7455 123.278 15.8905C122.91 16.0355 122.565 16.2339 122.235 16.4934C121.913 16.7529 121.614 17.0659 121.354 17.4246C121.093 17.7833 120.894 18.1802 120.771 18.6076V26.8428H117.245V12.7384H120.426V15.3486C120.932 14.448 121.676 13.7535 122.634 13.2497C123.6 12.746 124.688 12.4941 125.899 12.4941C126.758 12.4941 127.463 12.6544 128.008 12.975C128.552 13.2955 128.973 13.7229 129.272 14.2419C129.571 14.7609 129.778 15.3562 129.893 16.0202C130.008 16.6843 130.062 17.3559 130.062 18.0352V26.8352L130.07 26.8428Z" fill="#2A3D9E"/>
<path d="M92.1019 14.677C91.481 14.013 90.7221 13.4863 89.8406 13.0895C88.9514 12.6926 87.9472 12.4941 86.828 12.4941C85.7088 12.4941 84.6893 12.6926 83.7848 13.0895C82.8802 13.4863 82.1137 14.0206 81.4851 14.6922C80.8565 15.3639 80.3736 16.1424 80.0363 17.0353C79.699 17.9207 79.5381 18.8671 79.5381 19.8745C79.5381 20.882 79.7067 21.7673 80.0516 22.6451C80.3966 23.5228 80.8795 24.2936 81.5158 24.9576C82.1443 25.6216 82.9109 26.1483 83.8078 26.5299C84.7047 26.9115 85.7012 27.1099 86.805 27.1099C88.3458 27.1099 89.6796 26.7665 90.7911 26.0719C91.9026 25.385 92.7152 24.4997 93.2288 23.4235L90.2009 22.5611C89.9709 23.1335 89.5493 23.5991 88.9207 23.9502C88.2998 24.3013 87.6329 24.4768 86.9353 24.4768C86.4754 24.4768 86.0385 24.3928 85.6169 24.2326C85.1953 24.0723 84.8196 23.8357 84.4824 23.5304C84.1451 23.2251 83.8768 22.8588 83.6698 22.4237C83.4628 21.9963 83.3248 21.5002 83.2712 20.9431H93.934C93.9723 20.798 93.9877 20.6225 94.003 20.4012C94.0107 20.1875 94.0183 19.9585 94.0183 19.7295C94.0183 18.7755 93.8574 17.8673 93.5277 16.9819C93.2058 16.1042 92.7305 15.3333 92.1096 14.6693L92.1019 14.677ZM83.2175 18.6076C83.2559 18.0886 83.3708 17.6154 83.5701 17.1803C83.7695 16.7529 84.0301 16.379 84.3444 16.0737C84.6587 15.7684 85.0266 15.5318 85.4405 15.3639C85.8545 15.196 86.2991 15.112 86.7667 15.112C87.7326 15.112 88.5528 15.4326 89.2273 16.066C89.9019 16.6995 90.2852 17.5543 90.3695 18.6076H83.2099H83.2175Z" fill="#2A3D9E"/>
<path d="M79.5381 26.7283C78.6795 25.8277 77.936 24.7668 77.476 23.5838H71.4969V7.73926H67.8634V26.8428H79.6607C79.6224 26.8046 79.5764 26.7665 79.5457 26.7283H79.5381Z" fill="#2A3D9E"/>
<path d="M152.491 24.6906C150.997 26.217 149.264 26.9802 147.279 26.9802C146.052 26.9802 144.895 26.7284 143.814 26.2246C142.733 25.7209 141.798 25.034 141.001 24.1563C140.203 23.2786 139.567 22.2406 139.107 21.05C138.64 19.8593 138.41 18.5695 138.41 17.188C138.41 15.8753 138.64 14.6465 139.107 13.4864C139.575 12.3263 140.211 11.3188 141.031 10.4488C141.844 9.57868 142.81 8.88414 143.914 8.38041C145.017 7.86905 146.221 7.61719 147.516 7.61719C149.272 7.61719 150.774 7.99117 152.031 8.74676C153.289 9.50236 154.231 10.5174 154.86 11.7844L152.146 13.8299C151.671 12.8758 151.012 12.1508 150.161 11.647C149.31 11.1433 148.383 10.8914 147.386 10.8914C146.597 10.8914 145.876 11.0593 145.217 11.4028C144.558 11.7462 143.998 12.2118 143.53 12.7995C143.063 13.3948 142.702 14.0741 142.449 14.8449C142.197 15.6158 142.066 16.4325 142.066 17.2949C142.066 18.1573 142.204 19.0274 142.488 19.8135C142.771 20.592 143.155 21.2713 143.645 21.8437C144.136 22.4161 144.718 22.8741 145.393 23.2023C146.068 23.5305 146.804 23.6984 147.593 23.6984C149.402 23.6984 151.035 22.8283 152.491 21.0881V19.7449H148.728V17.0278H155.489V26.8505H152.491V24.6982V24.6906Z" fill="#2A3D9E"/>
<path d="M110.522 10.7768V7.19727H114.048V10.7768H110.522ZM110.522 26.8427V12.7383H114.048V26.8351H110.522V26.8427Z" fill="#2A3D9E"/>
<path d="M17.8455 35.1695L17.8531 35.1618H16.9793H8.87674V15.4248V8.83053H8.88441L0 0V8.83053V9.21214V9.5327V34.7879V35.1695L8.87674 44H14.2886H26.4999H26.7222L17.8455 35.1695Z" fill="#2A3D9E"/>
<path d="M48.0785 18.0961H39.7154L48.0785 26.5832V27.3769V29.056V35.1618H31.6818V8.8229L48.2088 8.83053L56.3113 0H31.6818L22.7974 8.83053V9.21214V34.7879V35.1695L31.6818 44H35.7753H47.9789H48.0785L56.9553 35.1695V29.056V27.4075V26.5832L48.0785 18.0961Z" fill="#FE5C01"/>
</g>
<defs>
<clipPath id="clip0_127_2367">
<rect width="214" height="44" fill="white"/>
</clipPath>
</defs>
</svg>
