<svg width="18" height="18" viewBox="0 0 18 18" fill="none" xmlns="http://www.w3.org/2000/svg">
<path d="M17.3785 13.0926V16.3667C17.3786 16.6011 17.2898 16.8268 17.13 16.9983C16.9702 17.1698 16.7513 17.2743 16.5174 17.2907C16.1128 17.3185 15.7823 17.3333 15.5268 17.3333C7.34481 17.3333 0.712769 10.7009 0.712769 2.51852C0.712769 2.26297 0.726657 1.93241 0.755359 1.52778C0.771767 1.29393 0.876261 1.07502 1.04775 0.915198C1.21925 0.755382 1.44497 0.666566 1.67938 0.666672H4.95327C5.06812 0.666556 5.17891 0.709134 5.26412 0.786135C5.34933 0.863136 5.40287 0.969063 5.41436 1.08334C5.43565 1.2963 5.4551 1.46575 5.47362 1.59445C5.65762 2.87864 6.0347 4.12763 6.59207 5.29908C6.68003 5.48426 6.62263 5.70556 6.45597 5.82408L4.45793 7.25186C5.67958 10.0986 7.94806 12.3672 10.7946 13.5889L12.2205 11.5944C12.2787 11.513 12.3638 11.4545 12.4607 11.4293C12.5577 11.4041 12.6604 11.4137 12.751 11.4565C13.9222 12.0128 15.1708 12.389 16.4545 12.5722C16.5832 12.5907 16.7526 12.6111 16.9637 12.6315C17.0778 12.6432 17.1835 12.6968 17.2603 12.782C17.3371 12.8672 17.3796 12.9779 17.3794 13.0926H17.3785Z" fill="white"/>
</svg>
