<?xml version="1.0" encoding="utf-8"?>
<!-- Generator: Adobe Illustrator 24.2.3, SVG Export Plug-In . SVG Version: 6.00 Build 0)  -->
<svg version="1.1" id="Слой_1" xmlns="http://www.w3.org/2000/svg" xmlns:xlink="http://www.w3.org/1999/xlink" x="0px" y="0px"
	 width="60px" height="54px" viewBox="0 0 60 54" style="enable-background:new 0 0 60 54;" xml:space="preserve">
<style type="text/css">
	.st0{fill:#23A596;}
	.st1{fill:#21A968;}
</style>
<path class="st0" d="M58.1,0H14.5c-1.1,0-1.9,1.1-1.9,2.1v43.4c0,1.8-0.6,3.6-1.7,4.9h16.4v-5.7c-2.8-2.5-4.6-6.3-4.6-10.4
	c0-7.6,6-13.9,13.5-13.9s13.6,6.2,13.6,13.9c0,4.2-1.8,7.9-4.6,10.4v5.7h10.2c2.5,0,4.5-2,4.5-4.6V2.1C60.1,1.1,59.2,0,58.1,0
	L58.1,0z M50.7,13.8H22c-0.9,0-1.5-0.7-1.5-1.6c0-0.9,0.7-1.6,1.5-1.6h28.8c0.9,0,1.5,0.7,1.5,1.6C52.2,13.2,51.6,13.8,50.7,13.8z"
	/>
<path class="st1" d="M0,36.7v8.7c0,2.9,2.4,5.2,5.2,4.9c2.5-0.3,4.3-2.5,4.3-5.1V34.7H1.9C0.9,34.7,0,35.6,0,36.7z"/>
<path class="st1" d="M30.4,52.4c0,0.5,0.3,1.1,0.7,1.4c0.2,0.1,0.5,0.2,0.7,0.2c0.3,0,0.5-0.1,0.8-0.2l3.6-2.2l3.6,2.2
	c0.5,0.3,1.1,0.3,1.5,0c0.5-0.3,0.7-0.8,0.7-1.4v-9.3c2.8-1.9,4.6-5.2,4.6-8.9c0.1-5.9-4.6-10.7-10.4-10.7s-10.5,4.8-10.5,10.8
	c0,3.7,1.9,7,4.6,8.9L30.4,52.4L30.4,52.4z M41.7,33.2L39.8,35c-0.1,0.1-0.2,0.3-0.1,0.5l0.5,2.7c0.1,0.7-0.6,1.2-1.2,0.9l-2.3-1.4
	c-0.1-0.1-0.3-0.1-0.5,0l-2.3,1.4c-0.6,0.3-1.3-0.2-1.2-0.9l0.5-2.7c0.1-0.2,0-0.3-0.1-0.5L31,33.2c-0.5-0.5-0.3-1.4,0.5-1.4
	l2.7-0.3c0.2,0,0.3-0.1,0.4-0.3l1.1-2.5c0.3-0.7,1.2-0.7,1.5,0l1.1,2.5c0.1,0.1,0.2,0.3,0.4,0.3l2.7,0.3
	C41.9,31.9,42.2,32.8,41.7,33.2L41.7,33.2z"/>
</svg>
