<?xml version="1.0" encoding="utf-8"?>
<!-- Generator: Adobe Illustrator 24.2.3, SVG Export Plug-In . SVG Version: 6.00 Build 0)  -->
<svg version="1.1" id="Слой_1" xmlns="http://www.w3.org/2000/svg" xmlns:xlink="http://www.w3.org/1999/xlink" x="0px" y="0px"
	 width="60px" height="54px" viewBox="0 0 60 54" style="enable-background:new 0 0 60 54;" xml:space="preserve">
<style type="text/css">
	.st0{fill:#23A596;}
	.st1{fill:#21A968;}
</style>
<path class="st0" d="M59.3,35.2c-0.2-0.9-1.3-1.5-2.2-1.3c-1.3,0.4-2.2,0-2.4-0.4c-0.2-0.4,0-1.3,0.9-2.4c0.7-0.7,0.7-1.9,0-2.6
	c-1.9-1.9-4.1-3.2-6.7-3.9c-0.9-0.2-2,0.4-2.2,1.3c-0.4,1.3-1.1,1.9-1.7,1.9c-0.6,0-1.1-0.7-1.7-1.9c-0.4-0.9-1.3-1.5-2.2-1.3
	c-2.6,0.7-4.8,2-6.7,3.9c-0.7,0.7-0.7,1.9,0,2.6c0.9,0.9,1.1,1.9,0.9,2.4c-0.2,0.4-1.1,0.7-2.4,0.4c-0.9-0.2-2,0.4-2.2,1.3
	c-0.4,1.3-0.6,2.6-0.6,3.9c0,1.3,0.2,2.6,0.6,3.9c0.2,0.9,1.3,1.5,2.2,1.3c1.3-0.4,2.2,0,2.4,0.4c0.2,0.4,0,1.3-0.9,2.4
	c-0.7,0.7-0.7,1.9,0,2.6c1.9,1.9,4.1,3.2,6.7,3.9c0.2,0,0.4,0,0.6,0c0.7,0,1.5-0.6,1.9-1.3c0.4-1.3,1.1-1.9,1.7-1.9
	c0.6,0,1.1,0.7,1.7,1.9c0.4,0.9,1.3,1.5,2.2,1.3c2.6-0.7,4.8-2,6.7-3.9c0.7-0.7,0.7-1.9,0-2.6c-0.9-0.9-1.1-1.9-0.9-2.4
	c0.2-0.4,1.1-0.7,2.4-0.4c0.9,0.2,2-0.4,2.2-1.3c0.4-1.3,0.6-2.6,0.6-3.9C60,37.8,59.6,36.5,59.3,35.2z M44.9,46.6
	c-4.1,0-7.4-3.4-7.4-7.4s3.4-7.4,7.4-7.4s7.4,3.4,7.4,7.4S49,46.6,44.9,46.6z"/>
<path class="st1" d="M26.3,39.1c0-2.2,0.4-4.3,1.1-6.1c0-0.2,0-0.2,0-0.4l0.2-0.2c0.9-2.2,2-4.1,3.5-5.8c0.2-0.7,0.4-1.3,0.6-2
	c0-0.6,0-1.1-0.4-1.5c-0.4-0.4-0.9-0.7-1.5-0.7c-2,0-3.9-0.7-5.4-1.9h11.2c1.1,0,1.9-0.7,1.9-1.9c0-1.1-0.7-1.9-1.9-1.9h-0.4v-0.4
	c0-3.4-1.1-6.3-3-8.9L31,12.2c-0.2,0.7-0.9,1.3-1.9,1.3c-0.2,0-0.4,0-0.6,0c-0.9-0.4-1.5-1.3-1.3-2.2l2.2-7.6c0-0.6-0.4-1.1-0.9-1.5
	c-4.8-2.4-10.6-2.4-15.4,0c-0.7,0-0.9,0.7-1.1,1.3l2.2,7.6c0.4,0.9-0.4,2-1.3,2.2c-0.2,0-0.4,0-0.6,0c-0.7,0-1.5-0.6-1.9-1.3
	L9.4,7.5c-1.9,2.6-3,5.6-3,8.9v0.4H5.8c-1.1,0-1.9,0.7-1.9,1.9c0,1.1,0.7,1.9,1.9,1.9h3.7v1.9c0,4.1,1.7,7.8,4.5,10.2
	c-0.4,2.6-2,4.8-4.7,5.6c-4.7,1.3-8.2,5.4-9.3,10.6c-0.2,0.9,0,1.7,0.6,2.4c0.7,0.6,1.5,0.9,2.4,0.9h28.7
	C28.4,48.8,26.3,44.2,26.3,39.1z"/>
</svg>
