<?xml version="1.0" encoding="utf-8"?>
<!-- Generator: Adobe Illustrator 24.2.3, SVG Export Plug-In . SVG Version: 6.00 Build 0)  -->
<svg version="1.1" id="Слой_1" xmlns="http://www.w3.org/2000/svg" xmlns:xlink="http://www.w3.org/1999/xlink" x="0px" y="0px"
	 width="60px" height="54px" viewBox="0 0 60 54" style="enable-background:new 0 0 60 54;" xml:space="preserve">
<style type="text/css">
	.st0{fill:#23A596;}
	.st1{fill:#21A968;}
</style>
<path class="st0" d="M13.9,0.2V11h19.3c0.3,0,0.6,0.1,0.8,0.3l4.3,4.3c0.2,0.2,0.3,0.5,0.3,0.8s-0.1,0.6-0.3,0.8L34,21.4
	c-0.2,0.2-0.5,0.3-0.8,0.3H13.9v21.4h36.4c0.6,0,1.1,0.5,1.1,1.1v2.1l0,0c0,0.2,0,0.5,0,0.7v0.1c0.4,3.5,3.2,6.3,6.7,6.6l0,0
	c0.2,0,0.4,0,0.6,0c0.1,0,0.2,0,0.3,0c0.6,0,1-0.5,1-1.1l0,0V0L13.9,0.2L13.9,0.2z M55.7,36.7c0,0.6-0.5,1.1-1.1,1.1H22.5l0,0
	c-0.4,0-0.8-0.3-1-0.7c-0.1-0.1-0.1-0.3-0.1-0.4c0-0.3,0.1-0.6,0.3-0.8L53.9,3.8c0.2-0.2,0.5-0.3,0.8-0.3c0.1,0,0.3,0,0.4,0.1
	c0.4,0.2,0.7,0.5,0.7,1l0,0v32.1H55.7z"/>
<path class="st1" d="M27.9,33.5H30v2.1h2.1v-2.1h2.1v2.1h2.1v-2.1h2.1v2.1h2.1v-2.1h2.1v2.1H45v-2.1h2.1v2.1h2.1v-2.1h2.1v-2.1h2.1
	v-2.1h-2.1v-2.1h2.1v-2.1h-2.1V23h2.1v-2.1h-2.1v-2.1h2.1v-2.1h-2.1v-2.1h2.1v-2.1h-2.1V9.9h2.1V7.1L25.1,35.6h2.8V33.5L27.9,33.5z
	 M37.3,29.5l10.2-10.2c0.2-0.2,0.5-0.3,0.8-0.3c0.6,0,1.1,0.5,1.1,1.1v10.2c0,0.6-0.5,1.1-1.1,1.1H38.1c-0.6,0-1.1-0.5-1.1-1.1
	C36.9,30,37.1,29.7,37.3,29.5L37.3,29.5z"/>
<polygon class="st0" points="47.1,22.7 40.6,29.2 47.1,29.2 "/>
<rect x="51.4" y="33.5" class="st1" width="2.1" height="2.1"/>
<path class="st1" d="M3.2,19.6h1.1v-6.4H3.2c-1.8,0-3.2,1.4-3.2,3.2S1.4,19.6,3.2,19.6L3.2,19.6z"/>
<path class="st1" d="M11.6,53.8h39.9c-0.2-0.2-0.5-0.4-0.7-0.6c-0.3-0.2-0.5-0.5-0.7-0.8l0,0c-0.2-0.2-0.4-0.5-0.5-0.7
	c0,0,0-0.1-0.1-0.1c-0.2-0.2-0.3-0.5-0.4-0.7c0,0,0-0.1-0.1-0.1c-0.1-0.2-0.2-0.5-0.3-0.7c0-0.1-0.1-0.1-0.1-0.2
	c-0.1-0.2-0.2-0.5-0.2-0.7c0-0.1,0-0.2-0.1-0.2c-0.1-0.2-0.1-0.5-0.1-0.7c0-0.1,0-0.2,0-0.3c0-0.3-0.1-0.6-0.1-1v-1H4.3v1
	C4.3,50.8,7.5,53.8,11.6,53.8L11.6,53.8L11.6,53.8z"/>
<polygon class="st1" points="33,13.1 6.8,13.1 6.8,19.6 33,19.6 36,16.3 "/>
</svg>
