<?xml version="1.0" encoding="utf-8"?>
<!-- Generator: Adobe Illustrator 24.2.3, SVG Export Plug-In . SVG Version: 6.00 Build 0)  -->
<svg version="1.1" id="Слой_1" xmlns="http://www.w3.org/2000/svg" xmlns:xlink="http://www.w3.org/1999/xlink" x="0px" y="0px"
	 width="40px" height="40px" viewBox="0 0 40 40" style="enable-background:new 0 0 40 40;" xml:space="preserve">
<style type="text/css">
	.st0{fill:#33CEBC;}
</style>
<path class="st0" d="M10.6,18.8C4.7,18.8,0,23.6,0,29.4S4.7,40,10.6,40s10.6-4.7,10.6-10.6S16.4,18.8,10.6,18.8z M8.8,34l-3.8-3.8
	l1.7-1.7l2.1,2.1l5.6-5.6l1.7,1.7L8.8,34z"/>
<polygon class="st0" points="22.4,8.4 22.4,0 27.1,0 27.1,8.4 24.7,6.8 "/>
<path class="st0" d="M10.6,16.5c-0.4,0-0.8,0-1.2,0.1V0H20v12.8l4.7-3.1l4.7,3.1V0H40v30.6H23.5c0-0.4,0.1-0.8,0.1-1.2
	C23.5,22.3,17.7,16.5,10.6,16.5z M32.9,25.9h2.4V20h-2.4V25.9z M28.2,25.9h2.4V20h-2.4V25.9z"/>
</svg>
