<?xml version="1.0" encoding="utf-8"?>
<!-- Generator: Adobe Illustrator 24.2.3, SVG Export Plug-In . SVG Version: 6.00 Build 0)  -->
<svg version="1.1" id="Слой_1" xmlns="http://www.w3.org/2000/svg" xmlns:xlink="http://www.w3.org/1999/xlink" x="0px" y="0px"
	 width="40px" height="40px" viewBox="0 0 40 40" style="enable-background:new 0 0 40 40;" xml:space="preserve">
<style type="text/css">
	.st0{fill:#33CEBC;}
</style>
<path class="st0" d="M36.7,0h-25c-1.1,0-2,0.9-2,2V19h10.5c0.8,0,1.6,0.5,1.9,1.3c0,0,0.1,0,0.1,0h3.9c0.4,0,0.7,0.3,0.7,0.7V25
	c0,0.4-0.3,0.7-0.7,0.7h-3.9v2.6h3.9c0.4,0,0.7,0.3,0.7,0.7v3.9c0,0.4-0.3,0.7-0.7,0.7h-3.9v2.6h14.4c1.1,0,2-0.9,2-2l0,0V2
	C38.7,0.9,37.8,0,36.7,0z M18.3,17.1c0,0.4-0.3,0.7-0.7,0.7h-3.9c-0.4,0-0.7-0.3-0.7-0.7v-3.9c0-0.4,0.3-0.7,0.7-0.7h3.9
	c0.4,0,0.7,0.3,0.7,0.7V17.1z M26.9,17.1c0,0.4-0.3,0.7-0.7,0.7h-3.9c-0.4,0-0.7-0.3-0.7-0.7v-3.9c0-0.4,0.3-0.7,0.7-0.7h3.9
	c0.4,0,0.7,0.3,0.7,0.7V17.1z M35.4,32.8c0,0.4-0.3,0.7-0.7,0.7h-3.9c-0.4,0-0.7-0.3-0.7-0.7V21c0-0.4,0.3-0.7,0.7-0.7h3.9
	c0.4,0,0.7,0.3,0.7,0.7V32.8z M35.4,17.1c0,0.4-0.3,0.7-0.7,0.7h-3.9c-0.4,0-0.7-0.3-0.7-0.7v-3.9c0-0.4,0.3-0.7,0.7-0.7h3.9
	c0.4,0,0.7,0.3,0.7,0.7V17.1z M36.1,7.9c0,1.1-0.9,2-2,2H14.4c-1.1,0-2-0.9-2-2V4.6c0-1.1,0.9-2,2-2h19.7c1.1,0,2,0.9,2,2V7.9z"/>
<path class="st0" d="M18.4,21.6H2.6c-0.7,0-1.3,0.6-1.3,1.3v15.8c0,0.7,0.6,1.3,1.3,1.3h15.8c0.7,0,1.3-0.6,1.3-1.3V22.9
	C19.7,22.2,19.1,21.6,18.4,21.6z M7.8,36.3C8,36.6,8,37,7.8,37.3c-0.3,0.2-0.7,0.2-0.9,0l-0.9-0.9L5,37.3c-0.3,0.3-0.7,0.3-0.9,0
	c-0.3-0.3-0.3-0.7,0-0.9l0,0L5,35.4l-0.9-0.9c-0.3-0.3-0.3-0.7,0-0.9s0.7-0.3,0.9,0l0,0l0.9,0.9l0.9-0.9c0.3-0.3,0.7-0.3,0.9,0
	c0.3,0.3,0.3,0.7,0,0.9l-0.9,0.9L7.8,36.3z M7.9,26.9H6.6v1.3c0,0.4-0.3,0.7-0.7,0.7s-0.7-0.3-0.7-0.7v-1.3H3.9
	c-0.4,0-0.7-0.3-0.7-0.7c0-0.4,0.3-0.7,0.7-0.7h1.3v-1.3c0-0.4,0.3-0.7,0.7-0.7s0.7,0.3,0.7,0.7v1.3h1.3c0.4,0,0.7,0.3,0.6,0.7
	C8.5,26.6,8.2,26.9,7.9,26.9z M14.4,38c-0.4,0-0.7-0.3-0.6-0.7c0-0.4,0.3-0.6,0.6-0.6c0.4,0,0.6,0.3,0.6,0.7
	C15.1,37.7,14.8,38,14.4,38z M16.4,36.1h-3.9c-0.4,0-0.7-0.3-0.7-0.7c0-0.4,0.3-0.7,0.7-0.7h3.9c0.4,0,0.7,0.3,0.6,0.7
	C17.1,35.8,16.8,36.1,16.4,36.1z M13.8,33.4c0-0.4,0.3-0.7,0.7-0.6c0.4,0,0.6,0.3,0.6,0.6c0,0.4-0.3,0.7-0.7,0.6
	C14.1,34.1,13.8,33.8,13.8,33.4z M16.4,26.9h-3.9c-0.4,0-0.7-0.3-0.7-0.7c0-0.4,0.3-0.7,0.7-0.7h3.9c0.4,0,0.7,0.3,0.6,0.7
	C17.1,26.6,16.8,26.9,16.4,26.9z"/>
<path class="st0" d="M32.5,9.2h-3.9c-0.2,0-0.3-0.2-0.3-0.3c0-0.2,0.1-0.3,0.3-0.3h3.9c0.2,0,0.3,0.2,0.3,0.3
	C32.8,9,32.7,9.2,32.5,9.2z"/>
</svg>
