<?xml version="1.0" encoding="utf-8"?>
<!-- Generator: Adobe Illustrator 24.2.3, SVG Export Plug-In . SVG Version: 6.00 Build 0)  -->
<svg version="1.1" id="Слой_1" xmlns:xodm="http://www.corel.com/coreldraw/odm/2003"
	 xmlns="http://www.w3.org/2000/svg" xmlns:xlink="http://www.w3.org/1999/xlink" x="0px" y="0px" viewBox="0 0 212 90"
	 style="enable-background:new 0 0 212 90;" xml:space="preserve">
<style type="text/css">
	.st0{fill:url(#SVGID_1_);}
	.st1{fill:#9D9E9E;}
</style>
<linearGradient id="SVGID_1_" gradientUnits="userSpaceOnUse" x1="2.434671e-05" y1="30.2626" x2="212" y2="30.2626">
	<stop  offset="0" style="stop-color:#21A967"/>
	<stop  offset="1" style="stop-color:#23A596"/>
</linearGradient>
<path class="st0" d="M65.1,60.5H44v-38h21.1V60.5z M140.5,60.5h-6.9l15.5-30.3L133.6,0l-6.9,0h13.7L156,30.3L140.5,60.5z
	 M126.8,60.5H71.2V37.6H91v6.5h21.5l3.4-6.5H95.7V22.9H116l-3.4-6.5c-30.5,0-61,0-91.4,0v44.1H0V0h126.8l15.5,30.3L126.8,60.5
	L126.8,60.5z M186.6,0c3.8,0,7.2,0.6,10.3,1.8c3.1,1.2,5.8,2.8,8,4.9c2.2,2,4,4.4,5.2,7.2c1.2,2.7,1.9,5.6,1.9,8.6
	c0,3.1-0.6,5.9-1.9,8.6c-1.2,2.7-3,5.1-5.2,7.1c-2.2,2-4.9,3.7-8,4.9c-3.1,1.2-6.6,1.8-10.3,1.8h-18.1v15.6h-21.1l15.5-30.3L147.4,0
	L186.6,0L186.6,0z M190,22.5c0-1.7-0.6-3.2-1.7-4.3c-1.1-1.2-2.6-1.7-4.2-1.7h-15.6v12.1h15.6c1.7,0,3.1-0.6,4.2-1.7
	C189.4,25.7,190,24.2,190,22.5z"/>
<path class="st1" d="M2.7,68.1v21.7H0V65.6h11.3v24.1H8.6V68.1H2.7L2.7,68.1z M64.8,65.4c0.9,0,1.7,0.1,2.4,0.4
	c0.7,0.3,1.2,0.7,1.7,1.2c0.4,0.5,0.8,1.2,1,1.9c0.2,0.7,0.3,1.6,0.3,2.5v12.5c0,1.8-0.4,3.3-1.3,4.4c-0.9,1.1-2.2,1.7-4.1,1.7
	c-1.8,0-3.2-0.6-4.1-1.7c-0.9-1.1-1.3-2.6-1.3-4.4v-2.6h2.5v2.8c0,1.1,0.2,2,0.7,2.6c0.5,0.6,1.2,0.9,2.1,0.9c1,0,1.7-0.3,2.1-0.9
	c0.5-0.6,0.7-1.5,0.7-2.6v-5.6h-4.2v-2.4h4.2v-4.8c0-1.1-0.2-2-0.7-2.6c-0.5-0.6-1.2-0.9-2.1-0.9c-1,0-1.7,0.3-2.1,0.9
	c-0.5,0.6-0.7,1.5-0.7,2.6v1.9h-2.5v-1.8c0-0.9,0.1-1.8,0.3-2.5c0.2-0.7,0.5-1.4,1-1.9c0.4-0.5,1-0.9,1.7-1.2
	C63,65.5,63.8,65.4,64.8,65.4z M75.4,78.9v10.9h-2.7V65.6h2.7v10.9h5.9V65.6H84v24.1h-2.7V78.9H75.4z M95.3,76.3v2.4h-5.9v8.6h7.2
	v2.4h-9.9V65.6h9.9v2.4h-7.2v8.2H95.3z M104.4,65.6c1.9,0,3.3,0.5,4.1,1.6c0.8,1,1.3,2.5,1.3,4.3v2.9c0,1.9-0.5,3.4-1.4,4.4
	c-0.9,1-2.3,1.5-4.2,1.5h-2.4v9.5h-2.7V65.6L104.4,65.6L104.4,65.6z M104.2,77.8c1,0,1.8-0.2,2.2-0.7c0.5-0.5,0.7-1.3,0.7-2.5v-3.2
	c0-1.1-0.2-1.9-0.6-2.5c-0.4-0.6-1.1-0.8-2.1-0.8h-2.6v9.8L104.2,77.8L104.2,77.8z M114.5,68.1v21.7h-2.6V65.6h9.6v2.4L114.5,68.1
	L114.5,68.1z M123.9,71.5c0-1.9,0.5-3.3,1.4-4.4c0.9-1.1,2.3-1.6,4.1-1.6c1.9,0,3.2,0.5,4.2,1.6c0.9,1.1,1.4,2.6,1.4,4.4v12.5
	c0,1.8-0.5,3.3-1.4,4.4c-0.9,1.1-2.3,1.7-4.2,1.7c-1.9,0-3.2-0.6-4.1-1.7c-0.9-1.1-1.4-2.6-1.4-4.4V71.5z M126.5,84.1
	c0,1.1,0.2,2,0.7,2.6c0.5,0.6,1.2,0.9,2.1,0.9c1,0,1.7-0.3,2.2-0.9c0.5-0.6,0.7-1.5,0.7-2.6V71.3c0-1.1-0.2-2-0.7-2.6
	c-0.5-0.6-1.2-0.9-2.2-0.9c-1,0-1.7,0.3-2.1,0.9c-0.5,0.6-0.7,1.5-0.7,2.6V84.1z M19.3,65.6c1.9,0,3.3,0.5,4.1,1.6
	c0.8,1,1.3,2.5,1.3,4.3v2.9c0,1.9-0.5,3.4-1.4,4.4c-0.9,1-2.3,1.5-4.2,1.5h-2.4v9.5H14V65.6L19.3,65.6L19.3,65.6z M19.1,77.8
	c1,0,1.8-0.2,2.2-0.7c0.5-0.5,0.7-1.3,0.7-2.5v-3.2c0-1.1-0.2-1.9-0.6-2.5c-0.4-0.6-1.1-0.8-2.1-0.8h-2.6v9.8L19.1,77.8L19.1,77.8z
	 M26.6,71.5c0-1.9,0.5-3.3,1.4-4.4c0.9-1.1,2.3-1.6,4.1-1.6c1.9,0,3.2,0.5,4.2,1.6c0.9,1.1,1.4,2.6,1.4,4.4v12.5
	c0,1.8-0.5,3.3-1.4,4.4c-0.9,1.1-2.3,1.7-4.2,1.7c-1.9,0-3.2-0.6-4.1-1.7c-0.9-1.1-1.4-2.6-1.4-4.4V71.5z M29.2,84.1
	c0,1.1,0.2,2,0.7,2.6c0.5,0.6,1.2,0.9,2.1,0.9c1,0,1.7-0.3,2.2-0.9c0.5-0.6,0.7-1.5,0.7-2.6V71.3c0-1.1-0.2-2-0.7-2.6
	c-0.5-0.6-1.2-0.9-2.2-0.9c-1,0-1.7,0.3-2.1,0.9c-0.5,0.6-0.7,1.5-0.7,2.6V84.1z M51.5,68.5c1.9,0,3.4,0.5,4.2,1.6
	c0.9,1,1.3,2.5,1.3,4.5v6.6c0,1.9-0.4,3.4-1.3,4.5c-0.9,1-2.3,1.6-4.2,1.6h-1.7v2.7h-2.6v-2.7h-1.7c-1.9,0-3.4-0.5-4.2-1.6
	c-0.9-1-1.3-2.5-1.3-4.5v-6.6c0-1.9,0.4-3.4,1.3-4.5c0.9-1,2.3-1.6,4.2-1.6h1.7v-2.8h2.6v2.8H51.5z M45.5,70.8c-1,0-1.8,0.3-2.2,0.9
	c-0.5,0.6-0.7,1.4-0.7,2.6v6.9c0,1.2,0.2,2.1,0.7,2.6c0.5,0.6,1.2,0.9,2.2,0.9h1.7V70.8H45.5z M51.5,84.8c2,0,3-1.2,3-3.5v-6.9
	c0-1.2-0.2-2-0.7-2.6c-0.5-0.6-1.2-0.9-2.3-0.9h-1.7v13.9H51.5z M142.7,65.6c1.9,0,3.3,0.5,4.1,1.6c0.8,1,1.3,2.5,1.3,4.3v2.9
	c0,1.9-0.5,3.4-1.4,4.4c-0.9,1-2.3,1.5-4.2,1.5h-2.4v9.5h-2.7V65.6L142.7,65.6L142.7,65.6z M142.5,77.8c1,0,1.8-0.2,2.2-0.7
	c0.5-0.5,0.7-1.3,0.7-2.5v-3.2c0-1.1-0.2-1.9-0.6-2.5c-0.4-0.6-1.1-0.8-2.1-0.8h-2.6v9.8L142.5,77.8L142.5,77.8z M158.8,76.3v2.4
	h-5.9v8.6h7.2v2.4h-9.9V65.6h9.9v2.4h-7.2v8.2H158.8z M167.8,65.4c1.9,0,3.2,0.6,4.1,1.7c0.9,1.1,1.3,2.6,1.3,4.4v0.6
	c0,1.2-0.2,2.3-0.7,3.2c-0.5,0.9-1.2,1.5-2.2,1.8c1,0.3,1.8,1,2.3,1.8c0.5,0.9,0.7,1.9,0.7,3.1v1.9c0,1.8-0.4,3.3-1.3,4.4
	c-0.9,1.1-2.3,1.7-4.1,1.7c-1.8,0-3.2-0.6-4.1-1.7c-0.9-1.1-1.3-2.6-1.3-4.4v-2.3h2.5v2.5c0,1.1,0.2,2,0.7,2.6
	c0.5,0.6,1.2,0.9,2.1,0.9c1,0,1.7-0.3,2.1-0.9c0.4-0.6,0.7-1.5,0.7-2.8V82c0-2.4-1-3.6-3.1-3.6h-1.1V76h1.3c0.9,0,1.6-0.3,2.1-0.9
	c0.5-0.6,0.8-1.4,0.8-2.4v-1.1c0-1.2-0.2-2.2-0.7-2.8c-0.4-0.6-1.2-0.9-2.1-0.9c-1,0-1.7,0.3-2.1,0.9c-0.5,0.6-0.7,1.5-0.7,2.6v1.6
	h-2.5v-1.5c0-1.9,0.4-3.3,1.3-4.4C164.6,65.9,166,65.4,167.8,65.4z M184.4,76.3v2.4h-5.9v8.6h7.2v2.4h-9.9V65.6h9.9v2.4h-7.2v8.2
	H184.4z M193.5,65.6c1.9,0,3.3,0.5,4.1,1.6c0.8,1,1.3,2.5,1.3,4.3v2.9c0,1.9-0.5,3.4-1.4,4.4c-0.9,1-2.3,1.5-4.2,1.5h-2.4v9.5h-2.7
	V65.6L193.5,65.6L193.5,65.6z M193.3,77.8c1,0,1.8-0.2,2.2-0.7c0.5-0.5,0.7-1.3,0.7-2.5v-3.2c0-1.1-0.2-1.9-0.6-2.5
	c-0.4-0.6-1.1-0.8-2.1-0.8h-2.6v9.8L193.3,77.8L193.3,77.8z M206.4,65.6c1.9,0,3.2,0.4,4,1.3c0.8,0.9,1.2,2.2,1.2,4v1.1
	c0,1.3-0.2,2.3-0.6,3.1c-0.4,0.8-1.1,1.4-2.2,1.7c1.2,0.3,2,0.9,2.5,1.8c0.5,0.9,0.7,2,0.7,3.3v2c0,1.8-0.4,3.2-1.3,4.2
	c-0.9,1-2.3,1.5-4.2,1.5H201V65.6L206.4,65.6L206.4,65.6z M205.7,75.9c1.1,0,1.9-0.2,2.4-0.7c0.5-0.4,0.8-1.3,0.8-2.6v-1.4
	c0-1.1-0.2-1.9-0.6-2.4c-0.4-0.5-1.1-0.8-2-0.8h-2.6v7.8L205.7,75.9L205.7,75.9z M206.5,87.3c1.9,0,2.9-1.1,2.9-3.3v-2.1
	c0-1.4-0.3-2.3-0.8-2.8c-0.5-0.5-1.4-0.8-2.6-0.8h-2.3v9L206.5,87.3L206.5,87.3z"/>
</svg>
