<svg width="40" height="40" viewBox="0 0 40 40" fill="none" xmlns="http://www.w3.org/2000/svg">
<rect width="40" height="40" fill="#4CC579"/>
<path d="M30.1058 9.77812C27.6741 7.34062 24.4357 6 20.9942 6C13.8906 6 8.11027 11.7804 8.11027 18.8839C8.11027 21.1531 8.70223 23.3701 9.82812 25.3259L8 32L14.8308 30.2067C16.7112 31.2339 18.8295 31.7737 20.9884 31.7737H20.9942C28.092 31.7737 34 25.9933 34 18.8897C34 15.4482 32.5375 12.2156 30.1058 9.77812V9.77812ZM20.9942 29.6031C19.0674 29.6031 17.1812 29.0866 15.5388 28.1116L15.15 27.8795L11.0991 28.9415L12.1786 24.9893L11.9232 24.583C10.8496 22.8768 10.2866 20.9094 10.2866 18.8839C10.2866 12.9817 15.092 8.17634 21 8.17634C23.8612 8.17634 26.5482 9.29062 28.5679 11.3161C30.5875 13.3415 31.8295 16.0286 31.8237 18.8897C31.8237 24.7978 26.8964 29.6031 20.9942 29.6031V29.6031ZM26.8674 21.5826C26.5482 21.4201 24.9638 20.6424 24.6679 20.5379C24.3719 20.4277 24.1571 20.3754 23.9424 20.7004C23.7277 21.0254 23.1125 21.7451 22.921 21.9656C22.7353 22.1804 22.5437 22.2094 22.2246 22.0469C20.3326 21.1009 19.0906 20.358 17.8429 18.2165C17.5121 17.6478 18.1737 17.6884 18.7888 16.458C18.8933 16.2433 18.8411 16.0576 18.7598 15.8951C18.6786 15.7326 18.0344 14.1482 17.7674 13.504C17.5062 12.8772 17.2393 12.9643 17.042 12.9527C16.8562 12.9411 16.6415 12.9411 16.4268 12.9411C16.2121 12.9411 15.8638 13.0223 15.5679 13.3415C15.2719 13.6665 14.442 14.4442 14.442 16.0286C14.442 17.6129 15.5969 19.1451 15.7536 19.3598C15.9161 19.5746 18.0228 22.8246 21.2554 24.2232C23.2982 25.1054 24.0991 25.1808 25.1205 25.0299C25.7415 24.9371 27.0241 24.2522 27.2911 23.4978C27.558 22.7433 27.558 22.0991 27.4768 21.9656C27.4013 21.8205 27.1866 21.7393 26.8674 21.5826Z" fill="white"/>
</svg>
