<svg width="40" height="40" viewBox="0 0 40 40" fill="none" xmlns="http://www.w3.org/2000/svg">
<circle r="19.5" transform="matrix(-1 0 0 1 20 20)" stroke="url(#paint0_linear_178_8)"/>
<path d="M28.3536 19.6464C28.5488 19.8417 28.5488 20.1583 28.3536 20.3536L25.1716 23.5355C24.9763 23.7308 24.6597 23.7308 24.4645 23.5355C24.2692 23.3403 24.2692 23.0237 24.4645 22.8284L27.2929 20L24.4645 17.1716C24.2692 16.9763 24.2692 16.6597 24.4645 16.4645C24.6597 16.2692 24.9763 16.2692 25.1716 16.4645L28.3536 19.6464ZM12 19.5L28 19.5L28 20.5L12 20.5L12 19.5Z" fill="url(#paint1_linear_178_8)"/>
<defs>
<linearGradient id="paint0_linear_178_8" x1="0" y1="0" x2="43.3435" y2="2.55161" gradientUnits="userSpaceOnUse">
<stop stop-color="#7775E7"/>
<stop offset="0.6417" stop-color="#A93CF6"/>
<stop offset="1" stop-color="#C41DFF"/>
</linearGradient>
<linearGradient id="paint1_linear_178_8" x1="12" y1="20" x2="21.2187" y2="11.3168" gradientUnits="userSpaceOnUse">
<stop stop-color="#7775E7"/>
<stop offset="0.6417" stop-color="#A93CF6"/>
<stop offset="1" stop-color="#C41DFF"/>
</linearGradient>
</defs>
</svg>
