<svg width="215" height="135" viewBox="0 0 215 135" fill="none" xmlns="http://www.w3.org/2000/svg">
<path fill-rule="evenodd" clip-rule="evenodd" d="M64.7969 132.232H65.3152V131.092C65.4117 131.226 65.5188 131.352 65.6356 131.469C66.0739 131.909 66.6331 132.209 67.2421 132.331C67.8512 132.453 68.4828 132.392 69.0569 132.155C69.6311 131.918 70.1219 131.515 70.4673 130.999C70.8126 130.483 70.997 129.876 70.997 129.254C70.997 128.633 70.8126 128.026 70.4673 127.51C70.1219 126.993 69.6311 126.591 69.0569 126.354C68.4828 126.117 67.8512 126.055 67.2421 126.178C66.6331 126.3 66.0739 126.6 65.6356 127.04C65.5189 127.153 65.4118 127.276 65.3152 127.407V123.091H64.7969V132.232V132.232ZM66.0219 127.426C66.3844 127.064 66.8462 126.817 67.3489 126.717C67.8515 126.617 68.3725 126.669 68.846 126.865C69.3194 127.061 69.7241 127.393 70.0088 127.82C70.2935 128.246 70.4455 128.747 70.4455 129.259C70.4455 129.772 70.2935 130.273 70.0088 130.699C69.7241 131.125 69.3194 131.457 68.846 131.653C68.3725 131.849 67.8515 131.901 67.3489 131.801C66.8462 131.701 66.3844 131.454 66.0219 131.092C65.6556 130.747 65.4081 130.295 65.3152 129.801V128.727C65.4075 128.229 65.6549 127.774 66.0219 127.426ZM76.3879 126.625H75.8131L73.9284 130.536L72.0436 126.625H71.4688L73.5985 131.196L72.119 134.362H72.6939L76.3879 126.625ZM84.8692 122.969C83.7782 122.969 82.721 123.347 81.8779 124.039C81.0348 124.732 80.4581 125.695 80.2462 126.765C80.0343 127.836 80.2003 128.946 80.7159 129.908C81.2316 130.869 82.0649 131.622 83.0736 132.037C84.0823 132.453 85.204 132.505 86.2472 132.186C87.2904 131.867 88.1905 131.195 88.7939 130.287C89.3972 129.378 89.6665 128.287 89.5557 127.202C89.4449 126.117 88.9609 125.104 88.1863 124.335C87.7575 123.891 87.2415 123.54 86.6706 123.305C86.0998 123.07 85.4864 122.956 84.8692 122.969V122.969ZM87.8188 124.712C88.4964 125.393 88.917 126.288 89.0091 127.245C89.1011 128.201 88.8589 129.16 88.3236 129.958C87.7883 130.756 86.9931 131.344 86.0732 131.622C85.1533 131.899 84.1657 131.849 83.2783 131.481C82.3909 131.112 81.6587 130.448 81.2062 129.6C80.7537 128.752 80.6089 127.774 80.7965 126.832C80.984 125.889 81.4923 125.041 82.2349 124.431C82.9774 123.822 83.9083 123.488 84.8692 123.487C85.4187 123.478 85.9642 123.581 86.4717 123.792C86.9792 124.003 87.4378 124.316 87.8188 124.712V124.712ZM92.6814 126.597L91.1171 128.482V124.175H90.5988V132.166H91.1171V129.339L91.6165 128.717L93.5012 132.204H94.142L91.9369 128.303L93.3222 126.597H92.6814ZM96.8937 129.726C97.0036 129.83 97.0912 129.956 97.1511 130.095C97.2111 130.234 97.2421 130.384 97.2424 130.536C97.2437 130.687 97.2151 130.837 97.1585 130.977C97.1019 131.117 97.0182 131.244 96.9124 131.352C96.8065 131.459 96.6804 131.545 96.5414 131.604C96.4024 131.663 96.2531 131.694 96.1022 131.695C95.9476 131.699 95.794 131.671 95.6504 131.614C95.5069 131.557 95.3765 131.471 95.2672 131.362C95.158 131.252 95.072 131.122 95.0147 130.978C94.9573 130.835 94.9297 130.681 94.9336 130.527L94.4248 130.649C94.4271 130.852 94.471 131.051 94.5536 131.236C94.6363 131.421 94.756 131.587 94.9054 131.723C95.218 132.035 95.6417 132.21 96.0833 132.21C96.525 132.21 96.9486 132.035 97.2613 131.723V131.723C97.5686 131.408 97.7407 130.986 97.7407 130.545C97.7407 130.105 97.5686 129.683 97.2613 129.368C96.9464 129.085 96.5945 128.848 96.2152 128.661C96.0039 128.536 95.8051 128.39 95.6216 128.227C95.5032 128.112 95.422 127.964 95.3885 127.802C95.355 127.64 95.3706 127.472 95.4334 127.319C95.4962 127.166 95.6033 127.035 95.7409 126.943C95.8786 126.852 96.0405 126.803 96.2058 126.804C96.3099 126.799 96.4139 126.816 96.5112 126.853C96.6086 126.891 96.6971 126.948 96.7712 127.021C96.9277 127.203 97.0203 127.432 97.0351 127.671L97.4874 127.492C97.4865 127.34 97.4542 127.189 97.3926 127.05C97.331 126.91 97.2414 126.785 97.1293 126.682C97.0064 126.558 96.8591 126.462 96.6969 126.399C96.5346 126.335 96.361 126.307 96.187 126.314C96.0112 126.313 95.837 126.347 95.675 126.415C95.5129 126.483 95.3665 126.583 95.2446 126.71C94.996 126.961 94.8565 127.299 94.8565 127.652C94.8565 128.005 94.996 128.344 95.2446 128.595C95.5296 128.838 95.8467 129.041 96.187 129.198C96.4471 129.355 96.693 129.535 96.922 129.735L96.8937 129.726ZM103.17 126.597H102.595L100.71 130.508L98.8256 126.597H98.2507L100.38 131.167L98.9481 134.362H99.5229L103.17 126.597ZM114.478 123.063L111.171 127.398L107.863 123.063H107.118V132.204H107.637V123.619L111.171 128.256L114.714 123.619V132.204H115.223V123.063H114.478ZM122.507 126.597H121.989V127.389C121.89 127.257 121.783 127.131 121.668 127.012C121.23 126.573 120.67 126.274 120.062 126.153C119.453 126.032 118.822 126.094 118.249 126.332C117.675 126.569 117.185 126.972 116.841 127.488C116.496 128.004 116.312 128.61 116.312 129.231C116.312 129.851 116.496 130.458 116.841 130.974C117.185 131.49 117.675 131.892 118.249 132.13C118.822 132.368 119.453 132.43 120.062 132.309C120.67 132.188 121.23 131.889 121.668 131.45V131.45C121.782 131.328 121.885 131.205 121.989 131.073V132.213H122.507V126.597ZM121.273 131.054C120.912 131.416 120.452 131.663 119.951 131.763C119.45 131.863 118.93 131.812 118.458 131.617C117.986 131.422 117.582 131.091 117.298 130.666C117.014 130.241 116.862 129.742 116.862 129.231C116.862 128.72 117.014 128.22 117.298 127.796C117.582 127.371 117.986 127.04 118.458 126.845C118.93 126.649 119.45 126.599 119.951 126.699C120.452 126.799 120.912 127.046 121.273 127.407C121.63 127.767 121.875 128.222 121.979 128.717V129.735C121.882 130.238 121.632 130.698 121.263 131.054H121.273ZM123.289 126.597V127.115H124.43V132.204H124.938V127.115H126.088V126.597H124.938V124.213H124.43V126.597H123.289ZM126.899 132.204H127.417V127.747C127.499 127.57 127.614 127.41 127.756 127.275C128.082 126.953 128.523 126.772 128.981 126.772C129.44 126.772 129.88 126.953 130.206 127.275C130.37 127.434 130.5 127.625 130.588 127.835C130.675 128.046 130.719 128.272 130.715 128.501V132.204H131.233V128.435C131.233 127.867 131.01 127.322 130.611 126.919C130.213 126.515 129.671 126.284 129.104 126.277H128.991C128.701 126.271 128.413 126.325 128.144 126.433C127.875 126.542 127.631 126.703 127.426 126.908V123.082H126.908V132.223L126.899 132.204ZM133.495 127.398C133.736 127.157 134.022 126.966 134.336 126.836C134.65 126.706 134.988 126.639 135.328 126.639C135.668 126.639 136.006 126.706 136.32 126.836C136.635 126.966 136.92 127.157 137.161 127.398V127.398C137.444 127.683 137.654 128.032 137.773 128.416H132.873C133.003 128.03 133.223 127.682 133.514 127.398H133.495ZM138.367 128.943C138.369 128.583 138.298 128.227 138.159 127.895C138.02 127.563 137.815 127.263 137.557 127.012C137.118 126.573 136.559 126.274 135.95 126.153C135.341 126.032 134.71 126.094 134.137 126.332C133.564 126.569 133.074 126.972 132.729 127.488C132.384 128.004 132.2 128.61 132.2 129.231C132.2 129.851 132.384 130.458 132.729 130.974C133.074 131.49 133.564 131.892 134.137 132.13C134.71 132.368 135.341 132.43 135.95 132.309C136.559 132.188 137.118 131.889 137.557 131.45C137.709 131.312 137.845 131.157 137.962 130.988L137.415 130.79C137.331 130.885 137.255 130.979 137.17 131.064C136.93 131.305 136.644 131.496 136.329 131.626C136.015 131.756 135.678 131.823 135.337 131.823C134.997 131.823 134.66 131.756 134.345 131.626C134.031 131.496 133.745 131.305 133.505 131.064C133.255 130.818 133.059 130.524 132.928 130.2C132.797 129.876 132.733 129.529 132.741 129.179C132.741 129.085 132.741 128.991 132.741 128.896L138.367 128.943ZM145.077 126.597L143.597 131.205L142.278 127.549H141.986L140.666 131.205L139.187 126.597H138.593L140.478 132.204H140.808L142.108 128.548L143.418 132.204H143.739L145.623 126.597H145.077ZM148.498 129.726C148.606 129.831 148.692 129.957 148.751 130.096C148.809 130.235 148.838 130.385 148.837 130.536C148.837 130.843 148.716 131.137 148.501 131.356C148.286 131.574 147.994 131.7 147.687 131.705C147.535 131.705 147.384 131.675 147.243 131.616C147.103 131.558 146.975 131.473 146.867 131.365C146.65 131.14 146.529 130.839 146.528 130.527L146.019 130.649C146.023 130.852 146.069 131.052 146.153 131.237C146.237 131.422 146.359 131.587 146.509 131.723C146.663 131.878 146.846 132 147.047 132.083C147.249 132.167 147.464 132.21 147.682 132.21C147.9 132.21 148.116 132.167 148.317 132.083C148.519 132 148.702 131.878 148.856 131.723V131.723C149.168 131.411 149.343 130.987 149.343 130.545C149.343 130.104 149.168 129.68 148.856 129.368C148.544 129.085 148.195 128.848 147.819 128.661C147.605 128.536 147.403 128.391 147.216 128.227C147.098 128.112 147.016 127.964 146.983 127.802C146.949 127.64 146.965 127.472 147.028 127.319C147.091 127.166 147.198 127.035 147.335 126.943C147.473 126.852 147.635 126.803 147.8 126.804C147.904 126.798 148.009 126.814 148.106 126.852C148.204 126.889 148.292 126.947 148.366 127.021C148.524 127.203 148.62 127.431 148.639 127.671L149.082 127.492C149.08 127.341 149.049 127.191 148.989 127.052C148.929 126.913 148.842 126.787 148.733 126.682C148.481 126.435 148.143 126.297 147.791 126.297C147.438 126.297 147.1 126.435 146.848 126.682C146.6 126.932 146.46 127.271 146.46 127.624C146.46 127.977 146.6 128.316 146.848 128.566C147.132 128.812 147.449 129.015 147.791 129.17C148.049 129.329 148.295 129.509 148.526 129.707L148.498 129.726Z" fill="#1A1A1A"/>
<path fill-rule="evenodd" clip-rule="evenodd" d="M143.597 103.386C143.531 103.726 143.456 104.065 143.39 104.414C143.069 105.997 142.674 107.618 142.184 109.257C141.74 110.829 141.07 112.327 140.195 113.705C139.253 115.109 138.395 115.59 137.754 115.194C136.974 114.539 136.478 113.607 136.369 112.593C135.936 110.27 135.684 107.916 135.615 105.554C135.502 102.777 135.474 100.204 135.53 97.836C135.523 96.3241 135.611 94.8134 135.794 93.3126C135.853 93.0731 135.848 92.8221 135.778 92.5854C135.709 92.3486 135.578 92.1346 135.398 91.965C135.241 91.8206 135.05 91.7161 134.844 91.6604C134.637 91.6046 134.42 91.5992 134.211 91.6446C133.973 91.7031 133.757 91.8296 133.59 92.0087C133.423 92.1877 133.311 92.4116 133.269 92.653C133.269 92.7755 133.193 92.9168 133.156 93.0676C132.895 92.3459 132.461 91.6989 131.893 91.1829V91.1829C131.575 90.88 131.205 90.6373 130.8 90.4667C129.815 90.1023 128.732 90.1023 127.747 90.4667C126.712 90.8298 125.742 91.3546 124.872 92.0216C123.12 93.541 121.792 95.4892 121.018 97.6758C120.388 99.3445 119.988 101.091 119.831 102.868L119.746 102.991C119.19 103.999 118.577 105.073 117.927 106.232C117.098 107.768 116.287 109.239 115.477 110.643C114.825 111.802 114.111 112.925 113.338 114.007C112.725 114.846 112.282 115.175 112.018 114.949C111.755 114.723 111.755 113.856 112.018 112.207C112.282 110.558 112.763 108.494 113.31 106.345C113.856 104.197 114.356 101.973 114.761 99.8055C115.15 97.8966 115.268 95.9423 115.109 94.0005C114.864 92.2572 114.356 91.1169 113.602 90.5703C113.226 90.3048 112.79 90.135 112.334 90.0759C111.877 90.0168 111.413 90.0701 110.982 90.2311C109.897 90.5967 108.901 91.1876 108.061 91.965C106.523 93.4051 105.189 95.0472 104.093 96.8465C102.975 98.6872 102.171 100.123 101.681 101.153C101.558 101.36 101.455 101.539 101.389 101.681C101.049 102.312 100.738 102.953 100.446 103.566L100.531 102.482C100.663 100.993 100.795 99.8055 100.927 98.9197C100.962 98.6916 100.938 98.4583 100.857 98.2421C100.776 98.026 100.641 97.8342 100.465 97.6852C100.308 97.543 100.118 97.4418 99.9129 97.3909C99.7074 97.3399 99.4924 97.3406 99.2872 97.3931C98.8631 97.6004 98.5144 98.4768 98.2317 100.022C98.0433 101.115 97.8831 102.227 97.7794 103.339C94.5942 110.024 92.4488 113.925 91.3431 115.044C90.7965 115.628 90.4761 115.439 90.4007 114.488C90.317 113.078 90.3707 111.664 90.5609 110.266C90.7588 108.381 91.0415 106.411 91.3902 104.282C91.7389 102.152 92.0875 100.201 92.4174 98.4391C92.7472 96.6769 93.0016 95.3952 93.1618 94.6696C93.2014 94.4961 93.2267 94.3196 93.2372 94.1419C93.3786 93.4069 93.5011 92.7378 93.6047 92.1535C93.7084 91.5693 93.7838 91.2112 93.8215 90.9567C94.0677 89.6305 94.2252 88.2894 94.2927 86.9423C94.3398 86.1073 94.2081 85.272 93.9063 84.4921C93.8002 84.1628 93.6263 83.8593 93.3958 83.6013C93.1654 83.3432 92.8834 83.1363 92.5681 82.9938C92.1772 82.8838 91.7656 82.8683 91.3675 82.9486C90.9694 83.0289 90.596 83.2026 90.2782 83.4555C88.3896 84.8336 86.7969 86.5768 85.5947 88.582C83.943 91.1219 82.4633 93.7696 81.1655 96.5072C79.7708 99.4223 78.5364 102.196 77.4621 104.828C77.6838 102.322 77.753 99.8042 77.6694 97.2894C77.6623 95.5627 77.343 93.8515 76.727 92.2383C76.5598 91.682 76.2397 91.1839 75.8032 90.8007C75.3667 90.4175 74.8313 90.1646 74.258 90.0709C73.1837 89.9578 71.855 90.7117 70.253 92.3326C68.406 94.1796 66.7443 97.415 65.2679 102.039C65.2679 100.983 65.3339 100.088 65.3716 99.3437C65.408 99.0367 65.3744 98.7254 65.2732 98.4332C65.172 98.141 65.0059 97.8756 64.7873 97.6569C64.6213 97.5144 64.4152 97.427 64.1975 97.4068C63.9797 97.3865 63.761 97.4344 63.5716 97.5438C63.3419 97.6917 63.1555 97.8977 63.0313 98.1411C62.9072 98.3844 62.8497 98.6563 62.8649 98.9291C62.7989 99.9657 62.7424 101.266 62.6952 102.802L62.3843 103.17C61.7339 104.097 60.9234 104.902 59.9907 105.544C59.0156 106.232 57.9848 106.837 56.9091 107.354C56.5887 104.527 56.2118 101.766 55.7594 99.1458C55.3071 96.5261 54.8736 94.1796 54.4496 92.1064L54.3176 91.4091C54.1857 90.6834 53.9124 90.2688 53.5166 90.1557C53.3262 90.0993 53.1254 90.087 52.9295 90.1197C52.7336 90.1523 52.5477 90.2291 52.3858 90.3442C52.2274 90.428 52.0895 90.5458 51.982 90.6892C51.8745 90.8326 51.8 90.9979 51.7638 91.1735C51.5811 92.7722 51.2466 94.3499 50.7649 95.8853C50.014 98.2885 48.9561 100.585 47.6174 102.717C46.4112 104.602 45.4406 105.544 44.7338 105.686C44.027 105.827 43.537 105.205 43.292 103.952C43.0719 102.007 43.1227 100.04 43.4428 98.1092C43.6962 96.0863 44.0771 94.0814 44.583 92.1064C44.7809 91.3714 44.715 90.8531 44.3851 90.5703C44.2003 90.4167 43.987 90.3009 43.7574 90.2298C43.5277 90.1586 43.2863 90.1335 43.047 90.1557C42.4859 90.1716 41.9302 90.2701 41.3978 90.4478C41.2436 90.4939 41.1037 90.5787 40.9915 90.6942C40.8793 90.8097 40.7986 90.952 40.757 91.1075C40.6911 91.4279 40.8324 91.6258 41.1811 91.7106C41.4144 91.7503 41.6363 91.8404 41.8313 91.9745C41.8697 92.0671 41.8894 92.1664 41.8894 92.2666C41.8894 92.3669 41.8697 92.4661 41.8313 92.5587C41.1743 95.2314 40.7767 97.9612 40.644 100.71C40.6093 101.666 40.7302 102.621 41.0021 103.537C40.4773 105.967 39.7264 108.343 38.7592 110.633C37.6073 113.495 36.1508 116.225 34.4149 118.775C33.1179 120.903 31.255 122.629 29.034 123.76C28.5818 123.937 28.0991 124.021 27.6139 124.01C27.1287 123.999 26.6505 123.892 26.207 123.694C25.3215 123.286 24.551 122.664 23.9641 121.885C23.3889 121.13 22.9343 120.291 22.6166 119.397C24.7678 117.944 26.62 116.092 28.0728 113.941C29.4638 111.928 30.6567 109.785 31.635 107.542C32.5585 105.46 33.275 103.291 33.7741 101.068C34.0858 99.7368 34.2439 98.3741 34.2453 97.0067C34.1793 94.4906 33.6893 92.8132 32.7941 91.9933C32.3596 91.5877 31.8174 91.316 31.2324 91.2107C30.6474 91.1054 30.0445 91.171 29.4958 91.3996C28.0418 91.9286 26.7315 92.7902 25.6698 93.9157C24.4159 95.1755 23.3837 96.6378 22.6166 98.2412C21.1639 101.498 20.1499 104.933 19.601 108.456C18.9537 112.052 19.0629 115.743 19.9214 119.294C19.0576 119.571 18.1403 119.639 17.2451 119.491C11.3082 117.06 10.7239 106.298 14.7007 90.2782C14.8892 89.5526 15.0777 88.8458 15.285 88.1673L16.4629 88.0731C18.6963 87.9223 20.9203 87.6585 23.1254 87.3098C25.2766 86.9789 27.3645 86.321 29.3168 85.3591C30.8597 84.5946 32.2668 83.5823 33.482 82.3624C34.4616 81.3794 35.2339 80.2098 35.7531 78.9227C36.5949 76.5668 36.5949 74.5533 35.7531 72.8822C34.8562 71.1876 33.3819 69.8703 31.5973 69.1693C29.543 68.3348 27.3018 68.0694 25.1095 68.4011C22.9171 68.7328 20.8547 69.6492 19.1392 71.054C15.8419 74.0718 13.2903 77.8138 11.6852 81.9854V81.9854C10.9215 83.8118 10.2546 85.6771 9.68735 87.5736C7.63533 87.8938 5.66805 88.6212 3.90124 89.7128C2.27477 90.7919 1.0235 92.3494 0.320263 94.1702C0.221973 94.3792 0.143111 94.5969 0.0846722 94.8204C0.000345751 95.0592 -0.0191643 95.3161 0.0281305 95.5649C0.13179 95.9041 0.471041 95.9795 1.02703 95.8099C1.21092 95.7615 1.38089 95.6706 1.52327 95.5446C1.66566 95.4186 1.7765 95.2609 1.84689 95.0843C1.9167 94.9123 1.94863 94.7274 1.9405 94.542C1.93237 94.3566 1.88437 94.1751 1.79977 94.01C2.38757 92.7705 3.29512 91.71 4.42896 90.9379C5.90312 89.9691 7.55658 89.3058 9.29155 88.9872C8.63924 91.3883 8.13569 93.8274 7.78377 96.2905C7.07639 100.881 7.07639 105.553 7.78377 110.143C8.06327 111.98 8.59607 113.768 9.36694 115.458C10.0714 117.032 11.1681 118.398 12.5521 119.425C14.0936 120.488 15.9402 121.017 17.8105 120.933C18.6641 120.935 19.5117 120.791 20.3172 120.509C20.6822 121.482 21.2414 122.371 21.9607 123.121C22.68 123.871 23.5444 124.467 24.5013 124.872C25.4679 125.268 26.5123 125.438 27.5544 125.367C28.5966 125.297 29.6088 124.989 30.5136 124.467C32.5443 123.153 34.249 121.393 35.4987 119.322C37.1487 116.8 38.529 114.112 39.6168 111.302C40.0973 110.069 40.5126 108.81 40.8607 107.533C41.132 106.604 41.3336 105.656 41.4638 104.696C41.4638 104.696 41.4638 104.762 41.4638 104.791C41.6798 105.307 42.014 105.765 42.4396 106.129C42.8652 106.492 43.3702 106.75 43.914 106.883C44.9506 107.103 46.1128 106.509 47.4007 105.102C48.6714 103.513 49.7383 101.772 50.5765 99.9186C50.9974 99.0076 51.3555 98.1972 51.6508 97.4873C51.7733 98.9951 52.1973 104.084 52.4423 109.474C51.2927 110.058 50.1618 110.68 49.0593 111.359C47.1742 112.529 45.4934 114 44.0836 115.713C42.3902 117.826 41.1113 120.24 40.3141 122.827C39.4377 125.871 39.466 128.425 40.4178 130.479C40.9241 131.629 41.748 132.609 42.7925 133.306C43.8541 133.981 45.0985 134.31 46.3547 134.249C47.6381 134.216 48.9022 133.928 50.0735 133.402C51.2448 132.877 52.2998 132.123 53.1774 131.186C54.8573 129.273 56.0159 126.959 56.5416 124.467C57.133 121.769 57.4206 119.012 57.3992 116.25C57.3992 113.441 57.2767 110.929 57.0316 108.711C58.1184 108.2 59.1699 107.618 60.1791 106.967C61.066 106.394 61.8766 105.71 62.5916 104.932C62.5916 106.113 62.5727 107.263 62.535 108.381C62.535 109.983 62.4879 111.208 62.4879 112.009C62.4681 112.209 62.4962 112.411 62.5699 112.598C62.6437 112.784 62.761 112.951 62.912 113.083C63.1898 113.266 63.5277 113.334 63.8543 113.272C64.1457 113.255 64.425 113.15 64.6554 112.97C64.7846 112.851 64.8861 112.705 64.9529 112.542C65.0196 112.379 65.0499 112.204 65.0417 112.028C65.1854 109.524 65.5576 107.038 66.1537 104.602C66.6446 102.19 67.3543 99.8273 68.274 97.5438C68.9843 95.963 69.9383 94.5035 71.1011 93.2184C71.4737 92.8419 71.8807 92.5012 72.3168 92.2006C75.8789 89.8447 73.7397 106.025 72.6277 109.239C71.5158 112.452 72.3827 113.178 74.7858 113.366C75.0275 113.423 75.2791 113.423 75.5208 113.366C75.7165 113.337 75.8998 113.253 76.0486 113.122C76.1974 112.992 76.3053 112.821 76.3595 112.631C76.5857 111.576 76.9438 110.285 77.4338 108.758C77.9238 107.231 78.3667 105.975 78.7625 104.988C79.7991 102.425 80.9896 99.7395 82.3341 96.9313C83.5786 94.3088 84.9953 91.7714 86.5747 89.3359C87.2702 88.246 88.0584 87.2181 88.9306 86.2638C90.9378 85.0481 90.6269 87.2061 89.9861 90.3725C89.0437 94.7544 86.9799 100.286 85.9151 107.335C84.5204 116.608 87.7998 116.561 89.9672 116.825H90.2122C90.9661 116.825 92.0404 115.835 93.4351 113.856C94.9507 111.549 96.3107 109.144 97.5061 106.656C97.4401 108.07 97.4307 109.37 97.459 110.539C97.5061 112.075 97.6475 112.951 97.8925 113.159C98.0922 113.246 98.3094 113.285 98.5269 113.274C98.7445 113.262 98.9563 113.2 99.1458 113.093C99.3369 113.01 99.5037 112.88 99.6307 112.716C99.7576 112.551 99.8405 112.356 99.8714 112.15C100.01 110.44 100.307 108.746 100.757 107.09C101.16 105.422 101.738 103.802 102.482 102.256C103.697 99.9394 105.077 97.7129 106.609 95.5931C107.24 94.7494 107.919 93.9439 108.645 93.1807C110.586 91.852 111.208 94.1231 110.124 98.0904C109.033 102.007 108.189 105.989 107.599 110.011C106.534 117.126 109.615 116.787 111.18 117.032C111.792 117.145 112.631 116.617 113.668 115.458C115.155 113.641 116.467 111.688 117.588 109.625V109.625C118.53 107.985 119.228 106.638 119.765 105.601C119.836 107.371 120.299 109.102 121.122 110.671C121.508 111.439 122.091 112.091 122.811 112.561C123.531 113.031 124.362 113.303 125.221 113.347C126.011 113.378 126.798 113.217 127.513 112.879C128.228 112.542 128.851 112.036 129.33 111.406C130.357 110.087 131.13 108.588 131.61 106.986C132.047 105.63 132.399 104.249 132.666 102.849C132.75 102.406 132.835 102.077 132.901 101.85C132.901 103.801 132.967 105.62 133.09 107.203C133.201 108.795 133.466 110.373 133.881 111.915C134.004 112.358 134.173 112.857 134.39 113.517C134.61 114.132 134.881 114.728 135.201 115.298C135.42 115.772 135.763 116.177 136.195 116.471C136.626 116.765 137.13 116.936 137.651 116.966C138.182 116.932 138.699 116.784 139.167 116.532C139.636 116.28 140.044 115.93 140.365 115.505C141.631 113.851 142.54 111.951 143.032 109.926C143.554 108.121 143.898 106.268 144.059 104.395C144.162 103.727 144.162 103.046 144.059 102.378C143.993 102.086 143.823 102.425 143.597 103.386ZM32.2381 71.0823C32.9789 71.5284 33.6204 72.1218 34.1228 72.8257C35.1783 74.2769 35.3008 76.1616 34.4903 78.4798C34.0261 79.6303 33.33 80.6728 32.4454 81.5425C31.3391 82.6343 30.0669 83.5439 28.676 84.2377C26.8011 85.156 24.8003 85.7912 22.7391 86.1224C20.6093 86.4554 18.4545 86.7004 16.2745 86.8574H16.1425L15.6148 86.9046C20.091 73.589 28.676 70.0268 32.2381 71.0823ZM22.1077 108.852C22.6103 105.562 23.5615 102.357 24.9348 99.3249V99.3249C25.4896 98.1697 26.1656 97.0767 26.9514 96.0643C27.6917 95.0634 28.5854 94.1856 29.5995 93.4634C29.9102 93.1755 30.3059 92.996 30.7272 92.9519C31.1485 92.9077 31.5728 93.0012 31.9365 93.2184C32.5648 93.6582 32.9134 94.9146 32.9825 96.9878C32.9804 98.2577 32.8286 99.5229 32.5302 100.757C32.0387 102.901 31.3445 104.993 30.457 107.005C29.5293 109.166 28.3864 111.227 27.0457 113.159C25.7393 115.072 24.1061 116.741 22.2208 118.087C21.5905 115.045 21.5522 111.909 22.1077 108.852V108.852ZM52.2633 123.233C51.1042 129.895 47.4761 133.278 43.292 131.931C43.3807 132.06 43.4887 132.174 43.6124 132.27C42.7725 131.696 42.1176 130.891 41.7277 129.952C40.911 128.18 40.911 125.937 41.7277 123.223C42.4415 120.83 43.5987 118.592 45.139 116.627C46.4404 115.028 47.986 113.644 49.7189 112.527C50.6613 111.915 51.6508 111.359 52.6591 110.831C52.8893 114.969 52.7537 119.119 52.2539 123.233H52.2633ZM132.741 95.3104C132.439 96.9878 132.053 98.9008 131.582 101.049C131.136 103.096 130.557 105.11 129.848 107.081C129.393 108.581 128.585 109.951 127.492 111.076C127.241 111.313 126.932 111.478 126.597 111.557C123.054 110.351 123.845 103.669 124.477 100.946C125.475 96.6392 127.52 92.2854 130.329 91.9745L130.79 92.1064C131.629 92.3985 132.279 93.4634 132.741 95.3104V95.3104ZM176.09 87.6019C175.483 88.0484 175.055 88.6966 174.883 89.4301C174.469 90.9284 174.384 91.9556 174.648 92.5305C174.912 93.1053 175.317 93.1901 175.854 92.7943C176.582 92.0682 177.089 91.1497 177.315 90.1463C177.654 88.8898 177.654 88.07 177.315 87.6867C177.023 87.3004 176.608 87.2721 176.09 87.6396V87.6019ZM197.462 102.397C197.217 102.454 197.01 102.68 196.812 103.085C196.108 104.717 195.178 106.243 194.051 107.618C193.011 108.966 191.734 110.112 190.282 111.001C189.768 111.369 189.166 111.595 188.537 111.654C187.908 111.714 187.274 111.605 186.701 111.34C185.626 110.793 184.86 109.283 184.401 106.807C184.285 106.049 184.225 105.284 184.222 104.517C184.226 103.686 184.276 102.855 184.373 102.029C184.566 100.807 184.827 99.5953 185.155 98.4014C185.55 96.8493 186.106 95.3427 186.814 93.9063C187.021 93.3425 187.344 92.8286 187.763 92.3983C188.182 91.9679 188.687 91.6309 189.245 91.4091C189.465 91.3504 189.697 91.3615 189.91 91.4409C190.122 91.5203 190.305 91.6639 190.432 91.852C190.641 92.2413 190.723 92.6859 190.668 93.1242C190.63 93.6896 190.725 93.9817 190.951 94.0005C191.186 94.0005 191.413 93.8592 191.639 93.5199C191.884 93.1374 191.978 92.6771 191.903 92.2289C191.866 91.9043 191.764 91.5905 191.602 91.3069C191.44 91.0232 191.221 90.7758 190.96 90.5798V90.5798C190.52 90.2685 189.991 90.1097 189.452 90.1274C186.729 89.7316 181.687 91.7106 180.443 99.5511C180.086 101.659 180.029 103.807 180.274 105.931C179.916 106.638 179.529 107.363 179.124 108.108C178.721 108.863 178.267 109.59 177.767 110.285C175.449 111.444 175.355 107.571 175.816 104.63C176.344 101.21 176.504 98.4014 176.759 96.9219C177.098 95.2068 177.23 92.9922 174.403 94.2456H174.337C174.154 94.2527 173.978 94.3176 173.834 94.431C173.69 94.5444 173.586 94.7006 173.536 94.8769C173.216 96.2339 172.901 98.0182 172.594 100.23C172.443 101.426 172.32 102.633 172.245 103.839C171.802 104.922 171.286 105.974 170.699 106.986C169.943 108.348 169.026 109.614 167.967 110.756C167.644 111.095 167.272 111.384 166.864 111.613C163.283 112.386 164.668 102.19 165.262 96.234C165.667 92.1441 166.28 87.4417 166.864 83.5969C168.683 84.0869 174.648 85.9057 179.397 85.8774C185.297 85.8774 186.87 81.9006 187.087 80.0724C187.558 76.1805 187.718 69.207 182.63 60.8765C179.35 55.4862 174.949 50.3692 165.752 46.7411C151.683 41.0869 151.249 36.7897 150.674 31.0979C150.099 25.406 149.44 21.6177 145.274 20.0911C141.109 18.5644 136.661 20.0063 132.741 21.3727C132.496 20.7036 131.61 20.534 128.632 20.289C125.654 20.0439 123.657 20.3832 119.294 22.1077C114.93 23.8322 107.043 25.2646 103.782 28.0163C100.522 30.768 99.1929 30.9942 98.194 31.1732C97.1951 31.3523 94.811 31.4465 92.9545 31.5785C91.098 31.7104 89.9012 31.946 89.7693 30.9282C89.6374 29.9105 91.4656 29.3356 93.3974 29.3356C94.3633 29.2942 95.317 29.1035 96.2245 28.7702C96.3282 28.921 96.2905 30.2686 98.2977 30.3534C100.305 30.4382 101.511 27.7525 100.729 26.4143C99.9468 25.0762 98.3637 25.8489 98.4485 25.7829C98.737 24.4088 98.6158 22.9801 98.0998 21.6742C97.7946 21.0605 97.3632 20.5183 96.8337 20.083C96.3043 19.6478 95.6888 19.3294 95.0277 19.1487C93.7697 18.8687 92.4786 18.7672 91.1923 18.8471C90.206 18.8495 89.2279 18.6673 88.3087 18.31C87.47 17.9802 87.3663 18.1498 87.3663 18.6304C87.3663 19.111 87.6113 19.4031 86.5653 19.8272C85.5193 20.2513 84.3978 21.1182 84.5957 22.1548C84.7936 23.1914 85.4344 24.5861 84.9161 25.5473C84.3978 26.5086 82.0891 30.5984 81.2786 30.2592C80.4682 29.9199 81.6179 28.2142 82.0891 26.9609C82.4315 25.6681 82.3955 24.3042 81.9854 23.0312C81.7539 21.5229 81.7539 19.988 81.9854 18.4796C82.155 16.4064 82.6545 13.2212 82.6545 13.2212C85.2743 10.2993 88.1093 7.57767 91.1357 5.07923C94.4623 2.38407 94.745 4.33476 98.0338 3.3547C101.323 2.37465 102.868 0.6407 102.651 0.32972C102.435 0.0187406 101.615 -0.226274 98.882 0.32972C96.9792 0.692457 95.0397 0.82534 93.1053 0.725512C91.2206 0.725512 91.2771 2.25214 87.8469 4.14629C84.8125 5.786 82.0608 7.19954 79.7614 10.0172C77.4621 12.8349 76.8684 17.5561 76.8024 23.8417C76.7364 30.1272 76.171 29.8822 75.3323 32.0968C74.4936 34.3113 71.8644 37.4494 71.8362 39.0137C71.8953 40.1674 72.2991 41.2769 72.9953 42.1989C73.2968 42.7549 73.1649 48.8991 73.6832 50.9723C74.2015 53.0455 77.1228 56.1835 76.5103 56.2307C74.8061 56.3311 73.0974 56.3311 71.3932 56.2307C68.0667 56.1082 63.5528 55.948 62.4314 55.3825C61.7157 54.9601 60.8833 54.7784 60.0566 54.8642C58.0359 55.0564 56.0024 55.0753 53.9784 54.9208C49.8885 54.7794 44.9788 54.6946 41.3036 54.1857C37.6284 53.6769 37.5342 53.102 34.1982 52.5083C31.9082 52.026 29.5429 52.026 27.253 52.5083C24.4259 52.8853 22.249 53.4507 21.4669 55.1375C21.3255 55.4673 21.4669 56.0139 22.7768 55.7595C23.1254 55.6935 23.6343 55.2223 24.1809 55.4202C24.7275 55.6181 25.5096 55.0998 27.9975 55.5899C30.4853 56.0799 29.6466 57.5405 31.324 58.596C33.0014 59.6514 34.2736 57.9646 35.8191 57.4086C37.3645 56.8526 37.9205 56.9751 44.1967 59.6703C50.4728 62.3654 53.5355 60.443 56.8903 60.7352C60.2451 61.0273 59.7174 62.6199 66.8322 64.6742C72.3303 66.221 78.1079 66.4981 83.7288 65.4847C87.4982 64.891 89.2793 65.9464 92.3702 66.9924C95.4612 68.0385 98.2129 67.1244 100.475 66.8605C102.736 66.5966 109.38 65.1831 113.875 64.4669C118.37 63.7507 119.689 62.6576 124.175 61.0838C128.661 59.5101 130.772 58.841 133.599 58.7939C136.426 58.7468 137.802 59.3122 140.468 59.5101C143.135 59.708 144.238 58.7185 146.226 58.6902C148.215 58.662 150.938 55.7406 149.553 54.9208C149.263 54.787 148.939 54.7496 148.627 54.8141C148.315 54.8786 148.031 55.0415 147.819 55.2789C146.694 55.842 145.433 56.0771 144.181 55.9574C141.081 55.8066 141.203 53.413 139.997 52.6308C139.766 52.4956 139.509 52.4111 139.243 52.3829C138.977 52.3547 138.708 52.3835 138.454 52.4672C138.2 52.551 137.967 52.688 137.77 52.8689C137.573 53.0498 137.417 53.2707 137.312 53.5167C137.095 54.2329 137.142 55.7124 134.654 55.9291C132.166 56.1458 131.082 55.3354 125.23 54.9867C119.378 54.6381 118.54 57.55 115.449 57.6725C112.358 57.795 109.644 56.9563 105.573 56.8903C101.502 56.8244 97.7229 58.1342 97.0915 58.0023C96.4601 57.8704 96.4035 55.6087 94.0665 54.0632C91.7294 52.5178 88.3275 52.6497 86.9799 50.2938C85.6323 47.9379 87.1401 44.1873 92.9828 39.2304C98.8254 34.2736 104.131 33.2841 110.416 30.278C116.702 27.2719 118.172 23.3328 123.713 23.6815C129.254 24.0301 130.555 22.8899 130.555 22.8899C133.146 22.626 135.606 20.1665 141.458 20.289C146.839 20.8261 148.874 22.1737 149.468 31.324C150.062 40.4744 153.237 42.5476 165.13 47.8813C183.035 55.8914 186.597 73.834 185.391 79.4316C184.863 84.1434 180.679 84.2754 178.549 84.2C177.195 84.0972 175.849 83.8924 174.525 83.5874C172.198 83.0691 170.238 82.6451 167.156 81.7027C167.495 79.5636 167.825 77.8296 168.098 76.8119C168.805 73.8905 169.71 69.9043 165.856 72.6089C165.468 72.9184 165.102 73.2554 164.763 73.6173C163.921 74.7326 163.336 76.0196 163.047 77.3867C162.812 78.3291 162.605 79.3468 162.416 80.4023C159.939 79.7322 157.421 79.2254 154.877 78.8851C152.875 78.555 150.827 78.6513 148.865 79.1678C148.072 79.3941 147.348 79.8128 146.756 80.3865C146.164 80.9603 145.723 81.6714 145.472 82.4566C145.185 83.2133 145.101 84.0319 145.227 84.8314C145.378 85.3402 145.585 85.5853 145.868 85.557C146.151 85.5287 146.32 85.2366 146.368 84.6712C146.361 83.9385 146.528 83.2147 146.856 82.5594C147.184 81.9041 147.662 81.3359 148.252 80.9017C149.48 80.1835 150.896 79.8549 152.314 79.9593C154.014 80.0267 155.701 80.2795 157.346 80.7132C159.08 81.1656 160.663 81.6556 162.058 82.1268C161.69 84.1246 161.37 86.2261 161.116 88.4029C160.534 92.9429 160.282 97.519 160.362 102.095V102.095C158.098 101.997 155.851 102.525 153.869 103.622V103.622C149.732 98.9103 148.215 96.1868 147.809 92.7943C147.414 89.0814 150.778 86.9705 152.719 87.6019L153.247 87.7527C153.704 87.9529 154.13 88.2196 154.51 88.5443C155.46 89.3903 156.185 90.4588 156.621 91.6541C156.922 92.2666 157.195 92.4928 157.45 92.3137C157.704 92.1347 157.761 91.6918 157.619 90.9661C157.322 89.96 156.789 89.0393 156.065 88.2804C155.012 87.0772 153.559 86.2969 151.975 86.0847C150.917 85.953 149.844 86.0471 148.825 86.3606C147.807 86.6741 146.866 87.1999 146.066 87.9035C144.531 89.2421 143.575 91.1236 143.399 93.1524C143.203 95.5074 143.874 97.8528 145.284 99.749C146.386 101.266 147.791 103 149.477 104.951L150.476 106.138C149.267 107.183 148.227 108.411 147.395 109.776C145.934 112.254 145.369 114.318 145.717 115.948C145.848 116.705 146.144 117.425 146.583 118.055C147.023 118.685 147.596 119.211 148.262 119.595C149.514 120.308 150.939 120.664 152.38 120.622C153.378 120.637 154.371 120.487 155.32 120.179V120.179H155.424C155.612 120.123 155.798 120.057 155.98 119.981C156.804 119.651 157.533 119.12 158.1 118.436C161.681 114.874 158.826 109.22 155.047 105.083L154.679 104.687C155.688 104.16 156.772 103.791 157.893 103.594C158.725 103.441 159.574 103.397 160.418 103.462C160.418 104.225 160.503 104.979 160.569 105.705C160.726 107.315 161.091 108.899 161.653 110.417C162.444 112.301 163.509 113.319 164.847 113.47C166.185 113.621 167.53 113.027 168.881 111.689C169.869 110.634 170.738 109.474 171.472 108.23C171.708 107.834 171.934 107.439 172.16 107.033C172.16 107.949 172.254 108.861 172.443 109.757C172.613 110.731 172.985 111.659 173.536 112.48C173.765 112.842 174.099 113.125 174.492 113.293C174.886 113.461 175.321 113.506 175.741 113.423C176.697 113.168 177.544 112.609 178.153 111.83C178.944 110.894 179.639 109.88 180.227 108.805C180.377 108.541 180.519 108.277 180.651 108.023C181.593 111.397 183.695 113.517 186.823 113.489C187.65 113.544 188.479 113.422 189.255 113.131C191.045 112.447 192.657 111.364 193.966 109.964C195.438 108.491 196.621 106.756 197.453 104.847C197.745 104.262 197.894 103.616 197.887 102.962C197.896 102.51 197.698 102.34 197.462 102.397V102.397ZM155.15 112.056C155.77 112.931 156.206 113.921 156.432 114.968C156.563 115.528 156.552 116.111 156.401 116.666C156.249 117.22 155.962 117.728 155.565 118.144C155.137 118.554 154.631 118.876 154.078 119.091C153.525 119.306 152.935 119.41 152.342 119.397C151.118 119.412 149.914 119.086 148.865 118.455C148.335 118.151 147.883 117.727 147.545 117.219C147.206 116.71 146.99 116.13 146.914 115.524C146.688 114.186 147.187 112.471 148.413 110.379C149.186 109.131 150.139 108.004 151.24 107.033C152.757 108.805 154.048 110.473 155.15 112.056V112.056ZM214.736 102.369C214.4 102.188 214.024 102.094 213.643 102.095C211.54 101.999 209.447 102.454 207.574 103.415L207.48 103.33C201.826 98.3166 200.572 96.0549 201.449 91.6918C201.536 91.0007 201.793 90.3421 202.197 89.7748C202.601 89.2075 203.14 88.7493 203.764 88.4412C204.389 88.1331 205.08 87.9846 205.777 88.0092C206.473 88.0338 207.152 88.2306 207.753 88.582V88.582C208.703 89.428 209.428 90.4965 209.864 91.6918C210.156 92.3043 210.439 92.5305 210.693 92.3514C210.948 92.1724 211.004 91.7295 210.863 91.0038C210.562 89.9991 210.03 89.0791 209.308 88.3181C208.256 87.1149 206.802 86.3346 205.218 86.1224C204.176 85.9875 203.117 86.072 202.109 86.3707C201.101 86.6693 200.167 87.1753 199.366 87.8563C197.831 89.195 196.875 91.0765 196.699 93.1053C196.507 95.4599 197.177 97.8042 198.584 99.7018C199.696 101.222 201.097 102.956 202.787 104.904L203.786 106.091C202.586 107.126 201.553 108.341 200.723 109.691C199.262 112.169 198.697 114.233 199.046 115.863C199.176 116.621 199.472 117.34 199.912 117.97C200.351 118.6 200.924 119.126 201.59 119.51C202.844 120.243 204.275 120.615 205.727 120.585C206.924 120.601 208.112 120.38 209.223 119.934V120.01L209.694 119.755C210.081 119.568 210.444 119.337 210.778 119.067C216.903 114.723 212.983 108.551 208.629 104.329C209.472 103.95 210.358 103.678 211.268 103.518C212.291 103.329 213.338 103.303 214.368 103.443C214.447 103.448 214.525 103.437 214.598 103.409C214.671 103.381 214.737 103.338 214.793 103.283C214.925 103.171 215.018 103.019 215.056 102.849C215.05 102.68 214.943 102.52 214.736 102.369V102.369ZM209.789 114.893C209.919 115.452 209.909 116.036 209.757 116.59C209.606 117.145 209.319 117.653 208.922 118.068C208.493 118.479 207.988 118.801 207.435 119.016C206.882 119.231 206.292 119.335 205.699 119.322C204.475 119.336 203.271 119.01 202.221 118.379C201.691 118.076 201.238 117.654 200.9 117.145C200.561 116.636 200.346 116.055 200.271 115.449C200.045 114.111 200.544 112.395 201.769 110.303C202.543 109.056 203.495 107.929 204.596 106.958C206.076 108.692 207.367 110.36 208.469 111.943C209.105 112.827 209.554 113.83 209.789 114.893V114.893Z" fill="url(#paint0_linear)"/>
<defs>
<linearGradient id="paint0_linear" x1="42.9339" y1="33.3878" x2="169.766" y2="160.22" gradientUnits="userSpaceOnUse">
<stop stop-color="#B31180"/>
<stop offset="0.17" stop-color="#A21581"/>
<stop offset="0.47" stop-color="#8B1C81"/>
<stop offset="0.76" stop-color="#7D2082"/>
<stop offset="1" stop-color="#782182"/>
</linearGradient>
</defs>
</svg>
