<svg width="103" height="103" viewBox="0 0 103 103" fill="none" xmlns="http://www.w3.org/2000/svg">
<g clip-path="url(#clip0_86_369)">
<path d="M79.0629 79.6003H53.1621C53.1621 75.6386 53.0099 79.6636 54.1039 57.8572C56.5434 57.6402 58.9429 56.5031 60.6849 54.5134C65.22 49.3382 71.3264 41.4811 71.8622 40.7904L72.4629 40.193C73.8878 40.3732 74.8362 39.4727 74.8362 38.3467V36.2873C74.8362 35.3452 74.133 34.5659 73.223 34.4383L72.8425 33.0488C72.5914 32.129 71.8897 31.4337 70.9655 31.1888C69.5224 30.8063 68.24 31.7218 68.1422 32.4041L67.8538 34.4183C66.3367 34.4183 56.5971 34.4183 55.6049 34.4183C55.7535 34.163 55.7433 34.1648 56.2926 32.9226C56.81 31.7477 57.1032 30.4538 57.1032 29.1024C57.1032 27.6515 56.3698 26.3337 55.1329 25.4829C55.1329 24.4486 55.2503 23.4664 54.2808 22.4965C52.4495 20.6772 49.3173 21.9845 49.3173 24.5485V25.483C48.0808 26.3333 47.347 27.651 47.347 29.1025C47.347 30.4161 47.6197 31.7014 48.1581 32.924C48.7116 34.1753 48.6992 34.1674 48.8454 34.4184C48.8331 34.4184 48.2317 34.4182 32.3532 34.4182C30.9398 34.4182 30.4434 33.9233 29.2442 32.7276C28.878 32.3626 28.2846 32.3626 27.9184 32.7276C27.5523 33.0926 27.5523 33.6844 27.9184 34.0494C29.2217 35.3488 30.1633 36.2876 32.3533 36.2876C61.3724 36.2876 32.2918 36.2878 67.5865 36.2878L67.495 36.9269L65.8936 38.3477H58.1359C57.4926 38.3477 57.0354 38.9823 57.253 39.5943C56.6147 41.8932 56.2997 42.552 56.2293 46.922L54.8237 48.169H50.9383C50.4205 48.169 50.0008 48.5875 50.0008 49.1037C50.0008 49.6199 50.4205 50.0384 50.9383 50.0384C55.4096 50.0384 55.3773 50.1088 55.7191 49.8681C55.784 49.8226 55.2957 50.2528 63.1767 43.2607L65.6044 45.6811C63.6019 48.1682 61.2809 50.993 59.2731 53.284C57.7661 55.0053 55.5667 56.0275 53.2105 56.0275C52.711 56.0275 52.2992 56.4181 52.2742 56.9156L51.5304 71.7428H48.655C47.8967 65.5608 46.9758 62.1952 46.9758 56.9634C46.9758 51.6664 48.2368 50.9839 48.2368 49.1037C48.2368 42.6953 47.914 42.17 47.1973 39.5922C47.4133 38.9806 46.9559 38.3477 46.3136 38.3477H45.3081C44.7904 38.3477 44.3706 38.7662 44.3706 39.2824C44.3706 39.7986 44.7904 40.2171 45.3081 40.2171H45.4253C46.0813 42.5599 46.3616 43.0158 46.3616 49.1037C46.3616 51.0173 43.8038 52.3438 45.9953 66.39C46.4146 69.0788 46.9308 72.3891 47.2895 76.8732L46.0283 77.1875C44.7984 77.4932 43.866 78.4299 43.5368 79.6006H20.938C20.4203 79.6006 20.0005 80.0191 20.0005 80.5353C20.0005 81.0515 20.4203 81.47 20.938 81.47H79.0629C79.5806 81.47 80.0004 81.0515 80.0004 80.5353C80.0004 80.0191 79.5806 79.6003 79.0629 79.6003ZM51.1922 24.5483C51.1922 23.2557 53.2579 23.0504 53.2579 24.6977C52.5917 24.5657 51.8966 24.5581 51.1922 24.6977V24.5483ZM50.0688 27.268C50.5648 26.8183 50.6022 27.0115 50.8956 26.7367C51.7279 26.3747 52.7209 26.3741 53.5544 26.7367C53.8417 27.0058 53.8901 26.823 54.3812 27.268C55.3803 28.1736 55.3478 29.3312 55.064 30.6612C54.8631 31.6023 54.6078 32.0986 54.0687 33.3177C53.4237 34.7798 51.0262 34.7798 50.3811 33.317C49.7549 31.9012 49.2217 30.8807 49.2217 29.1022C49.2217 28.4144 49.5227 27.763 50.0688 27.268ZM72.9612 38.3469H72.8181C72.3012 38.3469 71.8806 37.9275 71.8806 37.4122V37.2221C71.8806 36.7067 72.3012 36.2874 72.8181 36.2874H72.9612C72.9623 38.374 72.9729 38.3469 72.9612 38.3469ZM59.0251 40.2168H63.7861L58.1527 45.215C58.2611 42.77 58.4916 42.1252 59.0251 40.2168ZM64.5795 42.0156C69.2866 37.8393 69.2339 38.0073 69.3023 37.5298L69.9445 33.0442C70.3414 32.8493 70.8957 33.0359 71.0334 33.5404L71.3817 34.8125C69.7805 35.765 69.5818 38.0112 70.7243 39.2818C70.1392 39.8636 70.9868 38.9431 66.7819 44.2114L64.5795 42.0156ZM45.5869 79.6003C46.0319 78.9944 46.4718 79.0038 48.5123 78.4952C48.9545 78.3849 49.2531 77.9734 49.2198 77.5201C49.1163 76.111 48.9971 74.8136 48.8692 73.612H51.4363C51.2486 77.3537 51.2874 75.7995 51.2874 79.6003H45.5869Z" fill="url(#paint0_linear_86_369)"/>
<path d="M27.6455 40.2164H37.8174C38.3351 40.2164 38.7549 39.7979 38.7549 39.2817C38.7549 38.7655 38.3351 38.347 37.8174 38.347H27.6455C26.6707 38.347 26.2181 37.2327 26.8635 36.5893C27.0595 36.3945 27.3194 36.2871 27.595 36.2871C28.1127 36.2871 28.5325 35.8686 28.5325 35.3524C28.5325 34.8362 28.1127 34.4177 27.595 34.4177C26.8197 34.4177 26.0897 34.7187 25.5388 35.2663C23.7059 37.0935 25.0258 40.2164 27.6455 40.2164Z" fill="url(#paint1_linear_86_369)"/>
<path d="M41.567 40.2166C42.0847 40.2166 42.4998 39.7981 42.4998 39.2819C42.4998 38.7657 42.0754 38.3472 41.5576 38.3472C41.0399 38.3472 40.6201 38.7657 40.6201 39.2819C40.6201 39.7825 41.0204 40.2166 41.567 40.2166Z" fill="url(#paint2_linear_86_369)"/>
</g>
<circle cx="51.5" cy="51.5" r="51" stroke="url(#paint3_linear_86_369)" stroke-opacity="0.35"/>
<path d="M90.9513 84.6036C95.7944 78.8318 99.312 72.0677 101.256 64.7884C103.2 57.509 103.523 49.8918 102.203 42.4739C100.882 35.0561 97.9503 28.0183 93.6135 21.8571C89.2767 15.6959 83.6409 10.5613 77.1035 6.81545L76.3354 8.15599C82.6767 11.7894 88.1434 16.77 92.3501 22.7464C96.5568 28.7228 99.4009 35.5494 100.682 42.7447C101.963 49.94 101.649 57.3288 99.7634 64.3897C97.8776 71.4507 94.4655 78.0119 89.7678 83.6105L90.9513 84.6036Z" fill="url(#paint4_linear_86_369)"/>
<defs>
<linearGradient id="paint0_linear_86_369" x1="20.0005" y1="21.6492" x2="85.0143" y2="25.4879" gradientUnits="userSpaceOnUse">
<stop stop-color="#7775E7"/>
<stop offset="0.6417" stop-color="#A93CF6"/>
<stop offset="1" stop-color="#C41DFF"/>
</linearGradient>
<linearGradient id="paint1_linear_86_369" x1="24.687" y1="34.4177" x2="39.6778" y2="36.5587" gradientUnits="userSpaceOnUse">
<stop stop-color="#7775E7"/>
<stop offset="0.6417" stop-color="#A93CF6"/>
<stop offset="1" stop-color="#C41DFF"/>
</linearGradient>
<linearGradient id="paint2_linear_86_369" x1="40.6201" y1="38.3472" x2="42.6568" y2="38.4677" gradientUnits="userSpaceOnUse">
<stop stop-color="#7775E7"/>
<stop offset="0.6417" stop-color="#A93CF6"/>
<stop offset="1" stop-color="#C41DFF"/>
</linearGradient>
<linearGradient id="paint3_linear_86_369" x1="0" y1="0" x2="111.61" y2="6.57038" gradientUnits="userSpaceOnUse">
<stop stop-color="#7775E7"/>
<stop offset="0.6417" stop-color="#A93CF6"/>
<stop offset="1" stop-color="#C41DFF"/>
</linearGradient>
<linearGradient id="paint4_linear_86_369" x1="0" y1="0" x2="111.61" y2="6.57038" gradientUnits="userSpaceOnUse">
<stop stop-color="#7775E7"/>
<stop offset="0.6417" stop-color="#A93CF6"/>
<stop offset="1" stop-color="#C41DFF"/>
</linearGradient>
<clipPath id="clip0_86_369">
<rect width="60" height="59.8208" fill="white" transform="translate(20 21.6484)"/>
</clipPath>
</defs>
</svg>
