<svg width="25" height="15" viewBox="0 0 25 15" fill="none" xmlns="http://www.w3.org/2000/svg">
<path d="M24.7772 13.437C24.71 13.3248 24.2943 12.4243 22.2942 10.5735C20.2003 8.63539 20.4815 8.9501 23.0036 5.59895C24.5397 3.55804 25.1538 2.31168 24.9616 1.77886C24.7787 1.27097 23.649 1.40496 23.649 1.40496L19.8924 1.42677C19.8924 1.42677 19.6143 1.38938 19.4065 1.51246C19.2049 1.63398 19.0752 1.91441 19.0752 1.91441C19.0752 1.91441 18.4798 3.49417 17.686 4.83712C16.0125 7.67102 15.3421 7.82059 15.0686 7.64454C14.4327 7.2348 14.592 5.99623 14.592 5.11755C14.592 2.37089 15.0093 1.22579 13.7779 0.929783C13.3685 0.831632 13.0685 0.766198 12.0231 0.755293C10.6824 0.741271 9.54636 0.759966 8.90413 1.07311C8.47597 1.28188 8.14626 1.74771 8.34784 1.77419C8.59629 1.80691 9.15883 1.92531 9.45729 2.33038C9.84326 2.85229 9.8292 4.02698 9.8292 4.02698C9.8292 4.02698 10.0511 7.25973 9.31197 7.66168C8.80412 7.93743 8.10876 7.37501 6.61646 4.80284C5.85234 3.48638 5.27417 2.02969 5.27417 2.02969C5.27417 2.02969 5.16323 1.75861 4.96478 1.61372C4.72413 1.43767 4.38661 1.38159 4.38661 1.38159L0.814471 1.4034C0.814471 1.4034 0.278494 1.41898 0.0816048 1.65111C-0.093408 1.85832 0.0675413 2.2852 0.0675413 2.2852C0.0675413 2.2852 2.86462 8.80832 6.03048 12.0972C8.93538 15.1118 12.2325 14.9139 12.2325 14.9139H13.7264C13.7264 14.9139 14.178 14.8641 14.4077 14.6164C14.6202 14.3889 14.6124 13.962 14.6124 13.962C14.6124 13.962 14.5827 11.9632 15.514 11.6687C16.4312 11.3789 17.6095 13.6006 18.858 14.4559C19.8018 15.1024 20.519 14.9607 20.519 14.9607L23.8584 14.9139C23.8584 14.9139 25.6054 14.8064 24.7772 13.437Z" fill="#9D8AE6"/>
</svg>
