<svg width="406" height="560" viewBox="0 0 406 560" fill="none" xmlns="http://www.w3.org/2000/svg">
<g opacity="0.3">
<path d="M276.11 482.303C252.871 498.615 221.772 498.108 199.077 481.048L52.7181 371.025C30.0233 353.965 20.8949 324.231 30.1073 297.375L89.5176 124.18C98.7299 97.3242 124.187 79.4544 152.576 79.9169L335.653 82.8994C364.041 83.3618 388.903 102.051 397.236 129.193L450.973 304.231C459.306 331.373 449.214 360.794 425.975 377.106L276.11 482.303Z" fill="url(#paint0_radial_142_2)"/>
<path d="M276.11 482.303C252.871 498.615 221.772 498.108 199.077 481.048L52.7181 371.025C30.0233 353.965 20.8949 324.231 30.1073 297.375L89.5176 124.18C98.7299 97.3242 124.187 79.4544 152.576 79.9169L335.653 82.8994C364.041 83.3618 388.903 102.051 397.236 129.193L450.973 304.231C459.306 331.373 449.214 360.794 425.975 377.106L276.11 482.303Z" fill="url(#paint1_linear_142_2)" fill-opacity="0.95"/>
</g>
<circle cx="342.378" cy="199.38" r="132" transform="rotate(125.132 342.378 199.38)" stroke="url(#paint2_linear_142_2)" stroke-width="10"/>
<g filter="url(#filter0_f_142_2)">
<circle cx="496" cy="280" r="86" fill="#F5B4FB"/>
</g>
<defs>
<filter id="filter0_f_142_2" x="216" y="0" width="560" height="560" filterUnits="userSpaceOnUse" color-interpolation-filters="sRGB">
<feFlood flood-opacity="0" result="BackgroundImageFix"/>
<feBlend mode="normal" in="SourceGraphic" in2="BackgroundImageFix" result="shape"/>
<feGaussianBlur stdDeviation="97" result="effect1_foregroundBlur_142_2"/>
</filter>
<radialGradient id="paint0_radial_142_2" cx="0" cy="0" r="1" gradientUnits="userSpaceOnUse" gradientTransform="translate(172.092 317.977) rotate(-42.0961) scale(307.827 718.41)">
<stop stop-color="white"/>
<stop offset="0.367826" stop-color="#E8B4E2"/>
<stop offset="1" stop-color="#7775E7"/>
</radialGradient>
<linearGradient id="paint1_linear_142_2" x1="168.321" y1="226.042" x2="36.8665" y2="137.682" gradientUnits="userSpaceOnUse">
<stop stop-color="white"/>
<stop offset="1" stop-color="white" stop-opacity="0"/>
</linearGradient>
<linearGradient id="paint2_linear_142_2" x1="433.941" y1="26.2372" x2="368.539" y2="385.604" gradientUnits="userSpaceOnUse">
<stop stop-color="#D0C5F2"/>
<stop offset="1" stop-color="white" stop-opacity="0"/>
</linearGradient>
</defs>
</svg>
