<svg width="70" height="70" viewBox="0 0 70 70" fill="none" xmlns="http://www.w3.org/2000/svg">
<g clip-path="url(#clip0_72_536)">
<path d="M36.229 52.3745C36.3693 51.1253 36.4589 49.8696 36.4956 48.6131C46.8561 47.7212 49.7431 47.1779 49.7431 45.6197C49.7431 44.0638 46.8612 43.5212 36.5235 42.6308V38.8489C46.8612 37.9585 49.7431 37.4159 49.7431 35.8607C49.7431 34.6561 48.3748 33.9869 40.2661 33.2049L40.1251 34.662C45.1236 35.1445 47.1322 35.5722 47.9195 35.8658C46.3346 36.4772 41.3207 36.9692 36.7637 37.3603L40.2154 28.7552C47.5662 28.0405 49.7431 27.4533 49.7431 26.1016V25.3693H48.2742V25.9302C47.5552 26.4369 44.4126 26.866 40.8287 27.2277L40.93 26.9744V18.4586C40.93 17.4489 40.2433 16.5724 39.2614 16.3278L34.6985 15.19L35.3316 13.0855C35.4997 12.5247 35.3962 11.9345 35.0451 11.4644C34.6948 10.9943 34.1572 10.7249 33.5697 10.7249C32.8433 10.7249 32.1838 11.1525 31.8886 11.8137L29.1793 17.8919V28.2558C21.2212 29.0034 18.8975 29.584 18.8975 30.9804C18.8975 32.5151 21.7088 33.0643 31.7167 33.9342C31.9716 34.3003 32.117 34.736 32.117 35.1834V37.7513C21.7793 38.6409 18.8975 39.1835 18.8975 40.738C18.8975 42.294 21.7793 42.8373 32.117 43.7284V47.2753C32.117 48.8664 32.211 50.4634 32.3777 52.0509C27.684 51.6525 22.3419 51.1437 20.7107 50.5073C21.8491 50.0709 24.9572 49.6221 29.9798 49.1688L29.8469 47.7103C20.4192 48.5618 18.8975 49.2318 18.8975 50.5051C18.8975 52.0831 21.8652 52.6205 32.5577 53.5336C32.6157 53.9525 32.6708 54.3728 32.7405 54.7887C32.8705 55.5619 33.5344 56.1228 34.3203 56.1228C35.1061 56.1228 35.77 55.5619 35.9 54.7887C35.9536 54.4694 35.994 54.1472 36.0403 53.8265C41.204 54.2629 47.2416 54.8333 48.2742 55.5619V56.1228H49.7431V55.3906C49.7431 53.8199 46.8032 53.2803 36.229 52.3745ZM32.117 42.2596C27.4843 41.8649 22.3044 41.3633 20.7078 40.7387C22.3059 40.1142 27.485 39.614 32.117 39.2194V42.2596ZM47.9342 45.6197C46.339 46.2458 41.1599 46.7466 36.5235 47.142V44.0989C41.157 44.4943 46.3383 44.9952 47.9342 45.6197ZM20.7078 30.9811C21.9747 30.4861 25.4911 30.0688 29.2014 29.721C29.2535 30.4598 29.5186 31.1752 29.9842 31.7551L30.4675 32.3577C26.3173 31.9872 22.1179 31.5325 20.7078 30.9811ZM30.6482 18.2023L33.2311 12.409C33.2906 12.275 33.4235 12.1893 33.5697 12.1893C33.7313 12.1893 33.8253 12.2823 33.8671 12.3379C33.9082 12.3936 33.9714 12.51 33.9244 12.6645L32.1478 18.5684L32.117 27.2863L34.755 25.9712L36.1328 24.5976C36.2621 24.6152 36.3899 24.6371 36.5235 24.6371C38.1436 24.6371 39.4612 23.3235 39.4612 21.7082C39.4612 20.0929 38.1436 18.7793 36.5235 18.7793C34.9034 18.7793 33.5858 20.0929 33.5858 21.7082C33.5858 22.625 34.0191 23.4348 34.6831 23.9723L33.8855 24.7675L33.5858 24.9168V21.7082V18.8862L34.2755 16.5936L38.9045 17.7469C39.2321 17.8296 39.4612 18.1218 39.4612 18.4586V21.7082V26.6932L39.1828 27.3859C37.5076 27.5411 35.8045 27.6832 34.2578 27.812C32.952 27.9204 31.7549 28.0229 30.6482 28.1218V18.2023ZM35.0547 21.7082C35.0547 20.9006 35.7135 20.2438 36.5235 20.2438C37.3336 20.2438 37.9924 20.9006 37.9924 21.7082C37.9924 22.5159 37.3336 23.1727 36.5235 23.1727C35.7135 23.1727 35.0547 22.5159 35.0547 21.7082ZM32.4894 32.5327L31.1307 30.8398C30.845 30.4839 30.6842 30.0424 30.6584 29.5884C31.9349 29.4749 33.2032 29.3695 34.3797 29.2721C35.9162 29.1447 37.3093 29.0253 38.5725 28.9104L36.9546 32.9405L35.1156 32.7524L34.3739 32.6901C33.7665 32.6396 33.1342 32.5869 32.4894 32.5327ZM34.451 54.5478C34.4297 54.6766 34.2108 54.6759 34.1895 54.5485C34.1403 54.2541 34.1036 53.9569 34.0603 53.661C34.1278 53.6669 34.1917 53.672 34.2593 53.6779C34.3621 53.6867 34.4701 53.6955 34.5744 53.7042C34.5325 53.9847 34.498 54.2673 34.451 54.5478ZM34.7653 52.2508C34.6361 52.2398 34.5119 52.2295 34.3812 52.2186C34.213 52.2046 34.039 52.19 33.8671 52.1761C33.7445 51.0748 33.6585 49.9692 33.6189 48.8628L34.3812 48.7925C34.6008 48.7742 34.8109 48.7566 35.0246 48.7383C34.9849 49.9113 34.8975 51.0836 34.7653 52.2508ZM35.0554 47.2665C34.7844 47.2892 34.5156 47.3112 34.2534 47.3332L33.5888 47.3939C33.5888 47.3544 33.5866 47.3148 33.5866 47.2753V43.8529C33.8106 43.8719 34.0316 43.8902 34.2615 43.9093C34.5215 43.9305 34.7881 43.9532 35.0554 43.9752V47.2665ZM33.5858 42.3833V39.0956C33.8532 39.0737 34.1198 39.051 34.3797 39.0297C34.6104 39.0107 34.8314 38.9916 35.0547 38.9733V42.5063C34.8321 42.4873 34.6118 42.469 34.3827 42.4499C34.122 42.428 33.8546 42.406 33.5858 42.3833ZM35.1266 37.4979C34.8329 37.5221 34.5421 37.5462 34.2586 37.5704C34.0294 37.5894 33.8091 37.6077 33.5866 37.6268V35.1834C33.5858 34.8063 33.519 34.435 33.4059 34.0784C33.6843 34.1019 33.9633 34.1253 34.252 34.1495L36.3862 34.3581L35.1266 37.4979Z" fill="url(#paint0_linear_72_536)"/>
</g>
<circle cx="35" cy="35" r="34.5" stroke="black" stroke-opacity="0.1"/>
<path d="M28.9223 0.531728C20.747 1.97326 13.3502 6.27373 8.05269 12.6652C2.75522 19.0567 -0.0979818 27.1231 0.00256745 35.4239C0.103117 43.7248 3.15087 51.7197 8.6016 57.981C14.0523 64.2423 21.5511 68.3623 29.759 69.6054L29.9162 68.5672C21.9546 67.3614 14.6808 63.365 9.39355 57.2915C4.10634 51.2181 1.15002 43.463 1.05249 35.4112C0.954957 27.3594 3.72256 19.535 8.8611 13.3353C13.9996 7.13552 21.1746 2.96406 29.1046 1.56578L28.9223 0.531728Z" fill="url(#paint1_linear_72_536)"/>
<defs>
<linearGradient id="paint0_linear_72_536" x1="18.8975" y1="10.7249" x2="52.3836" y2="12.0643" gradientUnits="userSpaceOnUse">
<stop stop-color="#7775E7"/>
<stop offset="0.6417" stop-color="#A93CF6"/>
<stop offset="1" stop-color="#C41DFF"/>
</linearGradient>
<linearGradient id="paint1_linear_72_536" x1="0" y1="0" x2="75.8512" y2="4.46531" gradientUnits="userSpaceOnUse">
<stop stop-color="#7775E7"/>
<stop offset="0.6417" stop-color="#A93CF6"/>
<stop offset="1" stop-color="#C41DFF"/>
</linearGradient>
<clipPath id="clip0_72_536">
<rect width="45.534" height="45.3979" fill="white" transform="translate(11.5532 10.7249)"/>
</clipPath>
</defs>
</svg>
