<svg width="70" height="72" viewBox="0 0 70 72" fill="none" xmlns="http://www.w3.org/2000/svg">
<g clip-path="url(#clip0_72_508)">
<path d="M32.6434 27.5861C33.7166 26.3305 34.0037 24.8441 33.4978 23.1687C33.0801 21.7851 32.0356 20.6211 30.4779 19.8024C29.1225 19.0901 27.4799 18.6978 25.8535 18.6978C23.2913 18.6978 21.2744 19.6744 20.458 21.3108C19.4735 23.2841 19.8771 25.2464 20.2933 26.4005C19.9438 26.421 19.666 26.7174 19.666 27.0808V33.308C19.666 34.2487 20.4122 35.014 21.3295 35.014C22.2472 35.014 22.9934 34.2487 22.9934 33.308V27.0808C22.9934 26.7039 22.6952 26.3985 22.3276 26.3985H22.0878C22.2564 25.3919 22.6474 23.9084 23.3877 23.2441C24.1192 22.5884 25.0497 22.4505 25.7018 22.4505C27.4233 22.4505 29.1014 23.4131 29.3656 24.5517C29.5274 25.2479 28.5356 25.8452 27.1172 26.6125C25.8061 27.3217 24.4512 28.055 24.4151 29.3055C24.3796 30.5376 25.7443 31.3842 27.0641 32.203C27.6719 32.5799 28.3001 32.9697 28.6676 33.3286C28.8567 33.513 28.9133 33.627 28.9303 33.6785C28.9395 33.7065 28.944 33.7195 28.9157 33.77C28.6506 34.2448 28.0662 34.8376 27.4477 35.4648C26.3389 36.5884 25.1926 37.751 25.0283 39.0186C24.8753 40.1981 26.2619 41.3857 28.2378 42.9352C28.6657 43.271 29.1872 43.6808 29.3778 43.8808C29.3705 44.1287 29.2857 44.9434 28.7267 47.4625C28.3684 49.0749 27.9926 50.5884 27.9892 50.6024C27.9088 50.9263 28.0682 51.2621 28.366 51.396C28.4528 51.435 28.5434 51.454 28.6336 51.454C28.8524 51.454 29.0644 51.3431 29.1906 51.1452C29.2014 51.1282 30.2586 49.4678 31.2718 47.6404C33.1731 44.2107 33.316 43.1311 33.2282 42.5733C33.0415 41.3907 31.7553 40.5299 30.6202 39.7722C30.296 39.5543 29.8369 39.2484 29.6205 39.0506C29.7614 38.8626 30.0372 38.5708 30.2697 38.3248C31.2392 37.2992 32.7047 35.7507 33.14 33.533C33.4987 31.7077 31.3902 30.3092 30.1171 29.4695C30.8478 29.077 31.8626 28.4997 32.6434 27.5861ZM21.6624 33.308C21.6624 33.4959 21.5132 33.6494 21.3295 33.6494C21.1462 33.6494 20.9971 33.4959 20.9971 33.308V27.7635H21.6624V33.308ZM29.3374 28.3473C29.0956 28.4763 28.9041 28.5782 28.7564 28.6777C28.1009 29.1165 28.3226 29.6523 28.3733 29.7553C28.5117 30.0342 28.7842 30.2136 29.3802 30.6065C30.2361 31.1703 32.0161 32.3439 31.8357 33.2635C31.4775 35.0879 30.2274 36.4094 29.3144 37.3751C28.6355 38.0918 28.1871 38.5667 28.2207 39.1485C28.2592 39.8221 28.9445 40.28 29.8935 40.9158C30.6611 41.4286 31.8216 42.2044 31.9142 42.7911C31.9254 42.8631 31.9722 43.5748 30.2503 46.7197C30.8385 43.9107 30.7255 43.6087 30.6412 43.3848C30.4969 43.0011 30.0738 42.6572 29.0464 41.8514C28.4172 41.3576 27.7037 40.7978 27.1495 40.2599C26.3872 39.5182 26.3497 39.2233 26.3482 39.1944C26.456 38.3887 27.48 37.3511 28.3836 36.4353C29.0684 35.7406 29.7156 35.0844 30.0709 34.4481C30.2844 34.0652 30.3259 33.6473 30.1909 33.239C30.089 32.9327 29.8911 32.6382 29.5855 32.3398C29.1132 31.8785 28.4216 31.4496 27.7529 31.0349C27.1992 30.6915 26.6271 30.3366 26.2269 29.9917C25.7741 29.6013 25.7439 29.3984 25.7454 29.3454C25.7585 28.8906 26.9029 28.2718 27.7383 27.8194C28.4723 27.4225 29.2312 27.0122 29.7961 26.5079C30.5613 25.8256 30.8522 25.0609 30.6607 24.2357C30.4491 23.3254 29.7844 22.5008 28.7881 21.914C27.8806 21.3796 26.7845 21.0858 25.702 21.0858C24.4401 21.0858 23.3371 21.4766 22.512 22.2169C21.9729 22.7003 21.5352 23.4375 21.2063 24.4142C21.1371 23.6539 21.2175 22.7847 21.643 21.9325C22.2269 20.7615 23.8012 20.0627 25.8536 20.0627C27.2524 20.0627 28.7165 20.4106 29.8706 21.0169C30.7299 21.4682 31.8358 22.2779 32.2267 23.5719C32.5918 24.781 32.4007 25.7996 31.6428 26.6864C30.9657 27.4781 29.9856 28.0014 29.3374 28.3473Z" fill="url(#paint0_linear_72_508)"/>
<path d="M40.294 39.1699L40.4948 38.8969C40.5406 38.834 41.6256 37.3225 41.6256 34.9898C41.6256 32.6321 40.5144 31.2756 40.4676 31.2191L40.2687 30.9807H37.6329L37.4331 31.2536C37.3873 31.3165 36.3013 32.8266 36.3013 35.0753C36.3013 37.3244 37.3872 38.8339 37.4331 38.8969L37.6329 39.1698H38.2977V47.4767C37.5237 47.7576 36.9681 48.5164 36.9681 49.4061C36.9681 50.5347 37.863 51.4533 38.9645 51.4533C40.064 51.4533 40.9608 50.5347 40.9608 49.4061C40.9608 48.5164 40.4032 47.7576 39.6292 47.4767V39.1699H40.294ZM38.3328 32.3458H39.6155C39.6916 32.4707 39.7842 32.6427 39.8768 32.8586C40.0806 33.3354 40.2102 33.8497 40.2648 34.393H37.6758C37.7928 33.4424 38.1281 32.7161 38.3328 32.3458ZM39.6292 49.4061C39.6292 49.782 39.331 50.0879 38.9645 50.0879C38.597 50.0879 38.2977 49.782 38.2977 49.4061C38.2977 49.0303 38.597 48.7244 38.9645 48.7244C39.331 48.7244 39.6292 49.0303 39.6292 49.4061ZM39.5942 37.8043H38.3299C38.1242 37.4364 37.7908 36.7147 37.6738 35.7575H40.2453C40.1224 36.7177 39.7949 37.4364 39.5942 37.8043Z" fill="url(#paint1_linear_72_508)"/>
<path d="M46.2838 39.1699L46.4846 38.8969C46.5304 38.834 47.6153 37.3225 47.6153 34.9898C47.6153 32.6321 46.5041 31.2756 46.4573 31.2191L46.2584 30.9807H43.6225L43.4228 31.2536C43.377 31.3165 42.291 32.8266 42.291 35.0753C42.291 37.3244 43.3769 38.8339 43.4228 38.8969L43.6225 39.1698H44.2873V47.4767C43.5135 47.7576 42.9578 48.5164 42.9578 49.4061C42.9578 50.5347 43.8525 51.4533 44.9541 51.4533C46.0537 51.4533 46.9505 50.5347 46.9505 49.4061C46.9505 48.5164 46.3929 47.7576 45.6189 47.4767V39.1699H46.2838ZM44.3225 32.3458H45.6053C45.6814 32.4707 45.774 32.6427 45.8666 32.8586C46.0704 33.3354 46.2 33.8497 46.2546 34.393H43.6655C43.7825 33.4424 44.1178 32.7161 44.3225 32.3458ZM45.619 49.4061C45.619 49.782 45.3207 50.0879 44.9542 50.0879C44.5867 50.0879 44.2874 49.782 44.2874 49.4061C44.2874 49.0303 44.5867 48.7244 44.9542 48.7244C45.3207 48.7244 45.619 49.0303 45.619 49.4061ZM45.5839 37.8043H44.3196C44.1139 37.4364 43.7805 36.7147 43.6635 35.7575H46.2351C46.1122 36.7177 45.7847 37.4364 45.5839 37.8043Z" fill="url(#paint2_linear_72_508)"/>
<path d="M42.2907 18.6978C39.3615 18.6978 36.9771 21.1374 36.9683 24.1393C36.9683 24.1423 36.9683 24.1453 36.9683 24.1483C36.9683 24.1513 36.9683 24.1543 36.9683 24.1574C36.9683 27.1673 39.3565 29.6164 42.2907 29.6164C45.2267 29.6164 47.6149 27.1673 47.6149 24.1574C47.6149 24.1543 47.6149 24.1513 47.6149 24.1483C47.6149 24.1453 47.6149 24.1423 47.6149 24.1393C47.6052 21.1374 45.2209 18.6978 42.2907 18.6978ZM42.2907 28.2518C40.4521 28.2518 38.9004 26.9698 38.4383 25.2319C39.2182 25.4043 40.421 25.5218 42.2907 25.5218C43.9712 25.5218 45.2657 25.4238 46.145 25.2303C45.6829 26.9693 44.131 28.2518 42.2907 28.2518ZM42.2907 24.1573C39.7386 24.1573 38.7005 23.9218 38.3155 23.7869C38.4988 21.7022 40.2114 20.0627 42.2907 20.0627C44.3708 20.0627 46.0846 21.7022 46.2678 23.7869C45.8817 23.9218 44.8446 24.1573 42.2907 24.1573Z" fill="url(#paint3_linear_72_508)"/>
</g>
<path d="M69.5 36C69.5 55.6195 54.0406 71.5 35 71.5C15.9594 71.5 0.5 55.6195 0.5 36C0.5 16.3805 15.9594 0.5 35 0.5C54.0406 0.5 69.5 16.3805 69.5 36Z" stroke="black" stroke-opacity="0.1"/>
<path d="M28.9223 0.546921C20.747 2.02964 13.3502 6.45298 8.05269 13.0271C2.75522 19.6012 -0.0979818 27.898 0.00256745 36.436C0.103117 44.9741 3.15087 53.1974 8.6016 59.6376C14.0523 66.0778 21.5511 70.3155 29.759 71.5941L29.9162 70.5263C21.9546 69.286 14.6808 65.1754 9.39355 58.9284C4.10634 52.6814 1.15002 44.7048 1.05249 36.423C0.954957 28.1411 3.72256 20.0932 8.86111 13.7163C13.9996 7.33939 21.1746 3.04875 29.1046 1.61051L28.9223 0.546921Z" fill="url(#paint4_linear_72_508)"/>
<defs>
<linearGradient id="paint0_linear_72_508" x1="19.666" y1="18.6978" x2="34.9596" y2="19.0846" gradientUnits="userSpaceOnUse">
<stop stop-color="#7775E7"/>
<stop offset="0.6417" stop-color="#A93CF6"/>
<stop offset="1" stop-color="#C41DFF"/>
</linearGradient>
<linearGradient id="paint1_linear_72_508" x1="36.3013" y1="30.9807" x2="42.0893" y2="31.0693" gradientUnits="userSpaceOnUse">
<stop stop-color="#7775E7"/>
<stop offset="0.6417" stop-color="#A93CF6"/>
<stop offset="1" stop-color="#C41DFF"/>
</linearGradient>
<linearGradient id="paint2_linear_72_508" x1="42.291" y1="30.9807" x2="48.079" y2="31.0693" gradientUnits="userSpaceOnUse">
<stop stop-color="#7775E7"/>
<stop offset="0.6417" stop-color="#A93CF6"/>
<stop offset="1" stop-color="#C41DFF"/>
</linearGradient>
<linearGradient id="paint3_linear_72_508" x1="36.9683" y1="18.6978" x2="48.5068" y2="19.3601" gradientUnits="userSpaceOnUse">
<stop stop-color="#7775E7"/>
<stop offset="0.6417" stop-color="#A93CF6"/>
<stop offset="1" stop-color="#C41DFF"/>
</linearGradient>
<linearGradient id="paint4_linear_72_508" x1="0" y1="0" x2="75.8655" y2="4.34209" gradientUnits="userSpaceOnUse">
<stop stop-color="#7775E7"/>
<stop offset="0.6417" stop-color="#A93CF6"/>
<stop offset="1" stop-color="#C41DFF"/>
</linearGradient>
<clipPath id="clip0_72_508">
<rect width="31.9417" height="32.7562" fill="white" transform="translate(17.6694 18.6978)"/>
</clipPath>
</defs>
</svg>
