<svg width="40" height="40" viewBox="0 0 40 40" fill="none" xmlns="http://www.w3.org/2000/svg">
<circle cx="20" cy="20" r="20" transform="rotate(180 20 20)" fill="url(#paint0_linear_86_200)"/>
<path d="M28.3536 20.3536C28.5488 20.1583 28.5488 19.8417 28.3536 19.6464L25.1716 16.4645C24.9763 16.2692 24.6597 16.2692 24.4645 16.4645C24.2692 16.6597 24.2692 16.9763 24.4645 17.1716L27.2929 20L24.4645 22.8284C24.2692 23.0237 24.2692 23.3403 24.4645 23.5355C24.6597 23.7308 24.9763 23.7308 25.1716 23.5355L28.3536 20.3536ZM12 20.5L28 20.5L28 19.5L12 19.5L12 20.5Z" fill="white"/>
<defs>
<linearGradient id="paint0_linear_86_200" x1="-1.90735e-06" y1="1.90735e-06" x2="43.3435" y2="2.55161" gradientUnits="userSpaceOnUse">
<stop stop-color="#7775E7"/>
<stop offset="0.6417" stop-color="#A93CF6"/>
<stop offset="1" stop-color="#C41DFF"/>
</linearGradient>
</defs>
</svg>
