<svg width="40" height="40" viewBox="0 0 40 40" fill="none" xmlns="http://www.w3.org/2000/svg">
<circle r="19.5" transform="matrix(1 0 0 -1 20 20)" stroke="url(#paint0_linear_86_203)"/>
<path d="M11.6464 20.3536C11.4512 20.1583 11.4512 19.8417 11.6464 19.6464L14.8284 16.4645C15.0237 16.2692 15.3403 16.2692 15.5355 16.4645C15.7308 16.6597 15.7308 16.9763 15.5355 17.1716L12.7071 20L15.5355 22.8284C15.7308 23.0237 15.7308 23.3403 15.5355 23.5355C15.3403 23.7308 15.0237 23.7308 14.8284 23.5355L11.6464 20.3536ZM28 20.5L12 20.5L12 19.5L28 19.5L28 20.5Z" fill="url(#paint1_linear_86_203)"/>
<defs>
<linearGradient id="paint0_linear_86_203" x1="0" y1="0" x2="43.3435" y2="2.55161" gradientUnits="userSpaceOnUse">
<stop stop-color="#7775E7"/>
<stop offset="0.6417" stop-color="#A93CF6"/>
<stop offset="1" stop-color="#C41DFF"/>
</linearGradient>
<linearGradient id="paint1_linear_86_203" x1="28" y1="20" x2="18.7813" y2="28.6832" gradientUnits="userSpaceOnUse">
<stop stop-color="#7775E7"/>
<stop offset="0.6417" stop-color="#A93CF6"/>
<stop offset="1" stop-color="#C41DFF"/>
</linearGradient>
</defs>
</svg>
