<svg width="560" height="717" viewBox="0 0 560 717" fill="none" xmlns="http://www.w3.org/2000/svg">
<g opacity="0.3">
<path d="M-4.13341 252.281C-3.69346 223.893 14.9763 199.016 42.1115 190.662L238.609 130.166C265.744 121.812 295.172 131.88 311.503 155.106L429.759 323.291C446.09 346.517 445.608 377.616 428.565 400.325L305.154 564.765C288.112 587.474 258.386 596.626 231.522 587.435L36.994 520.879C10.1307 511.688 -7.75922 486.244 -7.31927 457.856L-4.13341 252.281Z" fill="url(#paint0_radial_165_3)"/>
<path d="M-4.13341 252.281C-3.69346 223.893 14.9763 199.016 42.1115 190.662L238.609 130.166C265.744 121.812 295.172 131.88 311.503 155.106L429.759 323.291C446.09 346.517 445.608 377.616 428.565 400.325L305.154 564.765C288.112 587.474 258.386 596.626 231.522 587.435L36.994 520.879C10.1307 511.688 -7.75922 486.244 -7.31927 457.856L-4.13341 252.281Z" fill="url(#paint1_linear_165_3)"/>
</g>
<circle cx="22" cy="241" r="37" fill="url(#paint2_radial_165_3)"/>
<defs>
<radialGradient id="paint0_radial_165_3" cx="0" cy="0" r="1" gradientUnits="userSpaceOnUse" gradientTransform="translate(205.588 269.405) rotate(83.8585) scale(332.708 776.479)">
<stop stop-color="white"/>
<stop offset="0.367826" stop-color="#E8B4E2"/>
<stop offset="1" stop-color="#7775E7"/>
</radialGradient>
<linearGradient id="paint1_linear_165_3" x1="288.416" y1="324.448" x2="449.145" y2="265.51" gradientUnits="userSpaceOnUse">
<stop stop-color="white"/>
<stop offset="1" stop-color="white" stop-opacity="0"/>
</linearGradient>
<radialGradient id="paint2_radial_165_3" cx="0" cy="0" r="1" gradientUnits="userSpaceOnUse" gradientTransform="translate(11.7931 242.276) rotate(37.9716) scale(66.3571 82.7984)">
<stop stop-color="white"/>
<stop offset="0.367826" stop-color="#E8B4E2"/>
<stop offset="1" stop-color="#7775E7"/>
</radialGradient>
</defs>
</svg>
