<svg width="90" height="90" viewBox="0 0 90 90" fill="none" xmlns="http://www.w3.org/2000/svg">
<g clip-path="url(#clip0_86_532)">
<path d="M88.5942 86.3136H75.8807C75.3708 84.2365 73.7539 82.5602 71.6035 82.0227L68.5462 81.2579L72.4107 62.5156C73.1522 58.9144 71.1087 55.2475 67.5712 54.0248C58.9248 51.0242 61.8822 52.3527 53.9285 50.5363C56.6962 48.854 60.5087 46.4466 61.6985 45.2568C63.092 43.8614 67.333 39.6146 67.333 35.5527C67.333 34.4077 66.9871 33.1461 66.3037 31.791L88.5051 9.58958C89.4694 8.62547 90.0004 7.3434 90.0004 5.97977C90.0004 1.46035 84.4926 -0.837155 81.2857 2.36996C80.7364 2.91907 80.7364 3.80935 81.2857 4.35846C81.8348 4.90757 82.7251 4.90757 83.2742 4.35846C84.7152 2.91784 87.1881 3.95049 87.1881 5.97959C87.1881 6.59198 86.9496 7.16763 86.5166 7.60073L60.6428 33.4747C59.7543 34.3631 60.3957 35.8752 61.6371 35.8752C62.3998 35.8752 62.6211 35.4738 64.1726 33.9223C64.3999 34.5255 64.5207 35.0767 64.5207 35.5527C64.5207 37.4758 62.9016 40.0721 59.7016 43.2766C58.5629 44.4153 53.3909 47.6178 49.9348 49.6487L45.1776 49.054C44.4067 48.9568 43.7043 49.5042 43.608 50.2749C43.5116 51.0455 44.0583 51.7482 44.8289 51.8446L49.9786 52.4884C61.9381 55.421 57.2321 53.445 66.6726 56.69C68.8362 57.4429 70.119 59.7035 69.6569 61.9479L67.8686 70.6208H63.2667L64.0092 64.1132C64.0985 63.33 63.5256 62.6248 62.739 62.5534C45.9566 61.0309 47.5299 62.8793 41.7712 60.8746C41.3936 60.7472 40.8206 60.5243 40.4188 60.3164C36.981 58.5369 36.2418 53.3836 37.328 50.4864C38.6597 49.5439 39.9864 48.4532 41.2723 47.2424C41.8378 46.7099 41.8645 45.82 41.3321 45.2546C40.7997 44.6893 39.9099 44.6626 39.3443 45.1948C37.8942 46.5602 36.0816 47.9634 35.9669 47.9899C35.6129 48.0723 35.5144 48.1885 34.1153 49.1076C30.619 51.405 31.2971 50.9585 13.1655 66.1991L2.18368 73.5259C0.261099 74.8085 -0.498407 77.2095 0.33668 79.3647C2.61309 85.2389 2.60975 85.4158 3.24358 86.3136H1.41187C0.635315 86.3136 0.00570369 86.9432 0.00570369 87.7198C0.00570369 88.4963 0.635315 89.1259 1.41187 89.1259H88.5942C89.3708 89.1259 90.0004 88.4963 90.0004 87.7198C90.0004 86.9432 89.3708 86.3136 88.5942 86.3136ZM34.0627 52.5287C33.8369 56.0849 35.1859 60.0685 38.1253 62.1936C32.8963 64.6266 25.8799 67.4186 17.2733 71.8573L15.6838 67.7561C29.6154 56.0437 31.9438 54.0132 34.0627 52.5287ZM3.74453 75.8654L13.3316 69.4691L14.8019 73.263L8.2752 77.4196C7.7964 77.7245 7.54786 78.2875 7.64524 78.8467L8.9426 86.3024C7.31057 86.4203 5.71967 85.4727 5.09831 83.8693L2.95901 78.3485C2.60377 77.4319 2.92684 76.4108 3.74453 75.8654ZM10.5766 79.2882C16.9704 75.2163 17.927 74.1905 33.871 67.1788C36.7457 65.9147 39.2536 64.81 41.4332 63.7235C47.2067 65.557 46.795 64.0093 61.0511 65.2278C59.0046 83.164 59.5144 79.6737 58.6714 83.0455C58.3931 84.1583 58.5112 85.3038 58.9884 86.3134H11.7991L10.5766 79.2882ZM63.4186 86.3136C62.0655 86.3136 61.0708 85.0426 61.3997 83.7278C62.301 80.1222 61.9091 82.5157 62.9454 73.4333H67.2882L65.5196 82.0109C65.3673 82.7491 65.8242 83.4761 66.5556 83.6589L70.9214 84.751C71.7979 84.9702 72.5047 85.5523 72.8983 86.3136H63.4186Z" fill="url(#paint0_linear_86_532)"/>
<path d="M48.8624 15.0756C49.0619 17.8389 50.1947 20.399 52.0798 22.4323C50.8199 27.5963 48.8743 32.3523 46.2884 36.5776C45.8829 37.2401 46.0912 38.1056 46.7536 38.5111C47.42 38.9191 48.2841 38.7041 48.6871 38.0459C51.1987 33.9421 53.1392 29.3754 54.4687 24.4443C55.1732 24.9015 55.9194 25.2852 56.6928 25.5905L57.4767 26.178L55.4114 28.2433C54.5229 29.1316 55.1643 30.6438 56.4057 30.6438C56.7655 30.6438 57.1255 30.5065 57.4001 30.232C72.0117 15.6203 45.9709 41.6611 75.4273 12.2047C78.0781 9.55391 79.5381 6.02952 79.5381 2.28068C79.5381 1.50412 78.9085 0.874512 78.1319 0.874512C77.3554 0.874512 76.7257 1.50412 76.7257 2.28068C76.7257 5.27828 75.5585 8.09659 73.4388 10.2162L67.3325 16.3225C67.3325 13.0568 67.5728 11.1935 66.1464 8.68173C63.7289 4.42122 58.2556 2.85229 53.8376 5.07509C51.7218 1.45895 46.2133 1.95304 44.8158 5.90965L43.8726 8.58892C42.7128 11.8702 45.3102 15.2745 48.8624 15.0756ZM63.2492 9.39097C61.9274 11.2345 59.7925 12.3161 57.5071 12.3471C55.4546 12.3757 55.593 15.1628 57.4064 15.1628C60.0435 15.1628 62.5938 14.134 64.4645 12.2884C64.5394 12.8361 64.5199 12.4877 64.5199 19.1345L60.0648 23.5896C58.231 23.3396 56.5717 22.6 55.2339 21.5343L56.4173 18.5973C56.7346 17.8099 56.2873 16.8987 55.4239 16.702C54.7621 16.5508 54.0699 16.8966 53.8084 17.5462L53.1315 19.2266C52.1651 17.7362 51.6392 16.0131 51.6392 14.1922C51.6392 14.0132 51.6193 14.0616 51.7385 13.9649C52.4873 13.3583 53.0009 12.5773 53.279 11.7932C54.2214 9.11817 54.4088 8.71724 54.4791 7.94367C57.2983 6.10774 61.1697 6.68515 63.2492 9.39097ZM46.5244 9.52402L47.4676 6.84457C47.7743 5.97662 48.6158 5.43155 49.5183 5.43155C50.9946 5.43155 52.0484 6.8233 51.5699 8.18008C50.6536 10.7811 50.5932 11.4568 49.6936 11.9718C47.8961 12.9858 45.8957 11.3046 46.5244 9.52402Z" fill="url(#paint1_linear_86_532)"/>
<path d="M43.2489 43.1776C43.8528 43.6631 44.7431 43.563 45.2307 42.9565C45.3022 42.8675 45.3738 42.7784 45.4453 42.6877C45.9262 42.0779 45.8218 41.1938 45.2121 40.7129C44.6023 40.2318 43.718 40.3362 43.2373 40.9462C43.1712 41.03 43.1051 41.1121 43.029 41.2067C42.5424 41.812 42.6437 42.6909 43.2489 43.1776Z" fill="url(#paint2_linear_86_532)"/>
</g>
<defs>
<linearGradient id="paint0_linear_86_532" x1="0.000488281" y1="0.874512" x2="97.5099" y2="6.72856" gradientUnits="userSpaceOnUse">
<stop stop-color="#7775E7"/>
<stop offset="0.6417" stop-color="#A93CF6"/>
<stop offset="1" stop-color="#C41DFF"/>
</linearGradient>
<linearGradient id="paint1_linear_86_532" x1="43.5928" y1="0.874512" x2="82.5558" y2="3.05317" gradientUnits="userSpaceOnUse">
<stop stop-color="#7775E7"/>
<stop offset="0.6417" stop-color="#A93CF6"/>
<stop offset="1" stop-color="#C41DFF"/>
</linearGradient>
<linearGradient id="paint2_linear_86_532" x1="42.7207" y1="40.4106" x2="46.0008" y2="40.6007" gradientUnits="userSpaceOnUse">
<stop stop-color="#7775E7"/>
<stop offset="0.6417" stop-color="#A93CF6"/>
<stop offset="1" stop-color="#C41DFF"/>
</linearGradient>
<clipPath id="clip0_86_532">
<rect width="90" height="90" fill="white"/>
</clipPath>
</defs>
</svg>
