<svg width="90" height="90" viewBox="0 0 90 90" fill="none" xmlns="http://www.w3.org/2000/svg">
<g clip-path="url(#clip0_86_518)">
<path d="M88.5885 87.1882H57.4501C56.9615 85.5137 55.6229 84.1764 53.8616 83.7361L51.3772 83.1149C53.6833 66.0326 55.1297 59.7449 53.4366 49.1219C53.4534 41.2586 55.0643 36.2424 57.658 29.7394C57.9458 29.018 57.5942 28.2 56.8729 27.9123C56.1516 27.6248 55.3336 27.9759 55.0459 28.6974L54.196 30.828C51.4687 36.624 50.27 46.6693 50.6379 49.4119C52.1154 60.2594 51.1459 63.8099 49.5083 75.9393H46.4056V57.66C46.4056 56.8835 45.776 56.2539 44.9995 56.2539C44.223 56.2539 43.5934 56.8835 43.5934 57.66V75.9393H40.4907C39.1847 66.266 37.866 60.0224 39.1791 50.6296H44.9995C45.776 50.6296 46.4056 50 46.4056 49.2235C46.4056 48.4469 45.776 47.8174 44.9995 47.8174H39.3559C39.0886 38.0606 36.1219 31.5056 35.8029 30.8279L25.4229 4.81736C25.1225 4.06633 25.4577 3.21828 26.1689 2.92739C26.902 2.62807 27.7219 2.99102 28.0056 3.70654C28.2919 4.42857 29.1092 4.7815 29.831 4.49519C32.3253 3.506 29.0173 -1.27262 25.105 0.324179C22.9691 1.19789 21.9402 3.68194 22.8111 5.86033C33.7119 33.1759 33.2136 31.9323 33.2468 32.0018C33.28 32.0703 36.5406 38.9489 36.5622 49.122C34.8675 59.7546 36.3096 65.9897 38.6216 83.1151L36.1372 83.7363C34.3759 84.1765 33.0373 85.5141 32.5487 87.1884H1.41049C0.633974 87.1884 0.00439453 87.818 0.00439453 88.5945C0.00439453 89.371 0.633974 90.0006 1.41049 90.0006H88.5885C89.365 90.0006 89.9946 89.371 89.9946 88.5945C89.9946 87.818 89.365 87.1882 88.5885 87.1882ZM40.5246 85.538C41.2195 85.3642 41.6728 84.6957 41.5769 83.9857L40.8703 78.7515H43.5934V87.188H35.6649C36.3005 86.4252 36.877 86.45 40.5246 85.538ZM46.4056 87.1882V78.7516H49.1286L48.4221 83.9858C48.3261 84.6959 48.7794 85.3643 49.4744 85.5382C53.3318 86.5026 53.7224 86.4541 54.334 87.1884H46.4056V87.1882Z" fill="url(#paint0_linear_86_518)"/>
<path d="M60.1682 4.49503C60.89 4.78135 61.7073 4.42824 61.9936 3.70638C62.1314 3.35873 62.3981 3.08524 62.7419 2.93707C63.9028 2.43932 65.064 3.59776 64.5761 4.81843L58.8394 19.1919C58.5514 19.913 58.9027 20.7312 59.624 21.0191C60.3436 21.3067 61.1626 20.9571 61.4512 20.2345L67.1879 5.8614C68.0592 3.68195 67.0305 1.19791 64.8934 0.323845C60.9864 -1.27084 57.6574 3.49934 60.1682 4.49503Z" fill="url(#paint1_linear_86_518)"/>
<path d="M58.9455 22.7137C58.2242 22.4276 57.4064 22.78 57.1197 23.5016L57.0039 23.7934C56.6359 24.7205 57.3245 25.7187 58.3105 25.7187C58.8698 25.7187 59.3987 25.3826 59.6178 24.8311L59.7337 24.5393C60.02 23.8178 59.6672 23.0004 58.9455 22.7137Z" fill="url(#paint2_linear_86_518)"/>
<path d="M30.5243 10.014C36.1692 24.1583 38.3835 29.7116 38.4529 29.8702C38.6025 30.486 39.156 30.9439 39.8179 30.9439H50.181C50.8429 30.9439 51.3964 30.486 51.546 29.8702C51.6156 29.7116 53.8296 24.1583 59.4746 10.014C60.6438 7.08474 59.8498 5.2359 58.8445 2.89545C58.5381 2.18203 57.7115 1.85195 56.9976 2.15848C56.284 2.46501 55.9539 3.2918 56.2606 4.00539C57.2081 6.2112 57.6001 7.12446 56.8629 8.97172L52.0161 21.1158C52.1156 18.5764 51.0862 16.6762 49.2178 15.3735V14.0709C49.2178 11.7438 47.3377 9.85264 44.9995 9.85264C42.6737 9.85264 40.7812 11.7451 40.7812 14.0709V15.3735C39.005 16.6119 37.969 18.5124 37.969 20.5901C37.969 21.3246 38.8076 23.1824 33.1361 8.97172C32.399 7.12429 32.7909 6.2112 33.7384 4.00539C34.045 3.2918 33.7149 2.46501 33.0015 2.15848C32.2882 1.85195 31.4611 2.18186 31.1546 2.89545C30.149 5.23607 29.3549 7.08474 30.5243 10.014ZM46.4054 14.2013C45.5061 14.033 44.5519 14.0219 43.5933 14.2013C43.5933 12.1757 46.4054 12.1351 46.4054 14.2013ZM41.9678 18.0145C42.6441 17.3997 42.7113 17.6498 43.1301 17.27C44.3121 16.7538 45.6862 16.7538 46.8686 17.27C47.2897 17.6517 47.354 17.399 48.0309 18.0145C49.4319 19.2879 49.3874 20.9163 48.9848 22.8077C48.7 24.1465 48.3376 24.853 47.5683 26.5977C46.6717 28.6365 43.3271 28.6363 42.4297 26.5966C41.5509 24.6029 40.7811 23.12 40.7811 20.5901C40.7811 19.625 41.2024 18.7102 41.9678 18.0145Z" fill="url(#paint3_linear_86_518)"/>
</g>
<defs>
<linearGradient id="paint0_linear_86_518" x1="0.00439453" y1="0.000488281" x2="97.5168" y2="5.74034" gradientUnits="userSpaceOnUse">
<stop stop-color="#7775E7"/>
<stop offset="0.6417" stop-color="#A93CF6"/>
<stop offset="1" stop-color="#C41DFF"/>
</linearGradient>
<linearGradient id="paint1_linear_86_518" x1="58.7388" y1="0.000488281" x2="68.2573" y2="0.23289" gradientUnits="userSpaceOnUse">
<stop stop-color="#7775E7"/>
<stop offset="0.6417" stop-color="#A93CF6"/>
<stop offset="1" stop-color="#C41DFF"/>
</linearGradient>
<linearGradient id="paint2_linear_86_518" x1="56.9033" y1="22.6143" x2="60.0792" y2="22.7907" gradientUnits="userSpaceOnUse">
<stop stop-color="#7775E7"/>
<stop offset="0.6417" stop-color="#A93CF6"/>
<stop offset="1" stop-color="#C41DFF"/>
</linearGradient>
<linearGradient id="paint3_linear_86_518" x1="29.9429" y1="2.04395" x2="62.5634" y2="4.0449" gradientUnits="userSpaceOnUse">
<stop stop-color="#7775E7"/>
<stop offset="0.6417" stop-color="#A93CF6"/>
<stop offset="1" stop-color="#C41DFF"/>
</linearGradient>
<clipPath id="clip0_86_518">
<rect width="90" height="90" fill="white"/>
</clipPath>
</defs>
</svg>
