<svg width="103" height="103" viewBox="0 0 103 103" fill="none" xmlns="http://www.w3.org/2000/svg">
<g clip-path="url(#clip0_86_308)">
<path d="M82.059 75.0102H61.3001C60.9743 73.8972 60.0819 73.0083 58.9077 72.7156L57.2514 72.3028C58.7889 60.9486 59.7531 56.7693 58.6244 49.7085C58.6356 44.482 59.7095 41.1478 61.4387 36.8255C61.6305 36.346 61.3962 35.8023 60.9153 35.6111C60.4344 35.4199 59.889 35.6534 59.6972 36.1329L59.1307 37.5491C57.3125 41.4015 56.5134 48.0783 56.7586 49.9012C57.7436 57.1113 57.0972 59.4712 56.0055 67.5333H53.937V55.3836C53.937 54.8674 53.5173 54.449 52.9996 54.449C52.482 54.449 52.0623 54.8674 52.0623 55.3836V67.5333H49.9938C49.1232 61.1037 48.244 56.9538 49.1194 50.7106H52.9996C53.5173 50.7106 53.937 50.2921 53.937 49.776C53.937 49.2599 53.5173 48.8414 52.9996 48.8414H49.2373C49.0591 42.3564 47.0813 37.9994 46.8686 37.549L39.9486 20.2605C39.7484 19.7613 39.9718 19.1976 40.4459 19.0043C40.9346 18.8053 41.4813 19.0466 41.6704 19.5222C41.8613 20.0021 42.4061 20.2366 42.8874 20.0463C44.5502 19.3889 42.3448 16.2126 39.7366 17.274C38.3127 17.8547 37.6268 19.5058 38.2074 20.9537C45.4746 39.1096 45.1424 38.2831 45.1645 38.3292C45.1867 38.3748 47.3604 42.9468 47.3748 49.7086C46.245 56.7758 47.2064 60.9201 48.7477 72.3029L47.0915 72.7157C45.9173 73.0084 45.0249 73.8974 44.6991 75.0103H23.9403C23.4226 75.0103 23.0029 75.4287 23.0029 75.9449C23.0029 76.461 23.4226 76.8795 23.9403 76.8795H82.059C82.5766 76.8795 82.9964 76.461 82.9964 75.9449C82.9964 75.4287 82.5766 75.0102 82.059 75.0102ZM50.0164 73.9133C50.4797 73.7978 50.7819 73.3535 50.7179 72.8815L50.2469 69.4025H52.0623V75.01H46.7766C47.2003 74.503 47.5847 74.5195 50.0164 73.9133ZM53.937 75.0102V69.4026H55.7524L55.2814 72.8816C55.2174 73.3536 55.5196 73.7979 55.9829 73.9134C58.5546 74.5544 58.8149 74.5222 59.2227 75.0103H53.937V75.0102Z" fill="url(#paint0_linear_86_308)"/>
<path d="M63.1121 20.0462C63.5934 20.2365 64.1382 20.0018 64.3291 19.522C64.421 19.291 64.5987 19.1092 64.8279 19.0107C65.6019 18.6799 66.376 19.4498 66.0507 20.2612L62.2263 29.8148C62.0342 30.2942 62.2685 30.838 62.7494 31.0294C63.2291 31.2205 63.7751 30.9881 63.9675 30.5078L67.792 20.9544C68.3728 19.5058 67.687 17.8547 66.2622 17.2738C63.6576 16.2138 61.4383 19.3844 63.1121 20.0462Z" fill="url(#paint1_linear_86_308)"/>
<path d="M62.297 32.1559C61.8161 31.9657 61.2709 32.2 61.0798 32.6797L61.0026 32.8736C60.7572 33.4898 61.2163 34.1533 61.8737 34.1533C62.2465 34.1533 62.5991 33.9299 62.7452 33.5633L62.8224 33.3694C63.0133 32.8898 62.7781 32.3465 62.297 32.1559Z" fill="url(#paint2_linear_86_308)"/>
<path d="M43.3495 23.7147C47.1128 33.116 48.589 36.8072 48.6353 36.9126C48.735 37.3219 49.104 37.6263 49.5453 37.6263H56.454C56.8953 37.6263 57.2643 37.3219 57.364 36.9126C57.4104 36.8072 58.8864 33.116 62.6497 23.7147C63.4292 21.7677 62.8999 20.5388 62.2296 18.9832C62.0254 18.509 61.4743 18.2896 60.9984 18.4934C60.5226 18.6971 60.3026 19.2466 60.5071 19.721C61.1388 21.1871 61.4001 21.7941 60.9086 23.0219L57.6774 31.0938C57.7437 29.4059 57.0574 28.1429 55.8119 27.277V26.4112C55.8119 24.8645 54.5585 23.6075 52.9997 23.6075C51.4491 23.6075 50.1875 24.8653 50.1875 26.4112V27.277C49.0033 28.1002 48.3127 29.3634 48.3127 30.7444C48.3127 31.2326 48.8717 32.4674 45.0907 23.0219C44.5993 21.794 44.8606 21.1871 45.4923 19.721C45.6967 19.2466 45.4766 18.6971 45.001 18.4934C44.5255 18.2896 43.9741 18.5089 43.7697 18.9832C43.0994 20.539 42.57 21.7677 43.3495 23.7147ZM53.937 26.4979C53.3374 26.386 52.7012 26.3787 52.0622 26.4979C52.0622 25.1515 53.937 25.1245 53.937 26.4979ZM50.9785 29.0324C51.4294 28.6238 51.4742 28.79 51.7534 28.5376C52.5414 28.1945 53.4575 28.1945 54.2457 28.5376C54.5265 28.7913 54.5694 28.6233 55.0206 29.0324C55.9546 29.8788 55.9249 30.9612 55.6565 32.2183C55.4667 33.1082 55.2251 33.5778 54.7122 34.7374C54.1145 36.0926 51.8848 36.0925 51.2865 34.7367C50.7006 33.4116 50.1874 32.4259 50.1874 30.7444C50.1874 30.1029 50.4682 29.4948 50.9785 29.0324Z" fill="url(#paint3_linear_86_308)"/>
</g>
<circle cx="51.5" cy="51.5" r="51" stroke="url(#paint4_linear_86_308)" stroke-opacity="0.35"/>
<path d="M42.5571 0.7824C30.5277 2.90351 19.6438 9.23135 11.849 18.636C4.05411 28.0406 -0.144173 39.9097 0.00377782 52.1238C0.151729 64.3379 4.63628 76.1018 12.6566 85.3148C20.677 94.5279 31.711 100.59 43.7883 102.419L44.0196 100.892C32.3046 99.1175 21.6017 93.2371 13.8219 84.3004C6.04219 75.3637 1.69218 63.9528 1.54866 52.1051C1.40515 40.2574 5.47748 28.7444 13.0385 19.6219C20.5995 10.4994 31.1569 4.36141 42.8254 2.30393L42.5571 0.7824Z" fill="url(#paint5_linear_86_308)"/>
<defs>
<linearGradient id="paint0_linear_86_308" x1="23.0029" y1="17.0588" x2="88.0098" y2="20.8968" gradientUnits="userSpaceOnUse">
<stop stop-color="#7775E7"/>
<stop offset="0.6417" stop-color="#A93CF6"/>
<stop offset="1" stop-color="#C41DFF"/>
</linearGradient>
<linearGradient id="paint1_linear_86_308" x1="62.1592" y1="17.0588" x2="68.5048" y2="17.2142" gradientUnits="userSpaceOnUse">
<stop stop-color="#7775E7"/>
<stop offset="0.6417" stop-color="#A93CF6"/>
<stop offset="1" stop-color="#C41DFF"/>
</linearGradient>
<linearGradient id="paint2_linear_86_308" x1="60.9355" y1="32.0898" x2="63.0528" y2="32.2078" gradientUnits="userSpaceOnUse">
<stop stop-color="#7775E7"/>
<stop offset="0.6417" stop-color="#A93CF6"/>
<stop offset="1" stop-color="#C41DFF"/>
</linearGradient>
<linearGradient id="paint3_linear_86_308" x1="42.9619" y1="18.4172" x2="64.7084" y2="19.7552" gradientUnits="userSpaceOnUse">
<stop stop-color="#7775E7"/>
<stop offset="0.6417" stop-color="#A93CF6"/>
<stop offset="1" stop-color="#C41DFF"/>
</linearGradient>
<linearGradient id="paint4_linear_86_308" x1="0" y1="0" x2="111.61" y2="6.57038" gradientUnits="userSpaceOnUse">
<stop stop-color="#7775E7"/>
<stop offset="0.6417" stop-color="#A93CF6"/>
<stop offset="1" stop-color="#C41DFF"/>
</linearGradient>
<linearGradient id="paint5_linear_86_308" x1="0" y1="0" x2="111.61" y2="6.57038" gradientUnits="userSpaceOnUse">
<stop stop-color="#7775E7"/>
<stop offset="0.6417" stop-color="#A93CF6"/>
<stop offset="1" stop-color="#C41DFF"/>
</linearGradient>
<clipPath id="clip0_86_308">
<rect width="60" height="59.8206" fill="white" transform="translate(23 17.0586)"/>
</clipPath>
</defs>
</svg>
