<svg width="103" height="103" viewBox="0 0 103 103" fill="none" xmlns="http://www.w3.org/2000/svg">
<g clip-path="url(#clip0_86_348)">
<path d="M78.9999 44.2081V37.6409C78.9999 32.0078 72.7282 28.2544 67.5108 31.1014C65.9459 27.9698 61.265 28.2407 60.0958 31.5405L59.2813 33.8474C58.3044 36.6037 60.6277 39.4041 63.5862 39.0395C63.6618 40.7322 64.1539 42.3522 65.0521 43.8261H57.3583C56.8406 43.8261 56.4208 44.2446 56.4208 44.7608C56.4208 45.2769 56.8406 45.6954 57.3583 45.6954H65.8354C67.0799 45.6954 68.0924 46.7044 68.0924 47.9445C68.0924 48.4607 68.5121 48.8792 69.0298 48.8792C69.5148 48.8792 69.9137 48.5121 69.9623 48.0413C71.355 48.6295 70.0791 47.6258 72.6716 53.2859C73.5092 55.1146 74.1145 56.4358 74.1145 58.3486C74.1145 60.0677 72.6158 61.0413 69.7439 62.7536C68.499 63.496 68.4015 63.5294 68.2499 63.7559C68.1957 63.8368 63.0174 71.3819 51.6433 72.2624H46.0642C37.1235 71.8091 28.8537 69.4829 22.474 63.3199C20.1621 61.0896 20.3831 57.3097 22.9695 55.3493L27.4164 51.9804L31.8053 56.1234C30.7193 57.2062 29.596 58.3259 28.4603 59.4573C28.025 59.8909 28.1202 60.6195 28.6528 60.9272C30.9978 62.2824 33.394 63.1416 35.775 63.481C36.2953 63.5552 36.2377 63.3514 38.3237 62.2884C40.1164 61.3733 41.6591 60.8897 42.7854 60.8897C44.9766 60.8897 47.6963 62.6703 48.5192 63.2466V68.5237C48.5192 69.0399 48.9389 69.4584 49.4567 69.4584C49.9744 69.4584 50.3941 69.0399 50.3941 68.5237V63.3877C52.4252 62.1782 60.2668 57.2848 63.4028 52.0637H64.0004C64.5181 52.0637 64.9379 51.6452 64.9379 51.129C64.9379 50.6129 64.5181 50.1944 64.0004 50.1944H43.8224C40.6594 50.1944 37.6856 51.4224 35.449 53.6524C34.8566 54.2431 35.2844 55.248 36.112 55.248C36.3518 55.248 36.5918 55.1568 36.7749 54.9743C38.6572 53.0975 41.1601 52.0638 43.8224 52.0638H61.1566C58.0124 56.4 51.537 60.5087 49.57 61.6981C48.5049 60.9532 45.4818 59.0205 42.7854 59.0205C40.5075 59.0205 37.6638 60.4163 35.7079 61.5794C34.035 61.3029 32.3476 60.738 30.674 59.8947C32.4427 58.1322 32.8749 57.7006 33.7959 56.7828C34.1744 56.4054 34.173 55.784 33.7014 55.3392L28.9294 50.8345L30.483 49.6575C31.1508 51.1106 32.6128 52.0642 34.2416 52.0642C34.7593 52.0642 35.1791 51.6457 35.1791 51.1295C35.1791 50.6133 34.7593 50.1948 34.2416 50.1948C33.0117 50.1948 31.9846 49.2003 31.9846 47.9446C31.9846 46.7111 32.9868 45.6956 34.2416 45.6956H50.0181C50.5358 45.6956 50.9556 45.2771 50.9556 44.7609C50.9556 44.2447 50.5358 43.8262 50.0181 43.8262H45.9346C46.0752 43.2121 46.0714 42.5658 45.9083 41.9475C44.2572 33.9536 44.3664 34.4779 44.3543 34.4338C43.6362 31.8027 40.3375 30.9331 38.4047 32.8591C38.0737 33.1886 38.2178 32.7002 37.1185 42.2826L35.0812 43.8262H34.2415C32.0482 43.8262 30.3081 45.5104 30.1264 47.5797C21.5721 54.0604 30.4631 47.3246 21.8349 53.8612C18.3179 56.5273 18.0468 61.65 21.1699 64.663C24.9743 68.3382 29.3909 70.7599 34.4238 72.2625H19.939C19.4213 72.2625 19.0015 72.681 19.0015 73.1972C19.0015 73.7133 19.4213 74.1319 19.939 74.1319C53.7859 74.1319 46.5565 74.216 49.4566 74.216C52.2452 74.216 42.8597 74.1319 78.0624 74.1319C78.5801 74.1319 78.9999 73.7133 78.9999 73.1972C78.9999 72.681 78.5801 72.2625 78.0624 72.2625H59.8419C64.1528 70.5242 67.7196 67.6655 69.684 64.9715C73.0804 62.9086 75.9894 61.5327 75.9894 58.3487C75.9894 54.8072 74.2856 52.9713 72.8523 48.8116C73.2939 48.8655 73.7405 48.8956 74.1918 48.8956C76.843 48.8956 78.9999 46.7929 78.9999 44.2081ZM38.9356 42.8914L39.9568 33.9909C40.8818 33.3408 42.2135 33.7767 42.5381 34.8995C44.1892 42.8934 44.0788 42.3633 44.0907 42.4075C44.2197 42.8808 44.1711 43.3868 43.9656 43.8262H38.1798C38.5622 43.5365 38.881 43.3668 38.9356 42.8914ZM76.0931 34.443C74.893 36.2314 72.8561 37.2695 70.7056 37.2695C70.1879 37.2695 69.7681 37.688 69.7681 38.2041C69.7681 38.7203 70.1879 39.1388 70.7056 39.1388C73.0592 39.1388 75.345 38.1656 76.9437 36.3905C77.189 36.1175 77.1249 39.1574 77.1249 44.2083C77.1249 45.7621 75.8091 47.0263 74.1918 47.0263C73.0388 47.0263 71.9204 46.8135 70.8667 46.3939C68.3941 45.1553 69.5247 45.6944 68.5538 44.847L69.5958 42.2688C69.7893 41.79 69.5569 41.2455 69.0767 41.0524C68.5959 40.8595 68.0502 41.0913 67.8568 41.57L67.0812 43.4891C66.0078 42.0409 65.4499 40.3516 65.4499 38.5792C65.4499 38.2256 65.3882 38.3796 65.6903 38.1298C66.1427 37.752 66.5288 37.2542 66.7803 36.6755C66.8012 36.6272 67.7466 34.0909 67.85 33.5457C67.8807 33.3847 67.9035 33.2146 67.9127 33.0453C70.5413 31.249 74.2368 31.8335 76.0931 34.443ZM61.0495 34.4691L61.864 32.1622C62.1688 31.3023 63.0031 30.7618 63.8966 30.7618C65.0013 30.7618 65.9377 31.574 66.0373 32.6482C66.0373 33.3296 66.0896 33.0385 65.279 35.332C65.0806 35.8926 64.9352 36.4794 64.1719 36.9139C62.5019 37.8842 60.3982 36.3076 61.0495 34.4691Z" fill="url(#paint0_linear_86_348)"/>
<path d="M53.6089 45.6953H53.7681C54.2859 45.6953 54.7056 45.2768 54.7056 44.7606C54.7056 44.2444 54.2859 43.8259 53.7681 43.8259H53.6089C53.0912 43.8259 52.6714 44.2444 52.6714 44.7606C52.6714 45.2768 53.0912 45.6953 53.6089 45.6953Z" fill="#F754E7"/>
</g>
<circle cx="51.5" cy="51.5" r="51" stroke="url(#paint1_linear_86_348)" stroke-opacity="0.35"/>
<path d="M90.9513 84.6036C95.7944 78.8318 99.312 72.0677 101.256 64.7884C103.2 57.509 103.523 49.8918 102.203 42.4739C100.882 35.0561 97.9503 28.0183 93.6135 21.8571C89.2767 15.6959 83.6409 10.5613 77.1035 6.81545L76.3354 8.15599C82.6767 11.7894 88.1434 16.77 92.3501 22.7464C96.5568 28.7228 99.4009 35.5494 100.682 42.7447C101.963 49.94 101.649 57.3288 99.7634 64.3897C97.8776 71.4507 94.4655 78.0119 89.7678 83.6105L90.9513 84.6036Z" fill="url(#paint2_linear_86_348)"/>
<defs>
<linearGradient id="paint0_linear_86_348" x1="19" y1="28.9019" x2="83.8465" y2="33.9565" gradientUnits="userSpaceOnUse">
<stop stop-color="#7775E7"/>
<stop offset="0.6417" stop-color="#A93CF6"/>
<stop offset="1" stop-color="#C41DFF"/>
</linearGradient>
<linearGradient id="paint1_linear_86_348" x1="0" y1="0" x2="111.61" y2="6.57038" gradientUnits="userSpaceOnUse">
<stop stop-color="#7775E7"/>
<stop offset="0.6417" stop-color="#A93CF6"/>
<stop offset="1" stop-color="#C41DFF"/>
</linearGradient>
<linearGradient id="paint2_linear_86_348" x1="0" y1="0" x2="111.61" y2="6.57038" gradientUnits="userSpaceOnUse">
<stop stop-color="#7775E7"/>
<stop offset="0.6417" stop-color="#A93CF6"/>
<stop offset="1" stop-color="#C41DFF"/>
</linearGradient>
<clipPath id="clip0_86_348">
<rect width="60" height="59.8208" fill="white" transform="translate(19 21.6484)"/>
</clipPath>
</defs>
</svg>
