<svg width="31" height="50" viewBox="0 0 31 50" fill="none" xmlns="http://www.w3.org/2000/svg">
<path d="M30.9047 43.4189C30.8305 42.8499 30.7067 42.3795 30.5262 41.9812C30.5241 41.9762 30.5218 41.9713 30.5194 41.9665C30.3033 41.5095 30.0575 41.1892 29.7459 40.9582C29.3963 40.6992 28.9989 40.5679 28.5645 40.5679H21.8088V2.12227C21.8088 1.70859 21.7039 1.33975 21.4973 1.02676C21.2676 0.67832 20.9034 0.433887 20.3841 0.279883C20.0247 0.17002 19.5311 0.0956055 18.8759 0.0524414C18.3272 0.0162109 17.6163 0 16.5711 0C15.7987 0 15.1885 0 14.7024 0.0128906C14.1936 0.0263672 13.7747 0.0544922 13.4622 0.0957031C13.1034 0.141016 12.8064 0.204395 12.5543 0.289258C12.5478 0.291406 12.5414 0.29375 12.5349 0.295996C12.268 0.392285 12.0441 0.51084 11.8523 0.657422L1.74868 7.27051C1.7396 7.27646 1.73071 7.28252 1.72192 7.28877C1.36877 7.53721 1.10583 7.73818 0.89303 7.9667C0.612129 8.25449 0.405317 8.59834 0.2781 8.98926C0.150496 9.33721 0.070225 9.7498 0.0395075 10.2163C0.0133299 10.615 0 11.1282 0 11.7417C0 12.7339 0.0399907 13.4927 0.122291 14.0614C0.225938 14.777 0.442893 15.3039 0.785615 15.672C0.792377 15.6792 0.799236 15.6863 0.806094 15.6935C1.23025 16.1221 1.78925 16.2914 2.46793 16.1968C2.48059 16.195 2.49314 16.193 2.5057 16.1907C2.92966 16.1142 3.45428 15.9232 4.10958 15.6069C4.12668 15.5987 4.14349 15.5899 4.16001 15.5807L10.312 12.1492L10.3123 21.6251C10.3123 22.1645 10.7449 22.6017 11.2783 22.6017C11.8117 22.6017 12.2442 22.1644 12.2442 21.6251L12.2439 10.495C12.2439 10.1495 12.0633 9.82969 11.7691 9.6541C11.4746 9.47842 11.1105 9.47305 10.8113 9.63994L3.2521 13.8563C2.68006 14.1309 2.3583 14.2301 2.18539 14.2642C2.17476 14.2655 2.1651 14.2664 2.15631 14.2671C2.12251 14.1919 2.07228 14.0443 2.03373 13.7784C1.96612 13.3109 1.93183 12.6256 1.93183 11.7415C1.93183 11.171 1.94371 10.7015 1.96708 10.3459C1.99036 9.99209 2.04832 9.77705 2.09275 9.65898C2.09913 9.64209 2.10502 9.6249 2.11053 9.60772C2.14569 9.496 2.19534 9.41182 2.27155 9.33486C2.28005 9.32627 2.28836 9.31748 2.29647 9.30859C2.39684 9.19932 2.60259 9.04854 2.8122 8.90078L12.9361 2.27441C12.9631 2.25674 12.9891 2.23779 13.0141 2.21758C13.0311 2.20381 13.0743 2.17568 13.1744 2.13877C13.302 2.09687 13.4794 2.06152 13.7068 2.03271C13.9585 1.99951 14.3106 1.97676 14.7529 1.96504C15.2137 1.95312 15.8127 1.95312 16.5711 1.95312C17.5727 1.95312 18.2447 1.96797 18.7501 2.00137C19.4077 2.04473 19.707 2.11318 19.8267 2.1499C19.8304 2.15107 19.834 2.15205 19.8376 2.15322C19.8518 2.15742 19.8649 2.16143 19.8768 2.16533V41.5443C19.8768 42.0836 20.3093 42.5209 20.8427 42.5209H28.5644C28.5779 42.5209 28.5853 42.5221 28.5863 42.5223C28.5878 42.5229 28.5939 42.5261 28.6035 42.5333C28.6062 42.5353 28.6688 42.5833 28.7731 42.8018C28.8692 43.0166 28.9419 43.3099 28.9888 43.6705C29.0422 44.0915 29.0681 44.6356 29.0681 45.3342C29.0681 45.9685 29.0343 46.5061 28.9678 46.932C28.8897 47.4322 28.8045 47.6765 28.7467 47.7932C28.739 47.8088 28.7316 47.8247 28.7247 47.8407C28.6646 47.9802 28.6116 48.0312 28.6122 48.0314C28.6084 48.0342 28.6046 48.0368 28.6007 48.0396C28.5934 48.045 28.5911 48.0466 28.577 48.0466H2.48416C2.48136 48.0448 2.47798 48.0426 2.47392 48.0397C2.46107 48.0257 2.40901 47.9641 2.3355 47.8087C2.33309 47.8036 2.33067 47.7985 2.32816 47.7936C2.2703 47.6766 2.185 47.4321 2.10686 46.9319C2.0403 46.5059 2.00649 45.9684 2.00649 45.3342C2.00649 44.6358 2.03248 44.0916 2.08551 43.6737C2.13284 43.3099 2.20558 43.0166 2.30159 42.8018C2.39085 42.6147 2.4546 42.5422 2.47634 42.5209H11.278C11.8115 42.5209 12.2439 42.0836 12.2439 41.5443V30.4144C12.2439 29.8751 11.8115 29.4378 11.278 29.4378C10.7445 29.4378 10.312 29.8751 10.312 30.4144V40.5679H2.4604C2.01441 40.5679 1.60572 40.7133 1.27719 40.9888C0.994553 41.2174 0.758279 41.5374 0.555234 41.9667C0.553013 41.9716 0.550694 41.9764 0.548473 41.9813C0.367935 42.3796 0.244195 42.85 0.169719 43.4222C0.104903 43.9334 0.0746683 44.541 0.0746683 45.3343C0.0746683 46.0806 0.115239 46.7029 0.198602 47.2367C0.294232 47.8486 0.420579 48.3008 0.596094 48.6589C0.806674 49.1018 1.05551 49.4207 1.3566 49.6333C1.6912 49.8732 2.07276 50 2.4605 50H28.5771C28.9892 50 29.3836 49.8732 29.7182 49.6333C30.0341 49.4103 30.2992 49.0685 30.4862 48.6432C30.6578 48.2878 30.782 47.8398 30.8762 47.2368C30.9594 46.7029 31 46.0807 31 45.3344C31 44.5409 30.9698 43.9333 30.9047 43.4189Z" fill="white"/>
<path d="M11.2787 26.9961C11.8122 26.9961 12.2447 26.5588 12.2447 26.0195C12.2447 25.4803 11.8122 25.043 11.2787 25.043H11.2781C10.7446 25.043 10.3125 25.4803 10.3125 26.0195C10.3125 26.5588 10.7452 26.9961 11.2787 26.9961Z" fill="white"/>
</svg>
