<svg width="68" height="50" viewBox="0 0 68 50" fill="none" xmlns="http://www.w3.org/2000/svg">
<path d="M62.3333 0H5.66667C2.53583 0 0 2.52825 0 5.64972V20.904C0 21.5254 0.51 22.0339 1.13333 22.0339H60.35C60.9733 22.0339 61.4833 21.5254 61.4833 20.904C61.4833 20.2825 60.9733 19.774 60.35 19.774H2.26667V12.4294H60.35C60.9733 12.4294 61.4833 11.9209 61.4833 11.2994C61.4833 10.678 60.9733 10.1695 60.35 10.1695H2.26667V5.64972C2.26667 3.78531 3.79667 2.25989 5.66667 2.25989H62.3333C64.2033 2.25989 65.7333 3.78531 65.7333 5.64972V44.3503C65.7333 46.2147 64.2033 47.7401 62.3333 47.7401H5.66667C3.79667 47.7401 2.26667 46.2147 2.26667 44.3503V27.4011C2.26667 26.7797 1.75667 26.2712 1.13333 26.2712C0.51 26.2712 0 26.7797 0 27.4011V44.3503C0 47.4718 2.53583 50 5.66667 50H62.3333C65.4642 50 68 47.4718 68 44.3503V5.64972C68 2.52825 65.4642 0 62.3333 0ZM10.3417 32.6271H19.8333C20.4567 32.6271 20.9667 32.1186 20.9667 31.4972C20.9667 30.8757 20.4567 30.3672 19.8333 30.3672H10.3417C9.71833 30.3672 9.20833 30.8757 9.20833 31.4972C9.20833 32.1186 9.71833 32.6271 10.3417 32.6271ZM10.3417 39.6893H19.8333C20.4567 39.6893 20.9667 39.1808 20.9667 38.5593C20.9667 37.9379 20.4567 37.4294 19.8333 37.4294H10.3417C9.71833 37.4294 9.20833 37.9379 9.20833 38.5593C9.20833 39.1808 9.71833 39.6893 10.3417 39.6893Z" fill="white"/>
</svg>
