<svg width="25" height="15" viewBox="0 0 25 15" fill="none" xmlns="http://www.w3.org/2000/svg">
<path d="M24.7772 13.1702C24.71 13.058 24.2943 12.1575 22.2942 10.3067C20.2003 8.36864 20.4815 8.68334 23.0036 5.33222C24.5397 3.29133 25.1538 2.04498 24.9616 1.51216C24.7787 1.00428 23.649 1.13826 23.649 1.13826L19.8924 1.16007C19.8924 1.16007 19.6143 1.12268 19.4065 1.24576C19.2049 1.36728 19.0752 1.6477 19.0752 1.6477C19.0752 1.6477 18.4798 3.22745 17.686 4.57039C16.0125 7.40427 15.3421 7.55384 15.0686 7.37779C14.4327 6.96805 14.592 5.72949 14.592 4.85082C14.592 2.10418 15.0093 0.959096 13.7779 0.663088C13.3685 0.564938 13.0685 0.499505 12.0231 0.488599C10.6824 0.474578 9.54636 0.493273 8.90413 0.806418C8.47597 1.01518 8.14626 1.481 8.34784 1.50749C8.59629 1.54021 9.15883 1.65861 9.45729 2.06367C9.84326 2.58558 9.8292 3.76026 9.8292 3.76026C9.8292 3.76026 10.0511 6.99298 9.31197 7.39493C8.80412 7.67068 8.10876 7.10827 6.61646 4.53612C5.85234 3.21966 5.27417 1.76299 5.27417 1.76299C5.27417 1.76299 5.16323 1.49191 4.96478 1.34702C4.72413 1.17098 4.38661 1.11489 4.38661 1.11489L0.814471 1.1367C0.814471 1.1367 0.278494 1.15228 0.0816048 1.38441C-0.093408 1.59162 0.0675413 2.01849 0.0675413 2.01849C0.0675413 2.01849 2.86462 8.54157 6.03048 11.8304C8.93538 14.845 12.2325 14.6471 12.2325 14.6471H13.7264C13.7264 14.6471 14.178 14.5973 14.4077 14.3496C14.6202 14.1221 14.6124 13.6952 14.6124 13.6952C14.6124 13.6952 14.5827 11.6964 15.514 11.4019C16.4312 11.1122 17.6095 13.3338 18.858 14.1891C19.8018 14.8356 20.519 14.6939 20.519 14.6939L23.8584 14.6471C23.8584 14.6471 25.6054 14.5396 24.7772 13.1702Z" fill="white"/>
</svg>
