<svg width="70" height="70" viewBox="0 0 70 70" fill="none" xmlns="http://www.w3.org/2000/svg">
<g clip-path="url(#clip0_72_523)">
<path d="M55.6006 37.674C55.5608 37.3477 55.2625 37.1148 54.9355 37.1551C54.6082 37.1951 54.3752 37.492 54.415 37.8186C54.6259 39.5397 54.5535 41.1675 54.1997 42.657C53.8905 43.96 53.5271 45.3676 53.1563 46.7463C52.325 45.3338 51.6142 43.4417 51.7949 41.2469C52.0905 37.6629 51.7249 34.7711 51.3074 32.8236H53.0589C53.258 33.2798 53.6202 34.1815 53.9334 35.3549C54.0047 35.6213 54.2399 35.8676 54.6642 35.777C54.9868 35.7082 55.1726 35.3661 55.0876 35.0484C54.6829 33.5326 54.2085 32.4545 54.0398 32.0931V30.287C54.0398 28.751 52.7864 27.5016 51.2461 27.5016H46.3761L47.5913 25.0587C47.9973 24.2429 48.0542 23.3202 47.7524 22.461C47.4504 21.6015 46.8281 20.916 46.0003 20.5311L39.4905 17.5047C38.2535 16.9297 36.8069 17.3729 36.1259 18.5354C34.9981 20.4607 32.9592 20.8648 31.4469 20.8648C29.9346 20.8648 27.8956 20.4607 26.7679 18.5354C26.0872 17.3726 24.6406 16.9291 23.4033 17.5047L19.7292 19.2129C19.4302 19.3518 19.3008 19.706 19.4402 20.0044C19.5795 20.3022 19.9351 20.4315 20.2341 20.2923L22.638 19.1747C22.9936 19.9626 23.7636 21.3264 25.1635 22.3456C25.9715 22.9337 26.2172 24.0841 25.6737 24.934C24.126 27.3546 20.2699 28.6213 20.2699 28.6213C19.3979 28.9669 18.3883 28.5807 17.9715 27.7426L16.373 24.5292C16.1114 24.0032 16.0743 23.4086 16.2691 22.8543C16.4638 22.3003 16.8649 21.8586 17.3987 21.6105L18.052 21.3068C18.351 21.1676 18.4804 20.8134 18.341 20.5153C18.2017 20.2172 17.8464 20.0882 17.5474 20.2271L16.8938 20.5311C16.0659 20.916 15.4437 21.6012 15.142 22.4607C14.8399 23.3202 14.8971 24.2426 15.3028 25.0584L16.9016 28.2721C17.5925 29.6607 19.266 30.3006 20.711 29.7287L22.0441 29.2007V37.4616C22.0441 39.193 23.4568 40.6015 25.1931 40.6015H33.4691C33.5154 41.3639 33.6224 42.1449 33.8091 42.9312C34.6836 46.6148 35.9831 51.1222 36.68 53.4811C37.0835 54.8474 38.3633 55.8015 39.7925 55.8015H41.5973C42.7972 55.8015 43.8288 54.9085 43.9965 53.7243C44.152 52.6241 44.381 50.1207 44.5857 47.6995C44.8439 50.7602 45.0418 52.7829 45.1753 53.7243C45.3429 54.9085 46.3742 55.8015 47.5745 55.8015H49.3792C50.8081 55.8015 52.088 54.8474 52.4918 53.4811C53.1883 51.1228 54.4875 46.616 55.3623 42.9312C55.7484 41.3043 55.8287 39.5354 55.6006 37.674ZM50.6043 41.1492C50.3548 44.1771 51.5852 46.6675 52.7354 48.2891C52.5982 48.7863 52.4619 49.2727 52.3297 49.741C50.9845 48.1045 49.0852 45.0385 49.4137 41.0515C49.7046 37.5236 49.3042 34.7134 48.8509 32.8233H50.0845C50.5054 34.6831 50.9011 37.5478 50.6043 41.1492ZM52.8452 30.287V31.6322H36.3259V30.287C36.3259 29.4076 37.0433 28.6924 37.925 28.6924H51.2461C52.1278 28.6924 52.8452 29.4076 52.8452 30.287ZM39.7574 41.0518C40.0859 45.0388 38.1866 48.1045 36.8417 49.741C36.7092 49.2727 36.5732 48.7863 36.4357 48.2891C37.5859 46.6675 38.8163 44.1771 38.5668 41.1492C38.2713 37.5636 38.6608 34.7063 39.087 32.8236H40.3202C39.8669 34.7134 39.4665 37.5239 39.7574 41.0518ZM46.625 22.8546C46.8197 23.4086 46.7827 24.0035 46.5211 24.5292L45.0427 27.5016H39.9686C38.7644 26.8214 37.8394 25.9582 37.2203 24.934C36.6983 24.0708 36.9226 22.934 37.7306 22.3456C39.1305 21.3264 39.9005 19.9626 40.2561 19.1747L45.4954 21.6105C46.0292 21.8586 46.4302 22.3006 46.625 22.8546ZM23.2384 37.4616V28.6886C24.7582 27.8875 25.9208 26.8329 26.697 25.5488C27.5354 24.1617 27.1711 22.3323 25.8682 21.3838C24.6785 20.5175 24.0174 19.3248 23.7225 18.6707C23.7225 18.6707 25.0061 17.9989 25.7366 19.1359C26.571 20.4349 28.1408 22.0559 31.4472 22.0559C34.7536 22.0559 36.3449 20.4486 37.1575 19.1359C37.9517 17.8534 39.1719 18.6704 39.1719 18.6704C38.8767 19.3255 38.2156 20.5178 37.0262 21.3838C35.723 22.3323 35.359 24.162 36.1971 25.5488C36.6355 26.2736 37.1995 26.9262 37.8818 27.5025C36.3614 27.5258 35.1313 28.7656 35.1313 30.287V32.0922C34.8189 32.7566 33.5064 35.7584 33.4432 39.4104H25.1931C24.1151 39.4104 23.2384 38.5363 23.2384 37.4616ZM36.1131 32.8233H37.8637C37.4419 34.7916 37.0819 37.6771 37.3762 41.2469C37.557 43.4417 36.8461 45.3338 36.0148 46.7463C35.644 45.3676 35.2806 43.9597 34.9714 42.657C33.9438 38.3291 35.5914 34.0255 36.1131 32.8233ZM51.3457 53.1445C51.0906 54.0078 50.282 54.6104 49.3789 54.6104H47.5742C46.966 54.6104 46.443 54.1579 46.3581 53.5577C46.2022 52.4591 45.9424 49.6905 45.6068 45.5515C45.5626 45.0075 45.1333 44.6129 44.5857 44.6129C44.0382 44.6129 43.6089 45.0075 43.5647 45.5515C43.229 49.6886 42.9692 52.4572 42.8134 53.5577C42.7284 54.1579 42.2055 54.6104 41.5969 54.6104H39.7922C38.8891 54.6104 38.0805 54.0078 37.8258 53.1445C37.6581 52.5775 37.4555 51.8849 37.2325 51.1101C38.6564 49.5586 41.3571 45.9163 40.948 40.9541C40.6549 37.3999 41.0926 34.6173 41.5506 32.8236H47.6205C48.0788 34.617 48.5165 37.3995 48.2234 40.9541C47.8143 45.916 50.5147 49.5586 51.939 51.1101C51.7159 51.8849 51.5131 52.5775 51.3457 53.1445Z" fill="url(#paint0_linear_72_523)"/>
</g>
<circle cx="35" cy="35" r="34.5" stroke="black" stroke-opacity="0.1"/>
<path d="M61.8116 57.4976C65.103 53.575 67.4936 48.9781 68.8148 44.0309C70.1361 39.0838 70.3557 33.907 69.4583 28.8658C68.5608 23.8245 66.5682 19.0416 63.6208 14.8543C60.6735 10.6671 56.8433 7.17756 52.4005 4.63186L51.8784 5.5429C56.188 8.01223 59.9033 11.3971 62.7622 15.4587C65.6211 19.5203 67.554 24.1598 68.4245 29.0498C69.295 33.9398 69.082 38.9613 67.8004 43.76C66.5188 48.5587 64.1999 53.0178 61.0072 56.8226L61.8116 57.4976Z" fill="url(#paint1_linear_72_523)"/>
<defs>
<linearGradient id="paint0_linear_72_523" x1="14.9507" y1="17.2537" x2="59.1176" y2="20.0041" gradientUnits="userSpaceOnUse">
<stop stop-color="#7775E7"/>
<stop offset="0.6417" stop-color="#A93CF6"/>
<stop offset="1" stop-color="#C41DFF"/>
</linearGradient>
<linearGradient id="paint1_linear_72_523" x1="0" y1="0" x2="75.8512" y2="4.46531" gradientUnits="userSpaceOnUse">
<stop stop-color="#7775E7"/>
<stop offset="0.6417" stop-color="#A93CF6"/>
<stop offset="1" stop-color="#C41DFF"/>
</linearGradient>
<clipPath id="clip0_72_523">
<rect width="40.7767" height="40.6547" fill="white" transform="translate(14.9512 16.1428)"/>
</clipPath>
</defs>
</svg>
