<svg width="66" height="28" viewBox="0 0 66 28" fill="none" xmlns="http://www.w3.org/2000/svg">
<path fill-rule="evenodd" clip-rule="evenodd" d="M46.0089 13.3907C46.0089 13.3907 43.8962 14.153 45.0975 15.1549C46.2988 16.1568 48.2925 13.1578 52.146 15.3593C52.146 15.3593 50.3365 12.0286 46.0089 13.3907Z" fill="#D507D3"/>
<path fill-rule="evenodd" clip-rule="evenodd" d="M10.2802 14.0738C10.6711 14.0368 11.0623 14.14 11.384 14.365C11.7057 14.59 11.9368 14.9221 12.0361 15.3019C12.0778 15.5096 12.0772 15.7236 12.0344 15.9311C11.9916 16.1386 11.9073 16.3353 11.7868 16.5095C11.6662 16.6837 11.5117 16.8319 11.3326 16.9451C11.1535 17.0582 10.9534 17.1342 10.7443 17.1683C9.71228 17.3727 8.80588 16.6657 8.74556 15.7375C8.68692 14.8579 9.40065 14.1408 10.2802 14.0738Z" fill="#6622CC"/>
<path fill-rule="evenodd" clip-rule="evenodd" d="M0 5.86627C0.0134034 9.31262 2.60864 11.0299 5.17539 11.0299C7.03678 11.0299 8.95347 10.2224 9.67558 8.11636C10.0207 7.13624 10.0207 6.16952 9.96375 5.16092H5.19046V7.40096H7.33836C6.87762 8.366 6.21415 8.64077 5.17539 8.64077C3.6474 8.64077 2.66225 7.54505 2.66225 5.8713C2.66225 4.32823 3.54185 3.05993 5.17539 3.05993C6.20075 3.05993 6.86254 3.40675 7.2814 4.27127H9.81966C9.32876 1.75813 7.20935 0.709314 5.17539 0.694235C2.60864 0.699262 0.0134034 2.41992 0 5.86627ZM18.0678 10.9194H20.591V10.5441L16.0338 0.699261H14.9247L10.3809 10.539V10.9194H12.9058L13.4972 9.64938H17.4847L18.0678 10.9194ZM16.647 7.4395H14.3333L15.4725 4.78562L16.647 7.4395ZM23.3487 7.82819H20.8507C20.792 12.2697 29.0117 12.1977 29.0117 7.9572C29.0117 5.43401 27.0514 5.13076 25.0476 4.91463C24.1378 4.81411 23.3889 4.65494 23.4459 3.89094C23.533 2.69469 26.2439 2.57909 26.2439 3.91943H28.695C28.7536 -0.436677 20.9076 -0.436677 20.988 3.91943C21.0165 6.11256 22.4591 6.86148 24.6505 7.02064C25.6558 7.07761 26.4935 7.23677 26.4935 7.9438C26.5035 9.12665 23.3487 9.11157 23.3487 7.82819ZM36.417 7.64054V5.33349H33.165V3.12695H36.8275V0.819892H30.5413V10.9194H33.165V7.64054H36.417ZM48.1969 5.88135C48.1969 -1.09847 37.8445 -1.09847 37.8445 5.88135C37.8445 12.8612 48.1969 12.8746 48.1969 5.88135ZM40.49 5.88135C40.49 2.24735 45.5514 2.24735 45.5514 5.88135C45.5514 9.54383 40.49 9.54383 40.49 5.88135ZM56.3244 7.33729C58.8761 5.60825 58.1557 0.834971 54.1899 0.819892H49.7635V10.9194H52.3436V7.9438H53.684L55.4147 10.9194H58.2997V10.5441L56.3244 7.33729ZM54.1899 5.65014H52.347V3.12695C52.9535 3.12695 53.5868 3.11355 54.1899 3.12695C55.661 3.14203 55.5889 5.65014 54.1899 5.65014ZM60.9821 3.12695V10.9194H63.5338V3.12695H66V0.819892H58.5008V3.12695H60.9821Z" fill="white"/>
<path fill-rule="evenodd" clip-rule="evenodd" d="M64.3967 14.7427C64.3967 14.7427 63.6026 25.8943 46.9589 22.8149C26.1836 18.9731 29.1994 15.4598 16.751 19.7355C3.06613 24.435 1.99219 16.1584 1.99219 16.1584C1.99219 16.1584 6.85092 21.0691 15.3537 17.8841C18.852 16.5739 23.3522 12.9249 28.9967 13.0153C36.7438 13.141 35.8358 20.3336 45.5834 20.4257C51.3267 20.481 57.5526 15.567 57.7352 15.5988C57.7604 15.6106 64.2711 13.8849 64.3967 14.7427Z" fill="url(#paint0_linear)"/>
<path fill-rule="evenodd" clip-rule="evenodd" d="M5.11352 22.2235C5.11352 22.2235 10.9641 26.0284 18.3795 22.4916C24.8148 19.4239 27.6899 20.1895 30.4945 20.9033C36.253 22.3676 39.8065 27.7725 47.666 25.1856C50.7789 24.1586 51.2379 19.583 51.2379 19.583C51.2379 19.583 43.9163 13.6386 36.3267 18.2678L28.2427 17.673L21.6064 18.9196C21.6064 18.9196 8.72238 23.8704 2.6741 16.264C2.43954 15.9691 1.75932 15.9289 1.56162 15.7413C0.988621 15.1817 0.754061 14.664 0.705474 14.9287C0.372064 16.7666 1.61355 20.0521 5.11352 22.2235Z" fill="url(#paint1_linear)"/>
<path fill-rule="evenodd" clip-rule="evenodd" d="M3.06447 18.9612C3.06447 18.9612 7.6501 23.1314 15.2381 20.9399C22.5547 18.8255 24.9556 17.8605 30.1728 18.6714C36.3719 19.6331 38.8097 25.7082 43.9113 25.7785C48.3478 25.8422 50.1221 24.1031 53.7595 19.9229C56.0414 17.3009 58.397 14.9737 63.5021 14.8229C65.283 14.7693 64.3146 14.332 62.0444 14.2231C59.3353 14.0941 54.5503 14.5013 50.2545 18.0766C42.695 24.3645 38.1914 12.4522 20.948 18.1386C9.66564 21.8597 5.64295 18.7736 1.31533 15.1228C0.204519 14.1879 0.991967 15.9321 0.991967 15.9321C0.991967 15.9321 1.98549 18.0196 3.06447 18.9612Z" fill="url(#paint2_linear)"/>
<path fill-rule="evenodd" clip-rule="evenodd" d="M57.8207 23.681C58.2528 23.6644 58.6755 23.8098 59.0059 24.0888C59.3363 24.3677 59.5506 24.7601 59.6067 25.1888C59.6586 25.6133 59.5552 26.0421 59.3157 26.3963C59.0761 26.7504 58.7165 27.0059 58.3032 27.1156C58.0849 27.1738 57.8573 27.1884 57.6334 27.1586C57.4095 27.1288 57.1937 27.0551 56.9982 26.9419C56.8028 26.8286 56.6316 26.6779 56.4945 26.4984C56.3573 26.319 56.2569 26.1142 56.1989 25.8959C56.1821 25.8324 56.1687 25.7681 56.1587 25.7032C56.0863 25.2453 56.1986 24.7775 56.471 24.4024C56.7434 24.0273 57.1535 23.7756 57.6113 23.7027C57.6805 23.6905 57.7504 23.6832 57.8207 23.681Z" fill="#FADD2E"/>
<path fill-rule="evenodd" clip-rule="evenodd" d="M21.8176 23.0521C21.8176 23.0521 19.8439 24.9454 21.9952 25.5016C24.329 26.1064 25.6074 22.0536 32.4682 25.3341C32.4682 25.3274 26.5037 19.2489 21.8176 23.0521Z" fill="#781ECD"/>
<defs>
<linearGradient id="paint0_linear" x1="32.2973" y1="12.7607" x2="35.6565" y2="23.098" gradientUnits="userSpaceOnUse">
<stop stop-color="#F9C540"/>
<stop offset="1" stop-color="#FAE925"/>
</linearGradient>
<linearGradient id="paint1_linear" x1="28.5175" y1="14.2016" x2="21.3618" y2="25.2208" gradientUnits="userSpaceOnUse">
<stop stop-color="#811CCE"/>
<stop offset="0.68" stop-color="#F500D5"/>
<stop offset="1" stop-color="#F500D5"/>
</linearGradient>
<linearGradient id="paint2_linear" x1="64.4235" y1="20.1977" x2="0.747356" y2="19.0869" gradientUnits="userSpaceOnUse">
<stop stop-color="#5409EA"/>
<stop offset="0.49" stop-color="#FD00F7"/>
<stop offset="1" stop-color="#FD00F7"/>
</linearGradient>
</defs>
</svg>
