<svg width="18" height="19" viewBox="0 0 18 19" fill="none" xmlns="http://www.w3.org/2000/svg">
<path d="M15.3633 0.758026H2.63672C1.18295 0.758026 0 1.93745 0 3.38687V16.0754C0 17.5248 1.18295 18.7043 2.63672 18.7043H15.3633C16.817 18.7043 18 17.5248 18 16.0754V3.38687C18 1.93745 16.817 0.758026 15.3633 0.758026ZM9.03516 14.428C6.41808 14.428 4.28906 12.3054 4.28906 9.69609C4.28906 7.08683 6.41808 4.96417 9.03516 4.96417C11.6522 4.96417 13.7812 7.08683 13.7812 9.69609C13.7812 12.3054 11.6522 14.428 9.03516 14.428ZM14.3086 6.01571C13.4363 6.01571 12.7266 5.30811 12.7266 4.43841C12.7266 3.5687 13.4363 2.8611 14.3086 2.8611C15.1809 2.8611 15.8906 3.5687 15.8906 4.43841C15.8906 5.30811 15.1809 6.01571 14.3086 6.01571Z" fill="#9D8AE6"/>
<path d="M14.3086 3.91241C14.0176 3.91241 13.7812 4.14805 13.7812 4.43818C13.7812 4.72831 14.0176 4.96395 14.3086 4.96395C14.5996 4.96395 14.8359 4.72831 14.8359 4.43818C14.8359 4.14805 14.5996 3.91241 14.3086 3.91241Z" fill="#9D8AE6"/>
<path d="M9.03516 6.0155C6.99994 6.0155 5.34375 7.66674 5.34375 9.69588C5.34375 11.725 6.99994 13.3763 9.03516 13.3763C11.0704 13.3763 12.7266 11.725 12.7266 9.69588C12.7266 7.66674 11.0704 6.0155 9.03516 6.0155Z" fill="#9D8AE6"/>
</svg>
