<svg width="354" height="83" viewBox="0 0 354 83" fill="none" xmlns="http://www.w3.org/2000/svg">
<path d="M88.6245 62.0815V7.75891H120.732V14.5695H95.273V31.2717H118.137V38.0823H95.273V55.1088H122.515V61.9194H88.6245V62.0815Z" fill="#E43225"/>
<path d="M156.244 62.0812L145.218 47.6492L134.191 62.0812H126.407L141.488 42.7845L125.597 22.8392H134.353L145.218 37.7577L156.244 22.8392H164.839L149.758 42.7845L164.028 62.0812H156.244Z" fill="#E43225"/>
<path d="M174.73 56.2439V82.9998H168.081V42.947C168.081 32.7311 175.865 21.8666 188.027 21.8666C200.351 21.8666 209.594 29.6501 209.594 42.4605C209.594 54.9466 200.189 63.5409 189.486 63.5409C184.297 63.5409 177.324 61.2707 174.73 56.2439ZM202.621 42.4605C202.621 33.704 196.945 28.515 186.892 29.0015C182.027 29.1636 174.568 32.7311 175.216 45.2172C175.378 49.2711 179.595 56.8925 188.837 56.8925C196.783 56.8925 202.621 52.3521 202.621 42.4605Z" fill="#E43225"/>
<path d="M215.269 62.0817V22.8397H221.917V27.0558C225.16 23.3262 230.187 22.0289 235.538 22.0289V29.1638C234.728 29.0017 226.782 28.0287 221.917 38.4068V62.2439H215.269V62.0817Z" fill="#E43225"/>
<path d="M237.322 42.4605C237.322 31.1095 245.43 21.8666 256.619 21.8666C270.564 21.8666 275.753 31.1095 275.753 42.947V46.1901H244.619C245.106 53.6494 251.754 57.5411 257.916 57.379C262.456 57.2168 265.537 55.9196 268.781 52.6764L273.159 57.2168C269.105 61.1086 263.916 63.7031 257.592 63.7031C245.754 63.5409 237.322 54.7845 237.322 42.4605ZM256.132 28.515C249.808 28.515 244.944 34.0283 244.619 40.0282H268.781C268.781 34.1905 264.564 28.515 256.132 28.515Z" fill="#E43225"/>
<path d="M279.159 56.568L284.024 52.1898C283.861 52.1898 286.456 54.7843 286.78 54.9464C287.915 55.9194 289.051 56.568 290.51 56.8923C294.726 58.0274 302.347 57.7031 302.996 51.8655C303.32 48.6223 300.888 46.8386 298.131 45.7035C294.564 44.4062 290.672 43.9198 287.105 42.2982C283.051 40.5145 280.456 37.4335 280.456 32.8931C280.456 21.0556 297.321 19.1097 304.942 24.6231C305.266 24.9474 308.996 28.3527 308.834 28.3527L303.969 32.2445C301.537 29.3256 299.266 27.8662 294.077 27.8662C291.483 27.8662 287.915 29.0013 287.267 31.758C286.294 35.6498 290.672 37.1092 293.591 37.92C297.483 38.8929 301.699 39.5415 305.104 41.6496C309.807 44.5684 310.942 50.8925 309.158 55.7572C307.212 61.1084 301.374 63.2165 296.185 63.3786C290.023 63.7029 284.672 61.757 280.294 57.3788C279.97 57.3788 279.159 56.568 279.159 56.568Z" fill="#E43225"/>
<path d="M313.374 56.568L318.239 52.1898C318.077 52.1898 320.671 54.7843 320.995 54.9464C322.131 55.9194 323.266 56.568 324.725 56.8923C328.941 58.0274 336.563 57.7031 337.211 51.8655C337.535 48.6223 335.103 46.8386 332.346 45.7035C328.779 44.4062 324.887 43.9198 321.32 42.2982C317.266 40.5145 314.671 37.4335 314.671 32.8931C314.671 21.0556 331.536 19.1097 339.157 24.6231C339.481 24.9474 343.211 28.3527 343.049 28.3527L338.184 32.2445C335.752 29.3256 333.482 27.8662 328.293 27.8662C325.698 27.8662 322.131 29.0013 321.482 31.758C320.509 35.6498 324.887 37.1092 327.806 37.92C331.698 38.8929 335.914 39.5415 339.319 41.6496C344.022 44.5684 345.157 50.8925 343.373 55.7572C341.427 61.1084 335.59 63.2165 330.401 63.3786C324.239 63.7029 318.887 61.757 314.509 57.3788C314.185 57.3788 313.374 56.568 313.374 56.568Z" fill="#E43225"/>
<path d="M344.995 22.8393V18.6232H343.535V17.8124H347.427V18.6232H345.968V22.8393H344.995Z" fill="#E43225"/>
<path d="M352.292 22.8392V18.9474L350.832 22.8392H350.508L349.049 18.9474V22.8392H348.238V17.8123H349.535L350.832 21.2176L352.129 17.8123H353.427V22.8392H352.292Z" fill="#E43225"/>
<path d="M43.5447 62.0815L38.68 49.109H12.4106L7.54588 62.0815H0.57312L21.6535 7.75891H29.2749L50.1932 62.0815H43.5447ZM25.221 15.5425L15.3294 42.4605H35.9234L25.221 15.5425Z" fill="#F7971D"/>
<path d="M54.5714 62.0815V7.75891H61.382V62.0815H54.5714Z" fill="#F7971D"/>
<path d="M71.5981 62.0821V23.6509H78.4087V62.0821H71.5981Z" fill="#F7971D"/>
<path d="M84.8947 11.1644C84.8947 11.0023 84.8947 11.0023 84.8947 10.8401C84.8947 10.678 84.8947 10.678 84.8947 10.5158C79.7057 10.3536 75.4896 6.13757 75.3274 0.948547C75.1653 0.948547 75.0031 0.948547 74.841 0.948547C74.6788 0.948547 74.5166 0.948547 74.3545 0.948547C74.1923 6.13757 69.9763 10.3536 64.7872 10.5158C64.7872 10.678 64.7872 10.678 64.7872 10.8401C64.7872 11.0023 64.7872 11.0023 64.7872 11.1644C69.9763 11.3266 74.1923 15.5427 74.3545 20.7317C74.5166 20.7317 74.6788 20.7317 74.841 20.7317C75.0031 20.7317 75.1653 20.7317 75.3274 20.7317C75.4896 15.5427 79.7057 11.3266 84.8947 11.1644Z" fill="#F7971D"/>
</svg>
