<svg width="232" height="185" viewBox="0 0 232 185" fill="none" xmlns="http://www.w3.org/2000/svg">
<path opacity="0.1" fill-rule="evenodd" clip-rule="evenodd" d="M0 10C0 4.47715 4.47715 0 10 0H222C227.523 0 232 4.47715 232 10V43C232 48.5228 227.523 53 222 53H218C212.477 53 208 57.4772 208 63V70V87V109C208 114.523 203.523 119 198 119H165.5C160.806 119 157 122.806 157 127.5C157 132.194 160.806 136 165.5 136H191C196.523 136 201 140.477 201 146V175C201 180.523 196.523 185 191 185H10C4.47715 185 0 180.523 0 175V153V136V119V103V87V70V53V37V10Z" fill="#EBEBEB"/>
</svg>
