<svg width="674" height="550" viewBox="0 0 674 550" fill="none" xmlns="http://www.w3.org/2000/svg">
<path opacity="0.1" d="M0.333333 531C0.333333 541.309 8.69068 549.667 19 549.667C29.3093 549.667 37.6667 541.309 37.6667 531C37.6667 520.691 29.3093 512.333 19 512.333C8.69068 512.333 0.333333 520.691 0.333333 531ZM347.245 185.777L347.843 189.225L347.245 185.777ZM636.333 19C636.333 29.3093 644.691 37.6667 655 37.6667C665.309 37.6667 673.667 29.3093 673.667 19C673.667 8.69068 665.309 0.333333 655 0.333333C644.691 0.333333 636.333 8.69068 636.333 19ZM24.8506 515.959C25.1942 514.057 23.9307 512.236 22.0285 511.893C20.1263 511.549 18.3057 512.813 17.9621 514.715L24.8506 515.959ZM25.0995 483.368C24.5917 485.233 25.6921 487.157 27.5572 487.665C29.4223 488.172 31.3459 487.072 31.8536 485.207L25.0995 483.368ZM41.3185 455.016C41.9643 453.194 41.0108 451.193 39.1889 450.547C37.367 449.902 35.3665 450.855 34.7207 452.677L41.3185 455.016ZM46.4884 422.871C45.7159 424.643 46.5261 426.706 48.298 427.478C50.07 428.251 52.1326 427.441 52.9051 425.669L46.4884 422.871ZM66.5361 397.166C67.4307 395.452 66.7668 393.338 65.0533 392.444C63.3398 391.549 61.2255 392.213 60.3309 393.926L66.5361 397.166ZM76.1871 366.021C75.1724 367.667 75.6836 369.823 77.3289 370.838C78.9742 371.852 81.1305 371.341 82.1452 369.696L76.1871 366.021ZM99.6998 343.44C100.833 341.875 100.483 339.686 98.9168 338.553C97.351 337.42 95.1628 337.77 94.0294 339.336L99.6998 343.44ZM113.835 314.065C112.585 315.539 112.766 317.748 114.24 318.998C115.714 320.249 117.923 320.068 119.173 318.593L113.835 314.065ZM140.526 295.359C141.891 293.99 141.886 291.774 140.517 290.41C139.147 289.045 136.931 289.05 135.567 290.419L140.526 295.359ZM159.159 268.611C157.686 269.863 157.507 272.072 158.759 273.545C160.011 275.017 162.22 275.196 163.693 273.944L159.159 268.611ZM188.575 254.543C190.148 253.42 190.514 251.234 189.391 249.661C188.268 248.087 186.082 247.722 184.509 248.845L188.575 254.543ZM211.446 231.314C209.782 232.298 209.231 234.444 210.215 236.108C211.199 237.772 213.346 238.323 215.01 237.339L211.446 231.314ZM242.787 222.473C244.529 221.634 245.261 219.542 244.422 217.801C243.583 216.059 241.491 215.328 239.75 216.167L242.787 222.473ZM269.265 203.446C267.46 204.136 266.556 206.16 267.247 207.965C267.937 209.771 269.961 210.674 271.766 209.984L269.265 203.446ZM301.665 199.915C303.52 199.372 304.583 197.427 304.04 195.572C303.497 193.717 301.552 192.654 299.697 193.197L301.665 199.915ZM330.82 185.373C328.928 185.773 327.72 187.63 328.12 189.521C328.52 191.412 330.377 192.621 332.268 192.221L330.82 185.373ZM362.965 186.494C364.864 186.137 366.115 184.307 365.758 182.408C365.401 180.508 363.572 179.257 361.672 179.614L362.965 186.494ZM391.37 173.579C389.482 173.993 388.287 175.859 388.701 177.748C389.115 179.636 390.981 180.831 392.869 180.417L391.37 173.579ZM422.644 173.373C424.517 172.896 425.648 170.991 425.171 169.117C424.694 167.244 422.788 166.113 420.915 166.59L422.644 173.373ZM450.15 158.556C448.297 159.104 447.239 161.052 447.787 162.905C448.336 164.759 450.283 165.817 452.137 165.268L450.15 158.556ZM481.247 155.975C483.075 155.346 484.047 153.354 483.418 151.526C482.789 149.698 480.797 148.727 478.969 149.355L481.247 155.975ZM507.324 138.809C505.53 139.53 504.66 141.568 505.381 143.362C506.102 145.155 508.141 146.025 509.934 145.304L507.324 138.809ZM538.059 133.035C539.806 132.208 540.552 130.121 539.724 128.374C538.897 126.627 536.81 125.881 535.063 126.708L538.059 133.035ZM561.889 112.833C560.206 113.785 559.614 115.921 560.566 117.603C561.518 119.285 563.653 119.878 565.336 118.926L561.889 112.833ZM591.414 102.638C593.004 101.538 593.401 99.3579 592.301 97.7683C591.201 96.1786 589.021 95.7816 587.431 96.8814L591.414 102.638ZM611.127 78.4453C609.677 79.7243 609.539 81.936 610.818 83.3855C612.097 84.8349 614.309 84.9731 615.758 83.6942L611.127 78.4453ZM637.336 61.4603C638.555 59.9601 638.327 57.7558 636.827 56.5368C635.327 55.3178 633.122 55.5457 631.903 57.0459L637.336 61.4603ZM647.504 32.1391C646.742 33.9154 647.564 35.9734 649.34 36.7359C651.116 37.4984 653.174 36.6765 653.937 34.9003L647.504 32.1391ZM22.473 531.434C23.0837 526.543 23.8727 521.373 24.8506 515.959L17.9621 514.715C16.9628 520.247 16.1543 525.543 15.527 530.566L22.473 531.434ZM31.8536 485.207C34.4859 475.538 37.6276 465.429 41.3185 455.016L34.7207 452.677C30.9713 463.255 27.7775 473.531 25.0995 483.368L31.8536 485.207ZM52.9051 425.669C57.0023 416.27 61.5375 406.74 66.5361 397.166L60.3309 393.926C55.2543 403.65 50.6489 413.328 46.4884 422.871L52.9051 425.669ZM82.1452 369.696C87.5781 360.886 93.4231 352.112 99.6998 343.44L94.0294 339.336C87.6479 348.152 81.7073 357.07 76.1871 366.021L82.1452 369.696ZM119.173 318.593C125.886 310.679 132.999 302.916 140.526 295.359L135.567 290.419C127.903 298.112 120.665 306.014 113.835 314.065L119.173 318.593ZM163.693 273.944C171.595 267.227 179.885 260.743 188.575 254.543L184.509 248.845C175.654 255.163 167.209 261.768 159.159 268.611L163.693 273.944ZM215.01 237.339C223.9 232.082 233.155 227.113 242.787 222.473L239.75 216.167C229.936 220.894 220.505 225.956 211.446 231.314L215.01 237.339ZM271.766 209.984C281.393 206.301 291.356 202.934 301.665 199.915L299.697 193.197C289.209 196.269 279.068 199.696 269.265 203.446L271.766 209.984ZM332.268 192.221C337.382 191.139 342.574 190.14 347.843 189.225L346.646 182.328C341.293 183.257 336.018 184.273 330.82 185.373L332.268 192.221ZM347.843 189.225C352.962 188.337 358.002 187.426 362.965 186.494L361.672 179.614C356.741 180.541 351.733 181.446 346.646 182.328L347.843 189.225ZM392.869 180.417C403.159 178.162 413.08 175.81 422.644 173.373L420.915 166.59C411.43 169.007 401.585 171.341 391.37 173.579L392.869 180.417ZM452.137 165.268C462.292 162.263 471.99 159.16 481.247 155.975L478.969 149.355C469.812 152.506 460.211 155.579 450.15 158.556L452.137 165.268ZM509.934 145.304C519.904 141.296 529.27 137.197 538.059 133.035L535.063 126.708C526.405 130.809 517.169 134.852 507.324 138.809L509.934 145.304ZM565.336 118.926C574.875 113.529 583.548 108.08 591.414 102.638L587.431 96.8814C579.747 102.198 571.254 107.535 561.889 112.833L565.336 118.926ZM615.758 83.6942C624.382 76.0851 631.519 68.619 637.336 61.4603L631.903 57.0459C626.35 63.8803 619.485 71.07 611.127 78.4453L615.758 83.6942ZM653.937 34.9003C656.334 29.3151 657.814 24.1306 658.466 19.4864L651.534 18.5136C650.983 22.4401 649.701 27.0221 647.504 32.1391L653.937 34.9003Z" fill="#020C1E"/>
</svg>
