<svg width="372" height="81" viewBox="0 0 372 81" fill="none" xmlns="http://www.w3.org/2000/svg">
<path d="M43.8682 61.9512C53.4724 60.7299 61.2267 52.9748 62.4488 43.3705C64.239 29.2815 52.3361 17.3779 38.2464 19.1688C28.6421 20.3894 20.887 28.1445 19.6665 37.7487C17.8747 51.8385 29.7792 63.7422 43.8682 61.9512ZM45.1837 0.324041C64.1096 2.19849 79.4184 17.5073 81.2929 36.4348C83.8258 62.0101 62.5078 83.3282 36.9309 80.7952C18.0049 78.9208 2.69613 63.6128 0.822444 44.686C-1.71205 19.1099 19.6068 -2.20815 45.1837 0.324041ZM102.992 1.92437H162.192C164.439 1.92437 165.717 4.49714 164.359 6.28736L123.404 60.3195H155.493C161.341 60.3195 165.947 65.6411 164.733 71.7055C163.842 76.152 159.673 79.1895 155.138 79.1895H90.8466C88.6199 79.1895 87.3542 76.6413 88.6988 74.8671L129.685 20.7944H103.348C98.8122 20.7944 94.643 17.7577 93.7524 13.3104C92.538 7.24603 97.1438 1.92437 102.992 1.92437ZM359.897 2.13953C366.003 0.853911 371.382 5.47801 371.382 11.3586V76.4682C371.382 78.7401 368.759 80.0073 366.979 78.5953L315.911 38.0818V69.7713C315.911 75.652 310.532 80.2753 304.425 78.9904C300.045 78.0693 297.041 73.9934 297.041 69.5202V4.64569C297.041 2.37384 299.664 1.10583 301.444 2.51779L352.513 43.0329L352.512 11.6098C352.512 7.13577 355.519 3.06068 359.897 2.13953ZM226.93 0.119598C258.193 0.119598 283.54 18.2209 283.54 40.5489C283.54 62.8769 258.194 80.9782 226.93 80.9782C195.664 80.9782 170.319 62.8769 170.319 40.5489C170.319 18.2209 195.663 0.119598 226.93 0.119598ZM226.93 18.9897C205.329 18.9897 189.189 30.3719 189.189 40.5489C189.189 50.7259 205.329 62.1081 226.93 62.1081C248.529 62.1081 264.669 50.7259 264.669 40.5489C264.669 30.3727 248.529 18.9897 226.93 18.9897Z" fill="#005BFF"/>
</svg>
