<svg width="300" height="106" viewBox="0 0 300 106" fill="none" xmlns="http://www.w3.org/2000/svg">
<path d="M139.645 29.649L143.147 30.7244C142.69 32.7214 141.777 34.104 140.558 35.0259C139.34 35.9475 137.817 36.4084 135.837 36.4084C133.553 36.4084 131.574 35.6403 130.051 33.9505C128.528 32.4142 127.766 30.1099 127.766 27.3447C127.766 24.4259 128.528 22.1214 130.051 20.4316C131.574 18.7418 133.553 17.9736 135.99 17.9736C138.122 17.9736 139.949 18.5881 141.167 19.9708C141.929 20.7388 142.538 21.8142 142.995 23.1968L139.492 24.1186C139.34 23.1968 138.883 22.4286 138.122 21.9679C137.36 21.507 136.599 21.1997 135.685 21.1997C134.315 21.1997 133.401 21.6607 132.487 22.5823C131.726 23.5042 131.269 25.0403 131.269 27.191C131.269 29.4955 131.726 31.0316 132.487 31.9534C133.249 32.8751 134.315 33.336 135.533 33.336C136.447 33.336 137.36 33.0288 137.97 32.4142C138.883 31.7997 139.34 30.8781 139.645 29.649ZM151.066 36.101V21.3533H145.888V18.2809H159.898V21.3533H154.721V36.101H151.066ZM163.553 36.101V18.4344H169.188C171.32 18.4344 172.69 18.5879 173.452 18.7416C174.518 19.0488 175.279 19.5097 176.04 20.4314C176.802 21.3531 177.106 22.4285 177.106 23.8111C177.106 24.8864 176.954 25.8083 176.497 26.5764C176.041 27.3444 175.584 27.959 174.975 28.2662C174.365 28.7272 173.756 29.0344 173.147 29.0344C172.233 29.1879 171.015 29.3416 169.492 29.3416H167.208V36.101H163.553ZM167.208 21.3531V26.4227H169.188C170.558 26.4227 171.472 26.2692 171.929 26.1155C172.386 25.9618 172.843 25.6546 172.995 25.1938C173.299 24.7329 173.452 24.272 173.452 23.8111C173.452 23.1966 173.299 22.5822 172.843 22.2749C172.538 21.814 171.929 21.6605 171.472 21.5068C171.015 21.3531 170.254 21.3531 168.883 21.3531H167.208ZM195.228 36.101H191.421L189.898 32.1068H182.74L181.218 36.101H177.411L184.263 18.4344H188.072L195.228 36.101ZM188.68 29.0344L186.243 22.4285L183.806 29.0344H188.68ZM196.75 36.101L202.69 26.8836L197.208 18.4344H201.319L204.822 24.1185L208.325 18.4344H212.437L206.954 27.0372L212.894 36.101H208.629L204.67 29.956L200.71 36.101H196.75ZM215.178 27.3447C215.178 25.5012 215.483 23.9649 215.938 22.736C216.395 21.8142 216.852 21.0462 217.615 20.2781C218.375 19.5099 219.138 19.049 219.898 18.7418C220.964 18.2809 222.183 17.9736 223.706 17.9736C226.295 17.9736 228.427 18.7418 229.95 20.4316C231.473 22.1214 232.233 24.2722 232.233 27.191C232.233 30.1099 231.473 32.2607 229.95 33.9505C228.427 35.6403 226.295 36.4084 223.706 36.4084C221.118 36.4084 218.984 35.6403 217.461 33.9505C215.938 32.4142 215.178 30.2634 215.178 27.3447ZM218.832 27.191C218.832 29.1883 219.289 30.7244 220.203 31.7997C221.116 32.8751 222.335 33.336 223.706 33.336C225.076 33.336 226.295 32.8751 227.208 31.7997C228.122 30.7244 228.579 29.1883 228.579 27.191C228.579 25.194 228.122 23.6577 227.208 22.5823C226.295 21.507 225.076 21.0462 223.706 21.0462C222.183 21.0462 221.116 21.507 220.203 22.5823C219.289 23.6577 218.832 25.194 218.832 27.191ZM236.497 18.4344H243.503C244.872 18.4344 245.94 18.4344 246.549 18.5879C247.158 18.7416 247.918 18.8951 248.375 19.356C248.832 19.817 249.289 20.2779 249.746 20.8923C250.203 21.5068 250.355 22.2749 250.355 23.0431C250.355 23.8111 250.203 24.5792 249.746 25.3473C249.289 26.1155 248.68 26.5764 247.918 26.8836C248.984 27.1909 249.746 27.8053 250.355 28.4198C250.964 29.1879 251.269 30.1097 251.269 31.0314C251.269 31.7996 251.118 32.5677 250.66 33.3359C250.203 34.1038 249.746 34.7185 249.138 35.1792C248.529 35.6401 247.766 35.9473 246.7 35.9473C246.092 35.9473 244.72 36.101 242.437 36.101H236.497V18.4344ZM240 21.3531V25.501H242.283C243.655 25.501 244.569 25.501 244.872 25.501C245.483 25.501 245.94 25.1938 246.243 24.8866C246.549 24.5792 246.7 24.1185 246.7 23.5038C246.7 22.8894 246.549 22.5822 246.243 22.1212C245.94 21.814 245.483 21.5068 244.872 21.5068C244.569 21.5068 243.503 21.5068 241.828 21.5068H240V21.3531ZM240 28.4198V33.1822H243.351C244.569 33.1822 245.483 33.1822 245.786 33.0285C246.243 32.8749 246.7 32.7212 247.006 32.2605C247.309 31.7996 247.461 31.3386 247.461 30.7242C247.461 30.2633 247.309 29.8025 247.006 29.3416C246.7 28.8807 246.395 28.7272 245.94 28.5735C245.483 28.4198 244.417 28.2662 242.74 28.2662H240V28.4198ZM270.457 36.101H266.497L264.974 32.1068H257.97L256.447 36.101H252.792L259.645 18.4344H263.451L270.457 36.101ZM263.908 29.0344L261.473 22.4285L259.036 29.0344H263.908ZM284.315 36.1012V28.7273H283.553C282.487 28.7273 281.573 28.8809 281.118 29.1881C280.66 29.4953 279.898 30.5707 278.832 32.2607L276.243 36.1012H271.98L274.112 32.5679C275.026 31.1853 275.635 30.2634 276.092 29.649C276.549 29.0346 277.158 28.5736 277.918 28.1127C276.243 27.8055 275.026 27.3447 274.417 26.4229C273.655 25.5012 273.351 24.4259 273.351 23.1968C273.351 22.1214 273.655 21.1997 274.112 20.2781C274.72 19.5099 275.329 18.8953 276.243 18.5881C277.158 18.2809 278.375 18.1272 280.203 18.1272H287.665V35.7938H284.315V36.1012ZM284.315 21.3533H281.573C280.203 21.3533 279.289 21.3533 278.832 21.507C278.375 21.507 278.072 21.8142 277.615 22.1214C277.158 22.4286 277.158 23.0433 277.158 23.504C277.158 24.1185 277.309 24.5794 277.615 25.0403C277.918 25.3475 278.375 25.6547 278.832 25.6547C279.289 25.6547 280.203 25.8084 281.726 25.8084H284.315V21.3533ZM128.528 72.049H132.03V79.5766C132.792 79.4229 133.401 79.2694 133.705 78.9621C134.01 78.6547 134.467 77.7331 135.076 76.197C135.837 74.3534 136.599 73.1244 137.36 72.6634C138.122 72.2027 139.34 71.8955 140.863 71.8955C141.015 71.8955 141.167 71.8955 141.32 71.8955V74.507H140.863C140.101 74.507 139.645 74.6607 139.34 74.8144C139.035 74.9679 138.731 75.2751 138.579 75.5823C138.426 75.8896 138.122 76.6577 137.665 77.8868C137.513 78.5012 137.208 78.9621 136.903 79.4229C136.599 79.8838 136.142 80.191 135.533 80.652C136.294 80.8055 136.903 81.2664 137.513 82.0346C137.969 82.649 138.579 83.7244 139.188 84.9534L141.624 89.8694H137.513L135.381 85.2607C135.381 85.2607 135.228 85.107 135.228 84.9534C135.228 84.9534 135.076 84.646 134.772 84.1853C134.315 83.2634 134.01 82.8027 133.705 82.4955C133.401 82.3418 132.944 82.1883 132.335 82.1883V90.0229H128.832V72.049H128.528ZM145.736 81.1129C145.736 79.2694 146.04 77.7331 146.497 76.5042C146.954 75.5823 147.411 74.8144 148.173 74.0462C148.934 73.2781 149.695 72.8171 150.457 72.5099C151.523 72.0492 152.741 71.7418 154.264 71.7418C156.853 71.7418 158.985 72.5099 160.507 74.1997C162.03 75.8896 162.792 78.0405 162.792 80.9592C162.792 83.8781 162.03 86.0288 160.507 87.7186C158.985 89.4084 156.853 90.1766 154.264 90.1766C151.675 90.1766 149.543 89.4084 148.02 87.7186C146.497 86.0288 145.736 83.8781 145.736 81.1129ZM149.391 80.9592C149.391 82.9564 149.848 84.4925 150.761 85.5679C151.675 86.6433 152.893 87.1042 154.264 87.1042C155.634 87.1042 156.853 86.6433 157.766 85.5679C158.68 84.4925 159.137 82.9564 159.137 80.9592C159.137 78.9621 158.68 77.4258 157.766 76.3505C156.853 75.2751 155.634 74.8144 154.264 74.8144C152.893 74.8144 151.675 75.2751 150.761 76.3505C149.848 77.4258 149.391 78.9621 149.391 80.9592ZM168.579 89.8695V72.2029H173.908L177.106 84.3392L180.305 72.2029H185.635V89.8695H182.283V75.8899L178.782 89.8695H175.431L171.929 75.8899V89.8695H168.579ZM192.183 72.049H206.193V89.7157H202.539V74.9677H195.685V89.7157H192.183V72.049ZM228.73 89.8695H224.924L223.401 85.8753H216.243L214.72 89.8695H210.914L217.766 72.2029H221.573L228.73 89.8695ZM222.183 82.8029L219.746 76.1971L217.309 82.8029H222.183ZM233.605 89.8695V72.2029H237.106V79.116H244.112V72.2029H247.615V89.8695H244.112V82.1884H237.106V89.8695H233.605ZM254.467 72.049H257.816V83.8779L264.974 72.049H268.477V89.7157H265.128V78.1938L257.97 89.7157H254.467V72.049ZM285.533 89.8694V82.4955H284.772C283.705 82.4955 282.792 82.649 282.335 82.9562C281.878 83.2635 281.116 84.3388 280.05 86.0288L277.461 89.8694H273.198L275.329 86.336C276.243 84.9534 276.852 84.0316 277.309 83.4171C277.766 82.8027 278.375 82.3418 279.138 81.8809C277.461 81.5736 276.243 81.1129 275.635 80.191C274.872 79.2694 274.569 78.194 274.569 76.9649C274.569 75.8896 274.872 74.9679 275.329 74.0462C275.938 73.2781 276.549 72.6636 277.461 72.3562C278.375 72.049 279.595 71.8955 281.421 71.8955H288.884V89.5621H285.533V89.8694ZM285.533 75.1214H282.792C281.421 75.1214 280.507 75.1216 280.05 75.2751C279.595 75.2751 279.289 75.5823 278.832 75.8896C278.375 76.1968 278.375 76.8114 278.375 77.2721C278.375 77.8868 278.527 78.3475 278.832 78.8084C279.138 79.1157 279.595 79.4229 280.05 79.4229C280.507 79.4229 281.421 79.5766 282.944 79.5766H285.533V75.1214Z" fill="#345352"/>
<path d="M105.228 0.614258H98.8325V105.692H105.228V0.614258Z" fill="url(#paint0_linear_124_138)"/>
<path d="M88.7816 0.307129H82.3857V105.385H88.7816V0.307129Z" fill="url(#paint1_linear_124_138)"/>
<path d="M72.1827 0.307129H65.7869V105.385H72.1827V0.307129Z" fill="url(#paint2_linear_124_138)"/>
<path d="M56.802 0.307129H50.406V105.385H56.802V0.307129Z" fill="url(#paint3_linear_124_138)"/>
<path d="M40.2029 0.307129H33.8069V105.385H40.2029V0.307129Z" fill="url(#paint4_linear_124_138)"/>
<path d="M24.0608 0.307129H17.6648V105.385H24.0608V0.307129Z" fill="url(#paint5_linear_124_138)"/>
<path d="M7.46185 0.614258H1.06592V105.692H7.46185V0.614258Z" fill="url(#paint6_linear_124_138)"/>
<path d="M17.0558 46.0869V62.6782H11.7259V50.6956H6.54822V62.6782H1.21826V46.0869H17.0558ZM35.7868 62.8319H30.4569L36.396 46.0869H41.8782L47.8172 62.6782H42.4872L41.8782 60.5275H36.396L35.7868 62.8319ZM40.8122 57.1478L39.1371 51.0028L37.4619 57.1478H40.8122ZM66.0914 62.8319H60.7615V46.0869H68.6802C70.9645 46.0869 72.7918 46.5478 74.0102 47.4695C75.2283 48.5449 75.6852 49.7739 75.6852 51.6175C75.6852 53.4608 75.2283 54.8434 74.1625 55.7652C72.9441 56.9941 71.2691 57.3014 68.8325 57.3014H66.0914V62.8319ZM66.0914 53.6145H68.3756C69.1371 53.6145 69.5938 53.4608 69.8984 53.1536C70.3553 52.8464 70.5076 52.3854 70.5076 51.771C70.5076 51.0028 70.203 50.5419 69.4417 50.3884C68.9848 50.0812 68.3756 50.0812 67.6142 50.0812H66.0914V53.6145ZM94.4162 54.9971L100.051 46.2406H105.076V62.8319H99.8984V54.0754L94.2639 62.8319H89.0862V46.0869H94.2639L94.4162 54.9971Z" fill="#345352"/>
<defs>
<linearGradient id="paint0_linear_124_138" x1="102.03" y1="0.614866" x2="102.03" y2="105.693" gradientUnits="userSpaceOnUse">
<stop stop-color="#345352"/>
<stop offset="0.184" stop-color="#345352"/>
<stop offset="0.373" stop-color="white"/>
<stop offset="0.67" stop-color="white"/>
<stop offset="0.8" stop-color="#345352"/>
<stop offset="1" stop-color="#345352"/>
</linearGradient>
<linearGradient id="paint1_linear_124_138" x1="85.5846" y1="0.307433" x2="85.5846" y2="105.385" gradientUnits="userSpaceOnUse">
<stop stop-color="#345352"/>
<stop offset="0.184" stop-color="#345352"/>
<stop offset="0.373" stop-color="white"/>
<stop offset="0.67" stop-color="white"/>
<stop offset="0.8" stop-color="#345352"/>
<stop offset="1" stop-color="#345352"/>
</linearGradient>
<linearGradient id="paint2_linear_124_138" x1="68.9842" y1="0.307433" x2="68.9842" y2="105.385" gradientUnits="userSpaceOnUse">
<stop stop-color="#345352"/>
<stop offset="0.184" stop-color="#345352"/>
<stop offset="0.373" stop-color="white"/>
<stop offset="0.67" stop-color="white"/>
<stop offset="0.8" stop-color="#345352"/>
<stop offset="1" stop-color="#345352"/>
</linearGradient>
<linearGradient id="paint3_linear_124_138" x1="53.6047" y1="0.307433" x2="53.6047" y2="105.385" gradientUnits="userSpaceOnUse">
<stop stop-color="#345352"/>
<stop offset="0.184" stop-color="#345352"/>
<stop offset="0.373" stop-color="white"/>
<stop offset="0.67" stop-color="white"/>
<stop offset="0.8" stop-color="#345352"/>
<stop offset="1" stop-color="#345352"/>
</linearGradient>
<linearGradient id="paint4_linear_124_138" x1="37.0058" y1="0.307433" x2="37.0058" y2="105.385" gradientUnits="userSpaceOnUse">
<stop stop-color="#345352"/>
<stop offset="0.184" stop-color="#345352"/>
<stop offset="0.373" stop-color="white"/>
<stop offset="0.67" stop-color="white"/>
<stop offset="0.8" stop-color="#345352"/>
<stop offset="1" stop-color="#345352"/>
</linearGradient>
<linearGradient id="paint5_linear_124_138" x1="20.8623" y1="0.307433" x2="20.8623" y2="105.385" gradientUnits="userSpaceOnUse">
<stop stop-color="#345352"/>
<stop offset="0.184" stop-color="#345352"/>
<stop offset="0.373" stop-color="white"/>
<stop offset="0.67" stop-color="white"/>
<stop offset="0.8" stop-color="#345352"/>
<stop offset="1" stop-color="#345352"/>
</linearGradient>
<linearGradient id="paint6_linear_124_138" x1="4.26348" y1="0.614866" x2="4.26348" y2="105.693" gradientUnits="userSpaceOnUse">
<stop stop-color="#345352"/>
<stop offset="0.184" stop-color="#345352"/>
<stop offset="0.373" stop-color="white"/>
<stop offset="0.67" stop-color="white"/>
<stop offset="0.8" stop-color="#345352"/>
<stop offset="1" stop-color="#345352"/>
</linearGradient>
</defs>
</svg>
