<svg width="200" height="154" viewBox="0 0 200 154" fill="none" xmlns="http://www.w3.org/2000/svg">
<path d="M0 74.9193H27.7047C32.4699 74.9193 36.152 76.0613 38.7512 78.3455C41.3897 80.5902 42.709 83.8195 42.709 88.0333C42.709 91.1838 42.0198 93.8026 40.6415 95.8898C39.2631 97.9377 37.3138 99.4341 34.7934 100.379L43.8314 115.679H31.5444L23.2153 101.561H11.1055V115.679H0V74.9193ZM31.4263 88.7421V87.5607C31.4263 86.2217 31.0128 85.1584 30.1858 84.3708C29.3981 83.5438 28.0198 83.1303 26.0507 83.1303H11.1055V93.2907H26.0507C27.9804 93.2907 29.3587 92.8772 30.1858 92.0502C31.0128 91.1838 31.4263 90.0811 31.4263 88.7421Z" fill="#E63027"/>
<path d="M67.0388 74.9193H82.3384L99.8828 115.679H88.3047L84.465 106.641H63.6717L59.832 115.679H49.4353L67.0388 74.9193ZM67.0979 98.6071H81.0388L74.0683 82.1851L67.0979 98.6071Z" fill="#E63027"/>
<path d="M139.435 115.679L127.621 101.974L115.747 115.679H103.519L121.359 95.24L103.756 74.9193H117.047L128.389 88.0333L139.671 74.9193H151.899L134.591 94.7084L152.726 115.679H139.435Z" fill="#E63027"/>
<path d="M156.169 102.978H167.451C167.845 105.144 168.928 106.582 170.7 107.291C172.472 108 175.072 108.354 178.498 108.354C182.042 108.354 184.681 108.019 186.413 107.35C188.186 106.68 189.072 105.479 189.072 103.746C189.072 101.541 187.378 100.301 183.991 100.025C180.644 99.7098 176.962 99.3554 172.945 98.9616C168.928 98.5284 165.226 97.5635 161.84 96.067C158.492 94.5312 156.818 91.4791 156.818 86.9109C156.818 82.3427 158.689 79.074 162.43 77.105C166.171 75.0965 171.33 74.0923 177.907 74.0923C184.523 74.0923 189.643 75.0965 193.266 77.105C196.928 79.1134 198.956 82.4214 199.35 87.029H188.067C187.792 85.0994 186.768 83.8195 184.996 83.1894C183.224 82.5593 180.861 82.2442 177.907 82.2442C174.402 82.2442 171.823 82.5593 170.169 83.1894C168.554 83.7801 167.747 84.9615 167.747 86.7337C167.747 88.8209 169.42 90.022 172.768 90.3371C176.155 90.6127 179.856 90.9672 183.873 91.4004C187.89 91.7942 191.572 92.7393 194.92 94.2358C198.307 95.6929 200 98.6071 200 102.978C200 107.783 198.228 111.249 194.684 113.375C191.139 115.462 185.744 116.506 178.498 116.506C171.094 116.506 165.62 115.443 162.076 113.316C158.531 111.189 156.562 107.744 156.169 102.978Z" fill="#E63027"/>
<path d="M47.2322 131.419H53.479V132.46H48.4948V134.786H52.7037V135.805H48.4948V139.061H47.2322V131.419Z" fill="#383838"/>
<path d="M56.7572 136.027V131.419H58.0198V135.993C58.0198 136.82 58.234 137.396 58.6623 137.721C59.0979 138.039 59.7182 138.197 60.523 138.197C61.3205 138.197 61.9334 138.039 62.3616 137.721C62.7973 137.396 63.0151 136.82 63.0151 135.993V131.419H64.167V136.027C64.167 137.082 63.868 137.876 63.2699 138.408C62.6791 138.932 61.7635 139.194 60.523 139.194C59.253 139.194 58.3078 138.932 57.6876 138.408C57.0673 137.876 56.7572 137.082 56.7572 136.027Z" fill="#383838"/>
<path d="M68.1035 131.419H69.3661V138.02H74.2617V139.061H68.1035V131.419Z" fill="#383838"/>
<path d="M77.5549 131.419H83.8017V132.46H78.8175V134.786H83.0264V135.805H78.8175V139.061H77.5549V131.419Z" fill="#383838"/>
<path d="M87.1685 131.419H88.4311V139.061H87.1685V131.419Z" fill="#383838"/>
<path d="M92.4663 131.419H93.729V138.02H98.6246V139.061H92.4663V131.419Z" fill="#383838"/>
<path d="M101.918 131.419H103.18V138.02H108.076V139.061H101.918V131.419Z" fill="#383838"/>
<path d="M115.168 137.954L112.51 132.371V139.061H111.369V131.419H113.274L115.888 136.913L118.513 131.419H120.429V139.061H119.155V132.394L116.497 137.954H115.168Z" fill="#383838"/>
<path d="M124.455 131.419H130.79V132.416H125.717V134.675H129.782V135.65H125.717V138.065H130.834V139.061H124.455V131.419Z" fill="#383838"/>
<path d="M140.152 139.061L135.589 132.637V139.061H134.414V131.419H136.142L140.683 137.81V131.419H141.869V139.061H140.152Z" fill="#383838"/>
<path d="M148.27 132.46H145.146V131.419H152.656V132.46H149.532V139.061H148.27V132.46Z" fill="#383838"/>
<path d="M57.5369 151.703H58.8328C58.9509 152.212 59.2093 152.556 59.6081 152.733C60.0142 152.91 60.6123 152.999 61.4024 152.999C62.222 152.999 62.8201 152.895 63.1967 152.689C63.5733 152.482 63.7616 152.161 63.7616 151.725C63.7616 151.142 63.4441 150.795 62.809 150.684C62.174 150.566 61.4762 150.473 60.7157 150.407C59.9551 150.333 59.2573 150.174 58.6223 149.931C57.9873 149.687 57.6698 149.141 57.6698 148.291C57.6698 147.523 57.9836 146.959 58.6112 146.597C59.2463 146.235 60.1323 146.054 61.2695 146.054C62.3918 146.054 63.2558 146.228 63.8612 146.575C64.4741 146.914 64.8175 147.472 64.8913 148.247H63.5954C63.529 147.774 63.289 147.453 62.8755 147.283C62.4694 147.106 61.934 147.018 61.2695 147.018C60.5089 147.018 59.9293 147.114 59.5305 147.306C59.1318 147.49 58.9324 147.815 58.9324 148.28C58.9324 148.834 59.2499 149.163 59.885 149.266C60.52 149.369 61.2178 149.458 61.9783 149.532C62.7389 149.598 63.4367 149.761 64.0717 150.019C64.7067 150.27 65.0242 150.82 65.0242 151.67C65.0242 152.46 64.7326 153.039 64.1492 153.408C63.5659 153.778 62.6503 153.962 61.4024 153.962C60.1545 153.962 59.2241 153.789 58.6112 153.442C57.9984 153.095 57.6402 152.515 57.5369 151.703Z" fill="#383838"/>
<path d="M68.2342 149.986C68.2342 148.553 68.6071 147.542 69.3529 146.951C70.106 146.353 71.2026 146.054 72.6424 146.054C74.0823 146.054 75.1751 146.353 75.9209 146.951C76.6741 147.542 77.0507 148.553 77.0507 149.986C77.0507 151.418 76.6741 152.441 75.9209 153.054C75.1751 153.66 74.0823 153.962 72.6424 153.962C71.2026 153.962 70.106 153.66 69.3529 153.054C68.6071 152.441 68.2342 151.418 68.2342 149.986ZM75.7659 150.374V149.598C75.7659 148.705 75.5037 148.059 74.9795 147.66C74.4552 147.254 73.6762 147.051 72.6424 147.051C71.6087 147.051 70.8297 147.254 70.3054 147.66C69.7811 148.059 69.519 148.705 69.519 149.598V150.374C69.519 151.274 69.7811 151.932 70.3054 152.345C70.8297 152.759 71.6087 152.965 72.6424 152.965C73.6762 152.965 74.4552 152.759 74.9795 152.345C75.5037 151.932 75.7659 151.274 75.7659 150.374Z" fill="#383838"/>
<path d="M80.7013 146.187H86.9482V147.228H81.964V149.554H86.1729V150.573H81.964V153.829H80.7013V146.187Z" fill="#383838"/>
<path d="M92.6852 147.228H89.5618V146.187H97.0713V147.228H93.9479V153.829H92.6852V147.228Z" fill="#383838"/>
<path d="M99.6415 146.187H100.915L102.566 152.711L104.471 146.187H106.032L107.882 152.689L109.566 146.187H110.684L108.68 153.829H107.029L105.18 147.328L103.263 153.829H101.58L99.6415 146.187Z" fill="#383838"/>
<path d="M116.005 146.187H117.755L121.156 153.829H119.837L118.907 151.736H114.72L113.79 153.829H112.594L116.005 146.187ZM115.141 150.783H118.486L116.814 147.007L115.141 150.783Z" fill="#383838"/>
<path d="M124.337 146.187H128.922C129.757 146.187 130.388 146.39 130.816 146.796C131.245 147.202 131.459 147.774 131.459 148.513C131.459 149.111 131.322 149.602 131.049 149.986C130.776 150.363 130.373 150.617 129.842 150.75L131.769 153.829H130.34L128.479 150.85H125.599V153.829H124.337V146.187ZM130.174 148.668V148.369C130.174 148.007 130.063 147.715 129.842 147.494C129.627 147.265 129.266 147.151 128.756 147.151H125.599V149.875H128.756C129.266 149.875 129.627 149.764 129.842 149.543C130.063 149.314 130.174 149.022 130.174 148.668Z" fill="#383838"/>
<path d="M135.205 146.187H141.541V147.184H136.468V149.443H140.533V150.418H136.468V152.833H141.585V153.829H135.205V146.187Z" fill="#383838"/>
<path d="M40.8156 50.375V39.4467C40.8156 37.3201 40.3233 35.6661 39.3388 34.4846C38.3936 33.3032 36.8184 32.6928 34.613 32.6534V27.1007C36.8184 27.0613 38.3936 26.4312 39.3388 25.2104C40.3233 23.9501 40.8156 22.3158 40.8156 20.3074V9.37907C40.8156 6.70115 41.4457 4.77147 42.7059 3.59003C43.9661 2.40859 46.0533 1.81787 48.9675 1.81787H58.419V6.77991H50.7397C49.3219 6.77991 48.3177 7.07527 47.727 7.66599C47.1363 8.21733 46.8409 9.18217 46.8409 10.5605V20.7209C46.8409 22.9262 46.4668 24.8756 45.7186 26.569C45.0097 28.2624 43.2769 29.3848 40.5202 29.9361C43.2375 30.3299 44.9703 31.3538 45.7186 33.0078C46.4668 34.6619 46.8409 36.6309 46.8409 38.915V49.0163C46.8409 50.4734 47.1363 51.4974 47.727 52.0881C48.3177 52.6788 49.3219 52.9742 50.7397 52.9742H58.419V57.9362H48.9675C46.0533 57.9362 43.9661 57.3258 42.7059 56.105C41.4457 54.9235 40.8156 53.0135 40.8156 50.375Z" fill="#383838"/>
<path d="M155.858 50.375V39.4467C155.858 37.3201 156.351 35.6661 157.335 34.4846C158.28 33.3032 159.856 32.6928 162.061 32.6534V27.1007C159.856 27.0613 158.28 26.4312 157.335 25.2104C156.351 23.9501 155.858 22.3158 155.858 20.3074V9.37907C155.858 6.70115 155.228 4.77147 153.968 3.59003C152.708 2.40859 150.621 1.81787 147.706 1.81787H138.255V6.77991H145.934C147.352 6.77991 148.356 7.07527 148.947 7.66599C149.538 8.21733 149.833 9.18217 149.833 10.5605V20.7209C149.833 22.9262 150.207 24.8756 150.955 26.569C151.664 28.2624 153.397 29.3848 156.154 29.9361C153.436 30.3299 151.704 31.3538 150.955 33.0078C150.207 34.6619 149.833 36.6309 149.833 38.915V49.0163C149.833 50.4734 149.538 51.4974 148.947 52.0881C148.356 52.6788 147.352 52.9742 145.934 52.9742H138.255V57.9362H147.706C150.621 57.9362 152.708 57.3258 153.968 56.105C155.228 54.9235 155.858 53.0135 155.858 50.375Z" fill="#383838"/>
<path d="M126.799 10.4089C126.463 9.89333 125.995 9.46875 125.445 9.28679L100.482 0.25942C99.4835 -0.074178 97.8539 -0.084287 96.8558 0.218984L70.0086 9.32722C69.4688 9.48897 69.0003 9.89333 68.6642 10.3786C68.3791 10.8031 68.1855 11.2985 68.1855 11.7736V41.9693C68.1855 43.0105 68.9698 44.2135 69.917 44.6583L95.0429 56.2736C95.5114 56.496 96.1429 56.6072 96.7743 56.6173C97.4058 56.6173 98.0372 56.5263 98.5159 56.3241L125.516 44.628C126.473 44.2135 127.257 43.0206 127.257 41.9895V11.7736C127.257 11.3086 127.074 10.8234 126.799 10.4089ZM94.6661 51.4819L72.2595 41.8076V14.1492L94.6661 23.217V51.4819Z" fill="#E63027"/>
</svg>
