<svg width="47" height="58" viewBox="0 0 47 58" fill="none" xmlns="http://www.w3.org/2000/svg">
<g opacity="0.2">
<path d="M16.7522 9.34759V5.74784C16.7522 3.84685 18.3053 2.2937 20.2063 2.2937H26.8719C28.7729 2.2937 30.3261 3.84685 30.3261 5.74784V9.34759" stroke="#020C1E" stroke-width="3" stroke-miterlimit="10"/>
<path d="M38.1726 11.5317C40.6318 13.1334 42.8159 15.1315 44.636 17.4288" stroke="#020C1E" stroke-width="3" stroke-miterlimit="10"/>
<path d="M23.5391 7.07446V12.826" stroke="#020C1E" stroke-width="3" stroke-miterlimit="10"/>
<path d="M23.5391 19.1196C31.8226 19.1196 38.5448 25.8338 38.5448 34.1253C38.5448 42.4169 31.8226 49.131 23.5391 49.131C15.2557 49.131 8.53345 42.4169 8.53345 34.1253" stroke="#020C1E" stroke-width="3" stroke-miterlimit="10"/>
<path d="M45.0001 34.1253C45.0001 45.9761 35.39 55.5862 23.5391 55.5862C11.6883 55.5862 2.07007 45.9761 2.07007 34.1253C2.07007 22.2744 11.6802 12.6562 23.5391 12.6562C35.3981 12.6562 45.0001 22.2664 45.0001 34.1172V34.1253Z" stroke="#020C1E" stroke-width="3" stroke-miterlimit="10"/>
<path d="M27.4947 34.1251C27.4947 36.3093 25.7231 38.0889 23.5309 38.0889C21.3387 38.0889 19.5671 36.3173 19.5671 34.1251C19.5671 31.9329 21.3387 30.1614 23.5309 30.1614C25.7231 30.1614 27.4947 31.9329 27.4947 34.1251Z" stroke="#020C1E" stroke-width="3" stroke-miterlimit="10"/>
<path d="M27.2844 35.5408L31.8549 37.2476" stroke="#020C1E" stroke-width="3" stroke-miterlimit="10"/>
<path d="M8.58203 28.5759L19.7776 32.75" stroke="#020C1E" stroke-width="3" stroke-miterlimit="10"/>
</g>
</svg>
