<svg width="356" height="96" viewBox="0 0 356 96" fill="none" xmlns="http://www.w3.org/2000/svg">
<path fill-rule="evenodd" clip-rule="evenodd" d="M355.563 88.0805V7.18365C355.563 3.21468 352.349 0 348.38 0H7.18364C3.21468 0 0 3.21468 0 7.18365V88.0805C0 92.0494 3.21468 95.2641 7.18364 95.2641H348.38C352.349 95.2641 355.563 92.0494 355.563 88.0805Z" fill="url(#paint0_linear_13_35)"/>
<path fill-rule="evenodd" clip-rule="evenodd" d="M39.097 64.4552L30.0815 30.7819H35.9991L42.9223 56.643L50.3484 30.7729L55.8618 30.7819L63.3149 56.7777L70.274 30.7819L76.1916 30.7729L67.1671 64.4462H60.3157L53.1051 39.2945L45.9035 64.4462L39.097 64.4552Z" fill="white"/>
<path d="M85.8983 30.7909H80.2681V64.4283H85.8983V30.7909Z" fill="white"/>
<path fill-rule="evenodd" clip-rule="evenodd" d="M97.9309 59.1573H111.643V64.4283H92.4175V30.7909H97.9309V59.1573Z" fill="white"/>
<path fill-rule="evenodd" clip-rule="evenodd" d="M128.956 30.7909C133.58 30.7909 137.423 32.4611 140.449 35.6758C143.52 38.8994 145.074 42.8953 145.074 47.6275C145.074 52.3598 143.52 56.3198 140.449 59.5793C137.423 62.803 133.58 64.4283 128.956 64.4283H115.711V30.7909H128.956ZM128.956 59.1932C132.143 59.1932 134.738 58.1067 136.687 55.9336C138.707 53.7606 139.713 50.9679 139.713 47.6724C139.713 44.3769 138.707 41.5843 136.687 39.4113C134.702 37.2382 132.107 36.1517 128.956 36.1517H121.269V59.2022H128.956V59.1932Z" fill="white"/>
<path fill-rule="evenodd" clip-rule="evenodd" d="M174.778 54.8202C174.778 57.5769 173.808 59.8667 171.824 61.6895C169.839 63.5124 167.514 64.4463 164.64 64.4463H150.237V30.7999H163.599C166.355 30.7999 168.681 31.7337 170.585 33.4758C172.524 35.2627 173.458 37.4717 173.458 40.1117C173.458 43.057 172.291 45.3108 170.046 46.981C173 48.5345 174.778 51.3271 174.778 54.8202ZM155.786 35.9901V44.8439H163.634C166.077 44.8439 167.945 42.9043 167.945 40.417C167.945 37.9296 166.086 35.9901 163.634 35.9901H155.786ZM164.676 59.283C167.235 59.283 169.256 57.1908 169.256 54.5508C169.256 51.9108 167.235 49.8545 164.676 49.8545H155.786V59.283H164.676Z" fill="white"/>
<path fill-rule="evenodd" clip-rule="evenodd" d="M185.536 59.1753H200.442V64.4463H180.022V30.7909H200.208V36.0709H185.536V44.808H199.005V50.052H185.536V59.1753Z" fill="white"/>
<path fill-rule="evenodd" clip-rule="evenodd" d="M224.597 64.4463L217.449 52.1802H210.93V64.4463H205.416V30.7999H218.895C221.921 30.7999 224.489 31.8505 226.545 33.9786C228.646 36.0349 229.733 38.6031 229.733 41.6292C229.733 45.9035 227.057 49.8186 223.052 51.372L230.703 64.4552H224.606L224.597 64.4463ZM210.93 35.9901V47.2504H218.85C221.804 47.2504 224.13 44.7631 224.13 41.6202C224.13 38.4774 221.759 35.9901 218.85 35.9901H210.93Z" fill="white"/>
<path fill-rule="evenodd" clip-rule="evenodd" d="M254.067 64.4462L246.965 52.1712H240.445V64.4462H234.932V30.7729H248.401C251.427 30.7729 253.996 31.8235 256.052 33.9606C258.144 36.017 259.231 38.5851 259.231 41.6112C259.231 45.8855 256.555 49.8096 252.55 51.363L260.2 64.4552H254.067V64.4462ZM240.436 35.981V47.2414H248.356C251.311 47.2414 253.636 44.7541 253.636 41.6112C253.636 38.4684 251.266 35.981 248.356 35.981H240.436Z" fill="white"/>
<path d="M269.755 30.7819H264.241V64.4552H269.755V30.7819Z" fill="white"/>
<path fill-rule="evenodd" clip-rule="evenodd" d="M281.796 59.1753H296.702V64.4463H276.283V30.7999H296.469V36.0709H281.796V44.808H295.266V50.052H281.796V59.1753Z" fill="white"/>
<path fill-rule="evenodd" clip-rule="evenodd" d="M300.546 56.7868L305.323 53.9942C306.679 57.7925 309.436 59.6603 313.674 59.6603C317.912 59.6603 319.924 57.8733 319.924 55.2333C319.924 53.8325 319.34 52.8268 318.254 52.1264C317.167 51.3901 315.147 50.5729 312.273 49.7199C309.049 48.7501 307.46 48.1305 305.206 46.6579C303.033 45.1044 301.947 42.8954 301.947 39.8693C301.947 36.8432 302.997 34.5534 305.134 32.8114C307.227 31.0244 309.795 30.1714 312.785 30.1714C318.182 30.1714 322.339 32.964 324.512 37.5795L319.852 40.2554C318.451 37.1485 316.089 35.5591 312.785 35.5591C309.48 35.5591 307.505 37.1934 307.505 39.7526C307.505 42.3117 309.139 43.3983 314.302 44.9877C315.587 45.4187 316.511 45.724 317.095 45.9574C317.715 46.155 318.532 46.5052 319.582 46.9272C320.669 47.3583 321.522 47.8611 322.025 48.2832C323.812 49.684 325.482 51.9019 325.482 55.1884C325.482 58.2145 324.396 60.657 322.178 62.4439C320.005 64.2308 317.131 65.0839 313.557 65.0839C307.038 65.048 302.297 61.9411 300.546 56.7778V56.7868Z" fill="white"/>
<defs>
<linearGradient id="paint0_linear_13_35" x1="0" y1="47.6365" x2="355.563" y2="47.6365" gradientUnits="userSpaceOnUse">
<stop stop-color="#A81D83"/>
<stop offset="1" stop-color="#51207C"/>
</linearGradient>
</defs>
</svg>
