<svg width="369" height="68" viewBox="0 0 369 68" fill="none" xmlns="http://www.w3.org/2000/svg">
<path d="M172.99 57.5896H180.299L190.488 19.7134V57.5896H198.684V7.53104H187.387L177.198 44.2997L167.009 7.53104H155.492V57.5896H162.58V19.7134L172.99 57.5896ZM233.016 32.7818C233.016 23.9219 228.586 20.5994 219.505 20.5994C213.746 20.5994 209.316 22.3714 206.658 23.9219V31.0098C208.873 29.2378 213.967 27.4659 218.397 27.4659C222.605 27.4659 224.377 29.0163 224.377 32.7818V34.7753H223.048C209.98 34.7753 204 39.2053 204 46.5147C204 53.8241 208.43 58.0326 215.075 58.0326C220.169 58.0326 222.384 56.4821 223.934 54.7101H224.377C224.377 55.5961 224.82 56.9251 225.042 57.5896H233.459C233.237 54.7101 233.016 51.6091 233.016 48.7297V32.7818ZM224.377 48.9512C223.27 50.5017 221.276 51.8306 218.176 51.8306C214.632 51.8306 212.86 49.6157 212.86 46.5147C212.86 42.3062 215.739 40.7557 223.27 40.7557H224.599V48.9512H224.377ZM247.856 21.2639H239.882V68H248.521V53.3811C250.736 56.7036 253.837 58.2541 257.602 58.2541C266.019 58.2541 271.778 51.6091 271.778 39.4268C271.778 27.2444 266.241 20.5994 258.045 20.5994C254.058 20.5994 250.736 22.3714 248.299 25.9154L247.856 21.2639ZM255.166 51.6091C250.736 51.6091 248.299 47.8437 248.299 39.6482C248.299 31.2313 250.736 27.4659 255.609 27.4659C260.26 27.4659 262.697 31.2313 262.697 39.4268C262.697 47.8437 260.26 51.6091 255.166 51.6091ZM298.579 57.5896H308.325L294.592 38.0978L306.775 21.2639H298.136L285.954 38.0978V21.2639H277.315V57.5896H285.954V39.8697L298.579 57.5896ZM337.12 55.1531V48.0652C334.462 49.8372 330.032 51.3876 325.824 51.3876C319.622 51.3876 317.185 48.5082 316.742 42.3062H337.341V37.6548C337.341 25.0294 331.804 20.3779 323.166 20.3779C312.755 20.3779 307.661 28.3518 307.661 39.4268C307.661 52.0521 313.863 58.2541 324.716 58.2541C330.697 58.2541 334.683 56.9251 337.12 55.1531ZM323.166 27.4659C327.374 27.4659 328.703 31.0098 328.703 35.4398V36.1043H316.742C316.964 30.3453 319.179 27.4659 323.166 27.4659ZM368.13 28.1304V21.2639H339.335V28.1304H349.524V57.5896H358.162V28.1304H368.13Z" fill="white"/>
<path d="M104.326 66.4494C122.71 66.4494 137.55 51.609 137.55 33.2247C137.55 14.8404 122.71 0 104.326 0C85.9413 0 71.1009 14.8404 71.1009 33.2247C70.8794 51.609 85.9413 66.4494 104.326 66.4494Z" fill="#FED42B"/>
<path d="M33.2247 66.4494C51.5742 66.4494 66.4494 51.5742 66.4494 33.2247C66.4494 14.8752 51.5742 0 33.2247 0C14.8752 0 0 14.8752 0 33.2247C0 51.5742 14.8752 66.4494 33.2247 66.4494Z" fill="#FC3F1D"/>
<path d="M38.0976 18.6058H34.7751C29.0162 18.6058 26.1367 21.4853 26.1367 25.9153C26.1367 30.7882 28.1302 33.2247 32.3387 36.1042L35.6611 38.5407L26.1367 53.381H18.3843L27.4657 39.8696C22.1497 36.1042 19.2703 32.5602 19.2703 26.3583C19.2703 18.6058 24.5862 13.2899 34.7751 13.2899H44.964V53.1595H38.3191V18.6058H38.0976Z" fill="white"/>
<path d="M87.9346 18.1628L58.6969 56.482L66.4493 65.3419L88.1561 36.5471L85.9412 52.2735L98.1235 56.482L112.964 32.7817C112.299 37.2116 111.192 47.4005 120.938 50.5015C136.221 55.153 149.511 27.6872 155.713 13.7328L146.853 9.08139C139.987 23.4788 129.355 39.4266 125.146 38.3191C120.938 37.2116 124.703 23.7003 127.14 15.0618V14.8403L113.628 10.1889L97.459 36.5471L99.674 22.1498L87.9346 18.1628Z" fill="white"/>
</svg>
