<svg width="19" height="18" viewBox="0 0 19 18" fill="none" xmlns="http://www.w3.org/2000/svg">
<path fill-rule="evenodd" clip-rule="evenodd" d="M9.31445 1.8002C7.47811 1.8002 5.98945 3.28885 5.98945 5.1252C5.98945 6.96154 7.47811 8.4502 9.31445 8.4502C11.1508 8.4502 12.6395 6.96154 12.6395 5.1252C12.6395 3.28885 11.1508 1.8002 9.31445 1.8002ZM4.38945 5.1252C4.38945 2.40519 6.59445 0.200195 9.31445 0.200195C12.0345 0.200195 14.2395 2.40519 14.2395 5.1252C14.2395 7.8452 12.0345 10.0502 9.31445 10.0502C6.59445 10.0502 4.38945 7.8452 4.38945 5.1252ZM9.31445 13.7169C6.35398 13.7169 3.65162 15.0057 1.64653 17.1323C1.34344 17.4538 0.837123 17.4687 0.51565 17.1656C0.194177 16.8625 0.179278 16.3562 0.482373 16.0347C2.75956 13.6195 5.87112 12.1169 9.31445 12.1169C12.7578 12.1169 15.8693 13.6195 18.1465 16.0347C18.4496 16.3562 18.4347 16.8625 18.1133 17.1656C17.7918 17.4687 17.2855 17.4538 16.9824 17.1323C14.9773 15.0057 12.2749 13.7169 9.31445 13.7169Z" fill="#A2A9B4"/>
</svg>
