<svg width="19" height="16" viewBox="0 0 19 16" fill="none" xmlns="http://www.w3.org/2000/svg">
<path fill-rule="evenodd" clip-rule="evenodd" d="M7.25 1.75C5.59315 1.75 4.25 3.09315 4.25 4.75C4.25 6.40685 5.59315 7.75 7.25 7.75C8.90686 7.75 10.25 6.40685 10.25 4.75C10.25 3.09315 8.90686 1.75 7.25 1.75ZM2.75 4.75C2.75 2.26472 4.76472 0.25 7.25 0.25C9.73528 0.25 11.75 2.26472 11.75 4.75C11.75 7.23528 9.73528 9.25 7.25 9.25C4.76472 9.25 2.75 7.23528 2.75 4.75ZM11.995 1.05603C12.1794 0.685091 12.6295 0.533826 13.0004 0.718164C14.4803 1.45361 15.5 2.98204 15.5 4.75C15.5 6.51796 14.4803 8.04639 13.0004 8.78184C12.6295 8.96617 12.1794 8.81491 11.995 8.44397C11.8107 8.07304 11.962 7.6229 12.3329 7.43856C13.3225 6.94676 14 5.92681 14 4.75C14 3.57319 13.3225 2.55324 12.3329 2.06144C11.962 1.8771 11.8107 1.42696 11.995 1.05603ZM7.25 12.5833C5.10336 12.5833 3.10285 13.7042 1.58975 15.63C1.33384 15.9557 0.86235 16.0123 0.536643 15.7564C0.210936 15.5005 0.154351 15.029 0.410256 14.7033C2.1413 12.5001 4.54528 11.0833 7.25 11.0833C9.95472 11.0833 12.3587 12.5001 14.0897 14.7033C14.3457 15.029 14.2891 15.5005 13.9634 15.7564C13.6377 16.0123 13.1662 15.9557 12.9103 15.63C11.3972 13.7042 9.39665 12.5833 7.25 12.5833ZM13.65 12.1628C13.8208 11.7854 14.2652 11.6179 14.6425 11.7887C16.0269 12.4151 17.2533 13.4265 18.2564 14.7033C18.5123 15.029 18.4557 15.5005 18.13 15.7564C17.8043 16.0123 17.3328 15.9557 17.0769 15.63C16.2009 14.5151 15.1588 13.6687 14.0241 13.1553C13.6468 12.9845 13.4793 12.5402 13.65 12.1628Z" fill="white"/>
</svg>
