<svg width="34" height="34" viewBox="0 0 34 34" fill="none" xmlns="http://www.w3.org/2000/svg">
<path d="M16.8942 0.415147C17.1588 0.414586 17.4127 0.519605 17.6002 0.707108C17.7877 0.894611 17.8934 1.14924 17.8941 1.41501L17.9272 16.0048L32.4508 15.9718C32.7154 15.9712 32.9693 16.0762 33.1568 16.2637C33.3443 16.4512 33.45 16.7059 33.4507 16.9716V16.9716C33.4513 17.2374 33.3467 17.4925 33.1601 17.6809C32.9734 17.8692 32.7199 17.9754 32.4554 17.976L17.9318 18.009L17.9649 32.5988C17.9655 32.8646 17.861 33.1197 17.6743 33.308C17.4877 33.4964 17.2342 33.6026 16.9696 33.6032V33.6032C16.705 33.6038 16.4511 33.4988 16.2636 33.3113C16.0761 33.1237 15.9704 32.8691 15.9697 32.6033L15.9366 18.0136L1.41298 18.0466C1.14842 18.0471 0.894463 17.9421 0.70696 17.7546C0.519458 17.5671 0.41376 17.3125 0.413116 17.0467C0.412552 16.7809 0.517091 16.5258 0.70374 16.3375C0.890389 16.1491 1.14386 16.043 1.40843 16.0423L15.932 16.0093L15.8989 1.41955C15.8983 1.15378 16.0029 0.898667 16.1895 0.710314C16.3762 0.521961 16.6296 0.415789 16.8942 0.415147V0.415147Z" fill="#A2A9B4"/>
</svg>
