<svg width="19" height="14" viewBox="0 0 19 14" fill="none" xmlns="http://www.w3.org/2000/svg">
<path fill-rule="evenodd" clip-rule="evenodd" d="M4.96858 0.25H9.53142C10.2048 0.249992 10.7555 0.249984 11.2031 0.286552C11.6663 0.324402 12.0847 0.405137 12.4755 0.604229C13.087 0.915818 13.5842 1.413 13.8958 2.02453C14.0949 2.41527 14.1756 2.83367 14.2135 3.29693C14.25 3.7445 14.25 4.29522 14.25 4.96861V5.02267L16.0188 3.25386C16.1794 3.09321 16.3336 2.93901 16.4679 2.82656C16.589 2.72522 16.8293 2.53542 17.1585 2.50952C17.5308 2.48022 17.8946 2.63092 18.1371 2.9149C18.3516 3.16595 18.3873 3.47013 18.4013 3.62738C18.4167 3.80189 18.4167 4.01997 18.4167 4.24716V9.41951C18.4167 9.6467 18.4167 9.86478 18.4013 10.0393C18.3873 10.1965 18.3516 10.5007 18.1371 10.7518C17.8946 11.0357 17.5308 11.1865 17.1585 11.1571C16.8293 11.1312 16.589 10.9415 16.4679 10.8401C16.3336 10.7276 16.1794 10.5734 16.0188 10.4128L14.25 8.64399V8.69806C14.25 9.37145 14.25 9.92216 14.2135 10.3697C14.1756 10.833 14.0949 11.2514 13.8958 11.6421C13.5842 12.2537 13.087 12.7508 12.4755 13.0624C12.0847 13.2615 11.6663 13.3423 11.2031 13.3801C10.7555 13.4167 10.2048 13.4167 9.53144 13.4167H4.96856C4.29519 13.4167 3.74449 13.4167 3.29693 13.3801C2.83367 13.3423 2.41527 13.2615 2.02453 13.0624C1.413 12.7508 0.915818 12.2537 0.604229 11.6421C0.405137 11.2514 0.324402 10.833 0.286552 10.3697C0.249984 9.92217 0.249992 9.37146 0.25 8.69809V4.96858C0.249992 4.2952 0.249984 3.7445 0.286552 3.29693C0.324402 2.83367 0.405137 2.41527 0.604229 2.02453C0.915818 1.413 1.413 0.915818 2.02453 0.604229C2.41527 0.405137 2.83367 0.324402 3.29693 0.286552C3.7445 0.249984 4.2952 0.249992 4.96858 0.25ZM12.75 5C12.75 4.28756 12.7494 3.79833 12.7184 3.41908C12.6882 3.04858 12.6327 2.84956 12.5593 2.70552C12.3915 2.37623 12.1238 2.10852 11.7945 1.94074C11.6504 1.86735 11.4514 1.81184 11.0809 1.78157C10.7017 1.75058 10.2124 1.75 9.5 1.75H5C4.28756 1.75 3.79833 1.75058 3.41908 1.78157C3.04858 1.81184 2.84956 1.86735 2.70552 1.94074C2.37623 2.10852 2.10852 2.37623 1.94074 2.70552C1.86735 2.84956 1.81184 3.04858 1.78157 3.41908C1.75058 3.79833 1.75 4.28756 1.75 5V8.66667C1.75 9.37911 1.75058 9.86833 1.78157 10.2476C1.81184 10.6181 1.86735 10.8171 1.94074 10.9612C2.10852 11.2904 2.37623 11.5582 2.70552 11.7259C2.84956 11.7993 3.04858 11.8548 3.41908 11.8851C3.79833 11.9161 4.28756 11.9167 5 11.9167H9.5C10.2124 11.9167 10.7017 11.9161 11.0809 11.8851C11.4514 11.8548 11.6504 11.7993 11.7945 11.7259C12.1238 11.5582 12.3915 11.2904 12.5593 10.9612C12.6327 10.8171 12.6882 10.6181 12.7184 10.2476C12.7494 9.86833 12.75 9.37911 12.75 8.66667V5ZM14.5607 6.83333L16.9167 9.18934V4.47733L14.5607 6.83333Z" fill="white"/>
</svg>
