<svg id="Layer_1" data-name="Layer 1" xmlns="http://www.w3.org/2000/svg" width="144.76" height="87.64" viewBox="0 0 144.76 87.64"><defs><style>.cls-1{fill:#fff;}.cls-2{fill:#0f4f7b;}</style></defs><path class="cls-1" d="M1.69,72.16h3.5V54.41A.85.85,0,0,1,6,53.56H10V40l-.41.17a1.64,1.64,0,0,1-.65.13,1.7,1.7,0,0,1-1.57-1L4.94,33.42a1.72,1.72,0,0,1,0-1.3,1.68,1.68,0,0,1,.92-.91L42.48,16a83.27,83.27,0,0,1-3.57-7.72,1.69,1.69,0,0,1,.92-2.2L54.3.13a1.69,1.69,0,0,1,2.2.9c3.58,8.39,5.89,17.74,7.27,29.42a1.69,1.69,0,0,1-1,1.76l-6.2,2.57a1.69,1.69,0,0,1-2-.52c-2.69-3.41-5-6.61-7.1-9.79l-7.32,3L40.5,30l1.09,7.55,5,34.61H66.9a1.7,1.7,0,0,1,1.7,1.7v7.69a1.69,1.69,0,0,1-1.7,1.69H1.69A1.69,1.69,0,0,1,0,81.55V73.86A1.7,1.7,0,0,1,1.69,72.16Zm11.68-18.6h3.94a.85.85,0,0,1,.85.85V72.16H22l5-34.61.71-4.9L13.37,38.59v15ZM30.1,42.08l6-4.44-4.74-4Zm2,3.16L39.64,50l-1.36-9.42Zm-2.82,2.61L27.45,60.44l9.8-7.52Zm7.27,24.31-9.76-7.07-1,7.07ZM33.21,30.37l4.09,3.46L36.6,29ZM40.39,55.2,30.23,63l12.6,9.14Z"/><path class="cls-1" d="M104.82,69.86V50.29a2,2,0,0,1,2-2h8.76a6.88,6.88,0,0,1,4.07,1.35l11.42,9.76a41,41,0,0,1,9.27,2.88,4,4,0,0,1,2,2.28A50.76,50.76,0,0,1,144.76,78a1.6,1.6,0,0,1-1.61,1.64H47.35a3.52,3.52,0,0,1-3.29-2.27l-1.31-3.46a2,2,0,0,1,1.84-2.67h58.83A1.4,1.4,0,0,0,104.82,69.86Z"/><path class="cls-2" d="M125.9,59.33l-7.74-7a2.8,2.8,0,0,0-1.68-.56H110.6a1,1,0,0,0-1,1.14l.73,5.9a2.09,2.09,0,0,0,1.75,1.8l12.41,2.15a1.91,1.91,0,0,0,2-1.07h0A1.9,1.9,0,0,0,125.9,59.33Z"/><rect class="cls-2" x="87.09" y="73.29" width="15.94" height="9.13" rx="2.3"/><circle class="cls-2" cx="132.93" cy="80.28" r="7.35"/><circle class="cls-1" cx="132.93" cy="80.28" r="2.69"/><circle class="cls-2" cx="74.38" cy="80.28" r="7.35"/><circle class="cls-1" cx="74.38" cy="80.28" r="2.69"/><circle class="cls-2" cx="57.45" cy="80.28" r="7.35"/><circle class="cls-1" cx="57.45" cy="80.28" r="2.69"/><path class="cls-1" d="M99.61,77.13H90.52a.95.95,0,0,1,0-1.89h9.09a.95.95,0,0,1,0,1.89Z"/><path class="cls-2" d="M91.45,43.59,94.64,40A2.76,2.76,0,0,1,96.72,39h14.66a.77.77,0,0,1,.75,1l-.55,2.14a3.31,3.31,0,0,1-3.19,2.46h-4.51A1.86,1.86,0,0,0,102,46.12L98.47,65.58a2.85,2.85,0,0,1-2.81,2.34H48.32a1.77,1.77,0,0,1-1-.31L41,63.18a1.74,1.74,0,0,1-.59-2.13l6-13.36a2.1,2.1,0,0,1,1.81-1.24l41.52-2A2.46,2.46,0,0,0,91.45,43.59Z"/><path class="cls-1" d="M89.64,51A1.46,1.46,0,0,0,88,52.17l-1.64,9a1.44,1.44,0,0,0,1.16,1.69,1.18,1.18,0,0,0,.26,0,1.46,1.46,0,0,0,1.43-1.19l1.64-9A1.44,1.44,0,0,0,89.64,51ZM78.53,51a1.46,1.46,0,0,0-1.69,1.16l-1.65,9a1.46,1.46,0,0,0,1.17,1.69,1.14,1.14,0,0,0,.26,0,1.46,1.46,0,0,0,1.43-1.19l1.64-9A1.44,1.44,0,0,0,78.53,51ZM67.42,51a1.46,1.46,0,0,0-1.69,1.16l-1.65,9a1.46,1.46,0,0,0,1.17,1.69,1.14,1.14,0,0,0,.26,0,1.44,1.44,0,0,0,1.42-1.19l1.65-9A1.44,1.44,0,0,0,67.42,51ZM56.31,51a1.45,1.45,0,0,0-1.69,1.16l-1.65,9a1.46,1.46,0,0,0,1.17,1.69,1.14,1.14,0,0,0,.26,0,1.44,1.44,0,0,0,1.42-1.19l1.65-9A1.45,1.45,0,0,0,56.31,51Z"/></svg>