<svg id="Layer_1" data-name="Layer 1" xmlns="http://www.w3.org/2000/svg" width="135.81" height="85.89" viewBox="0 0 135.81 85.89"><defs><style>.cls-1{fill:#3eacce;}.cls-2{fill:#0f4f7b;}</style></defs><path class="cls-1" d="M59.63,29.41a2.78,2.78,0,0,1-.2-3.29,2.78,2.78,0,0,0-.72-3.76,2.78,2.78,0,0,1-1-3.13,2.77,2.77,0,0,0-1.63-3.46A2.77,2.77,0,0,1,54.3,13a2.77,2.77,0,0,0-2.44-3,2.78,2.78,0,0,1-2.4-2.26,2.79,2.79,0,0,0-3.1-2.25A2.77,2.77,0,0,1,43.48,4a2.79,2.79,0,0,0-3.56-1.41,2.79,2.79,0,0,1-3.19-.82h0a2.77,2.77,0,0,0-3.8-.48,2.78,2.78,0,0,1-3.29,0,2.77,2.77,0,0,0-3.8.48,2.79,2.79,0,0,1-3.19.82A2.78,2.78,0,0,0,19.09,4,2.78,2.78,0,0,1,16.2,5.53a2.78,2.78,0,0,0-3.09,2.25A2.79,2.79,0,0,1,10.71,10a2.77,2.77,0,0,0-2.44,3A2.78,2.78,0,0,1,6.5,15.77a2.78,2.78,0,0,0-1.63,3.46,2.78,2.78,0,0,1-1,3.13,2.77,2.77,0,0,0-.72,3.76,2.78,2.78,0,0,1-.21,3.29,2.78,2.78,0,0,0,.24,3.82,2.78,2.78,0,0,1,.62,3.23A2.77,2.77,0,0,0,5,40.1a2.77,2.77,0,0,1,1.4,3,2.79,2.79,0,0,0,2.06,3.24,2.77,2.77,0,0,1,2.09,2.53,2.79,2.79,0,0,0,2.79,2.62A2.79,2.79,0,0,1,16,53.41a2.77,2.77,0,0,0,3.35,1.84,2.77,2.77,0,0,1,3.06,1.21,2.78,2.78,0,0,0,3.71,1,2.78,2.78,0,0,1,3.27.41,2.78,2.78,0,0,0,3.83,0,2.77,2.77,0,0,1,3.26-.41,2.78,2.78,0,0,0,3.71-1,2.78,2.78,0,0,1,3.06-1.21,2.78,2.78,0,0,0,3.36-1.84,2.79,2.79,0,0,1,2.66-1.94A2.77,2.77,0,0,0,52,48.85a2.77,2.77,0,0,1,2.1-2.53,2.77,2.77,0,0,0,2-3.24,2.8,2.8,0,0,1,1.4-3,2.79,2.79,0,0,0,1.19-3.64,2.77,2.77,0,0,1,.61-3.23A2.77,2.77,0,0,0,59.63,29.41ZM31.28,46.89A17.23,17.23,0,1,1,48.51,29.66,17.25,17.25,0,0,1,31.28,46.89Z"/><path class="cls-2" d="M84.4,10.77a2.44,2.44,0,0,0-.84-3.67L81.27,6A2.43,2.43,0,0,1,80,4.35l-.61-2.49A2.43,2.43,0,0,0,76,.23L73.66,1.3a2.45,2.45,0,0,1-2,0L69.29.23a2.44,2.44,0,0,0-3.4,1.63l-.6,2.49A2.43,2.43,0,0,1,64,6L61.72,7.1a2.44,2.44,0,0,0-.84,3.67l1.57,2a2.46,2.46,0,0,1,.45,2l-.53,2.5a2.44,2.44,0,0,0,2.35,2.95l2.56,0a2.42,2.42,0,0,1,1.85.89l1.62,2a2.44,2.44,0,0,0,3.77,0l1.63-2A2.41,2.41,0,0,1,78,20.29l2.56,0a2.45,2.45,0,0,0,2.35-2.95l-.54-2.5a2.43,2.43,0,0,1,.46-2ZM72.64,17.45A5.43,5.43,0,1,1,78.06,12,5.43,5.43,0,0,1,72.64,17.45Z"/><path class="cls-2" d="M68.06,45.65A6,6,0,0,0,66,46L38.81,29.6A7.53,7.53,0,0,0,27.2,23.34l4.08,2.38a3.53,3.53,0,0,1-1.71,6.61,3.49,3.49,0,0,1-2.19-.77l-3.61-2.3c0,.13,0,.27,0,.4a7.53,7.53,0,0,0,7.52,7.53,7.41,7.41,0,0,0,3.72-1L62.23,52.62a5.93,5.93,0,1,0,5.83-7Zm2.77,7.52-2.77,1.59L65.3,53.17V50l2.76-1.6L70.83,50Z"/><path class="cls-1" d="M78.21,60.24V32a2.93,2.93,0,0,1,2.93-2.93H93.76A9.87,9.87,0,0,1,99.64,31l16.47,14.08a58.74,58.74,0,0,1,13.36,4.15,5.77,5.77,0,0,1,2.94,3.29A73.83,73.83,0,0,1,135.81,72a2.33,2.33,0,0,1-2.32,2.38H6.83a5.09,5.09,0,0,1-4.75-3.28l-1.89-5a2.85,2.85,0,0,1,2.66-3.86H76.19A2,2,0,0,0,78.21,60.24Z"/><path class="cls-2" d="M108.61,45.06,97.45,34.92a4.11,4.11,0,0,0-2.43-.8H86.55a1.45,1.45,0,0,0-1.45,1.63l1.05,8.52a3,3,0,0,0,2.52,2.59l17.9,3.1a2.73,2.73,0,0,0,2.88-1.54h0A2.73,2.73,0,0,0,108.61,45.06Z"/><circle class="cls-2" cx="118.74" cy="75.28" r="10.61"/><circle class="cls-1" cx="118.74" cy="75.28" r="3.88"/><circle class="cls-2" cx="45.8" cy="75.28" r="10.61"/><circle class="cls-1" cx="45.8" cy="75.28" r="3.88"/><circle class="cls-2" cx="21.39" cy="75.28" r="10.61"/><circle class="cls-1" cx="21.39" cy="75.28" r="3.88"/></svg>