<svg id="Layer_1" data-name="Layer 1" xmlns="http://www.w3.org/2000/svg" width="150" height="64.11" viewBox="0 0 150 64.11"><defs><style>.cls-1{fill:#0f4f7b;}.cls-2{fill:#fff;}.cls-3{fill:#65a5bd;}</style></defs><path class="cls-1" d="M68.27,6.22l7.29-1.08L73.84,1.6A2.84,2.84,0,0,0,71.28,0H65.05a2.85,2.85,0,0,0-2.56,1.6L60.77,5.14l7.29,1.08v0h.21Z"/><path class="cls-1" d="M57.71,16.39,1.44,14.72,1.29,15.8a34.72,34.72,0,0,0-.25,4H1v.27H1c.06,7.74,2.35,12.07,4,14.2A4.43,4.43,0,0,0,8.54,36H80.15a2.57,2.57,0,0,0,2.57-2.57V19l-7.23-.56Z"/><path class="cls-2" d="M80.15,3.89H8.54A4.43,4.43,0,0,0,5.05,5.6a19.58,19.58,0,0,0-3.61,9.12,19.68,19.68,0,0,0,3.61,9.13,4.43,4.43,0,0,0,3.49,1.71H75.7a7,7,0,0,0,7-7V6.46A2.57,2.57,0,0,0,80.15,3.89Z"/><path class="cls-2" d="M92.58,38.55V10.42A2.92,2.92,0,0,1,95.5,7.5h12.58a9.81,9.81,0,0,1,5.86,1.94l16.42,14a58.68,58.68,0,0,1,13.32,4.14,5.74,5.74,0,0,1,2.93,3.28A72.91,72.91,0,0,1,150,50.28a2.31,2.31,0,0,1-2.32,2.36H10a5.07,5.07,0,0,1-4.73-3.26l-1.89-5A2.84,2.84,0,0,1,6,40.56H90.57A2,2,0,0,0,92.58,38.55Z"/><path class="cls-1" d="M122.88,23.41,111.76,13.3a4.06,4.06,0,0,0-2.42-.8h-8.45a1.45,1.45,0,0,0-1.44,1.63l1,8.49A3,3,0,0,0,103,25.2l17.84,3.09a2.7,2.7,0,0,0,2.87-1.53h0A2.71,2.71,0,0,0,122.88,23.41Z"/><rect class="cls-1" x="67.09" y="43.48" width="22.92" height="13.13" rx="3.31"/><circle class="cls-1" cx="132.98" cy="53.54" r="10.57"/><circle class="cls-2" cx="132.98" cy="53.54" r="3.87"/><circle class="cls-1" cx="48.81" cy="53.54" r="10.57"/><circle class="cls-2" cx="48.81" cy="53.54" r="3.87"/><circle class="cls-1" cx="24.47" cy="53.54" r="10.57"/><circle class="cls-2" cx="24.47" cy="53.54" r="3.87"/><rect class="cls-2" y="32.23" width="86.26" height="4.58" rx="2.29"/><path class="cls-3" d="M47.34,18.12v0A5,5,0,0,0,45,13.7c-1.34-.84-3.06-1.48-2.76-3.28a.45.45,0,0,0-.64-.47c-1,.51-2.17,2.22-.83,5.11.77,1.48-.11,2.11-.83,2.07s-1.32-1.23-1.18-2.51a.45.45,0,0,0-.76-.38,5.46,5.46,0,0,0-1.61,4.25h0a5.46,5.46,0,0,0,10.91-.33Z"/><path class="cls-2" d="M85.08,49H72a1.36,1.36,0,0,1,0-2.71H85.08a1.36,1.36,0,0,1,0,2.71Z"/></svg>