<svg id="Layer_1" data-name="Layer 1" xmlns="http://www.w3.org/2000/svg" width="86.32" height="97.89" viewBox="0 0 86.32 97.89"><defs><style>.cls-1{fill:#0f4f7b;}.cls-2{fill:#3eacce;}.cls-3{fill:#fff;}</style></defs><path class="cls-1" d="M71.78,59.55A37.61,37.61,0,0,1,43.86,71.9H43.3l18,26L68.1,81l18.22-.42Zm-56.62-.9L0,80.58,18.22,81l6.83,16.89,18-26A37.61,37.61,0,0,1,15.16,58.65Z"/><path class="cls-2" d="M43.16,11.23A25.84,25.84,0,0,0,17.4,35.61h0l7.93,9.66-.72,9.66h0a25.79,25.79,0,1,0,18.55-43.7Z"/><path class="cls-2" d="M43.16,0a37,37,0,1,0,37,37A37,37,0,0,0,43.16,0Zm0,67.39A30.36,30.36,0,1,1,73.51,37,30.39,30.39,0,0,1,43.16,67.39Z"/><path class="cls-3" d="M30.37,52.74l3.8.48c.8.1,6.95,1.82,9.46,1.71s8.34-1.1,9.78-2a2.76,2.76,0,0,0,1.1-3.08c-.08-.83.43-1.71,1.17-3s0-2.38,0-2.86,1.36-2.14,1.51-2.81-1-2.46-1.08-2.94.91-2.16,1.07-2.91-.8-2.25-1.29-2.91S54,31.3,49.75,31.3s-5.48-.37-5.91-1.17,1.42-3.37,2.14-4.87a8.37,8.37,0,0,0,0-7.16c-1.39-2.73-3.58-2-3.9-.3A24.71,24.71,0,0,1,40.18,24c-.77,1.23-3.85,3.48-4.92,6.1s-2.59,5.69-4,6.57l-.91.32Z"/><path class="cls-1" d="M28.31,35.61H17.4c0,.47,0,1,0,1.42a25.7,25.7,0,0,0,7.25,17.9h3.7a2.06,2.06,0,0,0,2.06-2.06V37.68A2.07,2.07,0,0,0,28.31,35.61Z"/></svg>