<svg id="Layer_1" data-name="Layer 1" xmlns="http://www.w3.org/2000/svg" width="163.57" height="53.81" viewBox="0 0 163.57 53.81"><defs><style>.cls-1{fill:#0f4f7b;}.cls-2{fill:#fff;}</style></defs><path class="cls-1" d="M95,29.82,95.91,28a2.81,2.81,0,0,1,2.53-1.59H101a2.77,2.77,0,0,0,2.4-1.36h0a2.82,2.82,0,0,1,2.4-1.36h4.14a2.8,2.8,0,0,1,2.75,2.3l1.09,6-16.53-.28Z"/><path class="cls-2" d="M121.15,29.66H86.6a3.08,3.08,0,0,0-2.32,1.05l-6.17,7H7.24L5,15.69c-.06-.64-1-.89-1.6-.41L1,17.25a2.66,2.66,0,0,0-1,2.28L2.13,40.14h0a2.71,2.71,0,0,0,.13.83l.44,1.31a6.06,6.06,0,0,0,5.75,4.13H76.2a3.11,3.11,0,0,0,2.32-1L87.62,35H117a3.54,3.54,0,0,0,2.69-1.25l2.14-2.53A.94.94,0,0,0,121.15,29.66Z"/><path class="cls-2" d="M155.38,46.41s3,0,5.3-.21a3.08,3.08,0,0,0,2.86-3c.12-7.28-.11-17-.92-17.92-.74-3.31-2-8.27-2-8.27l-1.46-5a4.24,4.24,0,0,0-1.77-2.38,8.49,8.49,0,0,0-4-1.32c-2.4-2.17-11.29-4.2-16.18-5.09a3.18,3.18,0,0,0-3.68,2.55c-.91,5.05-1.48,15.78-2.47,26.69a1.63,1.63,0,0,0,1.27,1.74c2.62.59,3.84,1,3.84,1l-1,2.51H90.89A2.45,2.45,0,0,0,88.57,41L89,42.28a6.06,6.06,0,0,0,5.75,4.13h60.62Z"/><path class="cls-1" d="M156,15.38c.45,1.55,1.17,4.18,1.79,7.19a2,2,0,0,1-2.32,2.4,49,49,0,0,1-10.18-2.73c0-.11.36-4.06.58-6.47a2,2,0,0,1,2-1.85h6.16A2,2,0,0,1,156,15.38Z"/><circle class="cls-1" cx="103.16" cy="47.52" r="6.29"/><circle class="cls-2" cx="103.16" cy="47.52" r="2.3"/><circle class="cls-1" cx="118.12" cy="47.52" r="6.29"/><circle class="cls-2" cx="118.12" cy="47.52" r="2.3"/><circle class="cls-1" cx="142.65" cy="47.52" r="6.29"/><circle class="cls-2" cx="142.65" cy="47.52" r="2.3"/><circle class="cls-1" cx="16.88" cy="47.52" r="6.29"/><circle class="cls-2" cx="16.88" cy="47.52" r="2.3"/><circle class="cls-1" cx="32.11" cy="47.52" r="6.29"/><circle class="cls-2" cx="32.11" cy="47.52" r="2.3"/><circle class="cls-1" cx="47.35" cy="47.52" r="6.29"/><circle class="cls-2" cx="47.35" cy="47.52" r="2.3"/><path class="cls-2" d="M19.09,23.38l-3.62-4.6a1.84,1.84,0,0,1-.39-1.15V12.15a1.86,1.86,0,0,1,1.24-1.75l3.61-1.24L21,1.51A1.51,1.51,0,0,1,22.55,0h13a4.51,4.51,0,0,1,4,2.51l5,8.15H61.77a1.83,1.83,0,0,1,1.53.83l1.42,2.13a1.83,1.83,0,0,1,.18,1.71L60.36,26.6a1.79,1.79,0,0,1-1.67,1.13H21.38Z"/><rect class="cls-1" x="10.89" y="21.54" width="43.41" height="12.38" rx="6.19"/><path class="cls-1" d="M23.07,3.38l-.75,4.47a1.18,1.18,0,0,0,1.17,1.31h4.65a1.17,1.17,0,0,0,1.17-1.23L29,3.46a1.17,1.17,0,0,0-1.17-1.12H24.24A1.18,1.18,0,0,0,23.07,3.38Zm14.5.12a2.26,2.26,0,0,0-1.34-1.16h-4a.93.93,0,0,0-.93,1l.67,12a.94.94,0,0,0,.93.89h5.4a.93.93,0,0,0,.74-.36l3.05-3.95a.94.94,0,0,0,.1-1Z"/><polygon class="cls-1" points="69.05 20.03 61.35 20.03 62.97 21.54 64.14 22.04 70.28 27.06 69.05 20.03"/><path class="cls-1" d="M47.59,15.89H72.54a0,0,0,0,1,0,0v2.57a0,0,0,0,1,0,0H47.59a1.2,1.2,0,0,1-1.2-1.2v-.17A1.2,1.2,0,0,1,47.59,15.89Z" transform="translate(31.12 -37.85) rotate(46.64)"/><path class="cls-2" d="M29.95,26.28H69.37a0,0,0,0,1,0,0v2.57a0,0,0,0,1,0,0H29.95a1.28,1.28,0,0,1-1.28-1.28v0A1.28,1.28,0,0,1,29.95,26.28Z"/><path class="cls-1" d="M68.85,17.47h.48a1.06,1.06,0,0,1,1,.81l2.37,10,2.49,2.09a.83.83,0,0,1,.3.63v.13a.83.83,0,0,1-.83.83H70.13a1.4,1.4,0,0,1-1.4-1.3L67.8,18.61A1.05,1.05,0,0,1,68.85,17.47Z"/></svg>