<svg width="288" height="211" viewBox="0 0 288 211" fill="none" xmlns="http://www.w3.org/2000/svg">
<path d="M182.672 2.93952L174.001 6C200 30.7862 255.923 78.7044 260.001 80C265.385 81.1101 270.481 80.5445 274.783 79.2462C282.913 76.7929 287.87 68.5972 287.072 60.1434C286.722 56.443 285.809 53.0656 284.562 50.0398C279.336 37.3575 265.625 31.3237 252.977 26.0148L199.145 3.41839C193.904 1.21855 188.032 1.04785 182.672 2.93952Z" fill="#FFB525"/>
<path d="M138.69 49.7415L148 53C113.634 85.6699 40.3897 150.292 35 152C30.8824 153.103 26.8634 153.069 23.1015 152.326C7.1179 149.173 -2.35751 131.234 1.6461 115.442C1.87012 114.558 2.118 113.695 2.38727 112.852C8.19997 94.6557 27.9385 86.3918 45.6518 79.2415L117.498 50.2395C124.267 47.5068 131.8 47.3298 138.69 49.7415Z" fill="#FFB525"/>
<path d="M202.001 73C201.024 73.5567 197.695 73.8014 196.001 74V73L205.001 58L211.001 60C208.509 63.9751 202.978 72.4433 202.001 73Z" fill="#FFB525"/>
<path d="M111.001 140C112.304 140.731 116.743 141.739 119.001 142V140L107.001 121L99.001 124C102.323 129.217 109.698 139.269 111.001 140Z" fill="#FFB525"/>
<path d="M167.001 17C163.007 38.763 181.753 50.8611 192.001 54L253.494 79.7607C261.377 83.0632 271.194 83.1532 276.281 76.2847C280.569 70.4948 281.223 64.1754 279.887 58.2264C276.133 41.5063 258.014 33.6055 242.242 26.9027L204.926 11.0432C192.45 5.74107 174.946 0.0460043 168.666 12.0595C167.903 13.5202 167.337 15.1652 167.001 17Z" fill="#FDD21B"/>
<path d="M157.001 68C162.247 96.6635 137.46 111.866 124.001 116L41.4068 150.206C31.0619 154.49 18.2154 154.573 11.5346 145.588C6.04124 138.2 5.06076 130.165 6.61061 122.558C11.1952 100.054 35.7276 89.4889 56.8975 80.5857L107.315 59.3821C123.592 52.5368 146.092 45.4578 154.554 60.9558C155.689 63.035 156.522 65.3835 157.001 68Z" fill="#FDD21B"/>
<path d="M191.001 52L191.003 52.0148C191.459 52.2519 202.386 55.2795 208.001 57L196.722 72.3069C195.741 73.6384 193.637 73.0892 193.432 71.448L191.003 52.0148C190.984 52.005 190.983 52 191.001 52Z" fill="#FDD21B"/>
<path d="M125.001 114L124.998 114.021C124.404 114.363 110.266 118.706 103.001 121L117.421 141.028C118.699 142.802 121.49 142.09 121.761 139.921L124.998 114.021C125.023 114.007 125.024 114 125.001 114Z" fill="#FDD21B"/>
<ellipse rx="47.5" ry="6.5" transform="matrix(0.921966 0.387272 -0.388466 0.921463 223.269 107.385)" fill="#4A55D0"/>
<ellipse rx="51.5" ry="9.5" transform="matrix(0.909694 -0.41528 0.416527 0.909123 84.8072 180.25)" fill="#4550CF"/>
<path d="M36.001 108L92.001 83M132.001 66L107.001 77" stroke="white" stroke-width="5.2697" stroke-linecap="round"/>
<path d="M36.001 121L73.001 105M132.001 79L84.001 100" stroke="white" stroke-width="5.2697" stroke-linecap="round"/>
<path d="M36.001 134L110.001 102M132.001 92L118.001 98" stroke="white" stroke-width="5.2697" stroke-linecap="round"/>
<path d="M186.001 18L243.001 41" stroke="white" stroke-width="5.2697" stroke-linecap="round"/>
<path d="M186.001 30L219.001 43M243.001 53L229.001 48" stroke="white" stroke-width="5.2697" stroke-linecap="round"/>
</svg>
