<svg width="483" height="350" viewBox="0 0 483 350" fill="none" xmlns="http://www.w3.org/2000/svg">
<path d="M426 41.9997C359.69 -11.9284 267.632 97.3665 265 99.9997C276.624 116.457 354.893 149.123 367 206C382.134 277.095 461.55 273.98 478 220C494.45 166.02 410.134 149.432 395 131C388.529 123.118 394.618 117.376 404.629 112.364C422.818 103.258 439.952 88.9213 438.463 68.6347C437.715 58.4369 434.247 48.7069 426 41.9997Z" fill="#FFD35A"/>
<ellipse cx="45" cy="223.5" rx="20" ry="18.5" fill="#FFD35A"/>
<path d="M170.429 209.986C255.942 216.329 268.385 73.9521 269.02 70.2789C249.981 63.4085 167.264 81.8371 124.468 42.0096C70.9739 -7.77481 7.15555 39.5345 24.8739 93.3443C42.5922 147.154 121.596 112.928 144.653 119.412C154.516 122.185 152.812 130.366 147.475 140.195C137.784 158.044 132.011 179.586 144.886 195.324C151.355 203.231 159.786 209.197 170.429 209.986Z" fill="#FFD35A"/>
<ellipse cx="255" cy="331.5" rx="169" ry="18.5" fill="#6D76E7" fill-opacity="0.38"/>
<path d="M132 20L124 21L127 30L286 84L302 37L132 20Z" fill="#7E88FE"/>
<path d="M233.999 236C232.152 246.58 229.69 258.175 229.999 269C230.213 276.474 233.699 283.386 236.999 290C243.495 303.018 253.517 315.789 266.999 322C279.665 327.835 293.353 329.767 306.999 327C314.547 325.47 321.856 322.813 328.999 320" stroke="#588DED" stroke-width="2.21466" stroke-linecap="round" stroke-dasharray="6.64 6.64"/>
<path d="M348 183V185C351.204 185.321 352.668 185.187 353 185C353 184.081 349.527 183.053 348 183Z" fill="#11243E"/>
<path d="M469.914 153.684C406.469 169 390.355 204.161 390.125 220.576C358.128 246.217 311.098 288.979 378.359 256.708C434.87 229.595 465.355 188.743 477.966 163.44C480.713 157.929 475.902 152.238 469.914 153.684Z" fill="#4ED98D"/>
<mask id="mask0_3_8222" style="mask-type:alpha" maskUnits="userSpaceOnUse" x="343" y="153" width="136" height="116">
<path d="M469.943 153.56C406.424 168.939 390.254 204.089 390.003 220.489C357.948 246.146 310.825 288.927 378.183 256.604C434.777 229.447 465.337 188.594 477.991 163.299C480.747 157.789 475.938 152.109 469.943 153.56Z" fill="#4ED98D"/>
</mask>
<g mask="url(#mask0_3_8222)">
<path d="M392.999 233C433.224 209.632 464.91 180.003 475.999 168L478.999 180L419.999 260C393.927 260.923 352.774 256.368 392.999 233Z" fill="#1F35A8" fill-opacity="0.12"/>
</g>
<mask id="mask1_3_8222" style="mask-type:alpha" maskUnits="userSpaceOnUse" x="343" y="153" width="136" height="116">
<path d="M469.943 153.56C406.424 168.939 390.254 204.089 390.003 220.489C357.948 246.146 310.825 288.927 378.183 256.604C434.777 229.447 465.337 188.594 477.991 163.299C480.747 157.789 475.938 152.109 469.943 153.56Z" fill="#4ED98D"/>
</mask>
<g mask="url(#mask1_3_8222)">
<path d="M483 151L391 221" stroke="#DCFFEC" stroke-width="1.84555"/>
<path d="M409 207C409.952 207 434.874 210.836 444 212" stroke="#DCFFEC" stroke-width="1.84555"/>
<circle cx="416.5" cy="218.5" r="3.57722" stroke="#DCFFEC" stroke-width="1.84555"/>
<path d="M452 175L472 176" stroke="#DCFFEC" stroke-width="1.84555"/>
<path d="M445 180L469 182" stroke="#DCFFEC" stroke-width="1.84555"/>
<path d="M441 183L443 160" stroke="#DCFFEC" stroke-width="1.84555"/>
<path d="M424 196C424.933 196 443.056 198 452 199" stroke="#DCFFEC" stroke-width="1.84555"/>
</g>
<path d="M456.015 80.3641C385.378 122.899 378.919 170.36 384.999 190C357.117 232.536 318.082 301.863 384.999 238C442.34 183.277 462.946 122.149 467.792 87.8096C468.731 81.1572 461.77 76.8985 456.015 80.3641Z" fill="#43EB8F"/>
<path d="M37 110L25 113L44 129L239 162L242 146L110 132L102 116L37 110Z" fill="#ED1E79"/>
<path d="M55.2398 214.283L124.624 21.9886L295.733 38.8027L222.394 243.955L55.2398 214.283Z" fill="#C8BEFF" stroke="#7E88FE" stroke-width="1.84555"/>
<mask id="mask2_3_8222" style="mask-type:alpha" maskUnits="userSpaceOnUse" x="54" y="21" width="243" height="224">
<path d="M55.2398 214.283L124.624 21.9886L295.733 38.8027L222.394 243.955L55.2398 214.283Z" fill="#C8BEFF" stroke="#7E88FE" stroke-width="1.84555"/>
</mask>
<g mask="url(#mask2_3_8222)">
<path d="M233 48L119 37L149 138L213 152L233 48Z" fill="#7E88FE" fill-opacity="0.23"/>
</g>
<path d="M65 36L59 37V118L209 151L210 50L65 36Z" fill="#7E88FE"/>
<path d="M205.087 244.077H59.9228V38.0135L207.069 51.8393L205.087 244.077Z" fill="white" stroke="#7E88FE" stroke-width="1.84555"/>
<mask id="mask3_3_8222" style="mask-type:alpha" maskUnits="userSpaceOnUse" x="57" y="37" width="149" height="208">
<path d="M203.087 244.077H57.9228V38.0135L205.069 51.8393L203.087 244.077Z" fill="white" stroke="#7E88FE" stroke-width="1.84555"/>
</mask>
<g mask="url(#mask3_3_8222)">
<path d="M188.632 141.456C159.249 139.415 113.605 133.682 95 131L91 142L216 168L208 88.0004C204.803 83.2615 206.98 72.7373 205 94.0004C203.595 109.089 201.445 123.205 199.757 132.776C198.816 138.114 194.039 141.831 188.632 141.456Z" fill="#C7CBF6" fill-opacity="0.37"/>
</g>
<path d="M222.252 270.869L239 229L249 154L103 137L99.2758 129.086C96.6235 123.45 91.2061 119.621 85.0079 119.001L25 113L55.7271 245.22C57.0988 251.122 61.9378 255.587 67.9314 256.48L210.338 277.709C215.415 278.466 220.346 275.635 222.252 270.869Z" fill="#FF4F9C"/>
<mask id="mask4_3_8222" style="mask-type:alpha" maskUnits="userSpaceOnUse" x="348" y="75" width="121" height="189">
<path d="M463.524 75.9994C385.836 119.605 378.71 169.685 384.999 190C357.117 232.536 318.082 301.863 384.999 238C447.516 178.337 466.367 111.061 468.735 79.1891C468.942 76.3975 465.965 74.6293 463.524 75.9994Z" fill="#3EF993"/>
</mask>
<g mask="url(#mask4_3_8222)">
<path d="M464 80L387 192" stroke="#D3FFE7" stroke-width="1.9932"/>
<path d="M439 116L436 92" stroke="#D3FFE7" stroke-width="1.9932"/>
<path d="M435 121L432 95" stroke="#D3FFE7" stroke-width="1.9932"/>
<path d="M419 146L455 140" stroke="#D3FFE7" stroke-width="1.9932"/>
<path d="M398 175L441 169" stroke="#D3FFE7" stroke-width="1.9932"/>
<circle cx="428" cy="158" r="4.0034" stroke="#D3FFE7" stroke-width="1.9932"/>
<circle cx="447" cy="94" r="3.0034" stroke="#D3FFE7" stroke-width="1.9932"/>
</g>
<mask id="mask5_3_8222" style="mask-type:alpha" maskUnits="userSpaceOnUse" x="25" y="113" width="224" height="165">
<path d="M222.252 270.869L239 229L249 154L103 137L99.2758 129.086C96.6235 123.45 91.2061 119.621 85.0079 119.001L25 113L55.7271 245.22C57.0988 251.122 61.9378 255.587 67.9314 256.48L210.338 277.709C215.415 278.466 220.346 275.635 222.252 270.869Z" fill="#FF4F9C"/>
</mask>
<g mask="url(#mask5_3_8222)">
<path d="M174.782 258.52C118.331 255.27 59.7358 246.286 48 239V257L220 290L254 152L225 144C218.334 178.626 199.584 225.201 187.924 250.666C185.592 255.76 180.375 258.842 174.782 258.52Z" fill="#ED1E79"/>
</g>
<path d="M207.001 157C206.57 168.148 215.977 184.257 221.001 191C227.28 187.104 238.182 175.384 230.001 161C219.774 143.02 207.539 143.065 207.001 157Z" fill="#FDDEBF"/>
<path d="M226.299 126.868C223.791 139.089 234.561 158.982 240.19 167.486C249.355 164.504 265.726 154.335 257.146 136.727C246.422 114.717 229.435 111.591 226.299 126.868Z" fill="#FDDEBF"/>
<path d="M315 332C291.279 314.08 257.178 271.269 235 252L243 211C287.115 177.761 377.586 115.814 388 132C401.018 152.232 384.875 203.542 395 231C403.1 252.966 409.143 261.161 413 272C395.939 321.533 338.938 334.905 315 332Z" fill="#FDDEBF"/>
<mask id="mask6_3_8222" style="mask-type:alpha" maskUnits="userSpaceOnUse" x="206" y="146" width="27" height="46">
<path d="M206.999 157C206.568 168.148 215.975 184.258 220.999 191C227.278 187.105 238.18 175.384 229.999 161C219.772 143.02 207.537 143.066 206.999 157Z" fill="#FDDEBF"/>
</mask>
<g mask="url(#mask6_3_8222)">
<path d="M227.998 181C217.051 180.01 210.417 158.002 207.998 147L198.998 145L195.998 181L226.998 191C232.112 188.113 238.945 181.991 227.998 181Z" fill="#F8D3AC"/>
</g>
<mask id="mask7_3_8222" style="mask-type:alpha" maskUnits="userSpaceOnUse" x="225" y="117" width="35" height="51">
<path d="M226.324 126.872C223.845 139.096 234.65 159.027 240.294 167.549C249.446 164.586 265.783 154.445 257.171 136.806C246.407 114.757 229.424 111.591 226.324 126.872Z" fill="#FDDEBF"/>
</mask>
<g mask="url(#mask7_3_8222)">
<path d="M249.998 152C239.606 151.031 231.294 129.762 228.998 119L220.998 117L217.998 152L247.998 162C252.853 159.175 260.39 152.969 249.998 152Z" fill="#F8D3AC"/>
</g>
<path d="M243.299 91.8677C240.791 104.089 251.561 123.982 257.19 132.486C266.355 129.504 282.726 119.335 274.146 101.727C263.422 79.717 246.435 76.5908 243.299 91.8677Z" fill="#FDDEBF"/>
<path d="M233.001 129C233.873 136.24 244.331 134.122 249.001 132L252.001 120L250.001 114L237.001 116C235.387 117.791 232.307 123.24 233.001 129Z" fill="#11243E"/>
<mask id="mask8_3_8222" style="mask-type:alpha" maskUnits="userSpaceOnUse" x="235" y="129" width="178" height="204">
<path d="M315 332C291.279 314.08 257.178 271.269 235 252L243 211C287.115 177.762 377.586 115.815 388 132C401.018 152.232 384.875 203.542 395 231C403.1 252.967 409.143 261.162 413 272C395.939 321.534 338.938 334.905 315 332Z" fill="#FDDEBF"/>
</mask>
<g mask="url(#mask8_3_8222)">
<path d="M349 310C306.639 319.484 264.372 271.355 262 270L247 264L255 287L309 332L346 342L430 270L412 258C405.109 272.339 382.889 302.413 349 310Z" fill="#FBC996" fill-opacity="0.48"/>
</g>
<path d="M271 75.0003C263.714 77.0196 254.694 76.5963 251 76.0003L255 106C263.449 94.9572 278.286 72.981 271 75.0003Z" fill="#11243E"/>
<path d="M196.048 256.724C195.574 254.288 195.676 252.28 196 251L298 267L371 78C378.615 80.0944 382.576 84.4235 384.473 88.3034C386.2 91.8354 385.364 95.9074 384.121 99.6371L325.951 274.145C323.67 280.987 316.78 285.18 309.654 284.061L212.374 268.786C205.059 267.637 197.462 263.992 196.048 256.724Z" fill="#11243E"/>
<path d="M378.915 91.3182L319.698 269.865C318.14 274.563 313.42 277.452 308.528 276.702L205.478 260.912C199.069 259.93 195.212 253.272 197.548 247.224L263.28 77.0411C264.895 72.8617 269.059 70.2353 273.526 70.5789L370.06 78.0046C376.637 78.5105 380.991 85.0574 378.915 91.3182Z" fill="#7E88FE"/>
<path d="M231.263 240.669L250.021 191.217C251.033 188.55 249.297 185.637 246.47 185.256L136.284 170.442C134.337 170.18 132.45 171.232 131.649 173.026L110.382 220.665C109.186 223.344 110.877 226.425 113.78 226.853L226.476 243.48C228.534 243.784 230.526 242.614 231.263 240.669Z" fill="#11243E"/>
<path d="M391 196C390.721 204.202 391.713 217.407 392 223L357 213C357.589 200.188 359.962 169.884 364 150C369.048 125.144 384.564 120.188 391 133C397.436 145.812 391.348 185.747 391 196Z" fill="#FDDEBF"/>
<path d="M381.999 133C380.591 136.138 378.227 143.462 378.999 148C379.702 152.129 386.29 151.659 391.999 149" stroke="#EB996C" stroke-width="2.21466" stroke-linecap="round"/>
<path d="M392 159C388.642 159.476 381.54 160.543 380 161" stroke="#EB996C" stroke-width="2.21466" stroke-linecap="round"/>
<path d="M392 164C388.642 164.476 381.54 165.543 380 166" stroke="#EB996C" stroke-width="2.21466" stroke-linecap="round"/>
<path d="M347 179C347.159 178.288 344.462 178.063 343 178C342.745 178.632 342.021 179.95 342 180C341.974 180.063 346.802 179.89 347 179Z" fill="#11243E"/>
<path d="M263 80L381 90C382.393 82.4643 376.638 78.6936 372 78L275.229 70.1801C273.747 70.0604 272.237 70.0357 270.804 70.4311C265.225 71.9697 264.481 76.1443 263 80Z" fill="#ACB3FE"/>
<path fill-rule="evenodd" clip-rule="evenodd" d="M323.576 254.806L318.672 269.816C317.129 274.537 312.397 277.448 307.488 276.696L204.409 260.902C198.022 259.923 194.164 253.303 196.46 247.263L199.966 238.043C199.977 238.029 199.989 238.014 200 238L323.576 254.806Z" fill="#ACB3FE"/>
<path d="M233.498 254.475L197 249L200 243L248 200L258 201L238.283 251.7C237.533 253.63 235.546 254.782 233.498 254.475Z" fill="#2760C1" fill-opacity="0.54"/>
<path d="M236.261 251.619L255.078 201.154C256.066 198.505 254.353 195.622 251.554 195.222L141.281 179.469C139.336 179.191 137.44 180.227 136.625 182.015L114.428 230.677C113.209 233.349 114.88 236.445 117.782 236.893L231.434 254.449C233.511 254.77 235.527 253.588 236.261 251.619Z" fill="#11243E"/>
<ellipse rx="8.5" ry="9" transform="matrix(0.938106 0.346349 -0.347977 0.937503 257.842 256.381)" fill="#757FF8"/>
<rect width="32" height="2" rx="1" transform="matrix(0.996858 0.0792033 -0.0796241 0.996825 305 77)" fill="#11243E"/>
<path d="M257.999 83.0001C255.235 81.3748 248.828 80.131 243.999 88.0001C240.943 92.9801 242.187 100.897 243.999 107" stroke="#11243E" stroke-width="0.386617"/>
<path d="M228.248 238.612L246.08 190.212C247.063 187.543 245.312 184.652 242.492 184.288L135.275 170.423C133.332 170.172 131.455 171.227 130.659 173.017L110.36 218.691C109.172 221.363 110.854 224.432 113.745 224.869L223.43 241.46C225.508 241.774 227.522 240.584 228.248 238.612Z" fill="#43EB8F"/>
<path d="M231.272 246.708L249.97 198.264C251.004 195.585 249.254 192.645 246.406 192.276L139.299 178.426C137.345 178.174 135.46 179.242 134.672 181.048L114.326 227.673C113.156 230.354 114.859 233.412 117.754 233.829L226.508 249.497C228.552 249.791 230.529 248.634 231.272 246.708Z" fill="white"/>
<path d="M289 185H296H300L327 253L325 258C311.516 256.195 298.892 258.248 292 259C292 248.893 290.049 205.455 289 185Z" fill="#417ED2" fill-opacity="0.73"/>
<path d="M364.372 121.884L372.406 97.7822C372.708 96.8747 372.081 95.9234 371.128 95.844L314.066 91.0888C313.43 91.0358 312.832 91.3973 312.583 91.9849L302.783 115.149C302.395 116.067 303.009 117.098 304.001 117.194L362.829 122.887C363.514 122.953 364.154 122.537 364.372 121.884Z" fill="white"/>
<path d="M360.398 131.94L362.325 126.8C362.666 125.891 362.053 124.907 361.087 124.812L303.011 119.099C302.402 119.04 301.819 119.361 301.546 119.908L298.961 125.077C298.498 126.004 299.108 127.107 300.14 127.207L358.873 132.891C359.538 132.955 360.163 132.565 360.398 131.94Z" fill="white"/>
<path d="M234.927 168.247L270.741 172.839C271.465 172.931 272.148 172.481 272.349 171.78L273.864 166.475C273.952 166.167 273.938 165.838 273.823 165.539L269.311 153.809C269.119 153.31 268.672 152.953 268.142 152.877L242.128 149.161C241.463 149.066 240.818 149.431 240.558 150.05L233.754 166.21C233.375 167.11 233.958 168.123 234.927 168.247Z" fill="white"/>
<path d="M321 200L324 208L319 213L314 212L313 202L321 200Z" fill="#FDDEBF"/>
<circle cx="321.5" cy="198.5" r="1.5" fill="#FDDEBF"/>
<path d="M316 211C315.541 214.584 315.964 223.801 318 232" stroke="#11243E" stroke-width="0.221466"/>
<path d="M219 198L177 193" stroke="#CBC1FC" stroke-width="2.21466" stroke-linecap="round"/>
<path d="M230 206L175 199" stroke="#CBC1FC" stroke-width="2.21466" stroke-linecap="round"/>
<path d="M228 212L173 204" stroke="#CBC1FC" stroke-width="2.21466" stroke-linecap="round"/>
<path d="M168 77L65 66" stroke="#C7CBF6" stroke-width="2.95288" stroke-linecap="round"/>
<path d="M168 85L65 74" stroke="#C7CBF6" stroke-width="2.95288" stroke-linecap="round"/>
<path d="M168 94L65 83" stroke="#C7CBF6" stroke-width="2.95288" stroke-linecap="round"/>
<path d="M168 103L65 92" stroke="#C7CBF6" stroke-width="2.95288" stroke-linecap="round"/>
<path d="M168 111L65 100" stroke="#C7CBF6" stroke-width="2.95288" stroke-linecap="round"/>
<mask id="mask9_3_8222" style="mask-type:alpha" maskUnits="userSpaceOnUse" x="112" y="147" width="148" height="101">
<path d="M230.294 244.764L258.948 173.129C260.001 170.498 258.345 167.568 255.547 167.113L136.02 147.655C133.747 147.285 131.57 148.718 131.012 150.952L112.189 226.241C111.553 228.787 113.257 231.325 115.855 231.7L225.55 247.503C227.574 247.795 229.535 246.663 230.294 244.764Z" fill="#DD6464"/>
</mask>
<g mask="url(#mask9_3_8222)">
<path d="M213 197L198 202L187 206L188 210L215 200L218 197H213Z" fill="#43EB8F"/>
<path fill-rule="evenodd" clip-rule="evenodd" d="M195 202C194.594 202.543 194.042 206.568 193.554 210.125L193.554 210.126C193.409 211.187 193.269 212.206 193.141 213.079L193 213L182 228L173 218L163 223L161 227C164.942 231.516 173.255 240.917 175 242L175.053 242.033C177.23 243.386 180.216 245.24 185 243C188.277 241.466 195.088 229.809 199.753 221.824C200.438 220.651 201.077 219.558 201.651 218.588L202.339 218.416C203.401 218.15 204.325 217.47 204.707 216.445C205.125 215.327 205.492 213.999 205.85 212.703L205.85 212.703C206.227 211.339 206.595 210.01 207 209L207.655 208.673C208.479 208.261 209 207.419 209 206.497V203L208.025 202.676C208.03 201.521 207.201 200 206 200C205.568 200 205.456 199.973 205.393 199.958C205.323 199.941 205.311 199.938 205 200C204.789 199.5 204.05 198.829 203 199C202.236 199.125 195.86 200.853 195 202Z" fill="#FDDEBF"/>
<path d="M144 203L145 189L157 194L156 205L144 203Z" fill="#FDDEBF"/>
<path fill-rule="evenodd" clip-rule="evenodd" d="M147 199L146 200C144.88 201.004 140.286 203.533 136 205C130.512 206.879 127.828 210.061 126 223C124.539 233.352 125.391 239.95 126 242L143 247L154 248H166C165.42 243.611 166.738 238.231 167.557 234.885C167.737 234.147 167.894 233.508 168 233C174.797 231.174 178.759 226.276 179 224C179 224 179 224 178.999 224C175.431 219.009 166.776 207.725 159.002 204.001C159.001 204.001 159.001 204.001 159 204L158 203L147 199Z" fill="#FAAF49"/>
<path d="M164.593 184.293C165.407 191.864 163.491 197.084 157.309 197.407C151.615 197.705 146.67 193.435 145.769 186.879C144.869 180.324 148.872 173.331 153.907 172.639C165.435 169.083 163.692 177.738 164.593 184.293Z" fill="#FDDEBF"/>
<circle r="0.5" transform="matrix(0.990695 -0.136102 0.136074 0.990699 162.563 183.428)" fill="#11243E"/>
<path d="M158.981 185.728C159.898 185.767 160.852 186.406 161.516 187.078C162.201 187.772 162.259 188.952 161.354 189.313C160.116 189.807 158.141 189.5 157.408 188.972C156.38 188.233 157.078 185.647 158.981 185.728Z" fill="#FEB7A1"/>
<path d="M161 182C161.168 181.765 161.476 181.46 161.898 181.562" stroke="#11243E" stroke-width="0.159404" stroke-linecap="round"/>
<path d="M148.999 194C154.38 193.313 154.172 186.848 153.999 184C153.999 182.323 154.395 180.963 154.955 179.902C156.29 177.37 159.37 176.483 161.746 174.887C165.694 172.235 165.56 170.332 164.999 169C164.3 167.339 160.436 168.966 159.999 168C159.562 167.035 157.917 166.219 156.999 168C156.082 169.782 153.789 165.956 151.999 166C150.21 166.045 150.295 167.151 148.999 169C147.703 170.85 143.9 169.239 141.999 171C140.099 172.762 141.653 180.879 141.999 184C142.422 187.81 143.132 194.751 148.999 194Z" fill="#11243E"/>
<circle r="2.5" transform="matrix(0.990695 -0.136102 0.136074 0.990699 153.817 185.137)" fill="#FDDEBF"/>
<path d="M154.254 185.71C154.046 185.247 153.48 184.122 152 184" stroke="#E9B986" stroke-width="0.36911" stroke-linecap="round"/>
<path d="M152.991 184.864C152.733 185.018 152.335 185.203 152.136 185.991" stroke="#E9B986" stroke-width="0.36911" stroke-linecap="round"/>
<path d="M152 196C154.957 198.3 156.685 198 157 198V200C154.312 198.32 152.493 196.634 152 196Z" fill="#E4A566"/>
<mask id="mask10_3_8222" style="mask-type:alpha" maskUnits="userSpaceOnUse" x="141" y="166" width="25" height="29">
<path d="M148.999 194C154.38 193.313 154.172 186.848 153.999 184C153.999 182.323 154.395 180.963 154.955 179.902C156.29 177.37 159.37 176.483 161.746 174.887C165.694 172.235 165.56 170.332 164.999 169C164.3 167.339 160.436 168.966 159.999 168C159.562 167.035 157.917 166.219 156.999 168C156.082 169.782 153.789 165.956 151.999 166C150.21 166.045 150.295 167.151 148.999 169C147.703 170.85 143.9 169.239 141.999 171C140.099 172.762 141.653 180.879 141.999 184C142.422 187.81 143.132 194.751 148.999 194Z" fill="#11243E"/>
</mask>
<g mask="url(#mask10_3_8222)">
<path d="M139 183C139.929 184.082 142.951 187.435 145 186C149.266 183.013 145.714 172.42 153 171C158.829 169.865 162.143 167.285 163 166" stroke="#253F64" stroke-width="0.738221"/>
<path d="M142 188C142.973 189.963 145.607 193.002 148 191C150.991 188.498 149.012 177.576 153 175C156.988 172.425 165.43 173.312 166 170" stroke="#253F64" stroke-width="0.738221"/>
</g>
<path d="M156.279 202.088C153.886 199.737 147.937 197.952 144.621 197.147C144.257 197.058 143.88 197.236 143.748 197.587C143.163 199.144 142.962 201.208 143.001 202C148.826 202.388 154.946 204.049 157.001 205V204.17C157.001 203.403 156.826 202.625 156.279 202.088Z" fill="#FFDA57"/>
<path d="M121 224C119.348 229.675 120.818 240.009 123 246L157 256C155.825 248.04 150.514 230.931 144 224C137.58 217.17 123.109 216.753 121 224Z" fill="#11243E"/>
<path d="M207 210.001C206.525 209.901 205.986 208.259 206 208.001L205 205.001L206 204.001C206.34 204.073 207.287 203.827 208 204.001C208.892 204.218 209.127 206.602 209 208.001C208.873 209.399 207.594 210.125 207 210.001Z" fill="#FDDEBF"/>
<path d="M209 202.001C207.68 201.298 203.417 201.8 203 202.001L205 207.001C206.39 206.75 208.555 206.322 209 206.001C209.556 205.599 210.32 202.703 209 202.001Z" fill="#FDDEBF"/>
<mask id="mask11_3_8222" style="mask-type:alpha" maskUnits="userSpaceOnUse" x="187" y="197" width="31" height="14">
<path d="M213 197L198 202L187 206L188 210L215 200L218 197H213Z" fill="#2D3CE4"/>
</mask>
<g mask="url(#mask11_3_8222)">
<path d="M216 200L215 197H218L216 200Z" fill="black"/>
<path d="M213 197L215 201" stroke="white" stroke-width="0.405393"/>
</g>
<path d="M119 223C117.348 228.675 118.818 239.009 121 245L155 255C153.825 247.04 148.514 229.931 142 223C135.58 216.17 121.109 215.753 119 223Z" fill="#E8E8E8"/>
</g>
<mask id="mask12_3_8222" style="mask-type:alpha" maskUnits="userSpaceOnUse" x="126" y="200" width="54" height="49">
<path fill-rule="evenodd" clip-rule="evenodd" d="M147.998 200L146.998 201C145.878 202.003 141.284 204.533 136.998 206C131.51 207.879 128.826 211.061 126.998 224C125.537 234.352 126.389 240.949 126.998 243L143.998 248L154.998 249H166.998C166.418 244.61 167.736 239.231 168.555 235.884C168.735 235.147 168.892 234.508 168.998 234C175.795 232.174 179.757 227.276 179.998 225C179.998 225 179.998 224.999 179.997 224.999C176.429 220.009 167.774 208.724 160 205.001C159.999 205.001 159.999 205 159.998 205L158.998 204L147.998 200Z" fill="#FAAF49"/>
</mask>
<g mask="url(#mask12_3_8222)">
<path fill-rule="evenodd" clip-rule="evenodd" d="M170.529 216.359C173.237 219.609 176.322 223.309 176.998 225C175.946 226.535 170.703 229.772 164.998 232C163.479 233.892 161.256 236.479 158.998 238C158.763 238.159 158.565 238.304 158.401 238.437L165.905 239.801C166.67 239.828 167.386 239.887 167.998 240L184.998 227L178.998 215L166.998 212C167.812 213.1 169.119 214.669 170.529 216.359Z" fill="#EDA038"/>
</g>
<path d="M301 122L360 128" stroke="#C6CAFF" stroke-width="1.47644" stroke-linecap="round"/>
<path d="M312 96L370 101" stroke="#C6CAFF" stroke-width="1.47644" stroke-linecap="round"/>
<path d="M330 134L359 137" stroke="#C6CAFF" stroke-width="2.21466" stroke-linecap="round"/>
<path d="M328 139L357 142" stroke="#C6CAFF" stroke-width="2.21466" stroke-linecap="round"/>
<path d="M327 144L356 147" stroke="#C6CAFF" stroke-width="2.21466" stroke-linecap="round"/>
<path d="M241 165L270 168" stroke="#D0F6FF" stroke-width="2.21466" stroke-linecap="round"/>
<mask id="mask13_3_8222" style="mask-type:alpha" maskUnits="userSpaceOnUse" x="163" y="199" width="48" height="48">
<path fill-rule="evenodd" clip-rule="evenodd" d="M197 203C196.594 203.542 196.042 207.568 195.554 211.125L195.554 211.125C195.409 212.186 195.269 213.206 195.141 214.078L195 214L184 229L175 220L165 224L163 229C166.942 233.649 175.255 242.884 177 244L177.018 244.011C179.198 245.405 182.19 247.318 187 245C190.201 243.457 196.774 231.791 201.425 223.535C202.239 222.089 202.995 220.748 203.663 219.584L204.339 219.415C205.401 219.15 206.325 218.47 206.707 217.444C207.125 216.327 207.492 214.998 207.85 213.702L207.85 213.702C208.227 212.338 208.595 211.01 209 210L209.655 209.672C210.479 209.26 211 208.418 211 207.497V204L210.025 203.675C210.03 202.52 209.201 201 208 201C207.568 201 207.456 200.973 207.393 200.957C207.323 200.941 207.311 200.938 207 201C206.789 200.5 206.05 199.829 205 200C204.236 200.125 197.86 201.852 197 203Z" fill="#FDDEBF"/>
</mask>
<g mask="url(#mask13_3_8222)">
<path fill-rule="evenodd" clip-rule="evenodd" d="M208 213C207.345 214.314 205.649 216.719 203 218C201.891 218.536 200.784 220.442 199.261 223.063C196.353 228.067 191.931 235.677 183.097 241.323L194 243L190.832 246.167C193.638 245.838 196.516 245.41 199 245L213 215L208 213ZM186.145 246.614L180 246L178.453 244.84C177.405 246.659 181.126 246.957 186.145 246.614Z" fill="#F2C697" fill-opacity="0.4"/>
</g>
<path d="M242 160L271 163" stroke="#D0F6FF" stroke-width="2.21466" stroke-linecap="round"/>
<path d="M244 155L273 158" stroke="#D0F6FF" stroke-width="2.21466" stroke-linecap="round"/>
<ellipse cx="368.5" cy="98" rx="1.5" ry="1" fill="#C6CAFF"/>
<ellipse cx="364.5" cy="98" rx="1.5" ry="1" fill="#C6CAFF"/>
<ellipse cx="361.5" cy="98" rx="1.5" ry="1" fill="#C6CAFF"/>
<path d="M292.645 167.8C290.865 165.656 283.06 159.097 278.994 156.372L266.751 163.996C268.311 165.023 272.269 167.828 275.591 169.273C279.743 171.079 282.003 174.822 283.4 175.518C284.517 176.074 285.278 175.143 285.43 174.58C287.327 175.887 288.66 174.404 288.46 173.674C290.368 173.631 290.985 171.527 290.552 170.737C292.281 173.32 296.616 177.056 297.393 175.951C298.617 174.212 294.427 169.947 292.645 167.8Z" fill="#FDDEBF"/>
<path d="M267 137C266.986 137.59 267.239 139.249 268.789 140.13C270.725 141.231 271.499 142.712 271.506 144.326" stroke="#11243E" stroke-width="0.516754"/>
<path d="M268.707 140.47C266.549 139.219 265.985 137.193 265.99 136.274C264.611 138.184 261.789 141.749 261.586 141.986C261.383 142.222 263.982 145.032 265.301 146.25L271.425 144.666C271.407 143.788 270.866 141.721 268.707 140.47Z" fill="#11243E"/>
<path d="M261.964 124.028C263.147 124.189 262.899 125.481 262.824 126.092C261.86 127.29 259.57 129.678 259.556 129.876C259.542 130.075 258.398 138.401 257.663 142.777L245.553 143.95C245.288 143.616 245.3 142.148 245.76 140.957C246.955 137.867 248.92 140.014 249.957 138.239C250.631 137.084 249.487 136.408 250.233 134.248C251.064 131.841 253.692 133.261 254.43 131.529C255.004 130.183 254.14 128.644 255.772 126.61C257.078 124.982 258.897 125.489 259.831 125.886C259.79 125.317 260.782 123.867 261.964 124.028Z" fill="#11243E"/>
<path d="M279.955 142.302L263.924 142.203L260.518 147.983L267.226 152.453L289.381 150.968L279.955 142.302Z" fill="#FF3969"/>
<path d="M264.803 145.845L264.726 137.784L258 135L256.741 145.928C259.023 146.778 263.737 146.036 264.803 145.845Z" fill="#FDDEBF"/>
<path d="M267.453 133.309C267.715 137.16 265.695 140.444 262.94 140.63C260.185 140.817 257.738 137.835 257.476 133.984C257.214 130.133 259.234 126.849 261.989 126.663C266.502 126.176 267.191 129.457 267.453 133.309Z" fill="#FDDEBF"/>
<path d="M264.856 142.199L264.993 140.204C263.891 140.614 262.661 140.247 262 140C262.811 140.935 264.274 141.943 264.856 142.199Z" fill="#E6AD75"/>
<ellipse rx="0.5" ry="0.5" transform="matrix(0.997717 -0.0675382 0.0678976 0.997692 265.533 133.465)" fill="#11243E"/>
<ellipse rx="0.5" ry="0.5" transform="matrix(0.997717 -0.0675382 0.0678976 0.997692 263.533 133.465)" fill="#11243E"/>
<path d="M259.998 133.933C260.022 133.934 260.047 133.936 260.071 133.938C261.503 134.066 261.597 135.566 260.215 135.961C259.761 136.091 259.347 136.123 259.136 135.995C258.574 135.654 258.893 133.86 259.998 133.933Z" fill="#FEB7A1"/>
<path d="M264.998 133.933C265.022 133.934 265.047 133.936 265.071 133.938C266.503 134.066 266.597 135.566 265.215 135.961C264.761 136.091 264.347 136.123 264.136 135.995C263.574 135.654 263.893 133.86 264.998 133.933Z" fill="#FEB7A1"/>
<circle r="1.5" transform="matrix(0.997717 -0.0675382 0.0678976 0.997692 257.598 135.395)" fill="#FDDEBF"/>
<path d="M258.066 134.93C257.978 134.692 257.734 134.111 257 134" stroke="#ECB782" stroke-width="0.295288" stroke-linecap="round"/>
<path d="M257.998 134.932C257.73 135.068 257.321 135.225 257.068 135.998" stroke="#ECB782" stroke-width="0.295288" stroke-linecap="round"/>
<mask id="mask14_3_8222" style="mask-type:alpha" maskUnits="userSpaceOnUse" x="261" y="142" width="29" height="11">
<path d="M279.956 142.258L264.925 142.207L261.527 147.984L268.24 152.464L289.391 150.938L279.956 142.258Z" fill="#FF3969"/>
</mask>
<g mask="url(#mask14_3_8222)">
<path d="M274 150C270.891 149.8 267.867 147.541 266 146L262 147L270 154L292 153L294 152L284 150C282.095 150.25 277.109 150.2 274 150Z" fill="#E11748"/>
</g>
<path d="M278.636 143.244C278.837 142.004 280.005 141.162 281.244 141.363L314.27 146.698C315.509 146.898 316.35 148.065 316.149 149.304L315.275 154.688C315.073 155.927 313.906 156.769 312.666 156.569L279.641 151.233C278.401 151.033 277.56 149.866 277.761 148.627L278.636 143.244Z" fill="#F09C2A"/>
<path d="M253.981 140.548C257.415 141.025 272.356 151.859 278.887 157.294C280.006 161.975 274.137 166.991 270.217 166.722C263.483 163.195 256.482 160.201 250.024 154.309C240.953 146.034 247.716 139.678 253.981 140.548Z" fill="#FF3969"/>
<rect width="37" height="9" rx="2.27296" transform="matrix(0.987199 0.159492 -0.160323 0.987065 279 140)" fill="#FAAF49"/>
<path d="M284 147L307 151" stroke="white" stroke-width="1.47644" stroke-linecap="round"/>
<path d="M284 144L307 148" stroke="white" stroke-width="1.47644" stroke-linecap="round"/>
<path d="M266.572 131.397C262.298 131.28 260.792 128.888 260.793 127.993C262.437 125.627 264.839 124.531 267.983 125.479C271.127 126.428 272.346 131.554 266.572 131.397Z" fill="#11243E"/>
<path d="M256.518 133.983C260.224 134.871 260.96 130.533 260.922 128.271L261.988 127.342L259.993 127.205C259.157 127.797 257.112 128.91 256.862 128.995C256.613 129.08 256.6 132.562 256.518 133.983Z" fill="#11243E"/>
<path d="M296.988 138.343C294.409 137.3 292.293 141.324 291.655 142.988L294.648 143.194C294.423 143.671 294.766 143.414 294.58 144.191C294.131 146.057 295.528 146.553 296.437 146.324C296.608 147.352 297.791 146.7 298.432 146.461C299.057 147.587 300.802 147.075 301.425 146.666C301.711 147.24 301.764 147.911 302.354 147.732C304.806 146.99 306.194 142.537 305.829 140.954C305.538 139.689 303.614 139.612 302.905 139.751C302.061 138.262 300.478 139.194 299.912 139.546C298.9 138.532 298.28 139.04 297.917 139.409C297.652 139.219 297.371 138.497 296.988 138.343Z" fill="#FDDEBF"/>
<path d="M260.979 129.617C260.769 130.397 259.568 132.194 257.779 132.404C255.543 132.667 254.299 133.053 254.58 135.191C254.86 137.33 254.998 138.415 252.24 140.042C251.761 140.325 251.515 140.639 251.174 140.972" stroke="#253F64" stroke-width="0.227296"/>
<path d="M260.975 129.405C260.9 130.226 260.854 132.085 259.238 132.564C257.218 133.163 254.927 133.771 255.509 135.893C256.064 137.92 256.869 139.106 254.939 140.96" stroke="#253F64" stroke-width="0.227296"/>
<mask id="mask15_3_8222" style="mask-type:alpha" maskUnits="userSpaceOnUse" x="357" y="126" width="37" height="97">
<path d="M391 196C390.721 204.202 391.713 217.407 392 223L357 213C357.589 200.188 359.962 169.884 364 150C369.048 125.144 384.564 120.188 391 133C397.436 145.812 391.348 185.747 391 196Z" fill="#FDDEBF"/>
<path d="M392 159C388.642 159.476 381.54 160.543 380 161" stroke="#EB996C" stroke-width="2.21466" stroke-linecap="round"/>
<path d="M392 164C388.642 164.476 381.54 165.543 380 166" stroke="#EB996C" stroke-width="2.21466" stroke-linecap="round"/>
</mask>
<g mask="url(#mask15_3_8222)">
<path d="M371 232C359.724 185.836 369.889 136.555 378 127C372.56 127.704 360.95 129.276 360 130C359.05 130.724 345.056 176.075 341 198L371 232Z" fill="#F9C99A" fill-opacity="0.91"/>
</g>
<path d="M17 123C16.8475 127.947 14.0897 128.624 13 129C15.8572 129.156 16.994 133.329 17 135C17 131.519 19.4906 129.077 21 129C18.4908 128.57 16.9359 125.144 17 123Z" fill="#FFD41D"/>
<path d="M45 82C44.7332 90.2448 39.9069 91.3739 38 92C43.0001 92.2606 44.9895 99.2144 45 102C45 96.1984 49.3585 92.1286 52 92C47.6089 91.284 44.8878 85.5725 45 82Z" fill="#771CC2"/>
<path d="M86 269C85.7332 277.245 80.9069 278.374 79 279C84.0001 279.261 85.9895 286.214 86 289C86 283.198 90.3585 279.129 93 279C88.6089 278.284 85.8878 272.573 86 269Z" fill="#43EB8F"/>
<path d="M462 211C461.733 219.245 456.907 220.374 455 221C460 221.261 461.989 228.214 462 231C462 225.198 466.359 221.129 469 221C464.609 220.284 461.888 214.573 462 211Z" fill="#FFEF64"/>
<path d="M331.581 178.041L333.354 166.173C332.998 162.665 331.953 155.077 333.001 155C334.728 154.872 336.134 156.976 336.219 160.533C337.271 160.502 339.052 161.072 338.891 162.952C339.838 162.93 341.7 164.132 341.415 166.36C342.159 166.368 344.214 166.649 344.087 168.779C343.928 171.44 343.615 173.153 342.359 173.577C342.311 174.566 341.845 176.314 340.927 176.397L340.04 182.331C337.985 181.906 332.938 180.272 331.581 178.041Z" fill="#FDDEBF"/>
<path d="M265 221C264.24 220.391 265.48 218.234 266 217L268 218L265 221Z" fill="#11243E"/>
<path d="M342 300L339 248C351.455 249.871 376.511 258.658 377 277C377.489 295.342 353.735 299.823 342 300Z" fill="#11243E"/>
<path d="M293 182L295 255C358.168 250.012 375.17 267.409 377 278L374 195C358.627 179.662 313.497 180.174 293 182Z" fill="#E3E2FF"/>
<path d="M294 190C316.921 185.648 360.501 188.877 373 203" stroke="#B6A9FF" stroke-width="1.47644" stroke-linecap="round"/>
<path d="M334 224C337.571 229.631 331.691 236.728 329 236L324 231L326 226C327.497 223.592 331.334 219.796 334 224Z" fill="#11243E"/>
<path d="M326 229C317.055 233.353 311.829 234 307 234C303.014 239.978 299.759 246.413 297.303 253.165L297 254C305.783 252.908 308.881 253 313 253L316 246L319 253C329.348 252.811 342.088 254.986 346 256C340.297 244.011 330.969 231.834 326 229Z" fill="#43EB8F"/>
<path d="M305.997 197C305.903 197.808 305.132 199.658 302.647 201.53C299.303 204.049 298.859 207.05 300.896 209.868" stroke="#11243E" stroke-width="0.516754" stroke-linecap="round"/>
<path d="M302.999 203.003C305.002 201.046 304.294 199.358 303.997 199.002L305.997 199.001L309.002 209L300.002 209.004C300.016 207.656 300.996 204.96 302.999 203.003Z" fill="#11243E"/>
<path d="M316.842 197.008C316.84 196.922 316.908 196.851 316.993 196.849C317.079 196.847 317.15 196.915 317.152 197L316.842 197.008ZM322 202.001L322.074 201.866L322 202.001ZM317.152 197C317.157 197.189 317.165 197.411 317.246 197.685C317.327 197.958 317.483 198.288 317.79 198.682C318.407 199.474 319.632 200.52 322.074 201.866L321.925 202.137C319.467 200.783 318.2 199.713 317.545 198.873C317.217 198.451 317.042 198.087 316.949 197.773C316.856 197.459 316.847 197.203 316.842 197.008L317.152 197ZM322.074 201.866C324.789 203.362 324.981 206.272 325.158 208.99L324.848 209.01C324.669 206.254 324.468 203.539 321.925 202.137L322.074 201.866Z" fill="#11243E"/>
<path d="M319.999 202.002C317.036 200.419 316.948 197.931 316.996 197.004L313.996 197.005L313.999 203.005L314.002 209.005L320.002 209.002C320.119 208.059 319.325 207.344 319.001 207.003C319.964 207.613 320.808 208.27 321.002 209.002L325.002 209C325.082 207.341 323.248 203.739 319.999 202.002Z" fill="#11243E"/>
<path d="M306.534 207.396L307.101 198.361L314.997 196L315.573 207.986C312.946 208.743 307.717 207.681 306.534 207.396Z" fill="#FDDEBF"/>
<path d="M302.989 193.346C302.414 197.442 304.68 200.631 307.965 201.066C311.25 201.502 314.31 199.019 314.885 194.923C315.459 190.826 313.333 186.647 310.048 186.212C304.68 185.305 303.564 189.25 302.989 193.346Z" fill="#FDDEBF"/>
<path d="M305.998 203.002L305.997 201.002C307.426 201.486 309.095 201.202 309.997 201C308.833 201.879 306.797 202.785 305.998 203.002Z" fill="#E6AD75"/>
<path d="M307.997 195C307.647 195.011 306.59 195.384 306.747 195.684C306.892 195.96 307.514 195.99 307.709 195.958" stroke="#11243E" stroke-width="0.310042" stroke-linecap="round"/>
<circle r="0.5" transform="matrix(-0.991329 -0.1314 -0.138896 0.990307 308.432 194.429)" fill="#11243E"/>
<circle r="0.5" transform="matrix(-0.991329 -0.1314 -0.138896 0.990307 306.432 194.429)" fill="#11243E"/>
<path d="M312.72 196.981C313.305 196.676 313.115 194.867 312.006 194.869C310.52 194.871 310.309 196.429 311.715 196.901C312.132 197.041 312.512 197.089 312.72 196.981Z" fill="#FEB7A1"/>
<path d="M305.72 196.981C306.305 196.676 306.115 194.867 305.006 194.869C303.52 194.871 303.309 196.429 304.715 196.901C305.132 197.041 305.512 197.089 305.72 196.981Z" fill="#FEB7A1"/>
<path d="M306.996 192C306.69 191.913 306.393 191.756 305.999 191.922" stroke="#11243E" stroke-width="0.310042" stroke-linecap="round"/>
<path d="M310.997 193C310.821 192.784 310.505 192.499 310.093 192.572" stroke="#11243E" stroke-width="0.310042" stroke-linecap="round"/>
<path d="M307.867 197.859C308.139 197.841 308.745 197.645 308.997 197" stroke="#11243E" stroke-width="0.310042" stroke-linecap="round"/>
<path d="M309.058 186.08C309.483 188.241 310.644 192.153 315.025 193.932" stroke="#11243E" stroke-width="0.516754" stroke-linecap="round"/>
<path d="M314.981 194.332C311.933 192.16 309.469 188.552 308.928 186.939C309.29 186.367 311.876 185.719 313.885 187.596C316.027 189.599 316.45 192.125 316.17 193.877C316.079 194.44 315.444 194.662 314.981 194.332Z" fill="#11243E"/>
<path d="M308.997 186C308.629 187.487 307.122 191.265 302.929 193.265" stroke="#11243E" stroke-width="0.516754" stroke-linecap="round"/>
<path d="M303.03 193.497C306.102 191.724 308.525 188.077 308.997 187.001L310.998 188C311.373 187.56 312.623 186.16 311.997 186C311.332 185.83 307.555 185.025 304.997 187.003C303.007 188.543 302.207 191.233 302.017 192.86C301.949 193.448 302.518 193.792 303.03 193.497Z" fill="#11243E"/>
<mask id="mask16_3_8222" style="mask-type:alpha" maskUnits="userSpaceOnUse" x="313" y="197" width="13" height="13">
<path d="M320.001 202.003C317.038 200.419 316.95 197.931 316.998 197.004L313.998 197.006L314.001 203.006L314.004 209.006L320.004 209.003C320.121 208.059 319.327 207.345 319.003 207.003C319.966 207.614 320.81 208.271 321.004 209.002L325.004 209C325.084 207.342 323.25 203.74 320.001 202.003Z" fill="#11243E"/>
</mask>
<g mask="url(#mask16_3_8222)">
<path d="M321.003 204.002C317.669 201.925 315.285 199.099 315 198.005C315.226 199.241 316.886 202.585 320.003 205.003C323.121 207.42 322.456 210.521 322.007 212.002L324.007 213.001C324.351 210.827 324.336 206.079 321.003 204.002Z" fill="#253F64"/>
</g>
<circle r="2" transform="matrix(-0.991329 -0.1314 -0.138896 0.990307 314.737 196.718)" fill="#FDDEBF"/>
<path d="M314.867 195.859C314.971 195.628 315.256 195.064 315.997 195" stroke="#EBB57E" stroke-width="0.310042" stroke-linecap="round"/>
<path d="M315.006 195.869C315.263 196.022 315.661 196.204 315.858 196.991" stroke="#EBB57E" stroke-width="0.310042" stroke-linecap="round"/>
<path d="M313.997 198.003C314.179 199.233 313.998 200.873 318.001 205.001C318.245 205.253 318.806 205.746 319.001 206" stroke="#253F64" stroke-width="0.112971" stroke-linecap="round"/>
<path d="M267.19 208.022C268.149 209.927 271.234 213.217 272.701 214.629C272.187 217.666 271.319 224.452 270.309 222.831C269.046 220.805 263.52 216.584 261.731 215.45C259.942 214.316 256.41 213.921 256.52 212.831C256.654 211.516 258.815 212.386 259.512 212.608C257.992 211.316 255.069 210.843 255.298 209.914C255.474 209.201 255.872 208.795 256.182 208.835C254.787 208.567 253.618 208.594 254.151 207.995C254.581 207.51 255.641 207.695 256.145 207.845C255.073 206.965 256.055 205.28 257.99 205.702C261.309 206.425 264.458 208.392 265.27 209.168C264.731 208.092 263.36 205.602 263.973 205.254C264.739 204.82 265.99 205.641 267.19 208.022Z" fill="#FDDEBF"/>
<mask id="mask17_3_8222" style="mask-type:alpha" maskUnits="userSpaceOnUse" x="253" y="203" width="22" height="22">
<path d="M269.182 206.87C270.256 209.092 273.132 212.824 274.767 214.474C274.208 218.007 273.651 226.561 272.523 224.67C271.113 222.306 263.795 216.773 261.803 215.446C259.811 214.119 256.399 213.099 256.518 211.831C256.661 210.3 258.735 211.346 259.51 211.607C257.816 210.097 255.045 209.994 255.296 208.914C255.331 208.764 255.374 208.661 255.421 208.593C254.331 208.195 253.672 207.558 254.15 206.995C254.626 206.432 255.584 206.668 256.144 206.845C254.949 205.816 255.838 204.203 257.989 204.701C261.679 205.556 266.357 207.109 267.263 208.017C266.66 206.761 265.287 204.505 265.966 204.103C266.815 203.6 267.841 204.092 269.182 206.87Z" fill="#FDDEBF"/>
</mask>
<g mask="url(#mask17_3_8222)">
<path d="M262 217C259.097 216.247 256.69 215.635 256 215L255 216L257 219L269 223L272 217C271.851 214.911 271.241 211.353 270 214C268.449 217.309 265.628 217.941 262 217Z" fill="#F8CFA4"/>
</g>
<path d="M320 235C313.595 236.988 306.885 236.061 305 235C303.28 229.089 301.934 222.63 302 220C297.18 225.409 290.707 231 288 231C280.314 231 272.413 225.275 268 221C271.585 217.271 272.463 214.405 273 213L285 220C286.601 217.692 288.641 215.095 291 212C295.155 206.55 301.984 205.452 306 205C306.51 206.248 307.85 207.426 311 207C313.62 206.645 314.65 204.66 315 203C315 202.381 315.327 201.805 315.874 201.514C319.879 199.387 323.965 198.484 328.378 195.985C329.438 195.385 330.156 194.339 330.434 193.154L334 178C338.567 180.137 344.346 180.794 347 180L343.053 198.155C342.383 201.237 340.427 203.885 337.678 205.431L326 212C328.556 214.649 332.653 222.598 334 225C325.13 226.786 328.007 232.514 320 235Z" fill="#FE2257"/>
<path d="M320.987 212.396L314.867 213.996L316.531 219.117L318.736 219.263C319.228 219.295 319.705 219.079 320.005 218.688L321.719 216.453L320.987 212.396Z" fill="#FFE267"/>
<circle r="1" transform="matrix(0.867325 0.497742 -0.49974 0.866175 370.368 195.364)" fill="#B6A9FF"/>
<circle r="1" transform="matrix(0.867325 0.497742 -0.49974 0.866175 367.368 194.364)" fill="#B6A9FF"/>
<circle r="1" transform="matrix(0.867325 0.497742 -0.49974 0.866175 364.368 193.364)" fill="#B6A9FF"/>
<path d="M337 161C337.726 160.472 339.624 160.547 340 162C340.093 162.358 339.983 162.489 340 163M340 163C340.038 164.138 340.086 167.292 340 168V163ZM340 163C340.976 162.877 343.272 163.569 343 166M343 166C342.874 167.127 343 168.363 343 169M343 166C343.759 166.025 345.087 166.813 345 169C344.891 171.735 345.232 173.92 344 174C342.768 174.08 342 171.829 342 171" stroke="#F0C291" stroke-width="0.590576"/>
<path d="M340 175L337 171C338.51 171.321 341.015 172.385 342 172C343.231 171.518 343.158 169.719 341 169C339.274 168.425 337.769 168.129 337 168" stroke="#F0C291" stroke-width="0.516754" stroke-linecap="round"/>
<mask id="mask18_3_8222" style="mask-type:alpha" maskUnits="userSpaceOnUse" x="297" y="229" width="49" height="27">
<path d="M326 229C317.055 233.353 311.829 234 307 234C303.014 239.978 299.759 246.413 297.303 253.165L297 254C305.783 252.908 308.881 253 313 253L316 246L319 253C329.348 252.811 342.088 254.986 346 256C340.297 244.011 330.969 231.834 326 229Z" fill="#43EB8F"/>
</mask>
<g mask="url(#mask18_3_8222)">
<path d="M338 252C336.213 246.788 328.695 235.865 325 231L327 229L346 250L351 258L317 254V252C325.14 251.01 334.333 251.588 338 252Z" fill="#35D37D"/>
<path d="M314 245C315.254 245.466 315.826 246.018 316 246L315 253H309C311.842 250.542 313.547 246.642 314 245Z" fill="#35D37D"/>
</g>
<path d="M51 152L61 194" stroke="white" stroke-opacity="0.73" stroke-width="8.12043" stroke-linecap="round"/>
<path d="M251.001 252C249.46 254.381 248.612 261.034 256.001 263" stroke="white" stroke-opacity="0.56" stroke-width="1.47644" stroke-linecap="round"/>
<path d="M268 58C269.687 59.0239 271.621 59.5588 273 61C275.747 63.8718 279.242 66.1428 282 69C286.741 73.9121 288.629 81.2152 289 88C289.162 90.971 290.102 95.567 288 98C285.543 100.844 280.198 98.9998 278 97C275.955 95.1395 278.617 91.4311 280 90C283.496 86.3831 291.331 87.5359 295 90C301.132 94.1189 307.668 99.9601 312 106" stroke="#CDD1FE" stroke-width="2.21466" stroke-linecap="round" stroke-dasharray="6.64 6.64"/>
<path d="M307 239C306.559 239.506 305.342 241.414 304 245" stroke="white" stroke-opacity="0.65" stroke-width="1.47644" stroke-linecap="round"/>
<path d="M258 209C258.879 209.207 260.745 209.759 263 211" stroke="#F0C291" stroke-width="0.442932" stroke-linecap="round"/>
<path d="M259 207C259.879 207.207 261.745 207.759 264 209" stroke="#F0C291" stroke-width="0.442932" stroke-linecap="round"/>
<path d="M262 213C262.234 213.158 262.687 213.579 263.012 213.988" stroke="#F0C291" stroke-width="0.442932" stroke-linecap="round"/>
<path d="M264 209C263.696 209.598 263.071 211.236 263 213" stroke="#F0C291" stroke-width="0.442932" stroke-linecap="round"/>
<path d="M266.001 210C265.806 210.646 265.988 212.149 267.001 213" stroke="#F0C291" stroke-width="0.442932" stroke-linecap="round"/>
<path d="M205 202C203.104 202.637 199.574 204.373 199 205C198.794 205.225 198.186 205.408 198 206" stroke="#F0C291" stroke-width="0.590576" stroke-linecap="round"/>
<path d="M207 201C207.634 200.912 208.923 201.223 209 203" stroke="#F2C697" stroke-width="0.590576" stroke-linecap="round"/>
<path d="M205 206C206.621 205.288 210.262 203.872 211 204C211.922 204.16 211.958 205.039 212 206" stroke="#F2C697" stroke-width="0.590576" stroke-linecap="round"/>
<path d="M208 208C207.963 208.686 208.234 210.246 208 211" stroke="#F2C697" stroke-width="0.590576" stroke-linecap="round"/>
<mask id="mask19_3_8222" style="mask-type:alpha" maskUnits="userSpaceOnUse" x="246" y="140" width="34" height="27">
<path d="M254.983 140.525C258.417 140.992 273.331 151.78 279.849 157.193C280.954 161.87 275.068 166.9 271.147 166.642C264.421 163.136 257.426 160.163 250.983 154.292C241.933 146.045 248.718 139.673 254.983 140.525Z" fill="#E11748"/>
</mask>
<g mask="url(#mask19_3_8222)">
<path d="M270 164C275.756 161.649 277.464 157.889 278 156L282 155V161L272 170L250 159L244 146C249.868 153.837 263.923 161.178 270 164Z" fill="#E11748"/>
</g>
<path d="M161 224C163.179 227.193 167.241 232.02 169 234H168L167 235C165.026 232.735 162.277 226.723 161 224Z" fill="#EDA038"/>
<circle cx="396.5" cy="46.5" r="9.5" fill="white" fill-opacity="0.34"/>
<circle cx="375" cy="228" r="1" fill="white"/>
<path d="M377 269L375 233" stroke="white" stroke-width="1.47644" stroke-linecap="round"/>
<path d="M337 160C337.074 161.126 336.941 163.703 337 165" stroke="#F0C291" stroke-width="0.590576" stroke-linecap="round"/>
<path d="M295.999 141C295.551 142.063 294.734 143.709 294.999 145C295.139 145.683 296.019 146.156 296.999 146M296.999 146C297.431 145.21 298.859 142.644 298.999 140M296.999 146C297.286 146.42 297.938 146.553 298.999 146M298.999 146C300.326 145.308 301.383 141.21 300.999 139M298.999 146C299.412 146.512 300.966 147.091 301.999 146M301.999 146C303.291 144.636 304.159 142.803 303.999 140M301.999 146C302.261 146.545 302.918 147.138 303.999 146" stroke="#F0C291" stroke-width="0.590576" stroke-linecap="round"/>
<path d="M287 168C287.786 168.826 288.835 169.817 290 171M289 165C292.445 168.235 297.043 173.908 297 175C296.957 176.092 295.446 176.05 294 175C293.301 174.492 291.778 172.807 290 171M290 171C290.636 173.09 289.809 174.031 289 174M285 170C285.768 170.82 288.282 173.953 289 174M289 174C288.947 174.916 286.557 176.041 285 175M285 175C284.518 174.678 284.679 173.716 284 173M285 175C284.832 175.87 284.102 177.087 282 175C279.373 172.391 280.142 172.128 279 171" stroke="#F0C291" stroke-width="0.590576" stroke-linecap="round"/>
<mask id="mask20_3_8222" style="mask-type:alpha" maskUnits="userSpaceOnUse" x="268" y="178" width="79" height="59">
<path d="M320 235C313.595 236.988 306.885 236.061 305 235C303.28 229.089 301.934 222.63 302 220C297.18 225.409 290.707 231 288 231C280.314 231 272.413 225.275 268 221C271.585 217.271 272.463 214.405 273 213L285 220C286.601 217.692 288.641 215.095 291 212C295.155 206.55 301.984 205.452 306 205C306.51 206.248 307.85 207.426 311 207C313.62 206.645 314.65 204.66 315 203C315 202.381 315.327 201.805 315.874 201.514C319.879 199.387 323.965 198.484 328.378 195.985C329.438 195.385 330.156 194.339 330.434 193.154L334 178C338.567 180.137 344.346 180.794 347 180L343.053 198.155C342.383 201.237 340.427 203.885 337.678 205.431L326 212C328.556 214.649 332.653 222.598 334 225C325.13 226.786 328.007 232.514 320 235Z" fill="#FE2257"/>
</mask>
<g mask="url(#mask20_3_8222)">
<path d="M329 222C327.955 219.286 325.279 213.648 324 211L327 209L338 224L327 234L309 239L302 234L303 232C305.542 233.295 318.188 234.862 321 230C323.413 225.827 328.326 222.298 329 222Z" fill="#E11748"/>
<path d="M339 201C342.209 195.245 345.06 184.69 346 180L348 179L351 182C350.18 188.116 348.05 200.607 348 201C347.95 201.393 338.648 208.47 334 212H326L324 210C330.65 207.279 337.195 204.238 339 201Z" fill="#E11748"/>
<path d="M302 218V220V227L291 233L273 229L266 221L268 219C273.453 223.216 284.544 230.412 288 229C291.456 227.588 298.966 221.294 302 218Z" fill="#E11748"/>
</g>
<path d="M319 214L315 215" stroke="#FAAF49" stroke-opacity="0.79" stroke-width="0.738221" stroke-linecap="round"/>
<path d="M360 169C360.729 155.955 365.246 128.243 379 125C396.192 120.946 394.685 154.03 393 177C391.315 199.97 390.856 232.014 402 249C406.121 255.281 409.991 263.707 413 272C407.294 291.494 380.402 330.954 319 332C309.029 325.768 287.725 309.608 260 277" stroke="#EB996C" stroke-width="2.21466" stroke-linecap="round"/>
<path d="M310 330L303 334L308 328L310 330Z" fill="#588DED"/>
<path d="M334 314L294 319L303 326V335L308 329L318 338L334 314Z" fill="#E4F1FF"/>
<path d="M303 326V335L307 329L334 314L303 326Z" fill="#ABC7F3"/>
<path d="M214.999 179C209.826 170.978 202.848 152.955 210.999 147C216.501 142.981 223.615 151.251 229.999 162" stroke="#EB996C" stroke-width="2.21466" stroke-linecap="round"/>
<path d="M232.001 153C227.801 144.691 220.306 125.749 229.001 119" stroke="#EB996C" stroke-width="2.21466" stroke-linecap="round"/>
<path d="M264 59L270 62L266 57L264 59Z" fill="#588DED"/>
<path d="M244 45L278 49L270 55V62L267 57L257 65L244 45Z" fill="#E4F1FF"/>
<path d="M270 55V62L266 57L244 45L270 55Z" fill="#ABC7F3"/>
<path d="M245 134L266.447 78.5964C267.965 74.6739 271.86 72.1973 276.057 72.4867L298 74" stroke="white" stroke-opacity="0.33" stroke-width="3.6911" stroke-linecap="round"/>
<path d="M251 70L258 114C238.4 112.675 232.661 123.755 233 130L224 85C227.317 73.0405 241.5 70 251 70Z" fill="#43EB8F"/>
<circle cx="249.5" cy="72.5" r="1.5" fill="#D5FFE8"/>
<path d="M245.996 71.1553C245.492 71.0945 244.177 71.1887 242.948 71.9985" stroke="#D4FFE8" stroke-width="0.516754" stroke-linecap="round"/>
<path d="M245.996 72.1553C245.492 72.0945 244.177 72.1887 242.948 72.9985" stroke="#D4FFE8" stroke-width="0.516754" stroke-linecap="round"/>
<path d="M246.996 73.1553C246.492 73.0945 245.177 73.1887 243.948 73.9985" stroke="#D4FFE8" stroke-width="0.516754" stroke-linecap="round"/>
<path d="M229 109L224 85C224.181 81.932 227.033 75.3871 237 72" stroke="white" stroke-width="1.47644" stroke-linecap="round"/>
<circle cx="231" cy="112" r="1" fill="white"/>
<path d="M296 273L309.506 274.929C313.822 275.546 317.944 272.931 319.226 268.765L321 263" stroke="white" stroke-opacity="0.33" stroke-width="2.95288" stroke-linecap="round"/>
</svg>
