<svg width="368" height="243" viewBox="0 0 368 243" fill="none" xmlns="http://www.w3.org/2000/svg">
<ellipse cx="200.633" cy="236.405" rx="162.684" ry="6.43557" fill="#C7CBF6"/>
<path d="M176.902 10.4698C201.339 14.7658 204.634 36.2027 200.381 52.8631C181.434 113.171 124.376 89.2698 84.5494 109.097C44.7227 128.924 31.1828 120.663 14.5561 109.097C-2.07056 97.5311 -10.6254 60.9298 25.7695 56.6373C64.9466 52.0167 29.256 19.0479 57.8693 3.76446C86.4827 -11.519 100.016 36.3968 120.123 36.8099C140.229 37.223 146.355 5.09987 176.902 10.4698Z" fill="#FFD35A"/>
<path d="M57.7768 120.391C62.204 150.623 82.6922 175.754 92.3829 184.541L90.4645 196.536C74.8472 191.626 40.6487 174.095 28.793 143.254C13.9733 104.701 52.2429 82.6001 57.7768 120.391Z" fill="#43EB8F"/>
<path d="M33.3261 168.486C48.7724 182.646 73.4954 188.637 83.926 189.862L83.3736 193.316C59.111 198.291 44.9327 195.581 23.4493 185.946C1.96588 176.311 14.0182 150.786 33.3261 168.486Z" fill="#87BDFC"/>
<path d="M31.8622 179.246C38.2659 183.575 54.7229 192.051 69.3213 191.323" stroke="white" stroke-width="3.44992" stroke-linecap="round"/>
<path d="M45.4753 133.551C46.3533 141.334 51.0121 160.634 73.2263 174.064" stroke="white" stroke-width="3.44992" stroke-linecap="round"/>
<rect width="59.9799" height="34.9475" rx="17.4737" transform="matrix(-1 0 0 1 230.354 119.833)" fill="#ED1E79"/>
<rect width="59.9799" height="35.3632" rx="17.5232" transform="matrix(-1 0 0 1 246.425 84.8857)" fill="#FFD35A"/>
<rect width="59.9799" height="34.9475" rx="17.4737" transform="matrix(-1 0 0 1 247.744 154.779)" fill="#172E4E"/>
<mask id="mask0_302_5" style="mask-type:alpha" maskUnits="userSpaceOnUse" x="170" y="119" width="61" height="36">
<rect width="59.9799" height="34.9475" rx="17.4737" transform="matrix(-1 0 0 1 230.354 119.833)" fill="#ED1E79"/>
</mask>
<g mask="url(#mask0_302_5)">
<path d="M165.6 134.286C175.454 137.85 190.986 138.736 197.52 138.733L213.299 146.604L217.754 153.942L197.52 159.184C189.064 156.563 171.994 151.112 171.365 150.273C170.736 149.435 167.259 139.266 165.6 134.286Z" fill="#E2136E"/>
</g>
<mask id="mask1_302_5" style="mask-type:alpha" maskUnits="userSpaceOnUse" x="189" y="85" width="61" height="36">
<rect width="59.9799" height="34.9475" rx="17.4737" transform="matrix(-1 0 0 1 249.139 85.4512)" fill="#FFD35A"/>
</mask>
<g mask="url(#mask1_302_5)">
<path d="M183.329 103.894C193.183 107.458 208.715 108.344 215.249 108.341L231.028 116.211L235.484 123.55L215.249 128.792C206.793 126.171 189.724 120.719 189.095 119.881C188.466 119.042 184.989 108.873 183.329 103.894Z" fill="#FAAF49" fill-opacity="0.59"/>
</g>
<mask id="mask2_302_5" style="mask-type:alpha" maskUnits="userSpaceOnUse" x="188" y="154" width="61" height="36">
<rect width="59.9799" height="35.3632" rx="17.5232" transform="matrix(-1 0 0 1 248.177 154.572)" fill="#172E4E"/>
</mask>
<g mask="url(#mask2_302_5)">
<path d="M183.573 170.39C193.427 173.954 208.959 174.84 215.493 174.837L231.272 182.708L235.728 190.046L215.493 195.288C207.037 192.667 189.968 187.215 189.339 186.377C188.71 185.538 185.233 175.369 183.573 170.39Z" fill="#102849"/>
</g>
<path d="M363.317 157.338H228.405C220.066 157.338 213.306 164.098 213.306 172.437C213.306 180.776 220.066 187.536 228.405 187.536H363.317V157.338Z" fill="white"/>
<path d="M345.927 122.391H211.016C202.677 122.391 195.917 129.151 195.917 137.489C195.917 145.828 202.677 152.588 211.016 152.588H345.927V122.391Z" fill="white"/>
<path fill-rule="evenodd" clip-rule="evenodd" d="M214.102 165.518L214.608 177.605L215.242 178.669C228.805 167.408 278.521 160.235 301.762 158.051H225.215L214.102 165.518Z" fill="#C7CBF6" fill-opacity="0.46"/>
<path d="M361.998 87.4414H227.086C218.747 87.4414 211.987 94.2014 211.987 102.54C211.987 110.879 218.747 117.639 227.086 117.639H361.998V87.4414Z" fill="white"/>
<path d="M358.31 166.864C357.304 166.864 276.706 166.864 236.533 166.864" stroke="#C7CBF6" stroke-width="2.60557" stroke-linecap="round"/>
<path d="M355.752 96.6543C354.746 96.6543 274.148 96.6543 233.975 96.6543" stroke="#C7CBF6" stroke-width="2.60557" stroke-linecap="round"/>
<path d="M358.31 173.135C357.304 173.135 276.706 173.135 236.533 173.135" stroke="#C7CBF6" stroke-width="2.60557" stroke-linecap="round"/>
<path d="M355.752 102.927C354.746 102.927 274.148 102.927 233.975 102.927" stroke="#C7CBF6" stroke-width="2.60557" stroke-linecap="round"/>
<path d="M358.31 179.138C357.304 179.138 276.706 179.138 236.533 179.138" stroke="#C7CBF6" stroke-width="2.60557" stroke-linecap="round"/>
<path d="M355.752 108.931C354.746 108.931 274.148 108.931 233.975 108.931" stroke="#C7CBF6" stroke-width="2.60557" stroke-linecap="round"/>
<path d="M340.352 131.376C339.345 131.376 258.748 131.376 218.575 131.376" stroke="#C7CBF6" stroke-width="2.60557" stroke-linecap="round"/>
<path d="M340.352 137.832C339.345 137.832 258.748 137.832 218.575 137.832" stroke="#C7CBF6" stroke-width="2.60557" stroke-linecap="round"/>
<path d="M340.352 143.962C339.345 143.962 258.748 143.962 218.575 143.962" stroke="#C7CBF6" stroke-width="2.60557" stroke-linecap="round"/>
<path d="M214.087 109.152C232.296 96.7427 296.085 90.2683 325.704 88.5822L319.803 87.2334H230.273L217.628 91.1113L211.389 104.431L214.087 109.152Z" fill="#C7CBF6" fill-opacity="0.46"/>
<path d="M197.733 145.575C209.333 131.547 263.714 125.229 289.454 123.824L279.001 122.476H213.582L199.419 123.824L193.687 138.493L197.733 145.575Z" fill="#C7CBF6" fill-opacity="0.46"/>
<path d="M345.658 110.462V95.3887H335.043V110.462L339.926 104.942L345.658 110.462Z" fill="#ED1E79"/>
<path d="M363.317 87.4414H227.086C218.747 87.4414 211.988 94.2014 211.988 102.54V102.54C211.988 110.879 218.747 117.639 227.086 117.639H363.317" stroke="#172E4E" stroke-width="5.12301" stroke-linecap="round"/>
<path d="M365.269 157.338H228.405C220.066 157.338 213.306 164.098 213.306 172.437V172.437C213.306 180.776 220.066 187.536 228.405 187.536H365.269" stroke="#FFD35A" stroke-width="5.12301" stroke-linecap="round"/>
<path d="M347.947 122.391H211.015C202.676 122.391 195.916 129.151 195.916 137.489V137.489C195.916 145.828 202.676 152.588 211.015 152.588H347.947" stroke="#FF4F9C" stroke-width="5.12301" stroke-linecap="round"/>
<rect x="68.7451" y="22.7461" width="114.559" height="189.985" rx="8.36516" fill="#172E4E"/>
<rect x="72.6967" y="37.1475" width="106.354" height="149.157" rx="2.78838" fill="#DCDFFC"/>
<circle cx="126.899" cy="199.919" r="9.15425" fill="#24436F"/>
<circle cx="125.873" cy="199.246" r="9.15425" fill="#41608B"/>
<path d="M118.505 197.838C118.991 196.341 120.345 194.011 122.727 192.593" stroke="white" stroke-opacity="0.58" stroke-width="1.39419" stroke-linecap="round"/>
<rect x="103.921" y="28.7598" width="43.8629" height="3.00606" rx="1.50303" fill="#41608B"/>
<path d="M154.028 67.7692C141.701 58.6395 111.597 47.1715 89.8049 74.3368" stroke="#87BDFC" stroke-width="2.87933" stroke-linecap="round" stroke-dasharray="7.68 7.68"/>
<circle cx="169.698" cy="88.1512" r="32.2547" fill="#ACB4FF"/>
<rect x="147.784" y="74.5205" width="43.8284" height="27.7711" rx="1.91955" fill="#6771E6"/>
<path d="M150.079 77.3698L166.912 86.6033C168.666 87.5651 170.793 87.5483 172.531 86.5589L189.317 77.0029" stroke="#B1B7F8" stroke-width="2.74744" stroke-linecap="round"/>
<path d="M176.2 85.5146L188.902 96.7541" stroke="#B1B7F8" stroke-width="2.74744" stroke-linecap="round"/>
<path d="M162.781 86.1309L150.078 97.3703" stroke="#B1B7F8" stroke-width="2.74744" stroke-linecap="round"/>
<path d="M82.3242 104.675C79.2784 116.604 82.9327 142.213 121.917 149.217" stroke="#FF4F9C" stroke-width="2.87933" stroke-linecap="round" stroke-dasharray="7.68 7.68"/>
<circle cx="129.157" cy="145.573" r="18.6271" fill="#43EB8F"/>
<path d="M118.843 141.258C118.156 138.667 120.175 136.703 121.877 135.676C122.542 135.274 123.377 135.234 124.029 135.657C126.062 136.978 127.212 139.637 127.017 140.582C126.888 141.207 125.656 141.971 124.534 142.529C123.885 142.853 123.594 143.652 123.975 144.27C126.337 148.105 129.042 149.961 130.799 150.682C131.458 150.952 132.147 150.568 132.48 149.938C132.806 149.321 133.134 148.799 133.421 148.388C133.843 147.784 134.608 147.542 135.283 147.837C136.843 148.52 138.08 149.719 138.869 150.72C139.382 151.37 139.422 152.261 139.013 152.982C137.817 155.088 136.304 156.326 134.377 155.954C126.677 154.468 119.896 145.229 118.843 141.258Z" fill="#3B49E5"/>
<circle cx="21.7592" cy="75.9732" r="8.91261" fill="white" fill-opacity="0.37"/>
<circle cx="79.6891" cy="85.4514" r="19.7844" fill="#87BDFC"/>
<circle cx="70.1493" cy="85.4519" r="2.54759" fill="#3B49E5"/>
<circle cx="79.6899" cy="85.4529" r="2.54759" fill="#3B49E5"/>
<circle cx="89.2698" cy="85.4529" r="2.54759" fill="#3B49E5"/>
</svg>
