<svg width="380" height="277" viewBox="0 0 380 277" fill="none" xmlns="http://www.w3.org/2000/svg">
<path d="M119.327 233.544H348.847" stroke="#2D3595" stroke-width="17.2731" stroke-linecap="round"/>
<path d="M361.168 185.26C364.853 150.255 325.863 132.952 315.631 137.479C297.181 153.216 268.314 185.13 266.935 208.286C265.211 237.231 308.069 253.613 311.434 224.264C314.8 194.916 357.535 219.763 361.168 185.26Z" fill="#FF4E9C"/>
<path d="M128.499 42.9215C111.512 73.7497 140.725 104.834 151.912 104.635C175.024 97.2948 214.018 79.0923 224.279 58.2882C237.106 32.283 203.97 0.546734 189.474 26.2864C174.978 52.026 145.242 12.5361 128.499 42.9215Z" fill="#FF4E9C"/>
<circle cx="369.118" cy="144.751" r="7.30877" fill="#FF4E9C"/>
<path d="M289.041 11.1381C292.931 10.5805 301.941 12.8068 306.856 26.1728C313.001 42.8803 305.213 48.1841 312.665 56.5783C320.118 64.9725 323.043 67.9648 322.736 75.9755" stroke="#0A2D4D" stroke-width="0.989306"/>
<path d="M191.376 222.002L182.444 196.6L227.665 192.134L233.372 210.095C235.245 215.989 230.846 222.002 224.662 222.002H191.376Z" fill="#6771E6"/>
<path d="M227.666 194.084L234.874 215.286C235.994 218.58 233.545 221.999 230.067 221.999H189.981" stroke="#4C54BD" stroke-width="6.09317" stroke-linecap="round"/>
<path d="M344.812 60.3583L315.542 197.094C314.94 199.904 312.457 201.911 309.583 201.911H104.467C101.227 201.911 98.8162 198.919 99.5055 195.753L129.286 59.0143C129.896 56.2144 132.374 54.2178 135.239 54.2178H339.847C343.079 54.2178 345.489 57.1977 344.812 60.3583Z" fill="#6771E7"/>
<path d="M329.685 75.358L309.605 165.963C308.987 168.753 306.513 170.738 303.656 170.738H121.587C118.334 170.738 115.92 167.723 116.632 164.549L136.949 73.9416C137.573 71.1592 140.043 69.1816 142.895 69.1816H324.728C327.975 69.1816 330.388 72.1877 329.685 75.358Z" fill="white"/>
<path d="M227.186 201.962H184.344L186.525 208.092H229.192L227.186 201.962Z" fill="#444CAE" fill-opacity="0.49"/>
<path d="M248.6 43.171L230.481 114.397C229.828 116.965 231.768 119.46 234.418 119.46H356.211C358.062 119.46 359.679 118.208 360.143 116.416L378.574 45.1901C379.24 42.6183 377.298 40.1104 374.642 40.1104H252.537C250.679 40.1104 249.058 41.3706 248.6 43.171Z" fill="#D1E4FC"/>
<path d="M263.638 39.4056C262.549 42.235 260.672 48.0822 255.654 54.1777C249.528 61.6204 257.569 72.0071 261.799 74.1254" stroke="#0A2D4D" stroke-width="0.989306"/>
<path d="M305.392 27.1017C300.575 14.4668 289.309 11.7983 284.277 12.0434C284.072 13.237 277.775 12.1335 275.946 12.2313C270.175 12.5403 264.785 16.6837 262.177 21.4534C256.405 32.0096 267.991 36.4238 259.459 50.6086C252.633 61.9564 259.004 71.4141 262.177 73.4641L321.414 85.1506C324.854 77.2177 324.423 68.8281 314.091 59.9864C303.759 51.1446 311.412 42.8953 305.392 27.1017Z" fill="#0B2F4E"/>
<path d="M239.014 104.361C244.93 80.1702 268.327 66.7081 279.286 63.001C280.105 65.503 281.709 70.77 281.578 71.8218C281.446 72.8736 259.283 93.9529 248.217 104.361H239.014Z" fill="#FDD21B"/>
<path d="M278.856 65.9829L281.039 53.2607L296.855 43.0593L302.097 64.983L306.233 67.7719L307.559 72.1574L300.011 77.1336L288.297 77.3105L281.138 74.7216L273.952 72.6606L274.702 68.2943C276.837 67.7987 276.459 66.4724 278.856 65.9829Z" fill="#FDDEBF"/>
<path d="M157.152 97.3301H284.973" stroke="#B9C0FF" stroke-width="6.09317" stroke-linecap="round"/>
<path d="M152.243 112.127H280.064" stroke="#B9C0FF" stroke-width="6.09317" stroke-linecap="round"/>
<path d="M148.464 126.078H276.286" stroke="#B9C0FF" stroke-width="6.09317" stroke-linecap="round"/>
<path d="M145.374 141.338H273.195" stroke="#B9C0FF" stroke-width="6.09317" stroke-linecap="round"/>
<path fill-rule="evenodd" clip-rule="evenodd" d="M265.556 31.0779C265.106 41.1753 266.497 57.4986 275.234 59.3506C284.951 61.4104 292.757 59.3566 294.892 50.5427C298.312 42.6116 298.162 29.0505 294.464 23.1144C291.3 18.0356 285.4 16.3695 281.096 16.0563C276.037 13.8006 270.641 15.9534 266.717 25.6084C266.012 27.3445 265.639 29.2057 265.556 31.0779Z" fill="#FDDEBF"/>
<path d="M290.939 56.9736C286.273 59.7088 282.358 60.4226 279.819 60.0062L279.008 64.7349C286.608 61.6051 288.799 58.728 290.939 56.9736Z" fill="#EBB47E"/>
<path d="M278.398 65.207C290.369 69.9408 298.751 64.82 301.296 61.2061C335.32 73.2504 344.879 108.514 346.928 119.461H238.252C246.498 96.2938 269.472 68.283 278.398 65.207Z" fill="#FDD21B"/>
<path d="M303.067 117.137H223.52" stroke="#505ACC" stroke-width="4.55731" stroke-linecap="round"/>
<path d="M267.925 82.3128L278.83 116.118L221.3 117.47L210.628 83.5424C210.217 82.2374 211.192 80.9092 212.56 80.9092H265.997C266.876 80.9092 267.655 81.4762 267.925 82.3128Z" fill="#505ACC"/>
<path d="M275.666 24.4634C278.628 22.9253 281.363 17.0191 281.714 14.9717L275.65 13.9309C274.246 13.6899 265.519 22.4297 261.332 26.8297C261.968 30.492 264.408 39.1813 265.085 35.2402C266.112 29.2566 270.334 27.2319 275.666 24.4634Z" fill="#0A2D4D"/>
<path d="M297.389 35.5504C283.464 35.7806 277.801 21.6373 275.933 16.3785C276.616 14.5083 281.124 10.4624 286.909 10.4436C294.139 10.4201 306.483 18.5009 306.936 33.7547C307.298 45.9578 302.29 38.0159 299.74 32.5196L297.389 35.5504Z" fill="#0A2D4D"/>
<circle r="4.56253" transform="matrix(-0.992424 0.122859 0.122859 0.992424 296.236 39.2321)" fill="#FDDEBF"/>
<path d="M294.006 40.2257C294.311 39.336 295.575 37.4153 298.19 36.8496" stroke="#EBB47E" stroke-width="0.74198" stroke-linecap="round"/>
<path d="M296.091 37.7521C296.802 38.0961 298.265 39.2177 298.429 40.9513" stroke="#EBB47E" stroke-width="0.74198" stroke-linecap="round"/>
<path d="M268.372 40.3933C269.687 40.6277 270.6 41.3434 271.205 42.1399C272.161 43.397 271.791 45.3288 270.267 45.7433C268.616 46.1924 266.52 45.7025 265.467 44.8546C263.901 43.5931 265.105 39.811 268.372 40.3933Z" fill="#FEB7A1"/>
<path d="M284.954 42.2383C286.32 42.4817 287.233 43.2665 287.81 44.1048C288.581 45.2264 288.288 46.8645 286.998 47.2995C285.385 47.8435 283.228 47.3684 282.169 46.5161C280.667 45.3065 281.822 41.6799 284.954 42.2383Z" fill="#FEB7A1"/>
<path d="M303.067 66.7686C300.077 69.5948 290.976 74.1413 278.491 69.7176" stroke="#FDE46E" stroke-width="1.48396" stroke-linecap="round"/>
<circle r="0.660919" transform="matrix(-1 0 0 1 276.076 68.5066)" fill="#FDE46E"/>
<path d="M44.9041 140.182L44.859 110.674L69.3218 117.582L69.6156 140.981L44.9041 140.182Z" fill="#FDDEBF"/>
<path d="M80.8178 97.3907C84.0178 112.925 81.957 124.169 69.3018 126.046C57.6441 127.775 48.2226 119.548 45.0505 106.134C41.8784 92.7199 47.5931 79.886 57.8146 77.4689C80.8183 67.8452 77.6457 83.9764 80.8178 97.3907Z" fill="#FDDEBF"/>
<circle cx="77.5754" cy="96.0516" r="1.06307" transform="rotate(-13.3045 77.5754 96.0516)" fill="#11243E"/>
<path d="M73.8529 100.186C75.3854 100.047 76.655 100.481 77.6502 101.127C79.6794 102.445 79.8574 105.54 77.675 106.585C75.761 107.501 73.2186 107.541 71.7054 106.881C69.2704 105.819 69.4876 100.581 73.8529 100.186Z" fill="#FEB7A1"/>
<path d="M74.7869 93.4705C75.2519 92.8619 76.2493 92.2788 77.3444 92.2602" stroke="#11243E" stroke-width="0.31829" stroke-linecap="round"/>
<path d="M52.598 119.139C63.4565 116.705 62.3884 104.224 61.4876 98.5505C61.1791 95.3364 61.6102 92.738 62.4038 90.6846C64.4348 85.4292 70.5176 83.3067 74.8125 79.6601C82.3912 73.2253 81.1508 68.7695 79.7355 66.1841C77.9876 62.9909 70.7682 67.5558 69.6898 65.707C68.6114 63.8581 65.9585 61.5606 64.4266 65.3113C62.8948 69.0619 58.0017 62.2343 54.3538 62.6746C50.7059 63.1148 50.1494 65.7943 47.8577 69.755C45.5659 73.7157 38.4353 69.9469 34.891 73.8497C31.3468 77.7525 35.3916 93.7656 36.6999 99.9541C38.2968 107.507 40.7555 121.793 52.598 119.139Z" fill="#11243E"/>
<circle cx="59.54" cy="100.611" r="4.77534" transform="rotate(-13.3045 59.54 100.611)" fill="#FDDEBF"/>
<path d="M60.8882 101.583C60.4951 100.897 59.4402 99.2371 57.0964 99.2764" stroke="#E9B986" stroke-width="0.737023" stroke-linecap="round"/>
<path d="M59.1387 100C58.7417 100.282 58.1217 100.634 57.9074 101.89" stroke="#E9B986" stroke-width="0.737023" stroke-linecap="round"/>
<path d="M59.816 122.939C65.6984 126.669 68.8708 126.099 69.4545 126.043L69.484 129.482C64.2091 126.849 60.8408 124.023 59.816 122.939Z" fill="#E4A566"/>
<path d="M94.6905 144.267C71.2924 128.305 51.0465 133.169 35.839 142.155C20.401 151.277 11.9073 168.613 9.93665 186.436C6.80907 214.722 8.81046 237.719 13.0603 258.563C13.728 261.837 16.6468 264.14 19.9885 264.115L106.968 263.461C109.023 263.445 110.743 261.897 110.973 259.855L112.781 243.874L91.1549 211.647C95.9813 217.183 117.446 202.099 126.607 190.694C117.984 169.486 108.542 153.716 94.6905 144.267Z" fill="#43EB8F"/>
<path d="M113.987 43.2398L105.911 77.4748C105.459 79.3876 106.911 81.2209 108.876 81.2209H156.594C158.493 81.2209 160.138 79.9053 160.556 78.0529L168.279 43.8275C168.709 41.9223 167.26 40.1104 165.307 40.1104H117.94C116.056 40.1104 114.419 41.406 113.987 43.2398Z" fill="#DEEDFF"/>
<path d="M121.443 50.9146L116.988 69.7991C116.537 71.712 117.988 73.5452 119.954 73.5452H147.204C149.103 73.5452 150.749 72.2296 151.167 70.3772L155.426 51.5023C155.855 49.5971 154.407 47.7852 152.454 47.7852H125.397C123.513 47.7852 121.876 49.0808 121.443 50.9146Z" fill="#A2ABFA"/>
<path d="M216.08 100.733L210.72 83.6417C210.31 82.3335 211.287 81.0029 212.658 81.0029H244.899" stroke="#43EB8F" stroke-width="1.7264" stroke-linecap="round"/>
<circle cx="247.87" cy="80.9094" r="0.898612" fill="#43EB8F"/>
<mask id="mask0_256_1111" style="mask-type:alpha" maskUnits="userSpaceOnUse" x="0" y="131" width="127" height="146">
<path d="M94.6897 144.268C70.8463 128.002 46.1257 129.317 27.8042 135.683C10.8659 141.569 1.57144 158.658 0.836034 176.574C-0.72178 214.527 7.73043 254.858 13.777 276.528H109.059L112.78 243.876L91.1541 211.648C106.376 208.327 117.446 202.1 126.606 190.695C117.983 169.487 108.541 153.717 94.6897 144.268Z" fill="#43EB8F"/>
</mask>
<g mask="url(#mask0_256_1111)">
<path d="M80.6555 195.792C86.6336 206.968 90.186 211.062 91.2149 211.712L114.283 236.73C119.752 251.35 126.987 276.238 112.171 258.823C97.3555 241.408 84.9875 209.546 80.6555 195.792Z" fill="#32DA7E"/>
</g>
<path d="M126.388 190.248L138.53 215.534C147.368 207.85 165.899 190.523 169.325 182.691C173.609 172.901 181.445 164.306 185.807 165.463C190.169 166.621 177.973 173.518 181.89 178.104C185.807 182.691 201.035 168.822 202.378 171.061C203.271 172.548 198.773 176.606 195.213 179.394C197.748 177.528 201.136 175.298 202.601 176.051C204.984 177.276 197.329 183.524 194.812 185.312C195.462 184.862 198.563 183.299 199.322 184.426C200.059 185.522 196.198 188.896 194.653 189.72C195.28 189.441 196.575 190.566 194.78 191.966C192.506 193.74 182.676 194.123 179.541 203.302C176.407 212.482 169.914 237.782 143.718 255.694C126.34 267.576 102.961 235.763 89.8913 210.617C97.0685 208.759 115.874 203.267 126.388 190.248Z" fill="#FDDEBF"/>
<mask id="mask1_256_1111" style="mask-type:alpha" maskUnits="userSpaceOnUse" x="89" y="165" width="115" height="94">
<path d="M126.388 190.248L138.53 215.534C147.368 207.85 165.899 190.523 169.325 182.691C173.609 172.901 181.445 164.306 185.807 165.463C190.169 166.621 177.973 173.518 181.89 178.104C185.807 182.691 201.035 168.822 202.378 171.061C203.271 172.548 198.773 176.606 195.213 179.394C197.748 177.528 201.136 175.298 202.601 176.051C204.984 177.276 197.329 183.524 194.812 185.312C195.462 184.862 198.563 183.299 199.322 184.426C200.059 185.522 196.198 188.896 194.653 189.72C195.28 189.441 196.575 190.566 194.78 191.966C192.506 193.74 182.676 194.123 179.541 203.302C176.407 212.482 169.914 237.782 143.718 255.694C126.34 267.576 102.961 235.763 89.8913 210.617C97.0685 208.759 115.874 203.267 126.388 190.248Z" fill="#FDDEBF"/>
</mask>
<g mask="url(#mask1_256_1111)">
<path d="M140.711 248.077C122.077 253.91 101.081 223.773 92.9117 207.975L85.4178 209.595L82.3797 229.849L124.508 259.014L150.838 260.634L181.016 236.127L172.307 227.621C169.539 232.009 159.344 242.244 140.711 248.077Z" fill="#EBB47E" fill-opacity="0.32"/>
</g>
<path d="M123.9 49.9434L133.208 58.9562C134.169 59.887 135.626 60.0816 136.798 59.4358L154.024 49.9434" stroke="white" stroke-width="2.03106" stroke-linecap="round"/>
<path d="M141.04 57.9043L150.844 66.6538" stroke="white" stroke-width="2.03106" stroke-linecap="round"/>
<path d="M130.391 57.626L119.642 66.5832" stroke="white" stroke-width="2.03106" stroke-linecap="round"/>
</svg>
