<svg width="429" height="342" viewBox="0 0 429 342" fill="none" xmlns="http://www.w3.org/2000/svg">
<path d="M151.932 255.481C106.352 236.643 41.3035 163.192 85.0817 100.483C170.198 -21.4392 225.061 153.442 349.525 121.78C416.968 104.624 467.71 211.201 317.96 252.042" stroke="#ABC7F3" stroke-width="4.57742" stroke-linecap="round" stroke-dasharray="10.68 10.68"/>
<path d="M30.8688 205.478C92.6318 205.448 115.913 233.747 119.827 248.846C155.021 265.397 208.134 294.793 139.032 279.978C80.997 267.534 43.1492 236.796 25.6415 216.296C21.8292 211.832 24.9984 205.481 30.8688 205.478Z" fill="#4ED98D"/>
<mask id="mask0_302_4" style="mask-type:alpha" maskUnits="userSpaceOnUse" x="23" y="205" width="150" height="80">
<path d="M30.8683 205.478C92.6314 205.448 115.912 233.747 119.826 248.846C155.02 265.397 208.133 294.793 139.031 279.978C80.9965 267.534 43.1487 236.796 25.641 216.296C21.8287 211.832 24.9979 205.481 30.8683 205.478Z" fill="#4ED98D"/>
</mask>
<g mask="url(#mask0_302_4)">
<path d="M120.231 262.367C77.86 249.667 41.3898 229.15 28.451 220.478L28.0285 231.988L100.461 293.216C124.706 288.225 162.601 275.067 120.231 262.367Z" fill="#1F35A8" fill-opacity="0.12"/>
</g>
<mask id="mask1_302_4" style="mask-type:alpha" maskUnits="userSpaceOnUse" x="23" y="205" width="150" height="80">
<path d="M30.8683 205.478C92.6314 205.448 115.912 233.747 119.826 248.846C155.02 265.397 208.133 294.793 139.031 279.978C80.9965 267.534 43.1487 236.796 25.641 216.296C21.8287 211.832 24.9979 205.481 30.8683 205.478Z" fill="#4ED98D"/>
</mask>
<g mask="url(#mask1_302_4)">
<path d="M17.2038 205.708L117.923 249.504" stroke="#DCFFEC" stroke-width="2.77042"/>
<path d="M97.8489 241.792C96.9797 242.004 75.0231 250.778 66.9328 253.788" stroke="#DCFFEC" stroke-width="2.77042"/>
<circle r="2.96675" transform="matrix(-0.971636 0.236482 0.236482 0.971636 93.4698 253.474)" stroke="#DCFFEC" stroke-width="2.77042"/>
<path d="M51.6182 220.918L32.9387 226.612" stroke="#DCFFEC" stroke-width="2.77042"/>
<path d="M59.2162 224.206L37.7201 231.233" stroke="#DCFFEC" stroke-width="2.77042"/>
<path d="M63.4348 226.001L56.567 205.526" stroke="#DCFFEC" stroke-width="2.77042"/>
<path d="M82.7749 234.339C81.9057 234.55 62.2338 242.28 54.1436 245.291" stroke="#DCFFEC" stroke-width="2.77042"/>
</g>
<path d="M27.3501 134.639C102.9 157.852 127.145 197.557 125.963 217.101C161.254 250.216 204.681 309.13 128.593 265.035C63.3922 227.249 30.3849 174.999 18.1142 144.22C15.7427 138.271 21.2285 132.759 27.3501 134.639Z" fill="#43EB8F"/>
<mask id="mask2_302_4" style="mask-type:alpha" maskUnits="userSpaceOnUse" x="15" y="132" width="153" height="150">
<path d="M19.3976 132.321C100.847 155.276 119.052 200.596 117.829 220.809C153.12 253.924 204.68 309.13 128.593 265.035C57.5118 223.842 24.693 165.458 15.2915 136.442C14.469 133.904 16.8294 131.597 19.3976 132.321Z" fill="#3EF993"/>
</mask>
<g mask="url(#mask2_302_4)">
<path d="M19.7623 136.278L116.11 222.871" stroke="#D3FFE7" stroke-width="4.61737"/>
<path d="M50.8069 163.99L47.9523 140.882" stroke="#D3FFE7" stroke-width="4.61737"/>
<path d="M68.6868 179.855L65.3334 144.832" stroke="#D3FFE7" stroke-width="4.61737"/>
<path d="M76.1346 186.974L41.8298 189.619" stroke="#D3FFE7" stroke-width="4.61737"/>
<path d="M102.007 210.109L61.3145 213.732" stroke="#D3FFE7" stroke-width="4.61737"/>
<circle r="3.75366" transform="matrix(-0.971636 0.236482 0.236482 0.971636 70.9525 200.927)" stroke="#D3FFE7" stroke-width="2.30869"/>
<path d="M77.1393 173.633C77.5895 175.483 79.4538 176.617 81.3034 176.167C83.153 175.717 84.2875 173.853 83.8373 172.003C83.3871 170.154 81.5228 169.019 79.6732 169.469C77.8236 169.92 76.6892 171.784 77.1393 173.633Z" stroke="#D3FFE7" stroke-width="2.30869"/>
</g>
<path d="M357.289 142.277C358.445 130.853 356.735 118.82 347.748 111.229C321.754 89.275 299.661 113.765 274.477 130.361C267.931 135.046 254.448 141.359 239.927 129.377C223.835 116.1 181.999 103.768 172.088 151.834C165.148 185.489 251.28 232.665 299.528 248.316C311.716 307.776 375.831 306.124 389.078 260.979C402.326 215.834 334.501 200.969 322.313 185.553C315.593 177.053 325.663 171.37 337.645 166.196C347.863 161.783 356.168 153.35 357.289 142.277Z" fill="#FFD35A"/>
<ellipse cx="234.741" cy="314.494" rx="121.963" ry="6.90769" fill="#C7CBF6"/>
<rect x="113.042" y="140.875" width="233.62" height="154.998" rx="10.316" fill="#0A2D4D"/>
<rect x="124.256" y="146.545" width="204.547" height="143.657" fill="#CCD0FF"/>
<circle cx="337.639" cy="218.376" r="6.50313" fill="#E7F0F4" fill-opacity="0.19"/>
<mask id="mask3_302_4" style="mask-type:alpha" maskUnits="userSpaceOnUse" x="124" y="146" width="205" height="145">
<rect x="124.256" y="146.545" width="204.547" height="143.657" fill="#DCDFFF"/>
</mask>
<g mask="url(#mask3_302_4)">
<path d="M332.559 184.821H125.18H113.854V139.518H332.559V184.821Z" fill="#EAECFF"/>
</g>
<path d="M209.051 211.873H301.759" stroke="white" stroke-width="5.77171" stroke-linecap="round"/>
<path d="M209.051 225.425H301.759" stroke="white" stroke-width="5.77171" stroke-linecap="round"/>
<path d="M209.051 239.436H260.161M301.759 239.436H273.077" stroke="white" stroke-width="5.77171" stroke-linecap="round"/>
<path d="M209.051 252.799H232.531M301.759 252.799H246.577" stroke="white" stroke-width="5.77171" stroke-linecap="round"/>
<circle cx="164.565" cy="230.286" r="21.5108" fill="#43EA8E"/>
<path fill-rule="evenodd" clip-rule="evenodd" d="M148.24 240.593C149.409 234.325 154.098 229.296 160.177 227.634C161.045 229.161 162.686 230.191 164.568 230.191C166.449 230.191 168.091 229.161 168.958 227.634C175.038 229.296 179.727 234.325 180.896 240.594C177.679 246.285 171.572 250.126 164.568 250.126C157.564 250.126 151.457 246.285 148.24 240.593Z" fill="#505ACC"/>
<circle cx="164.565" cy="225.212" r="4.06523" fill="#FDDEBF"/>
<path d="M137.147 160.783H158.325" stroke="#505ACC" stroke-width="3.05202" stroke-linecap="round"/>
<path d="M137.147 167.149H158.325" stroke="#505ACC" stroke-width="3.05202" stroke-linecap="round"/>
<path d="M137.147 173.477H158.325" stroke="#505ACC" stroke-width="3.05202" stroke-linecap="round"/>
<path d="M362.575 238.968L377.132 234.974L362.624 233.045L362.575 238.968Z" fill="#588DED"/>
<path d="M309.538 251.561L366.65 203.035L365.007 223.993L377.021 234.866L363.33 233.895L362.367 260.194L309.538 251.561Z" fill="#DCEDFF"/>
<path d="M365.012 224.006L377.138 234.98L363.441 233.852L309.473 251.545L365.012 224.006Z" fill="#ABC7F3"/>
<circle cx="142.504" cy="107.447" r="13.1818" fill="#8E96F2"/>
<circle cx="143.39" cy="36.4867" r="35.4985" fill="#FFD35A"/>
<path d="M123.203 94.2677C122.634 76.9772 119.524 63.0053 115.475 58.1609L143.033 51.9229L169.533 60.4269C159.869 69.6201 162.682 86.0494 162.367 94.2677H123.203Z" fill="#FFD35A"/>
<rect x="122.685" y="85.8936" width="39.6354" height="23.1981" rx="7.06662" fill="#505ACD"/>
<path d="M119.006 26.7619C121.316 20.8872 130.214 9.61308 147.324 11.5141" stroke="white" stroke-opacity="0.57" stroke-width="5.02182" stroke-linecap="round"/>
<path d="M147.808 85.8941V75.9337C147.808 69.0417 149.825 62.3285 153.033 56.2285C156.117 50.3646 159.151 43.6707 159.811 39.3826C160.214 36.76 159.904 33.5462 157.556 33.7597C154.62 34.0265 154.493 42.9668 151.151 43.5005C147.808 44.0343 151.004 32.4253 147.808 33.0925C144.612 33.7597 145.28 43.5005 142.477 43.5005C139.675 43.5005 141.543 32.4253 138.207 33.0925C134.871 33.7597 138.474 42.0327 135.405 43.5005C132.336 44.9683 132.069 34.16 128.467 35.2275C124.864 36.295 128.066 46.9699 129.534 51.1064C129.93 52.2211 130.77 53.8214 131.803 55.5829C135.656 62.1557 138.207 69.48 138.207 77.0991V85.8941" stroke="white" stroke-width="2.11999"/>
<path d="M125.718 97.5859H159.959" stroke="white" stroke-opacity="0.35" stroke-width="1.76665" stroke-linecap="round"/>
<path d="M125.718 92.2949H159.959" stroke="white" stroke-opacity="0.35" stroke-width="1.76665" stroke-linecap="round"/>
<path d="M125.718 102.518H159.959" stroke="white" stroke-opacity="0.35" stroke-width="1.76665" stroke-linecap="round"/>
<rect x="205.793" y="41.7773" width="62.6324" height="62.6324" rx="7.29331" fill="#EAEBFF"/>
<path fill-rule="evenodd" clip-rule="evenodd" d="M257.675 73.6157H236.617V52.5596C236.617 52.5596 236.617 52.5596 236.617 52.5596C248.247 52.5596 257.674 61.9866 257.675 73.6157Z" fill="#8E96F2"/>
<path fill-rule="evenodd" clip-rule="evenodd" d="M235.036 56.6445C235.036 56.6445 235.036 56.6445 235.036 56.6445C224.823 56.6445 216.544 64.9237 216.544 75.1366C216.544 85.3495 224.823 93.6286 235.036 93.6286C245.249 93.6286 253.528 85.3495 253.528 75.1366C253.528 75.1355 253.528 75.1345 253.528 75.1335H235.036V56.6445Z" fill="#B0B7FF"/>
<rect x="384.569" y="126.014" width="44.2898" height="44.2898" rx="7.07186" fill="#FF4F9C"/>
<rect x="393.536" y="145.735" width="6.55674" height="17.266" fill="#D3D7FF"/>
<rect x="403.436" y="140.691" width="6.55674" height="22.3073" fill="#D3D7FF"/>
<rect x="413.335" y="133.32" width="6.55674" height="29.6759" fill="white"/>
</svg>
