<svg width="332" height="211" viewBox="0 0 332 211" fill="none" xmlns="http://www.w3.org/2000/svg">
<path d="M0 138.967C6.46496e-05 180.502 65.6244 183.551 87 179.957C136.038 187.504 227.533 187.189 234 172.959C242.083 155.171 222.933 146.513 210 138.967C197.067 131.42 222.767 117.156 226 93.9776C229.233 70.7991 215.25 66.9149 191 60.9855C166.75 55.0561 190.789 16.9209 166 3.99913C138.161 -10.5127 110.55 31.4534 96 31.9924C81.4502 32.5315 68.1169 13.1724 51 23.9944C28.656 38.1211 68.5582 90.1938 47 100.976C32.9891 107.983 -5.58247e-05 103.102 0 138.967Z" fill="#D0F6FF"/>
<ellipse cx="68" cy="97.9768" rx="5" ry="4.99881" fill="#BDEDF9"/>
<path d="M48.9992 134.968C39.35 156.42 62.3745 166.919 73.9992 165.961L108.999 141.966L128.999 90.9786C122.067 83.4194 107.583 72.8365 103.999 90.9786C99.52 113.656 60.8678 108.582 48.9992 134.968Z" fill="#BDEDF9"/>
<ellipse cx="212" cy="191.454" rx="108" ry="11.4973" fill="#11243E" fill-opacity="0.46"/>
<rect x="79" y="38.9907" width="106" height="148.964" fill="#8A84ED"/>
<rect x="84" y="45.9893" width="96" height="134.968" fill="#CBC8FC"/>
<path d="M310 38.9907C309.946 47.2651 311.871 67.3262 312 67.9838L310 69.9833L282 47.9886L310 38.9907Z" fill="white" fill-opacity="0.52"/>
<ellipse cx="85" cy="204.951" rx="32" ry="5.99857" fill="#11243E" fill-opacity="0.46"/>
<rect x="255" y="123.971" width="59" height="33.9919" rx="16.9959" fill="#ED1E79"/>
<rect x="239" y="88.979" width="59" height="34.9916" rx="17.1979" fill="#FFD35A"/>
<rect x="238" y="157.962" width="59" height="33.9919" rx="16.9959" fill="#172E4E"/>
<mask id="mask0_3_6910" style="mask-type:alpha" maskUnits="userSpaceOnUse" x="255" y="123" width="59" height="35">
<rect x="255" y="123.971" width="59" height="33.9919" rx="16.9959" fill="#ED1E79"/>
</mask>
<g mask="url(#mask0_3_6910)">
<path d="M318 137.967C308.364 141.402 293.389 141.969 287 141.966L271 149.964L267 156.963L287 161.962C295.269 159.436 311.385 153.772 312 152.964C312.615 152.155 316.377 142.766 318 137.967Z" fill="#E2136E"/>
</g>
<mask id="mask1_3_6910" style="mask-type:alpha" maskUnits="userSpaceOnUse" x="236" y="89" width="59" height="35">
<rect x="236" y="89.9785" width="59" height="33.9919" rx="16.9959" fill="#FFD35A"/>
</mask>
<g mask="url(#mask1_3_6910)">
<path d="M300 107.975C290.364 111.41 275.389 111.976 269 111.974L253 119.972L249 126.97L269 131.969C277.269 129.443 293.385 123.779 294 122.971C294.615 122.163 298.377 112.773 300 107.975Z" fill="#FAAF49" fill-opacity="0.59"/>
</g>
<mask id="mask2_3_6910" style="mask-type:alpha" maskUnits="userSpaceOnUse" x="237" y="157" width="59" height="36">
<rect x="237" y="157.962" width="59" height="34.9916" rx="17.1979" fill="#172E4E"/>
</mask>
<g mask="url(#mask2_3_6910)">
<path d="M300 173.958C290.364 177.537 275.389 177.96 269 177.958L253 185.956L249 193.954L269 198.953C277.269 196.322 293.385 190.797 294 189.955C294.615 189.113 298.377 178.957 300 173.958Z" fill="#102849"/>
</g>
<path d="M124 159.962H256.004C264.286 159.962 271 166.676 271 174.958C271 183.241 264.286 189.955 256.004 189.955H124V159.962Z" fill="white"/>
<path d="M141 125.97H273.004C281.286 125.97 288 132.684 288 140.967C288 149.249 281.286 155.963 273.004 155.963H141V125.97Z" fill="white"/>
<path fill-rule="evenodd" clip-rule="evenodd" d="M270.841 168.187L270 179.957L269.568 180.605C255.865 169.785 207.618 163.072 185 160.962H260L270.841 168.187Z" fill="#C7CBF6" fill-opacity="0.46"/>
<path d="M126 91.978H258.004C266.286 91.978 273 98.6922 273 106.974C273 115.257 266.286 121.971 258.004 121.971H126V91.978Z" fill="white"/>
<path d="M129 169.959C129.983 169.959 208.743 169.959 248 169.959" stroke="#C7CBF6" stroke-width="2.5572" stroke-linecap="round"/>
<path d="M132 100.976C132.983 100.976 211.743 100.976 251 100.976" stroke="#C7CBF6" stroke-width="2.5572" stroke-linecap="round"/>
<path d="M129 175.958C129.983 175.958 208.743 175.958 248 175.958" stroke="#C7CBF6" stroke-width="2.5572" stroke-linecap="round"/>
<path d="M132 106.975C132.983 106.975 211.743 106.975 251 106.975" stroke="#C7CBF6" stroke-width="2.5572" stroke-linecap="round"/>
<path d="M129 181.957C129.983 181.957 208.743 181.957 248 181.957" stroke="#C7CBF6" stroke-width="2.5572" stroke-linecap="round"/>
<path d="M132 112.973C132.983 112.973 211.743 112.973 251 112.973" stroke="#C7CBF6" stroke-width="2.5572" stroke-linecap="round"/>
<path d="M147 134.968C147.983 134.968 226.743 134.968 266 134.968" stroke="#C7CBF6" stroke-width="2.5572" stroke-linecap="round"/>
<path d="M147 140.967C147.983 140.967 226.743 140.967 266 140.967" stroke="#C7CBF6" stroke-width="2.5572" stroke-linecap="round"/>
<path d="M147 146.965C147.983 146.965 226.743 146.965 266 146.965" stroke="#C7CBF6" stroke-width="2.5572" stroke-linecap="round"/>
<path d="M270 113.973C252.159 101.52 190.019 94.6697 161 92.9778L167 91.978H254L267 95.9771L273 108.974L270 113.973Z" fill="#C7CBF6" fill-opacity="0.46"/>
<path d="M287 148.965C275.614 135 222.265 128.369 197 126.97L207 125.97H271L285 126.97L291 141.966L287 148.965Z" fill="#C7CBF6" fill-opacity="0.46"/>
<path d="M142 114.973V99.9766H152V114.973L147 109.974L142 114.973Z" fill="#ED1E79"/>
<path d="M124 91.978H257.004C265.286 91.978 272 98.6922 272 106.974V106.974C272 115.257 265.286 121.971 257.004 121.971H124" stroke="#172E4E" stroke-width="5.02791" stroke-linecap="round"/>
<path d="M123 159.962H257.004C265.286 159.962 272 166.676 272 174.958V174.958C272 183.241 265.286 189.955 257.004 189.955H123" stroke="#FFD35A" stroke-width="5.02791" stroke-linecap="round"/>
<path d="M140 125.97H274.004C282.286 125.97 289 132.684 289 140.967V140.967C289 149.249 282.286 155.963 274.004 155.963H140" stroke="#FF4F9C" stroke-width="5.02791" stroke-linecap="round"/>
<path d="M109 201.437V170.959H59V201.681C59 202.485 59.357 203.255 60.0936 203.578C67.2338 206.712 96.9167 208.422 107.663 203.64C108.522 203.258 109 202.377 109 201.437Z" fill="#11243E"/>
<ellipse cx="84" cy="170.959" rx="25" ry="3.99905" fill="#A2A9F7"/>
<path d="M76 168.872V158.962H93V168.9C93 169.521 92.5736 170.064 91.9636 170.181C86.6012 171.215 80.5002 170.737 77.068 170.16C76.4431 170.055 76 169.506 76 168.872Z" fill="#11243E"/>
<ellipse cx="84.5" cy="159.462" rx="8.5" ry="1.5" fill="#A2A9F7"/>
<path fill-rule="evenodd" clip-rule="evenodd" d="M81.1153 142.108C84.785 149.928 86.2875 157.117 86.0005 160.962H83.0005H81.0005C74.6468 154.084 68.8012 145.617 64.5932 137.399L68.0005 137.967L62.6643 133.394C60.198 127.918 58.5673 122.695 58.123 118.294C58.0194 117.267 59.1168 116.628 59.9843 117.187C68.9998 123 75.426 131.225 79.6402 139.157L79.6601 145.205L81.1153 142.108Z" fill="#FF4F9C"/>
<mask id="mask3_3_6910" style="mask-type:alpha" maskUnits="userSpaceOnUse" x="58" y="116" width="29" height="45">
<path fill-rule="evenodd" clip-rule="evenodd" d="M81.1151 142.107C84.785 149.928 86.2875 157.116 86.0005 160.962H83.0005H81.0005C74.6469 154.083 68.8015 145.617 64.5935 137.399L68.0005 137.967L62.6646 133.395C60.1981 127.918 58.5673 122.694 58.123 118.294C58.0194 117.267 59.1168 116.628 59.9843 117.187C68.9995 122.999 75.4256 131.224 79.6398 139.156L79.6593 145.205L81.1151 142.107Z" fill="#FF4F9C"/>
</mask>
<g mask="url(#mask3_3_6910)">
<path d="M58 115.972C61.9358 120.629 75.8305 141.154 84 161.961" stroke="#FFD8E9" stroke-width="1.2786" stroke-linecap="round"/>
<path d="M70 133.968L71 124.97" stroke="#FFD8E9" stroke-width="1.2786" stroke-linecap="round"/>
<path d="M73 138.967L74 129.969" stroke="#FFD8E9" stroke-width="1.2786" stroke-linecap="round"/>
</g>
<circle cx="72.5" cy="146.466" r="1.02052" stroke="#FFD8E9" stroke-width="0.958951"/>
<path d="M280 130.969L282 123.97C285.647 123.532 292.383 123.404 292 125.97C291.617 128.535 290.415 131.094 290 131.968C286.016 131.968 281.679 131.43 280 130.969Z" fill="#FDDEBF"/>
<path d="M300.494 132.509L298.935 125.614C302.231 123.888 309.373 121.024 309.926 123.565C310.48 126.106 309.697 130.204 309.616 131.173C305.845 132.61 302.247 132.336 300.494 132.509Z" fill="#FDDEBF"/>
<path d="M251.051 39.7616C243.579 44.5216 251.193 71.4002 252.435 81.7407L253.49 82.6821L268.466 81.8314L273.345 79.5515C273.436 74.4343 272.113 63.1863 269.93 54.7111C266.384 40.9445 257.864 35.4213 251.051 39.7616Z" fill="#43EB8F"/>
<path d="M306 84.98C302.271 79.6369 281.695 75.9718 272 74.9824L271 80.981L290 85.9798L297 103.975L300 128.97H315C313.446 116.416 309.729 90.3231 306 84.98Z" fill="#11243E"/>
<path d="M256 89.9788C251.22 86.3903 253.15 78.4214 254 74.9824H272C289.058 78.0393 302.102 79.8075 305 85.9798C307.898 92.152 304.333 118.315 301 129.969L281 126.97C284.294 115.048 285.778 101.474 288 94.9776C278.654 93.853 259.386 92.5204 256 89.9788Z" fill="#103260"/>
<path d="M252 80.981C259.75 77.2889 270.672 75.1632 273 74.9824V73.9827L271 72.9829H252V79.9812V80.981Z" fill="#43EB8F"/>
<path d="M259.999 28.1132L255.88 34.0309L253.801 37.9893C256.315 38.9947 261.376 41.0842 261.759 40.1479C262.142 39.2115 264.148 35.6689 264.878 34.2103L264.938 31.2116L259.999 28.1132Z" fill="#FDDEBF"/>
<path d="M316 64.9849L301 80.981L277 76.982" stroke="#D0F6FF" stroke-width="2.5572" stroke-linecap="round"/>
<path d="M296.471 66.656C295.118 65.0817 287.593 61.5837 284.847 60.7518C283.51 60.9283 282.127 62.7377 281.85 62.7558C281.505 62.7784 278.511 67.3415 281.781 68.1393C284.875 68.8939 287.164 69.3744 287.707 69.5147L287.864 71.7447C287.732 71.6687 287.409 71.2943 286.94 71.3616C286.471 71.4288 286.691 72.3857 288.021 73.9747C289.085 75.246 289.459 76.3942 290.792 75.1242C292.401 76.3638 291.931 74.884 292.099 74.5839C292.519 74.9859 293.614 75.2692 294.329 74.4267C295.044 73.5842 294.853 71.3904 294.938 70.3498C295.029 71.8508 295.95 74.0799 296.177 75.193C296.52 76.8802 297.208 77.645 297.641 76.8827C298.312 75.7009 298.162 68.624 296.471 66.656Z" fill="#FDDEBF"/>
<path d="M254 35.9917C251.744 37.3464 250.044 40.2902 249 42.99L259 48.9886C262.667 49.3884 268.526 47.9853 265 42.99C261.474 37.9947 256.394 36.2094 254 35.9917Z" fill="#43EB8F"/>
<path d="M256 34.9917C255.136 35.6833 254.364 36.5497 254 36.9912C257.256 37.6099 260.597 39.5058 263 40.9903C263.331 40.3964 262.988 40.2007 263 39.9905C258.73 36.6875 257.306 35.6206 256 34.9917Z" fill="#E4F1FF"/>
<path d="M260 34.9917C260.934 35.8075 262.389 36.659 263 36.9917V37.9917C262.066 37.1095 260.447 35.6241 260 34.9917Z" fill="#E9B986"/>
<path d="M267.698 36.1878C265.772 37.6246 262.698 36.8322 261.7 36.0682L257.8 30.9907C257.864 27.776 259.097 23.6833 262.978 22.0943C267.83 20.108 271.15 22.935 271.917 25.2723C272.684 27.6097 270.106 34.3918 267.698 36.1878Z" fill="#FDDEBF"/>
<path d="M258.331 31.7931C261.447 33.3011 263.212 30.0134 264.126 28.4153C264.597 27.6953 265.189 27.1567 265.808 26.7621C267.915 25.4185 270.649 26.321 273.119 25.9402C275.071 25.6393 275.31 24.6714 275.458 23.8804C275.672 22.7388 273.387 22.0756 273.495 21.4017C273.603 20.7278 272.941 19.6655 271.822 20.307C270.702 20.9486 270.83 18.4295 269.859 17.8283C268.887 17.2271 268.436 17.861 267.09 18.4069C265.744 18.9529 264.833 16.7671 263.195 17.0542C261.558 17.3413 258.897 21.3932 257.979 23.1999C256.858 25.4052 254.932 30.1485 258.331 31.7931Z" fill="#11243E"/>
<circle r="1.5" transform="matrix(0.999801 0.0199326 -0.019941 0.999801 264.47 28.5233)" fill="#FDDEBF"/>
<path d="M264.845 29.1274C264.81 28.8765 264.694 28.2573 264 27.9937" stroke="#E9B986" stroke-width="0.31965" stroke-linecap="round"/>
<path d="M264.99 28.1379C264.699 28.2144 264.266 28.2809 263.856 28.9832" stroke="#E9B986" stroke-width="0.31965" stroke-linecap="round"/>
<path d="M267.993 30.8762C268.173 30.8781 268.348 30.8899 268.515 30.91C269.666 31.0482 269.803 32.3031 268.749 32.7838C268.177 33.0445 267.574 33.1543 267.233 32.9789C266.538 32.6218 266.658 30.862 267.993 30.8762Z" fill="#FEB7A1"/>
<path d="M288 70.9834C288.26 71.4566 288.825 72.5192 289 72.9834" stroke="#E9B986" stroke-width="0.38358" stroke-linecap="round"/>
<path d="M298 75.9822C297.819 77.2268 296.43 77.8419 296 76.982C295.656 76.294 295.249 72.5373 295 70.9834C295.085 71.9808 295.678 74.0796 295 74.9824C294.322 75.8853 293.301 75.5373 293 74.9824" stroke="#E9B986" stroke-width="0.38358" stroke-linecap="round"/>
<path d="M293 70.9834C293.304 72.0985 293.729 74.8113 293 75.9822C292.62 76.5928 291.708 76.3381 291 75.9822M290 71.9832C290.412 73.143 290.988 75.4002 290 75.9822C289.012 76.5642 288.344 75.5888 288 74.9824" stroke="#E9B986" stroke-width="0.38358" stroke-linecap="round"/>
<rect x="289" y="20.9951" width="43" height="23.9943" rx="2.5572" fill="#11243E"/>
<path d="M291 130.969C286.364 132.765 280.254 128.917 280 128.969C278.985 130.404 278.304 133.79 278 134.968L297 141.966C297.718 141.642 297.701 141.654 298 140.966C298.632 139.514 295.618 138.372 294 134.968C292.923 132.702 291.897 131.865 291 130.969Z" fill="#11243E"/>
<path d="M310.966 130.761C307.103 134.532 300.127 132.205 299.898 132.337C299.367 134.025 299.818 137.444 299.895 138.66L320.133 139.301C320.727 138.762 320.693 138.786 320.766 138.037C320.893 136.737 318.219 137.067 315.392 134.557C313.634 132.995 312.119 131.322 310.966 130.761Z" fill="#11243E"/>
<path d="M250 41.9904C247.49 48.3502 256.555 58.4372 261 62.9854C266.065 65.3759 277.603 69.5175 283 70.9834C286.183 68.7733 287.056 63.9402 287 61.9856L269 54.9873C263.939 47.808 252.51 35.6305 250 41.9904Z" fill="#86FDBC"/>
<path d="M52 149.964C51.8475 154.91 49.0897 155.587 48 155.963C50.8572 156.119 51.994 160.291 52 161.961C52 158.481 54.4906 156.04 56 155.963C53.4908 155.533 51.9359 152.107 52 149.964Z" fill="#FF4F9C"/>
<path d="M217 51.9878C216.848 56.9335 214.09 57.6108 213 57.9864C215.857 58.1427 216.994 62.314 217 63.9849C217 60.5048 219.491 58.0635 221 57.9864C218.491 57.5569 216.936 54.1308 217 51.9878Z" fill="#FFD35A"/>
<path d="M274 71.9832C267.155 74.8949 259.24 76.4426 256 76.982C254.031 73.1675 250.666 64.4844 249 58.9863L250 66.9844L253 81.9808C260.981 77.984 270.342 76.446 274 75.9823V71.9832Z" fill="#28D877"/>
<rect x="288" y="20.9951" width="43" height="22.9945" rx="2.5572" fill="#DFEAFF"/>
<rect x="280" y="40.9902" width="25" height="9.99761" rx="1.2786" fill="#11243E"/>
<rect x="279" y="39.9907" width="25" height="9.99761" rx="1.2786" fill="#C2D7FC"/>
<circle cx="291" cy="22.9951" r="1" fill="white"/>
<circle cx="294" cy="22.9951" r="1" fill="white"/>
<circle cx="298" cy="22.9951" r="1" fill="white"/>
<path d="M289 26.9937H330" stroke="white" stroke-width="1.2786" stroke-linecap="round"/>
<path d="M283 43.9897H292" stroke="white" stroke-width="0.958951" stroke-linecap="round"/>
<path d="M283 45.9893H292" stroke="white" stroke-width="0.958951" stroke-linecap="round"/>
<mask id="mask4_3_6910" style="mask-type:alpha" maskUnits="userSpaceOnUse" x="249" y="40" width="39" height="31">
<path d="M250 41.9904C247.49 48.3502 256.555 58.4372 261 62.9854C266.065 65.3759 277.603 69.5175 283 70.9834C286.183 68.7733 287.056 63.9402 287 61.9856L269 54.9873C263.939 47.808 252.51 35.6305 250 41.9904Z" fill="#6DFAAD"/>
</mask>
<g mask="url(#mask4_3_6910)">
<path d="M262 60.9855C256.336 56.3903 251.733 47.1837 250 42.9897L249 47.9886L260 65.9843L284 71.9828L287 69.9833C276.46 67.5034 265.943 62.7785 262 60.9855Z" fill="#6DFAAD"/>
</g>
<mask id="mask5_3_6910" style="mask-type:alpha" maskUnits="userSpaceOnUse" x="84" y="45" width="96" height="136">
<rect x="84" y="45.9893" width="96" height="134.968" fill="#B5B1FF"/>
</mask>
<g mask="url(#mask5_3_6910)">
<path d="M83.0794 59.5128C114.699 60.143 162.448 63.4319 182.533 65.106L184.164 39.986L79.1557 42.7055L83.0794 59.5128Z" fill="#A8A4F9" fill-opacity="0.37"/>
</g>
<path d="M113 44.9787C113 43.8802 113.89 42.9897 114.989 42.9897H149.011C150.11 42.9897 151 43.8802 151 44.9787V48.9883H113V44.9787Z" fill="#FFBC35"/>
<path d="M118 37.9806C118 36.8822 118.89 35.9917 119.989 35.9917H143.011C144.11 35.9917 145 36.8822 145 37.9806V42.99H118V37.9806Z" fill="#FFBC35"/>
<path d="M137.006 35.9917C137.006 38.7552 134.765 40.9958 132 40.9958C129.235 40.9958 126.994 38.7552 126.994 35.9917C126.994 33.2283 129.235 30.9876 132 30.9876C134.765 30.9876 137.006 33.2283 137.006 35.9917Z" stroke="#FFBC35" stroke-width="1.98894"/>
<path d="M119 42.9897H140" stroke="#E09D15" stroke-width="1.2786" stroke-linecap="round"/>
<path d="M94 63.9849H170" stroke="white" stroke-opacity="0.46" stroke-width="3.1965" stroke-linecap="round"/>
<path d="M94 71.9829H170" stroke="white" stroke-opacity="0.46" stroke-width="3.1965" stroke-linecap="round"/>
<path d="M94 78.9814H170" stroke="white" stroke-opacity="0.46" stroke-width="3.1965" stroke-linecap="round"/>
<path d="M94 86.9795H170" stroke="white" stroke-opacity="0.46" stroke-width="3.1965" stroke-linecap="round"/>
<path d="M94 95.9775H170" stroke="white" stroke-opacity="0.46" stroke-width="3.1965" stroke-linecap="round"/>
<ellipse cx="202.5" cy="42.9898" rx="8.5" ry="7.99809" fill="#D0F6FF"/>
</svg>
