<svg width="400" height="433" viewBox="0 0 400 433" fill="none" xmlns="http://www.w3.org/2000/svg">
<g clip-path="url(#clip0_215_67)">
<rect width="400" height="433" rx="15" fill="#505ACC"/>
<g filter="url(#filter0_f_215_67)">
<path d="M432 456C432 586.339 326.339 692 196 692C65.6608 692 -40 586.339 -40 456C-40 325.661 65.6608 220 196 220C326.339 220 432 325.661 432 456Z" fill="#6EA9E4" fill-opacity="0.86"/>
</g>
<g clip-path="url(#clip1_215_67)">
<path d="M246.631 300.304C245.385 295.476 240.73 294.077 238.559 293.981L232.943 307.245L92.7172 326.665C91.4995 326.665 89.1358 328.177 89.4223 334.224C89.599 337.954 90.9075 339.948 92.2887 341.069C93.6975 342.211 95.6186 342.35 97.4324 342.35H238.454C242.97 342.35 246.631 338.689 246.631 334.173V300.304Z" fill="#FAAA33"/>
<rect x="89.2305" y="293.645" width="153.566" height="45.208" rx="6.13275" fill="#FBD535"/>
<path d="M137.68 293.72H234.431C238.947 293.72 242.608 297.381 242.608 301.897V327.188" stroke="white" stroke-width="2.04425" stroke-linecap="round"/>
<circle cx="131.549" cy="293.72" r="1.20939" fill="white"/>
<path d="M119.254 311.318H212.771" stroke="white" stroke-width="4.0885" stroke-linecap="round"/>
<path d="M119.254 321.18H212.771" stroke="white" stroke-width="4.0885" stroke-linecap="round"/>
<path d="M246.631 240.931C245.385 236.103 240.73 234.704 238.559 234.608L232.943 247.872L92.7172 267.292C91.4995 267.292 89.1358 268.804 89.4223 274.851C89.599 278.581 90.9075 280.575 92.2887 281.695C93.6975 282.838 95.6186 282.977 97.4324 282.977H238.454C242.97 282.977 246.631 279.316 246.631 274.8V240.931Z" fill="#505ACC"/>
<rect x="89.2305" y="234.272" width="153.566" height="45.208" rx="6.13275" fill="#DCDFFF"/>
<path d="M119.254 251.378H212.771" stroke="#7E85DF" stroke-width="4.0885" stroke-linecap="round"/>
<path d="M119.254 261.24H212.771" stroke="#7E85DF" stroke-width="4.0885" stroke-linecap="round"/>
<path d="M246.631 359.171C245.385 354.343 240.73 352.944 238.559 352.848L232.943 366.112L92.7172 385.532C91.4995 385.532 89.1358 387.044 89.4223 393.091C89.599 396.821 90.9075 398.816 92.2887 399.936C93.6975 401.078 95.6186 401.217 97.4324 401.217H238.454C242.97 401.217 246.631 397.556 246.631 393.04V359.171Z" fill="#505ACC"/>
<rect x="89.2305" y="352.512" width="153.566" height="45.208" rx="6.13275" fill="#DCDFFF"/>
<path d="M119.254 369.618H212.771" stroke="#7E85DF" stroke-width="4.0885" stroke-linecap="round"/>
<path d="M119.254 379.48H212.771" stroke="#7E85DF" stroke-width="4.0885" stroke-linecap="round"/>
<mask id="mask0_215_67" style="mask-type:alpha" maskUnits="userSpaceOnUse" x="0" y="-8" width="401" height="441">
<rect y="-8" width="400.081" height="440.797" rx="12.1729" fill="url(#paint0_linear_215_67)"/>
</mask>
<g mask="url(#mask0_215_67)">
<path d="M209.313 377.809C288.734 417.141 376.663 376.549 410.7 351.336L444.738 451.557H-11.9297V253.467C94.2524 253.466 110.037 328.644 209.313 377.809Z" fill="#CAD2FF" fill-opacity="0.34"/>
<ellipse cx="313.952" cy="372.815" rx="21.1039" ry="5.07634" fill="#001145"/>
<path d="M325.062 304.304C330.667 308.591 330.42 354.726 329.595 377.259L301.674 382.24V355.442C295.262 352.226 281.296 346.107 277.863 342.245C274.43 338.383 277.863 335.236 280.48 335.89C277.691 331.17 280.48 328.227 284.851 329.298C280.56 323.183 285.807 320.284 289.258 320.967C287.191 319.624 284.894 318.138 282.437 316.558C272.363 310.081 271.213 304.304 276.25 304.304C280.28 304.304 304.955 318.268 316.788 325.25C317.508 314.935 318.055 298.946 325.062 304.304Z" fill="#FDDEBF"/>
<path d="M292.89 372.338C307.645 378.515 327.061 374.912 334.925 372.338L337.927 450.831H289.459L292.89 372.338Z" fill="#45EA8E"/>
<path d="M316.762 324.72C314.298 325.989 309.021 331.156 307.627 341.667" stroke="#EBB47E" stroke-width="1.9781" stroke-linecap="round"/>
<path d="M293.545 322.869C288.695 320.422 285.952 321.215 284.538 322.749C283.176 324.227 283.543 326.771 285.081 328.066C286.036 328.87 287.9 329.662 293.545 332.188C303.378 336.586 305.275 333.816 305.275 331.667C305.275 330.838 302.947 327.613 293.545 322.869Z" stroke="#EBB47E" stroke-width="1.9781" stroke-linecap="round"/>
<path d="M289.315 331.081C285.424 329.118 283.019 329.067 281.564 329.817C279.298 330.985 280.079 334.642 282.132 336.155C283.228 336.963 285.226 338.049 289.315 339.879C299.148 344.277 301.045 342.028 301.045 339.879C301.045 339.05 298.716 335.825 289.315 331.081Z" stroke="#EBB47E" stroke-width="1.9781" stroke-linecap="round"/>
<path d="M285.389 338.442C281.498 336.478 279.093 336.427 277.638 337.177C275.372 338.346 276.153 342.003 278.206 343.515C279.303 344.324 281.3 345.41 285.389 347.239C295.222 351.638 297.119 349.388 297.119 347.239C297.119 346.41 294.79 343.185 285.389 338.442Z" stroke="#EBB47E" stroke-width="1.9781" stroke-linecap="round"/>
<path d="M288.281 348.795C292.791 351.12 303.816 356.408 311.832 358.97" stroke="#EBB47E" stroke-width="1.9781" stroke-linecap="round"/>
</g>
<path d="M260.12 283.01C259.832 292.055 254.483 293.241 252.422 293.928C257.825 294.214 260.109 301.896 260.12 304.952C260.12 298.587 264.697 294.069 267.551 293.928C262.806 293.143 259.999 286.929 260.12 283.01Z" fill="#FBD535"/>
</g>
</g>
<defs>
<filter id="filter0_f_215_67" x="-308.182" y="-48.1818" width="1008.36" height="1008.36" filterUnits="userSpaceOnUse" color-interpolation-filters="sRGB">
<feFlood flood-opacity="0" result="BackgroundImageFix"/>
<feBlend mode="normal" in="SourceGraphic" in2="BackgroundImageFix" result="shape"/>
<feGaussianBlur stdDeviation="134.091" result="effect1_foregroundBlur_215_67"/>
</filter>
<linearGradient id="paint0_linear_215_67" x1="200.04" y1="-8" x2="200.04" y2="432.797" gradientUnits="userSpaceOnUse">
<stop stop-color="#505ACB"/>
<stop offset="0.817708" stop-color="#658DE4"/>
</linearGradient>
<clipPath id="clip0_215_67">
<rect width="400" height="433" rx="15" fill="white"/>
</clipPath>
<clipPath id="clip1_215_67">
<rect width="400" height="213" fill="white" transform="translate(0 220)"/>
</clipPath>
</defs>
</svg>
