<svg width="212" height="152" viewBox="0 0 212 152" fill="none" xmlns="http://www.w3.org/2000/svg">
<path d="M171.999 38.9739C202.065 73.2169 184.377 96.8711 162.72 109.474C150.504 116.583 137.875 123.526 125.374 130.121C106.873 139.88 79.0397 147.175 48.9994 135.907C-4.03471 116.015 -7.34819 85.5349 9.99944 59.9595C27.3471 34.3841 61.1388 51.9797 76.9994 24.9835C92.8601 -2.01281 122.93 -16.9132 171.999 38.9739Z" fill="#DFE1F9"/>
<ellipse cx="111.5" cy="148.399" rx="49.5" ry="3.4976" fill="#DCDEF1"/>
<rect x="48" y="49.9663" width="127" height="79.9452" rx="3.53426" fill="#C4C9FF"/>
<rect x="53" y="55.9624" width="116" height="61.9575" rx="1.76713" fill="#A2A9FF"/>
<rect x="93" y="118.919" width="37" height="17.9877" fill="#C4C9FF"/>
<rect x="61" y="136.907" width="101" height="4.99657" rx="2.35656" fill="#C4C9FF"/>
<path d="M161 94.9357C161 89.9686 156.973 85.9419 152.006 85.9419H146.719C141.351 85.9419 137 90.2933 137 95.6611V103.93H152.006C156.973 103.93 161 99.9029 161 94.9357Z" fill="#505ACC"/>
<path d="M65 65.9556H125" stroke="white" stroke-width="3.53426" stroke-linecap="round"/>
<path d="M65 72.9507H125" stroke="white" stroke-width="3.53426" stroke-linecap="round"/>
<path d="M65 79.9458H98M125 79.9458H106" stroke="white" stroke-width="3.53426" stroke-linecap="round"/>
<path d="M65 86.9409H80M125 86.9409H89" stroke="white" stroke-width="3.53426" stroke-linecap="round"/>
<path d="M143 91.9375H155" stroke="#43EA8E" stroke-width="1.76713" stroke-linecap="round"/>
<path d="M143 94.9355H155" stroke="#43EA8E" stroke-width="1.76713" stroke-linecap="round"/>
<path d="M143 97.9336H155" stroke="#43EA8E" stroke-width="1.76713" stroke-linecap="round"/>
<path d="M24.5192 97.4338C24.7877 90.4586 30.5203 84.9424 37.5007 84.9424H46.6133C54.0066 84.9424 60 90.9358 60 98.329V110.925H37.5007C30.13 110.925 24.2358 104.799 24.5192 97.4338Z" fill="#505ACC"/>
<path d="M49.5219 97.4336C49.5219 101.86 45.9307 105.45 41.5 105.45C37.0693 105.45 33.4781 101.86 33.4781 97.4336C33.4781 93.0068 37.0693 89.4175 41.5 89.4175C45.9307 89.4175 49.5219 93.0068 49.5219 97.4336Z" stroke="#43EA8E" stroke-width="0.956188"/>
<path d="M44.5219 97.4336C44.5219 99.7249 44.0836 101.776 43.3959 103.236C42.6906 104.734 41.8108 105.45 41 105.45C40.1892 105.45 39.3094 104.734 38.6041 103.236C37.9164 101.776 37.4781 99.7249 37.4781 97.4336C37.4781 95.1423 37.9164 93.0913 38.6041 91.631C39.3094 90.1333 40.1892 89.4175 41 89.4175C41.8108 89.4175 42.6906 90.1333 43.3959 91.631C44.0836 93.0913 44.5219 95.1423 44.5219 97.4336Z" stroke="#43EA8E" stroke-width="0.956188"/>
<path d="M41.5 93.4149C43.7852 93.4149 45.8303 93.906 47.2868 94.6765C48.7648 95.4585 49.5219 96.4565 49.5219 97.4337C49.5219 98.411 48.7648 99.409 47.2868 100.191C45.8303 100.962 43.7852 101.453 41.5 101.453C39.2148 101.453 37.1697 100.962 35.7132 100.191C34.2352 99.409 33.4781 98.411 33.4781 97.4337C33.4781 96.4565 34.2352 95.4585 35.7132 94.6765C37.1697 93.906 39.2148 93.4149 41.5 93.4149Z" stroke="#43EA8E" stroke-width="0.956188"/>
<ellipse cx="86" cy="16.989" rx="11" ry="10.9925" fill="#43EA8E"/>
<path fill-rule="evenodd" clip-rule="evenodd" d="M78.1855 22.7116C78.8755 19.4631 81.4236 16.9007 84.6657 16.188C85.1224 16.6807 85.7753 16.9891 86.5003 16.9891C87.2253 16.9891 87.8782 16.6807 88.3348 16.188C91.9959 16.9928 94.772 20.1562 94.9869 24.0028C93.1616 26.4194 90.2635 27.9814 87.0002 27.9814C83.187 27.9814 79.8723 25.8486 78.1855 22.7116Z" fill="#505ACC"/>
<ellipse cx="86" cy="13.9908" rx="2" ry="1.99863" fill="#FDDEBF"/>
<ellipse cx="18.5" cy="47.4683" rx="18.5" ry="18.4873" fill="#AECEF4"/>
<path fill-rule="evenodd" clip-rule="evenodd" d="M6.18555 57.7614C7.0509 52.6865 10.8617 48.6148 15.798 47.3652C16.5276 48.3377 17.6904 48.9668 19.0003 48.9668C20.3101 48.9668 21.4729 48.3377 22.2026 47.3652C27.1389 48.6148 30.9497 52.6865 31.815 57.7614C29.1814 62.0757 24.4274 64.956 19.0003 64.956C13.5731 64.956 8.81916 62.0757 6.18555 57.7614Z" fill="#505ACC"/>
<ellipse cx="18" cy="43.9706" rx="3" ry="2.99794" fill="#FDDEBF"/>
<ellipse cx="185.5" cy="41.4721" rx="26.5" ry="26.4818" fill="#BEC5FE"/>
<path fill-rule="evenodd" clip-rule="evenodd" d="M166.21 55.0521C167.36 47.1717 173.111 40.7832 180.652 38.6973C181.644 40.641 183.666 41.972 186 41.972C188.333 41.972 190.355 40.641 191.348 38.6973C198.451 40.6622 203.966 46.4452 205.543 53.6967C201.818 60.9739 194.241 65.9554 185.5 65.9554C177.312 65.9554 170.146 61.5854 166.21 55.0521Z" fill="#505ACC"/>
<ellipse cx="186" cy="35.9761" rx="5" ry="4.99657" fill="#FDDEBF"/>
<path d="M90 29.98L104 59.9594" stroke="#AECEF4" stroke-width="2.6507" stroke-linecap="round"/>
<path d="M41 51.9648L62 59.9594" stroke="#43EA8E" stroke-width="2.6507" stroke-linecap="round"/>
<path d="M163 61.958L152 70.9518" stroke="#43EA8E" stroke-width="2.6507" stroke-linecap="round"/>
</svg>
