<svg width="195" height="133" viewBox="0 0 195 133" fill="none" xmlns="http://www.w3.org/2000/svg">
<path d="M12.2653 38.3489C4.07397 36.429 2.55942 42.6685 2.82606 46.0283L5.70582 62.8269C5.27919 71.093 4.42592 87.817 4.42592 88.5849C4.42592 89.5448 5.54584 102.184 5.70582 103.784C5.83381 105.064 9.17221 109.65 10.8254 111.783C14.3451 92.8512 21.4166 54.7636 21.5446 53.8677C21.7045 52.7477 22.5045 40.7487 12.2653 38.3489Z" fill="#D3D6FB"/>
<path d="M34.7067 34.5503C6.84421 66.3236 25.1353 87.6964 45.49 98.498C55.0825 103.588 64.7005 108.962 74.1048 114.392C90.4504 123.83 116.194 131.729 144.258 121.189C191.524 103.439 194.175 75.9681 178.714 53.146C163.253 30.324 133.215 45.9613 119.079 21.8714C104.943 -2.2185 78.439 -15.32 34.7067 34.5503Z" fill="#E2E5FF"/>
<path d="M74.6187 85.8639H191.291" stroke="#43EA8E" stroke-width="6.28641" stroke-linecap="round"/>
<path d="M99.2118 97.1914L85.533 127.157" stroke="#43EA8E" stroke-width="6.28641" stroke-linecap="round"/>
<path d="M168.03 97.1914L182.458 129.014" stroke="#43EA8E" stroke-width="6.28641" stroke-linecap="round"/>
<path d="M34.3605 113.142H18.1872C9.97532 113.142 3.52033 103.955 4.56744 95.8098C5.56922 88.0176 6.07011 78.6071 6.07011 68.4105C6.07011 60.6921 4.09991 52.3895 5.06699 44.2779" stroke="#D3D6FB" stroke-width="4.71481" stroke-linecap="round"/>
<path d="M36.0586 132.75L46.4104 112.618L62.846 109.821L70.5392 114.716L61.226 132.75H36.0586Z" fill="#6C76DC"/>
<path d="M12.2956 109.699C6.71506 101.296 10.0617 90.9902 12.2956 85.4056L37.4264 88.7563C45.9429 88.6167 66.3267 89.1752 79.7298 92.526C87.6139 94.497 97.3987 115.158 106.613 132.75H73.0568L64.1138 115.394C57.3981 115.394 17.8762 118.101 12.2956 109.699Z" fill="#8891F2"/>
<path d="M70.4309 85.2076C67.508 85.021 62.0097 83.2642 59.6259 82.4091L61.3361 80.699C63.6422 81.4245 68.6897 82.9533 70.4309 83.2642C72.6074 83.6529 74.0844 85.4407 70.4309 85.2076Z" fill="#FDDEBF"/>
<path d="M19.003 37.6577L23.6259 25.8526L32.9544 34.5207L30.5604 45.17C28.1168 41.5377 21.8373 38.6483 19.003 37.6577Z" fill="#FDDEBF"/>
<path d="M37.812 36.7358C41.381 34.5734 42.7192 25.5846 43.2325 21.5227C43.4439 19.8501 41.8636 16.3181 41.0228 15.3671C36.0323 9.72286 30.7524 13.9473 27.8104 15.3671C25.4569 16.503 23.8211 23.7532 23.1138 27.0718L27.0919 34.5496C29.1782 36.1793 34.2431 38.8982 37.812 36.7358Z" fill="#FDDEBF"/>
<path d="M19.4224 36.3997C8.75925 44.303 10.0137 73.773 11.8954 86.8929L37.142 92.3813C38.0829 84.8021 39.4001 66.8211 37.142 55.5306C34.8839 44.2402 24.388 38.0723 19.4224 36.3997Z" fill="#505ACD"/>
<path d="M31.5572 71.2928C26.3699 65.776 17.7311 63.9852 14.0601 63.7793C12.5581 76.1965 11.7645 99.2326 20.7349 99.868C30.837 100.584 50.4609 88.0909 59.7335 82.7838C65.2196 83.708 76.1559 85.002 76.0128 82.7838C75.8339 80.0109 67.2436 76.2114 63.0931 75.0794C59.7726 74.1738 40.2053 79.0393 30.8367 81.5852L31.5572 71.2928Z" fill="#FDDEBF"/>
<path d="M45.2546 15.0712C45.3035 20.6445 35.4336 23.6702 31.054 23.7517L30.3868 24.3845C29.9648 27.7598 28.3897 35.5933 25.4644 39.9249C21.8079 45.3395 12.7368 45.902 10.4866 40.4875C8.23644 35.0729 10.2002 30.7501 17.5335 25.3724C24.8667 19.9946 21.0167 17.5502 24.6834 13.2113C27.6167 9.74025 33.1343 10.3861 35.2324 11.4657C38.5527 10.3454 45.2057 9.49797 45.2546 15.0712Z" fill="#10243D"/>
<path d="M28.4449 34.969C30.0594 36.2808 31.6875 37.0112 32.3496 37.2214L32.1028 38.4691C30.6901 37.6871 29.0756 35.8099 28.4449 34.969Z" fill="#E4A566"/>
<path d="M37.0663 11.5158C36.0819 10.6016 33.0187 8.81003 28.0223 11.5157" stroke="#10243D" stroke-width="0.785801"/>
<path d="M30.0327 26.0426C30.2754 30.412 29.1426 39.9598 22.6695 43.1964C16.1964 46.433 12.1507 42.4952 10.937 40.1217" stroke="#10243D" stroke-width="0.785801"/>
<circle cx="30.757" cy="24.8629" r="1.94567" fill="#FDDEBF"/>
<path d="M81.9207 83.0292H105.381L119.432 61.0297" stroke="#10243D" stroke-width="3.28723" stroke-linecap="round"/>
<mask id="mask0_1_841" style="mask-type:alpha" maskUnits="userSpaceOnUse" x="9" y="85" width="98" height="48">
<path d="M12.2956 109.758C6.71507 101.335 10.0617 91.0037 12.2956 85.4056L37.4264 88.7645C45.9429 88.6245 66.3267 89.1843 79.7298 92.5432C87.6139 94.519 96.8849 114.698 106.099 132.332L73.0723 132.809L64.1138 115.467C57.3981 115.467 17.8762 118.18 12.2956 109.758Z" fill="#8891F2"/>
</mask>
<g mask="url(#mask0_1_841)">
<path d="M66.8967 111.366L81.1391 137.311H73.4107L62.1493 118.321L16.9931 122.738L7.4982 114.347C6.43094 108.937 4.67182 97.8521 10.148 105.183C15.6241 112.514 50.9614 112.875 66.8967 111.366Z" fill="#7C85E7"/>
</g>
<mask id="mask1_1_841" style="mask-type:alpha" maskUnits="userSpaceOnUse" x="13" y="63" width="64" height="37">
<path d="M31.5572 71.2928C26.3699 65.776 17.7311 63.9852 14.0601 63.7793C12.5581 76.1965 11.7645 99.2326 20.7349 99.868C30.837 100.584 50.4609 88.0909 59.7335 82.7838C65.2196 83.708 76.1559 85.002 76.0128 82.7838C75.8339 80.0109 67.2436 76.2114 63.0931 75.0794C59.7726 74.1738 40.2053 79.0393 30.8367 81.5852L31.5572 71.2928Z" fill="#FDDEBF"/>
</mask>
<g mask="url(#mask1_1_841)">
<path d="M23.1528 96.3407C16.9151 93.9288 16.1181 73.0188 16.4993 62.8653L10.9893 59.9544C9.4299 68.1673 6.29029 84.8426 6.20712 85.8407C6.12395 86.8387 11.5784 98.0387 14.3161 103.514C17.8161 103.445 25.0657 103.202 26.0637 102.786C27.0617 102.37 39.5093 97.1378 45.6083 94.5734L51.95 87.9199C44.9499 91.7318 29.3904 98.7526 23.1528 96.3407Z" fill="#E4A566" fill-opacity="0.24"/>
</g>
<rect x="71.4615" y="47.2232" width="30.2819" height="15.7603" rx="7.88017" fill="#A1A9FF"/>
<path d="M96.1342 67.7967C93.5748 65.0988 91.9584 61.6066 91.4702 60.1977C89.7044 58.8446 86.3726 56.8492 87.1717 59.6931C87.9709 62.537 93.4797 66.2805 96.1342 67.7967Z" fill="#A1A9FF"/>
<rect x="56.8635" y="17.3128" width="39.4716" height="20.5432" rx="10.2716" fill="#A1A9FF"/>
<path d="M63.0845 43.413C66.536 40.0868 68.9677 35.5052 69.7521 33.6302C72.0618 32.0405 76.3413 29.8149 74.9816 33.6302C73.6219 37.4455 66.4837 41.7418 63.0845 43.413Z" fill="#A1A9FF"/>
<circle cx="69.1635" cy="27.5839" r="2.11366" fill="white"/>
<circle cx="76.5991" cy="27.5839" r="2.11366" fill="white"/>
<circle cx="84.0343" cy="27.5839" r="2.11366" fill="white"/>
<path d="M81.0323 51.9771H91.2637" stroke="white" stroke-width="1.64362" stroke-linecap="round"/>
<path d="M81.0323 55.1034H91.2637" stroke="white" stroke-width="1.64362" stroke-linecap="round"/>
<path d="M81.0323 58.0662H91.2637" stroke="white" stroke-width="1.64362" stroke-linecap="round"/>
<path d="M169.217 60.3782C168.287 53.5559 164.048 51.0707 159.837 50.5208C155.325 49.9317 151.038 52.7808 150.382 57.2833C149.056 66.3911 171.074 73.9957 169.217 60.3782Z" fill="#F6F7FE" fill-opacity="0.54"/>
</svg>
