<svg width="142" height="57" viewBox="0 0 142 57" fill="none" xmlns="http://www.w3.org/2000/svg">
<path fill-rule="evenodd" clip-rule="evenodd" d="M98.3594 27.2445C98.3594 27.2445 93.8428 28.8742 96.4109 31.0161C98.979 33.158 103.241 26.7466 111.479 31.453C111.479 31.453 107.611 24.3325 98.3594 27.2445Z" fill="#D507D3"/>
<path fill-rule="evenodd" clip-rule="evenodd" d="M21.9756 28.7057C22.8111 28.6266 23.6475 28.8472 24.3352 29.3282C25.0229 29.8092 25.517 30.5192 25.7293 31.3311C25.8185 31.7752 25.8172 32.2327 25.7256 32.6763C25.6341 33.1199 25.454 33.5404 25.1962 33.9129C24.9385 34.2853 24.6083 34.602 24.2254 34.844C23.8425 35.0859 23.4148 35.2482 22.9677 35.3212C20.7614 35.7582 18.8237 34.2467 18.6947 32.2624C18.5693 30.382 20.0952 28.849 21.9756 28.7057Z" fill="#6622CC"/>
<path fill-rule="evenodd" clip-rule="evenodd" d="M0 11.1589C0.028654 18.5266 5.57679 22.1979 11.064 22.1979C15.0434 22.1979 19.1409 20.4715 20.6846 15.9692C21.4225 13.8739 21.4225 11.8073 21.3007 9.65104H11.0963V14.4398H15.6881C14.7031 16.5029 13.2847 17.0903 11.064 17.0903C7.79747 17.0903 5.6914 14.7479 5.6914 11.1697C5.6914 7.8709 7.57182 5.15952 11.064 5.15952C13.2561 5.15952 14.6709 5.90094 15.5663 7.74913H20.9926C19.9432 2.3765 15.4123 0.134319 11.064 0.102083C5.57679 0.112828 0.028654 3.79129 0 11.1589ZM38.6256 21.9615H44.0197V21.1592L34.2774 0.112828H31.9062L22.1925 21.1485V21.9615H27.5902L28.8546 19.2466H37.3792L38.6256 21.9615ZM35.5883 14.5222H30.6419L33.0775 8.84873L35.5883 14.5222ZM49.9153 15.3532H44.5749C44.4495 24.8484 62.0216 24.6944 62.0216 15.629C62.0216 10.2349 57.831 9.58656 53.5472 9.12452C51.6023 8.90961 50.0013 8.56934 50.123 6.93606C50.3093 4.37869 56.1046 4.13155 56.1046 6.99696H61.3447C61.47 -2.3156 44.6967 -2.3156 44.8686 6.99696C44.9295 11.6855 48.0134 13.2865 52.6983 13.6268C54.8474 13.7486 56.6382 14.0888 56.6382 15.6003C56.6597 18.129 49.9153 18.0968 49.9153 15.3532ZM77.853 14.952V10.02H70.9008V5.30278H78.7305V0.370714H65.2918V21.9615H70.9008V14.952H77.853ZM103.036 11.1912C103.036 -3.7304 80.9046 -3.7304 80.9046 11.1912C80.9046 26.1128 103.036 26.1414 103.036 11.1912ZM86.5602 11.1912C86.5602 3.42236 97.3807 3.42236 97.3807 11.1912C97.3807 19.0209 86.5602 19.0209 86.5602 11.1912ZM120.411 14.3037C125.866 10.6074 124.326 0.40295 115.848 0.370714H106.385V21.9615H111.901V15.6003H114.766L118.466 21.9615H124.634V21.1592L120.411 14.3037ZM115.848 10.6969H111.908V5.30278C113.205 5.30278 114.559 5.27413 115.848 5.30278C118.993 5.33502 118.839 10.6969 115.848 10.6969ZM130.369 5.30278V21.9615H135.824V5.30278H141.096V0.370714H125.064V5.30278H130.369Z" fill="#081B1D"/>
<path fill-rule="evenodd" clip-rule="evenodd" d="M137.667 30.1353C137.667 30.1353 135.97 53.9754 100.388 47.3922C55.9747 39.1792 62.4219 31.6683 35.8095 40.8089C6.55371 50.8557 4.25781 33.1619 4.25781 33.1619C4.25781 33.1619 14.6449 43.66 32.8223 36.8511C40.301 34.0501 49.9216 26.2491 61.9885 26.4425C78.5505 26.7111 76.6092 42.0876 97.4478 42.2846C109.726 42.4028 123.036 31.8975 123.426 31.9656C123.48 31.9906 137.399 28.3014 137.667 30.1353Z" fill="url(#paint0_linear)"/>
<path fill-rule="evenodd" clip-rule="evenodd" d="M10.9296 46.1272C10.9296 46.1272 23.4371 54.2614 39.2899 46.7003C53.0474 40.1421 59.1937 41.779 65.1896 43.3048C77.5001 46.4352 85.097 57.99 101.899 52.4597C108.554 50.2641 109.535 40.4824 109.535 40.4824C109.535 40.4824 93.883 27.7743 77.6577 37.6707L60.3757 36.3992L46.1884 39.064C46.1884 39.064 18.6447 49.6481 5.71459 33.3869C5.21314 32.7565 3.75895 32.6706 3.3363 32.2694C2.11134 31.0731 1.6099 29.9663 1.50603 30.5322C0.793257 34.4614 3.44734 41.4853 10.9296 46.1272Z" fill="url(#paint1_linear)"/>
<path fill-rule="evenodd" clip-rule="evenodd" d="M6.55246 39.1539C6.55246 39.1539 16.3557 48.0689 32.5775 43.3839C48.219 38.8638 53.3516 36.8007 64.5052 38.5342C77.7577 40.5902 82.9691 53.5776 93.8756 53.728C103.36 53.8642 107.153 50.1463 114.929 41.2098C119.807 35.6044 124.843 30.6293 135.757 30.307C139.564 30.1923 137.494 29.2575 132.641 29.0247C126.849 28.7489 116.62 29.6193 107.436 37.2627C91.2752 50.705 81.6475 25.2388 44.7841 37.3953C20.6646 45.3503 12.0648 38.7527 2.81312 30.9481C0.438418 28.9495 2.12184 32.6781 2.12184 32.6781C2.12184 32.6781 4.24582 37.141 6.55246 39.1539Z" fill="url(#paint2_linear)"/>
<path fill-rule="evenodd" clip-rule="evenodd" d="M123.611 49.2439C124.534 49.2085 125.438 49.5194 126.145 50.1157C126.851 50.7121 127.309 51.5509 127.429 52.4675C127.54 53.3748 127.319 54.2916 126.807 55.0487C126.294 55.8058 125.526 56.352 124.642 56.5865C124.176 56.711 123.689 56.7422 123.21 56.6785C122.732 56.6148 122.27 56.4573 121.852 56.2152C121.435 55.973 121.069 55.6509 120.775 55.2672C120.482 54.8835 120.267 54.4458 120.144 53.979C120.108 53.8433 120.079 53.7058 120.058 53.5671C119.903 52.5883 120.143 51.5881 120.725 50.7862C121.308 49.9843 122.184 49.4464 123.163 49.2905C123.311 49.2643 123.461 49.2488 123.611 49.2439Z" fill="#FADD2E"/>
<path fill-rule="evenodd" clip-rule="evenodd" d="M46.6426 47.9003C46.6426 47.9003 42.4233 51.9477 47.0223 53.1368C52.0117 54.4298 54.7445 45.7655 69.4118 52.7786C69.4118 52.7643 56.6608 39.7697 46.6426 47.9003Z" fill="#781ECD"/>
<defs>
<linearGradient id="paint0_linear" x1="69.0445" y1="25.8981" x2="76.226" y2="47.9975" gradientUnits="userSpaceOnUse">
<stop stop-color="#F9C540"/>
<stop offset="1" stop-color="#FAE925"/>
</linearGradient>
<linearGradient id="paint1_linear" x1="60.9631" y1="28.9778" x2="45.6655" y2="52.535" gradientUnits="userSpaceOnUse">
<stop stop-color="#811CCE"/>
<stop offset="0.68" stop-color="#F500D5"/>
<stop offset="1" stop-color="#F500D5"/>
</linearGradient>
<linearGradient id="paint2_linear" x1="137.727" y1="41.7972" x2="1.5989" y2="39.4225" gradientUnits="userSpaceOnUse">
<stop stop-color="#5409EA"/>
<stop offset="0.49" stop-color="#FD00F7"/>
<stop offset="1" stop-color="#FD00F7"/>
</linearGradient>
</defs>
</svg>
