<svg width="30" height="31" viewBox="0 0 30 31" fill="none" xmlns="http://www.w3.org/2000/svg">
<path d="M28.75 16.3491H1.25C0.559998 16.3491 0 15.7891 0 15.0991C0 14.4091 0.559998 13.8491 1.25 13.8491H28.75C29.44 13.8491 30 14.4091 30 15.0991C30 15.7891 29.44 16.3491 28.75 16.3491Z" fill="white"/>
<path d="M28.75 6.76562H1.25C0.559998 6.76562 0 6.20563 0 5.51562C0 4.82562 0.559998 4.26562 1.25 4.26562H28.75C29.44 4.26562 30 4.82562 30 5.51562C30 6.20563 29.44 6.76562 28.75 6.76562Z" fill="white"/>
<path d="M28.75 25.9321H1.25C0.559998 25.9321 0 25.3721 0 24.6821C0 23.9921 0.559998 23.4321 1.25 23.4321H28.75C29.44 23.4321 30 23.9921 30 24.6821C30 25.3721 29.44 25.9321 28.75 25.9321Z" fill="white"/>
</svg>
