<svg width="22" height="21" viewBox="0 0 22 21" fill="none" xmlns="http://www.w3.org/2000/svg">
<path d="M4.72656 20.1953C5.79446 20.1953 6.66016 19.3296 6.66016 18.2617C6.66016 17.1938 5.79446 16.3281 4.72656 16.3281C3.65867 16.3281 2.79297 17.1938 2.79297 18.2617C2.79297 19.3296 3.65867 20.1953 4.72656 20.1953Z" fill="white"/>
<path d="M17.2734 20.1953C18.3413 20.1953 19.207 19.3296 19.207 18.2617C19.207 17.1938 18.3413 16.3281 17.2734 16.3281C16.2055 16.3281 15.3398 17.1938 15.3398 18.2617C15.3398 19.3296 16.2055 20.1953 17.2734 20.1953Z" fill="white"/>
<path d="M17.8912 5.15625H17.7031V9.45312H21.7918L20.8834 7.18205C20.3912 5.95143 19.2167 5.15625 17.8912 5.15625Z" fill="white"/>
<path d="M17.0586 10.7422C16.7026 10.7422 16.4141 10.4536 16.4141 10.0977V5.15625H15.6836C15.3276 5.15625 15.0391 5.44483 15.0391 5.80078V12.8906H22V10.7422H17.0586Z" fill="white"/>
<path d="M0 14.8242V17.832C0 18.188 0.288578 18.4766 0.644531 18.4766H1.51186C1.50713 18.4054 1.50391 18.334 1.50391 18.2617C1.50391 16.4847 2.94959 15.0391 4.72656 15.0391C6.50354 15.0391 7.94922 16.4847 7.94922 18.2617C7.94922 18.334 7.94595 18.4054 7.94127 18.4766H14.0588C14.054 18.4054 14.0508 18.334 14.0508 18.2617C14.0508 16.4847 15.4965 15.0391 17.2735 15.0391C19.0505 15.0391 20.4961 16.4847 20.4961 18.2617C20.4961 18.334 20.4929 18.4054 20.4882 18.4766H21.3555C21.7114 18.4766 22 18.188 22 17.832V14.1797H0.644531C0.288578 14.1797 0 14.4683 0 14.8242Z" fill="white"/>
<path d="M2.01833 12.8906H13.75V5.80078C13.75 4.73288 14.6157 3.86719 15.6836 3.86719H19.6367C20.003 3.86719 20.298 3.56159 20.2805 3.1915C20.2642 2.84483 19.9656 2.57812 19.6185 2.57812H12.6758C12.4602 2.57812 12.259 2.6858 12.1395 2.86516L10.6121 5.15625H0.644531C0.288578 5.15625 0 5.44483 0 5.80078V9.66797C0 9.7952 0.0376836 9.91964 0.108238 10.0255L2.01833 12.8906ZM11.1719 8.37891C11.1719 8.02295 11.4605 7.73438 11.8164 7.73438C12.1724 7.73438 12.4609 8.02295 12.4609 8.37891V10.957C12.4609 11.313 12.1724 11.6016 11.8164 11.6016C11.4605 11.6016 11.1719 11.313 11.1719 10.957V8.37891ZM8.59375 8.37891C8.59375 8.02295 8.88233 7.73438 9.23828 7.73438C9.59423 7.73438 9.88281 8.02295 9.88281 8.37891V10.957C9.88281 11.313 9.59423 11.6016 9.23828 11.6016C8.88233 11.6016 8.59375 11.313 8.59375 10.957V8.37891ZM6.01562 8.37891C6.01562 8.02295 6.3042 7.73438 6.66016 7.73438C7.01611 7.73438 7.30469 8.02295 7.30469 8.37891V10.957C7.30469 11.313 7.01611 11.6016 6.66016 11.6016C6.3042 11.6016 6.01562 11.313 6.01562 10.957V8.37891ZM3.4375 8.37891C3.4375 8.02295 3.72608 7.73438 4.08203 7.73438C4.43798 7.73438 4.72656 8.02295 4.72656 8.37891V10.957C4.72656 11.313 4.43798 11.6016 4.08203 11.6016C3.72608 11.6016 3.4375 11.313 3.4375 10.957V8.37891Z" fill="white"/>
<path d="M10.2335 3.40012C9.98075 3.24955 9.7027 3.13719 9.40695 3.07239C9.12834 1.33302 7.61726 0 5.80063 0C3.98399 0 2.47291 1.33302 2.1943 3.07235C1.64499 3.19279 1.1557 3.47536 0.779297 3.86719H9.92206L10.2335 3.40012Z" fill="white"/>
</svg>
