<svg width="26" height="16" viewBox="0 0 26 16" fill="none" xmlns="http://www.w3.org/2000/svg">
<path d="M5.30987 3.26831H3.75586V4.30767H5.30987V3.26831Z" fill="#65A5BD"/>
<path d="M5.30987 1.69824C4.71485 1.69824 4.18312 1.69824 3.75586 1.69824V2.39883H5.30987V1.69824Z" fill="#65A5BD"/>
<path d="M13.9447 9.56362C15.4232 9.56362 16.622 7.80288 16.622 5.63091C16.622 3.45889 15.4232 1.69816 13.9447 1.69816C13.9425 1.69816 13.5361 1.69816 12.8795 1.69816V1.31677H12.9133C13.1226 1.31677 13.2922 1.14719 13.2922 0.937926C13.2922 0.728661 13.1226 0.559082 12.9133 0.559082H10.1747C9.96546 0.559082 9.79583 0.728661 9.79583 0.937926C9.79583 1.14719 9.96546 1.31677 10.1747 1.31677H10.2086V1.69816C8.90969 1.69816 7.45865 1.69816 6.17935 1.69816V5.59278C6.17935 5.833 5.98467 6.02767 5.74445 6.02767C5.50424 6.02767 5.30956 5.833 5.30956 5.59278V5.17767H3.75566V5.59278C3.75566 5.833 3.56099 6.02767 3.32077 6.02767C3.08061 6.02767 2.88588 5.833 2.88588 5.59278V1.69816C2.75179 1.69816 2.67816 1.69816 2.67728 1.69816C1.19871 1.69816 0 3.45889 0 5.63091C0 7.80288 1.19871 9.56362 2.67728 9.56362C2.68883 9.56362 13.9331 9.56362 13.9447 9.56362ZM11.3858 3.7001C11.4224 3.6608 11.4908 3.6608 11.5274 3.7001C11.5866 3.76367 12.9784 5.26606 12.9784 6.08184C12.9784 6.92094 12.2957 7.60357 11.4566 7.60357C10.6175 7.60357 9.93479 6.92089 9.93479 6.08184C9.93479 5.26606 11.3266 3.76367 11.3858 3.7001Z" fill="#65A5BD"/>
<path d="M25.4475 9.22284H25.2817V5.63006C25.2817 5.48585 25.2253 5.34722 25.1244 5.24403L23.3435 3.42C23.2396 3.31343 23.0969 3.2533 22.9481 3.2533H18.2067C17.9014 3.2533 17.654 3.50087 17.654 3.80603V10.5779H16.4932L2.62285 10.5837H2.45703C2.15176 10.5837 1.9043 10.8312 1.9043 11.1364V12.3182C1.9043 12.6234 2.15176 12.8709 2.45703 12.8709H3.17559H3.86661C3.86661 14.2905 5.01729 15.4411 6.43672 15.4411C7.85614 15.4411 9.00676 14.2905 9.00676 12.8709H9.03451C9.03451 14.2905 10.1852 15.4411 11.6046 15.4411C13.024 15.4411 14.1747 14.2905 14.1747 12.8709H18.6857H18.8977C18.8977 14.2905 20.0483 15.4411 21.4678 15.4411C22.8872 15.4411 24.0379 14.2905 24.0379 12.8709H24.729H25.4475C25.7527 12.8709 26.0002 12.6234 26.0002 12.3182V9.77563C26.0002 9.47035 25.7527 9.22284 25.4475 9.22284ZM6.43672 13.7828C5.93389 13.7828 5.52482 13.3738 5.52482 12.8709C5.52482 12.3681 5.93389 11.9591 6.43672 11.9591C6.93954 11.9591 7.34856 12.3681 7.34856 12.8709C7.34856 13.3738 6.93954 13.7828 6.43672 13.7828ZM11.6046 13.7828C11.1018 13.7828 10.6927 13.3738 10.6927 12.8709C10.6927 12.3681 11.1018 11.9591 11.6046 11.9591C12.1074 11.9591 12.5165 12.3681 12.5165 12.8709C12.5165 13.3738 12.1074 13.7828 11.6046 13.7828ZM21.4678 13.7828C20.9649 13.7828 20.5559 13.3738 20.5559 12.8709C20.5559 12.3681 20.9649 11.9591 21.4678 11.9591C21.9706 11.9591 22.3797 12.3681 22.3797 12.8709C22.3797 13.3738 21.9705 13.7828 21.4678 13.7828ZM23.5867 7.60045C23.5867 7.73333 23.4788 7.84116 23.3458 7.84116H19.5897C19.4568 7.84116 19.349 7.73333 19.349 7.60045V5.09319C19.349 4.9602 19.4568 4.85247 19.5897 4.85247H22.3518C22.4166 4.85247 22.4787 4.87861 22.524 4.92504L23.5181 5.94329C23.5619 5.98823 23.5865 6.04864 23.5865 6.11149V7.60045H23.5867Z" fill="#65A5BD"/>
</svg>
