<svg id="Layer_1" data-name="Layer 1" xmlns="http://www.w3.org/2000/svg" width="194.57" height="85.67" viewBox="0 0 194.57 85.67"><defs><style>.cls-1{fill:#3eacce;}.cls-2{fill:#0f4f7b;}</style></defs><path class="cls-1" d="M124.57,54.5V20.22a3.56,3.56,0,0,1,3.56-3.56h15.34A12,12,0,0,1,150.61,19l20,17.11s9.2,1.6,16.24,5a7,7,0,0,1,3.57,4,89.68,89.68,0,0,1,4.13,23.63,2.83,2.83,0,0,1-2.83,2.89H23.85a6.16,6.16,0,0,1-5.76-4l-2.31-6.07A3.46,3.46,0,0,1,19,57h103.1A2.46,2.46,0,0,0,124.57,54.5Z"/><path class="cls-2" d="M161.51,36.05,148,23.73a5,5,0,0,0-2.95-1H134.7a1.76,1.76,0,0,0-1.75,2l1.27,10.35a3.63,3.63,0,0,0,3.06,3.15L159,42a3.34,3.34,0,0,0,3.51-1.87h0A3.34,3.34,0,0,0,161.51,36.05Z"/><rect class="cls-2" x="93.5" y="60.51" width="27.94" height="16" rx="4.03"/><circle class="cls-2" cx="173.82" cy="72.78" r="12.89"/><circle class="cls-1" cx="173.82" cy="72.78" r="4.72"/><circle class="cls-2" cx="71.22" cy="72.78" r="12.89"/><circle class="cls-1" cx="71.22" cy="72.78" r="4.72"/><circle class="cls-2" cx="41.55" cy="72.78" r="12.89"/><circle class="cls-1" cx="41.55" cy="72.78" r="4.72"/><path class="cls-1" d="M115.43,67.25H99.51a1.66,1.66,0,0,1,0-3.31h15.92a1.66,1.66,0,0,1,0,3.31Z"/><path class="cls-1" d="M113.37,0H3.5A3.5,3.5,0,0,0,0,3.5V47.62a3.5,3.5,0,0,0,3.5,3.5H82.7l10.8-9.07,13.56,9.07h6.31a3.5,3.5,0,0,0,3.5-3.5V3.5A3.5,3.5,0,0,0,113.37,0Z"/><path class="cls-2" d="M103.77,7.53H84.47a2.65,2.65,0,0,0-2.65,2.65V50.35a2.81,2.81,0,0,0,.11.77H106.3a2.48,2.48,0,0,0,.12-.77V10.18A2.65,2.65,0,0,0,103.77,7.53Z"/><rect class="cls-2" x="46.26" y="7.53" width="24.6" height="18.02" rx="2.65"/><rect class="cls-2" x="10.71" y="7.53" width="24.6" height="18.02" rx="2.65"/><path class="cls-1" d="M89.4,37.38H86.86a1.91,1.91,0,1,1,0-3.81H89.4a1.91,1.91,0,0,1,0,3.81Z"/><path class="cls-1" d="M64.91,14.77H52.21a1.91,1.91,0,0,1,0-3.81h12.7a1.91,1.91,0,1,1,0,3.81Z"/><path class="cls-1" d="M29.35,14.77H16.66a1.91,1.91,0,1,1,0-3.81H29.35a1.91,1.91,0,1,1,0,3.81Z"/></svg>