<svg id="Layer_1" data-name="Layer 1" xmlns="http://www.w3.org/2000/svg" width="214.54" height="98.54" viewBox="0 0 214.54 98.54"><defs><style>.cls-1{fill:#3eacce;}.cls-2{fill:#0f4f7b;}</style></defs><path class="cls-1" d="M109,67.38V33.09a3.56,3.56,0,0,1,3.55-3.56h15.34a12,12,0,0,1,7.15,2.36l20,17.12s9.2,1.59,16.24,5a7.06,7.06,0,0,1,3.57,4A89.34,89.34,0,0,1,179,81.67a2.83,2.83,0,0,1-2.82,2.89H8.3a6.16,6.16,0,0,1-5.77-4L.23,74.51a3.45,3.45,0,0,1,3.23-4.68h103.1A2.46,2.46,0,0,0,109,67.38Z"/><path class="cls-2" d="M146,48.93,132.39,36.6a4.94,4.94,0,0,0-2.95-1H119.15a1.77,1.77,0,0,0-1.76,2L118.67,48a3.63,3.63,0,0,0,3.06,3.14l21.74,3.77A3.33,3.33,0,0,0,147,53h0A3.31,3.31,0,0,0,146,48.93Z"/><rect class="cls-2" x="77.95" y="73.39" width="27.94" height="16" rx="4.03"/><rect class="cls-2" x="79.77" y="47.97" width="23.54" height="16" rx="3.7"/><circle class="cls-2" cx="158.27" cy="85.65" r="12.89"/><circle class="cls-1" cx="158.27" cy="85.65" r="4.72"/><circle class="cls-2" cx="55.66" cy="85.65" r="12.89"/><circle class="cls-1" cx="55.66" cy="85.65" r="4.72"/><circle class="cls-2" cx="25.99" cy="85.65" r="12.89"/><circle class="cls-1" cx="25.99" cy="85.65" r="4.72"/><path class="cls-1" d="M99.87,80.12H84a1.65,1.65,0,1,1,0-3.3H99.87a1.65,1.65,0,0,1,0,3.3Z"/><path class="cls-2" d="M189.62,76a9,9,0,0,0,7.49-16.25L209,19.32a2.6,2.6,0,1,0-5-1.47L191.48,60.38a2.62,2.62,0,0,0,1.77,3.24,3.83,3.83,0,1,1-4.68,5,2.6,2.6,0,0,0-4.87,1.83A9.08,9.08,0,0,0,189.62,76Z"/><path class="cls-1" d="M191.46,43.41l-1.41,9.64a2.1,2.1,0,0,0,1.48,2.32L199,57.56a2.09,2.09,0,0,0,2.5-1.14l4-8.87a2.09,2.09,0,0,0-1.31-2.88l-10.1-3A2.09,2.09,0,0,0,191.46,43.41Z"/><rect class="cls-2" x="143.94" y="5.23" width="63.24" height="12.19"/><path class="cls-1" d="M200.93,3.84h10.21a3.4,3.4,0,0,1,3.4,3.4V20.77a3.41,3.41,0,0,1-3.4,3.41h-6.77a3.42,3.42,0,0,1-2.86-1.56l-3.44-5.32a3.44,3.44,0,0,1-.54-1.85V7.24A3.4,3.4,0,0,1,200.93,3.84Z"/><path class="cls-1" d="M16.06,15.55l8,2.37L67.91,44.75a9.07,9.07,0,0,1,4.17,6L74.33,62a1.67,1.67,0,0,1-1.63,2H14.86a1.67,1.67,0,0,1-1.49-2.42l7-14a4.42,4.42,0,0,0-.07-4.08L7.68,20.35Z"/><path class="cls-1" d="M158.38,20.35H14.29V3.84h133a4.24,4.24,0,0,1,3.36,1.65l9.16,11.92A1.82,1.82,0,0,1,158.38,20.35Z"/><circle class="cls-2" cx="15.97" cy="12.1" r="12.1"/></svg>