<svg id="Layer_1" data-name="Layer 1" xmlns="http://www.w3.org/2000/svg" width="206.34" height="93" viewBox="0 0 206.34 93"><defs><style>.cls-1{fill:#3eacce;}.cls-2{fill:#0f4f7b;}.cls-3{fill:#47aac8;}</style></defs><path class="cls-1" d="M136.34,61.84V27.55A3.56,3.56,0,0,1,139.9,24h15.34a12,12,0,0,1,7.14,2.36l20,17.11s9.2,1.6,16.24,5a7.06,7.06,0,0,1,3.57,4,89.31,89.31,0,0,1,4.12,23.63A2.81,2.81,0,0,1,203.51,79H35.62a6.16,6.16,0,0,1-5.76-4L27.55,69a3.46,3.46,0,0,1,3.24-4.68h103.1A2.45,2.45,0,0,0,136.34,61.84Z"/><path class="cls-2" d="M173.28,43.39,159.72,31.06a5,5,0,0,0-2.95-1h-10.3a1.76,1.76,0,0,0-1.75,2L146,42.43a3.63,3.63,0,0,0,3.06,3.14l21.75,3.77a3.34,3.34,0,0,0,3.51-1.87h0A3.33,3.33,0,0,0,173.28,43.39Z"/><rect class="cls-2" x="105.27" y="67.85" width="27.94" height="16" rx="4.03"/><circle class="cls-2" cx="185.59" cy="80.11" r="12.89"/><circle class="cls-1" cx="185.59" cy="80.11" r="4.72"/><circle class="cls-2" cx="82.99" cy="80.11" r="12.89"/><circle class="cls-1" cx="82.99" cy="80.11" r="4.72"/><circle class="cls-2" cx="53.32" cy="80.11" r="12.89"/><circle class="cls-1" cx="53.32" cy="80.11" r="4.72"/><path class="cls-1" d="M127.2,74.58H111.28a1.65,1.65,0,0,1,0-3.3H127.2a1.65,1.65,0,0,1,0,3.3Z"/><rect class="cls-2" y="40.54" width="105.53" height="17.91" rx="3.84"/><polygon class="cls-3" points="115.68 23.08 112.06 55.1 130.11 55.1 126.5 23.08 115.68 23.08"/><rect class="cls-3" x="94.4" y="-10.74" width="7.81" height="48.61" transform="translate(51.39 101.01) rotate(-69.64)"/><circle class="cls-2" cx="121.09" cy="22.02" r="6.42"/><path class="cls-2" d="M75.47,33a9,9,0,0,1-2.6-17.7V6.16a2.61,2.61,0,0,1,5.21,0V17.48a2.6,2.6,0,0,1-2.61,2.6,3.84,3.84,0,1,0,3.07,6.14,2.6,2.6,0,1,1,4.17,3.12A9.09,9.09,0,0,1,75.47,33Z"/><circle class="cls-2" cx="75.52" cy="5.11" r="5.11"/><rect class="cls-2" x="111.47" y="47.4" width="18.92" height="11.05" rx="2.93"/></svg>