<svg id="Layer_1" data-name="Layer 1" xmlns="http://www.w3.org/2000/svg" width="192.32" height="106.17" viewBox="0 0 192.32 106.17"><defs><style>.cls-1{fill:#3eacce;}.cls-2{fill:#0f4f7b;}</style></defs><path class="cls-1" d="M190.46,50.18C189,43.69,186.55,34,186.55,34l-2.86-9.73a8.22,8.22,0,0,0-3.48-4.67,16.78,16.78,0,0,0-7.86-2.6,313.25,313.25,0,0,0-33.52-1.77,6.66,6.66,0,0,0-6.66,6C131,32.26,130,48.2,128.53,64.34a3.23,3.23,0,0,0,2.5,3.43,76.91,76.91,0,0,1,7.54,2l-1.9,4.92H19.81A4.8,4.8,0,0,0,15.26,81l.86,2.57A11.91,11.91,0,0,0,27.4,91.67H176.26s5.78-.09,10.4-.42a6,6,0,0,0,5.6-5.91C192.49,71.06,192.05,52,190.46,50.18Z"/><path class="cls-2" d="M177.47,30.78c.89,3,2.3,8.21,3.5,14.11a4,4,0,0,1-4.54,4.71c-9.91-1.62-20-5.07-20-5.35s.69-8,1.12-12.71a4,4,0,0,1,4-3.62h12.1A4,4,0,0,1,177.47,30.78Z"/><circle class="cls-2" cx="44.65" cy="93.84" r="12.33"/><circle class="cls-1" cx="44.65" cy="93.84" r="4.51"/><circle class="cls-2" cx="73.99" cy="93.84" r="12.33"/><circle class="cls-1" cx="73.99" cy="93.84" r="4.51"/><circle class="cls-2" cx="151.28" cy="93.84" r="12.33"/><circle class="cls-1" cx="151.28" cy="93.84" r="4.51"/><path class="cls-2" d="M107.43,8,113,1.64A4.85,4.85,0,0,1,116.66,0h25.7a1.36,1.36,0,0,1,1.32,1.7l-1,3.74a5.77,5.77,0,0,1-5.58,4.32h-7.91A3.27,3.27,0,0,0,126,12.44l-5.37,50.32a5,5,0,0,1-4.93,4.1H14.09a3.08,3.08,0,0,1-1.76-.55l-11-7.76a3,3,0,0,1-1-3.74L11.85,15.19A3.66,3.66,0,0,1,15,13L104.4,9.47A4.34,4.34,0,0,0,107.43,8Z"/><path class="cls-1" d="M96.28,57.29H96a2.54,2.54,0,0,1-2.26-2.8l3.41-31.93a2.54,2.54,0,0,1,5,.54L98.8,55A2.53,2.53,0,0,1,96.28,57.29Z"/><path class="cls-1" d="M73.82,57.29h-.27a2.54,2.54,0,0,1-2.26-2.8L74.7,22.55a2.54,2.54,0,0,1,5,.54L76.34,55A2.53,2.53,0,0,1,73.82,57.29Z"/><path class="cls-1" d="M51.36,57.29h-.27a2.54,2.54,0,0,1-2.25-2.8l3.4-31.93a2.54,2.54,0,0,1,5,.54L53.89,55A2.54,2.54,0,0,1,51.36,57.29Z"/><path class="cls-1" d="M28.91,57.29h-.27a2.54,2.54,0,0,1-2.26-2.8l3.41-31.93a2.54,2.54,0,0,1,5.05.54L31.43,55A2.53,2.53,0,0,1,28.91,57.29Z"/></svg>