<svg id="Layer_1" data-name="Layer 1" xmlns="http://www.w3.org/2000/svg" width="225.17" height="68.34" viewBox="0 0 225.17 68.34"><defs><style>.cls-1{fill:#0f4f7b;}.cls-2{fill:#3eacce;}.cls-3{fill:#fff;}</style></defs><ellipse class="cls-1" cx="91.29" cy="3.81" rx="6.34" ry="3.81"/><ellipse class="cls-1" cx="66.29" cy="3.81" rx="6.34" ry="3.81"/><path class="cls-1" d="M117.2,23a29.2,29.2,0,0,0-.51-4.51l-23,4.73L15.43,15.48l-14.91,3A28,28,0,0,0,0,23H0v.44H0C.16,29.7,3.55,42.63,11.49,42.63h94.22c8,0,11.34-12.93,11.49-19.19h0V23Z"/><path class="cls-2" d="M116.69,18.49c-1.22-6.5-4.66-14.68-11-14.68H11.49c-6.32,0-9.75,8.18-11,14.68,1.22,6.5,4.65,14.68,11,14.68h94.22C112,33.17,115.47,25,116.69,18.49Z"/><path class="cls-3" d="M76.8,12.69H13.62a1.91,1.91,0,0,1,0-3.81H76.8a1.91,1.91,0,0,1,0,3.81Z"/><path class="cls-3" d="M103.44,12.69H90.8a1.91,1.91,0,0,1,0-3.81h12.64a1.91,1.91,0,0,1,0,3.81Z"/><path class="cls-1" d="M135.72,37l1.14-2.39a3.67,3.67,0,0,1,3.3-2.07h3.3a3.65,3.65,0,0,0,3.13-1.77v0A3.66,3.66,0,0,1,149.74,29h5.39a3.66,3.66,0,0,1,3.6,3l1.42,7.87-21.58-.35Z"/><path class="cls-2" d="M214.49,58.69s3.85-.06,6.92-.28a4,4,0,0,0,3.73-3.93c.15-9.5-.14-22.2-1.2-23.39-1-4.32-2.6-10.79-2.6-10.79l-1.91-6.48a5.42,5.42,0,0,0-2.31-3.1A11.14,11.14,0,0,0,211.89,9c-3.13-2.83-14.73-5.48-21.11-6.64A4.15,4.15,0,0,0,186,5.68c-1.19,6.59-1.93,20.59-3.23,34.83a2.14,2.14,0,0,0,1.65,2.28c3.43.77,5,1.32,5,1.32l-1.27,3.27H130.31a3.2,3.2,0,0,0-3,4.21l.57,1.7a7.93,7.93,0,0,0,7.51,5.4h79.13Z"/><path class="cls-1" d="M215.29,18.18c.6,2,1.54,5.46,2.34,9.39a2.65,2.65,0,0,1-3,3.13c-6.6-1.08-13.29-3.37-13.29-3.56s.46-5.3.75-8.46a2.63,2.63,0,0,1,2.63-2.4h8.06A2.63,2.63,0,0,1,215.29,18.18Z"/><circle class="cls-1" cx="146.32" cy="60.13" r="8.21"/><circle class="cls-2" cx="146.32" cy="60.13" r="3"/><circle class="cls-1" cx="165.85" cy="60.13" r="8.21"/><circle class="cls-2" cx="165.85" cy="60.13" r="3"/><circle class="cls-1" cx="197.87" cy="60.13" r="8.21"/><circle class="cls-2" cx="197.87" cy="60.13" r="3"/><path class="cls-2" d="M169.8,36.82H124.71a4,4,0,0,0-3,1.37l-8.05,9.19H90.26a1.21,1.21,0,0,0,0-.19c-.43-4.33-2-18.19-4.9-18.19s-4.48,13.86-4.91,18.19a1.21,1.21,0,0,0,0,.19H32.17a1.21,1.21,0,0,0,0-.19c-.43-4.33-2-18.19-4.9-18.19s-4.47,13.86-4.9,18.19a1.21,1.21,0,0,0,0,.19H17a2.59,2.59,0,0,0-2.58,2.86l0,.26h0a3.24,3.24,0,0,0,.16,1.09l.57,1.7a7.93,7.93,0,0,0,7.51,5.4h88.4a4,4,0,0,0,3-1.37L126,43.77h38.4A4.61,4.61,0,0,0,168,42.15l2.79-3.31A1.23,1.23,0,0,0,169.8,36.82Z"/><circle class="cls-1" cx="33.7" cy="60.13" r="8.21"/><circle class="cls-2" cx="33.7" cy="60.13" r="3"/><circle class="cls-1" cx="53.59" cy="60.13" r="8.21"/><circle class="cls-2" cx="53.59" cy="60.13" r="3"/><circle class="cls-1" cx="73.48" cy="60.13" r="8.21"/><circle class="cls-2" cx="73.48" cy="60.13" r="3"/></svg>