<svg id="Layer_1" data-name="Layer 1" xmlns="http://www.w3.org/2000/svg" width="212.28" height="66.05" viewBox="0 0 212.28 66.05"><defs><style>.cls-1{fill:#3eacce;}.cls-2{fill:#0f4f7b;}</style></defs><path class="cls-1" d="M201.6,56.4s3.85-.06,6.92-.27a4,4,0,0,0,3.72-3.94c.16-9.5-.13-22.2-1.19-23.39-1-4.32-2.61-10.79-2.61-10.79l-1.9-6.47a5.49,5.49,0,0,0-2.31-3.11A11.14,11.14,0,0,0,199,6.7c-3.12-2.83-14.72-5.47-21.11-6.63a4.14,4.14,0,0,0-4.8,3.32C171.89,10,171.15,24,169.84,38.23a2.14,2.14,0,0,0,1.66,2.27c3.43.77,5,1.32,5,1.32l-1.26,3.27H117.42a3.19,3.19,0,0,0-3,4.21L115,51a7.91,7.91,0,0,0,7.51,5.39H201.6Z"/><path class="cls-2" d="M202.4,15.89c.59,2,1.54,5.47,2.34,9.39a2.66,2.66,0,0,1-3,3.14c-6.59-1.08-13.28-3.38-13.28-3.56s.46-5.31.75-8.46A2.64,2.64,0,0,1,191.81,14h8.05A2.65,2.65,0,0,1,202.4,15.89Z"/><circle class="cls-2" cx="133.43" cy="57.85" r="8.21"/><circle class="cls-1" cx="133.43" cy="57.85" r="3"/><circle class="cls-2" cx="152.96" cy="57.85" r="8.21"/><circle class="cls-1" cx="152.96" cy="57.85" r="3"/><circle class="cls-2" cx="184.98" cy="57.85" r="8.21"/><circle class="cls-1" cx="184.98" cy="57.85" r="3"/><path class="cls-1" d="M19.07,37.22.77,39.84,2.34,51A7.91,7.91,0,0,0,9.85,56.4h88.4a4,4,0,0,0,3-1.37l11.88-13.54L95.77,38.84Z"/><circle class="cls-2" cx="20.81" cy="57.85" r="8.21"/><circle class="cls-1" cx="20.81" cy="57.85" r="3"/><circle class="cls-2" cx="40.7" cy="57.85" r="8.21"/><circle class="cls-1" cx="40.7" cy="57.85" r="3"/><circle class="cls-2" cx="60.59" cy="57.85" r="8.21"/><circle class="cls-1" cx="60.59" cy="57.85" r="3"/><path class="cls-1" d="M4,1.34H156.62a0,0,0,0,1,0,0V11a0,0,0,0,1,0,0H4A2.33,2.33,0,0,1,1.71,8.66v-5A2.33,2.33,0,0,1,4,1.34Z"/><path class="cls-1" d="M4,14H156.62a0,0,0,0,1,0,0v9.65a0,0,0,0,1,0,0H4a2.33,2.33,0,0,1-2.33-2.33v-5A2.33,2.33,0,0,1,4,14Z"/><rect class="cls-2" y="26.27" width="159.64" height="15" rx="1.65"/><rect class="cls-2" x="14.24" width="6.57" height="32.5" rx="2.24"/><rect class="cls-2" x="42.01" width="6.57" height="32.5" rx="2.24"/><rect class="cls-2" x="69.78" width="6.57" height="32.5" rx="2.24"/><rect class="cls-2" x="97.54" width="6.57" height="32.5" rx="2.24"/><rect class="cls-2" x="125.31" width="6.57" height="32.5" rx="2.24"/><rect class="cls-2" x="153.07" width="6.57" height="32.5" rx="2.24"/></svg>