<svg width="10" height="18" viewBox="0 0 10 18" fill="none" xmlns="http://www.w3.org/2000/svg">
<path d="M9.49943 0.00374516L7.16526 0C4.5429 0 2.84821 1.73869 2.84821 4.42978V6.4722H0.501303C0.298503 6.4722 0.134277 6.63661 0.134277 6.83942V9.79865C0.134277 10.0015 0.29869 10.1657 0.501303 10.1657H2.84821V17.6328C2.84821 17.8356 3.01243 17.9998 3.21523 17.9998H6.27728C6.48008 17.9998 6.64431 17.8354 6.64431 17.6328V10.1657H9.38839C9.59119 10.1657 9.75541 10.0015 9.75541 9.79865L9.75654 6.83942C9.75654 6.74204 9.71777 6.64879 9.64905 6.57988C9.58033 6.51096 9.4867 6.4722 9.38932 6.4722H6.64431V4.74081C6.64431 3.90864 6.84261 3.48618 7.92665 3.48618L9.49906 3.48562C9.70167 3.48562 9.86589 3.32121 9.86589 3.1186V0.370771C9.86589 0.168345 9.70186 0.00411968 9.49943 0.00374516Z" fill="white"/>
</svg>
