<svg width="18" height="19" viewBox="0 0 18 19" fill="none" xmlns="http://www.w3.org/2000/svg">
<g clip-path="url(#clip0)">
<path d="M13.4989 0.761791L11.1648 0.758057C8.54241 0.758057 6.84772 2.49155 6.84772 5.1746V7.21092H4.50082C4.29801 7.21092 4.13379 7.37484 4.13379 7.57704V10.5274C4.13379 10.7296 4.2982 10.8934 4.50082 10.8934H6.84772V18.3382C6.84772 18.5404 7.01195 18.7041 7.21475 18.7041H10.2768C10.4796 18.7041 10.6438 18.5402 10.6438 18.3382V10.8934H13.3879C13.5907 10.8934 13.7549 10.7296 13.7549 10.5274L13.756 7.57704C13.756 7.47995 13.7173 7.38698 13.6486 7.31827C13.5798 7.24957 13.4862 7.21092 13.3888 7.21092H10.6438V5.4847C10.6438 4.65502 10.8421 4.23382 11.9262 4.23382L13.4986 4.23326C13.7012 4.23326 13.8654 4.06934 13.8654 3.86734V1.12772C13.8654 0.925899 13.7014 0.762164 13.4989 0.761791Z" fill="#9D8AE6"/>
</g>
<defs>
<clipPath id="clip0">
<rect width="18" height="17.946" fill="white" transform="translate(0 0.758026)"/>
</clipPath>
</defs>
</svg>
