<svg width="103" height="103" viewBox="0 0 103 103" fill="none" xmlns="http://www.w3.org/2000/svg">
<g clip-path="url(#clip0_86_333)">
<path d="M50.4981 55.0366L50.8753 54.5382C50.9613 54.4232 52.9994 51.6629 52.9994 47.4029C52.9994 43.0972 50.912 40.6198 50.8241 40.5166L50.4505 40.0813H45.4994L45.124 40.5796C45.038 40.6946 42.998 43.4523 42.998 47.5589C42.998 51.6664 45.0379 54.4231 45.124 54.5381L45.4994 55.0365H46.7482V70.207C45.2943 70.72 44.2506 72.1056 44.2506 73.7304C44.2506 75.7916 45.9316 77.4691 48.0007 77.4691C50.066 77.4691 51.7506 75.7916 51.7506 73.7304C51.7506 72.1056 50.7031 70.7199 49.2493 70.207V55.0366H50.4981ZM46.8142 42.5742H49.2236C49.3665 42.8024 49.5404 43.1165 49.7144 43.5108C50.0972 44.3815 50.3407 45.3208 50.4432 46.313H45.58C45.7997 44.5769 46.4296 43.2506 46.8142 42.5742ZM49.2493 73.7306C49.2493 74.417 48.6892 74.9756 48.0007 74.9756C47.3103 74.9756 46.7482 74.417 46.7482 73.7306C46.7482 73.0441 47.3103 72.4855 48.0007 72.4855C48.6892 72.4855 49.2493 73.0441 49.2493 73.7306ZM49.1835 52.5428H46.8086C46.4223 51.8709 45.796 50.5529 45.5763 48.8048H50.4065C50.1758 50.5583 49.5605 51.8709 49.1835 52.5428Z" fill="url(#paint0_linear_86_333)"/>
<path d="M61.7492 55.0366L62.1264 54.5382C62.2124 54.4232 64.2503 51.6629 64.2503 47.4029C64.2503 43.0972 62.163 40.6198 62.0751 40.5166L61.7015 40.0813H56.7501L56.375 40.5796C56.289 40.6946 54.249 43.4523 54.249 47.5589C54.249 51.6664 56.2889 54.4231 56.375 54.5381L56.7501 55.0365H57.9989V70.207C56.5453 70.72 55.5014 72.1056 55.5014 73.7304C55.5014 75.7916 57.1822 77.4691 59.2513 77.4691C61.3168 77.4691 63.0015 75.7916 63.0015 73.7304C63.0015 72.1056 61.954 70.7199 60.5001 70.207V55.0366H61.7492ZM58.065 42.5742H60.4747C60.6176 42.8024 60.7915 43.1165 60.9655 43.5108C61.3482 44.3815 61.5918 45.3208 61.6943 46.313H56.8309C57.0506 44.5769 57.6805 43.2506 58.065 42.5742ZM60.5004 73.7306C60.5004 74.417 59.9401 74.9756 59.2516 74.9756C58.5612 74.9756 57.999 74.417 57.999 73.7306C57.999 73.0441 58.5612 72.4855 59.2516 72.4855C59.9401 72.4855 60.5004 73.0441 60.5004 73.7306ZM60.4344 52.5428H58.0595C57.6731 51.8709 57.0469 50.5529 56.8271 48.8048H61.6576C61.4269 50.5583 60.8116 51.8709 60.4344 52.5428Z" fill="url(#paint1_linear_86_333)"/>
<path d="M54.2487 17.6484C48.7464 17.6484 44.2675 22.1038 44.251 27.586C44.251 27.5915 44.251 27.597 44.251 27.6025C44.251 27.608 44.251 27.6135 44.251 27.619C44.251 33.1159 48.7372 37.5885 54.2487 37.5885C59.7638 37.5885 64.2498 33.1159 64.2498 27.619C64.2498 27.6135 64.2498 27.608 64.2498 27.6025C64.2498 27.597 64.2498 27.5914 64.2498 27.586C64.2315 22.1038 59.7528 17.6484 54.2487 17.6484ZM54.2487 35.0965C50.7952 35.0965 47.8803 32.7552 47.0124 29.5813C48.4772 29.8962 50.7366 30.1107 54.2487 30.1107C57.4054 30.1107 59.8371 29.9319 61.4887 29.5785C60.6207 32.7543 57.7056 35.0965 54.2487 35.0965ZM54.2487 27.6189C49.4549 27.6189 47.5049 27.1889 46.7816 26.9425C47.1259 23.1352 50.3429 20.1412 54.2487 20.1412C58.1561 20.1412 61.3752 23.1352 61.7194 26.9425C60.9942 27.1889 59.046 27.6189 54.2487 27.6189Z" fill="url(#paint2_linear_86_333)"/>
</g>
<circle cx="51.5" cy="51.5" r="51" stroke="url(#paint3_linear_86_333)" stroke-opacity="0.35"/>
<path d="M42.5571 0.7824C30.5277 2.90351 19.6438 9.23135 11.849 18.636C4.05411 28.0406 -0.144173 39.9097 0.00377782 52.1238C0.151729 64.3379 4.63628 76.1018 12.6566 85.3148C20.677 94.5279 31.711 100.59 43.7883 102.419L44.0196 100.892C32.3046 99.1175 21.6017 93.2371 13.8219 84.3004C6.04219 75.3637 1.69218 63.9528 1.54866 52.1051C1.40515 40.2574 5.47748 28.7444 13.0385 19.6219C20.5995 10.4994 31.1569 4.36141 42.8254 2.30393L42.5571 0.7824Z" fill="url(#paint4_linear_86_333)"/>
<defs>
<linearGradient id="paint0_linear_86_333" x1="42.998" y1="40.0813" x2="53.8703" y2="40.2525" gradientUnits="userSpaceOnUse">
<stop stop-color="#7775E7"/>
<stop offset="0.6417" stop-color="#A93CF6"/>
<stop offset="1" stop-color="#C41DFF"/>
</linearGradient>
<linearGradient id="paint1_linear_86_333" x1="54.249" y1="40.0813" x2="65.1211" y2="40.2525" gradientUnits="userSpaceOnUse">
<stop stop-color="#7775E7"/>
<stop offset="0.6417" stop-color="#A93CF6"/>
<stop offset="1" stop-color="#C41DFF"/>
</linearGradient>
<linearGradient id="paint2_linear_86_333" x1="44.251" y1="17.6484" x2="65.921" y2="18.9279" gradientUnits="userSpaceOnUse">
<stop stop-color="#7775E7"/>
<stop offset="0.6417" stop-color="#A93CF6"/>
<stop offset="1" stop-color="#C41DFF"/>
</linearGradient>
<linearGradient id="paint3_linear_86_333" x1="0" y1="0" x2="111.61" y2="6.57038" gradientUnits="userSpaceOnUse">
<stop stop-color="#7775E7"/>
<stop offset="0.6417" stop-color="#A93CF6"/>
<stop offset="1" stop-color="#C41DFF"/>
</linearGradient>
<linearGradient id="paint4_linear_86_333" x1="0" y1="0" x2="111.61" y2="6.57038" gradientUnits="userSpaceOnUse">
<stop stop-color="#7775E7"/>
<stop offset="0.6417" stop-color="#A93CF6"/>
<stop offset="1" stop-color="#C41DFF"/>
</linearGradient>
<clipPath id="clip0_86_333">
<rect width="60" height="59.8208" fill="white" transform="translate(8 17.6484)"/>
</clipPath>
</defs>
</svg>
