<svg width="20" height="40" viewBox="0 0 20 40" fill="none" xmlns="http://www.w3.org/2000/svg">
<path d="M9.72678 21.1413V16.8478C11.1111 16.8478 12.2404 16.25 13.1148 15.0543C14.0255 13.8587 14.4809 12.3188 14.4809 10.4348H19.4536C19.4536 12.5 19.0346 14.3478 18.1967 15.9783C17.3953 17.5725 16.2659 18.8406 14.8087 19.7826C13.3515 20.6884 11.6576 21.1413 9.72678 21.1413ZM15.0273 30.3261V26.5217H20V30.3261H15.0273ZM6.39344 21.1413V16.8478H9.78142V21.1413H6.39344ZM14.4809 10.4891C14.4809 8.67754 14.0255 7.19203 13.1148 6.03261C12.2404 4.87319 11.1111 4.29348 9.72678 4.29348V0C11.6576 0 13.3515 0.452898 14.8087 1.35869C16.2659 2.22826 17.3953 3.46015 18.1967 5.05435C19.0346 6.61232 19.4536 8.42391 19.4536 10.4891H14.4809ZM20 30.2717C20 32.1196 19.5628 33.7862 18.6885 35.2717C17.8142 36.721 16.612 37.8804 15.082 38.75C13.5519 39.5833 11.8215 40 9.89071 40V35.7065C11.3843 35.7065 12.6047 35.1993 13.5519 34.1848C14.5355 33.1341 15.0273 31.8297 15.0273 30.2717H20ZM20 26.5761H15.0273C15.0273 24.9819 14.5355 23.6775 13.5519 22.663C12.6047 21.6485 11.3843 21.1413 9.89071 21.1413V16.8478C11.8215 16.8478 13.5519 17.2645 15.082 18.0978C16.612 18.9312 17.8142 20.0906 18.6885 21.5761C19.5628 23.0616 20 24.7283 20 26.5761ZM4.59016 9.02174L0 8.09782C0.218579 6.50362 0.765027 5.1087 1.63934 3.91304C2.55009 2.68116 3.71585 1.72101 5.13661 1.03261C6.55738 0.344203 8.10565 0 9.78142 0V4.29348C8.46995 4.29348 7.3224 4.67391 6.3388 5.43478C5.35519 6.19565 4.77231 7.3913 4.59016 9.02174ZM4.7541 30.9783C4.93625 32.5725 5.50091 33.7681 6.44809 34.5652C7.43169 35.3261 8.59745 35.7065 9.94535 35.7065V40C8.23315 40 6.66667 39.6558 5.2459 38.9674C3.86157 38.279 2.71403 37.3188 1.80328 36.087C0.928962 34.8551 0.382514 33.4601 0.163935 31.9022L4.7541 30.9783Z" fill="white"/>
</svg>
