<svg width="41" height="41" viewBox="0 0 41 41" fill="none" xmlns="http://www.w3.org/2000/svg">
<path d="M20.5 1.75L24.2724 11.5583C24.8012 12.9331 25.0656 13.6205 25.4767 14.1987C25.8411 14.7112 26.2888 15.1589 26.8013 15.5233C27.3795 15.9344 28.0669 16.1988 29.4417 16.7276L39.25 20.5L29.4417 24.2724C28.0669 24.8012 27.3795 25.0656 26.8013 25.4767C26.2888 25.8411 25.8411 26.2888 25.4767 26.8013C25.0656 27.3795 24.8012 28.0669 24.2724 29.4417L20.5 39.25L16.7276 29.4417C16.1988 28.0669 15.9344 27.3795 15.5233 26.8013C15.1589 26.2888 14.7112 25.8411 14.1987 25.4767C13.6205 25.0656 12.9331 24.8012 11.5583 24.2724L1.75 20.5L11.5583 16.7276C12.9331 16.1988 13.6205 15.9344 14.1987 15.5233C14.7112 15.1589 15.1589 14.7112 15.5233 14.1987C15.9344 13.6205 16.1988 12.9331 16.7276 11.5583L20.5 1.75Z" stroke="#B9FF66" stroke-width="2" stroke-linecap="round" stroke-linejoin="round"/>
</svg>
