<svg width="41" height="41" viewBox="0 0 41 41" fill="none" xmlns="http://www.w3.org/2000/svg">
<path d="M20.5 13V20.5M20.5 28H20.5188M1.75 13.9801V27.0199C1.75 27.4785 1.75 27.7078 1.80181 27.9236C1.84774 28.1149 1.9235 28.2978 2.0263 28.4655C2.14225 28.6548 2.3044 28.8169 2.62868 29.1412L11.8588 38.3713C12.1831 38.6956 12.3452 38.8577 12.5345 38.9737C12.7022 39.0765 12.8851 39.1523 13.0764 39.1982C13.2922 39.25 13.5215 39.25 13.9801 39.25H27.0199C27.4785 39.25 27.7078 39.25 27.9236 39.1982C28.1149 39.1523 28.2978 39.0765 28.4655 38.9737C28.6548 38.8577 28.8169 38.6956 29.1412 38.3713L38.3713 29.1412C38.6956 28.8169 38.8577 28.6548 38.9737 28.4655C39.0765 28.2978 39.1523 28.1149 39.1982 27.9236C39.25 27.7078 39.25 27.4785 39.25 27.0199V13.9801C39.25 13.5215 39.25 13.2922 39.1982 13.0764C39.1523 12.8851 39.0765 12.7022 38.9737 12.5345C38.8577 12.3452 38.6956 12.1831 38.3713 11.8588L29.1412 2.62868C28.8169 2.3044 28.6548 2.14225 28.4655 2.0263C28.2978 1.9235 28.1149 1.84774 27.9236 1.80181C27.7078 1.75 27.4785 1.75 27.0199 1.75H13.9801C13.5215 1.75 13.2922 1.75 13.0764 1.80181C12.8851 1.84774 12.7022 1.9235 12.5345 2.0263C12.3452 2.14225 12.1831 2.3044 11.8588 2.62868L2.62868 11.8588C2.3044 12.1831 2.14225 12.3452 2.0263 12.5345C1.9235 12.7022 1.84774 12.8851 1.80181 13.0764C1.75 13.2922 1.75 13.5215 1.75 13.9801Z" stroke="#B9FF66" stroke-width="2" stroke-linecap="round" stroke-linejoin="round"/>
</svg>
