<svg width="69" height="42" viewBox="0 0 69 42" fill="none" xmlns="http://www.w3.org/2000/svg">
<rect x="0.499512" width="68.001" height="42" rx="21" fill="white"/>
<path d="M37.8049 17.75L27.4585 17.7496C25.9627 17.7496 24.7502 16.5369 24.7503 15.0412C24.7503 13.5454 25.9629 12.3329 27.4587 12.333L37.8051 12.3334M31.195 29.6664L41.5414 29.6668C43.0371 29.6669 44.2498 28.4544 44.2498 26.9586C44.2499 25.4628 43.0374 24.2502 41.5416 24.2502L31.1952 24.2498M24.7498 26.9578C24.7497 29.0519 26.4472 30.7496 28.5413 30.7497C30.6354 30.7497 32.3331 29.0522 32.3331 26.9581C32.3332 24.8641 30.6357 23.1664 28.5416 23.1663C26.4475 23.1662 24.7499 24.8638 24.7498 26.9578ZM44.2503 15.0419C44.2502 17.136 42.5525 18.8335 40.4585 18.8335C38.3644 18.8334 36.6669 17.1357 36.6669 15.0416C36.667 12.9476 38.3647 11.25 40.4588 11.2501C42.5528 11.2502 44.2504 12.9479 44.2503 15.0419Z" stroke="#1D202C" stroke-width="2" stroke-linecap="round" stroke-linejoin="round"/>
</svg>
