<svg width="52" height="52" viewBox="0 0 52 52" fill="none" xmlns="http://www.w3.org/2000/svg">
<circle cx="26" cy="26" r="26" fill="#A1FD42"/>
<path d="M21.4514 13.3729C22.4414 13.3729 23.2874 13.7329 23.9894 14.4529C24.7094 15.1549 25.0694 16.0009 25.0694 16.9909V28.6549C25.0694 29.6449 24.7094 30.4999 23.9894 31.2199C23.2874 31.9219 22.4414 32.2729 21.4514 32.2729H17.9954C17.0054 32.2729 16.1504 31.9219 15.4304 31.2199C14.7284 30.4999 14.3774 29.6449 14.3774 28.6549V16.9909C14.3774 16.0009 14.7284 15.1549 15.4304 14.4529C16.1504 13.7329 17.0054 13.3729 17.9954 13.3729H21.4514ZM21.7754 27.4669V18.1789C21.7754 17.9629 21.7394 17.7649 21.6674 17.5849C21.5954 17.4049 21.4874 17.2519 21.3434 17.1259C21.2174 16.9819 21.0644 16.8739 20.8844 16.8019C20.5424 16.7479 20.1554 16.7119 19.7234 16.6939C19.2914 16.7119 18.8954 16.7479 18.5354 16.8019C18.2834 16.9279 18.0764 17.1169 17.9144 17.3689C17.7524 17.6029 17.6714 17.8729 17.6714 18.1789V27.4669C17.6714 27.7909 17.7524 28.0789 17.9144 28.3309C18.0944 28.5649 18.3194 28.7449 18.5894 28.8709C18.9314 28.9249 19.3094 28.9609 19.7234 28.9789C20.1374 28.9609 20.5154 28.9249 20.8574 28.8709C21.1274 28.7449 21.3434 28.5649 21.5054 28.3309C21.6854 28.0789 21.7754 27.7909 21.7754 27.4669ZM33.891 25.4959L32.541 26.7379C31.839 27.3859 31.29 28.1329 30.894 28.9789H37.536V32.2729H26.844V30.7609C26.844 30.1489 26.916 29.5549 27.06 28.9789C27.402 27.5569 28.095 26.3419 29.139 25.3339L30.759 23.7679C32.487 22.0759 33.585 20.0419 34.053 17.6659C34.071 17.5039 34.044 17.3419 33.972 17.1799C33.918 17.0179 33.819 16.8919 33.675 16.8019C33.531 16.7119 33.369 16.6669 33.189 16.6669H30.975C30.741 16.6669 30.543 16.7479 30.381 16.9099C30.219 17.0719 30.138 17.2699 30.138 17.5039V19.6639H26.844V16.2079C26.844 15.4159 27.114 14.7499 27.654 14.2099C28.212 13.6519 28.887 13.3729 29.679 13.3729H34.701C35.493 13.3729 36.159 13.6519 36.699 14.2099C37.257 14.7499 37.536 15.4159 37.536 16.2079V17.0719C37.536 18.6739 37.212 20.2039 36.564 21.6619C35.934 23.1199 35.043 24.3979 33.891 25.4959Z" fill="#A6EE51"/>
</svg>
