<svg width="294" height="209" viewBox="0 0 294 209" fill="none" xmlns="http://www.w3.org/2000/svg">
<circle cx="27.9906" cy="27.583" r="22.0377" transform="rotate(-15 27.9906 27.583)" fill="#0042FF"/>
<path d="M20.3083 39.2475C22.1815 35.7707 25.2774 33.1129 29.1908 32.0643C33.1042 31.0157 37.1141 31.7695 40.4748 33.8439M31.6807 21.1903C32.4268 23.9747 30.7744 26.8368 27.99 27.5828C25.2056 28.3289 22.3435 26.6765 21.5975 23.8921C20.8514 21.1077 22.5038 18.2457 25.2882 17.4996C28.0726 16.7535 30.9346 18.4059 31.6807 21.1903Z" stroke="white" stroke-width="2.31976" stroke-linecap="round" stroke-linejoin="round"/>
<circle cx="214.608" cy="158.59" r="30.0989" transform="rotate(-5 214.608 158.59)" fill="#0042FF"/>
<path d="M201.509 172.458C204.853 168.226 209.648 165.385 215.16 164.903C220.672 164.421 225.887 166.386 229.915 169.973M221.088 150.868C221.431 154.79 218.53 158.248 214.608 158.591C210.686 158.934 207.228 156.032 206.885 152.11C206.542 148.188 209.443 144.731 213.365 144.388C217.287 144.044 220.745 146.946 221.088 150.868Z" stroke="white" stroke-width="3.16831" stroke-linecap="round" stroke-linejoin="round"/>
<circle cx="247.21" cy="48.2875" r="36.1138" transform="rotate(20 247.21 48.2875)" fill="#0042FF"/>
<g clip-path="url(#clip0_11_2619)">
<path d="M225.935 56.7253C231.718 53.8188 238.372 53.1609 244.61 55.4316C250.849 57.7024 255.523 62.4834 258.085 68.4268M258.174 43.1752C256.558 47.6142 251.65 49.9029 247.211 48.2872C242.772 46.6716 240.483 41.7634 242.099 37.3244C243.714 32.8855 248.623 30.5967 253.061 32.2124C257.5 33.828 259.789 38.7362 258.174 43.1752Z" stroke="white" stroke-width="3.80145" stroke-linecap="round" stroke-linejoin="round"/>
</g>
<circle cx="38.7485" cy="169.872" r="31.7389" transform="rotate(15 38.7485 169.872)" fill="#0042FF"/>
<g clip-path="url(#clip1_11_2619)">
<path d="M20.7669 178.89C25.607 175.902 31.3822 174.816 37.0183 176.327C42.6544 177.837 47.113 181.665 49.8109 186.672M47.9542 164.557C46.8797 168.567 42.7578 170.947 38.7477 169.872C34.7376 168.798 32.3578 164.676 33.4323 160.666C34.5068 156.656 38.6287 154.276 42.6388 155.35C46.649 156.425 49.0288 160.547 47.9542 164.557Z" stroke="white" stroke-width="3.34094" stroke-linecap="round" stroke-linejoin="round"/>
</g>
<circle cx="122" cy="92" r="27" fill="#0042FF"/>
<path d="M109.211 103.369C112.53 99.848 117.036 97.6844 122 97.6844C126.964 97.6844 131.47 99.848 134.79 103.369M128.395 85.6054C128.395 89.1371 125.532 92.0002 122 92.0002C118.468 92.0002 115.605 89.1371 115.605 85.6054C115.605 82.0737 118.468 79.2107 122 79.2107C125.532 79.2107 128.395 82.0737 128.395 85.6054Z" stroke="white" stroke-width="2.84211" stroke-linecap="round" stroke-linejoin="round"/>
<defs>
<clipPath id="clip0_11_2619">
<rect width="45.6174" height="45.6174" fill="white" transform="translate(233.579 19.0532) rotate(20)"/>
</clipPath>
<clipPath id="clip1_11_2619">
<rect width="40.0913" height="40.0913" fill="white" transform="translate(24.5732 145.322) rotate(15)"/>
</clipPath>
</defs>
</svg>
