<svg width="197" height="47" viewBox="0 0 197 47" fill="none" xmlns="http://www.w3.org/2000/svg">
<path d="M194.91 15.3608C180.815 10.2845 165.708 8.47268 151.015 7.01612C127.031 4.63852 103.051 3.82663 78.9944 4.34908C60.404 4.75282 41.5996 5.83665 23.4702 10.5942C19.8015 11.557 -3.85761 17.647 3.45803 26.377C6.74093 30.2946 12.0491 32.5182 16.4458 34.2196C27.7221 38.5833 39.7552 40.6531 51.5696 42.1407C69.3588 44.3808 87.2984 45.0616 105.18 45.0371C122.683 45.0131 140.427 44.6315 157.667 41.1119C163.851 39.8495 195.31 33.5705 185.986 19.4191C181.584 12.7387 173.151 9.00032 166.343 6.52951C158.779 3.78401 151.315 3.24547 143.508 2.26651" stroke="#B9FF66" stroke-width="3" stroke-linecap="round"/>
</svg>
