<svg width="22" height="22" viewBox="0 0 22 22" fill="none" xmlns="http://www.w3.org/2000/svg">
<path d="M7.68192 8.11557C8.31992 9.44439 9.18964 10.6898 10.2911 11.7913C11.3925 12.8927 12.638 13.7624 13.9668 14.4004C14.0811 14.4553 14.1382 14.4827 14.2105 14.5038C14.4675 14.5787 14.7831 14.5249 15.0007 14.3691C15.062 14.3252 15.1144 14.2728 15.2192 14.168C15.5396 13.8476 15.6999 13.6873 15.861 13.5826C16.4687 13.1875 17.252 13.1875 17.8597 13.5826C18.0208 13.6873 18.181 13.8476 18.5015 14.1681L18.6801 14.3467C19.1673 14.8338 19.4109 15.0774 19.5432 15.339C19.8063 15.8593 19.8063 16.4737 19.5432 16.994C19.4109 17.2556 19.1673 17.4991 18.6801 17.9863L18.5356 18.1308C18.0502 18.6163 17.8074 18.859 17.4774 19.0444C17.1112 19.2501 16.5424 19.398 16.1223 19.3968C15.7438 19.3957 15.4851 19.3222 14.9677 19.1754C12.1871 18.3862 9.56325 16.8971 7.37427 14.7081C5.18529 12.5191 3.69619 9.89526 2.90697 7.11465C2.76011 6.59724 2.68668 6.33853 2.68555 5.96C2.6843 5.53996 2.83222 4.97118 3.03794 4.60497C3.22333 4.27494 3.46608 4.03219 3.95156 3.54671L4.09606 3.40221C4.58322 2.91505 4.8268 2.67147 5.08839 2.53916C5.60866 2.27601 6.22307 2.27601 6.74333 2.53916C7.00493 2.67147 7.24851 2.91505 7.73567 3.40221L7.9143 3.58084C8.23477 3.90131 8.395 4.06155 8.49977 4.22268C8.89484 4.83032 8.89485 5.61369 8.49977 6.22134C8.395 6.38247 8.23477 6.54271 7.9143 6.86318C7.80951 6.96796 7.75712 7.02036 7.71326 7.0816C7.55742 7.29925 7.50361 7.61482 7.57852 7.87181C7.5996 7.94412 7.62704 8.00127 7.68192 8.11557Z" stroke="#A2A9B4" stroke-width="1.6" stroke-linecap="round" stroke-linejoin="round"/>
</svg>
