<svg width="101" height="101" viewBox="0 0 101 101" fill="none" xmlns="http://www.w3.org/2000/svg">
<g clip-path="url(#clip0_101_153)">
<rect x="29.862" y="19.5991" width="44.0323" height="42.7742" transform="rotate(21 29.862 19.5991)" fill="white"/>
<rect x="64.3853" y="49.022" width="16.3548" height="13.8387" transform="rotate(21 64.3853 49.022)" fill="white"/>
<path d="M82.0153 52.6277C82.6859 50.8806 83.0213 50.007 82.8311 49.4698C82.666 49.0038 82.2878 48.6449 81.8138 48.5044C81.2674 48.3426 80.4126 48.7232 78.7029 49.4844L64.1981 55.9423L70.6561 70.4471C71.4173 72.1568 71.7978 73.0116 72.3122 73.2569C72.7584 73.4698 73.2796 73.4561 73.7141 73.2202C74.2149 72.9483 74.5503 72.0747 75.2209 70.3276L82.0153 52.6277Z" stroke="white" stroke-width="11.238" stroke-linecap="round" stroke-linejoin="round"/>
<path d="M23.3737 32.9916C25.2338 28.146 26.1638 25.7233 27.8172 24.2345C29.2716 22.9249 31.1033 22.1094 33.0497 21.9048C35.2625 21.6723 37.6852 22.6023 42.5308 24.4623L58.1044 30.4405C62.9499 32.3005 65.3727 33.2305 66.8615 34.884C68.1711 36.3384 68.9866 38.1701 69.1911 40.1164C69.4237 42.3292 68.4937 44.752 66.6337 49.5975L61.7626 62.2871C59.9025 67.1327 58.9725 69.5555 57.3191 71.0442C55.8647 72.3538 54.033 73.1693 52.0866 73.3739C49.8739 73.6065 47.4511 72.6764 42.6055 70.8164L27.0319 64.8383C22.1864 62.9782 19.7636 62.0482 18.2748 60.3948C16.9652 58.9403 16.1497 57.1087 15.9452 55.1623C15.7126 52.9495 16.6426 50.5268 18.5027 45.6812L23.3737 32.9916Z" stroke="white" stroke-width="11.238" stroke-linecap="round" stroke-linejoin="round"/>
<path d="M82.0153 52.6277C82.6859 50.8806 83.0213 50.007 82.8311 49.4698C82.666 49.0038 82.2878 48.6449 81.8138 48.5044C81.2674 48.3426 80.4126 48.7232 78.7029 49.4844L64.1981 55.9423L70.6561 70.4471C71.4173 72.1568 71.7978 73.0116 72.3122 73.2569C72.7584 73.4698 73.2796 73.4561 73.7141 73.2202C74.2149 72.9483 74.5503 72.0747 75.2209 70.3276L82.0153 52.6277Z" stroke="#1D202C" stroke-width="4" stroke-linecap="round" stroke-linejoin="round"/>
<path d="M23.3737 32.9916C25.2338 28.146 26.1638 25.7233 27.8172 24.2345C29.2716 22.9249 31.1033 22.1094 33.0497 21.9048C35.2625 21.6723 37.6852 22.6023 42.5308 24.4623L58.1044 30.4405C62.9499 32.3005 65.3727 33.2305 66.8615 34.884C68.1711 36.3384 68.9866 38.1701 69.1911 40.1164C69.4237 42.3292 68.4937 44.752 66.6337 49.5975L61.7626 62.2871C59.9025 67.1327 58.9725 69.5555 57.3191 71.0442C55.8647 72.3538 54.033 73.1693 52.0866 73.3739C49.8739 73.6065 47.4511 72.6764 42.6055 70.8164L27.0319 64.8383C22.1864 62.9782 19.7636 62.0482 18.2748 60.3948C16.9652 58.9403 16.1497 57.1087 15.9452 55.1623C15.7126 52.9495 16.6426 50.5268 18.5027 45.6812L23.3737 32.9916Z" stroke="#1D202C" stroke-width="4" stroke-linecap="round" stroke-linejoin="round"/>
</g>
<defs>
<clipPath id="clip0_101_153">
<rect width="78" height="78" fill="white" transform="translate(27.9526) rotate(21)"/>
</clipPath>
</defs>
</svg>
