<svg width="21" height="21" viewBox="0 0 21 21" fill="none" xmlns="http://www.w3.org/2000/svg">
<path d="M12.8788 5.00016C13.7742 5.17485 14.597 5.61273 15.2421 6.25777C15.8871 6.90281 16.325 7.72566 16.4997 8.621M12.8788 1.3335C14.739 1.54015 16.4736 2.37316 17.7979 3.69575C19.1222 5.01835 19.9573 6.75192 20.1663 8.61183M9.3744 12.208C8.27295 11.1065 7.40323 9.86111 6.76523 8.53229C6.71036 8.41799 6.68292 8.36084 6.66184 8.28852C6.58692 8.03153 6.64073 7.71596 6.79658 7.49832C6.84043 7.43707 6.89282 7.38468 6.99761 7.27989C7.31808 6.95942 7.47832 6.79919 7.58308 6.63806C7.97816 6.03041 7.97816 5.24704 7.58308 4.63939C7.47832 4.47826 7.31808 4.31803 6.99761 3.99755L6.81898 3.81892C6.33182 3.33177 6.08825 3.08819 5.82665 2.95587C5.30638 2.69273 4.69197 2.69273 4.17171 2.95587C3.91011 3.08819 3.66653 3.33177 3.17938 3.81892L3.03488 3.96342C2.54939 4.44891 2.30665 4.69165 2.12125 5.02168C1.91553 5.3879 1.76762 5.95668 1.76887 6.37672C1.76999 6.75525 1.84342 7.01396 1.99028 7.53137C2.7795 10.312 4.2686 12.9358 6.45758 15.1248C8.64657 17.3138 11.2704 18.8029 14.051 19.5921C14.5684 19.739 14.8271 19.8124 15.2057 19.8135C15.6257 19.8148 16.1945 19.6668 16.5607 19.4611C16.8907 19.2757 17.1335 19.033 17.619 18.5475L17.7635 18.403C18.2506 17.9158 18.4942 17.6723 18.6265 17.4107C18.8896 16.8904 18.8896 16.276 18.6265 15.7557C18.4942 15.4941 18.2506 15.2506 17.7635 14.7634L17.5848 14.5848C17.2644 14.2643 17.1041 14.1041 16.943 13.9993C16.3353 13.6042 15.552 13.6042 14.9443 13.9993C14.7832 14.1041 14.623 14.2643 14.3025 14.5848C14.1977 14.6896 14.1453 14.7419 14.0841 14.7858C13.8664 14.9416 13.5508 14.9955 13.2939 14.9205C13.2215 14.8995 13.1644 14.872 13.0501 14.8171C11.7213 14.1791 10.4758 13.3094 9.3744 12.208Z" stroke="white" stroke-width="1.6" stroke-linecap="round" stroke-linejoin="round"/>
</svg>
