<svg width="35" height="35" viewBox="0 0 35 35" fill="none" xmlns="http://www.w3.org/2000/svg">
<path d="M17.5 2.08331L20.6017 10.1479C21.0365 11.2783 21.2539 11.8435 21.5919 12.3189C21.8916 12.7403 22.2597 13.1084 22.681 13.408C23.1565 13.7461 23.7217 13.9634 24.8521 14.3982L32.9166 17.5L24.8521 20.6017C23.7217 21.0365 23.1565 21.2539 22.6811 21.5919C22.2597 21.8916 21.8916 22.2597 21.5919 22.681C21.2539 23.1565 21.0365 23.7217 20.6017 24.8521L17.5 32.9166L14.3982 24.8521C13.9634 23.7217 13.7461 23.1565 13.408 22.681C13.1084 22.2597 12.7403 21.8916 12.3189 21.5919C11.8435 21.2539 11.2783 21.0365 10.1479 20.6017L2.08331 17.5L10.1479 14.3982C11.2783 13.9634 11.8435 13.7461 12.3189 13.408C12.7403 13.1084 13.1084 12.7403 13.408 12.3189C13.7461 11.8435 13.9634 11.2783 14.3982 10.1479L17.5 2.08331Z" fill="#1D202C" stroke="#373D52" stroke-linecap="round"/>
</svg>
