<svg width="153" height="89" viewBox="0 0 153 89" fill="none" xmlns="http://www.w3.org/2000/svg">
<path d="M147.9 23.7086C144.274 20.5151 139.207 19.5144 134.689 21.1183C134.398 21.2196 134.112 21.348 133.844 21.4877L119.943 28.7996C122.963 13.321 113.166 -2.41763 96.9132 -7.07804L41.0404 -23.0993C23.9264 -28.013 6.21464 -18.7989 1.55977 -2.56541L-8.57054 32.7632C-13.2254 48.9966 -3.08772 66.1965 14.028 71.1043L69.9007 87.1256C86.2218 91.8056 102.957 83.5604 108.517 68.7144L116.457 82.1681C116.613 82.4229 116.779 82.6619 116.966 82.9003C118.706 85.0813 121.062 86.6109 123.67 87.3585C125.551 87.8979 127.548 88.031 129.551 87.7005C134.325 86.9155 138.082 83.6533 139.356 79.2078L151.712 36.1187C152.99 31.6614 151.531 26.9099 147.899 23.7145L147.9 23.7086ZM73.2775 75.3494L17.4047 59.3281C7.13657 56.3838 1.05304 46.0624 3.84563 36.3234L13.9759 0.994873C16.7685 -8.74404 27.3972 -14.2733 37.6654 -11.329L93.5381 4.69227C103.806 7.63662 109.89 17.9581 107.097 27.697L96.9669 63.0255C94.1743 72.7645 83.5457 78.2938 73.2775 75.3494ZM113.464 52.3543L115.471 45.3534L139.208 32.8646L127.143 75.5272L113.466 52.3484L113.464 52.3543Z" fill="#232533"/>
</svg>
