<svg width="104" height="77" viewBox="0 0 104 77" fill="none" xmlns="http://www.w3.org/2000/svg">
<path d="M146.235 28.7824C132.643 14.9979 103.941 -6.76715 64.488 2.34134C25.0348 11.4498 8.77867 43.5943 2.60538 61.9419C0.689094 67.5796 0.383208 73.6376 1.72202 79.4366C3.06082 85.2356 5.9914 90.5464 10.1852 94.7735C23.7767 108.558 52.4789 130.323 91.9321 121.214C131.385 112.106 147.641 79.9615 153.815 61.614C155.731 55.9763 156.037 49.9183 154.698 44.1193C153.359 38.3202 150.429 33.0095 146.235 28.7824ZM141.414 57.4629C136.107 73.1986 122.249 100.817 88.9953 108.494C55.7417 116.171 31.179 97.4232 19.5114 85.6062C17.0195 83.0935 15.2782 79.9371 14.4825 76.4906C13.6868 73.0441 13.8682 69.4438 15.0064 66.093C20.3129 50.3573 34.1712 22.7391 67.4248 15.0619C100.678 7.38465 125.235 26.1072 136.909 37.9496C139.401 40.4624 141.142 43.6188 141.938 47.0653C142.733 50.5117 142.552 54.1121 141.414 57.4629Z" fill="#232533"/>
<path d="M70.8682 29.9766C64.5672 31.4313 58.8383 34.7185 54.406 39.4224C49.9737 44.1263 47.037 50.0357 45.9673 56.4033C44.8976 62.7709 45.7429 69.3107 48.3963 75.1958C51.0498 81.0808 55.3922 86.0468 60.8744 89.4656C66.3566 92.8845 72.7325 94.6027 79.1957 94.403C85.6588 94.2034 91.9191 92.0947 97.1847 88.3438C102.45 84.5929 106.485 79.3681 108.778 73.3303C111.071 67.2924 111.52 60.7126 110.068 54.4229C108.112 45.9941 102.886 38.6868 95.5371 34.104C88.1884 29.5211 79.3167 28.0368 70.8682 29.9766ZM82.6152 80.8587C78.8346 81.7315 74.8806 81.4656 71.2531 80.0947C67.6256 78.7238 64.4876 76.3095 62.2359 73.1569C59.9842 70.0044 58.72 66.2553 58.603 62.3837C58.4861 58.5121 59.5217 54.6919 61.5789 51.4063C63.6361 48.1206 66.6225 45.517 70.1604 43.9247C73.6984 42.3325 77.629 41.823 81.4552 42.4608C85.2814 43.0986 88.8314 44.855 91.6562 47.5079C94.481 50.1608 96.4537 53.5911 97.325 57.3649C98.4933 62.4254 97.5999 67.7436 94.8413 72.1496C92.0826 76.5555 87.6848 79.6883 82.6152 80.8587Z" fill="#232533"/>
</svg>
