<svg width="95" height="95" viewBox="0 0 95 95" fill="none" xmlns="http://www.w3.org/2000/svg">
<g clip-path="url(#clip0_105_215)">
<path d="M47.9824 0C47.667 0 47.3516 0.0185547 47.0361 0.0927734C31.1719 3.1543 21.4492 18.9814 24.2139 35.124C24.752 38.2783 25.7725 41.2285 27.1641 43.9189L5.9375 41.5625H5.45508C2.44922 41.5625 0 44.0117 0 47.0176C0 47.333 0.0185547 47.6484 0.0927734 47.9639C3.1543 63.8281 18.9814 73.5508 35.124 70.7861C38.2783 70.248 41.2285 69.2275 43.9189 67.8359L41.5625 89.0625V89.5449C41.5625 92.5508 44.0117 95 47.0176 95C47.333 95 47.6484 94.9814 47.9639 94.9072C63.8281 91.8457 73.5508 76.0186 70.7861 59.876C70.248 56.7217 69.2275 53.7715 67.8359 51.0811L89.0625 53.4375H89.5449C92.5508 53.4375 95 50.9883 95 47.9824C95 47.667 94.9814 47.3516 94.9072 47.0361C91.8457 31.1719 76.0186 21.4492 59.876 24.2139C56.7217 24.752 53.7715 25.7725 51.0811 27.1641L53.4375 5.9375V5.45508C53.4375 2.44922 50.9883 0 47.9824 0ZM47.5 53.4375C44.2158 53.4375 41.5625 50.7842 41.5625 47.5C41.5625 44.2158 44.2158 41.5625 47.5 41.5625C50.7842 41.5625 53.4375 44.2158 53.4375 47.5C53.4375 50.7842 50.7842 53.4375 47.5 53.4375Z" fill="#0042FF"/>
</g>
<defs>
<clipPath id="clip0_105_215">
<rect width="95" height="95" fill="white"/>
</clipPath>
</defs>
</svg>
