<svg width="215" height="47" viewBox="0 0 215 47" fill="none" xmlns="http://www.w3.org/2000/svg">
<path d="M213.238 15.7805C197.935 10.3491 181.459 8.24271 165.428 6.5069C139.26 3.67347 113.065 2.44292 86.7594 2.57705C66.4309 2.68071 45.8547 3.477 25.9418 8.04536C21.9121 8.96983 -4.07221 14.81 3.74705 23.8688C7.25594 27.9339 13.013 30.2986 17.7843 32.1136C30.0213 36.7685 43.1322 39.0877 56.0158 40.8074C75.4149 43.3968 95.01 44.3927 114.556 44.6654C133.689 44.9323 153.092 44.8373 172.007 41.5214C178.792 40.3321 213.306 34.4283 203.401 19.7863C198.726 12.8743 189.583 8.90682 182.192 6.26407C173.98 3.32753 165.833 2.65191 157.319 1.51971" stroke="#B9FF66" stroke-width="3" stroke-linecap="round"/>
</svg>
