<svg width="142" height="57" viewBox="0 0 142 57" fill="none" xmlns="http://www.w3.org/2000/svg">
<path fill-rule="evenodd" clip-rule="evenodd" d="M98.3594 27.2445C98.3594 27.2445 93.8428 28.8742 96.4109 31.0161C98.979 33.158 103.241 26.7466 111.479 31.453C111.479 31.453 107.611 24.3325 98.3594 27.2445Z" fill="#D507D3"/>
<path fill-rule="evenodd" clip-rule="evenodd" d="M21.9756 28.7057C22.8111 28.6266 23.6475 28.8472 24.3352 29.3282C25.0229 29.8092 25.517 30.5192 25.7293 31.3311C25.8185 31.7752 25.8172 32.2327 25.7256 32.6763C25.6341 33.1199 25.454 33.5404 25.1962 33.9129C24.9385 34.2853 24.6083 34.602 24.2254 34.844C23.8425 35.0859 23.4148 35.2482 22.9677 35.3212C20.7614 35.7582 18.8237 34.2467 18.6947 32.2624C18.5693 30.382 20.0952 28.849 21.9756 28.7057Z" fill="#6622CC"/>
<path fill-rule="evenodd" clip-rule="evenodd" d="M0 11.1589C0.028654 18.5266 5.57679 22.1979 11.064 22.1979C15.0434 22.1979 19.1409 20.4715 20.6846 15.9692C21.4225 13.8739 21.4225 11.8073 21.3007 9.65104H11.0963V14.4398H15.6881C14.7031 16.5029 13.2847 17.0903 11.064 17.0903C7.79747 17.0903 5.6914 14.7479 5.6914 11.1697C5.6914 7.8709 7.57182 5.15952 11.064 5.15952C13.2561 5.15952 14.6709 5.90094 15.5663 7.74913H20.9926C19.9432 2.3765 15.4123 0.134319 11.064 0.102083C5.57679 0.112828 0.028654 3.79129 0 11.1589ZM38.6256 21.9615H44.0197V21.1592L34.2774 0.112828H31.9062L22.1925 21.1485V21.9615H27.5902L28.8546 19.2466H37.3792L38.6256 21.9615ZM35.5883 14.5222H30.6419L33.0775 8.84873L35.5883 14.5222ZM49.9153 15.3532H44.5749C44.4495 24.8484 62.0216 24.6944 62.0216 15.629C62.0216 10.2349 57.831 9.58656 53.5472 9.12452C51.6023 8.90961 50.0013 8.56934 50.123 6.93606C50.3093 4.37869 56.1046 4.13155 56.1046 6.99696H61.3447C61.47 -2.3156 44.6967 -2.3156 44.8686 6.99696C44.9295 11.6855 48.0134 13.2865 52.6983 13.6268C54.8474 13.7486 56.6382 14.0888 56.6382 15.6003C56.6597 18.129 49.9153 18.0968 49.9153 15.3532ZM77.853 14.952V10.02H70.9008V5.30278H78.7305V0.370714H65.2918V21.9615H70.9008V14.952H77.853ZM103.036 11.1912C103.036 -3.7304 80.9046 -3.7304 80.9046 11.1912C80.9046 26.1128 103.036 26.1414 103.036 11.1912ZM86.5602 11.1912C86.5602 3.42236 97.3807 3.42236 97.3807 11.1912C97.3807 19.0209 86.5602 19.0209 86.5602 11.1912ZM120.411 14.3037C125.866 10.6074 124.326 0.40295 115.848 0.370714H106.385V21.9615H111.901V15.6003H114.766L118.466 21.9615H124.634V21.1592L120.411 14.3037ZM115.848 10.6969H111.908V5.30278C113.205 5.30278 114.559 5.27413 115.848 5.30278C118.993 5.33502 118.839 10.6969 115.848 10.6969ZM130.369 5.30278V21.9615H135.824V5.30278H141.096V0.370714H125.064V5.30278H130.369Z" fill="#081B1D"/>
<path fill-rule="evenodd" clip-rule="evenodd" d="M137.667 30.1353C137.667 30.1353 135.97 53.9754 100.388 47.3922C55.9747 39.1792 62.4219 31.6683 35.8095 40.8089C6.55371 50.8557 4.25781 33.1619 4.25781 33.1619C4.25781 33.1619 14.6449 43.66 32.8223 36.8511C40.301 34.0501 49.9216 26.2491 61.9885 26.4425C78.5505 26.7111 76.6092 42.0876 97.4478 42.2846C109.726 42.4028 123.036 31.8975 123.426 31.9656C123.48 31.9906 137.399 28.3014 137.667 30.1353Z" fill="url(#paint0_linear_503_3995)"/>
<path fill-rule="evenodd" clip-rule="evenodd" d="M10.9296 46.1274C10.9296 46.1274 23.4371 54.2616 39.2899 46.7005C53.0474 40.1423 59.1937 41.7792 65.1896 43.305C77.5001 46.4355 85.097 57.9902 101.899 52.46C108.554 50.2644 109.535 40.4826 109.535 40.4826C109.535 40.4826 93.883 27.7745 77.6577 37.6709L60.3757 36.3994L46.1884 39.0642C46.1884 39.0642 18.6447 49.6483 5.71459 33.3871C5.21314 32.7568 3.75895 32.6708 3.3363 32.2696C2.11134 31.0733 1.6099 29.9666 1.50603 30.5325C0.793257 34.4617 3.44734 41.4855 10.9296 46.1274Z" fill="url(#paint1_linear_503_3995)"/>
<path fill-rule="evenodd" clip-rule="evenodd" d="M6.55246 39.1539C6.55246 39.1539 16.3557 48.0689 32.5775 43.3839C48.219 38.8638 53.3516 36.8007 64.5052 38.5342C77.7577 40.5902 82.9691 53.5776 93.8756 53.728C103.36 53.8642 107.153 50.1463 114.929 41.2098C119.807 35.6044 124.843 30.6293 135.757 30.307C139.564 30.1923 137.494 29.2575 132.641 29.0247C126.849 28.7489 116.62 29.6193 107.436 37.2627C91.2752 50.705 81.6475 25.2388 44.7841 37.3953C20.6646 45.3503 12.0648 38.7527 2.81312 30.9481C0.438418 28.9495 2.12184 32.6781 2.12184 32.6781C2.12184 32.6781 4.24582 37.141 6.55246 39.1539Z" fill="url(#paint2_linear_503_3995)"/>
<path fill-rule="evenodd" clip-rule="evenodd" d="M123.61 49.2437C124.534 49.2082 125.438 49.5191 126.144 50.1155C126.85 50.7119 127.308 51.5506 127.428 52.4673C127.539 53.3746 127.318 54.2914 126.806 55.0485C126.294 55.8056 125.525 56.3518 124.642 56.5863C124.175 56.7107 123.688 56.742 123.21 56.6783C122.731 56.6145 122.27 56.4571 121.852 56.2149C121.434 55.9728 121.068 55.6506 120.775 55.2669C120.482 54.8832 120.267 54.4455 120.143 53.9788C120.107 53.8431 120.078 53.7056 120.057 53.5669C119.902 52.588 120.142 51.5878 120.725 50.786C121.307 49.9841 122.184 49.4461 123.162 49.2903C123.31 49.2641 123.46 49.2485 123.61 49.2437Z" fill="#FADD2E"/>
<path fill-rule="evenodd" clip-rule="evenodd" d="M46.6421 47.9005C46.6421 47.9005 42.4228 51.9479 47.0218 53.137C52.0112 54.4301 54.7441 45.7658 69.4113 52.7789C69.4113 52.7645 56.6603 39.7699 46.6421 47.9005Z" fill="#781ECD"/>
<defs>
<linearGradient id="paint0_linear_503_3995" x1="69.0445" y1="25.8981" x2="76.226" y2="47.9975" gradientUnits="userSpaceOnUse">
<stop stop-color="#F9C540"/>
<stop offset="1" stop-color="#FAE925"/>
</linearGradient>
<linearGradient id="paint1_linear_503_3995" x1="60.9631" y1="28.978" x2="45.6655" y2="52.5352" gradientUnits="userSpaceOnUse">
<stop stop-color="#811CCE"/>
<stop offset="0.68" stop-color="#F500D5"/>
<stop offset="1" stop-color="#F500D5"/>
</linearGradient>
<linearGradient id="paint2_linear_503_3995" x1="137.727" y1="41.7972" x2="1.5989" y2="39.4225" gradientUnits="userSpaceOnUse">
<stop stop-color="#5409EA"/>
<stop offset="0.49" stop-color="#FD00F7"/>
<stop offset="1" stop-color="#FD00F7"/>
</linearGradient>
</defs>
</svg>
