<svg width="593" height="492" viewBox="0 0 593 492" fill="none" xmlns="http://www.w3.org/2000/svg">
<path d="M585.87 306.705C586.718 304.255 587.023 301.554 586.791 300.581C430.127 275.451 116.602 226.211 115.818 230.295C115.324 232.867 115.212 236.228 115.716 239.055C116.236 241.974 118.587 244.012 121.115 245.561L392.64 411.923C399.441 416.09 407.999 416.118 414.828 411.995L581.778 311.183C583.566 310.104 585.186 308.678 585.87 306.705Z" fill="#9A49DC" fill-opacity="0.92"/>
<path d="M119.365 225.272L198.88 175.18L276.217 127.325L584.123 295.841C587.742 297.822 587.841 302.984 584.301 305.103L414.845 406.502C408.041 410.574 399.541 410.539 392.771 406.411L119.472 239.788C114.06 236.488 114.002 228.65 119.365 225.272Z" fill="#F0E7F7"/>
<path d="M526.789 173.497C519.478 189.148 528.535 196.369 534.17 198.044C537.12 185.074 532.477 176.635 528.882 173.066C528.229 172.418 527.178 172.664 526.789 173.497Z" fill="#9A49DC"/>
<path d="M514.308 187.114C507.926 203.167 517.39 209.845 523.113 211.187C525.3 198.067 520.17 189.914 516.373 186.562C515.683 185.953 514.648 186.259 514.308 187.114Z" fill="#9A49DC"/>
<path d="M502.121 203.602C497.152 220.147 507.158 225.98 512.977 226.822C514.019 213.562 508.203 205.884 504.13 202.873C503.39 202.326 502.386 202.721 502.121 203.602Z" fill="#9A49DC"/>
<path d="M557.899 201.495C547.064 194.152 537.531 196.393 533.963 198.576C539.662 208.421 551.077 206.607 557.682 203.857C558.692 203.437 558.804 202.109 557.899 201.495Z" fill="#9A49DC"/>
<path d="M550.791 211.747C537.892 204.547 527.437 208.05 523.679 210.861C531.11 221.316 543.794 217.928 550.796 214.137C551.757 213.616 551.746 212.28 550.791 211.747Z" fill="#9A49DC"/>
<path d="M541.552 227.389C528.652 220.188 518.197 223.692 514.44 226.503C521.871 236.958 534.554 233.57 541.556 229.779C542.518 229.258 542.506 227.922 541.552 227.389Z" fill="#9A49DC"/>
<path d="M541.369 191.03C535.837 196.067 522.032 211.121 511.066 231.045" stroke="#771CC2" stroke-width="1.50458"/>
<path d="M562.511 166.715C543.852 170.075 539.222 185.714 539.278 193.348C556.165 190.678 562.641 176.545 564.119 168.294C564.289 167.341 563.463 166.543 562.511 166.715Z" fill="#9A49DC"/>
<path d="M183.589 174.855V166.055L288.781 160.643L312.225 168.084L239.324 211.862L183.589 174.855Z" fill="#C7CBF6"/>
<path d="M253.359 12.9618V2.58789L193.478 35.6802L182.184 44.6099L185.467 50.1254L253.359 12.9618Z" fill="#E32478"/>
<path d="M251.549 9.91992L267.641 21.7884L202.362 60.933L185.586 47.6947L251.549 9.91992Z" fill="#FFF5F1"/>
<path d="M276.616 140.886V19.4336L205.032 59.9811V184.527L276.616 140.886Z" fill="#E32478"/>
<path d="M188.981 49.6672L251.921 13.3135" stroke="#EBB47E" stroke-opacity="0.62" stroke-width="1.77206" stroke-linecap="round"/>
<path d="M193.325 53.6037L256.265 17.25" stroke="#EBB47E" stroke-opacity="0.62" stroke-width="1.77206" stroke-linecap="round"/>
<path d="M199.506 56.5129L262.446 20.1592" stroke="#EBB47E" stroke-opacity="0.62" stroke-width="1.77206" stroke-linecap="round"/>
<path d="M252.348 2.58789L183.984 42.1394C181.679 43.4725 181.612 46.7754 183.861 48.2006L201.288 59.2464C202.402 59.9525 203.816 59.9816 204.958 59.322L275.684 18.4763" stroke="#FF4E9C" stroke-width="4.1348" stroke-linecap="round"/>
<path d="M205.033 184.48V60.2546L203.769 58.2515L183.797 46.7734C184.071 44.3515 184.788 40.2144 182.87 41.7724C180.953 43.3304 180.181 44.1202 180.206 44.9464V166.959C180.206 168.179 180.834 169.314 181.868 169.962L205.033 184.48Z" fill="#FF4E9C"/>
<path d="M180.197 77.6176L205.064 92.2838V77.3293L180.197 63.3252V77.6176Z" fill="#E32478"/>
<path d="M180.197 91.2237L205.064 105.89V97.967L180.197 83.9629V91.2237Z" fill="#E32478"/>
<path d="M286.768 34.9677V24.5938L226.886 57.6861L215.593 66.6158L218.876 72.1312L286.768 34.9677Z" fill="#34C977"/>
<path d="M284.957 31.9277L301.049 43.7963L235.77 82.9408L218.994 69.7025L284.957 31.9277Z" fill="#FFF5F1"/>
<path d="M310.024 164.957V41.4395L238.441 81.987V206.533L310.024 164.957Z" fill="#34C977"/>
<path d="M222.39 71.675L285.329 35.3213" stroke="#EBB47E" stroke-opacity="0.62" stroke-width="1.77206" stroke-linecap="round"/>
<path d="M226.733 75.6115L289.673 39.2578" stroke="#EBB47E" stroke-opacity="0.62" stroke-width="1.77206" stroke-linecap="round"/>
<path d="M232.915 78.5197L295.854 42.166" stroke="#EBB47E" stroke-opacity="0.62" stroke-width="1.77206" stroke-linecap="round"/>
<path d="M285.756 24.5938L217.392 64.1453C215.088 65.4784 215.021 68.7812 217.27 70.2064L234.697 81.2523C235.811 81.9583 237.224 81.9874 238.366 81.3279L309.093 40.4822" stroke="#43EB8F" stroke-width="4.1348" stroke-linecap="round"/>
<path d="M238.441 206.49V82.2644L237.177 80.2613L217.205 68.7832C217.479 66.3613 218.196 62.2241 216.278 63.7822C214.361 65.3402 213.59 66.1299 213.614 66.9562V188.969C213.614 190.189 214.242 191.324 215.276 191.972L238.441 206.49Z" fill="#43EB8F"/>
<path d="M213.606 99.6254L238.473 114.292V99.3371L213.606 85.333V99.6254Z" fill="#34C977"/>
<path d="M213.606 113.231L238.473 127.897V119.974L213.606 105.97V113.231Z" fill="#34C977"/>
<path d="M193.253 268.817C189.542 266.048 191.587 258.473 191.892 256.279C294.938 265.543 498.731 290.6 502.013 294.225C502.647 294.925 503.149 295.629 503.544 296.32C505.769 300.213 502.399 304.211 498.506 306.438L383.747 372.083C378.47 375.102 372.022 375.111 366.765 372.056C304.594 335.916 195.739 270.673 193.253 268.817Z" fill="#C7CBF6"/>
<path d="M325.425 31.4078L321.639 33.1309L361.161 94.9981L504.974 277.908C506.259 277.825 507.937 277.183 509.547 276.41C512.881 274.81 514.837 271.122 514.837 267.424V136.4C514.837 132.096 512.482 128.136 508.698 126.082L334.94 31.7421C331.996 30.144 328.473 30.0202 325.425 31.4078Z" fill="#AECEF4"/>
<rect x="336.487" y="182.148" width="163.752" height="6.1421" rx="3.07105" transform="rotate(29.0437 336.487 182.148)" fill="#82B9ED"/>
<path d="M504.843 290.618V285.952L255.557 250.255C235.39 248.223 194.078 245.379 192.403 250.255C191.146 253.913 191.62 257.96 192.23 260.977C192.571 262.66 193.656 264.093 195.13 264.976L365.553 367.145C371.23 370.549 378.311 370.59 384.029 367.254L499.549 299.837C502.827 297.924 504.843 294.414 504.843 290.618Z" fill="#352E8D"/>
<path d="M309.446 180.592L193.865 248.743C191.078 250.386 191.06 254.411 193.833 256.079L365.714 359.476C371.043 362.681 377.692 362.737 383.074 359.622L502.457 290.511C506.039 288.438 506 283.254 502.389 281.234L322.204 180.447C318.228 178.223 313.37 178.278 309.446 180.592Z" fill="#AECEF4"/>
<path d="M320.138 36.3474V166.576C320.138 171.575 322.828 176.189 327.18 178.651L502.006 277.605C505.564 279.619 509.972 277.049 509.972 272.961V140.795C509.972 135.714 507.195 131.039 502.732 128.609L326.45 32.5978C323.605 31.0483 320.138 33.1077 320.138 36.3474Z" fill="#DEEDFF"/>
<path d="M342.034 66.7879V161.957C342.034 166.957 344.724 171.57 349.075 174.033L480.111 248.2C483.668 250.214 488.076 247.644 488.076 243.556V147.981C488.076 142.917 485.318 138.255 480.879 135.818L348.359 63.0454C345.514 61.4829 342.034 63.5417 342.034 66.7879Z" fill="white"/>
<path d="M308.436 184.137L247.072 220.609C244.985 221.849 244.984 224.871 247.07 226.113L419.762 328.934C422.433 330.524 425.757 330.537 428.441 328.968L493.574 290.88C496.41 289.221 496.388 285.114 493.534 283.485L319.178 184.041C315.841 182.138 311.739 182.175 308.436 184.137Z" fill="#88B6ED"/>
<path d="M320.706 321.478L355.693 299.258C357.036 298.405 357.007 296.434 355.639 295.621L297.099 260.831C296.06 260.213 294.761 260.233 293.742 260.883L259.082 282.982C257.744 283.835 257.771 285.797 259.132 286.613L317.343 321.521C318.382 322.144 319.683 322.128 320.706 321.478Z" fill="#505ACC"/>
<path d="M399.175 394.329C398.659 393.905 398.254 393.518 398.007 393.252C425.353 375.19 480.496 338.461 481.982 341.077C482.728 342.39 483.06 343.647 483.174 344.79C483.364 346.695 482.113 348.378 480.475 349.37L406.262 394.314C404.021 395.671 401.198 395.993 399.175 394.329Z" fill="#C7CBF6"/>
<path d="M472.301 335.238L395.631 380.205C393.969 381.18 392.745 382.858 392.792 384.784C392.923 390.14 395.982 392.705 398.771 393.72C400.387 394.308 402.131 393.786 403.601 392.894L480.711 346.073C481.837 345.389 482.63 344.222 482.594 342.904C482.478 338.686 480.335 336.282 478.12 334.912C476.342 333.811 474.105 334.18 472.301 335.238Z" fill="#FF4E9C"/>
<path d="M422.618 364.314L394.094 380.97L398.542 392.978C399.006 394.229 400.49 394.754 401.636 394.071L431.311 376.41C431.682 367.431 425.544 364.481 422.618 364.314Z" fill="#EF3A8A"/>
<path d="M401.441 385.714C402.21 387.47 402.439 389.22 402.229 390.61C402.016 392.013 401.389 392.919 400.566 393.279C399.744 393.64 398.652 393.485 397.477 392.69C396.314 391.901 395.184 390.546 394.415 388.79C393.646 387.034 393.417 385.284 393.627 383.894C393.839 382.491 394.467 381.584 395.289 381.224C396.112 380.864 397.204 381.018 398.378 381.814C399.542 382.602 400.672 383.958 401.441 385.714Z" fill="#FF4E9C" stroke="#DF2778" stroke-width="1.70784"/>
<path d="M402.296 380.622C401.194 379.477 399.772 378.628 398.82 378.322L433.195 358.139C433.439 357.996 433.731 357.952 434 358.041C435.066 358.394 436.222 359.033 437.128 359.608C437.767 360.013 437.717 360.926 437.064 361.309L403.737 380.864C403.269 381.139 402.672 381.013 402.296 380.622Z" fill="#DF2778"/>
<path d="M427.274 273.33L435.72 268.048C436.396 267.625 436.386 266.637 435.702 266.227L425.807 260.304C425.122 259.893 424.265 259.9 423.586 260.321L415.016 265.632C414.334 266.055 414.345 267.052 415.037 267.459L425.059 273.36C425.745 273.764 426.599 273.752 427.274 273.33Z" fill="#505ACC"/>
<path d="M420.336 286.354L428.782 281.072C429.458 280.649 429.448 279.661 428.764 279.251L418.869 273.327C418.184 272.917 417.327 272.924 416.648 273.344L408.079 278.656C407.396 279.079 407.407 280.075 408.099 280.483L418.121 286.383C418.807 286.787 419.661 286.776 420.336 286.354Z" fill="#505ACC"/>
<path d="M399.383 291.482L407.828 286.201C408.504 285.778 408.495 284.79 407.81 284.38L397.916 278.456C397.23 278.046 396.373 278.052 395.694 278.473L387.125 283.785C386.442 284.208 386.454 285.204 387.146 285.612L397.168 291.512C397.854 291.916 398.707 291.905 399.383 291.482Z" fill="#505ACC"/>
<path d="M390.801 305.631L394.797 303.306C395.504 302.894 395.505 301.873 394.798 301.461L383.161 294.673C382.489 294.281 381.656 294.285 380.989 294.685L377.184 296.963C376.491 297.378 376.492 298.382 377.186 298.796L388.634 305.62C389.301 306.017 390.131 306.022 390.801 305.631Z" fill="#505ACC"/>
<path d="M408.762 316.022L412.755 313.767C413.471 313.363 413.48 312.336 412.773 311.918L401.133 305.049C400.459 304.652 399.622 304.654 398.951 305.056L395.152 307.33C394.46 307.745 394.461 308.75 395.154 309.163L406.619 315.997C407.277 316.389 408.095 316.399 408.762 316.022Z" fill="#505ACC"/>
<path d="M426.009 326.28L429.998 324.02C430.714 323.614 430.72 322.584 430.009 322.169L418.398 315.4C417.725 315.008 416.893 315.013 416.226 315.413L412.429 317.686C411.734 318.102 411.738 319.11 412.436 319.521L423.872 326.262C424.53 326.65 425.345 326.657 426.009 326.28Z" fill="#505ACC"/>
<path d="M442.999 282.395L451.433 277.037C452.105 276.61 452.091 275.625 451.406 275.218L441.544 269.359C440.862 268.954 440.011 268.96 439.335 269.376L430.494 274.81C429.801 275.236 429.82 276.249 430.528 276.649L440.805 282.452C441.49 282.84 442.334 282.818 442.999 282.395Z" fill="#505ACC"/>
<path d="M444.323 300.434L453.278 294.838C453.962 294.41 453.943 293.407 453.242 293.006L434.596 282.351C433.918 281.963 433.084 281.977 432.419 282.385L423.535 287.846C422.847 288.269 422.859 289.272 423.557 289.678L442.119 300.469C442.804 300.867 443.652 300.854 444.323 300.434Z" fill="#505ACC"/>
<path d="M415.107 300.547L423.542 295.188C424.214 294.762 424.199 293.776 423.515 293.37L413.652 287.51C412.97 287.105 412.12 287.112 411.444 287.527L402.602 292.962C401.91 293.387 401.928 294.4 402.636 294.8L412.913 300.604C413.599 300.991 414.443 300.969 415.107 300.547Z" fill="#505ACC"/>
<path d="M456.919 272.854L460.821 270.451C461.511 270.025 461.494 269.016 460.789 268.614L451.089 263.089C450.441 262.72 449.649 262.716 448.997 263.077L445.058 265.261C444.338 265.66 444.322 266.69 445.03 267.111L454.708 272.871C455.391 273.277 456.243 273.271 456.919 272.854Z" fill="#505ACC"/>
<path d="M472.172 281.743L476.073 279.339C476.764 278.914 476.746 277.904 476.042 277.503L466.341 271.978C465.694 271.609 464.901 271.604 464.25 271.966L460.311 274.149C459.59 274.549 459.575 275.579 460.282 276L469.96 281.759C470.643 282.166 471.495 282.159 472.172 281.743Z" fill="#505ACC"/>
<path d="M441.568 263.933L445.473 261.528C446.164 261.102 446.146 260.093 445.442 259.691L435.801 254.2C435.122 253.813 434.285 253.828 433.621 254.24L429.899 256.543C429.217 256.966 429.227 257.962 429.918 258.37L439.362 263.953C440.044 264.357 440.894 264.349 441.568 263.933Z" fill="#505ACC"/>
<path d="M426.945 255.515L430.847 253.112C431.537 252.686 431.52 251.677 430.815 251.275L421.115 245.75C420.467 245.381 419.675 245.377 419.023 245.738L415.084 247.922C414.364 248.321 414.348 249.351 415.056 249.772L424.734 255.532C425.417 255.938 426.269 255.932 426.945 255.515Z" fill="#505ACC"/>
<path d="M412.164 246.898L416.065 244.495C416.756 244.069 416.738 243.06 416.034 242.658L406.333 237.133C405.686 236.764 404.893 236.76 404.242 237.121L400.303 239.304C399.582 239.704 399.567 240.734 400.274 241.155L409.952 246.915C410.635 247.321 411.487 247.315 412.164 246.898Z" fill="#505ACC"/>
<path d="M396.516 237.8L400.418 235.397C401.108 234.972 401.091 233.962 400.386 233.561L390.686 228.035C390.038 227.666 389.246 227.662 388.594 228.023L384.655 230.207C383.935 230.606 383.919 231.636 384.627 232.058L394.305 237.817C394.988 238.223 395.84 238.217 396.516 237.8Z" fill="#505ACC"/>
<path d="M380.9 228.728L384.802 226.325C385.492 225.899 385.475 224.89 384.77 224.488L375.07 218.963C374.422 218.594 373.63 218.59 372.978 218.951L369.039 221.135C368.319 221.534 368.303 222.564 369.011 222.985L378.689 228.745C379.372 229.151 380.224 229.145 380.9 228.728Z" fill="#505ACC"/>
<path d="M365.275 219.761L369.176 217.358C369.867 216.933 369.849 215.923 369.145 215.522L359.444 209.996C358.797 209.627 358.004 209.623 357.353 209.984L353.414 212.168C352.694 212.567 352.678 213.597 353.386 214.019L363.064 219.778C363.746 220.184 364.598 220.178 365.275 219.761Z" fill="#505ACC"/>
<path d="M350.605 211.172L354.506 208.769C355.197 208.344 355.179 207.334 354.475 206.933L344.774 201.407C344.127 201.039 343.334 201.034 342.683 201.395L338.744 203.579C338.023 203.978 338.008 205.008 338.716 205.43L348.393 211.189C349.076 211.596 349.928 211.589 350.605 211.172Z" fill="#505ACC"/>
<path d="M335.355 202.367L339.256 199.963C339.947 199.538 339.929 198.528 339.225 198.127L329.524 192.602C328.877 192.233 328.084 192.228 327.433 192.59L323.494 194.773C322.773 195.173 322.758 196.203 323.465 196.624L333.143 202.384C333.826 202.79 334.678 202.783 335.355 202.367Z" fill="#505ACC"/>
<path d="M458.024 291.144L466.739 285.875C467.431 285.456 467.424 284.45 466.726 284.041L456.576 278.088C455.881 277.681 455.018 277.699 454.341 278.134L445.994 283.503C445.327 283.932 445.344 284.912 446.025 285.318L455.828 291.151C456.505 291.554 457.35 291.551 458.024 291.144Z" fill="#505ACC"/>
<path d="M430.133 309.296L438.847 304.027C439.539 303.609 439.532 302.602 438.835 302.193L428.684 296.241C427.99 295.834 427.126 295.851 426.449 296.287L418.102 301.655C417.435 302.084 417.452 303.064 418.134 303.47L427.936 309.304C428.614 309.707 429.458 309.704 430.133 309.296Z" fill="#505ACC"/>
<path d="M411.832 264.311L420.572 259.057C421.266 258.639 421.261 257.631 420.562 257.221L410.385 251.252C409.691 250.844 408.827 250.862 408.15 251.297L399.803 256.666C399.136 257.095 399.153 258.075 399.835 258.481L409.64 264.316C410.316 264.718 411.158 264.716 411.832 264.311Z" fill="#505ACC"/>
<path d="M404.895 277.335L413.635 272.08C414.329 271.663 414.323 270.655 413.625 270.245L403.447 264.275C402.753 263.868 401.889 263.886 401.213 264.321L392.866 269.689C392.199 270.118 392.216 271.099 392.897 271.504L402.703 277.34C403.379 277.742 404.221 277.74 404.895 277.335Z" fill="#505ACC"/>
<path d="M383.941 282.461L392.681 277.206C393.375 276.789 393.37 275.781 392.671 275.371L382.494 269.401C381.8 268.994 380.936 269.012 380.259 269.447L371.912 274.815C371.245 275.244 371.262 276.225 371.944 276.63L381.749 282.466C382.425 282.868 383.267 282.866 383.941 282.461Z" fill="#505ACC"/>
<path d="M396.478 255.364L405.057 250.013C405.738 249.589 405.724 248.592 405.031 248.186L395.021 242.332C394.327 241.926 393.464 241.945 392.788 242.379L384.44 247.749C383.773 248.178 383.79 249.158 384.471 249.564L394.256 255.387C394.943 255.796 395.8 255.787 396.478 255.364Z" fill="#505ACC"/>
<path d="M389.54 268.386L398.119 263.036C398.801 262.611 398.786 261.614 398.093 261.209L388.083 255.355C387.389 254.949 386.526 254.967 385.85 255.402L377.502 260.771C376.835 261.2 376.852 262.181 377.533 262.586L387.319 268.41C388.005 268.818 388.862 268.809 389.54 268.386Z" fill="#505ACC"/>
<path d="M368.587 273.516L377.166 268.166C377.847 267.741 377.833 266.744 377.14 266.339L367.13 260.485C366.436 260.079 365.573 260.097 364.897 260.532L356.549 265.901C355.882 266.33 355.899 267.311 356.58 267.716L366.365 273.539C367.052 273.948 367.909 273.939 368.587 273.516Z" fill="#505ACC"/>
<path d="M374.067 295.924L382.753 290.494C383.433 290.069 383.419 289.074 382.727 288.668L312.926 247.722C312.232 247.315 311.368 247.333 310.691 247.768L302.35 253.133C301.682 253.562 301.701 254.546 302.385 254.95L371.85 295.952C372.536 296.357 373.391 296.346 374.067 295.924Z" fill="#505ACC"/>
<path d="M381.031 246.536L389.727 241.18C390.415 240.757 390.401 239.752 389.702 239.347L379.575 233.486C378.882 233.085 378.023 233.105 377.35 233.538L368.996 238.911C368.329 239.34 368.346 240.32 369.028 240.726L378.82 246.553C379.503 246.96 380.355 246.953 381.031 246.536Z" fill="#505ACC"/>
<path d="M374.094 259.558L382.789 254.202C383.477 253.778 383.463 252.774 382.764 252.369L372.637 246.507C371.944 246.107 371.086 246.127 370.413 246.559L362.058 251.932C361.392 252.361 361.409 253.342 362.09 253.747L371.882 259.575C372.565 259.981 373.417 259.975 374.094 259.558Z" fill="#505ACC"/>
<path d="M353.14 264.688L361.836 259.331C362.524 258.908 362.51 257.903 361.811 257.499L351.683 251.637C350.99 251.236 350.132 251.257 349.459 251.689L341.105 257.062C340.438 257.491 340.455 258.472 341.136 258.877L350.929 264.705C351.611 265.111 352.463 265.105 353.14 264.688Z" fill="#505ACC"/>
<path d="M365.816 237.734L374.456 232.338C375.139 231.911 375.121 230.911 374.424 230.508L364.355 224.693C363.662 224.293 362.805 224.314 362.132 224.746L353.777 230.12C353.11 230.549 353.127 231.529 353.809 231.935L363.593 237.758C364.28 238.166 365.138 238.157 365.816 237.734Z" fill="#505ACC"/>
<path d="M358.878 250.755L367.518 245.359C368.201 244.933 368.183 243.933 367.486 243.53L357.417 237.715C356.724 237.315 355.867 237.335 355.194 237.768L346.839 243.141C346.172 243.57 346.189 244.551 346.871 244.956L356.655 250.779C357.342 251.188 358.2 251.179 358.878 250.755Z" fill="#505ACC"/>
<path d="M337.924 255.886L346.564 250.49C347.247 250.064 347.23 249.063 346.533 248.661L336.463 242.845C335.771 242.446 334.913 242.466 334.241 242.899L325.886 248.272C325.219 248.701 325.236 249.682 325.917 250.087L335.702 255.91C336.389 256.319 337.246 256.31 337.924 255.886Z" fill="#505ACC"/>
<path d="M269.313 234.104L277.26 228.751C277.91 228.314 277.883 227.349 277.21 226.948L259.819 216.603C259.144 216.202 258.303 216.203 257.629 216.607L248.934 221.825C248.237 222.243 248.244 223.255 248.947 223.663L267.048 234.179C267.755 234.59 268.635 234.561 269.313 234.104Z" fill="#505ACC"/>
<path d="M350.723 228.857L359.283 223.436C359.96 223.006 359.94 222.012 359.246 221.61L349.259 215.83C348.566 215.429 347.708 215.449 347.035 215.882L338.681 221.255C338.014 221.683 338.031 222.664 338.712 223.07L348.489 228.888C349.18 229.299 350.043 229.287 350.723 228.857Z" fill="#505ACC"/>
<path d="M343.785 241.881L352.345 236.46C353.022 236.031 353.002 235.036 352.308 234.634L342.321 228.854C341.628 228.453 340.77 228.473 340.097 228.906L331.743 234.279C331.076 234.708 331.093 235.688 331.774 236.094L341.551 241.912C342.242 242.323 343.106 242.311 343.785 241.881Z" fill="#505ACC"/>
<path d="M322.831 247.009L331.391 241.588C332.069 241.159 332.049 240.164 331.355 239.762L321.367 233.982C320.675 233.581 319.816 233.601 319.143 234.034L310.789 239.407C310.122 239.836 310.139 240.816 310.821 241.222L320.597 247.04C321.288 247.451 322.152 247.439 322.831 247.009Z" fill="#505ACC"/>
<path d="M299.211 251.434L307.771 246.013C308.449 245.584 308.429 244.589 307.735 244.187L297.748 238.407C297.055 238.006 296.196 238.026 295.523 238.459L287.169 243.832C286.502 244.261 286.52 245.241 287.201 245.647L296.977 251.465C297.668 251.876 298.532 251.864 299.211 251.434Z" fill="#505ACC"/>
<path d="M335.606 220.007L344.063 214.624C344.736 214.195 344.719 213.207 344.031 212.803L334.145 206.996C333.451 206.588 332.586 206.606 331.909 207.041L323.563 212.409C322.896 212.838 322.913 213.818 323.595 214.224L333.368 220.04C334.061 220.452 334.926 220.439 335.606 220.007Z" fill="#505ACC"/>
<path d="M328.669 233.032L337.126 227.649C337.799 227.221 337.781 226.232 337.093 225.828L327.208 220.021C326.514 219.614 325.649 219.631 324.972 220.067L316.626 225.434C315.959 225.863 315.976 226.844 316.657 227.249L326.431 233.066C327.123 233.478 327.989 233.465 328.669 233.032Z" fill="#505ACC"/>
<path d="M307.715 238.16L316.172 232.777C316.845 232.349 316.827 231.36 316.139 230.956L306.254 225.149C305.559 224.741 304.695 224.759 304.018 225.194L295.672 230.562C295.005 230.991 295.022 231.972 295.703 232.377L305.477 238.194C306.169 238.606 307.035 238.593 307.715 238.16Z" fill="#505ACC"/>
<path d="M284.095 242.582L292.552 237.199C293.225 236.771 293.207 235.782 292.519 235.378L282.634 229.571C281.939 229.163 281.075 229.181 280.398 229.616L272.052 234.984C271.385 235.413 271.402 236.394 272.083 236.799L281.857 242.615C282.549 243.028 283.415 243.015 284.095 242.582Z" fill="#505ACC"/>
<path d="M320.818 211.178L329.258 205.876C329.943 205.446 329.919 204.441 329.215 204.043L319.218 198.394C318.536 198.008 317.696 198.028 317.032 198.445L308.676 203.696C307.995 204.124 308.014 205.124 308.712 205.525L318.618 211.221C319.303 211.615 320.149 211.598 320.818 211.178Z" fill="#505ACC"/>
<path d="M313.88 224.203L322.32 218.901C323.005 218.471 322.981 217.465 322.277 217.067L312.28 211.418C311.598 211.032 310.758 211.052 310.094 211.469L301.738 216.72C301.057 217.149 301.077 218.148 301.774 218.549L311.68 224.245C312.365 224.639 313.211 224.623 313.88 224.203Z" fill="#505ACC"/>
<path d="M292.926 229.331L301.367 224.03C302.052 223.599 302.028 222.594 301.324 222.196L291.327 216.547C290.645 216.161 289.805 216.181 289.141 216.598L280.785 221.849C280.104 222.277 280.123 223.277 280.821 223.678L290.727 229.374C291.411 229.768 292.258 229.752 292.926 229.331Z" fill="#505ACC"/>
<path d="M306.42 203.056L315.056 197.611C315.746 197.176 315.713 196.159 314.997 195.77L305.206 190.45C304.551 190.094 303.758 190.106 303.113 190.48L294.148 195.693C293.432 196.11 293.443 197.149 294.169 197.55L304.249 203.119C304.93 203.495 305.762 203.471 306.42 203.056Z" fill="#505ACC"/>
<path d="M299.502 216.067L308.151 210.613C308.834 210.183 308.811 209.181 308.109 208.782L291.062 199.099C290.401 198.724 289.591 198.728 288.934 199.11L279.963 204.327C279.252 204.74 279.255 205.767 279.968 206.175L297.301 216.113C297.987 216.506 298.833 216.489 299.502 216.067Z" fill="#505ACC"/>
<path d="M278.555 221.192L287.205 215.738C287.885 215.309 287.864 214.31 287.166 213.909L276.971 208.06C276.309 207.68 275.495 207.683 274.835 208.066L265.858 213.286C265.15 213.698 265.15 214.72 265.857 215.132L276.343 221.231C277.03 221.631 277.883 221.616 278.555 221.192Z" fill="#505ACC"/>
<path d="M422.084 84.9668L500.51 128.31C505.895 131.286 509.263 136.929 509.326 143.081L509.951 203.703" stroke="#505ACC" stroke-width="2.1348" stroke-linecap="round"/>
<circle cx="509.743" cy="208.518" r="1.36773" fill="#505ACC"/>
<mask id="mask0_243_251" style="mask-type:alpha" maskUnits="userSpaceOnUse" x="342" y="62" width="147" height="187">
<path d="M342.034 66.7889V161.958C342.034 166.957 344.724 171.571 349.075 174.034L480.111 248.201C483.668 250.215 488.077 247.645 488.077 243.557V147.982C488.077 142.918 485.318 138.256 480.88 135.819L348.359 63.0464C345.514 61.4839 342.034 63.5426 342.034 66.7889Z" fill="white"/>
</mask>
<g mask="url(#mask0_243_251)">
<path d="M331.372 82.166L492.925 169.866L503.415 122.029L406.064 54.471L325.078 51.1143L331.372 82.166Z" fill="#505ACC"/>
</g>
<path d="M266.237 279.13L292.689 262.349C294.388 261.272 296.547 261.241 298.276 262.269L348.558 292.17" stroke="#444CAE" stroke-width="2.1348" stroke-linecap="round"/>
<path d="M271.784 278.8L328.41 313.004" stroke="#969DEA" stroke-width="2.1348" stroke-linecap="round"/>
<path d="M298.269 294.788L288.657 302.036" stroke="#969DEA" stroke-width="2.1348" stroke-linecap="round"/>
<ellipse cx="162.021" cy="230.353" rx="20.9292" ry="7.44938" fill="#C7CBF6"/>
<path d="M143.417 226.138L136.861 198.674L187.181 196.726L181.157 226.138H143.417Z" fill="#ACB4FF"/>
<ellipse cx="162.29" cy="225.73" rx="18.869" ry="8.07365" fill="#ACB4FF"/>
<ellipse cx="161.752" cy="195.829" rx="27.0503" ry="11.2778" fill="#505ACC"/>
<ellipse cx="162.02" cy="180.974" rx="29.9178" ry="17.6253" fill="#505ACC"/>
<path d="M191.535 183.777L188.736 196.626L134.804 196.806L132.6 183.777H191.535Z" fill="#505ACC"/>
<ellipse cx="161.753" cy="186.385" rx="24.5231" ry="12.3417" fill="#10243D"/>
<path d="M190.871 180.974C190.871 185.309 187.881 189.426 182.634 192.517C177.411 195.594 170.125 197.532 162.02 197.532C153.916 197.532 146.63 195.594 141.407 192.517C136.16 189.426 133.17 185.309 133.17 180.974C133.17 176.639 136.16 172.522 141.407 169.431C146.63 166.354 153.916 164.416 162.02 164.416C170.125 164.416 177.411 166.354 182.634 169.431C187.881 172.522 190.871 176.639 190.871 180.974Z" stroke="#ACB4FF" stroke-width="2.1348"/>
<path d="M161.926 143.334C154.747 133.667 146.06 107.617 160.363 105.823C180.512 103.296 167.136 138.298 161.926 143.334Z" fill="#43EB8F"/>
<path d="M178.384 129.473C166.358 134.166 165.551 144.14 165.258 144.579C177.724 133.14 189.677 142.746 192.537 137.393C195.397 132.04 190.41 124.78 178.384 129.473Z" fill="#43EB8F"/>
<path d="M139.402 136.628C153.732 137.812 158.934 149.367 159.765 154.74C155.963 151.128 149.497 147.384 140.763 149.211C125.321 152.442 121.491 135.148 139.402 136.628Z" fill="#43EB8F"/>
<path d="M177.769 167.168C174.284 158.69 169.858 155.53 168.081 155.01C176.599 153.775 194.674 155.01 196.494 168.144C198.315 181.278 182.125 177.767 177.769 167.168Z" fill="#43EB8F"/>
<path d="M162.223 186.385V123.069" stroke="#4C86CE" stroke-width="1.0674" stroke-linecap="round"/>
<path d="M162.201 151.326C163.398 146.937 168.291 136.872 178.286 131.725" stroke="#4C86CE" stroke-width="1.0674" stroke-linecap="round"/>
<path d="M142.749 141.002C148.809 141.85 161.306 148 162.204 165.657" stroke="#4C86CE" stroke-width="1.0674" stroke-linecap="round"/>
<path d="M162.335 159.336C163.685 157.155 168.098 153.448 174.951 156.065C181.804 158.682 187.515 165.099 189.514 167.98" stroke="#4C86CE" stroke-width="1.0674" stroke-linecap="round"/>
<path d="M538.877 129.607C538.468 142.444 530.877 144.127 527.953 145.102C535.62 145.507 538.861 156.409 538.877 160.746C538.877 151.713 545.372 145.302 549.422 145.102C542.688 143.987 538.705 135.17 538.877 129.607Z" fill="#FE2257"/>
<path d="M119.725 150.618C119.421 160.158 113.78 161.409 111.606 162.133C117.305 162.435 119.713 170.537 119.725 173.76C119.725 167.047 124.552 162.282 127.562 162.133C122.558 161.305 119.597 154.752 119.725 150.618Z" fill="#FDD21B"/>
<ellipse cx="525.7" cy="385.087" rx="35.223" ry="15.7704" fill="#C7CBF6"/>
<path d="M492.308 318.665V377.661H559.092V318.665H492.308Z" fill="#FED460"/>
<ellipse cx="525.7" cy="318.664" rx="33.392" ry="18.7773" fill="#F3A93A"/>
<ellipse cx="525.7" cy="377.66" rx="33.392" ry="18.167" fill="#FED460"/>
<mask id="mask1_243_251" style="mask-type:alpha" maskUnits="userSpaceOnUse" x="497" y="307" width="56" height="29">
<path d="M501.417 330.338L497.718 326.638C498.334 324.249 499.591 319.286 499.683 318.546C499.776 317.806 503.267 315.848 505.001 314.962C510.358 312.611 521.186 307.794 521.648 307.332C522.226 306.754 540.608 310.8 541.186 311.031C541.648 311.216 549.24 317.814 552.978 321.089L551.706 329.066L542.457 332.766C537.795 333.806 528.353 335.887 527.891 335.887H515.521L505.81 332.766L501.417 330.338Z" fill="#C4C4C4"/>
</mask>
<g mask="url(#mask1_243_251)">
<ellipse cx="525.699" cy="330.269" rx="26.3786" ry="16.3453" fill="#AC5626"/>
</g>
<path d="M557.952 318.664C557.952 323.255 554.631 327.643 548.753 330.948C542.91 334.234 534.762 336.302 525.7 336.302C516.637 336.302 508.489 334.234 502.647 330.948C496.768 327.643 493.448 323.255 493.448 318.664C493.448 314.074 496.768 309.685 502.647 306.38C508.489 303.094 516.637 301.026 525.7 301.026C534.762 301.026 542.91 303.094 548.753 306.38C554.631 309.685 557.952 314.074 557.952 318.664Z" stroke="#F9F3E5" stroke-width="2.2794"/>
<path d="M550.359 364.844L543.995 367.605L545.238 370.239L556.194 376.515L556.69 368.257L550.359 364.844Z" fill="#EAA845"/>
<path d="M567.039 376.636C566.611 379.273 561.488 381.498 558.98 382.282V371.954C558.98 371.568 557.507 358.474 556.771 351.975L546.183 343.685L544.598 339.501L550.559 337.44C555.568 339.718 560.656 342.854 564.012 345.374C566.059 346.911 567.07 349.367 567.115 351.927C567.273 360.997 567.407 374.364 567.039 376.636Z" fill="#EAA845"/>
<path d="M544.592 348.051V339.448L557.805 346.896C560.314 348.31 561.865 350.966 561.865 353.846V379.724C561.865 382.361 559.005 384.005 556.726 382.678L546.227 376.565C544.825 375.749 543.962 374.248 543.962 372.625V367.541L554.614 373.66V355.147C554.614 354.333 554.179 353.58 553.473 353.173L544.592 348.051Z" fill="#FFBD3C"/>
<ellipse cx="356.227" cy="81.4302" rx="3.70555" ry="4.25444" transform="rotate(-20.7511 356.227 81.4302)" fill="#FF4E9C"/>
<ellipse cx="366.172" cy="86.7212" rx="3.70555" ry="4.25444" transform="rotate(-20.7511 366.172 86.7212)" fill="#FED460"/>
<ellipse cx="376.985" cy="92.3931" rx="3.70555" ry="4.25444" transform="rotate(-20.7511 376.985 92.3931)" fill="#ACB4FF"/>
<path d="M351.221 162.457V107.46C351.221 106.652 352.084 106.137 352.795 106.521L425.56 145.806C426.595 146.365 427.241 147.447 427.241 148.624V205.576C427.241 206.394 426.359 206.908 425.647 206.505L352.844 165.243C351.841 164.675 351.221 163.61 351.221 162.457Z" fill="#FFD35A"/>
<path d="M359.707 123.643L396.192 143.661M418.432 155.864L403.684 147.772" stroke="white" stroke-width="3.2022" stroke-linecap="round"/>
<path d="M359.707 133.938L375.038 142.35M418.432 166.16L383.892 147.496" stroke="white" stroke-width="3.2022" stroke-linecap="round"/>
<path d="M359.707 144.634L405 169.486M418.432 176.855L410.066 172.368" stroke="white" stroke-width="3.2022" stroke-linecap="round"/>
<path d="M359.707 155.636L418.432 187.857" stroke="white" stroke-width="3.2022" stroke-linecap="round"/>
<path d="M440.925 167.279L472.44 185.099" stroke="#43EB8F" stroke-width="4.2696" stroke-linecap="round"/>
<path d="M440.925 177.761L472.44 195.581" stroke="#43EB8F" stroke-width="4.2696" stroke-linecap="round"/>
<path d="M440.925 188.274L472.44 206.095" stroke="#43EB8F" stroke-width="4.2696" stroke-linecap="round"/>
<path d="M440.925 198.934L472.44 216.754" stroke="#43EB8F" stroke-width="4.2696" stroke-linecap="round"/>
<path d="M303.99 412.525L303.99 406.363L282.382 405.744L36.928 363.477C27.4224 361.866 9.73064 357.996 9.37166 359.943C9.16311 361.075 8.92007 363.811 8.84132 366.033C8.76561 368.169 9.90381 369.865 11.6639 371.078L77.8331 416.677C79.3592 425.68 88.173 428.436 92.7263 427.025L167.769 478.49C169.867 479.929 172.577 480.131 174.865 479.018L300.673 417.827C302.702 416.84 303.99 414.781 303.99 412.525Z" fill="#C7CBF6"/>
<path d="M11.0476 357.427L18.3957 353.317L89.2051 406.033L80.71 413.228L10.6914 365.44C7.79835 363.465 7.99074 359.137 11.0476 357.427Z" fill="#505ACC"/>
<path d="M93.9869 421.425L100.28 415.426L294.441 399.09L302.84 404.107C305.262 405.554 305.098 409.115 302.554 410.334L175.437 471.234C172.405 472.687 168.828 472.415 166.049 470.522L93.9869 421.425Z" fill="#505ACC"/>
<path d="M80.5764 413.135L88.618 405.073L103.323 414.872L95.427 422.332C86.3493 423.45 80.8988 416.53 80.5764 413.135Z" fill="#3943B9"/>
<path d="M16.4408 355.764L18.3 333.322L91.7889 394.076L171.595 438.605L299.152 378.317L297.258 401.174C297.084 403.272 295.805 405.118 293.902 406.017L171.889 463.686C170.362 464.408 168.566 464.258 167.18 463.293L78.8155 401.8L18.4574 360.032C17.0705 359.072 16.3016 357.445 16.4408 355.764Z" fill="#D9DCF9"/>
<path d="M299.029 378.41L288.334 375.64L172.325 434.113L102.127 399.817L171.943 438.721L299.029 378.41Z" fill="#ACB4FF"/>
<path d="M16.8242 332.481L38.2362 321.475L89.0946 391.973L16.8242 332.481Z" fill="#ACB4FF"/>
<path d="M18.3445 326.926L131.62 272.562C150.662 288.379 188.692 325.722 205.327 342.416L295.594 372.117L172.393 434.195L94.7561 396.541L87.3833 390.765L18.3445 326.926Z" fill="#EEF0FF"/>
<path d="M206.023 350.844L107.957 402.98L103.59 400.783C136.535 381.298 202.878 343.047 205.388 345.402C207.899 347.758 206.858 350.012 206.023 350.844Z" fill="#96A0F7" fill-opacity="0.33"/>
<path d="M214.097 334.668L198.462 339.119L204.789 347.856L215.282 336.606C216.097 335.733 215.245 334.341 214.097 334.668Z" fill="#FCE7DE"/>
<path d="M100.016 407.248C94.8347 407.217 92.5343 404.302 92.0318 402.848L100.705 398.94L107.973 403.068C104.878 404.979 102.597 407.263 100.016 407.248Z" fill="#454E9F" fill-opacity="0.22"/>
<path d="M198.391 339.091L98.8292 391.783L104.585 401.043L204.869 347.798C206.229 340.419 201.117 338.919 198.391 339.091Z" fill="#FED460"/>
<mask id="mask2_243_251" style="mask-type:alpha" maskUnits="userSpaceOnUse" x="198" y="334" width="18" height="14">
<path d="M214.097 334.669L198.462 339.12L204.789 347.857L215.282 336.607C216.097 335.734 215.245 334.342 214.097 334.669Z" fill="#FFF5F1"/>
</mask>
<g mask="url(#mask2_243_251)">
<path d="M213.306 342.272C212.939 340.422 212.32 336.299 208.038 334.819L208.199 332.883L216.776 331.319L219.656 338.381C217.838 340.288 213.672 344.122 213.306 342.272Z" fill="#10243D"/>
</g>
<path d="M104.776 401.137C105.136 396.792 100.9 392.668 98.9592 391.739L93.0024 395.262C91.4402 396.186 89.9234 397.473 89.7649 399.281C89.5253 402.016 91.3141 404.473 94.0641 405.346C95.6541 405.85 97.3291 405.256 98.7888 404.449L104.776 401.137Z" fill="#FF4E9C"/>
<path d="M102.012 394.38C103.002 395.354 104.948 398.037 104.813 400.971" stroke="#FFF0C6" stroke-width="1.17918" stroke-linecap="round"/>
<path d="M111.921 388.177L182.918 350.345" stroke="white" stroke-opacity="0.35" stroke-width="2.35837" stroke-linecap="round"/>
<path d="M208.33 353.46L273.726 375.883" stroke="#B3B9EC" stroke-width="2.94796" stroke-linecap="round"/>
<path d="M196.014 359.75L260.708 382.182" stroke="#B3B9EC" stroke-width="2.94796" stroke-linecap="round"/>
<path d="M184.145 366.687L245.801 388.604" stroke="#B3B9EC" stroke-width="2.94796" stroke-linecap="round"/>
<path d="M170.653 373.229L233.834 395.613" stroke="#B3B9EC" stroke-width="2.94796" stroke-linecap="round"/>
<path d="M157.286 380.817L217.989 402.479" stroke="#B3B9EC" stroke-width="2.94796" stroke-linecap="round"/>
<path d="M185.387 337.329L127.848 282.716" stroke="#8A92DF" stroke-opacity="0.59" stroke-width="2.94796" stroke-linecap="round"/>
<path d="M175.826 343.017L119.014 289.464" stroke="#8A92DF" stroke-opacity="0.59" stroke-width="2.94796" stroke-linecap="round"/>
<path d="M165.812 348.839L108.999 295.286M154.207 354.856L97.3947 301.303" stroke="#8A92DF" stroke-opacity="0.59" stroke-width="2.94796" stroke-linecap="round"/>
</svg>
