<svg width="413" height="257" viewBox="0 0 413 257" fill="none" xmlns="http://www.w3.org/2000/svg">
<ellipse cx="227.53" cy="248.984" rx="184.961" ry="7.31683" fill="#C7CBF6"/>
<rect x="281.475" y="60.8965" width="110.961" height="52.8997" rx="5.51075" fill="#444CAE"/>
<rect x="253.048" y="78.2256" width="114.214" height="42.1561" rx="5.51075" fill="#43EB8F"/>
<path d="M319.355 78.2256H361.751C364.795 78.2256 367.262 80.6928 367.262 83.7363V84.6534V100.614" stroke="white" stroke-width="2.59473" stroke-linecap="round"/>
<circle cx="291.61" cy="98.8382" r="3.80697" fill="white"/>
<circle cx="320.958" cy="98.8382" r="3.80697" fill="white"/>
<circle cx="300.612" cy="98.8382" r="3.80697" fill="white"/>
<circle cx="339.502" cy="98.8382" r="3.80697" fill="white"/>
<path d="M4.34006 86.4964C23.2071 60.9917 57.9511 77.258 61.9934 86.4966C64.6698 108.189 64.4182 146.974 51.234 163.201C34.7536 183.484 -3.70056 168.271 11.9346 146.72C27.5699 125.169 -12.3282 109.029 4.34006 86.4964Z" fill="#DEEDFF"/>
<path d="M49.5891 20.229C49.5891 18.9564 50.6207 17.9248 51.8933 17.9248H175.549C176.821 17.9248 177.853 18.9564 177.853 20.229V136.791C177.853 138.064 176.821 139.095 175.549 139.095H75.7034C61.2809 139.095 49.5891 127.404 49.5891 112.981V20.229Z" fill="#DCDFFC"/>
<path d="M77.1683 9.37739C77.1683 8.10482 78.2 7.0732 79.4725 7.0732H203.128C204.4 7.0732 205.432 8.10482 205.432 9.3774V125.94C205.432 127.212 204.4 128.244 203.128 128.244H103.283C88.8601 128.244 77.1683 116.552 77.1683 102.13V9.37739Z" fill="#ACB4FF"/>
<path d="M211.407 133.945H114.28C107.217 134.707 94.6527 135.272 100.898 131.428C104.178 129.41 106.884 126.587 108.903 123.943C111.733 120.235 112.608 115.521 112.608 110.857V107.995C112.608 107.04 113.382 106.266 114.337 106.266H229.647C230.602 106.266 231.376 107.04 231.376 107.995V113.975C231.376 125.004 222.436 133.945 211.407 133.945Z" fill="#7C87E8"/>
<path d="M26.3123 112.216V205.171C26.3123 210.733 30.8218 215.243 36.3846 215.243H191.058C196.621 215.243 201.131 210.733 201.131 205.171V128.472C201.131 124.171 197.644 120.684 193.343 120.684H107.892C104.785 120.684 101.805 119.446 99.6133 117.243L86.8678 104.437C85.4064 102.969 83.4201 102.144 81.3484 102.144H36.3846C30.8218 102.144 26.3123 106.653 26.3123 112.216Z" fill="#FF4F9C"/>
<mask id="mask0_302_6" style="mask-type:alpha" maskUnits="userSpaceOnUse" x="26" y="102" width="176" height="114">
<path d="M26.3123 112.213V205.168C26.3123 210.73 30.8218 215.24 36.3846 215.24H191.058C196.621 215.24 201.131 210.73 201.131 205.168V124.696C201.131 122.479 199.333 120.681 197.116 120.681H104.707C103.638 120.681 102.614 120.256 101.861 119.499L85.7619 103.323C85.0084 102.566 83.9842 102.141 82.9161 102.141H36.3846C30.8218 102.141 26.3123 106.65 26.3123 112.213Z" fill="#FF4F9C"/>
</mask>
<g mask="url(#mask0_302_6)">
<path d="M211.884 183.726C175.992 204.345 65.5131 206.636 14.7603 205.204V225.25C14.7603 229.546 206.634 231.455 211.884 231.455C217.135 231.455 256.75 157.951 211.884 183.726Z" fill="#EF247D"/>
</g>
<path d="M42.5762 122.848V155.347" stroke="white" stroke-opacity="0.19" stroke-width="10.0723" stroke-linecap="round"/>
<path d="M99.9324 48.6133H187.126" stroke="white" stroke-width="3.8204" stroke-linecap="round"/>
<path d="M99.9323 59.3076H187.126" stroke="white" stroke-width="3.8204" stroke-linecap="round"/>
<path d="M99.9323 91.5342H187.126" stroke="white" stroke-width="3.8204" stroke-linecap="round"/>
<path d="M99.9323 70.3662H148.002M187.126 70.3662H160.15" stroke="white" stroke-width="3.8204" stroke-linecap="round"/>
<path d="M99.9323 80.9131H122.016M187.126 80.9131H135.226" stroke="white" stroke-width="3.8204" stroke-linecap="round"/>
<circle cx="248.571" cy="129.103" r="58.7269" fill="#F5F3FF"/>
<circle cx="248.572" cy="129.105" r="56.6491" stroke="#444CAE" stroke-width="9.59335"/>
<circle cx="248.572" cy="129.103" r="49.4449" stroke="#ACB4FF" stroke-width="5.18945"/>
<rect x="86.1976" y="7.04395" width="45.7691" height="48.1296" rx="3.45963" fill="#FE2257"/>
<path d="M87.783 17.0117H120.379" stroke="white" stroke-opacity="0.76" stroke-width="1.72982" stroke-linecap="round"/>
<path d="M91.8685 8.4993V5.67167C91.8685 3.44484 93.6737 1.63965 95.9006 1.63965V1.63965C98.1274 1.63965 99.9326 3.44485 99.9326 5.67167V21.8852C99.9326 24.112 98.1274 25.9172 95.9006 25.9172V25.9172C93.6737 25.9172 91.8685 24.112 91.8685 21.8852V14.9554" stroke="#30389C" stroke-width="1.72982" stroke-linecap="round"/>
<path d="M248.572 87.2451V95.8824" stroke="#444CAE" stroke-width="3.45963" stroke-linecap="round"/>
<path d="M248.572 162.755V171.392" stroke="#444CAE" stroke-width="3.45963" stroke-linecap="round"/>
<path d="M283.452 129.104L292.09 129.104" stroke="#444CAE" stroke-width="3.45963" stroke-linecap="round"/>
<path d="M276.579 104.439L279.959 101.34" stroke="#444CAE" stroke-width="3.45963" stroke-linecap="round"/>
<path d="M221.171 103.76L217.869 100.43" stroke="#444CAE" stroke-width="3.45963" stroke-linecap="round"/>
<path d="M276.905 159.344L273.534 156.546" stroke="#444CAE" stroke-width="3.45963" stroke-linecap="round"/>
<path d="M219.037 157.941L222.102 155.195" stroke="#444CAE" stroke-width="3.45963" stroke-linecap="round"/>
<path d="M205.606 129.104L214.243 129.104" stroke="#444CAE" stroke-width="3.45963" stroke-linecap="round"/>
<path d="M248.571 104.579V131.906L259.414 111.948" stroke="#444CAE" stroke-width="3.45963" stroke-linecap="round"/>
<circle cx="248.847" cy="129.317" r="5.37399" fill="#ACB4FF"/>
<path d="M357.859 145.925L313.501 189.446C312.863 190.072 311.853 190.108 311.171 189.53L284.056 166.522" stroke="#FFD35A" stroke-width="19.2148" stroke-linecap="round"/>
<path d="M273.755 164.236C274.319 161.461 277.296 156.784 283.056 156.228C286.227 155.922 289.133 157.696 291.618 159.692L304.117 169.732" stroke="white" stroke-width="1.72982" stroke-linecap="round"/>
</svg>
