<svg width="76" height="57" viewBox="0 0 76 57" fill="none" xmlns="http://www.w3.org/2000/svg">
<path d="M75.9871 14.2619C75.9715 13.7896 75.9393 13.3173 75.9081 12.8604C75.8925 12.6875 75.876 12.5137 75.8604 12.3408C75.8448 12.1679 75.8283 11.9631 75.7971 11.7738C75.686 10.9711 75.5594 10.183 75.385 9.38031C75.3372 9.17555 75.3051 8.95531 75.2418 8.75054L75.083 8.08892C75.0353 7.89962 74.9719 7.69486 74.9086 7.50647C74.8453 7.31718 74.782 7.11241 74.7186 6.92403C74.48 6.21508 74.2111 5.50613 73.9256 4.79719C73.7668 4.40404 73.6237 4.00997 73.4649 3.63229C73.3226 3.27008 73.1638 2.90788 72.9894 2.56114C72.815 2.19893 72.6085 1.8531 72.3708 1.52184C72.1964 1.26975 72.0055 1.04951 71.8311 0.797418C71.8311 0.781947 71.8155 0.781947 71.8155 0.766476C71.5622 0.135796 70.8481 -0.162708 70.2139 0.0893818C69.9276 0.199501 69.6898 0.419738 69.5476 0.702771C69.42 0.971242 69.3888 1.28613 69.4842 1.56916C69.5632 1.80578 69.6898 2.04149 69.833 2.24625C70.0386 2.5302 70.2607 2.79776 70.4672 3.08079C70.5939 3.28556 70.705 3.49032 70.816 3.71056C71.1336 4.38856 71.3869 5.0966 71.6567 5.79008C71.9422 6.52996 72.2276 7.28623 72.4819 8.0416C72.5452 8.24636 72.6085 8.45113 72.6719 8.65589C72.7352 8.89251 72.7994 9.12822 72.8463 9.36484C72.9417 9.78984 73.0216 10.2148 73.1005 10.6399C73.1482 10.8765 73.1959 11.1122 73.2271 11.3488C73.2593 11.5854 73.307 11.8366 73.3382 12.0887C73.3703 12.3408 73.4015 12.6083 73.4181 12.8759C73.4337 13.1125 73.4493 13.3491 73.4649 13.5848C73.4814 13.9161 73.497 14.231 73.497 14.5614C73.497 14.939 73.497 15.3331 73.497 15.7108C73.497 16.3879 73.4493 17.065 73.4015 17.7421C73.3382 18.4829 73.2749 19.2227 73.1959 19.9626C73.1482 20.3722 73.0849 20.7817 73.0216 21.1912C72.9738 21.5534 72.894 21.9157 72.8307 22.2933C72.8307 22.2624 72.8463 22.2305 72.8463 22.1987C72.7673 22.5609 72.6884 22.9395 72.6085 23.3017C72.4975 23.7422 72.3864 24.1672 72.2754 24.5931C72.1643 25.0181 72.0377 25.4431 71.8945 25.8681C71.7834 26.2303 71.6567 26.577 71.5457 26.9238L71.2602 27.7265C71.1492 28.0259 71.0381 28.3089 70.9271 28.6083C70.7215 29.1444 70.4828 29.695 70.2607 30.2301C70.0386 30.7343 69.833 31.2539 69.5953 31.7581C69.4677 32.0256 69.3567 32.2932 69.2144 32.5608C69.0712 32.8292 68.9446 33.0813 68.8179 33.3489C68.7225 33.5063 68.6435 33.6638 68.5481 33.8212C68.4682 33.9632 68.4049 34.0888 68.326 34.2308C68.136 34.5456 67.9607 34.8605 67.7707 35.1599C67.5807 35.4584 67.4063 35.7579 67.2154 36.0418L66.6601 36.86L66.3746 37.254C66.2801 37.396 66.1847 37.538 66.0736 37.6635L65.756 38.0885C65.645 38.2305 65.5504 38.3725 65.4394 38.5136L65.0741 38.9076C64.963 39.0496 64.852 39.1906 64.7409 39.3171L64.1223 39.9942L63.4881 40.6395C63.3926 40.7505 63.2816 40.8442 63.1705 40.9553C63.0594 40.8761 62.9328 40.7969 62.8061 40.7187C62.6317 40.6085 62.4564 40.4984 62.2664 40.4038C62.0765 40.3091 61.8699 40.199 61.6634 40.1044C61.4578 40.0097 61.299 39.9314 61.1081 39.8686L60.506 39.6475C60.093 39.4901 59.6653 39.3799 59.2367 39.2698C59.0311 39.207 58.8246 39.1752 58.6025 39.1278C58.3804 39.0805 58.206 39.0332 58.0151 39.0177L57.2854 38.9231C57.111 38.8921 56.921 38.8921 56.7466 38.8758C56.5401 38.8603 56.3345 38.8448 56.128 38.8448C55.9215 38.8448 55.715 38.8284 55.4938 38.8284L54.8109 38.8448C54.6209 38.8448 54.4309 38.8603 54.24 38.8758C54.05 38.8921 53.8435 38.8921 53.6535 38.9231L52.9395 39.0023C52.733 39.0332 52.5274 39.0651 52.3208 39.1124C52.1143 39.1597 51.9399 39.1752 51.75 39.2225C51.56 39.2698 51.3535 39.3017 51.1791 39.3645L50.5917 39.5374C50.4494 39.5847 50.3062 39.632 50.1639 39.6794C50.0841 39.7112 50.0052 39.7267 49.9418 39.7576C49.7674 39.8368 49.5931 39.8996 49.4021 39.9788C49.0213 40.1517 48.6413 40.3246 48.276 40.5294C47.9905 40.6868 47.7207 40.8442 47.4508 41.0181C46.991 41.3011 46.5633 41.6478 46.1824 42.0101C45.9603 42.2148 45.7538 42.4351 45.5638 42.6717C45.405 42.8601 45.2618 43.0648 45.1352 43.2696C44.9929 43.4898 44.8818 43.7264 44.7864 43.9785C44.6909 44.2306 44.6276 44.4827 44.5643 44.7339C44.5009 45.0652 44.4688 45.3955 44.5009 45.7268C44.5165 45.8678 44.5322 45.9943 44.5643 46.1363C44.5964 46.2619 44.6276 46.4039 44.6909 46.5295C44.7387 46.656 44.802 46.7661 44.8653 46.8917C44.9296 47.0018 45.0085 47.1119 45.0874 47.2229C45.2618 47.4432 45.4527 47.6316 45.6583 47.789C45.897 47.9628 46.1668 48.1048 46.4357 48.2304C46.6744 48.3405 46.9121 48.4352 47.1654 48.498C47.6574 48.6554 48.1649 48.75 48.6881 48.8128C49.1644 48.8602 49.6399 48.892 50.1318 48.8756C50.3695 48.8756 50.5917 48.8756 50.8138 48.8602L51.5278 48.8128C51.7022 48.7974 51.8766 48.7819 52.0354 48.7655C52.1942 48.75 52.3686 48.7346 52.543 48.7182C52.9395 48.6554 53.3204 48.6081 53.7169 48.5453L54.3988 48.4197C54.6209 48.3724 54.843 48.325 55.0652 48.2622C55.2239 48.2304 55.3983 48.1831 55.5571 48.1357L56.2868 47.9155C56.6989 47.789 57.111 47.6316 57.524 47.4741C57.6663 47.4113 57.8251 47.3485 57.9682 47.2857L58.5869 47.0182C58.7925 46.9235 58.999 46.8134 59.2055 46.7188C59.3633 46.6396 59.5387 46.5613 59.6809 46.4821L60.3317 46.1199C60.4583 46.0571 60.5694 45.9943 60.6804 45.9152C61.0448 45.6795 61.4101 45.4747 61.7589 45.2226C62.1077 44.9705 62.4252 44.7658 62.7428 44.5137L63.0751 44.2461L63.1228 44.3253C63.1861 44.419 63.2338 44.53 63.2972 44.6238C63.3614 44.7184 63.377 44.7976 63.4082 44.8759C63.4403 44.955 63.4403 45.0024 63.4559 45.0806C63.4725 45.1598 63.4725 45.2071 63.4881 45.2699C63.5037 45.3327 63.4881 45.4428 63.4881 45.522C63.4881 45.6003 63.4725 45.7104 63.4559 45.7896C63.4403 45.8678 63.3926 46.0098 63.3614 46.1199C63.3293 46.2301 63.266 46.3411 63.2182 46.4512C63.1705 46.5613 63.0916 46.6714 63.0117 46.7816C62.8851 46.9545 62.7584 47.1119 62.6152 47.2694C62.3619 47.5215 62.1077 47.7735 61.8378 47.9938C61.7268 48.0884 61.6001 48.1831 61.489 48.2622C61.378 48.3405 61.2513 48.4506 61.1403 48.5298L60.5373 48.923L60.1407 49.1441C60.0141 49.2069 59.903 49.2852 59.7764 49.3489L58.999 49.7266L58.2216 50.0733C58.0151 50.167 57.7929 50.2462 57.5873 50.3245C57.3808 50.4036 57.1908 50.4819 56.9843 50.5611L56.2235 50.8287C55.8903 50.9233 55.5571 51.0489 55.2074 51.1281C54.8274 51.2227 54.4621 51.3483 54.0812 51.443C53.7013 51.5376 53.3048 51.6477 52.9083 51.7269L51.75 51.9781C51.3213 52.0573 50.9092 52.1355 50.4806 52.1992C49.973 52.2775 49.4499 52.3567 48.9423 52.4349C48.5458 52.4977 48.1649 52.5614 47.784 52.6088C47.3563 52.6716 46.9277 52.7343 46.4991 52.7817L45.1508 52.9391C44.7387 52.9864 44.3266 53.0174 43.9135 53.0492C43.1527 53.112 42.3753 53.1748 41.6144 53.2221C40.8526 53.2695 40.1229 53.3332 39.3611 53.3796L38.0771 53.4433C37.6163 53.4588 37.1721 53.4588 36.7122 53.4742C36.4112 53.4742 36.1102 53.4742 35.8238 53.4742H35.3961C34.9831 53.4742 34.5866 53.4742 34.1901 53.4742C32.6362 53.4588 31.0814 53.4588 29.5266 53.3796C28.7336 53.3486 27.9406 53.3013 27.1476 53.254C26.3546 53.2067 25.545 53.1439 24.7364 53.0966C24.0067 53.0492 23.2771 52.9864 22.5474 52.9236C21.7388 52.8599 20.9137 52.7817 20.1051 52.7025C19.692 52.6552 19.2799 52.6242 18.8678 52.5614C18.4548 52.4977 18.0271 52.4504 17.6141 52.3876C16.8055 52.262 15.9969 52.1355 15.1873 51.9945C13.6647 51.7424 12.142 51.4584 10.6193 51.1909C9.03329 50.9078 7.44636 50.6557 5.86035 50.3718L5.13068 50.2462C5.7493 49.9786 6.38352 49.7111 7.01865 49.459C7.43076 49.2852 7.82726 49.1123 8.23937 48.9393C8.58906 48.7974 8.92223 48.6554 9.27101 48.5298L9.31873 48.5134C9.63538 48.4352 9.88962 48.2304 10.064 47.9628C10.2384 47.6789 10.2861 47.3485 10.2063 47.0336C10.1273 46.7188 9.92083 46.4512 9.65191 46.2938C9.36646 46.1199 9.03329 46.0726 8.71572 46.1518C8.0815 46.3566 7.46288 46.5923 6.85987 46.8762C6.20913 47.1592 5.55931 47.4277 4.90857 47.6953C4.52767 47.8527 4.16329 48.0102 3.78239 48.1831C3.62361 48.2459 3.46482 48.325 3.32256 48.4033C3.17938 48.4825 3.00499 48.5453 2.84621 48.6399C2.25971 48.9548 1.68882 49.2852 1.10141 49.5691C0.974752 49.6164 0.863695 49.6792 0.752638 49.742C0.562647 49.8367 0.403863 49.9786 0.277202 50.1361C-0.0403663 50.5138 -0.0880935 51.0489 0.149624 51.4903C0.229475 51.6159 0.32493 51.7269 0.435987 51.8206C0.45159 51.837 0.467193 51.868 0.499317 51.8843L0.530523 51.9153C0.593853 51.9781 0.658101 52.0573 0.737035 52.12L1.02248 52.404C1.60897 52.9864 2.18078 53.5844 2.75167 54.1987C3.32256 54.813 3.90905 55.3954 4.52767 55.9469C4.62312 56.0261 4.70297 56.1043 4.79751 56.1835C5.01962 56.3564 5.28946 56.4511 5.55931 56.4511C5.60703 56.4511 5.65384 56.4511 5.70157 56.4347C6.36791 56.3564 6.85987 55.7421 6.76442 55.0805C6.71669 54.7656 6.55882 54.4826 6.32019 54.2778L6.1458 54.1204C5.97141 53.9629 5.79702 53.8055 5.63824 53.6317C5.30507 53.3013 4.9719 52.971 4.65525 52.6242C5.19401 52.7189 5.71809 52.8126 6.25686 52.9073C7.00213 53.0492 7.74833 53.1593 8.49361 53.2859C9.31873 53.4269 10.1273 53.5689 10.9525 53.7109C12.4907 53.9784 14.0299 54.2614 15.5682 54.5135C16.3934 54.6555 17.2341 54.7811 18.0583 54.8921C18.8201 54.9859 19.581 55.0805 20.3428 55.1433C22.0086 55.3017 23.6736 55.4272 25.3394 55.5528C26.8777 55.6639 28.4169 55.7576 29.9552 55.8049C31.6211 55.8677 33.3025 55.8677 34.9675 55.8841C35.2373 55.8841 35.5227 55.8841 35.7926 55.8841C37.0775 55.8841 38.346 55.8523 39.6309 55.774C41.2335 55.6793 42.8516 55.5692 44.4532 55.4272C44.8341 55.3954 45.2306 55.3645 45.6115 55.3171C46.0236 55.2698 46.4357 55.238 46.8488 55.1752C47.7207 55.0496 48.5935 54.9394 49.4655 54.7975C50.2429 54.671 51.0203 54.5454 51.7977 54.4034C52.5907 54.2614 53.3993 54.0885 54.1767 53.8992C54.5732 53.8055 54.9697 53.6954 55.3662 53.5844C55.7627 53.4742 56.1592 53.3641 56.5557 53.2385C56.9843 53.112 57.413 52.9546 57.8407 52.8126C58.2216 52.687 58.6025 52.5296 58.9668 52.3721C59.3165 52.2302 59.6332 52.0727 59.982 51.9308C60.2206 51.8206 60.4427 51.7105 60.6804 51.5849C60.8071 51.5221 60.9503 51.4584 61.0769 51.3802L61.7433 51.0025C61.9177 50.9078 62.0921 50.7813 62.2508 50.6712C62.4096 50.5611 62.5519 50.4819 62.6951 50.3718L63.2504 49.9468C63.3614 49.8685 63.4725 49.7739 63.5835 49.6792C63.6946 49.5846 63.7891 49.5063 63.8846 49.4117C64.0746 49.2378 64.249 49.0649 64.4077 48.892C64.773 48.498 65.0897 48.073 65.3595 47.6006C65.8992 46.6396 66.0892 45.522 65.8827 44.4509C65.7716 43.9467 65.566 43.4589 65.2962 43.0175C65.2007 42.8601 65.0897 42.7026 64.9786 42.5452C65.2173 42.3095 65.4394 42.0883 65.6771 41.8526C65.9937 41.5377 66.2801 41.2065 66.5812 40.8761C66.851 40.5931 67.0887 40.2773 67.342 39.9788C67.4696 39.8368 67.5641 39.6794 67.6752 39.5374C67.7863 39.3954 67.8973 39.2544 68.0084 39.1124C68.4847 38.4508 68.9767 37.7891 69.4044 37.0966C69.833 36.404 70.2773 35.7105 70.6572 34.9861C70.7848 34.7659 70.9115 34.5456 71.0225 34.309L71.2924 33.7739C71.4824 33.4117 71.6411 33.034 71.8155 32.6718C72.1487 31.9629 72.4498 31.2384 72.7517 30.5295C72.894 30.1991 73.0216 29.8688 73.1638 29.5375C73.307 29.1753 73.4493 28.8286 73.5759 28.4664C73.7347 28.0413 73.8779 27.6318 74.0202 27.2068C74.1633 26.7818 74.29 26.4041 74.4011 25.9946C74.5121 25.5851 74.6388 25.1755 74.7498 24.766C74.8453 24.4038 74.9242 24.0416 75.0197 23.6794C75.0674 23.4746 75.0995 23.2698 75.1463 23.0805C75.1941 22.8922 75.2262 22.7029 75.2739 22.5145C75.3372 22.1204 75.4162 21.7264 75.4795 21.3332C75.5428 20.9082 75.6071 20.4987 75.6539 20.0728C75.7016 19.6478 75.7337 19.2546 75.7815 18.8451C75.8127 18.4665 75.8448 18.0733 75.876 17.6947C75.9081 17.3171 75.9237 16.9239 75.9393 16.5453C75.9871 15.8373 76.0192 15.0492 75.9871 14.2619ZM47.0231 45.5056L47.0387 45.5693C47.0387 45.553 47.0387 45.5375 47.0231 45.5056ZM47.0543 45.5848V45.6167V45.5848ZM47.0709 45.6321C47.0709 45.6476 47.0709 45.6631 47.0865 45.6949C47.0709 45.6631 47.0709 45.6476 47.0709 45.6321ZM47.1654 45.7896L47.2287 45.8678L47.1654 45.7896ZM61.1724 42.719L60.2995 43.3488L59.6653 43.7419C59.4588 43.8684 59.2523 43.9785 59.0467 44.0887C58.8402 44.1988 58.6181 44.3253 58.4116 44.4354L57.7296 44.7658L57.2854 44.955C57.1275 45.0178 56.9687 45.0961 56.7943 45.1598L55.8426 45.522L55.4461 45.6476C55.3029 45.6949 55.1441 45.7423 55.0018 45.7896L54.05 46.0253L53.7169 46.089C53.5581 46.1199 53.3993 46.1518 53.2405 46.1827L52.3208 46.3092C52.0198 46.3566 51.7344 46.372 51.4324 46.4039C51.1947 46.4194 50.957 46.4348 50.7192 46.4512L49.9418 46.4667C49.8308 46.4667 49.7197 46.4512 49.6087 46.4512L49.2911 46.4348C49.0378 46.4039 48.7835 46.372 48.5302 46.3247C48.2916 46.2774 48.0539 46.2146 47.8317 46.1363C47.7051 46.089 47.594 46.0417 47.483 45.9943L47.3242 45.9152L47.1975 45.8205L47.1498 45.7741C47.1342 45.7577 47.1342 45.7423 47.1177 45.7268L47.0865 45.6795L47.0709 45.6631L47.0543 45.6003V45.553C47.0543 45.522 47.0543 45.4747 47.0543 45.4428C47.0709 45.3646 47.0709 45.2854 47.0865 45.2071C47.1021 45.128 47.1177 45.0652 47.1498 44.986C47.1819 44.9077 47.2287 44.7976 47.2765 44.7184C47.3242 44.6402 47.3875 44.5137 47.4508 44.419C47.5619 44.278 47.673 44.136 47.784 44.0104C47.9428 43.8366 48.1172 43.6791 48.2916 43.5217C48.4981 43.3488 48.7202 43.1913 48.9423 43.0494C49.1644 42.9074 49.4343 42.7654 49.6876 42.6244C49.8464 42.5297 50.0208 42.4669 50.1796 42.3877C50.3861 42.2931 50.5761 42.2148 50.7826 42.1202C50.9882 42.0255 51.1625 41.9782 51.3691 41.8999L51.671 41.8208C51.7656 41.7898 51.8766 41.758 51.9721 41.7261L52.6696 41.5687L53.2405 41.4749C53.4158 41.4431 53.5737 41.4276 53.7481 41.4112C53.9234 41.3958 54.1134 41.3639 54.2878 41.3484L54.8274 41.3175L55.2239 41.3011C55.3506 41.3011 55.4617 41.2856 55.5883 41.3011L56.3501 41.3175L56.9054 41.3639C57.0633 41.3803 57.2386 41.3958 57.3964 41.4276C57.5552 41.4585 57.7296 41.4749 57.8884 41.5059L58.3804 41.6005L58.7135 41.6952C58.8402 41.7261 58.9512 41.758 59.0779 41.7898L59.713 41.9946C59.8874 42.0574 60.0618 42.1202 60.2206 42.183L60.8227 42.4351L60.998 42.5142C61.0769 42.5616 61.1724 42.5925 61.2513 42.6398L61.2834 42.6717C61.2669 42.6553 61.2192 42.6871 61.1724 42.719ZM0.64158 51.9945L0.658101 52.0099L0.64158 51.9945Z" fill="#EAF9FF" fill-opacity="0.32"/>
</svg>
