<svg width="625" height="433" viewBox="0 0 625 433" fill="none" xmlns="http://www.w3.org/2000/svg">
<ellipse cx="547.224" cy="102.466" rx="18.991" ry="17.444" fill="#FFD35A"/>
<ellipse cx="39.3921" cy="403.326" rx="38.9963" ry="3.19763" fill="#C7CBF6"/>
<path d="M174.489 374.892C270.824 404.318 323.434 244.6 325.139 240.557C305.144 227.755 205.601 226.112 167.146 169.408C119.076 98.5278 33.0143 136.025 39.0021 202.243C44.9898 268.462 144.843 250.476 169.547 263.876C184.158 271.801 170.857 286.143 156.051 300.502C146.336 309.923 140.902 323.223 144.195 336.349C148.387 353.057 157.137 369.592 174.489 374.892Z" fill="#FFD35A"/>
<path d="M94.3475 78.6999C98.9771 110.315 120.402 136.595 130.536 145.783L128.53 158.326C112.198 153.192 76.4362 134.86 64.0384 102.608C48.5412 62.2932 88.5605 39.1814 94.3475 78.6999Z" fill="#AECEF4"/>
<path d="M68.7778 128.997C84.9304 143.804 110.784 150.069 121.691 151.351L121.114 154.963C95.7417 160.165 80.9151 157.331 58.4494 147.255C35.9838 137.18 48.5871 110.488 68.7778 128.997Z" fill="#87BDFC"/>
<path d="M67.2465 140.247C73.943 144.773 91.1525 153.637 106.418 152.875" stroke="white" stroke-width="3.60766" stroke-linecap="round"/>
<path d="M81.4836 92.4621C82.4016 100.601 87.2734 120.783 110.503 134.828" stroke="white" stroke-width="3.60766" stroke-linecap="round"/>
<path d="M518.951 55.7011C520.992 39.8616 518.995 22.7982 505.972 12.2123C469.95 -17.0701 439.333 15.5951 404.433 37.7299C395.361 43.9796 376.676 52.399 356.552 36.4178C334.251 18.7084 276.275 2.26036 262.539 66.3707C252.921 111.259 372.286 174.183 439.149 195.058C456.038 274.365 544.891 272.162 563.249 211.948C581.607 151.733 487.614 131.907 470.725 111.346C460.928 99.4195 476.878 91.6517 494.576 84.4566C507.111 79.3603 517.222 69.1221 518.951 55.7011Z" fill="#FFD35A"/>
<circle cx="472.98" cy="20.6347" r="9.77048" fill="white" fill-opacity="0.34"/>
<ellipse cx="307.164" cy="398.682" rx="221.541" ry="18.687" fill="#C7CBF6"/>
<path d="M577.144 141.897C576.712 155.444 568.701 157.22 565.615 158.249C573.707 158.677 577.127 170.183 577.144 174.76C577.144 165.227 583.998 158.46 588.273 158.249C581.167 157.073 576.963 147.767 577.144 141.897Z" fill="#FE2257"/>
<path d="M73.8114 363.959C75.9444 382.152 100.671 378.413 112.092 373.081L119.547 341.694L114.402 327.329L83.5279 332.368C79.582 336.867 72.1144 349.485 73.8114 363.959Z" fill="#11243E"/>
<rect x="103.342" y="63.25" width="413.483" height="335.43" rx="10.823" fill="#444CAE"/>
<rect x="111.868" y="94.2769" width="395.02" height="295.076" fill="#D3EDFD"/>
<path d="M133.808 333.389L132.343 326.513L100.441 323.808C95.8938 335.494 89.5285 356.138 100.441 345.226C111.353 334.314 127.232 332.788 133.808 333.389Z" fill="#11243E" fill-opacity="0.16"/>
<path d="M116.998 85.2191L127.119 74.2232" stroke="white" stroke-width="3.00638" stroke-linecap="round"/>
<path d="M117.048 74.1805L127.071 85.2659" stroke="white" stroke-width="3.00638" stroke-linecap="round"/>
<circle cx="143.699" cy="79.7232" r="5.75113" stroke="white" stroke-width="2.40511"/>
<path d="M505.661 73.3501H488.881" stroke="white" stroke-width="3.00638" stroke-linecap="round"/>
<path d="M505.661 79.1865H488.881" stroke="white" stroke-width="3.00638" stroke-linecap="round"/>
<path d="M505.661 85.0225H488.881" stroke="white" stroke-width="3.00638" stroke-linecap="round"/>
<rect x="211.487" y="73.3501" width="193.54" height="11.9151" rx="5.95757" fill="#F1F1FB"/>
<rect x="247.871" y="116.431" width="241.01" height="258.334" fill="white"/>
<path d="M439.652 159.596H465.365" stroke="#505ACC" stroke-width="7.21532" stroke-linecap="round"/>
<path d="M439.652 179.628H461.998" stroke="#FFD35A" stroke-width="7.21532" stroke-linecap="round"/>
<path d="M445.389 199.384H461.998" stroke="#C1C7FF" stroke-width="7.21532" stroke-linecap="round"/>
<path d="M432.369 219.139H441.534" stroke="#C1C7FF" stroke-width="7.21532" stroke-linecap="round"/>
<path d="M452.833 219.139H464.871" stroke="#505ACC" stroke-width="7.21532" stroke-linecap="round"/>
<path d="M431.47 238.897H464.443" stroke="#505ACC" stroke-width="7.21532" stroke-linecap="round"/>
<path d="M441.534 258.653H464.134" stroke="#C1C7FF" stroke-width="7.21532" stroke-linecap="round"/>
<path d="M441.844 278.408H464.444" stroke="#FFD35A" stroke-width="7.21532" stroke-linecap="round"/>
<path d="M441.844 298.164H464.444" stroke="#FF4E9C" stroke-width="7.21532" stroke-linecap="round"/>
<path d="M441.844 317.92H464.444" stroke="#C1C7FF" stroke-width="7.21532" stroke-linecap="round"/>
<path d="M441.844 337.675H464.444" stroke="#C1C7FF" stroke-width="7.21532" stroke-linecap="round"/>
<path d="M441.844 357.431H464.444" stroke="#C1C7FF" stroke-width="7.21532" stroke-linecap="round"/>
<circle cx="477.977" cy="159.875" r="4.38157" fill="#ACB4FF"/>
<circle cx="477.977" cy="179.631" r="4.38157" fill="#DFE2FB"/>
<circle cx="477.977" cy="199.386" r="4.38157" fill="#DFE2FB"/>
<circle cx="477.977" cy="219.142" r="4.38157" fill="#DFE2FB"/>
<circle cx="477.977" cy="238.897" r="4.38157" fill="#DFE2FB"/>
<circle cx="477.977" cy="258.653" r="4.38157" fill="#DFE2FB"/>
<circle cx="477.977" cy="278.408" r="4.38157" fill="#DFE2FB"/>
<circle cx="477.977" cy="298.164" r="4.38157" fill="#DFE2FB"/>
<circle cx="477.977" cy="317.92" r="4.38157" fill="#DFE2FB"/>
<circle cx="477.977" cy="337.676" r="4.38157" fill="#DFE2FB"/>
<circle cx="477.977" cy="357.43" r="4.38157" fill="#DFE2FB"/>
<path d="M273.72 159.873H356.663" stroke="#ACB4FF" stroke-opacity="0.84" stroke-width="7.21532" stroke-linecap="round"/>
<path d="M273.72 179.628H365.11" stroke="#ACB4FF" stroke-opacity="0.84" stroke-width="7.21532" stroke-linecap="round"/>
<path d="M273.803 199.384H369.464" stroke="#ACB4FF" stroke-opacity="0.84" stroke-width="7.21532" stroke-linecap="round"/>
<path d="M273.803 219.139H355.981" stroke="#ACB4FF" stroke-opacity="0.84" stroke-width="7.21532" stroke-linecap="round"/>
<path d="M273.803 238.897H349.954" stroke="#ACB4FF" stroke-opacity="0.84" stroke-width="7.21532" stroke-linecap="round"/>
<path d="M273.803 258.653H349.954" stroke="#ACB4FF" stroke-opacity="0.84" stroke-width="7.21532" stroke-linecap="round"/>
<path d="M273.803 278.408H382.463" stroke="#ACB4FF" stroke-opacity="0.84" stroke-width="7.21532" stroke-linecap="round"/>
<path d="M273.803 298.162H400.43" stroke="#ACB4FF" stroke-opacity="0.84" stroke-width="7.21532" stroke-linecap="round"/>
<path d="M273.72 317.92H400.347" stroke="#ACB4FF" stroke-opacity="0.84" stroke-width="7.21532" stroke-linecap="round"/>
<path d="M273.72 337.675H400.347" stroke="#ACB4FF" stroke-opacity="0.84" stroke-width="7.21532" stroke-linecap="round"/>
<path d="M273.72 357.431H400.347" stroke="#ACB4FF" stroke-opacity="0.84" stroke-width="7.21532" stroke-linecap="round"/>
<path d="M369.464 159.596H387.122" stroke="#E0E2FB" stroke-width="7.21532" stroke-linecap="round"/>
<path d="M378.293 179.628H395.951" stroke="#E0E2FB" stroke-width="7.21532" stroke-linecap="round"/>
<path d="M382.938 199.384H400.596" stroke="#E0E2FB" stroke-width="7.21532" stroke-linecap="round"/>
<path d="M369.464 219.139H387.122" stroke="#E0E2FB" stroke-width="7.21532" stroke-linecap="round"/>
<path d="M363.881 238.897H381.539" stroke="#E0E2FB" stroke-width="7.21532" stroke-linecap="round"/>
<path d="M363.317 258.652H380.975" stroke="#E0E2FB" stroke-width="7.21532" stroke-linecap="round"/>
<path d="M396.049 278.408H413.706" stroke="#E0E2FB" stroke-width="7.21532" stroke-linecap="round"/>
<circle cx="261.109" cy="159.875" r="4.38157" fill="#ACB4FF" fill-opacity="0.92"/>
<circle cx="261.108" cy="179.63" r="4.38157" fill="#ACB4FF" fill-opacity="0.92"/>
<circle cx="261.108" cy="199.386" r="4.38157" fill="#ACB4FF" fill-opacity="0.92"/>
<circle cx="261.108" cy="219.142" r="4.38157" fill="#ACB4FF" fill-opacity="0.92"/>
<circle cx="261.108" cy="238.897" r="4.38157" fill="#ACB4FF" fill-opacity="0.92"/>
<circle cx="261.108" cy="258.653" r="4.38157" fill="#ACB4FF" fill-opacity="0.92"/>
<circle cx="261.108" cy="278.408" r="4.38157" fill="#ACB4FF" fill-opacity="0.92"/>
<circle cx="261.108" cy="298.164" r="4.38157" fill="#ACB4FF" fill-opacity="0.92"/>
<circle cx="261.108" cy="317.92" r="4.38157" fill="#ACB4FF" fill-opacity="0.92"/>
<circle cx="261.108" cy="337.676" r="4.38157" fill="#ACB4FF" fill-opacity="0.92"/>
<circle cx="261.108" cy="357.43" r="4.38157" fill="#ACB4FF" fill-opacity="0.92"/>
<circle cx="150.653" cy="128.281" r="19.4279" fill="#43EA8E"/>
<path fill-rule="evenodd" clip-rule="evenodd" d="M135.906 137.589C136.962 131.928 141.198 127.386 146.689 125.885C147.472 127.264 148.954 128.195 150.654 128.195C152.353 128.195 153.835 127.264 154.618 125.885C160.11 127.387 164.345 131.929 165.4 137.591C162.494 142.73 156.979 146.2 150.654 146.2C144.327 146.2 138.812 142.729 135.906 137.589Z" fill="#505ACC"/>
<circle cx="150.654" cy="123.697" r="3.6716" fill="#FDDEBF"/>
<path d="M126.793 158.247H181.264" stroke="#505ACC" stroke-width="7.21532" stroke-linecap="round"/>
<path d="M126.793 173.793H181.264" stroke="#505ACC" stroke-width="7.21532" stroke-linecap="round"/>
<path d="M126.793 190.108H181.264" stroke="#505ACC" stroke-width="7.21532" stroke-linecap="round"/>
<path d="M127.09 206.423H181.561" stroke="#505ACC" stroke-width="7.21532" stroke-linecap="round"/>
<path d="M252.185 138.913H486.841" stroke="#D3EDFD" stroke-width="2.40511" stroke-linecap="round"/>
<path d="M118.817 218.863L137.319 328.175C88.7159 324.872 73.6286 352.893 74.4702 368.464L53.0071 256.098C61.232 226.279 95.2596 218.863 118.817 218.863Z" fill="#43EB8F"/>
<path d="M117.885 227.738C88.5011 228.617 72.5221 239.32 64.5375 250.088C63.6257 251.201 61.173 254.589 58.6567 259.242" stroke="#D3EDFD" stroke-width="2.40511" stroke-linecap="round"/>
<ellipse cx="112.481" cy="222.783" rx="2.55291" ry="1.96586" fill="#D3EDFD"/>
<ellipse cx="104.749" cy="223.692" rx="2.55291" ry="1.96586" transform="rotate(-8.41408 104.749 223.692)" fill="#D3EDFD"/>
<ellipse cx="96.7297" cy="225.377" rx="2.55291" ry="1.96586" transform="rotate(-15.9784 96.7297 225.377)" fill="#D3EDFD"/>
<path d="M198.432 218.863L242.354 430.587" stroke="#505ACC" stroke-width="3.60766" stroke-linecap="round"/>
<path d="M197.95 218.863L154.028 430.587" stroke="#81B6F5" stroke-width="3.60766" stroke-linecap="round"/>
<path d="M230.448 218.863L274.369 430.587" stroke="#505ACC" stroke-width="3.60766" stroke-linecap="round"/>
<path d="M195.743 230.785H227.284" stroke="#81B6F5" stroke-width="3.60766" stroke-linecap="round"/>
<path d="M204.339 247.626H236.038" stroke="#505ACC" stroke-width="3.60766" stroke-linecap="round"/>
<path d="M208.262 266.062H239.96" stroke="#505ACC" stroke-width="3.60766" stroke-linecap="round"/>
<path d="M210.655 281.829H242.354" stroke="#505ACC" stroke-width="3.60766" stroke-linecap="round"/>
<path d="M215.337 298.983H246.298" stroke="#505ACC" stroke-width="3.60766" stroke-linecap="round"/>
<path d="M219.034 315.772H250.179" stroke="#505ACC" stroke-width="3.60766" stroke-linecap="round"/>
<path d="M223.115 332.662H253.152" stroke="#505ACC" stroke-width="3.60766" stroke-linecap="round"/>
<path d="M226.505 350.148H257.312" stroke="#505ACC" stroke-width="3.60766" stroke-linecap="round"/>
<path d="M229.585 366.179H260.7" stroke="#505ACC" stroke-width="3.60766" stroke-linecap="round"/>
<path d="M233.05 384.614H264.473" stroke="#505ACC" stroke-width="3.60766" stroke-linecap="round"/>
<path d="M236.56 400.783H267.709" stroke="#505ACC" stroke-width="3.60766" stroke-linecap="round"/>
<path d="M188.889 264.825H220.189" stroke="#AECEF4" stroke-width="3.60766" stroke-linecap="round"/>
<path d="M185.431 281.829H216.2" stroke="#81B6F5" stroke-width="3.60766" stroke-linecap="round"/>
<path d="M181.844 298.983H213.01" stroke="#81B6F5" stroke-width="3.60766" stroke-linecap="round"/>
<path d="M178.502 315.772H209.383" stroke="#81B6F5" stroke-width="3.60766" stroke-linecap="round"/>
<path d="M174.207 332.662H206.421" stroke="#81B6F5" stroke-width="3.60766" stroke-linecap="round"/>
<path d="M170.751 350.148H201.841" stroke="#81B6F5" stroke-width="3.60766" stroke-linecap="round"/>
<path d="M168.097 366.179H198.432" stroke="#81B6F5" stroke-width="3.60766" stroke-linecap="round"/>
<path d="M163.912 383.692H194.608" stroke="#81B6F5" stroke-width="3.60766" stroke-linecap="round"/>
<path d="M160.94 400.783H192.098" stroke="#81B6F5" stroke-width="3.60766" stroke-linecap="round"/>
<path d="M157.229 417.767H188.279" stroke="#81B6F5" stroke-width="3.60766" stroke-linecap="round"/>
<path d="M192.413 247.626H224.111" stroke="#81B6F5" stroke-width="3.60766" stroke-linecap="round"/>
<path d="M171.187 359.478L170.826 353.789C173.39 352.633 178.813 351.252 178.952 353.205C179.096 355.228 178.932 357.495 178.828 358.22C175.918 359.14 172.517 359.423 171.187 359.478Z" fill="#FDDEBF"/>
<path d="M187.716 359.478L187.355 353.789C189.919 352.633 195.342 351.252 195.481 353.205C195.625 355.228 195.461 357.495 195.357 358.22C192.447 359.14 189.047 359.423 187.716 359.478Z" fill="#FDDEBF"/>
<path d="M178.998 357.067C175.582 359.912 171.204 358.191 171.004 358.309C170.554 359.782 170.513 363.329 170.592 364.381L190.039 364.677C190.555 364.199 190.709 363.395 190.765 362.745C190.886 361.372 186.587 360.888 183.638 359.445C181.5 358.399 180.015 357.531 178.998 357.067Z" fill="#11243E"/>
<path d="M195.59 357.067C192.174 359.912 187.795 358.191 187.595 358.309C187.146 359.782 187.104 363.329 187.184 364.381L206.63 364.677C207.147 364.199 207.3 363.395 207.357 362.745C207.477 361.372 203.179 360.888 200.23 359.445C198.091 358.399 196.607 357.531 195.59 357.067Z" fill="#11243E"/>
<path d="M200.204 322.083C201.024 306.634 198.634 290.142 197.336 283.827L195.571 282.032L168.76 287.273C167.214 292.096 167.727 306.186 168.107 310.911C168.819 319.77 169.14 343.223 168.107 355.145H179.908C181.63 347.479 183.027 329.909 183.51 322.083C184.307 328.885 186.734 346.959 186.402 355.145H198.595C198.79 350.562 199.385 337.531 200.204 322.083Z" fill="#505ACC"/>
<mask id="mask0_242_247" style="mask-type:alpha" maskUnits="userSpaceOnUse" x="167" y="282" width="34" height="74">
<path d="M200.204 322.083C201.023 306.634 198.634 290.142 197.336 283.827L195.571 282.032L168.819 287.279C167.415 297.315 168.107 306.171 168.107 310.911C168.107 318.417 169.14 343.223 168.107 355.145H179.908C181.63 347.479 183.026 329.909 183.509 322.083C184.307 328.885 186.734 346.959 186.401 355.145H198.595C198.79 350.562 199.385 337.531 200.204 322.083Z" fill="#585AFA"/>
</mask>
<g mask="url(#mask0_242_247)">
<path d="M195.999 285.179C191.799 286.366 175.34 291.647 167.636 294.139L166.78 289.802L190.064 280.956C193.793 281.869 200.2 283.992 195.999 285.179Z" fill="#323DB9"/>
</g>
<path d="M180.835 303.784C182.572 304.652 183.341 316.675 183.508 322.578C183.526 323.165 183.012 328.735 182.752 331.447C182.308 327.906 181.302 319.838 180.835 315.896C180.25 310.967 178.663 302.698 180.835 303.784Z" fill="#323DB9"/>
<path d="M160.26 254.168C160.754 255.55 161.581 256.259 161.933 256.441L162.151 254.731V253.004C161.314 252.816 159.765 252.786 160.26 254.168Z" fill="#BA0732"/>
<path d="M147.045 246.552C149.543 245.456 157.652 241.896 161.395 240.253C166.106 242.478 173.614 247.92 165.957 251.882C159.568 255.188 152.073 257.236 148.119 257.875C146.889 258.074 145.656 257.725 144.638 257.005C135.365 250.449 128.844 242.215 125.865 238.094L130.719 233.823L147.045 246.552Z" fill="#FDDEBF"/>
<path d="M128.956 229.892C130.403 231.119 136.958 237.875 138.774 240.652L132.732 246.183C131.916 245.252 129.416 242.695 127.853 240.809C126.199 238.813 124.223 236.871 123.763 235.92C123.396 235.159 123.804 234.638 124.192 234.542C123.32 233.246 124.619 232.378 125.117 232.521C125.17 231.234 126.455 231.141 126.991 231.442C125.243 230.244 123.036 227.386 123.802 226.874C125.009 226.069 127.507 228.664 128.956 229.892Z" fill="#FDDEBF"/>
<mask id="mask1_242_247" style="mask-type:alpha" maskUnits="userSpaceOnUse" x="125" y="233" width="45" height="25">
<path d="M147.045 246.552C149.542 245.456 157.652 241.896 161.395 240.253C166.106 242.478 173.614 247.92 165.957 251.882C159.568 255.188 152.073 257.236 148.119 257.875C146.889 258.074 145.656 257.725 144.638 257.005C135.365 250.449 128.844 242.215 125.865 238.094L130.719 233.823L147.045 246.552Z" fill="#FDDEBF"/>
</mask>
<g mask="url(#mask1_242_247)">
<path d="M145.422 255.043C149.1 255.779 157.812 252.898 161.708 251.366L162.759 259.312L147.721 265.091L125.065 247.492L127.298 240.662C131.807 245.149 141.745 254.308 145.422 255.043Z" fill="#EBB47E" fill-opacity="0.29"/>
</g>
<path d="M129.044 233.518C128.487 232.976 127.687 232.188 126.89 231.384M130.859 231.994C128.681 229.619 125.187 226.674 124.438 226.689C123.688 226.704 123.415 227.42 124.118 228.413C124.458 228.893 125.672 230.157 126.89 231.384M126.89 231.384C125.464 230.927 125.13 231.91 125.141 232.458M127.266 235.021C126.713 234.491 125.164 232.946 125.141 232.458M125.141 232.458C124.512 232.483 123.602 233.421 124.298 234.489M124.298 234.489C124.513 234.82 124.942 235.28 125.425 235.749M124.298 234.489C123.699 234.592 122.853 235.161 124.26 236.611C126.018 238.423 125.744 238.14 126.504 238.928" stroke="#F0C291" stroke-width="0.392862" stroke-linecap="round"/>
<path d="M147.243 246.72C144.876 244.928 135.377 236.099 130.923 231.909V233.902C130.923 234.117 142.31 244.778 148.004 250.082C148.737 249.708 149.609 248.513 147.243 246.72Z" fill="#FDDEBF"/>
<path d="M178.686 231.937C174.997 231.883 173.946 226.251 173.855 221.469C173.805 218.831 174.557 215.737 177.181 215.466H184.088L186.302 229.812C185.77 230.55 183.504 232.008 178.686 231.937Z" fill="#FDDEBF"/>
<path d="M179.126 236.355L178.763 231.273L177.855 225.162L187.174 222.879L188.287 237.499L179.126 236.355Z" fill="#FDDEBF"/>
<path d="M171.367 215.878C171.48 219.605 178.804 218.717 182.066 217.839C183.068 220.713 185.212 226.672 187.086 226.471C188.96 226.27 189.161 222.188 188.291 220.682C187.421 219.176 189.127 215.878 188.291 213.923C187.454 211.968 185.915 213.923 182.937 211.982C179.959 210.042 177.918 211.782 177.081 212.618C176.245 213.455 171.226 211.22 171.367 215.878Z" fill="#10243D"/>
<circle cx="184.39" cy="223.382" r="1.57497" fill="#FDDEBF"/>
<path d="M184.182 230.352C182.654 231.697 180.016 231.97 178.851 231.94L178.927 233.704C181.65 232.542 183.54 230.987 184.182 230.352Z" fill="#EBB47E"/>
<path d="M173.475 290.195L173.959 295.739C173.994 296.135 173.83 296.523 173.522 296.775L171.076 298.771L168.677 298.171" stroke="#323EC6" stroke-width="1.20255" stroke-linecap="round"/>
<path d="M188.753 286.216L189.672 293.075C189.724 293.463 189.584 293.852 189.296 294.118L184.667 298.396L180.078 295.894C179.762 295.721 179.54 295.416 179.472 295.062L177.882 286.678" stroke="#323EC6" stroke-width="1.20255" stroke-linecap="round"/>
<path d="M148.733 247.727C148.11 247.289 146.568 246.172 145.379 245.204" stroke="#F0C291" stroke-width="0.481021" stroke-linecap="round"/>
<circle r="0.354789" transform="matrix(-0.990697 -0.136088 -0.136088 0.990697 175.394 223.214)" fill="#11243E"/>
<path d="M178.318 224.316C177.805 224.319 177.398 224.503 177.089 224.749C176.458 225.251 176.497 226.283 177.254 226.56C177.918 226.803 178.763 226.735 179.243 226.468C180.017 226.038 179.778 224.308 178.318 224.316Z" fill="#FEB7A1"/>
<path d="M176.352 222.092C176.087 221.806 175.553 221.559 174.997 221.603" stroke="#11243E" stroke-width="0.106038" stroke-linecap="round"/>
<path d="M183.864 223.922C183.875 223.62 184.068 222.888 184.753 222.374" stroke="#F0C291" stroke-width="0.360766" stroke-linecap="round"/>
<path d="M184.342 222.917C184.556 222.967 184.875 223.128 185.192 223.444" stroke="#F0C291" stroke-width="0.360766" stroke-linecap="round"/>
<path d="M229.965 218.863L186.044 430.587" stroke="#81B6F5" stroke-width="3.60766" stroke-linecap="round"/>
<path d="M212.318 275.898C206.412 270.547 201.461 263.361 199.723 260.436L207.346 251.235L214.375 262.251L221.672 248.975L227.37 250.843C224.787 261.294 218.225 281.248 212.318 275.898Z" fill="#FDDEBF"/>
<mask id="mask2_242_247" style="mask-type:alpha" maskUnits="userSpaceOnUse" x="199" y="249" width="30" height="28">
<path d="M212.318 275.899C206.412 270.548 201.461 263.361 199.723 260.437L207.346 251.235L214.375 262.252L223.683 249.458L228.359 251.235C225.776 261.686 218.225 281.249 212.318 275.899Z" fill="#FDDEBF"/>
</mask>
<g mask="url(#mask2_242_247)">
<path d="M215.56 273.994C212.994 274.992 206.017 266.122 202.85 261.562L201.422 261.163L200.65 264.133L204.452 271.084L216.095 280.529L227.025 265.262L226.431 260.628C223.877 264.668 218.126 272.996 215.56 273.994Z" fill="#EBB47E" fill-opacity="0.29"/>
</g>
<path d="M222.518 247.234C221.872 248.827 220.154 251.886 219.458 253.054L226.205 255.282C227.139 252.152 227.766 251.149 228.195 249.856C228.732 248.238 232.802 244.878 230.215 243.101L229.551 243.101C229.061 242.538 228.073 241.399 228.038 241.347C228.004 241.295 227.397 241.325 227.099 241.347L226.569 244.124L222.518 247.234Z" fill="#FDDEBF"/>
<path d="M194.234 237.311C182.734 231.728 165.122 237.45 158.69 241.444C159.517 244.294 161.366 250.808 161.928 256.435L167.215 252.986C166.482 272.52 166.075 286.942 166.482 291.827C178.501 288.212 195.135 284.943 199.858 284.577L199.05 260.552L201.594 263.42C203.836 260.196 208.134 256.335 209.817 254.842C207.501 250.54 202.909 241.523 194.234 237.311Z" fill="#FE2257"/>
<path d="M167.494 248.301C166.254 249.807 163.231 250.85 161.175 251.58L161.934 256.447L167.494 253.042V248.301Z" fill="#E7194A"/>
<path d="M198.612 254.981C199.405 257.085 201.844 260.312 202.965 261.662C202.609 262.015 201.915 263.017 201.612 263.473L199.079 260.564C198.878 259.42 198.684 256.366 198.612 254.981Z" fill="#E7194A"/>
<path d="M214.388 262.266C214.646 262.754 215.206 263.8 215.379 264.076" stroke="#F0C291" stroke-width="0.481021" stroke-linecap="round"/>
<path d="M231.065 244.98C231.597 242.509 228.966 239.81 227.659 238.858L227.071 241.355L227.269 249.254C228 248.833 230.534 247.451 231.065 244.98Z" fill="#FDDEBF"/>
<path d="M221.921 243.51C221.552 244.95 221.937 247.617 222.037 248.233L222.719 247.175C222.58 246.264 222.661 245.287 222.719 244.913L223.966 239.049C222.253 238.903 222.29 242.071 221.921 243.51Z" fill="#FDDEBF"/>
<path d="M227.149 241.342C226.905 241.477 224.021 242.98 222.609 243.714C222.519 244.29 222.304 245.537 222.168 245.916C222.033 246.296 222.541 247.949 222.812 248.729C224.168 247.972 226.932 246.411 227.149 246.221C227.42 245.984 227.658 241.647 227.149 241.342Z" fill="#FDDEBF"/>
<path d="M223.57 240.709C223.329 241.744 223.369 243.1 223.419 243.648L222.848 244.371L222.529 243.48L223.15 240.289C223.391 239.998 223.812 239.674 223.57 240.709Z" fill="#FDDEBF"/>
<path d="M48.7971 395.796V394.318L59.4404 393.468C59.5882 394.17 59.8765 395.619 59.8469 395.796C59.8099 396.018 58.3686 396.092 57.6295 396.239C57.0382 396.358 53.4905 397.693 51.7905 398.346L48.7971 395.796Z" fill="#FDDEBF"/>
<path d="M16.6971 395.796V394.318L27.3404 393.468C27.4882 394.17 27.7765 395.619 27.7469 395.796C27.71 396.018 26.2687 396.092 25.5296 396.239C24.9383 396.358 21.3905 397.693 19.6905 398.346L16.6971 395.796Z" fill="#FDDEBF"/>
<path d="M60.2399 393.782C55.864 397.998 49.0675 395.139 48.8083 395.287C48.2004 397.167 48.1089 400.948 48.1885 402.299L71.1538 403.052C71.8263 402.45 71.5849 402.411 71.6714 401.578C71.8216 400.133 68.3105 400.347 65.1391 397.572C63.1671 395.847 61.5352 394.4 60.2399 393.782Z" fill="#11243E"/>
<path d="M16.2248 393.782C20.6007 397.998 27.3972 395.139 27.6564 395.287C28.2643 397.167 28.3558 400.948 28.2762 402.299L5.31085 403.052C4.63842 402.45 4.87983 402.411 4.79328 401.578C4.64311 400.133 8.15415 400.347 11.3256 397.572C13.2976 395.847 14.9295 394.4 16.2248 393.782Z" fill="#11243E"/>
<path d="M65.7858 394.653L64.1135 314.615L32.3974 308.358L29.5927 313.536L31.1029 321.088L12.0184 394.653H29.5927L45.4664 344.848V394.653H65.7858Z" fill="#444CAE"/>
<path d="M47.5206 322.46L46.9345 331.605" stroke="#7179DE" stroke-width="0.962043" stroke-linecap="round"/>
<path d="M38.5106 317.323C38.233 319.249 37.6575 322.943 37.0768 325.943C36.7209 327.781 35.2137 329.148 33.345 329.263C32.2344 329.331 30.9818 329.368 29.7114 329.336" stroke="#7179DE" stroke-width="0.996341" stroke-linecap="round"/>
<path d="M57.6421 315.287C57.932 317.356 58.6078 321.393 59.4263 324.469C59.8588 326.095 61.2935 327.187 62.9655 327.372C63.0633 327.383 63.1621 327.394 63.2616 327.405" stroke="#7179DE" stroke-width="0.996341" stroke-linecap="round"/>
<path d="M12.8013 303.099C11.9793 299.482 17.3907 293.235 20.1992 290.563L28.2137 291.797L30.7824 301.044L25.2099 304.443C30.3473 308.896 39.701 317.956 38.3858 321.902C36.7418 326.834 24.412 327.759 24.1038 325.293C23.8572 323.32 27.563 323.238 29.4467 323.443C18.4526 313.682 13.8288 307.62 12.8013 303.099Z" fill="#FDDEBF"/>
<path d="M48.4016 278.573L47.7653 272.279L40.3774 269.918L40.2277 278.573L38.9395 279.007V280.816L41.6162 283.565L46.7525 284.794L52.4676 284.143L54.4931 281.322L53.7697 279.007C52.6701 278.891 49.6314 278.67 48.4016 278.573Z" fill="#FDDEBF"/>
<path fill-rule="evenodd" clip-rule="evenodd" d="M50.3041 266.735C50.5209 269.836 50.1595 273.349 47.9456 274.112C44.7844 275.202 42.0918 274.839 41.0149 271.981C39.5451 269.473 39.0351 264.939 40.0245 262.804C40.8715 260.976 42.7744 260.176 44.1991 259.893C45.3474 259.202 46.6482 259.265 47.9241 260.495C49.5668 262.078 50.1449 264.459 50.3041 266.735Z" fill="#FDDEBF"/>
<path d="M60.6493 273.864L64.7821 269.608C65.0384 269.344 65.0314 268.922 64.7665 268.667L57.1045 261.284C56.8417 261.031 56.4238 261.037 56.1686 261.298L51.9255 265.638C51.6654 265.904 51.6746 266.332 51.9458 266.586L59.7181 273.886C59.9823 274.134 60.3968 274.125 60.6493 273.864Z" fill="#ACB4FF"/>
<path d="M41.3024 268.781C41.3024 269.405 40.6092 270.659 40.2627 271.208C38.703 269.821 36.7746 266.321 37.1905 263.409C37.7104 259.77 38.963 259.423 41.7358 259.163C44.5085 258.903 45.8016 256.541 48.401 257.061C51.0005 257.581 51.0614 260.772 49.675 262.072C48.2886 263.371 42.7619 261.324 41.3024 263.409C40.0893 265.142 41.3025 268.002 41.3024 268.781Z" fill="#10243D"/>
<path d="M56.3254 262.462L53.0957 265.782C52.8599 266.025 52.8699 266.414 53.1177 266.644L59.3503 272.428L63.3563 268.33L57.1722 262.446C56.9331 262.218 56.5555 262.226 56.3254 262.462Z" fill="white" fill-opacity="0.36"/>
<circle cx="40.9913" cy="268.285" r="1.21861" fill="#FDDEBF"/>
<path d="M90.806 291.64C91.34 298.086 75.9076 297.876 68.2726 296.03L67.235 292.692L63.8631 288.309L64.8103 282.369L71.5883 284.625C69.6479 282.828 65.7411 278.406 65.1704 277.923C64.1702 277.077 61.2851 276.23 59.7079 276.153C58.1307 276.077 57.169 274.153 56.8228 273.384C56.4766 272.614 54.8482 272.08 54.4252 270.81C54.166 270.033 54.4466 269.449 54.857 269.27L59.6877 273.855C59.9523 274.106 60.37 274.097 60.6232 273.835L64.6838 269.624C64.9482 269.349 64.9284 268.909 64.6404 268.66L63.5178 267.689C63.0626 267.629 62.1865 267.701 61.6323 267.526C60.2894 267.101 61.0728 266.213 61.6323 265.822C60.8631 265.753 60.1657 265.549 60.1657 265.074C60.1657 264.08 62.78 263.633 65.5373 264.093C68.2947 264.552 68.0263 268.183 68.711 269.614C69.3956 271.046 89.9347 281.121 90.806 291.64Z" fill="#FDDEBF"/>
<path d="M51.4194 278.716C48.2425 285.173 42.3313 281.406 39.1287 278.716C27.8817 280.766 22.4218 287.167 19.8915 290.668C27.2894 294.345 28.5134 299.555 28.2145 302.587L31.1862 300.878L29.2331 315.482C34.2291 315.61 41.2341 321.723 51.2984 317.404C56.3321 315.243 64.08 314.907 66.514 314.95C66.9239 309.518 63.7671 299.128 62.8277 294.345C64.3649 294.857 66.0479 295.493 68.5245 296.091C68.5245 291.898 68.1224 286.613 66.514 282.879C62.6196 281.136 54.8191 278.716 51.4194 278.716Z" fill="#FF4E9C"/>
<path d="M37.1523 317.281C35.6648 315.422 31.2557 310.198 30.2001 309.133L28.6894 309.394C28.6894 310.702 27.5497 314.995 27.5497 315.228C27.5497 315.46 30.6185 316.729 31.9647 317.281C35.8925 322.21 38.6398 319.141 37.1523 317.281Z" fill="#FDDEBF"/>
<path d="M58.8056 261.194C59.4991 261.513 61.7089 263.76 62.7791 264.912L61.6165 265.598C61.1299 265.248 59.94 264.109 58.8055 263.016C57.493 261.75 57.9388 260.796 58.8056 261.194Z" fill="#FDDEBF"/>
<circle r="0.3135" transform="matrix(-0.990832 -0.135098 -0.135098 0.990832 48.479 266.512)" fill="#11243E"/>
<circle r="0.3135" transform="matrix(-0.990832 -0.135098 -0.135098 0.990832 45.8795 266.741)" fill="#11243E"/>
<path d="M43.6602 273.628C45.1616 274.615 47.1531 274.386 47.9612 274.149L48.1257 275.669C45.5943 274.924 44.094 273.998 43.6602 273.628Z" fill="#EBB47E"/>
<path d="M44.8581 269.032C45.509 268.67 45.3065 267.214 44.0776 267.222C42.6761 267.231 42.9004 269.415 44.2871 269.212C44.5051 269.18 44.7039 269.118 44.8581 269.032Z" fill="#FEB7A1"/>
<path d="M50.6337 268.534C51.2845 268.172 51.082 266.716 49.8531 266.723C48.4516 266.732 48.6759 268.916 50.0626 268.713C50.2806 268.681 50.4794 268.62 50.6337 268.534Z" fill="#FEB7A1"/>
<path d="M25.7904 322.705C25.2794 323.81 26.0034 324.066 26.4292 324.056L31.5607 323.718L30.0063 321.538C28.8139 321.467 26.3014 321.6 25.7904 322.705Z" fill="#FDDEBF"/>
<path d="M63.787 265.631C62.8263 265.631 60.6699 265.964 60.1703 265.319C59.5458 264.512 61.9916 263.732 65.2181 264.096C65.7778 264.159 66.2229 264.306 66.5741 264.507" stroke="#F0C291" stroke-width="0.531382" stroke-linecap="round"/>
<path d="M61.3097 263.328C60.5856 262.633 59.0113 261.212 58.5074 261.091C57.8774 260.939 57.6385 261.569 58.1381 262.264C58.5378 262.82 59.8253 264.074 60.4191 264.632" stroke="#F0C291" stroke-width="0.531382" stroke-linecap="round"/>
<path d="M61.3536 265.727C61.064 265.821 60.6839 266.533 61.2229 267.131C61.5479 267.491 62.7933 267.608 64.1983 267.567" stroke="#F0C291" stroke-width="0.531382" stroke-linecap="round"/>
<path d="M54.8547 269.362C54.4732 269.587 54.081 270.154 54.7148 271.046C55.5071 272.161 56.272 272.018 57.3285 274.014C58.1736 275.61 59.4816 276.248 60.0196 276.258" stroke="#F0C291" stroke-width="0.531382" stroke-linecap="round"/>
<path d="M22.681 302.051C23.9926 303.198 27.0985 305.976 29.03 307.908" stroke="#F0C291" stroke-width="0.531382" stroke-linecap="round"/>
<path d="M68.5757 281.425L74.4344 287.586" stroke="#F0C291" stroke-width="0.531382" stroke-linecap="round"/>
<mask id="mask3_242_247" style="mask-type:alpha" maskUnits="userSpaceOnUse" x="12" y="308" width="54" height="87">
<path d="M65.7858 394.653L64.1135 314.615L32.3974 308.358L29.5927 313.536L31.1029 321.088L12.0184 394.653H29.5927L45.4664 344.848V394.653H65.7858Z" fill="#444CAE"/>
</mask>
<g mask="url(#mask3_242_247)">
<path d="M45.4168 341.752V344.869L43.3245 354.203L32.1997 396.153H21.886C29.5807 382.525 40.7793 354.207 45.4168 341.752Z" fill="#343C9D"/>
</g>
<circle cx="62.0479" cy="270.884" r="0.526748" fill="#CACFFF"/>
<path d="M610.558 279.438C610.334 286.441 606.193 287.359 604.597 287.891C608.781 288.113 610.549 294.061 610.558 296.427C610.558 291.499 614.101 288 616.311 287.891C612.637 287.283 610.464 282.472 610.558 279.438Z" fill="#ACB4FF"/>
<mask id="mask4_242_247" style="mask-type:alpha" maskUnits="userSpaceOnUse" x="54" y="263" width="37" height="35">
<path d="M90.8062 291.64C91.3401 298.086 75.9077 297.876 68.2728 296.03L67.2352 292.692L63.8632 288.309L64.8104 282.369L71.5884 284.625C69.6481 282.828 65.7412 278.406 65.1705 277.923C64.1704 277.077 61.2853 276.23 59.7081 276.153C58.1309 276.077 57.1692 274.153 56.823 273.384C56.4768 272.614 54.8484 272.08 54.4253 270.81C54.1662 270.033 54.4468 269.449 54.8571 269.27L59.6879 273.855C59.9525 274.106 60.3701 274.097 60.6233 273.835L64.684 269.624C64.9484 269.349 64.9285 268.909 64.6406 268.66L63.518 267.689C63.0627 267.629 62.1867 267.701 61.6325 267.526C60.2896 267.101 61.0729 266.213 61.6325 265.822C60.8632 265.753 60.1659 265.549 60.1659 265.074C60.1659 264.08 62.7801 263.633 65.5375 264.093C68.2948 264.552 68.0265 268.183 68.7111 269.614C69.3958 271.046 89.9349 281.121 90.8062 291.64Z" fill="#FDDEBF"/>
</mask>
<g mask="url(#mask4_242_247)">
<path d="M89.2164 292.28C86.5361 296.564 74.3035 295.423 68.5222 294.317L66.8796 296.452L80.9385 302.66L94.4391 295.237L89.8403 279.634L83.1393 279.141C86.2818 281.736 91.8966 287.997 89.2164 292.28Z" fill="#F0C291" fill-opacity="0.36"/>
</g>
<path d="M33.0948 295.913C32.6081 296.702 29.3166 299.389 28.1557 300.285C28.2953 301.213 28.2046 302.226 28.1391 302.628L32.7014 300.182L33.0948 295.913Z" fill="#E42B7D"/>
<path d="M61.6132 290.842C63.2828 292.673 66.885 293.88 68.4773 294.254C68.5377 294.82 68.5477 295.71 68.5226 296.09C66.4351 295.576 63.8594 294.744 62.8292 294.342C62.4439 293.283 61.8407 291.538 61.6132 290.842Z" fill="#E42B7D"/>
<path d="M64.143 315.925L64.1007 315.001C64.8333 314.933 66.0137 314.939 66.5123 314.95C65.9678 315.589 64.7059 315.866 64.143 315.925Z" fill="#E42B7D"/>
<path d="M40.8992 320.144C44.0579 320.275 51.9037 320.108 58.017 318.388" stroke="#7179DE" stroke-width="0.962043" stroke-linecap="round"/>
<path d="M50.1185 320.1L50.3829 324.856C50.5003 326.969 49.4293 328.628 47.3549 329.046C47.288 329.06 47.2208 329.073 47.1534 329.086" stroke="#7179DE" stroke-width="0.962043" stroke-linecap="round"/>
<path d="M23.9936 303.097L28.1626 300.287C28.3243 300.757 28.23 302.05 28.1626 302.638L25.4996 304.291L23.9936 303.097Z" fill="#F0C291" fill-opacity="0.35"/>
<ellipse cx="554.607" cy="427.939" rx="23.2533" ry="4.79202" fill="#C7CBF6"/>
<path d="M529.102 363.718C521.786 347.206 512.642 337.804 509.825 336.546C517.303 328.651 530.183 332.239 538.223 337.996C544.655 342.602 551.096 370.775 553.936 384.446C543.599 380.17 535.608 378.4 529.102 363.718Z" fill="#9FE9C0"/>
<path d="M622.241 337.514C617.409 338.609 602.776 336.334 596.064 335.06L596.088 331.723L601.598 328.413C605.175 327.926 612.398 326.925 612.666 326.819C612.935 326.714 618.878 329.635 621.816 331.109C623.971 332.788 627.074 336.419 622.241 337.514Z" fill="#9FE9C0"/>
<path d="M597.308 319.67C575.358 319.184 564.169 346.778 561.318 360.636C586.968 355.206 585.73 339.942 601.238 332.653C613.645 326.823 622.061 331.298 624.719 334.264C620.481 327.218 612.111 319.998 597.308 319.67Z" fill="#43EB8F"/>
<path d="M545.719 330.715C522.352 313.931 478.91 282.494 500.626 259.298C527.77 230.302 545.87 310.329 545.719 330.715Z" fill="#43EB8F"/>
<path d="M558.181 338.299C556.028 317.628 561.438 264.106 582.518 276.529C604.979 289.766 575.507 324.544 558.181 338.299Z" fill="#43EB8F"/>
<path d="M573.673 295.263C568.79 304.461 558.552 328.077 556.656 348.958C555.348 363.375 555.352 378.004 555.699 388.329" stroke="#4C86CE" stroke-width="2.60652" stroke-linecap="round"/>
<path d="M594.65 323.619C586.619 324.42 569.06 335.579 559.795 366.928C557.52 374.626 557.047 380.67 556.835 388.222" stroke="#4C86CE" stroke-width="2.60652" stroke-linecap="round"/>
<path d="M518.194 287.721C529.165 296.811 548.569 325.01 550.634 354.725C551.363 365.207 552.552 378.495 553.921 388.354" stroke="#4C86CE" stroke-width="2.60652" stroke-linecap="round"/>
<path d="M514.846 334.375C515.507 334.512 528.48 336.198 536.535 357.855C541.874 372.209 548.545 380.346 552.601 383.835" stroke="#4C86CE" stroke-width="2.60652" stroke-linecap="round"/>
<path d="M466.101 339.996C468.211 320.764 507.884 316.244 528.575 328.208C533.22 330.894 537.181 335.291 540.516 340.545C521.383 325.312 504.893 340.815 494.327 349.923C483.761 359.032 463.99 359.229 466.101 339.996Z" fill="#43EB8F"/>
<path d="M579.506 387.174H529.071L534.316 425.101H575.471L579.506 387.174Z" fill="#ACB4FF"/>
<ellipse cx="554.884" cy="425.101" rx="20.6257" ry="4.43233" fill="#ACB4FF"/>
<rect x="523.834" y="377.618" width="61.7943" height="9.55579" rx="3.94796" fill="#505ACC"/>
<mask id="mask5_242_247" style="mask-type:alpha" maskUnits="userSpaceOnUse" x="497" y="319" width="26" height="20">
<path d="M522.475 319.798H497.35L499.963 338.692H520.465L522.475 319.798Z" fill="#ACB4FF"/>
</mask>
<g mask="url(#mask5_242_247)">
<path d="M523.061 319.62C520.477 320.265 504.716 322.622 497.159 323.719L494.053 319.62C503.164 318.646 521.62 316.7 522.564 316.7C523.744 316.7 526.291 318.812 523.061 319.62Z" fill="#939BEA"/>
</g>
<path d="M40.2633 267.791C40.5066 267.833 41.0842 268.015 41.4483 268.405" stroke="#EBB47E" stroke-width="0.240511" stroke-linecap="round"/>
<path d="M40.7759 268.024C40.6931 268.104 40.5117 268.35 40.4482 268.697" stroke="#EBB47E" stroke-width="0.240511" stroke-linecap="round"/>
<path d="M498.506 261.257C504.265 253.783 518.871 244.924 531.214 269.28" stroke="white" stroke-width="2.40511" stroke-linecap="round"/>
<circle cx="495.868" cy="265.231" r="1.33801" fill="white"/>
<path d="M46.499 249.925C42.5488 234.64 32.2006 199.675 14.0386 214.373C2.4698 223.736 53.7035 263.716 94.6204 178.286" stroke="#588DED" stroke-width="2.04434" stroke-linecap="round" stroke-dasharray="4.81 4.81"/>
<path d="M570.615 401.285L569.35 416.338" stroke="white" stroke-opacity="0.22" stroke-width="4.81021" stroke-linecap="round"/>
<path d="M582.927 281.849C584.859 284.581 587.765 292.204 583.927 300.84" stroke="white" stroke-opacity="0.22" stroke-width="4.81021" stroke-linecap="round"/>
<path d="M490.536 328.215C492.797 326.956 497.361 326.008 502.879 326.696" stroke="white" stroke-opacity="0.22" stroke-width="4.81021" stroke-linecap="round"/>
<path d="M31.8175 310.996L32.9607 297.188L31.3491 299.754L30.0939 309.066C30.5586 309.426 31.4366 310.503 31.8175 310.996Z" fill="#E42B7D"/>
</svg>
