<svg width="323" height="226" viewBox="0 0 323 226" fill="none" xmlns="http://www.w3.org/2000/svg">
<path d="M204.19 75.2054L14.6534 168.687C10.2512 170.858 10.2262 177.127 14.611 179.333L89.219 216.871C99.7103 222.15 112.127 221.928 122.423 216.277L214.424 165.786L311.182 112.684C315.693 110.208 315.144 103.56 310.287 101.858L229.803 73.6523C221.403 70.7085 212.172 71.2683 204.19 75.2054Z" fill="#505BCC" fill-opacity="0.12"/>
<path d="M11.6049 166.656C8.40636 160.045 7.44449 154.149 7.39648 151.653L273.222 90.5313C284.18 85.002 306.777 75.5946 309.504 82.1995C310.396 84.3615 311.04 86.7229 311.416 89.0934C312.778 97.6714 306.132 104.44 298.553 108.682L121.376 207.841C111.317 213.471 99.1237 213.759 88.8096 208.611L19.0978 173.816C15.9217 172.231 13.151 169.851 11.6049 166.656Z" fill="#505BCC"/>
<path d="M200.242 52.4811L10.7061 145.963C6.3039 148.134 6.27897 154.402 10.6638 156.609L85.2717 194.147C95.7631 199.426 108.18 199.204 118.476 193.553L307.234 89.9593C311.745 87.4836 311.196 80.8356 306.34 79.1338L225.856 50.9279C217.456 47.9842 208.225 48.5439 200.242 52.4811Z" fill="#ACB4FF"/>
<path d="M191.629 59.481L31.5371 138.796C30.8955 139.114 30.9107 140.034 31.5624 140.33L127.742 184.088C127.985 184.199 128.266 184.188 128.501 184.061L287.398 97.4925C288.034 97.1459 287.973 96.2133 287.297 95.9534L192.311 59.4493C192.089 59.364 191.842 59.3756 191.629 59.481Z" fill="white" fill-opacity="0.79"/>
<mask id="mask0_3_8525" style="mask-type:alpha" maskUnits="userSpaceOnUse" x="30" y="59" width="258" height="126">
<path d="M191.628 59.4825L30.8791 139.358C30.2357 139.678 30.2549 140.602 30.911 140.895L127.744 184.093C127.985 184.201 128.264 184.19 128.496 184.063L287.397 97.4933C288.033 97.1468 287.972 96.2142 287.295 95.9543L192.311 59.4503C192.089 59.365 191.841 59.3767 191.628 59.4825Z" fill="white" fill-opacity="0.79"/>
</mask>
<g mask="url(#mask0_3_8525)">
<path d="M268.045 110.161L168.162 69.7624L187.089 53.2214L295.084 94.2562L268.045 110.161Z" fill="#ACB4FF" fill-opacity="0.17"/>
</g>
<ellipse cx="61.8161" cy="168.11" rx="13.0495" ry="8.19168" fill="#99A2F4"/>
<ellipse cx="62.8737" cy="168.909" rx="13.0495" ry="8.19168" fill="#C6CCFF"/>
<path d="M182.804 146.418L103.469 110.621C102.818 110.327 102.798 109.409 103.437 109.088L160.607 80.2862C161.049 80.0637 161.565 80.0447 162.022 80.2342L242.663 113.689C243.326 113.964 243.371 114.886 242.737 115.224L184.302 146.368C183.837 146.616 183.284 146.634 182.804 146.418Z" fill="#CDE4FF"/>
<path d="M78.1123 124.883L118.044 142.749" stroke="#43EB8F" stroke-width="4.67254" stroke-linecap="round"/>
<path d="M89.0967 119.493L148.318 145.962" stroke="#43EB8F" stroke-width="4.67254" stroke-linecap="round"/>
<path d="M259.463 91.1136L276.028 97.7306" stroke="#43EB8F" stroke-width="2.54866" stroke-linecap="round"/>
<path d="M255.157 93.8138L270.996 100.063" stroke="#43EB8F" stroke-width="2.54866" stroke-linecap="round"/>
<path d="M250.459 96.3879L266.09 102.685" stroke="#43EB8F" stroke-width="2.54866" stroke-linecap="round"/>
<ellipse cx="193.655" cy="70.4275" rx="8.82825" ry="5.78046" transform="rotate(-0.97467 193.655 70.4275)" fill="#FF4E9C"/>
<path d="M207.89 125.647L180.636 113.704C179.319 113.127 179.27 111.278 180.554 110.631L198.828 101.424C199.933 100.868 201.225 100.821 202.367 101.294L229.708 112.637C231.032 113.186 231.123 115.026 229.86 115.704L211.603 125.5C210.453 126.116 209.084 126.171 207.89 125.647Z" fill="#505BCC"/>
<path d="M199.884 102.328L204.733 111.319C205.148 112.088 205.929 112.591 206.801 112.652L229.635 114.228" stroke="#EEEFFF" stroke-width="1.69911" stroke-linecap="round"/>
<path d="M196.306 109.746V108.902C170.688 107.681 119.416 105.354 119.276 105.807C119.204 106.04 119.247 106.481 119.329 106.934C119.463 107.674 119.999 108.263 120.688 108.566L163.374 127.353C164.092 127.669 164.916 127.636 165.607 127.265L195.412 111.243C195.963 110.946 196.306 110.372 196.306 109.746Z" fill="#858FF1"/>
<path d="M163.556 126.144L119.697 106.924C119.038 106.636 119.013 105.711 119.655 105.388L150.48 89.8587C150.922 89.6362 151.438 89.6172 151.895 89.8067L195.786 108.015C196.447 108.29 196.493 109.21 195.862 109.549L165.041 126.085C164.581 126.332 164.034 126.353 163.556 126.144Z" fill="#ACB4FF"/>
<path d="M149.201 93.6304L187.444 109.565" stroke="#EEEFFF" stroke-width="1.69911" stroke-linecap="round"/>
<path d="M144.288 96.6844L182.531 112.619" stroke="#EEEFFF" stroke-width="1.69911" stroke-linecap="round"/>
<path d="M138.215 99.5442L176.518 115.752" stroke="#EEEFFF" stroke-width="1.69911" stroke-linecap="round"/>
<path d="M132.419 102.597L170.819 119.137" stroke="#EEEFFF" stroke-width="1.69911" stroke-linecap="round"/>
<path d="M150.613 28.4211L138.916 35.8755L146.547 24.8026L150.613 28.4211Z" fill="#588DED"/>
<path d="M191.895 0.0552979L123.621 9.04219L138.912 20.8459V35.7348L146.692 25.8089L165.202 41.3684L191.895 0.0552979Z" fill="#DCEDFF"/>
<path d="M138.918 20.8565V35.8843L146.595 25.8565L191.924 0L138.918 20.8565Z" fill="#ABC7F3"/>
<path d="M83.8831 101.396C91.8625 83.6849 102.056 36.0026 71.0377 36.0018C36.5901 36.001 73.3733 100.811 134.096 36.0018" stroke="#CDE4FF" stroke-width="5.55515" stroke-linecap="round" stroke-dasharray="5.56 11.11"/>
</svg>
