<svg width="349" height="176" viewBox="0 0 349 176" fill="none" xmlns="http://www.w3.org/2000/svg">
<path d="M50.1158 81.6018C53.9054 107.929 64.8424 132.359 72.1241 141.114L69.0083 151.219C56.1457 145.083 24.0656 126.634 17.6063 98.6052C9.53227 63.5689 45.3993 48.8354 50.1158 81.6018Z" fill="#ACB4FF"/>
<path d="M23.1772 120.078C34.765 134.166 55.3445 142.343 64.1857 144.671L63.2885 147.581C41.769 148.912 29.8786 144.847 12.5356 133.923C-4.8073 123 8.69258 102.468 23.1772 120.078Z" fill="#7D88FE"/>
<path d="M20.6045 129.172C26.4449 135.438 38.899 141.64 51.5707 142.792" stroke="white" stroke-width="2.71203" stroke-linecap="round"/>
<path d="M34.7289 93.8938C35.7458 100.636 40.4262 117.273 60.1876 128.235" stroke="white" stroke-width="3.28813" stroke-linecap="round"/>
<path d="M135.979 122.994C160.308 94.587 211.759 39.6709 285.484 89.7807" stroke="#AECEF4" stroke-width="5.42406" stroke-linecap="round" stroke-dasharray="10.85 10.85"/>
<path d="M248.34 70.1735C240.049 57.9545 241.337 35.1037 242.428 25.2847C248.427 16.5564 250.631 12.9781 270.814 11.8871C290.998 10.7961 290.768 37.0736 288.04 58.3479C285.313 79.6222 258.704 85.4473 248.34 70.1735Z" fill="#FDDEBF"/>
<path d="M251.585 96.8011V70.8397L282.25 60.8396V96.8011H251.585Z" fill="#FDDEBF"/>
<path d="M257.334 87.6381C222.155 90.9739 201.439 133.384 196.054 161.595C195.471 164.652 197.49 167.55 200.533 168.204C257.859 180.512 312.65 174.225 338.189 168.405C341.369 167.681 343.261 164.484 342.445 161.326C330.977 116.995 307.015 82.9272 257.334 87.6381Z" fill="#ACB4FF"/>
<path d="M282.289 71.1958C276.144 79.0956 257.192 77.8905 251.545 73.8459V79.6331C262.54 80.5787 277.577 80.3824 282.289 71.1958Z" fill="#EBB47E"/>
<path d="M282.188 88.8047C271.68 95.1823 257.406 91.211 251.545 88.5536C252.813 87.4416 255.588 85.4562 256.104 85.3532C256.619 85.2502 273.646 83.8009 282.188 83.0712V88.8047Z" fill="#FDDEBF"/>
<path d="M267.064 125.756C264.514 114.021 255.655 96.0647 251.545 88.5531C266.979 94.6496 277.295 92.0312 282.256 88.7694C276.474 93.871 269.899 115.481 267.064 125.756Z" fill="#7782FD"/>
<path d="M289.82 21.9895C284.233 31.6625 259.593 26.2364 249.362 22.9958C245.549 17.6578 244.757 12.4591 251.81 8.45573C258.864 4.45234 261.938 14.4228 271.089 9.27555C281.881 3.20462 297.163 9.27555 289.82 21.9895Z" fill="#11243E"/>
<path d="M242.525 43.6812C248.139 39.0629 250.599 27.4949 251.127 22.2882L265.135 13.6135C259.34 7.5912 253.242 4.94095 248.411 10.9694C238.179 23.7372 238.262 38.9274 239.582 44.9264L242.525 43.6812Z" fill="#11243E"/>
<circle cx="241.629" cy="48.6548" r="5.35782" fill="#FDDEBF"/>
<path d="M289.431 19.6994C295.894 29.1347 294.78 53.7999 289.431 43.9932C285.305 36.4287 283.748 29.0393 283.441 25.9669C283.283 20.7327 284.26 12.1513 289.431 19.6994Z" fill="#11243E"/>
<circle cx="290.851" cy="48.6548" r="5.35782" fill="#FDDEBF"/>
<path d="M256.216 8.2881C258.609 9.08599 265.243 9.62164 269.894 7.0912C275.707 3.92815 281.435 4.61205 287.077 8.80092C291.59 12.152 281.264 16.2954 275.536 17.9482C268.725 16.0674 255.104 12.2034 255.104 11.7931" stroke="#11243E" stroke-width="1.35602" stroke-linecap="round"/>
<path d="M289.022 50.5329C289.736 49.2375 291.654 46.5683 293.621 46.2546" stroke="#EBB47E" stroke-width="1.18741" stroke-linecap="round"/>
<path d="M290.948 47.9608C291.263 48.0658 292.13 48.6858 293.076 50.3252" stroke="#EBB47E" stroke-width="1.18741" stroke-linecap="round"/>
<path d="M243.561 50.7924C242.847 49.497 240.929 46.8278 238.962 46.5142" stroke="#EBB47E" stroke-width="1.18741" stroke-linecap="round"/>
<path d="M241.636 48.2203C241.321 48.3254 240.454 48.9453 239.508 50.5847" stroke="#EBB47E" stroke-width="1.18741" stroke-linecap="round"/>
<path d="M67.1766 68.3671C77.7728 57.0519 77.3912 52.6264 77.3546 48.4845L85.0873 52.0274L90.6345 58.6841L96.8473 90.9686C90.5604 99.1044 78.8933 111.169 70.7277 103.714C60.5208 94.3946 58.3772 77.7635 67.1766 68.3671Z" fill="#11243E"/>
<path d="M144.517 68.5353C133.921 57.2201 134.302 52.7946 134.339 48.6527L126.606 52.1957L121.059 58.8523L114.846 91.1368C121.133 99.2726 132.8 111.337 140.966 103.882C151.173 94.5628 153.316 77.9317 144.517 68.5353Z" fill="#11243E"/>
<path d="M88.1107 70.1712C79.8193 57.9522 81.1075 35.1014 82.1983 25.2824C88.1975 16.5541 90.4016 12.9758 110.585 11.8848C130.768 10.7938 130.538 37.0712 127.811 58.3455C125.083 79.6198 98.4749 85.445 88.1107 70.1712Z" fill="#FDDEBF"/>
<path d="M91.3555 96.8006V70.8392L122.021 60.8391V96.8006H91.3555Z" fill="#FDDEBF"/>
<path d="M97.1046 87.6368C61.9256 90.9725 41.2097 133.382 35.8246 161.594C35.241 164.651 37.26 167.549 40.303 168.202C97.6299 180.511 152.42 174.224 177.96 168.404C181.14 167.679 183.032 164.482 182.215 161.325C170.748 116.994 146.785 82.9259 97.1046 87.6368Z" fill="#FF4E9C"/>
<path d="M76.7536 47.4323C92.4667 42.1945 106.328 24.6304 111.295 16.5031C113.477 12.0631 108.871 4.18778 92.3207 10.4141C72.5836 17.8392 74.797 37.7998 76.7536 47.4323Z" fill="#11243E"/>
<path d="M131.546 44.8313C119.348 38.8374 112.579 22.0096 110.323 14.9883C102.838 14.9883 92.3596 14.1191 110.323 10.642C134.62 5.93858 142.73 50.3272 131.546 44.8313Z" fill="#11243E"/>
<path d="M122.06 71.1934C115.916 79.0932 96.9633 77.888 91.3164 73.8434V79.6306C102.312 80.5762 117.349 80.3799 122.06 71.1934Z" fill="#EBB47E"/>
<path d="M121.96 88.8033C111.452 95.1809 97.1774 91.2095 91.3164 88.5522C92.5842 87.4402 95.3599 85.4547 95.875 85.3517C96.3901 85.2487 113.417 83.7995 121.96 83.0697V88.8033Z" fill="#FDDEBF"/>
<path d="M106.836 125.756C104.285 114.021 95.4268 96.0643 91.3164 88.5527C106.751 94.6492 117.066 92.0308 122.027 88.769C116.245 93.8706 109.67 115.48 106.836 125.756Z" fill="#E81672"/>
<circle cx="130.621" cy="48.653" r="5.35782" fill="#FDDEBF"/>
<circle cx="81.3998" cy="48.653" r="5.35782" fill="#FDDEBF"/>
<path d="M128.501 50.5145C129.214 49.2191 131.132 46.5498 133.1 46.2362" stroke="#EBB47E" stroke-width="1.18741" stroke-linecap="round"/>
<path d="M130.427 47.9414C130.742 48.0464 131.609 48.6663 132.555 50.3058" stroke="#EBB47E" stroke-width="1.18741" stroke-linecap="round"/>
<path d="M83.4072 50.7921C82.6941 49.4967 80.7758 46.8274 78.8083 46.5138" stroke="#EBB47E" stroke-width="1.18741" stroke-linecap="round"/>
<path d="M81.4814 48.22C81.1663 48.325 80.2994 48.9449 79.3536 50.5844" stroke="#EBB47E" stroke-width="1.18741" stroke-linecap="round"/>
<rect width="44.1372" height="30.6954" rx="15.3477" transform="matrix(1 0 0 -1 304.416 83.6714)" fill="#43EB8F"/>
<path d="M312.654 89.4012C315.616 87.1404 315.622 83.3778 315.874 82.0942C318.469 80.6017 324.612 79.6443 322.352 82.7304C319.552 86.5547 313.257 88.9629 312.654 89.4012C312.649 89.4048 312.644 89.4085 312.64 89.4122C312.644 89.4086 312.649 89.405 312.654 89.4012Z" fill="#43EB8F"/>
<circle cx="317.741" cy="68.8287" r="2.17783" fill="#444CAE"/>
<circle cx="326.483" cy="68.8287" r="2.17783" fill="#444CAE"/>
<circle cx="335.23" cy="68.8287" r="2.17783" fill="#444CAE"/>
<circle cx="180.512" cy="27.3744" r="22.2576" fill="#FDD21B"/>
<circle cx="162.354" cy="121.619" r="14.3626" fill="#444CAE"/>
<path d="M167.255 22.2161H193.769" stroke="white" stroke-width="2.40723" stroke-linecap="round"/>
<path d="M167.255 27.3533H193.769" stroke="white" stroke-width="2.40723" stroke-linecap="round"/>
<path d="M167.255 32.5327H193.769" stroke="white" stroke-width="2.40723" stroke-linecap="round"/>
<path d="M154.695 117.928H170.011" stroke="white" stroke-width="1.85172" stroke-linecap="round"/>
<path d="M154.695 121.643H170.011" stroke="white" stroke-width="1.85172" stroke-linecap="round"/>
<path d="M154.695 125.31H170.011" stroke="white" stroke-width="1.85172" stroke-linecap="round"/>
<path d="M173.088 108.821C175.21 110.716 180.637 115.71 178.585 126.41" stroke="#444CAE" stroke-width="1.2962" stroke-linecap="round"/>
<path d="M155.536 21.703C156.542 15.1658 163.543 1.41551 182.008 2.01925" stroke="#FDD21B" stroke-width="2.22206" stroke-linecap="round"/>
</svg>
