<svg width="413" height="155" viewBox="0 0 413 155" fill="none" xmlns="http://www.w3.org/2000/svg">
<mask id="mask0_208_69" style="mask-type:alpha" maskUnits="userSpaceOnUse" x="0" y="0" width="413" height="155">
<path d="M0 31.1784C0 13.959 13.9591 0 31.1784 0H412.323V154.868H0V31.1784Z" fill="white"/>
</mask>
<g mask="url(#mask0_208_69)">
<path d="M148.929 62.7509C88.1214 63.9647 46.869 134.081 33.8438 168.987H410.146C399.976 137.369 356.281 88.6434 313.346 125.341C256.941 173.55 224.939 61.2336 148.929 62.7509Z" fill="#EDEFFF" fill-opacity="0.81"/>
<path d="M96.2812 -12.8578C79.9594 39.5434 25.6265 68.7692 -16.185 68.7692L-26.4619 0.835659L-11.4487 -18.2194C23.0044 -16.6796 103.102 -34.7552 96.2812 -12.8578Z" fill="#EDEFFF" fill-opacity="0.81"/>
</g>
<ellipse cx="208.883" cy="127.865" rx="80.8474" ry="5.0166" fill="#979EED"/>
<path d="M196.268 87.2927H158.499" stroke="white" stroke-width="4.33129" stroke-linecap="round"/>
<path d="M196.268 100.701H158.499" stroke="white" stroke-width="4.33129" stroke-linecap="round"/>
<path d="M196.268 114.656H158.499" stroke="white" stroke-width="4.33129" stroke-linecap="round"/>
<circle cx="139.293" cy="86.7865" r="4.91416" fill="white" stroke="white" stroke-width="1.20314"/>
<circle cx="139.293" cy="100.701" r="4.79385" stroke="white" stroke-width="1.44376"/>
<circle cx="139.293" cy="114.657" r="4.79385" stroke="white" stroke-width="1.44376"/>
<path d="M144.809 82.9966L138.733 88.9577L134.95 85.748" stroke="#505ACC" stroke-width="2.21046" stroke-linecap="round"/>
<rect x="128.035" y="19.5266" width="161.695" height="107.278" rx="7.13998" fill="#0A2D4D"/>
<rect x="135.795" y="23.4514" width="141.572" height="99.4289" fill="#CCD0FF"/>
<circle cx="283.484" cy="73.1663" r="4.50099" fill="#E7F0F4" fill-opacity="0.1"/>
<mask id="mask1_208_69" style="mask-type:alpha" maskUnits="userSpaceOnUse" x="135" y="23" width="143" height="100">
<rect x="135.796" y="23.4536" width="141.572" height="99.4289" fill="#DCDFFF"/>
</mask>
<g mask="url(#mask1_208_69)">
<path d="M279.969 54.5124H136.436H128.597V18.5896H279.969V54.5124Z" fill="#EAECFF"/>
</g>
<circle cx="257.805" cy="38.9039" r="11.1896" fill="#43EA8E"/>
<path fill-rule="evenodd" clip-rule="evenodd" d="M249.312 44.2667C249.92 41.0058 252.359 38.3891 255.522 37.5247C255.973 38.3195 256.827 38.8558 257.806 38.8558C258.785 38.8558 259.639 38.3197 260.09 37.5251C263.252 38.3898 265.691 41.0057 266.299 44.2657C264.626 47.2265 261.449 49.2252 257.805 49.2252C254.162 49.2252 250.985 47.227 249.312 44.2667Z" fill="#505ACC"/>
<circle cx="257.805" cy="36.2648" r="2.11467" fill="#FDDEBF"/>
<path d="M314.36 82.7302C314.013 93.6179 307.574 95.0452 305.094 95.872C311.598 96.2161 314.346 105.463 314.36 109.141C314.36 101.48 319.868 96.0418 323.304 95.872C317.592 94.9265 314.214 87.4479 314.36 82.7302Z" fill="#FBD535"/>
<rect x="101.913" y="44.6267" width="135.361" height="44.3309" rx="3.8973" fill="#FF4F9C"/>
<path d="M181.903 44.6267H233.377C235.529 44.6267 237.274 46.3716 237.274 48.524V66.7921" stroke="white" stroke-width="1.94865" stroke-linecap="round"/>
<circle cx="177.575" cy="44.627" r="1.07918" fill="white"/>
<path d="M222.066 59.3948L209.456 71.7669L201.605 65.1052" stroke="#FBD535" stroke-width="4.83205" stroke-linecap="round"/>
<path d="M120.334 62.7356H161.454M185.265 62.7356H169.467" stroke="white" stroke-width="3.8973" stroke-linecap="round"/>
<path d="M120.334 71.7671H139.32M185.265 71.7671H150.99" stroke="white" stroke-width="3.8973" stroke-linecap="round"/>
</svg>
