<svg width="387" height="146" viewBox="0 0 387 146" fill="none" xmlns="http://www.w3.org/2000/svg">
<ellipse cx="246.271" cy="126.855" rx="46.3413" ry="3.70813" fill="#B0B7FF"/>
<mask id="mask0_208_67" style="mask-type:alpha" maskUnits="userSpaceOnUse" x="0" y="0" width="387" height="146">
<path d="M0 29.2254C0 13.0847 13.0847 0 29.2254 0H386.495V145.167H0V29.2254Z" fill="white"/>
</mask>
<g mask="url(#mask0_208_67)">
<path d="M135.744 88.4205C91.5105 141.813 7.61854 125.281 -15.2055 88.4205L-33.0928 -14.7359L86.138 -7.53366C158.423 -10.4679 343.295 -16.0162 319.609 -14.7359C290.001 -13.1355 184.968 29.0051 135.744 88.4205Z" fill="#EDEFFF" fill-opacity="0.85"/>
</g>
<rect x="185.837" y="16.6836" width="126.141" height="97.4642" rx="6.85403" fill="#586CD4"/>
<path fill-rule="evenodd" clip-rule="evenodd" d="M292.612 79.8987H271.642V58.9275C283.223 58.9278 292.612 68.3168 292.612 79.8987Z" fill="#D3D7FF"/>
<path fill-rule="evenodd" clip-rule="evenodd" d="M270.066 62.9978C259.895 62.998 251.649 71.2433 251.649 81.4145C251.649 91.5857 259.895 99.8311 270.066 99.8311C280.237 99.8311 288.483 91.5857 288.483 81.4145C288.483 81.4139 288.483 81.4134 288.483 81.4129H270.066V62.9978Z" fill="#B0B7FF"/>
<path d="M233.366 50.6602H294.517" stroke="white" stroke-width="2.97008" stroke-linecap="round"/>
<path d="M233.366 43.5615H294.517" stroke="white" stroke-width="2.97008" stroke-linecap="round"/>
<path d="M233.366 36.3455H294.517" stroke="white" stroke-width="2.97008" stroke-linecap="round"/>
<path d="M233.366 29.5396H294.517" stroke="white" stroke-width="2.97008" stroke-linecap="round"/>
<rect x="199.93" y="38.0317" width="5.40356" height="14.2293" fill="#D3D7FF"/>
<rect x="208.089" y="33.8765" width="5.40356" height="18.3839" fill="#D3D7FF"/>
<rect x="216.247" y="27.8035" width="5.40356" height="24.4566" fill="#FF71AF"/>
<path d="M239.94 73.9724H226.055" stroke="white" stroke-width="2.97008" stroke-linecap="round"/>
<path d="M239.94 79.3792H226.055" stroke="white" stroke-width="2.97008" stroke-linecap="round"/>
<path d="M239.94 84.6377H226.055" stroke="white" stroke-width="2.97008" stroke-linecap="round"/>
<path d="M214.15 78.6787C213.36 78.0857 207.169 82.7652 205.044 84.8084C205.575 85.7534 207.201 88.4846 207.991 87.3199C208.977 85.8641 216.447 80.405 214.15 78.6787Z" fill="#FDDEBF"/>
<path d="M123.267 73.7879L121.491 59.8909L105.007 48.7666L105.817 75.0552L123.267 73.7879Z" fill="#FDDEBF"/>
<path d="M130.675 41.4328C129.397 32.5162 125.177 26.4903 121.586 26.4903C105.938 24.6097 105.324 39.343 105.095 46.3091C104.867 53.2753 111.947 61.4024 120.625 61.6346C129.304 61.8668 132.274 52.5786 130.675 41.4328Z" fill="#FDDEBF"/>
<path d="M109.654 54.19C116.771 52.9075 116.419 44.774 115.99 41.0658C115.764 36.8509 117.413 34.3354 118.96 33.0624C119.903 32.286 121.082 31.8511 122.129 31.2213C130.478 26.1969 129.714 22.5523 128.725 20.5506C127.678 18.4293 122.865 21.1955 122.216 19.9654C121.566 18.7354 119.907 17.171 118.809 19.5643C117.712 21.9576 114.722 17.3903 112.341 17.5762C109.961 17.762 109.526 19.4866 107.929 21.9954C106.333 24.5043 101.806 21.8618 99.3978 24.2987C96.9895 26.7356 99.1769 37.2438 99.8568 41.2978C100.687 46.2459 101.891 55.5888 109.654 54.19Z" fill="#11243E"/>
<circle cx="115.192" cy="42.3658" r="3.34382" fill="#FDDEBF"/>
<path d="M194.642 90.6334C191.77 92.357 185.799 93.9796 183.173 94.5755L187.91 106.096C190.544 105.378 196.421 103.654 198.863 102.505C201.914 101.069 210.354 103.044 211.072 96.0332C211.79 89.0229 207.877 86.6565 205.881 84.6778C202.55 81.3755 198.233 88.4788 194.642 90.6334Z" fill="#FDDEBF"/>
<path d="M113.288 60.4709C116.144 61.8238 120.095 61.8263 121.713 61.6584L121.932 63.7784C118.354 63.0868 114.679 61.2853 113.288 60.4709Z" fill="#EBB47E"/>
<path fill-rule="evenodd" clip-rule="evenodd" d="M141.15 78.7457C148.98 85.0866 156.86 91.4677 175.747 91.5928C181.153 91.6286 186.09 91.3091 190.549 90.7511L196.659 106.552C185.989 111.145 163.264 116.891 140.179 112.737L141.582 128.252C141.776 130.391 140.091 132.234 137.944 132.234H118.253L82.3993 132.234C80.3482 132.234 78.693 130.544 78.8074 128.496C79.6984 112.544 83.8063 99.6699 89.1856 87.6753C96.4271 71.5282 106.334 66.1771 114.281 66.2903C119.511 66.2903 122.979 67.7683 124.058 68.5073C131.471 70.908 136.301 74.8192 141.15 78.7457Z" fill="#43EB8F"/>
<path d="M147.072 113.713C135.437 112.804 127.199 107.711 123.073 104.656C121.557 103.534 120.99 101.54 121.65 99.7743C122.485 97.5415 123.402 95.3271 123.799 94.4009C142.222 113.713 176.234 110.934 191.418 108.572C173.67 114.444 159.515 114.685 147.072 113.713Z" fill="#33DF81"/>
</svg>
