<svg width="442" height="259" viewBox="0 0 442 259" fill="none" xmlns="http://www.w3.org/2000/svg">
<g clip-path="url(#clip0_3_9279)">
<path opacity="0.4" d="M248.841 128.6L187.419 93.1291C182.986 90.5699 183.549 86.1065 188.658 83.1481L228.469 60.166L305.953 104.902L266.141 127.884C261.023 130.842 253.284 131.16 248.841 128.6Z" fill="#D6D8E5"/>
<path d="M253.352 125.968L191.931 90.487C187.508 87.9277 188.061 83.4644 193.179 80.5059L232.95 57.5137L310.434 102.249L270.632 125.242C265.514 128.2 257.775 128.517 253.352 125.968Z" fill="#B1B4C4"/>
<path d="M310.442 102.262V99.918L306.859 101.986L310.442 102.262Z" fill="#B1B4C4"/>
<path d="M188.904 86.2602V83.875L192.579 85.4003L188.904 86.2602Z" fill="#B1B4C4"/>
<path d="M253.352 123.613L191.931 88.1418C187.508 85.5826 188.061 81.1192 193.179 78.1608L232.981 55.1787L310.465 99.9143L270.663 122.896C265.514 125.855 257.775 126.172 253.352 123.613Z" fill="#D6D8E5"/>
<path d="M233.155 55.2834L223.573 23.4668L301.907 68.3969L310.444 99.9166L233.155 55.2834Z" fill="#9EA1AF"/>
<path d="M308.221 101.225L310.483 99.915L307.115 97.2227L308.221 101.225Z" fill="#9EA1AF"/>
<path d="M230.685 56.4796L221.093 24.6631L299.436 69.5932L308.169 101.226L230.685 56.4796Z" fill="#B1B4C4"/>
<path d="M429.533 154.847L126.313 -20.2054C122.065 -22.6623 118.615 -29.2549 118.615 -34.9262V-269.466C118.615 -275.137 122.065 -277.747 126.313 -275.291L429.533 -100.238C433.781 -97.7813 437.231 -91.1989 437.231 -85.5276V149.032C437.2 154.704 433.781 157.304 429.533 154.847Z" fill="#C4C7D6"/>
<path d="M431.087 157.271L434.445 155.326L432.991 145.365L431.087 157.271Z" fill="#C4C7D6"/>
<path d="M426.759 156.455L123.55 -18.5979C119.291 -21.0446 115.852 -27.6372 115.852 -33.3085V-267.858C115.852 -273.53 119.291 -276.14 123.55 -273.683L426.759 -98.6307C431.018 -96.1738 434.457 -89.5914 434.457 -83.9202V150.671C434.457 156.301 431.069 158.911 426.759 156.455Z" fill="#E4E7F2"/>
<path d="M426.222 156.81L123.013 -18.2421C118.755 -20.699 115.305 -27.2814 115.305 -32.9526V-267.554C115.305 -273.225 118.755 -275.835 123.013 -273.378L426.222 -98.326C430.471 -95.8794 433.921 -89.2868 433.921 -83.6155V150.934C433.921 156.606 430.471 159.216 426.222 156.81Z" fill="#D6D8E5"/>
<path d="M429.757 142.479L119.167 -36.8219L119.321 -266.622C119.321 -268.966 120.979 -269.928 123.016 -268.751L426.225 -93.6986C427.296 -92.9962 428.188 -92.0523 428.828 -90.9429C429.468 -89.8335 429.839 -88.5894 429.911 -87.3107L429.757 142.479Z" fill="white"/>
<path opacity="0.4" d="M334.943 230.209C348.11 230.209 358.784 224.05 358.784 216.451C358.784 208.852 348.11 202.692 334.943 202.692C321.775 202.692 311.101 208.852 311.101 216.451C311.101 224.05 321.775 230.209 334.943 230.209Z" fill="#D6D8E5"/>
<path opacity="0.4" d="M51.2911 235.634C64.4587 235.634 75.1331 229.474 75.1331 221.876C75.1331 214.277 64.4587 208.117 51.2911 208.117C38.1236 208.117 27.4492 214.277 27.4492 221.876C27.4492 229.474 38.1236 235.634 51.2911 235.634Z" fill="#D6D8E5"/>
<path d="M34.5928 129.836C34.5928 129.836 35.2684 139.95 36.6402 141.393C38.0119 142.837 42.4445 143.85 42.4445 143.85L45.9046 149.532C45.9046 149.532 42.7005 131.453 42.0658 131.023C41.4311 130.593 34.5928 129.836 34.5928 129.836Z" fill="#FDD21B"/>
<path d="M41.2439 118.605C40.4033 118.215 39.4485 118.147 38.5614 118.415C37.6742 118.683 36.9165 119.268 36.4325 120.059C35.1631 122.167 33.8426 129.384 33.7197 130.623C33.7197 130.623 35.501 133.09 38.1831 132.67L41.2439 118.605Z" fill="#EDEDED"/>
<path d="M51.4725 219.513C53.3523 220.027 55.3588 219.785 57.0619 218.838C58.4132 218.838 65.7224 215.766 66.7154 218.377C67.5855 220.68 64.4223 222.81 62.7332 223.219C59.0376 224.11 56.3044 225.952 54.82 226.29C53.7144 226.515 52.2812 226.669 51.4008 225.799C50.3464 224.744 50.4386 220.885 51.4725 219.513Z" fill="#38226D"/>
<path d="M54.8241 225.619C56.3085 225.312 59.0418 223.469 62.7373 222.548C64.15 222.21 66.5967 220.654 66.8321 218.812C67.1597 220.931 64.3036 222.804 62.7373 223.193C59.0418 224.084 56.3085 225.926 54.8241 226.264C53.7185 226.489 52.2853 226.643 51.405 225.773C51.1761 225.522 51.011 225.22 50.9238 224.892C51.4724 225.309 52.1107 225.591 52.7879 225.718C53.465 225.844 54.1623 225.81 54.8241 225.619Z" fill="#9C73FF"/>
<path d="M40.0983 215.954C41.9777 216.474 43.9863 216.231 45.6877 215.278C47.0287 215.278 54.3482 212.207 55.3412 214.817C56.2113 217.121 53.0481 219.25 51.3487 219.659C47.6634 220.55 44.9301 222.393 43.4458 222.731C42.3402 222.966 40.907 223.109 40.0266 222.249C39.0029 221.185 39.0644 217.325 40.0983 215.954Z" fill="#38226D"/>
<path d="M43.4345 222.07C44.9188 221.763 47.6521 219.92 51.3374 218.999C52.7604 218.651 55.1968 217.095 55.4322 215.252C55.7598 217.371 52.9037 219.255 51.3374 219.633C47.6521 220.524 44.9188 222.367 43.4345 222.704C42.3289 222.94 40.8957 223.083 40.0153 222.223C39.7847 221.97 39.6195 221.664 39.5342 221.333C40.0808 221.753 40.7187 222.039 41.3963 222.167C42.0739 222.295 42.7721 222.262 43.4345 222.07Z" fill="#9C73FF"/>
<path d="M39.2821 195.391C39.5973 192.677 40.1593 189.998 40.9609 187.386C40.9609 187.386 40.4593 180.476 40.2136 173.924C39.927 166.482 37.3473 159.94 39.3844 154.003L62.0287 159.04C62.0287 159.04 60.9333 188.727 60.6262 192.34C60.4614 195.134 60.1195 197.913 59.6025 200.663C58.5481 206.427 57.422 219.264 57.422 219.264C54.9959 220.666 51.4436 219.509 51.4436 219.509C51.4436 219.509 51.4436 203.386 51.5767 199.24C51.7712 194.122 51.9248 194.562 51.9248 194.562L51.1672 181.95L50.6758 175.675C50.6758 175.675 50.0309 180.281 49.6521 184.397C49.2939 187.979 48.4237 191.225 47.4614 197.899C46.622 203.693 45.7519 215.497 45.7519 215.497C43.3257 216.909 40.0601 215.937 40.0601 215.937C40.0601 215.937 38.6167 200.417 39.2821 195.391Z" fill="#7A6AEF"/>
<path d="M42.4743 118.728C44.2146 118.82 45.5454 119.27 45.74 118.728C45.9302 117.829 46.0635 116.92 46.1392 116.004C45.9345 115.493 45.7604 114.981 45.7604 114.981C43.5697 113.63 42.8736 111.255 42.587 108.491C42.0956 103.771 44.6344 99.6458 49.3638 99.1544C53.7965 98.6835 57.0621 101.806 57.9424 106.085C58.4031 108.204 59.3449 112.227 58.0755 115.677C57.3692 117.622 56.4581 119.168 55.5572 119.465C54.6763 119.439 53.7977 119.361 52.9263 119.229L52.5373 121.379C52.3735 122.218 52.4349 122.669 54.1138 123.692C55.7927 124.716 51.575 126.845 48.8213 126.641C46.0675 126.436 42.9862 124.778 42.1365 122.996C41.1845 120.99 41.2766 118.676 42.4743 118.728Z" fill="#FDD21B"/>
<path d="M44.9854 118.992C44.494 120.2 45.7225 121.674 49.0086 122.708C52.2946 123.742 52.5915 122.412 52.5915 122.412C54.7758 123.39 56.9049 124.487 58.9691 125.698C60.9346 127.069 61.8048 131.052 62.0402 137.787C62.3474 145.568 62.3781 157.115 62.1221 159.111C62.1221 159.111 58.4368 162.776 53.7278 162.387C49.0188 161.998 41.1261 157.842 39.2015 154.617C39.2015 147.789 40.0512 146.683 38.9456 142.742C36.4171 133.744 35.0863 130.059 36.3147 124.08C37.3384 119.146 38.7409 118.532 40.6961 118.583C42.1321 118.644 43.5638 118.781 44.9854 118.992Z" fill="#F4F4F4"/>
<path d="M58.0185 165.1L55.623 137.993L60.6801 135.311L62.6456 136.969L62.0416 161.313V161.978V162.838C62.0416 162.838 62.1542 164.885 58.2949 167.332C58.2949 167.332 58.2335 166.687 58.1721 166.093L58.0799 165.069L58.0185 165.1Z" fill="#FDD21B"/>
<path d="M57.4246 124.061C60.035 124.061 61.6934 125.391 62.3383 129.415C62.9832 133.438 63.362 136.724 63.362 136.724C62.1648 138.058 60.5014 138.883 58.7144 139.027C55.5512 139.385 54.6196 137.778 54.6196 137.778C54.6196 137.778 54.2818 133.601 54.1078 130.766C53.9337 127.93 54.1794 124.061 57.4246 124.061Z" fill="#EDEDED"/>
<path d="M57.7763 105.448C57.7763 105.448 61.8711 99.2549 53.0161 97.9855C46.6385 97.0745 42.5437 101.169 42.0728 105.612C41.6224 109.86 44.2328 114.273 46.1676 116.023C48.0224 116.491 49.9851 116.254 51.6751 115.358C51.7773 114.2 51.8183 113.039 51.7979 111.877C51.7979 111.877 48.6449 105.336 57.7763 105.448Z" fill="#3A2C6D"/>
<path opacity="0.4" d="M400.348 100.049L155.336 -41.4061C150.289 -44.3134 146.194 -52.1344 146.194 -58.8703V-239.267C146.194 -246.002 150.289 -249.094 155.336 -246.176L400.348 -104.732C405.395 -101.815 409.49 -93.9934 409.49 -87.2677V93.1386C409.479 99.8643 405.385 102.966 400.348 100.049Z" fill="#D6D8E5"/>
<path d="M386.62 74.7106L141.629 -66.7337C136.572 -69.6513 132.487 -77.4723 132.487 -84.2083V-264.604C132.487 -271.34 136.582 -274.432 141.629 -271.514L386.62 -130.07C391.667 -127.152 395.762 -119.331 395.762 -112.595V67.8007C395.762 74.5366 391.667 77.6282 386.62 74.7106Z" fill="white"/>
<path d="M314.413 5.57093L283.323 -12.3745V-19.7656L314.413 -1.82018V5.57093Z" fill="#E9EAF2"/>
<path d="M370.163 19.8204L339.084 1.875V-5.50586L370.163 12.4293V19.8204Z" fill="#E9EAF2"/>
<path d="M336.34 0.300315L327.198 -4.98194V-12.373L336.34 -7.09076V0.300315Z" fill="#505ACC"/>
<path d="M370.163 37.7692L339.084 19.8237V12.4326L370.163 30.378V37.7692Z" fill="#E9EAF2"/>
<path d="M336.34 18.2354L327.198 12.9634V5.57227L336.34 10.8546V18.2354Z" fill="#FDD21B"/>
<path opacity="0.4" d="M111.099 84.7328L22.6416 33.2817L31.3123 27.334L119.76 78.7851L111.099 84.7328Z" fill="#D6D8E5"/>
<path d="M116.398 80.8432L122.1 77.424L116.347 68.3848L116.398 80.8432Z" fill="#C4C7D6"/>
<path d="M59.4156 7.42662L42.0537 -2.60564V-21.6055L59.4156 -11.5732V7.42662Z" fill="#7A6AEF"/>
<path d="M82.2833 20.62L64.9111 10.5877V-8.41211L82.2833 1.62012V20.62Z" fill="#7A6AEF"/>
<path d="M105.118 33.8104L87.7559 23.7782V4.77832L105.118 14.8106V33.8104Z" fill="#7A6AEF"/>
<path d="M59.4156 35.9276L42.0537 25.8954V6.89551L59.4156 16.9278V35.9276Z" fill="#7A6AEF"/>
<path d="M82.2833 49.1219L64.9111 39.0897V20.0898L82.2833 30.1221V49.1219Z" fill="#7A6AEF"/>
<path d="M105.118 62.3173L87.7559 52.285V33.2852L105.118 43.3174V62.3173Z" fill="#7A6AEF"/>
<path opacity="0.4" d="M370.081 201.537L334.62 181.063L342.892 176.293L378.353 196.767L370.081 201.537Z" fill="#D6D8E5"/>
<path d="M382.235 194.722L345.669 173.603L350.245 131.918L377.67 147.744L382.235 194.722Z" fill="#E28C10"/>
<path d="M372.727 199.993L336.16 178.885L340.736 137.189L368.161 153.026L372.727 199.993Z" fill="#FCA70D"/>
<path d="M372.723 199.994L382.223 194.722L377.657 147.744L368.157 153.026L372.723 199.994Z" fill="#EF990F"/>
<path d="M340.729 137.19L350.229 131.918L349.114 142.032L340.729 137.19Z" fill="#E28C10"/>
<path d="M361.303 148.971L359.614 147.947C359.614 144.016 357.3 139.471 354.495 137.833C351.69 136.195 349.377 138.058 349.377 141.989L347.688 141.017C347.688 136.001 350.759 133.697 354.536 135.898C358.313 138.099 361.303 143.955 361.303 148.971Z" fill="#7C5522"/>
<path d="M370.199 143.506L368.51 142.533C368.51 138.592 366.197 134.057 363.392 132.419C360.587 130.781 358.273 132.634 358.273 136.575L356.584 135.603C356.584 130.587 359.655 128.283 363.433 130.484C367.21 132.685 370.199 138.51 370.199 143.506Z" fill="#7C5522"/>
<path d="M349.486 113.092C351.534 113.675 352.66 115.917 354.431 120.698C355.912 125.032 356.632 129.59 356.56 134.17C355.997 138.674 354.134 142.175 349.619 145.83L347.47 141.888C347.47 141.888 351.882 137.988 352.332 133.484C352.588 130.955 349.619 122.428 349.619 122.223C349.619 122.018 349.486 113.092 349.486 113.092Z" fill="#FDD21B"/>
<path d="M331.837 216.924C331.156 217.134 330.436 217.193 329.729 217.098C329.022 217.002 328.344 216.754 327.743 216.371C326.637 216.371 320.167 213.842 319.348 215.992C318.642 217.876 321.232 219.616 322.614 219.954C325.634 220.691 327.876 222.196 329.094 222.452C329.558 222.614 330.054 222.662 330.54 222.592C331.026 222.523 331.489 222.338 331.889 222.053C332.8 221.203 332.687 218.05 331.837 216.924Z" fill="#38226D"/>
<path d="M329.105 221.928C327.886 221.672 325.644 220.168 322.624 219.43C321.468 219.154 319.461 217.885 319.267 216.359C318.99 218.089 321.314 219.635 322.624 219.942C325.644 220.679 327.886 222.184 329.105 222.44C329.568 222.602 330.064 222.65 330.55 222.581C331.037 222.511 331.499 222.326 331.899 222.041C332.085 221.835 332.222 221.59 332.298 221.324C331.85 221.667 331.327 221.9 330.773 222.004C330.218 222.109 329.647 222.083 329.105 221.928Z" fill="#9C73FF"/>
<path d="M348.272 208.375C347.681 208.579 347.049 208.638 346.43 208.545C345.812 208.452 345.225 208.211 344.72 207.843C343.696 207.843 337.042 205.406 336.254 207.485C335.568 209.297 338.066 210.975 339.396 211.293C342.304 211.999 344.464 213.453 345.631 213.698C346.077 213.856 346.555 213.904 347.023 213.838C347.492 213.772 347.938 213.594 348.323 213.32C349.173 212.501 349.081 209.46 348.272 208.375Z" fill="#38226D"/>
<path d="M345.634 213.199C344.467 212.953 342.307 211.499 339.4 210.793C338.284 210.527 336.328 209.298 336.165 207.845C335.909 209.513 338.161 210.998 339.4 211.295C342.307 212.001 344.467 213.455 345.634 213.7C346.08 213.858 346.558 213.906 347.026 213.84C347.495 213.774 347.941 213.596 348.326 213.322C348.506 213.123 348.636 212.884 348.705 212.625C348.273 212.954 347.771 213.176 347.237 213.276C346.704 213.376 346.155 213.349 345.634 213.199Z" fill="#9C73FF"/>
<path d="M350.436 191.956C350.439 189.472 350.009 187.005 349.167 184.668C349.167 184.668 350.017 174.687 350.651 168.135C351.583 158.471 353.067 157.519 352.648 151.653C352.259 146.207 349.167 142.676 348.358 138.99L332.583 140.239C332.583 140.239 331.211 144.702 329.44 153.609C327.669 162.515 327.557 173.11 327.72 187.145C327.772 190.759 327.106 193.901 327.321 202.91C327.465 208.97 327.802 216.382 327.802 216.382C330.116 218.368 331.713 216.904 331.713 216.904C331.713 216.904 335.757 198.969 336.35 194.843C336.78 192.566 336.589 190.214 335.797 188.036C335.797 188.036 336.985 182.395 337.845 177.962C338.92 172.557 341.561 160.877 341.561 160.877C341.561 160.877 341.11 178.822 341.899 182.375C342.687 185.927 342.82 188.988 343.485 193.799C344.294 199.624 344.663 208.131 344.663 208.131C347.068 209.656 348.133 208.479 348.133 208.479C348.133 208.479 350.436 197.044 350.436 191.956Z" fill="#FDD21B"/>
<path d="M348.365 138.99C350.013 140.679 352.747 145.829 352.747 153.619C352.747 162.382 351.467 160.601 350.863 170.264L350.249 179.918C350.249 179.918 337.074 186.203 327.676 180.368C326.837 178.546 327.994 158.246 329.632 151.029C331.27 143.812 332.426 140.27 332.426 140.27C332.426 140.27 344.547 143.505 348.365 138.99Z" fill="#7A6AEF"/>
<path d="M348.545 112.998C345.188 112.804 344.87 113.357 344.594 112.169C344.502 111.739 344.318 108.781 344.318 108.781C344.626 108.388 344.907 107.974 345.157 107.542C346.691 106.603 347.892 105.206 348.591 103.548C349.289 101.891 349.451 100.055 349.052 98.3014C348.653 96.5473 347.714 94.9625 346.367 93.7701C345.02 92.5777 343.333 91.8377 341.543 91.6543C337.08 91.1834 333.804 94.3159 332.934 98.6154C332.463 100.734 331.972 105.075 333.292 108.545C334.04 110.511 334.725 111.893 336.507 111.821C337.098 111.768 337.683 111.665 338.257 111.514C338.353 112.329 338.387 113.151 338.36 113.971C338.308 114.831 338.462 115.271 336.773 116.305C335.084 117.339 339.322 119.468 342.076 119.263C344.829 119.059 347.941 117.38 348.801 115.599C349.743 113.602 350.132 113.101 348.545 112.998Z" fill="#FDD21B"/>
<path d="M351.022 127.895C351.022 127.895 354.82 127.035 356.56 125.346C356.56 125.346 354.298 118.231 352.855 116.44C351.411 114.648 350.009 126.144 350.009 126.144L351.022 127.895Z" fill="#EDEDED"/>
<path d="M345.221 112.927C345.835 113.705 345.906 114.678 343.511 115.282C341.769 115.779 339.906 115.638 338.259 114.883C336.369 115.679 334.554 116.641 332.834 117.759C330.786 124.485 332.445 125.345 331.585 130.166C331.913 132.593 332.322 138.847 332.424 140.27C336.99 143.464 346.275 142.379 348.363 138.991C348.395 137.859 348.501 136.73 348.681 135.612C350.861 127.525 352.571 125.376 351.957 119.233C351.608 115.743 351.342 113.992 349.489 113.091C348.08 112.85 346.645 112.795 345.221 112.927Z" fill="#F4F4F4"/>
<path d="M303.196 139.242C304.237 139.472 305.262 139.766 306.267 140.122C307.2 140.617 308.205 140.963 309.246 141.146C310.372 141.33 312.122 140.747 315.152 139.314C318.466 137.614 321.464 135.36 324.018 132.649C326.917 129.196 329.51 125.497 331.767 121.593C333.077 119.198 334.746 118.594 336.189 119.065C337.919 119.638 338.134 121.348 336.189 124.583C333.708 128.792 330.732 132.689 327.324 136.191C324.648 138.875 321.532 141.081 318.111 142.712C315.661 143.982 313.04 144.892 310.331 145.415C309.379 145.62 308.734 146.009 306.983 146.623C305.243 147.26 303.375 147.467 301.537 147.227C300.012 146.93 299.49 146.582 299.428 146.203C299.367 145.824 299.684 145.568 300.391 145.62C301.513 145.794 302.657 145.766 303.769 145.538C303.769 145.538 302.213 145.487 301.271 145.374C300.442 145.279 299.629 145.072 298.855 144.76C298.108 144.442 297.831 143.275 298.579 143.316C299.326 143.357 299.848 143.572 301.23 143.716C301.965 143.804 302.707 143.804 303.441 143.716C302.524 143.565 301.621 143.342 300.739 143.05C300.012 142.855 299.358 142.453 298.855 141.893C298.599 141.596 298.671 140.87 299.551 141.044C300.62 141.422 301.73 141.67 302.858 141.781C303.994 141.781 304.793 141.689 304.649 141.504C304.506 141.32 303.841 141.361 302.97 140.87C302.1 140.378 301.619 139.467 301.947 139.027C302.274 138.587 302.274 138.904 303.196 139.242Z" fill="#FDD21B"/>
<path d="M334.367 128.467C331.721 128.08 329.273 126.839 327.396 124.935L331.613 119.079C331.613 119.079 333.988 116.08 337.121 117.779C337.121 117.779 339.496 118.035 337.121 122.979C336.312 124.861 335.392 126.693 334.367 128.467Z" fill="#EDEDED"/>
<path d="M332.113 96.0761C332.284 95.0708 332.841 94.1722 333.665 93.5717C334.49 92.9712 335.516 92.7164 336.525 92.8617C337.997 91.8679 339.778 91.4389 341.541 91.6537C345.544 92.0632 348.164 94.6634 349.383 98.6763C349.972 100.681 350.366 102.738 350.56 104.818C351.768 113.735 355.003 120.819 351.973 123.46C348.942 126.101 340.651 127.79 337.19 126.101C333.73 124.412 340.047 109.067 333.178 100.509C331.57 98.5125 331.417 97.0896 332.113 96.0761Z" fill="#3A2C6D"/>
<path d="M0.0523338 11.6855L-7.52304 37.5544L-24.1172 44.188L-18.0671 18.9845L0.0523338 11.6855Z" fill="#F4F4F4"/>
</g>
<defs>
<clipPath id="clip0_3_9279">
<rect width="442" height="259" fill="white"/>
</clipPath>
</defs>
</svg>
