<svg width="26" height="26" viewBox="0 0 26 26" fill="none" xmlns="http://www.w3.org/2000/svg">
<path d="M13 1.625C6.71836 1.625 1.625 6.71836 1.625 13C1.625 19.2816 6.71836 24.375 13 24.375C19.2816 24.375 24.375 19.2816 24.375 13C24.375 6.71836 19.2816 1.625 13 1.625ZM13 22.4453C7.78477 22.4453 3.55469 18.2152 3.55469 13C3.55469 7.78477 7.78477 3.55469 13 3.55469C18.2152 3.55469 22.4453 7.78477 22.4453 13C22.4453 18.2152 18.2152 22.4453 13 22.4453Z" fill="white"/>
<path d="M11.7812 17.4688C11.7813 17.792 11.9097 18.102 12.1382 18.3305C12.3668 18.5591 12.6768 18.6875 13 18.6875C13.3232 18.6875 13.6332 18.5591 13.8618 18.3305C14.0903 18.102 14.2188 17.792 14.2188 17.4688C14.2188 17.1455 14.0903 16.8355 13.8618 16.607C13.6332 16.3784 13.3232 16.25 13 16.25C12.6768 16.25 12.3668 16.3784 12.1382 16.607C11.9097 16.8355 11.7813 17.1455 11.7812 17.4688V17.4688ZM12.3906 14.625H13.6094C13.7211 14.625 13.8125 14.5336 13.8125 14.4219V7.51562C13.8125 7.40391 13.7211 7.3125 13.6094 7.3125H12.3906C12.2789 7.3125 12.1875 7.40391 12.1875 7.51562V14.4219C12.1875 14.5336 12.2789 14.625 12.3906 14.625Z" fill="white"/>
</svg>
