<svg width="400" height="433" viewBox="0 0 400 433" fill="none" xmlns="http://www.w3.org/2000/svg">
<g clip-path="url(#clip0_215_63)">
<g filter="url(#filter0_d_215_63)">
<rect width="400" height="433" rx="15" fill="#505ACC"/>
</g>
<g filter="url(#filter1_f_215_63)">
<path d="M432 456C432 586.339 326.339 692 196 692C65.6608 692 -40 586.339 -40 456C-40 325.661 65.6608 220 196 220C326.339 220 432 325.661 432 456Z" fill="#6EA9E4" fill-opacity="0.86"/>
</g>
</g>
<g clip-path="url(#clip1_215_63)">
<mask id="mask0_215_63" style="mask-type:alpha" maskUnits="userSpaceOnUse" x="0" y="-8" width="400" height="441">
<rect y="-8" width="399.903" height="440.601" rx="12.1675" fill="url(#paint0_linear_215_63)"/>
</mask>
<g mask="url(#mask0_215_63)">
<path d="M119.663 304.158C49.3313 280.369 -7.55523 336.221 -12.7266 339.324V443.788H408.231C414.782 423.791 426.021 379.041 418.574 360.01C409.266 336.221 345.139 282.438 273.773 339.324C202.407 396.21 189.995 327.947 119.663 304.158Z" fill="#CAD2FF" fill-opacity="0.27"/>
<path d="M218.803 323.235L216.097 322.307L216.088 322.334L216.079 322.362L218.803 323.235ZM230.242 344.191L229.324 346.901L230.242 344.191ZM201.973 308.525L201.407 305.721L201.973 308.525ZM147.346 371.559C147.333 373.139 148.603 374.43 150.183 374.444C151.763 374.457 153.054 373.187 153.068 371.607L147.346 371.559ZM153.354 366.352C153.509 364.779 152.361 363.379 150.788 363.224C149.216 363.068 147.816 364.217 147.66 365.789L153.354 366.352ZM149.722 354.465C149.316 355.992 150.226 357.558 151.752 357.964C153.279 358.37 154.846 357.461 155.252 355.934L149.722 354.465ZM158.769 345.939C159.41 344.495 158.759 342.805 157.315 342.163C155.872 341.522 154.181 342.173 153.54 343.617L158.769 345.939ZM159.073 333.506C158.2 334.823 158.56 336.598 159.877 337.471C161.194 338.344 162.969 337.984 163.842 336.668L159.073 333.506ZM170.416 328.44C171.51 327.3 171.473 325.489 170.333 324.395C169.193 323.301 167.382 323.339 166.288 324.479L170.416 328.44ZM175.037 316.907C173.751 317.826 173.454 319.612 174.372 320.898C175.291 322.183 177.078 322.48 178.363 321.562L175.037 316.907ZM187.452 316.249C188.882 315.577 189.496 313.873 188.824 312.443C188.152 311.013 186.448 310.399 185.018 311.071L187.452 316.249ZM195.812 307.068C194.291 307.496 193.405 309.076 193.832 310.597C194.26 312.118 195.84 313.004 197.36 312.576L195.812 307.068ZM208.463 310.383C210.032 310.204 211.159 308.786 210.98 307.216C210.8 305.646 209.382 304.519 207.812 304.699L208.463 310.383ZM220.9 304.722C219.335 304.503 217.889 305.593 217.67 307.158C217.451 308.723 218.542 310.169 220.106 310.388L220.9 304.722ZM230.548 314.035C231.876 314.891 233.647 314.508 234.503 313.18C235.358 311.852 234.976 310.082 233.648 309.226L230.548 314.035ZM242.703 319.715C242.056 318.273 240.364 317.629 238.922 318.276C237.481 318.923 236.836 320.615 237.483 322.057L242.703 319.715ZM239.057 332.657C238.861 334.225 239.973 335.655 241.541 335.851C243.109 336.047 244.538 334.935 244.734 333.367L239.057 332.657ZM237.692 346.058C239.046 345.243 239.483 343.485 238.668 342.132C237.853 340.778 236.095 340.341 234.742 341.156L237.692 346.058ZM226.043 338.873C224.779 337.925 222.986 338.183 222.038 339.447C221.091 340.712 221.349 342.505 222.613 343.452L226.043 338.873ZM215.262 330.064C215.393 331.638 216.776 332.808 218.35 332.677C219.925 332.545 221.095 331.163 220.963 329.588L215.262 330.064ZM223.8 318.366C224.449 316.925 223.806 315.232 222.366 314.583C220.925 313.935 219.231 314.577 218.583 316.018L223.8 318.366ZM225.264 304.296C224.354 305.587 224.664 307.372 225.956 308.282C227.247 309.191 229.032 308.882 229.942 307.59L225.264 304.296ZM238.016 298.145C239.147 297.042 239.171 295.231 238.069 294.1C236.966 292.968 235.155 292.944 234.023 294.047L238.016 298.145ZM244.398 285.519C243.101 286.42 242.781 288.203 243.682 289.5C244.584 290.798 246.367 291.118 247.664 290.216L244.398 285.519ZM258.47 283.807C259.881 283.095 260.447 281.374 259.735 279.964C259.023 278.553 257.302 277.987 255.892 278.699L258.47 283.807ZM268.107 273.431C266.623 273.973 265.86 275.615 266.402 277.099C266.944 278.583 268.587 279.347 270.071 278.804L268.107 273.431ZM282.194 275.061C283.724 274.668 284.647 273.109 284.254 271.579C283.861 270.048 282.302 269.126 280.772 269.519L282.194 275.061ZM293.711 266.799C292.152 267.058 291.099 268.531 291.358 270.09C291.617 271.649 293.09 272.702 294.649 272.443L293.711 266.799ZM307.287 270.864C308.861 270.731 310.029 269.347 309.896 267.772C309.763 266.198 308.379 265.03 306.804 265.163L307.287 270.864ZM320.012 264.591C318.433 264.591 317.152 265.872 317.152 267.452C317.153 269.032 318.434 270.313 320.014 270.312L320.012 264.591ZM153.068 371.607C153.082 369.922 153.175 368.164 153.354 366.352L147.66 365.789C147.465 367.767 147.362 369.697 147.346 371.559L153.068 371.607ZM155.252 355.934C156.132 352.619 157.295 349.257 158.769 345.939L153.54 343.617C151.938 347.223 150.677 350.871 149.722 354.465L155.252 355.934ZM163.842 336.668C165.747 333.795 167.931 331.031 170.416 328.44L166.288 324.479C163.554 327.329 161.157 330.363 159.073 333.506L163.842 336.668ZM178.363 321.562C181.122 319.59 184.146 317.803 187.452 316.249L185.018 311.071C181.397 312.773 178.075 314.736 175.037 316.907L178.363 321.562ZM197.36 312.576C199.029 312.107 200.755 311.69 202.54 311.329L201.407 305.721C199.484 306.11 197.619 306.56 195.812 307.068L197.36 312.576ZM202.54 311.329C204.621 310.909 206.594 310.597 208.463 310.383L207.812 304.699C205.772 304.932 203.637 305.271 201.407 305.721L202.54 311.329ZM220.106 310.388C224.462 310.998 227.888 312.321 230.548 314.035L233.648 309.226C230.215 307.014 225.985 305.434 220.9 304.722L220.106 310.388ZM237.483 322.057C239.04 325.526 239.477 329.301 239.057 332.657L244.734 333.367C245.274 329.048 244.72 324.209 242.703 319.715L237.483 322.057ZM234.742 341.156C233.727 341.767 232.571 341.96 231.16 341.482L229.324 346.901C232.341 347.923 235.246 347.53 237.692 346.058L234.742 341.156ZM231.16 341.482C229.036 340.763 227.362 339.861 226.043 338.873L222.613 343.452C224.461 344.836 226.684 346.007 229.324 346.901L231.16 341.482ZM220.963 329.588C220.782 327.421 221.098 325.447 221.527 324.109L216.079 322.362C215.429 324.387 215.016 327.116 215.262 330.064L220.963 329.588ZM221.509 324.164C222.197 322.159 222.963 320.227 223.8 318.366L218.583 316.018C217.673 318.04 216.842 320.136 216.097 322.307L221.509 324.164ZM229.942 307.59C232.364 304.152 235.074 301.011 238.016 298.145L234.023 294.047C230.842 297.146 227.9 300.554 225.264 304.296L229.942 307.59ZM247.664 290.216C251.103 287.826 254.726 285.697 258.47 283.807L255.892 278.699C251.931 280.699 248.076 282.962 244.398 285.519L247.664 290.216ZM270.071 278.804C274.08 277.339 278.144 276.1 282.194 275.061L280.772 269.519C276.555 270.601 272.309 271.895 268.107 273.431L270.071 278.804ZM294.649 272.443C299.006 271.719 303.25 271.205 307.287 270.864L306.804 265.163C302.624 265.516 298.228 266.048 293.711 266.799L294.649 272.443ZM320.014 270.312C322.271 270.312 324.388 270.367 326.336 270.467L326.628 264.753C324.577 264.648 322.363 264.591 320.012 264.591L320.014 270.312Z" fill="#E4F1FF"/>
<path d="M282.549 282.227L264.275 290.98L277.289 276.265L282.549 282.227Z" fill="#4066C9"/>
<path d="M347.403 248.354L246.812 249.379L266.911 269.186L264.292 290.778L277.32 277.751L301.427 303.571L347.403 248.354Z" fill="#E4F1FF"/>
<path d="M266.918 269.2L264.275 290.993L277.171 277.801L347.455 248.277L266.918 269.2Z" fill="#ABC7F3"/>
<rect x="76.2676" y="245.85" width="103.869" height="125.396" rx="5.25975" fill="#505ACC"/>
<rect x="66.1035" y="255.987" width="103.869" height="125.396" rx="5.25975" fill="#FBD535"/>
<path d="M85.6328 281.888H150.444" stroke="white" stroke-width="4.62084" stroke-linecap="round"/>
<path d="M85.6328 293.017H150.444" stroke="white" stroke-width="4.62084" stroke-linecap="round"/>
<path d="M85.6328 304.911H121.363M150.444 304.911H130.392" stroke="white" stroke-width="4.62084" stroke-linecap="round"/>
<path d="M85.6328 316.066H102.048M150.444 316.066H111.867" stroke="white" stroke-width="4.62084" stroke-linecap="round"/>
</g>
<ellipse cx="125.147" cy="401.999" rx="59.0438" ry="6.13385" fill="#4E78DA"/>
</g>
<defs>
<filter id="filter0_d_215_63" x="-21" y="-20" width="448" height="481" filterUnits="userSpaceOnUse" color-interpolation-filters="sRGB">
<feFlood flood-opacity="0" result="BackgroundImageFix"/>
<feColorMatrix in="SourceAlpha" type="matrix" values="0 0 0 0 0 0 0 0 0 0 0 0 0 0 0 0 0 0 127 0" result="hardAlpha"/>
<feOffset dx="3" dy="4"/>
<feGaussianBlur stdDeviation="12"/>
<feComposite in2="hardAlpha" operator="out"/>
<feColorMatrix type="matrix" values="0 0 0 0 0 0 0 0 0 0 0 0 0 0 0 0 0 0 0.07 0"/>
<feBlend mode="normal" in2="BackgroundImageFix" result="effect1_dropShadow_215_63"/>
<feBlend mode="normal" in="SourceGraphic" in2="effect1_dropShadow_215_63" result="shape"/>
</filter>
<filter id="filter1_f_215_63" x="-308.182" y="-48.1818" width="1008.36" height="1008.36" filterUnits="userSpaceOnUse" color-interpolation-filters="sRGB">
<feFlood flood-opacity="0" result="BackgroundImageFix"/>
<feBlend mode="normal" in="SourceGraphic" in2="BackgroundImageFix" result="shape"/>
<feGaussianBlur stdDeviation="134.091" result="effect1_foregroundBlur_215_63"/>
</filter>
<linearGradient id="paint0_linear_215_63" x1="199.951" y1="-8" x2="199.951" y2="432.601" gradientUnits="userSpaceOnUse">
<stop stop-color="#505ACB"/>
<stop offset="0.817708" stop-color="#658DE4"/>
</linearGradient>
<clipPath id="clip0_215_63">
<path d="M0 15C0 6.71573 6.71573 0 15 0H385C393.284 0 400 6.71573 400 15V418C400 426.284 393.284 433 385 433H15C6.71574 433 0 426.284 0 418V15Z" fill="white"/>
</clipPath>
<clipPath id="clip1_215_63">
<rect width="400" height="204" fill="white" transform="translate(0 229)"/>
</clipPath>
</defs>
</svg>
