<svg width="400" height="433" viewBox="0 0 400 433" fill="none" xmlns="http://www.w3.org/2000/svg">
<g clip-path="url(#clip0_3_7570)">
<rect width="400" height="433" rx="15" fill="#505ACC"/>
<g filter="url(#filter0_f_3_7570)">
<path d="M452 486C452 616.339 346.339 722 216 722C85.6608 722 -20 616.339 -20 486C-20 355.661 85.6608 250 216 250C346.339 250 452 355.661 452 486Z" fill="#6EA9E4" fill-opacity="0.86"/>
</g>
<g clip-path="url(#clip1_3_7570)">
<mask id="mask0_3_7570" style="mask-type:alpha" maskUnits="userSpaceOnUse" x="0" y="-8" width="401" height="441">
<rect y="-8" width="400.007" height="440.715" rx="12.1706" fill="url(#paint0_linear_3_7570)"/>
</mask>
<g mask="url(#mask0_3_7570)">
<path d="M150.265 298.207C70.7635 260.185 10.5617 301.568 -9.60156 327.012V450.872H422.469V223.315C421.509 185.389 416.708 128.836 405.186 206.032C390.784 302.528 249.641 345.735 150.265 298.207Z" fill="#CAD2FF" fill-opacity="0.29"/>
</g>
<ellipse cx="200.003" cy="385.354" rx="106.179" ry="6.01371" fill="#4E78DA"/>
<path d="M72.6533 293.437C78.4607 299.439 92.7779 317.186 103.588 340.157" stroke="#45EA8E" stroke-width="2.8436"/>
<path d="M52.238 265.234C71.5551 270.747 75.4073 287.869 74.8197 296.17C57.131 292.212 50.6341 277.399 49.1144 267.955C48.8239 266.15 50.4792 264.732 52.238 265.234Z" fill="#45EA8E"/>
<path d="M90.6112 276.208C96.6681 293.24 86.421 300.328 80.1781 301.761C77.9851 288.205 82.7547 279.425 86.8515 275.237C88.0673 273.995 90.0286 274.57 90.6112 276.208Z" fill="#45EA8E"/>
<path d="M103.478 292.286C108.528 309.643 97.8834 316.119 91.5673 317.185C90.1713 303.523 95.4466 295.037 99.7813 291.096C101.068 289.927 102.992 290.617 103.478 292.286Z" fill="#45EA8E"/>
<path d="M115.777 311.545C119.306 329.274 108.141 334.805 101.756 335.32C101.548 321.589 107.538 313.591 112.198 310.04C113.581 308.987 115.438 309.84 115.777 311.545Z" fill="#45EA8E"/>
<path d="M55.0708 303.052C66.9537 296.779 76.7104 299.797 80.371 302.368C73.8382 312.168 62.5355 310.447 55.2144 307.33C53.3128 306.52 53.243 304.017 55.0708 303.052Z" fill="#45EA8E"/>
<path d="M62.3369 315.106C76.41 309.082 87.122 313.507 90.9615 316.778C82.5328 327.175 69.8458 323.773 62.073 319.432C60.2686 318.424 60.4368 315.919 62.3369 315.106Z" fill="#45EA8E"/>
<path d="M71.5244 333.187C85.5975 327.164 96.3095 331.589 100.149 334.86C91.7203 345.257 79.0333 341.855 71.2605 337.513C69.4561 336.505 69.6243 334.001 71.5244 333.187Z" fill="#45EA8E"/>
<path d="M318.145 323.681C314.393 329.066 305.514 344.629 300.012 363.804" stroke="#43EA8E" stroke-width="2.23446"/>
<path d="M330.443 299.24C316.151 305.94 315.311 319.705 316.809 326.07C330.033 320.78 333.214 308.475 333.208 300.959C333.207 299.521 331.745 298.63 330.443 299.24Z" fill="#43EA8E"/>
<path d="M302.05 312.568C299.489 326.54 308.327 330.752 313.349 331.08C313.349 320.29 308.548 314.077 304.844 311.343C303.745 310.532 302.296 311.224 302.05 312.568Z" fill="#43EA8E"/>
<path d="M294.09 326.654C292.351 340.752 301.421 344.44 306.454 344.474C305.822 333.702 300.665 327.781 296.808 325.268C295.664 324.522 294.257 325.299 294.09 326.654Z" fill="#43EA8E"/>
<path d="M286.965 343.138C286.453 357.334 295.807 360.223 300.825 359.821C299.263 349.144 293.613 343.691 289.553 341.522C288.348 340.878 287.014 341.773 286.965 343.138Z" fill="#43EA8E"/>
<path d="M332.99 328.931C322.986 325.556 315.796 329.121 313.279 331.575C319.576 338.357 328.128 335.604 333.416 332.267C334.789 331.4 334.529 329.45 332.99 328.931Z" fill="#43EA8E"/>
<path d="M328.865 339.195C317.193 336.288 309.439 341.065 306.871 344.084C314.714 351.091 324.128 346.86 329.613 342.517C330.886 341.509 330.441 339.587 328.865 339.195Z" fill="#43EA8E"/>
<path d="M324.006 354.374C312.334 351.468 304.58 356.244 302.012 359.263C309.855 366.271 319.269 362.04 324.754 357.697C326.027 356.688 325.582 354.767 324.006 354.374Z" fill="#43EA8E"/>
<rect x="98.3105" y="249.337" width="203.385" height="134.938" rx="8.98092" fill="#0A2D4D"/>
<rect x="108.072" y="254.274" width="178.075" height="125.065" fill="#CCD0FF"/>
<circle cx="293.839" cy="316.807" r="5.66151" fill="#E7F0F4" fill-opacity="0.1"/>
<mask id="mask1_3_7570" style="mask-type:alpha" maskUnits="userSpaceOnUse" x="108" y="254" width="179" height="126">
<rect x="108.072" y="254.274" width="178.075" height="125.065" fill="#DCDFFF"/>
</mask>
<g mask="url(#mask1_3_7570)">
<path d="M289.419 287.596H108.878H99.0176V248.156H289.419V287.596Z" fill="#EAECFF"/>
</g>
<path d="M156.754 306.295H237.464" stroke="white" stroke-width="4.08774" stroke-linecap="round"/>
<path d="M156.754 316.195H237.464" stroke="white" stroke-width="4.08774" stroke-linecap="round"/>
<path d="M156.754 346.025H237.464" stroke="white" stroke-width="4.08774" stroke-linecap="round"/>
<path d="M156.754 326.429H201.25M237.464 326.429H212.494" stroke="white" stroke-width="4.08774" stroke-linecap="round"/>
<path d="M156.754 336.194H177.196M237.464 336.194H189.424" stroke="white" stroke-width="4.08774" stroke-linecap="round"/>
<circle cx="262.601" cy="271.565" r="11.2887" fill="#43EA8E"/>
<path fill-rule="evenodd" clip-rule="evenodd" d="M254.033 276.974C254.647 273.684 257.108 271.045 260.299 270.173C260.754 270.975 261.615 271.515 262.603 271.515C263.59 271.515 264.451 270.975 264.907 270.174C268.097 271.046 270.558 273.685 271.171 276.975C269.483 279.961 266.278 281.977 262.602 281.977C258.926 281.977 255.722 279.961 254.033 276.974Z" fill="#505ACC"/>
<circle cx="262.602" cy="268.901" r="2.1334" fill="#FDDEBF"/>
<path d="M119.293 266.769H137.731" stroke="#505ACC" stroke-width="2.65703" stroke-linecap="round"/>
<path d="M119.293 272.31H137.731" stroke="#505ACC" stroke-width="2.65703" stroke-linecap="round"/>
<path d="M119.293 277.819H137.731" stroke="#505ACC" stroke-width="2.65703" stroke-linecap="round"/>
</g>
</g>
<defs>
<filter id="filter0_f_3_7570" x="-288.182" y="-18.1818" width="1008.36" height="1008.36" filterUnits="userSpaceOnUse" color-interpolation-filters="sRGB">
<feFlood flood-opacity="0" result="BackgroundImageFix"/>
<feBlend mode="normal" in="SourceGraphic" in2="BackgroundImageFix" result="shape"/>
<feGaussianBlur stdDeviation="134.091" result="effect1_foregroundBlur_3_7570"/>
</filter>
<linearGradient id="paint0_linear_3_7570" x1="200.003" y1="-8" x2="200.003" y2="432.715" gradientUnits="userSpaceOnUse">
<stop stop-color="#505ACB"/>
<stop offset="0.817708" stop-color="#658DE4"/>
</linearGradient>
<clipPath id="clip0_3_7570">
<rect width="400" height="433" rx="15" fill="white"/>
</clipPath>
<clipPath id="clip1_3_7570">
<rect width="400" height="206" fill="white" transform="translate(0 227)"/>
</clipPath>
</defs>
</svg>
