<svg width="400" height="433" viewBox="0 0 400 433" fill="none" xmlns="http://www.w3.org/2000/svg">
<g clip-path="url(#clip0_215_66)">
<rect width="400" height="433" rx="15" fill="#505ACC"/>
<g filter="url(#filter0_f_215_66)">
<path d="M432 456C432 586.339 326.339 692 196 692C65.6608 692 -40 586.339 -40 456C-40 325.661 65.6608 220 196 220C326.339 220 432 325.661 432 456Z" fill="#6EA9E4" fill-opacity="0.86"/>
</g>
<g clip-path="url(#clip1_215_66)">
<mask id="mask0_215_66" style="mask-type:alpha" maskUnits="userSpaceOnUse" x="0" y="-8" width="400" height="441">
<rect y="-8" width="399.903" height="440.601" rx="12.1675" fill="url(#paint0_linear_215_66)"/>
</mask>
<g mask="url(#mask0_215_66)">
<path d="M219.514 321.176C287.791 237.323 363.422 240.789 408.998 251.196V446.063L-13.0337 456.829L-25.9531 251.196H-13.0337C-41.0256 355.627 148.614 408.252 219.514 321.176Z" fill="#CAD2FF" fill-opacity="0.33"/>
</g>
<path d="M305.405 323.336C307.829 327.318 309.012 341.878 309.301 348.661L343.357 347.742C343.883 339.607 345.06 321.213 345.564 312.723C346.194 302.111 347.535 293.064 343.357 292.33C340.014 291.744 338.529 295.363 338.205 297.246L338.218 297.061C338.646 291.254 339.457 280.224 335.098 279.473C330.941 278.756 329.245 281.503 328.917 282.966C329.395 279.95 329.221 273.901 324.706 273.829C320.191 273.757 319.685 280.381 319.996 283.703C319.648 282.183 318.8 280.518 317.002 279.473C315.986 278.882 315.036 278.762 314.188 278.92C311.173 279.484 310.6 283.326 310.6 286.394V312.08C307.353 307.968 299.82 300.392 295.665 302.989C290.47 306.236 302.375 318.357 305.405 323.336Z" fill="#FDDEBF"/>
<path d="M346.992 345.357H306.197L302.731 365.464L298.449 432.566H341.121L346.992 345.357Z" fill="#FDD21B"/>
<path d="M260.948 280.326C262.128 286.23 264.877 299.226 271.885 312.632C278.133 324.586 267.215 341.363 258.223 344.088" stroke="#0A2D4D" stroke-width="1.96474"/>
<path d="M183.357 242.211C197.029 219.098 219.979 217.661 229.745 219.831C229.745 222.236 242.442 222.192 245.988 222.998C257.181 225.542 266.338 235.462 269.841 245.675C277.592 268.276 253.431 273.024 265.365 303.655C274.913 328.16 263.5 340.179 256.601 343.125L132.493 350.45C128.424 333.766 132.086 317.49 155.28 303.655C178.474 289.82 166.266 271.102 183.357 242.211Z" fill="#0B2F4E"/>
<path d="M301.482 402.931C289.732 354.888 243.266 328.153 221.502 320.791C219.876 325.759 216.69 336.22 216.951 338.308C217.212 340.397 261.229 382.26 283.205 402.931H301.482Z" fill="#FDD21B"/>
<path d="M222.234 327.231L222.234 301.596L194.704 276.314L177.079 317.465L168.046 321.534L163.977 329.673L177.079 341.949L199.948 346.231L214.83 343.569L229.588 341.949L229.588 333.151C225.574 331.463 226.761 328.994 222.234 327.231Z" fill="#FDDEBF"/>
<path fill-rule="evenodd" clip-rule="evenodd" d="M259.994 263.378C257.482 283.293 249.275 314.776 231.551 315.466C211.842 316.232 197.255 309.592 196.034 291.629C191.999 274.956 196.85 248.456 206.084 238.077C213.984 229.198 226.096 227.92 234.625 228.754C245.285 226.039 255.123 232.067 259.558 252.282C260.355 255.917 260.459 259.685 259.994 263.378Z" fill="#FDDEBF"/>
<path d="M201.609 305.535C209.823 312.456 217.247 315.169 222.356 315.206L222.356 324.735C208.531 316.055 205.208 309.687 201.609 305.535Z" fill="#EBB47E"/>
<path d="M222.67 327.008C198.897 336.409 182.847 324.405 177.794 317.228C110.222 341.147 91.2389 411.181 87.1699 432.92H302.997C286.621 386.911 240.398 333.117 222.67 327.008Z" fill="#FDD21B"/>
<path d="M174.273 428.304H332.252" stroke="#505ACC" stroke-width="9.0507" stroke-linecap="round"/>
<path d="M244.067 359.143L222.41 426.28L336.662 428.964L357.857 361.585C358.672 358.993 356.737 356.355 354.02 356.355H247.895C246.15 356.355 244.603 357.482 244.067 359.143Z" fill="#505ACC"/>
<path d="M242.426 247.037C237.145 243.031 233.777 230.552 233.777 226.427L245.996 226.427C248.825 226.427 262.97 246.466 269.689 256.485C267.214 263.44 259.517 279.628 259.517 271.686C259.517 259.629 251.932 254.247 242.426 247.037Z" fill="#0A2D4D"/>
<path d="M196.183 261.439C223.361 266.568 239.198 240.787 244.621 231.122C243.913 227.232 236.448 217.798 225.132 215.817C210.987 213.342 184.111 225.012 178.1 254.717C173.29 278.48 185.762 264.618 192.598 254.717L196.183 261.439Z" fill="#0A2D4D"/>
<path d="M220.724 216.46C213.297 214.062 194.914 215.393 180.802 239.903C163.162 270.541 176.624 283.539 159.216 297.465C141.808 311.392 135.077 316.266 132.988 332.049" stroke="#0A2D4D" stroke-width="1.96474"/>
<circle cx="197.201" cy="269.034" r="9.06107" transform="rotate(16.7972 197.201 269.034)" fill="#FDDEBF"/>
<path d="M201.23 271.724C200.932 269.88 199.103 265.698 194.178 263.713" stroke="#EBB47E" stroke-width="1.47355" stroke-linecap="round"/>
<path d="M197.982 266.183C196.476 266.617 193.238 268.321 192.334 271.657" stroke="#EBB47E" stroke-width="1.47355" stroke-linecap="round"/>
<path d="M319.967 302.411V284.615" stroke="#EBB47E" stroke-width="1.47355" stroke-linecap="round"/>
<path d="M328.867 301.731V283.935" stroke="#EBB47E" stroke-width="1.47355" stroke-linecap="round"/>
<path d="M338.052 297.577V308.468M341.238 307.994C338.372 307.938 333.963 309.87 329.879 316.298" stroke="#EBB47E" stroke-width="1.47355" stroke-linecap="round"/>
<path d="M310.781 312.111C314.702 313.059 323.503 317.012 327.345 325.244" stroke="#EBB47E" stroke-width="1.47355" stroke-linecap="round"/>
<path d="M251.353 280.669C248.699 280.686 246.672 281.78 245.22 283.136C242.926 285.275 243.001 289.181 245.845 290.504C248.926 291.938 253.192 291.683 255.538 290.377C259.028 288.434 257.943 280.627 251.353 280.669Z" fill="#FEB7A1"/>
<path d="M218.274 278.708C215.518 278.726 213.467 279.955 212.057 281.402C210.17 283.338 210.194 286.643 212.573 287.928C215.547 289.535 219.929 289.33 222.287 288.017C225.634 286.154 224.593 278.668 218.274 278.708Z" fill="#FEB7A1"/>
<path d="M174.273 328.275C180.212 333.888 198.287 342.917 223.081 334.132" stroke="#FDE46E" stroke-width="2.94711" stroke-linecap="round"/>
<circle cx="227.877" cy="331.725" r="1.31303" fill="#FDE46E"/>
<path fill-rule="evenodd" clip-rule="evenodd" d="M56.7294 270.369C43.9875 270.369 33.6582 280.698 33.6582 293.44C33.6582 306.182 43.9875 316.511 56.7294 316.511H85.9325C89.6321 319.462 94.6827 322.847 101.264 326.184C99.3606 324.346 96.3013 320.646 94.4386 316.411C106.166 315.321 115.346 305.452 115.346 293.44C115.346 280.698 105.017 270.369 92.2753 270.369H56.7294Z" fill="#43EA8E"/>
<circle cx="60.3902" cy="294.558" r="3.01911" fill="#505ACC"/>
<circle cx="74.5015" cy="294.558" r="3.01911" fill="#505ACC"/>
<circle cx="88.6129" cy="294.558" r="3.01911" fill="#505ACC"/>
<rect x="88.9141" y="232.658" width="52.1198" height="52.1198" rx="4.24033" fill="#CAD2FF"/>
<rect x="96.2559" y="254.299" width="8.78879" height="20.67" fill="#9FA8FB"/>
<rect x="110.58" y="248.277" width="8.78879" height="26.6919" fill="#9FA8FB"/>
<rect x="124.902" y="242.743" width="8.78879" height="32.2256" fill="#505ACC"/>
</g>
</g>
<defs>
<filter id="filter0_f_215_66" x="-308.182" y="-48.1818" width="1008.36" height="1008.36" filterUnits="userSpaceOnUse" color-interpolation-filters="sRGB">
<feFlood flood-opacity="0" result="BackgroundImageFix"/>
<feBlend mode="normal" in="SourceGraphic" in2="BackgroundImageFix" result="shape"/>
<feGaussianBlur stdDeviation="134.091" result="effect1_foregroundBlur_215_66"/>
</filter>
<linearGradient id="paint0_linear_215_66" x1="199.951" y1="-8" x2="199.951" y2="432.601" gradientUnits="userSpaceOnUse">
<stop stop-color="#505ACB"/>
<stop offset="0.817708" stop-color="#658DE4"/>
</linearGradient>
<clipPath id="clip0_215_66">
<rect width="400" height="433" rx="15" fill="white"/>
</clipPath>
<clipPath id="clip1_215_66">
<rect width="400" height="220" fill="white" transform="translate(0 213)"/>
</clipPath>
</defs>
</svg>
