<svg width="400" height="433" viewBox="0 0 400 433" fill="none" xmlns="http://www.w3.org/2000/svg">
<g clip-path="url(#clip0_215_68)">
<rect width="400" height="433" rx="15" fill="#505ACC"/>
<g filter="url(#filter0_f_215_68)">
<path d="M432 456C432 586.339 326.339 692 196 692C65.6608 692 -40 586.339 -40 456C-40 325.661 65.6608 220 196 220C326.339 220 432 325.661 432 456Z" fill="#6EA9E4" fill-opacity="0.86"/>
</g>
<g clip-path="url(#clip1_215_68)">
<mask id="mask0_215_68" style="mask-type:alpha" maskUnits="userSpaceOnUse" x="0" y="-8" width="400" height="441">
<rect y="-8" width="399.903" height="440.601" rx="12.1675" fill="url(#paint0_linear_215_68)"/>
</mask>
<g mask="url(#mask0_215_68)">
<path d="M288.641 299.64C358.973 275.851 415.86 331.703 421.031 334.806V439.27H0.0733643C-6.47717 419.273 -17.7165 374.523 -10.2696 355.492C-0.960938 331.703 63.1653 277.92 134.532 334.806C205.898 391.692 218.31 323.429 288.641 299.64Z" fill="#CAD2FF" fill-opacity="0.27"/>
</g>
<ellipse cx="225.461" cy="395.781" rx="77.1913" ry="8.54321" fill="#4E78DA"/>
<ellipse cx="98.3984" cy="394.176" rx="35.2832" ry="7.69064" fill="#4E78DA"/>
<path d="M128.256 294.11C119.377 291.277 104.759 273.255 113.038 265.493C123.29 255.88 135.763 289.915 102.741 283.623C101.954 283.473 101.208 283.301 100.502 283.106" stroke="#F0A2A2" stroke-width="4.78817" stroke-linecap="round"/>
<path d="M150.117 371.736L148.27 357.516L178.174 353.631L180.019 367.834C180.218 369.369 179.522 370.901 178.154 371.627C168.852 376.564 158.662 376.12 152.873 374.877C151.369 374.554 150.315 373.262 150.117 371.736Z" fill="#FFC8CB"/>
<path d="M185.355 366.818L183.508 352.598L213.412 348.714L215.257 362.917C215.457 364.451 214.76 365.983 213.393 366.709C204.09 371.646 193.9 371.202 188.112 369.96C186.607 369.637 185.553 368.344 185.355 366.818Z" fill="#F2A1A5"/>
<path d="M219.933 374.095L217.632 356.383L250.525 351.061L252.958 369.789C253.161 371.351 252.434 372.904 251.035 373.627C240.588 379.026 229.138 378.572 222.758 377.269C221.223 376.956 220.135 375.649 219.933 374.095Z" fill="#FFC8CB"/>
<path d="M268.324 366.487L265.956 348.257L296.003 331.796L299.973 362.358C300.167 363.857 299.507 365.356 298.194 366.104C288.197 371.79 277.129 371.11 270.984 369.605C269.525 369.248 268.517 367.977 268.324 366.487Z" fill="#FFC8CB"/>
<path d="M219.933 374.095L217.632 356.383L250.525 351.061L252.958 369.789C253.161 371.351 252.434 372.904 251.035 373.627C240.588 379.026 229.138 378.572 222.758 377.269C221.223 376.956 220.135 375.649 219.933 374.095Z" fill="#FFC8CB"/>
<path d="M268.324 366.487L265.956 348.257L296.003 331.796L299.973 362.358C300.167 363.857 299.507 365.356 298.194 366.104C288.197 371.79 277.129 371.11 270.984 369.605C269.525 369.248 268.517 367.977 268.324 366.487Z" fill="#FFC8CB"/>
<mask id="mask1_215_68" style="mask-type:alpha" maskUnits="userSpaceOnUse" x="265" y="331" width="36" height="40">
<path d="M268.324 366.487L265.956 348.257L296.003 331.796L299.973 362.358C300.167 363.857 299.507 365.356 298.194 366.104C288.197 371.79 277.129 371.11 270.984 369.605C269.525 369.248 268.517 367.977 268.324 366.487Z" fill="#FFC8CB"/>
</mask>
<g mask="url(#mask1_215_68)">
<path d="M302.017 335.289C294.498 349.435 274.792 358.031 265.878 360.56L261.33 345.556L286.39 326.705C294.732 323.672 309.537 321.143 302.017 335.289Z" fill="#F2A1A5"/>
</g>
<mask id="mask2_215_68" style="mask-type:alpha" maskUnits="userSpaceOnUse" x="148" y="353" width="33" height="23">
<path d="M150.117 371.734L148.27 357.514L178.174 353.63L180.019 367.833C180.218 369.368 179.522 370.9 178.154 371.625C168.852 376.563 158.662 376.119 152.873 374.876C151.369 374.553 150.315 373.261 150.117 371.734Z" fill="#FFC8CB"/>
</mask>
<g mask="url(#mask2_215_68)">
<path d="M182.024 367.607C171.411 370.225 153.597 365.482 146.016 362.783L144.811 357.959L146.016 351.24C154.516 352.963 171.79 356.443 172.893 356.581C174.271 356.753 195.29 364.333 182.024 367.607Z" fill="#F2A1A5"/>
</g>
<mask id="mask3_215_68" style="mask-type:alpha" maskUnits="userSpaceOnUse" x="217" y="351" width="36" height="28">
<path d="M219.933 374.095L217.632 356.383L250.525 351.06L252.958 369.788C253.161 371.35 252.434 372.904 251.035 373.627C240.588 379.026 229.138 378.571 222.758 377.269C221.223 376.955 220.135 375.649 219.933 374.095Z" fill="#FFC8CB"/>
</mask>
<g mask="url(#mask3_215_68)">
<path d="M256.29 361.805C246.077 369.89 225.417 370.364 216.364 369.591L214.759 357.236L245.249 348.51C253.185 349.573 266.503 353.721 256.29 361.805Z" fill="#F2A1A5"/>
</g>
<path d="M129.19 282.614C119.979 308.663 127.185 331.078 137.46 347.014C145.642 359.703 160.552 365.628 175.629 366.411C213.117 368.359 250.155 366.284 274.931 354.558C283.461 350.521 290.567 343.906 295.578 335.909C309.609 313.517 308.612 290.457 303.478 273.441C299.361 259.797 288.876 248.97 275.779 243.35C235.445 226.04 189.074 238.025 158.704 252.137C145.396 258.322 134.083 268.778 129.19 282.614Z" fill="#FFC8CB"/>
<path d="M217.596 266.722C217.614 266.733 217.632 266.743 217.649 266.753C217.626 266.756 217.609 266.745 217.596 266.722C216.197 265.939 211.635 264.834 204.067 266.465C205.295 266.219 212.343 229.068 228.372 229.243C224.485 241.512 217.031 265.74 217.596 266.722Z" fill="#F49DA5"/>
<path d="M227.591 229.549C217.68 230.344 216.616 255.121 217.323 267.41C227.097 259.245 241.518 259.89 247.507 261.232C244.998 250.34 237.502 228.754 227.591 229.549Z" fill="#F9BEC2"/>
<path d="M257.024 260.277C263.946 258.785 268.177 259.899 269.426 260.643L287.585 225.419C272.521 222.829 260.934 247.578 257.024 260.277Z" fill="#F2A1A5"/>
<path d="M298.171 262.331C292.853 253.895 276.512 257.709 269.007 260.671C271.797 248.502 279.553 224.393 288.253 225.306C296.954 226.219 298.491 250.37 298.171 262.331Z" fill="#F9BEC2"/>
<circle cx="283.784" cy="286.323" r="3.20611" transform="rotate(-7.40079 283.784 286.323)" fill="#E0888A"/>
<circle cx="254.495" cy="290.127" r="3.20611" transform="rotate(-7.40079 254.495 290.127)" fill="#E0888A"/>
<rect x="252.482" y="299.532" width="36.84" height="22.243" rx="11.1215" transform="rotate(-7.40079 252.482 299.532)" fill="#E0888A"/>
<mask id="mask4_215_68" style="mask-type:alpha" maskUnits="userSpaceOnUse" x="124" y="234" width="183" height="134">
<path d="M129.19 282.614C119.979 308.663 127.185 331.078 137.46 347.014C145.642 359.703 160.552 365.628 175.629 366.412C213.117 368.359 250.155 366.284 274.931 354.558C283.461 350.521 290.567 343.907 295.578 335.909C309.609 313.517 308.612 290.458 303.478 273.441C299.361 259.797 288.876 248.97 275.779 243.35C235.445 226.041 189.074 238.025 158.704 252.138C145.396 258.322 134.083 268.778 129.19 282.614Z" fill="#FFC8CB"/>
</mask>
<g mask="url(#mask4_215_68)">
<path d="M262.51 361.169C169.508 370.702 133.287 312.914 126.802 282.828L113.181 300.516L104.091 353.092L238.596 390.656C285.318 376.855 355.512 351.636 262.51 361.169Z" fill="#FEA8B0" fill-opacity="0.38"/>
</g>
<rect x="253.914" y="300.672" width="36.84" height="22.243" rx="11.1215" transform="rotate(-7.40079 253.914 300.672)" fill="#FDB6BB"/>
<rect x="276.533" y="305.047" width="3.32562" height="5.86529" rx="1.66281" transform="rotate(-7.40079 276.533 305.047)" fill="#E0888A"/>
<rect x="267.396" y="306.233" width="3.32562" height="5.86529" rx="1.66281" transform="rotate(-7.40079 267.396 306.233)" fill="#E0888A"/>
<path d="M204.228 249.654C195.44 249.799 172.422 253.087 150.652 265.087" stroke="#F0A2A2" stroke-width="5.5862" stroke-linecap="round"/>
<circle cx="177.414" cy="237.492" r="23.3871" fill="#EBC731"/>
<circle cx="172.907" cy="237.492" r="23.3871" fill="#FDD21B"/>
<path d="M196.287 253.273C184.192 254.431 170.607 259.171 165.326 261.395L166.211 265.416C174.172 263.888 190.256 260.8 190.899 260.672C191.703 260.511 211.406 251.826 196.287 253.273Z" fill="#FFC8CB"/>
<ellipse cx="98.298" cy="391.712" rx="29.4797" ry="5.22705" fill="#FDD21B"/>
<path d="M127.778 391.86V357.307H68.8184V391.86H127.778Z" fill="#FDD21B"/>
<ellipse cx="98.298" cy="357.343" rx="29.4797" ry="5.22705" fill="#FFEEE0"/>
<path d="M126.742 366.786C123.464 368.999 111.755 370.624 98.2677 370.624C84.5576 370.624 72.8513 368.83 69.8516 366.529" stroke="#FFEDE0" stroke-width="2.65635" stroke-linecap="round"/>
<path d="M126.744 375.74C123.466 377.952 111.757 379.578 98.2697 379.578C84.5595 379.578 72.8533 377.784 69.8535 375.483" stroke="#FFEDE0" stroke-width="2.65635" stroke-linecap="round"/>
<path d="M126.742 384.693C123.464 386.906 111.755 388.532 98.2677 388.532C84.5576 388.532 72.8513 386.737 69.8516 384.437" stroke="#FFEDE0" stroke-width="2.65635" stroke-linecap="round"/>
<path d="M167.998 214.626C173.629 213.004 186.622 213.193 193.541 226.924" stroke="#FFEDE0" stroke-width="2.04334" stroke-linecap="round"/>
<path d="M165.27 243.61L168.516 241.752L170.356 244.967L167.11 246.825L168.249 248.815L171.495 246.958L173.913 251.183L176.516 249.693L174.097 245.468L179.395 242.436L178.255 240.446L172.958 243.478L171.118 240.263L174.333 238.423C179.569 235.426 180.612 231.496 178.632 228.036C176.722 224.698 173.338 222.977 167.214 226.481C165.867 227.253 162.84 229.066 161.646 229.75L167.376 239.762L164.131 241.62L165.27 243.61ZM168.861 228.791C172.26 226.846 174.527 227.255 175.981 229.797C177.453 232.369 176.256 234.68 173.102 236.485L169.979 238.273L165.65 230.71C166.643 230.101 168.004 229.281 168.861 228.791Z" fill="#FFEDE0"/>
</g>
</g>
<defs>
<filter id="filter0_f_215_68" x="-308.182" y="-48.1818" width="1008.36" height="1008.36" filterUnits="userSpaceOnUse" color-interpolation-filters="sRGB">
<feFlood flood-opacity="0" result="BackgroundImageFix"/>
<feBlend mode="normal" in="SourceGraphic" in2="BackgroundImageFix" result="shape"/>
<feGaussianBlur stdDeviation="134.091" result="effect1_foregroundBlur_215_68"/>
</filter>
<linearGradient id="paint0_linear_215_68" x1="199.951" y1="-8" x2="199.951" y2="432.601" gradientUnits="userSpaceOnUse">
<stop stop-color="#505ACB"/>
<stop offset="0.817708" stop-color="#658DE4"/>
</linearGradient>
<clipPath id="clip0_215_68">
<rect width="400" height="433" rx="15" fill="white"/>
</clipPath>
<clipPath id="clip1_215_68">
<rect width="400" height="224" fill="white" transform="translate(0 209)"/>
</clipPath>
</defs>
</svg>
