<svg width="400" height="433" viewBox="0 0 400 433" fill="none" xmlns="http://www.w3.org/2000/svg">
<g clip-path="url(#clip0_3_7679)">
<path d="M-18.3065 374.34C-18.3065 374.34 25.1982 402.245 88.0196 364.14C132.868 336.042 172.971 352.079 195.311 361.702C217.652 371.324 249.902 377.226 311.338 461.968C311.338 461.968 331.326 488.526 364.333 503.088C397.339 517.651 413.213 510.53 439.164 480.636C465.116 450.742 482.123 417.641 529.827 439.259V739.77L-22.5898 496.417V372.383L-18.3065 374.34Z" fill="#F5F6FF" fill-opacity="0.28"/>
<path d="M194.525 363.216V591.782" stroke="#E9EAF2" stroke-width="0.994324" stroke-miterlimit="10"/>
<path d="M-22.5898 372.387C75.4216 418.799 89.2793 313.882 196.067 360.968C302.855 408.054 288.116 469.414 366.936 504.183C445.757 538.952 447.605 403.147 529.827 439.423" stroke="#E9EAF2" stroke-opacity="0.3" stroke-width="4.90747" stroke-miterlimit="10"/>
</g>
<defs>
<clipPath id="clip0_3_7679">
<rect width="400" height="433" fill="white"/>
</clipPath>
</defs>
</svg>
