<svg width="228" height="237" viewBox="0 0 228 237" fill="none" xmlns="http://www.w3.org/2000/svg">
<path d="M224.795 26.7693C222.256 24.0391 219.488 22.9745 217.727 22.9745L213.254 31.5778C146.323 71.7799 12.873 153.674 14.521 159.632C16.169 165.59 21.9977 168.069 24.706 168.564H218.929C223.939 168.564 228 164.503 228 159.493V37.3782C228 33.5593 227.397 29.5654 224.795 26.7693Z" fill="#2E38A8"/>
<rect x="14.2256" y="22.9626" width="210.151" height="141.921" rx="7.04401" fill="#505ACC"/>
<path d="M50.9555 64.877C92.6922 82.0276 100.554 107.619 99.0003 118.909C118.177 139.875 145.889 174.502 103.321 145.281C67.5707 120.74 50.5455 89.4504 44.4163 70.7327C43.0817 66.6568 46.9886 63.2469 50.9555 64.877Z" fill="#4ED98D"/>
<mask id="mask0_3_8615" style="mask-type:alpha" maskUnits="userSpaceOnUse" x="44" y="64" width="82" height="93">
<path d="M50.9545 64.8764C92.6913 82.027 100.553 107.619 98.9993 118.908C118.176 139.874 145.888 174.502 103.32 145.28C67.5697 120.739 50.5446 89.4497 44.4153 70.732C43.0807 66.6562 46.9876 63.2463 50.9545 64.8764Z" fill="#4ED98D"/>
</mask>
<g mask="url(#mask0_3_8615)">
<path d="M88.9026 127.587C77.0074 97.5396 59.7911 72.2765 52.6699 63.4008L61.0215 62.3732L110.121 111.267C108.004 129.226 100.798 157.634 88.9026 127.587Z" fill="#1F35A8" fill-opacity="0.12"/>
</g>
<mask id="mask1_3_8615" style="mask-type:alpha" maskUnits="userSpaceOnUse" x="44" y="64" width="82" height="93">
<path d="M50.9545 64.8764C92.6913 82.027 100.553 107.619 98.9993 118.908C118.176 139.874 145.888 174.502 103.32 145.28C67.5697 120.739 50.5446 89.4497 44.4153 70.732C43.0807 66.6562 46.9876 63.2463 50.9545 64.8764Z" fill="#4ED98D"/>
</mask>
<g mask="url(#mask1_3_8615)">
<path d="M41.6575 61.2337L97.53 118.824" stroke="#DCFFEC" stroke-width="1.28408"/>
<path d="M86.1123 108.033C85.4663 107.934 68.1926 107.758 61.8898 107.543" stroke="#DCFFEC" stroke-width="1.28408"/>
<circle r="2.53744" transform="matrix(-0.988526 -0.151051 -0.151051 0.988526 79.9041 114.709)" stroke="#DCFFEC" stroke-width="1.28408"/>
<path d="M60.6807 81.0791L46.4776 79.7326" stroke="#DCFFEC" stroke-width="1.28408"/>
<path d="M64.8994 85.4113L48.4227 84.1824" stroke="#DCFFEC" stroke-width="1.28408"/>
<path d="M67.2513 87.7974L68.3036 72.0548" stroke="#DCFFEC" stroke-width="1.28408"/>
<path d="M77.999 98.8059C77.353 98.7072 64.5858 98.2517 58.283 98.0363" stroke="#DCFFEC" stroke-width="1.28408"/>
</g>
<path d="M109.201 99.071C115.432 86.1967 112.566 52.7227 68.2629 16.0502C64.6589 13.0668 59.3777 15.2544 59.1798 19.9289C58.0632 46.3084 63.964 98.0728 110.985 117.577C125.736 123.695 133.948 127.617 137.736 129.562C140.855 131.473 141.609 131.552 137.736 129.562C131.634 125.824 116.479 115.074 109.201 99.071Z" fill="#43EB8F"/>
<mask id="mask2_3_8615" style="mask-type:alpha" maskUnits="userSpaceOnUse" x="59" y="11" width="68" height="143">
<path d="M63.5434 12.2547C112.491 50.4337 118.655 86.633 112.209 99.9503C126.846 132.135 139.568 183.228 100.421 132.283C63.8491 84.6908 57.9075 36.1215 59.6223 13.9043C59.7723 11.9606 62.0062 11.0558 63.5434 12.2547Z" fill="#3EF993"/>
</mask>
<g mask="url(#mask2_3_8615)">
<path d="M62.6888 15.0356L103.709 100.325" stroke="#D3FFE7" stroke-width="1.38681"/>
<path d="M75.9592 42.3904L80.4551 25.9841" stroke="#D3FFE7" stroke-width="1.38681"/>
<path d="M77.7769 46.2009L82.8594 28.3943" stroke="#D3FFE7" stroke-width="1.38681"/>
<path d="M86.6823 64.9595L62.77 57.2093" stroke="#D3FFE7" stroke-width="1.38681"/>
<path d="M97.7289 87.7838L69.2288 78.9189" stroke="#D3FFE7" stroke-width="1.38681"/>
<circle r="2.89231" transform="matrix(-0.988526 -0.151051 -0.151051 0.988526 79.3015 72.9453)" stroke="#D3FFE7" stroke-width="1.38681"/>
<circle r="2.00183" transform="matrix(-0.988526 -0.151051 -0.151051 0.988526 73.2792 26.6188)" stroke="#D3FFE7" stroke-width="1.38681"/>
</g>
<mask id="mask3_3_8615" style="mask-type:alpha" maskUnits="userSpaceOnUse" x="0" y="15" width="225" height="150">
<rect y="15.9786" width="224.376" height="148.904" rx="7.04401" fill="#FF4E9C"/>
</mask>
<g mask="url(#mask3_3_8615)">
<path d="M138.015 77.3111C94.7244 84.5837 70.1436 122.342 64.5879 139.659L89.913 166.499L224.763 168.014L229.525 154.161C228.515 143.988 226.149 123.122 224.763 121.044C223.032 118.446 194.525 67.8177 138.015 77.3111Z" fill="#FFC945"/>
</g>
<path d="M97.1753 160.261C98.7409 154.459 102.154 140.33 103.282 130.235" stroke="#E7B743" stroke-width="2.8176" stroke-linecap="round"/>
<rect x="44.7002" y="158.9" width="55.0216" height="77.6819" rx="4.22641" fill="#E4F1FF"/>
<mask id="mask4_3_8615" style="mask-type:alpha" maskUnits="userSpaceOnUse" x="44" y="158" width="56" height="79">
<rect x="44.6992" y="158.9" width="55.0216" height="77.6819" rx="4.22641" fill="#E4F1FF"/>
</mask>
<g mask="url(#mask4_3_8615)">
<path d="M104.484 182.011H42.627L41.6807 157.055H104.484V182.011Z" fill="#A1A9FF" fill-opacity="0.76"/>
</g>
<path d="M107.701 31.9753L107.664 31.7674C113.805 16.0924 137.292 16.0955 146.18 20.5394C155.135 36.8338 159.748 74.2542 135.67 74.739C115.324 75.1487 110.414 47.3419 107.701 31.9753Z" fill="#FDDEBF"/>
<path d="M119.416 28.9669C122.931 27.4964 126.679 25.5123 130.171 23.8991C134.795 21.7629 139.569 24.4476 142.072 28.8838C144.649 33.4503 148.033 38.1691 151.482 39.9168C157.139 42.7831 155.662 46.454 154.216 47.9312L155.848 56.4476C163.873 52.8762 163.426 43.1379 161.381 39.9168C159.337 36.6956 165.247 30.5324 160.885 27.1887C156.524 23.845 161.3 20.0215 156.573 10.1227C151.846 0.223804 140.66 6.85785 136.262 8.01914C131.864 9.18042 132.626 3.49333 125.458 3.14519C118.29 2.79704 116.863 11.8296 111.315 10.5947C104.657 9.11256 92.6204 12.355 95.8105 23.489C99.0006 34.6231 112.827 31.7228 119.416 28.9669Z" fill="#10243D"/>
<circle cx="154.535" cy="44.5978" r="5.28995" fill="#FDDEBF"/>
<path d="M133.121 83.4349L133.836 73.0146L133.121 68.5196L154.532 47.6862L167.017 79.8952C155.738 92.0727 140.306 87.283 133.121 83.4349Z" fill="#FDDEBF"/>
<path d="M88.9304 144.696C85.7787 137.319 79.9747 133.761 74.6491 132.244C68.8965 130.606 62.6471 133.041 60.9449 138.775C59.8778 142.369 59.4183 146.394 59.3212 148.95C59.3212 155.491 58.8907 169.777 59.3212 174.855C59.7458 179.863 63.7101 178.669 64.485 177.265C65.9997 181.671 69.0486 180.037 70.3837 178.669C70.5329 179.443 70.7418 180.139 71.0257 180.707C72.4715 183.599 75.3001 182.256 76.5337 181.223C76.6484 183.203 77.5836 187.024 80.4064 186.473C83.2293 185.922 84.0119 182.744 84.0504 181.223V158.982H93.4879C92.5574 154.712 91.1131 149.806 88.9304 144.696Z" fill="#FDDEBF"/>
<path d="M67.8024 132.259C64.5072 131.944 58.085 136.466 58.758 157.079" stroke="#F0C291" stroke-width="1.69056" stroke-linecap="round"/>
<path d="M64.7137 163.063V174.317C64.7137 176.185 63.996 178.397 62.1282 178.439C61.7158 178.448 61.2893 178.366 60.8682 178.152C59.664 177.54 59.3994 176.011 59.3994 174.66V166.775" stroke="#F0C291" stroke-width="1.69056" stroke-linecap="round"/>
<path d="M63.8955 177.878C64.5508 179.414 66.6039 181.961 69.5741 179.864V179.864C70.3516 179.315 70.7175 178.376 70.7175 177.425V163.501" stroke="#F0C291" stroke-width="1.69056" stroke-linecap="round"/>
<path d="M76.8126 164.883V181.817C76.7148 183.283 77.3843 186.259 80.8444 186.435C81.9441 186.491 82.8623 185.712 83.6161 184.493" stroke="#F0C291" stroke-width="1.69056" stroke-linecap="round"/>
<path d="M193.043 163.502C188.987 154.42 180.293 133.03 177.966 120.122" stroke="#E7B743" stroke-width="2.8176" stroke-linecap="round"/>
<path d="M180.473 132.844C178.14 132.014 172.502 128.835 168.611 122.762" stroke="#E7B743" stroke-width="2.8176" stroke-linecap="round"/>
<path d="M122.712 51.4597C121.617 51.9435 119.546 53.2654 120.275 54.4982C120.943 55.6291 122.486 54.9865 123.074 54.5932" stroke="#11243E" stroke-width="1.12783" stroke-linecap="round"/>
<circle r="1.06996" transform="matrix(-0.993384 0.114843 0.114843 0.993384 126.822 45.4255)" fill="#11243E"/>
<circle r="1.06996" transform="matrix(-0.993384 0.114843 0.114843 0.993384 117.077 48.5111)" fill="#11243E"/>
<path d="M142.632 50.3106C145.232 47.8462 142.553 41.3039 136.836 42.8063C130.317 44.5196 133.967 54.4272 140.186 51.8271C141.163 51.4184 142.016 50.8947 142.632 50.3106Z" fill="#FEB7A1"/>
<path d="M116.379 60.2069C118.306 58.3799 116.32 53.5297 112.082 54.6435C107.248 55.9137 109.954 63.2589 114.565 61.3312C115.289 61.0283 115.922 60.64 116.379 60.2069Z" fill="#FEB7A1"/>
<path d="M116.355 42.5626C115.304 42.5066 114.298 42.6217 113.197 43.5446" stroke="#11243E" stroke-width="1.12783" stroke-linecap="round"/>
<path d="M129.503 39.42C128.41 38.8712 126.572 38.731 124.987 39.4691" stroke="#11243E" stroke-width="1.12783" stroke-linecap="round"/>
<path d="M126.429 60.0887C127.787 59.7571 130.647 58.5236 131.222 56.2426" stroke="#11243E" stroke-width="1.12783" stroke-linecap="round"/>
<circle cx="56.1123" cy="194.739" r="3.28727" stroke="#505ACC" stroke-width="1.39803"/>
<path d="M60.0994 206.631L55.4472 211.195L52.5508 208.737" stroke="#3CEF8D" stroke-width="1.9653" stroke-linecap="round"/>
<path d="M60.0994 221.465L55.4472 226.029L52.5508 223.572" stroke="#3CEF8D" stroke-width="1.9653" stroke-linecap="round"/>
<path d="M68.3232 192.791H92.0937" stroke="#A1A9FF" stroke-width="2.1132" stroke-linecap="round"/>
<path d="M68.3232 197.29H81.5493" stroke="#A1A9FF" stroke-width="2.1132" stroke-linecap="round"/>
<path d="M68.584 206.696H92.3544" stroke="#A1A9FF" stroke-width="2.1132" stroke-linecap="round"/>
<path d="M68.584 211.195H81.81" stroke="#A1A9FF" stroke-width="2.1132" stroke-linecap="round"/>
<path d="M68.584 221.532H92.3544" stroke="#A1A9FF" stroke-width="2.1132" stroke-linecap="round"/>
<path d="M68.584 226.03H81.81" stroke="#A1A9FF" stroke-width="2.1132" stroke-linecap="round"/>
<path d="M70.2451 180.018C70.846 181.445 72.8813 183.747 76.2157 181.539" stroke="#F0C291" stroke-width="1.69056" stroke-linecap="round"/>
</svg>
