<svg width="449" height="155" viewBox="0 0 449 155" fill="none" xmlns="http://www.w3.org/2000/svg">
<rect width="448.278" height="154.868" rx="16" fill="white"/>
<mask id="mask0_208_64" style="mask-type:alpha" maskUnits="userSpaceOnUse" x="0" y="0" width="404" height="155">
<path d="M0 30.4759C0 13.6445 13.6445 0 30.4759 0H403.032V154.868H30.4758C13.6445 154.868 0 141.223 0 124.392V30.4759Z" fill="white"/>
</mask>
<g mask="url(#mask0_208_64)">
<path d="M155.522 110.209C82.9902 98.4068 44.3703 147.056 45.9261 163.132L400.559 158.438C420.006 47.9769 307.921 -9.82812 283.806 46.9582C259.691 103.745 184.658 114.949 155.522 110.209Z" fill="#F0F2FF"/>
<path d="M84.7338 93.0956C57.352 125.456 10.0559 106.579 -10.1695 93.0956C-25.2088 52.9043 -54.1984 -30.7455 -49.8422 -43.8141C-45.486 -56.8828 16.2789 -70.522 46.6168 -75.708C96.9206 -60.4093 187.882 -26.5449 149.299 -13.4762C101.069 2.85957 118.961 52.6448 84.7338 93.0956Z" fill="#F0F2FF"/>
</g>
<circle cx="192.973" cy="120.471" r="12.164" fill="#8E96F2"/>
<circle cx="193.789" cy="54.9904" r="32.7575" fill="#FFD35A"/>
<path d="M175.163 108.308C174.638 92.3527 171.768 79.4597 168.032 74.9893L193.462 69.2329L217.916 77.0803C208.998 85.5637 211.594 100.724 211.303 108.308H175.163Z" fill="#FFD35A"/>
<rect x="174.686" y="100.582" width="36.575" height="21.4069" rx="6.52098" fill="#505ACD"/>
<path d="M171.289 46.0183C173.421 40.5972 181.632 30.1936 197.42 31.9478" stroke="white" stroke-opacity="0.57" stroke-width="4.63406" stroke-linecap="round"/>
<path d="M197.868 100.582V91.3906C197.868 85.0308 199.729 78.8359 202.689 73.2069C205.534 67.7958 208.335 61.6188 208.943 57.6618C209.316 55.2417 209.03 52.276 206.862 52.473C204.154 52.7193 204.036 60.9692 200.952 61.4617C197.868 61.9543 200.817 51.2416 197.868 51.8573C194.918 52.473 195.534 61.4617 192.948 61.4617C190.363 61.4617 192.086 51.2416 189.008 51.8573C185.93 52.473 189.254 60.1072 186.422 61.4617C183.59 62.8162 183.344 52.8424 180.019 53.8275C176.695 54.8125 179.65 64.6632 181.004 68.4804C181.369 69.5089 182.145 70.9857 183.098 72.6112C186.654 78.6764 189.008 85.4352 189.008 92.466V100.582" stroke="white" stroke-width="1.95629"/>
<path d="M177.482 111.372H209.08" stroke="white" stroke-opacity="0.35" stroke-width="1.63024" stroke-linecap="round"/>
<path d="M177.482 106.489H209.08" stroke="white" stroke-opacity="0.35" stroke-width="1.63024" stroke-linecap="round"/>
<path d="M177.482 115.922H209.08" stroke="white" stroke-opacity="0.35" stroke-width="1.63024" stroke-linecap="round"/>
<path d="M244.197 50.0059L265.527 42.0308" stroke="#ADCFF4" stroke-width="5.71423" stroke-linecap="round"/>
<path d="M141.746 57.731L120.417 49.7559" stroke="#ADCFF4" stroke-width="5.71423" stroke-linecap="round"/>
<path d="M242.449 67.2249L270.603 69.9464" stroke="#ADCFF4" stroke-width="5.71423" stroke-linecap="round"/>
<path d="M143.497 74.95L115.342 77.6715" stroke="#ADCFF4" stroke-width="5.71423" stroke-linecap="round"/>
<path d="M237.248 85.4485L256.526 96.5131" stroke="#ADCFF4" stroke-width="5.71423" stroke-linecap="round"/>
<path d="M148.698 93.1736L129.419 104.238" stroke="#ADCFF4" stroke-width="5.71423" stroke-linecap="round"/>
</svg>
