<svg width="449" height="155" viewBox="0 0 449 155" fill="none" xmlns="http://www.w3.org/2000/svg">
<rect width="448.278" height="154.868" rx="16" fill="white"/>
<mask id="mask0_208_65" style="mask-type:alpha" maskUnits="userSpaceOnUse" x="0" y="0" width="411" height="155">
<path d="M0 31.3442C0 14.2045 13.8945 0.310059 31.0342 0.310059H410.415V154.868H31.0341C13.8944 154.868 0 140.973 0 123.834V31.3442Z" fill="white"/>
</mask>
<g mask="url(#mask0_208_65)">
<path d="M-24.0081 89.319C84.9438 91.92 132.358 28.2695 142.446 -3.88088L-24.0081 -23.3882C-69.4047 13.0971 -132.96 86.7179 -24.0081 89.319Z" fill="#E2E5FF" fill-opacity="0.53"/>
<path d="M145.689 86.0684C80.837 83.4674 43.7269 139.17 33.2783 167.347H402.936C433.2 51.3887 314.305 -16.8847 267.827 -12.5499C221.35 -8.21498 226.754 89.3196 145.689 86.0684Z" fill="#EDEFFF" fill-opacity="0.81"/>
</g>
<ellipse cx="257.52" cy="129.803" rx="30.133" ry="1.87699" fill="#B0B7FF"/>
<ellipse cx="227.469" cy="22.7577" rx="4.84815" ry="4.45322" fill="#E2E5FF"/>
<rect x="197.339" y="34.1436" width="103.379" height="81.5236" rx="3.46237" fill="#FDD21B"/>
<path fill-rule="evenodd" clip-rule="evenodd" d="M211.711 38.8349C212.029 44.2624 212.469 51.7649 219.062 60.431C222.284 64.6661 222.041 68.9166 219.783 72.0866H217.983C218.281 71.0503 218.42 69.8647 218.063 68.0149C217.969 68.3429 217.896 68.6838 217.82 69.0373C217.619 69.9683 217.4 70.9867 216.749 72.0866H197.339L200.449 45.7761C202.316 42.873 206.123 36.9674 206.421 36.5693C206.524 36.4319 206.949 36.0861 207.503 35.6359C208.553 34.7814 210.066 33.5508 210.718 32.6545C211.439 34.1938 211.561 36.2854 211.711 38.8349Z" fill="#11243E"/>
<path d="M287.653 52.3716H253.569" stroke="white" stroke-width="3.90867" stroke-linecap="round"/>
<path d="M287.653 64.4714H253.569" stroke="white" stroke-width="3.90867" stroke-linecap="round"/>
<path d="M287.653 77.0659H253.569" stroke="white" stroke-width="3.90867" stroke-linecap="round"/>
<path fill-rule="evenodd" clip-rule="evenodd" d="M168.681 39.4876C168.616 44.7969 168.527 52.0505 161.341 60.2079C157.289 64.8065 158.572 69.2236 159.633 72.0859H167.866C167.72 70.236 167.821 68.2015 168.536 66.6807C168.536 67.9327 168.782 70.1046 169.567 72.0859H182.243L179.133 45.7754C177.267 42.8723 173.459 36.9667 173.161 36.5686C173.057 36.4305 172.699 36.1826 172.233 35.8605C171.355 35.2537 170.097 34.3836 169.447 33.4895C168.736 35.0085 168.711 37.0417 168.681 39.4876Z" fill="#11243E"/>
<path d="M177.525 62.4141C171.596 53.6751 172.517 37.3323 173.297 30.3098C177.588 24.0673 179.164 21.5081 193.599 20.7279C208.034 19.9476 207.869 38.7411 205.919 53.9564C203.968 69.1717 184.938 73.3378 177.525 62.4141Z" fill="#FDDEBF"/>
<path d="M179.846 81.4588V62.8913L201.777 55.7393V81.4588H179.846Z" fill="#FDDEBF"/>
<path d="M183.957 74.9055C158.797 77.2912 143.981 107.622 140.13 127.799C139.713 129.986 141.157 132.058 143.333 132.526C184.333 141.329 223.519 136.832 241.785 132.67C244.059 132.152 245.412 129.865 244.828 127.607C236.627 95.9015 219.489 71.5362 183.957 74.9055Z" fill="#505ACC"/>
<path d="M169.403 46.15C180.641 42.404 190.554 29.8422 194.107 24.0296C195.667 20.8541 192.373 15.2217 180.536 19.6747C166.42 24.9852 168.003 39.2609 169.403 46.15Z" fill="#11243E"/>
<path d="M208.707 41.5385C199.822 37.5968 195.024 27.9703 193.411 22.9487C188.058 22.9487 180.564 22.3271 193.411 19.8402C210.789 16.4764 215.671 44.6278 208.707 41.5385Z" fill="#11243E"/>
<path d="M201.806 63.1455C197.412 68.7954 183.857 67.9335 179.818 65.0408V69.1798C187.682 69.8561 198.437 69.7157 201.806 63.1455Z" fill="#EBB47E"/>
<path d="M201.734 75.7396C194.219 80.3009 184.01 77.4606 179.818 75.56C180.725 74.7647 182.71 73.3448 183.079 73.2711C183.447 73.1974 195.625 72.1609 201.734 71.639V75.7396Z" fill="#FDDEBF"/>
<path d="M190.918 102.167C189.094 93.7745 182.758 80.9318 179.818 75.5596C190.857 79.9197 198.234 78.0471 201.783 75.7143C197.647 79.3629 192.945 94.8181 190.918 102.167Z" fill="#6F79EA"/>
<circle cx="236.236" cy="64.4709" r="4.32609" stroke="white" stroke-width="1.30289"/>
<circle cx="236.236" cy="77.0654" r="4.32609" stroke="white" stroke-width="1.30289"/>
<path d="M241.214 48.4937L235.731 53.8731L232.317 50.9766" stroke="#505ACC" stroke-width="2.08894" stroke-linecap="round"/>
<path d="M132.102 69.449C131.661 83.287 123.478 85.101 120.325 86.1519C128.591 86.5892 132.085 98.3416 132.102 103.017C132.102 93.2794 139.103 86.3678 143.47 86.1519C136.211 84.9502 131.917 75.4451 132.102 69.449Z" fill="#FF4F9C"/>
</svg>
