<svg width="190" height="186" viewBox="0 0 190 186" fill="none" xmlns="http://www.w3.org/2000/svg">
<path d="M175.128 154.556L32.4606 72.2017C31.0917 71.2511 29.5257 70.6222 27.8795 70.3621C26.2334 70.102 24.5497 70.2173 22.9544 70.6994V70.6994C22.3415 70.9402 21.7686 71.2723 21.2551 71.6845L5.3457 80.7967L17.6595 95.253V154.753C17.9342 159.894 19.4149 164.898 21.982 169.36C24.549 173.822 28.1302 177.618 32.436 180.44L76.8886 208.367L88.9561 236.024L76.2729 257.573L93.9801 247.5L110.776 227.971L164.365 257.031L167.271 274.27L185.323 263.927L185.816 263.656H185.988C187.372 262.552 188.459 261.12 189.151 259.49C189.844 257.861 190.119 256.085 189.953 254.322V180.44C189.704 175.261 188.23 170.214 185.653 165.715C183.076 161.216 179.469 157.392 175.128 154.556V154.556Z" fill="#505ACC"/>
<path opacity="0.2" d="M175.128 154.556L32.4606 72.2017C31.0917 71.2511 29.5257 70.6222 27.8795 70.3621C26.2334 70.102 24.5497 70.2173 22.9544 70.6994V70.6994C22.3415 70.9402 21.7686 71.2723 21.2551 71.6845L5.3457 80.7967L17.6595 95.253V154.753C17.9342 159.894 19.4149 164.898 21.982 169.36C24.549 173.822 28.1302 177.618 32.436 180.44L76.8886 208.367L88.9561 236.024L76.2729 257.573L93.9801 247.5L110.776 227.971L164.365 257.031L167.271 274.27L185.323 263.927L185.816 263.656H185.988C187.372 262.552 188.459 261.12 189.151 259.49C189.844 257.861 190.119 256.085 189.953 254.322V180.44C189.704 175.261 188.23 170.214 185.653 165.715C183.076 161.216 179.469 157.392 175.128 154.556V154.556Z" fill="black"/>
<path d="M157.419 164.685L14.7765 82.3302C6.60017 77.6017 0 81.4436 0 90.9006V164.783C0.274716 169.924 1.7555 174.928 4.32251 179.39C6.88953 183.852 10.4707 187.648 14.7765 190.47L59.2538 218.496L76.3206 257.579L93.1166 238.05L157.444 272.922C165.645 277.651 172.22 273.834 172.22 264.377V190.494C171.964 185.33 170.489 180.299 167.916 175.813C165.344 171.328 161.747 167.514 157.419 164.685V164.685Z" fill="#505ACC"/>
<path d="M46.9365 161.347C50.9296 159.042 50.9306 151.568 46.9386 144.653C42.9466 137.739 36.4733 134.003 32.4802 136.308C28.487 138.614 28.4862 146.088 32.4782 153.002C36.4702 159.916 42.9434 163.653 46.9365 161.347Z" fill="white"/>
<path d="M92.7979 186.263C96.8093 183.957 96.8251 176.458 92.8331 169.511C88.8411 162.565 82.353 158.803 78.3415 161.109C74.3301 163.414 74.3143 170.914 78.3063 177.86C82.2983 184.806 88.7864 188.568 92.7979 186.263Z" fill="white"/>
<path d="M131.546 210.22C135.539 207.915 135.54 200.441 131.548 193.526C127.556 186.612 121.083 182.876 117.09 185.181C113.096 187.487 113.096 194.961 117.088 201.875C121.08 208.789 127.553 212.526 131.546 210.22Z" fill="white"/>
<path d="M136.544 46.1055L58.5433 1.07987C57.7949 0.560156 56.9387 0.216334 56.0387 0.0741062C55.1387 -0.0681217 54.2182 -0.00507602 53.346 0.25853V0.25853C53.0109 0.390161 52.6977 0.571745 52.4169 0.797114L43.7188 5.77901L50.451 13.6827V46.2132C50.6012 49.0238 51.4108 51.7595 52.8143 54.1992C54.2178 56.6389 56.1757 58.714 58.5298 60.2568L82.8334 75.5256L89.4311 90.6464L82.4968 102.428L92.1779 96.9209L101.361 86.2434L130.66 102.132L132.248 111.557L142.118 105.902L142.387 105.754H142.482C143.238 105.15 143.832 104.367 144.211 103.476C144.589 102.585 144.74 101.614 144.649 100.651V60.2568C144.513 57.4252 143.707 54.6664 142.298 52.2065C140.889 49.7466 138.917 47.6558 136.544 46.1055V46.1055Z" fill="#FDD21B"/>
<path opacity="0.2" d="M136.544 46.1055L58.5433 1.07987C57.7949 0.560156 56.9387 0.216334 56.0387 0.0741062C55.1387 -0.0681217 54.2182 -0.00507604 53.346 0.25853C53.0109 0.390161 52.6977 0.571745 52.4169 0.797114L43.7188 5.77901L50.451 13.6827V46.2132C50.6012 49.0238 51.4108 51.7595 52.8143 54.1992C54.2178 56.6389 56.1757 58.714 58.5298 60.2568L82.8334 75.5256L89.4311 90.6464L82.4968 102.428L92.1779 96.9209L101.361 86.2434L130.66 102.132L132.248 111.557L142.118 105.902L142.387 105.754H142.482C143.238 105.15 143.832 104.367 144.211 103.476C144.589 102.585 144.74 101.614 144.649 100.651V60.2568C144.513 57.4252 143.707 54.6664 142.298 52.2065C140.889 49.7467 138.917 47.6558 136.544 46.1055Z" fill="black"/>
<path d="M126.859 51.6456L48.8717 6.62001C44.4015 4.03481 40.793 6.13528 40.793 11.3057V51.6995C40.9432 54.51 41.7528 57.2458 43.1562 59.6855C44.5597 62.1252 46.5176 64.2003 48.8717 65.743L73.1888 81.0658L82.5197 102.434L91.7026 91.7567L126.872 110.823C131.356 113.408 134.951 111.321 134.951 106.15V65.7565C134.811 62.9329 134.004 60.1825 132.598 57.7301C131.192 55.2776 129.225 53.1927 126.859 51.6456V51.6456Z" fill="#FDD21B"/>
<path d="M66.4485 49.8156C68.6316 48.5552 68.6322 44.4688 66.4496 40.6885C64.267 36.9082 60.7279 34.8655 58.5448 36.126C56.3616 37.3864 56.3611 41.4727 58.5437 45.253C60.7262 49.0333 64.2653 51.0761 66.4485 49.8156Z" fill="white"/>
<path d="M91.5194 63.4409C93.7126 62.1805 93.7212 58.0801 91.5386 54.2824C89.3561 50.4848 85.8088 48.428 83.6157 49.6884C81.4225 50.9489 81.4138 55.0493 83.5964 58.8469C85.7789 62.6446 89.3262 64.7014 91.5194 63.4409Z" fill="white"/>
<path d="M112.714 76.5363C114.897 75.2758 114.898 71.1895 112.715 67.4092C110.533 63.6289 106.994 61.5862 104.81 62.8466C102.627 64.1071 102.627 68.1934 104.809 71.9737C106.992 75.754 110.531 77.7967 112.714 76.5363Z" fill="white"/>
</svg>
