<svg width="413" height="155" viewBox="0 0 413 155" fill="none" xmlns="http://www.w3.org/2000/svg">
<path d="M128.226 105.457C150.362 121.371 170.195 104.11 179.987 96.0662C173.731 77.8838 170.381 44.3403 159.783 34.277C141.192 16.6224 116.681 38.2616 124.867 52.6674C133.054 67.0732 106.73 90.003 128.226 105.457Z" fill="#FDD21B"/>
<path d="M318 40.0001C297.521 12.2519 257.387 24.9488 253 35.0001C250.095 58.6006 250.69 101.346 265 119C282.887 141.068 324.97 124.447 308 101C291.029 77.5529 338.184 67.3498 318 40.0001Z" fill="#FDD21B"/>
<rect x="157" y="20" width="100" height="86" rx="3.64916" fill="#D3D7FF"/>
<path d="M148 63.8659V127.134C148 130.926 151.074 134 154.866 134H260.134C263.926 134 267 130.926 267 127.134V72.7369C267 71.2253 265.775 70 264.263 70H201.198C200.434 70 199.705 69.6808 199.187 69.1195L188.813 57.8805C188.295 57.3192 187.566 57 186.802 57H154.866C151.074 57 148 60.074 148 63.8659Z" fill="#FF4F9C"/>
<circle cx="268.5" cy="75.5" r="20.5" fill="#354BBC"/>
<circle cx="266.5" cy="74.5" r="20.5" fill="#586CD4"/>
<path d="M277 68L264 81L256 74" stroke="white" stroke-width="4.66282" stroke-linecap="round"/>
<path d="M242 54H202" stroke="white" stroke-width="3.6618" stroke-linecap="round"/>
<path d="M173 44H217M242 44H227" stroke="white" stroke-width="3.6618" stroke-linecap="round"/>
<ellipse cx="109" cy="62" rx="11" ry="10" fill="#FFD35A"/>
<mask id="mask0_202_125" style="mask-type:alpha" maskUnits="userSpaceOnUse" x="148" y="57" width="119" height="77">
<path d="M148 63.8659V127.134C148 130.926 151.074 134 154.866 134H260.134C263.926 134 267 130.926 267 127.134V72.7369C267 71.2253 265.775 70 264.263 70H201.198C200.434 70 199.705 69.6808 199.187 69.1195L188.813 57.8805C188.295 57.3192 187.566 57 186.802 57H154.866C151.074 57 148 60.074 148 63.8659Z" fill="#FF4F9C"/>
</mask>
<g mask="url(#mask0_202_125)">
<path d="M275 113C250.5 126.95 174.644 127.969 140 127V141C140 143.906 271.416 145 275 145C278.584 145 305.625 95.5619 275 113Z" fill="#EF247D"/>
</g>
<path d="M159 71V93" stroke="white" stroke-opacity="0.19" stroke-width="6.86588" stroke-linecap="round"/>
<path d="M172 35H243" stroke="white" stroke-width="3.6618" stroke-linecap="round"/>
</svg>
