<svg width="12" height="16" viewBox="0 0 12 16" fill="none" xmlns="http://www.w3.org/2000/svg">
<path d="M6.65104 4.62988V0.879883H1.60938C0.849974 0.879883 0.234375 1.50947 0.234375 2.28613V14.4736C0.234375 15.25 0.849974 15.8799 1.60938 15.8799H9.85938C10.6188 15.8799 11.2344 15.2503 11.2344 14.4736V5.56738H7.59349C7.06068 5.56738 6.65104 5.14844 6.65104 4.62988ZM9.5 10C9.88369 10 10 11 10 11L7 11.5C6.96562 11.6582 8.15755 11.5 8 11.5H7.5C7.34457 11.5 7.04039 11.6536 7 11.5L6.5 12L4.88617 13.7178C4.5 14 4.44583 13.9951 4.5 14L3.71484 14.0049C3.5 14 3.41578 13.8918 3.37997 13.7323L4 12.5C4.88617 11.1924 4.18208 10.7812 2.5 7.5V14.5C3.2044 14.8076 3.4682 8.02419 3.50401 8.18362L2.5 14.5L4.55417 11.5L5 10V8.18362C5 8 5 5.5 5 6H5.5C5.65543 6 6 6 6.15862 6L7.28698 11.1924L7.02786 10C7.02786 10 9.31667 10 9.5 10ZM7.56771 0.879883V4.62988H11.2344L7.56771 0.879883Z" fill="#229781"/>
</svg>
