<svg width="8" height="15" viewBox="0 0 8 15" fill="none" xmlns="http://www.w3.org/2000/svg">
<path d="M8 4.21875C8 6.54785 6.20833 8.4375 4 8.4375C1.79083 8.4375 0 6.54785 0 4.21875C0 1.88877 1.79083 0 4 0C6.20833 0 8 1.88877 8 4.21875ZM4.44444 1.875C4.44444 1.61602 4.24444 1.40625 4 1.40625C2.50278 1.40625 1.33333 2.66543 1.33333 4.21875C1.33333 4.47656 1.53222 4.6875 1.77778 4.6875C2.02222 4.6875 2.22222 4.47656 2.22222 4.21875C2.22222 3.18457 3.01944 2.34375 4 2.34375C4.24444 2.34375 4.44444 2.13398 4.44444 1.875ZM3.11111 14.0625V9.29004C3.4 9.3457 3.69722 9.34863 4 9.34863C4.30278 9.34863 4.6 9.3457 4.88889 9.29004V14.0625C4.88889 14.5811 4.49167 15 4 15C3.50833 15 3.11111 14.5811 3.11111 14.0625Z" fill="#869596"/>
</svg>
