<svg width="16" height="13" viewBox="0 0 16 13" fill="none" xmlns="http://www.w3.org/2000/svg">
<path d="M8.78867 5.57094H11.4929C11.9907 5.57094 12.3943 5.15515 12.3943 4.64245C12.3943 4.12975 11.9907 3.71396 11.4929 3.71396H8.81402C8.31627 3.71396 7.91261 4.12975 7.91261 4.64245C7.91261 5.15515 8.29008 5.57094 8.78867 5.57094ZM8.78867 9.28491H13.2958C13.7935 9.28491 14.1972 8.86912 14.1972 8.35642C14.1972 7.84371 13.7935 7.42792 13.2958 7.42792H8.81402C8.31627 7.42792 7.91261 7.84371 7.91261 8.35642C7.91261 8.86912 8.29008 9.28491 8.78867 9.28491ZM8.78867 1.85698H9.69009C10.1878 1.85698 10.5662 1.44119 10.5662 0.928491C10.5662 0.41579 10.1625 0 9.69009 0H8.78867C8.29092 0 7.88725 0.41579 7.88725 0.928491C7.88725 1.44119 8.29008 1.85698 8.78867 1.85698ZM15.0986 11.1419H8.81402C8.31627 11.1419 7.91261 11.5577 7.91261 12.0704C7.91261 12.5831 8.31627 12.9989 8.81402 12.9989H15.0986C15.5963 12.9989 16 12.5831 16 12.0704C16 11.5577 15.5972 11.1419 15.0986 11.1419ZM5.19427 8.66688L4.28159 9.69402V0.929361C4.28159 0.41579 3.87877 0 3.38017 0C2.88158 0 2.47876 0.41579 2.47876 0.929361V9.69199L1.56607 8.66688C1.38827 8.46717 1.14522 8.3657 0.900997 8.3657C0.683559 8.3657 0.465219 8.44639 0.29226 8.60984C-0.0747857 8.95657 -0.0992929 9.54471 0.236794 9.92336L2.69034 12.7114C3.03175 13.0962 3.67795 13.0962 4.01964 12.7114L6.47319 9.92336C6.80953 9.54471 6.78474 8.95686 6.41772 8.60984C6.10132 8.26357 5.5323 8.28968 5.19427 8.66688Z" fill="white"/>
</svg>
