<svg width="16" height="14" viewBox="0 0 16 14" fill="none" xmlns="http://www.w3.org/2000/svg">
<g clip-path="url(#clip0_121_570)">
<path d="M11.5562 7.875H8.91456C8.42373 7.875 8.02568 8.26684 8.02568 8.75C8.02568 9.23316 8.42373 9.625 8.91456 9.625H11.5562C12.0471 9.625 12.4451 9.23316 12.4451 8.75C12.4451 8.26684 12.0479 7.875 11.5562 7.875ZM9.77845 11.375H8.88956C8.39873 11.375 8.00068 11.7668 8.00068 12.25C8.00068 12.7332 8.39873 13.125 8.88956 13.125H9.77845C10.2693 13.125 10.6423 12.7332 10.6423 12.25C10.6423 11.7668 10.2701 11.375 9.77845 11.375ZM13.334 4.375H8.91456C8.42373 4.375 8.02568 4.76684 8.02568 5.25C8.02568 5.73316 8.42373 6.125 8.91456 6.125H13.334C13.8248 6.125 14.2229 5.73316 14.2229 5.25C14.2229 4.76684 13.8257 4.375 13.334 4.375ZM15.1118 0.875H8.91456C8.42373 0.875 8.02568 1.26684 8.02568 1.75C8.02568 2.23316 8.42373 2.625 8.91456 2.625H15.1118C15.6026 2.625 16.0007 2.23316 16.0007 1.75C16.0007 1.26684 15.6035 0.875 15.1118 0.875ZM4.21179 1.14707C3.87512 0.784492 3.2379 0.784492 2.90095 1.14707L0.481509 3.77453C0.124981 4.13164 0.149287 4.68672 0.511231 5.01211C0.681815 5.16603 0.897065 5.24218 1.11151 5.24218C1.3524 5.24218 1.59206 5.14637 1.76734 4.95808L2.66734 3.98945V12.2473C2.66734 12.734 3.06456 13.125 3.55623 13.125C4.0479 13.125 4.44512 12.7332 4.44512 12.2492V3.98945L5.34512 4.95742C5.67845 5.31289 6.23956 5.34023 6.60068 5.01211C6.96262 4.68535 6.98679 4.13109 6.65537 3.77426L4.21179 1.14707Z" fill="white"/>
</g>
<defs>
<clipPath id="clip0_121_570">
<rect width="16" height="14" fill="white"/>
</clipPath>
</defs>
</svg>
