<svg width="40" height="40" viewBox="0 0 40 40" fill="none" xmlns="http://www.w3.org/2000/svg">
<path d="M21.5667 20L29.6667 11.9C29.8487 11.6874 29.9438 11.414 29.933 11.1344C29.9222 10.8548 29.8063 10.5895 29.6084 10.3916C29.4105 10.1937 29.1453 10.0778 28.8656 10.067C28.586 10.0562 28.3126 10.1513 28.1 10.3333L20 18.4333L11.9 10.3222C11.6874 10.1402 11.414 10.0451 11.1344 10.0559C10.8547 10.0667 10.5895 10.1826 10.3916 10.3805C10.1937 10.5784 10.0778 10.8436 10.067 11.1233C10.0562 11.4029 10.1513 11.6763 10.3333 11.8889L18.4333 20L10.3222 28.1C10.2059 28.1996 10.1114 28.3222 10.0448 28.46C9.97806 28.5979 9.94058 28.748 9.93467 28.9011C9.92876 29.0541 9.95454 29.2067 10.0104 29.3493C10.0663 29.4918 10.151 29.6213 10.2593 29.7296C10.3676 29.8379 10.4971 29.9226 10.6396 29.9785C10.7822 30.0344 10.9348 30.0601 11.0878 30.0542C11.2409 30.0483 11.391 30.0108 11.5289 29.9441C11.6667 29.8775 11.7893 29.783 11.8889 29.6667L20 21.5667L28.1 29.6667C28.3126 29.8487 28.586 29.9438 28.8656 29.933C29.1453 29.9222 29.4105 29.8063 29.6084 29.6084C29.8063 29.4105 29.9222 29.1453 29.933 28.8656C29.9438 28.586 29.8487 28.3126 29.6667 28.1L21.5667 20Z" fill="#869596"/>
</svg>
