<svg width="20" height="20" viewBox="0 0 20 20" fill="none" xmlns="http://www.w3.org/2000/svg">
<path d="M11.6329 9.94493L19.7329 1.84493C19.9149 1.63233 20.01 1.35893 19.9992 1.07933C19.9884 0.799729 19.8725 0.534429 19.6746 0.336529C19.4767 0.138629 19.2115 0.0227294 18.9318 0.0119294C18.6522 0.00112937 18.3788 0.0962286 18.1662 0.278229L10.0662 8.37823L1.96616 0.267129C1.75356 0.0851288 1.48016 -0.0099714 1.20056 0.000828597C0.920858 0.0116286 0.655657 0.127529 0.457757 0.325429C0.259857 0.523329 0.143958 0.788529 0.133158 1.06823C0.122358 1.34783 0.217457 1.62123 0.399457 1.83383L8.49946 9.94493L0.388357 18.0449C0.272057 18.1445 0.177557 18.2671 0.110957 18.4049C0.0442173 18.5428 0.00673796 18.6929 0.000827961 18.846C-0.00508204 18.999 0.0206973 19.1516 0.0765573 19.2942C0.132457 19.4367 0.217158 19.5662 0.325458 19.6745C0.433758 19.7828 0.563257 19.8675 0.705757 19.9234C0.848357 19.9793 1.00096 20.005 1.15396 19.9991C1.30706 19.9932 1.45716 19.9557 1.59506 19.889C1.73286 19.8224 1.85546 19.7279 1.95506 19.6116L10.0662 11.5116L18.1662 19.6116C18.3788 19.7936 18.6522 19.8887 18.9318 19.8779C19.2115 19.8671 19.4767 19.7512 19.6746 19.5533C19.8725 19.3554 19.9884 19.0902 19.9992 18.8105C20.01 18.5309 19.9149 18.2575 19.7329 18.0449L11.6329 9.94493Z" fill="white"/>
</svg>
