<svg width="10" height="13" viewBox="0 0 10 13" fill="none" xmlns="http://www.w3.org/2000/svg">
<path d="M4.38281 12.7079C3.02344 11.0736 0 7.11255 0 4.88765C0 2.18824 2.23854 0 5 0C7.76042 0 10 2.18824 10 4.88765C10 7.11255 6.95312 11.0736 5.61719 12.7079C5.29687 13.0974 4.70312 13.0974 4.38281 12.7079ZM5 6.51686C5.91927 6.51686 6.66667 5.78626 6.66667 4.88765C6.66667 3.98903 5.91927 3.25843 5 3.25843C4.08073 3.25843 3.33333 3.98903 3.33333 4.88765C3.33333 5.78626 4.08073 6.51686 5 6.51686Z" fill="#869596"/>
</svg>
