<svg width="12" height="12" viewBox="0 0 12 12" fill="none" xmlns="http://www.w3.org/2000/svg">
<path d="M6 12C2.68594 12 0 9.31406 0 6C0 2.68594 2.68594 0 6 0C9.31406 0 12 2.68594 12 6C12 9.31406 9.31406 12 6 12ZM5.4375 6C5.4375 6.1875 5.53125 6.36328 5.68828 6.44766L7.93828 7.94766C8.19609 8.13984 8.54531 8.06953 8.69766 7.81172C8.88984 7.55391 8.81953 7.20469 8.56172 7.03125L6.5625 5.7V2.8125C6.5625 2.50078 6.31172 2.25 5.97891 2.25C5.68828 2.25 5.41641 2.50078 5.41641 2.8125L5.4375 6Z" fill="#869596"/>
</svg>
