<svg width="11" height="15" viewBox="0 0 11 15" fill="none" xmlns="http://www.w3.org/2000/svg">
<path d="M6.41667 3.75V0H1.375C0.615599 0 0 0.62959 0 1.40625V13.5938C0 14.3701 0.615599 15 1.375 15H9.625C10.3844 15 11 14.3704 11 13.5938V4.6875H7.35911C6.8263 4.6875 6.41667 4.26855 6.41667 3.75ZM8.0638 7.03125H8.73326C8.95432 7.03125 9.11797 7.2416 9.06813 7.46191L7.85182 12.8525C7.81745 13.0107 7.67708 13.125 7.51953 13.125H6.68135C6.52592 13.125 6.38974 13.0183 6.34935 12.8648L5.5 9.6416L4.6518 12.8379C4.5862 13.0195 4.47448 13.125 4.31979 13.125H3.48047C3.3204 13.125 3.18141 13.0119 3.1456 12.8524L1.9293 7.46177C1.88089 7.24219 2.04445 7.03125 2.26531 7.03125H2.93477C3.09484 7.03125 3.23383 7.14431 3.26964 7.30374L3.9474 10.3125L4.74375 7.29199C4.78385 7.13672 4.92135 7.03125 5.07604 7.03125H5.92424C6.07968 7.03125 6.21586 7.13792 6.25625 7.29149L7.0526 10.3125L7.73151 7.30371C7.76589 7.14551 7.88047 7.03125 8.0638 7.03125ZM7.33333 0V3.75H11L7.33333 0Z" fill="#229781"/>
</svg>
