<svg width="38" height="38" viewBox="0 0 38 38" fill="none" xmlns="http://www.w3.org/2000/svg">
<g clip-path="url(#clip0_56_417)">
<path d="M37.7778 9.97788L28.0445 0.24455C27.8906 0.0925562 27.683 0.00732422 27.4667 0.00732422C27.2504 0.00732422 27.0428 0.0925562 26.8889 0.24455L0.222237 26.9112C0.147656 26.9855 0.0884784 27.0739 0.0481008 27.1711C0.00772315 27.2683 -0.0130615 27.3726 -0.0130615 27.4779C-0.0130615 27.5832 0.00772315 27.6874 0.0481008 27.7847C0.0884784 27.8819 0.147656 27.9702 0.222237 28.0446L9.95556 37.7779C10.0299 37.8525 10.1182 37.9116 10.2154 37.952C10.3127 37.9924 10.4169 38.0132 10.5222 38.0132C10.6275 38.0132 10.7318 37.9924 10.829 37.952C10.9263 37.9116 11.0146 37.8525 11.0889 37.7779L37.7556 11.1112C37.904 10.9612 37.9891 10.7599 37.9932 10.549C37.9973 10.338 37.9202 10.1336 37.7778 9.97788ZM10.5333 36.0446L1.97779 27.489L8.40001 21.0446L11.3333 23.9557C11.4836 24.1089 11.6886 24.1962 11.9033 24.1982C12.1179 24.2003 12.3246 24.1171 12.4778 23.9668C12.631 23.8165 12.7183 23.6115 12.7204 23.3969C12.7224 23.1822 12.6392 22.9756 12.4889 22.8223L9.55556 19.889L11.7778 17.7779L16.3556 22.3334C16.4299 22.408 16.5182 22.4672 16.6154 22.5076C16.7127 22.548 16.8169 22.5687 16.9222 22.5687C17.0275 22.5687 17.1318 22.548 17.229 22.5076C17.3263 22.4672 17.4146 22.408 17.4889 22.3334C17.5669 22.2588 17.6289 22.1691 17.6713 22.0698C17.7137 21.9705 17.7356 21.8636 17.7356 21.7557C17.7356 21.6477 17.7137 21.5408 17.6713 21.4415C17.6289 21.3423 17.5669 21.2526 17.4889 21.1779L12.9333 16.6223L15.1556 14.4001L18.0667 17.3112C18.1414 17.3892 18.231 17.4512 18.3303 17.4936C18.4296 17.536 18.5365 17.5579 18.6445 17.5579C18.7524 17.5579 18.8593 17.536 18.9586 17.4936C19.0579 17.4512 19.1476 17.3892 19.2222 17.3112C19.2968 17.2369 19.356 17.1486 19.3964 17.0513C19.4367 16.9541 19.4575 16.8498 19.4575 16.7445C19.4575 16.6393 19.4367 16.535 19.3964 16.4378C19.356 16.3405 19.2968 16.2522 19.2222 16.1779L16.1111 13.3557L18.3333 11.1334L22.7778 15.5779C22.9358 15.704 23.1348 15.7675 23.3367 15.7563C23.5386 15.745 23.7292 15.6597 23.8722 15.5167C24.0152 15.3737 24.1004 15.1831 24.1117 14.9812C24.123 14.7793 24.0595 14.5803 23.9333 14.4223L19.4889 9.97788L21.7111 7.75566L24.6222 10.6668C24.7725 10.82 24.9775 10.9073 25.1922 10.9094C25.4068 10.9114 25.6134 10.8282 25.7667 10.6779C25.9199 10.5276 26.0072 10.3226 26.0093 10.108C26.0113 9.89334 25.9281 9.68668 25.7778 9.53344L22.8667 6.57788L25.0889 4.35566L29.6445 8.91122C29.7191 8.98919 29.8088 9.05125 29.9081 9.09364C30.0074 9.13603 30.1143 9.15789 30.2222 9.15789C30.3302 9.15789 30.437 9.13603 30.5363 9.09364C30.6356 9.05125 30.7253 8.98919 30.8 8.91122C30.8746 8.83689 30.9338 8.74858 30.9741 8.65134C31.0145 8.5541 31.0353 8.44984 31.0353 8.34455C31.0353 8.23926 31.0145 8.135 30.9741 8.03776C30.9338 7.94052 30.8746 7.8522 30.8 7.77788L26.3556 3.33344L27.8667 1.8001L36.4445 10.3779L10.5333 36.0446Z" fill="white"/>
<path d="M11.1778 26.9777C10.9361 26.7345 10.6488 26.5415 10.3322 26.4097C10.0157 26.278 9.67621 26.2102 9.33335 26.2102C8.99049 26.2102 8.65101 26.278 8.33446 26.4097C8.01792 26.5415 7.73055 26.7345 7.4889 26.9777C7.11942 27.3433 6.86695 27.8105 6.76354 28.3199C6.66013 28.8293 6.71045 29.358 6.90811 29.8387C7.10576 30.3195 7.44184 30.7306 7.87366 31.02C8.30547 31.3093 8.81355 31.4638 9.33335 31.4638C9.85314 31.4638 10.3612 31.3093 10.793 31.02C11.2248 30.7306 11.5609 30.3195 11.7586 29.8387C11.9562 29.358 12.0066 28.8293 11.9032 28.3199C11.7997 27.8105 11.5473 27.3433 11.1778 26.9777ZM10.1111 29.511C9.97208 29.6529 9.79395 29.7501 9.59943 29.7903C9.40491 29.8306 9.20281 29.8119 9.01892 29.7368C8.83503 29.6617 8.67767 29.5336 8.56691 29.3687C8.45614 29.2038 8.39698 29.0097 8.39698 28.811C8.39698 28.6124 8.45614 28.4183 8.56691 28.2534C8.67767 28.0885 8.83503 27.9604 9.01892 27.8853C9.20281 27.8102 9.40491 27.7915 9.59943 27.8318C9.79395 27.872 9.97208 27.9692 10.1111 28.111C10.2074 28.2005 10.2841 28.3088 10.3366 28.4292C10.3891 28.5497 10.4162 28.6797 10.4162 28.811C10.4162 28.9424 10.3891 29.0724 10.3366 29.1928C10.2841 29.3133 10.2074 29.4216 10.1111 29.511Z" fill="white"/>
</g>
<defs>
<clipPath id="clip0_56_417">
<rect width="38" height="38" fill="white"/>
</clipPath>
</defs>
</svg>
