<svg width="36" height="40" viewBox="0 0 36 40" fill="none" xmlns="http://www.w3.org/2000/svg">
<path d="M34.9888 18.1809C34.708 17.8715 34.3674 17.6222 33.9875 17.4483C33.6077 17.2743 33.1964 17.1792 32.7788 17.1687C32.3611 17.1582 31.9456 17.2326 31.5575 17.3873C31.1694 17.542 30.8167 17.7738 30.5207 18.0688L26.6092 21.9893C26.4847 22.1193 26.4161 22.2929 26.4181 22.4729C26.4201 22.6528 26.4926 22.8248 26.6201 22.9519C26.7475 23.079 26.9198 23.1511 27.0997 23.1526C27.2797 23.1542 27.4531 23.085 27.5827 22.9601L31.4936 19.0403C33.1296 17.4524 35.5724 19.9276 33.9931 21.5406L24.1459 31.4065C23.7353 31.813 23.2046 32.0762 22.6326 32.1571C19.2221 32.6279 14.6767 33.2495 11.4297 33.7007L7.73923 30.0097C7.60915 29.8855 7.43555 29.8171 7.25567 29.8193C7.07579 29.8216 6.90394 29.8942 6.77696 30.0216C6.64998 30.149 6.57798 30.3211 6.57638 30.501C6.57479 30.6809 6.64374 30.8542 6.76844 30.9839L11.0767 35.2915L8.49588 37.8757L1.50676 30.8775L4.0869 28.295L4.34269 28.5514C4.47462 28.6754 4.64896 28.7442 4.82999 28.7438C5.01103 28.7434 5.18505 28.6738 5.3164 28.5492C5.53489 28.3521 10.3609 23.4778 10.4842 23.3743C10.899 22.9993 11.4345 22.7854 11.9934 22.7715C12.2619 22.7729 21.9422 22.7643 22.0123 22.7686C22.4547 22.7925 22.8704 22.9876 23.1716 23.3125C23.4727 23.6374 23.6357 24.0668 23.6261 24.5097C23.6164 24.9526 23.4348 25.3744 23.1198 25.6859C22.8047 25.9974 22.3809 26.1741 21.9379 26.1787C21.7793 26.1802 15.9468 26.1853 15.9053 26.1887C15.7283 26.2018 15.5633 26.2827 15.4446 26.4146C15.3259 26.5465 15.2627 26.7191 15.2683 26.8965C15.274 27.0738 15.3479 27.2421 15.4747 27.3662C15.6015 27.4904 15.7713 27.5607 15.9487 27.5625C16.0377 27.5624 19.4306 27.5575 21.0704 27.5551C23.2429 27.77 25.0161 26.6076 25.0194 24.3735C24.9835 23.5771 24.6441 22.8245 24.0711 22.2702C23.498 21.7158 22.7346 21.4017 21.9373 21.3922C21.5657 21.4066 12.0815 21.3838 11.8893 21.3985C10.975 21.4381 10.1078 21.8151 9.45525 22.4567C9.39524 22.5168 4.83979 27.1897 4.73949 27.095C4.47703 26.9616 4.17996 26.9121 3.88844 26.9531C3.59693 26.9941 3.32502 27.1235 3.10948 27.3241C3.07209 27.3615 0.556668 29.8749 0.486117 29.9561C0.256932 30.2213 0.134909 30.5625 0.143896 30.913C0.152883 31.2634 0.292236 31.5979 0.534716 31.8511C0.714312 32.0271 7.52764 38.8569 7.56771 38.8899C7.83231 39.1243 8.17569 39.25 8.52905 39.2419C8.88242 39.2338 9.21968 39.0925 9.47327 38.8463C9.52102 38.7984 11.9923 36.3265 12.0957 36.2152C12.3055 35.9838 12.429 35.6871 12.4455 35.3752C12.4971 35.2248 12.3062 34.917 12.5157 34.9387C15.5703 34.5166 21.7981 33.6619 22.9305 33.5023C23.7546 33.3535 24.5158 32.9627 25.117 32.3797C25.3777 32.1166 34.9694 22.5124 35.0321 22.4442C35.5736 21.8639 35.8712 21.0975 35.8631 20.3039C35.8551 19.5102 35.542 18.75 34.9888 18.1809Z" fill="white"/>
<path d="M9.40625 13.8126C9.31596 13.8125 9.22655 13.8303 9.14313 13.8648C9.0597 13.8994 8.98391 13.95 8.92006 14.0139C8.85622 14.0777 8.80558 14.1535 8.77104 14.2369C8.73649 14.3204 8.71873 14.4098 8.71875 14.5001V17.2501C8.71935 17.7969 8.93684 18.3211 9.3235 18.7078C9.71017 19.0945 10.2344 19.312 10.7812 19.3126H25.2188C25.7656 19.312 26.2898 19.0945 26.6765 18.7078C27.0632 18.3211 27.2807 17.7969 27.2812 17.2501V2.81255C27.2807 2.26573 27.0632 1.74147 26.6765 1.3548C26.2898 0.96814 25.7656 0.75065 25.2188 0.750053C20.9356 0.75248 15.0706 0.748713 10.7812 0.750053C10.2344 0.750647 9.71016 0.968136 9.3235 1.3548C8.93683 1.74147 8.71934 2.26573 8.71875 2.81255V11.0626C8.72217 11.2426 8.79611 11.4142 8.92468 11.5403C9.05324 11.6665 9.22616 11.7371 9.40627 11.7371C9.58638 11.7371 9.7593 11.6664 9.88785 11.5403C10.0164 11.4141 10.0903 11.2426 10.0938 11.0625V2.81255C10.0939 2.63027 10.1664 2.45551 10.2953 2.32662C10.4242 2.19773 10.599 2.12524 10.7812 2.12505H14.9062V5.56255C14.9067 5.9271 15.0517 6.27659 15.3094 6.53436C15.5672 6.79214 15.9167 6.93714 16.2812 6.93755H19.7188C20.0833 6.93714 20.4328 6.79214 20.6906 6.53436C20.9483 6.27659 21.0933 5.9271 21.0938 5.56255V2.12505H25.2188C25.401 2.12524 25.5758 2.19773 25.7047 2.32662C25.8336 2.45551 25.9061 2.63027 25.9062 2.81255V17.2501C25.9061 17.4323 25.8336 17.6071 25.7047 17.736C25.5758 17.8649 25.401 17.9374 25.2188 17.9376H10.7812C10.599 17.9374 10.4242 17.8649 10.2953 17.736C10.1664 17.6071 10.0939 17.4323 10.0938 17.2501V14.5001C10.0938 14.4098 10.076 14.3204 10.0415 14.2369C10.0069 14.1535 9.95628 14.0777 9.89244 14.0139C9.82859 13.95 9.7528 13.8994 9.66937 13.8648C9.58595 13.8303 9.49654 13.8125 9.40625 13.8126ZM19.7194 5.56255H16.2812V2.12505H19.7188L19.7194 5.56255Z" fill="white"/>
</svg>
