<svg width="12" height="12" viewBox="0 0 12 12" fill="none" xmlns="http://www.w3.org/2000/svg">
<path fill-rule="evenodd" clip-rule="evenodd" d="M0.244513 0.244513C0.570528 -0.0815043 1.09911 -0.0815043 1.42512 0.244513L6.00001 4.81941L10.5749 0.244513C10.9009 -0.0815043 11.4295 -0.0815043 11.7555 0.244513C12.0815 0.570532 12.0815 1.09911 11.7555 1.42512L7.18061 6.00002L11.7555 10.5749C12.0815 10.9009 12.0815 11.4295 11.7555 11.7555C11.4295 12.0815 10.9009 12.0815 10.5749 11.7555L6.00001 7.18062L1.42514 11.7555C1.09913 12.0815 0.570549 12.0815 0.244531 11.7555C-0.0814867 11.4295 -0.0814862 10.9009 0.244531 10.5749L4.81941 6.00002L0.244513 1.42512C-0.0815042 1.09911 -0.0815042 0.570532 0.244513 0.244513Z" fill="#FE5C01"/>
</svg>
