<svg width="152" height="33" viewBox="0 0 152 33" fill="none" xmlns="http://www.w3.org/2000/svg">
<g clip-path="url(#clip0_74_222)">
<path d="M123.998 27.8172V27.1123H125.424V27.8172H123.998Z" fill="#474D63"/>
<path d="M90.7416 27.8172V27.1123H92.1681V27.8172H90.7416Z" fill="#474D63"/>
<path d="M151.815 28.7996H150.982L150.65 27.967H149.136L148.826 28.7996H148.014L149.49 25.125H150.301L151.82 28.7996H151.815ZM150.405 27.3453L149.882 25.9798L149.37 27.3453H150.405Z" fill="#474D63"/>
<path d="M145.951 28.7996V25.7467H144.824V25.125H147.835V25.7467H146.713V28.7996H145.945H145.951Z" fill="#474D63"/>
<path d="M136.722 28.7996V25.125H137.953C138.415 25.125 138.72 25.1417 138.862 25.1805C139.08 25.236 139.259 25.3581 139.406 25.5413C139.553 25.7245 139.624 25.9632 139.624 26.2574C139.624 26.4849 139.581 26.6737 139.499 26.8291C139.412 26.9845 139.308 27.1011 139.178 27.1899C139.047 27.2787 138.916 27.3342 138.78 27.3619C138.595 27.3953 138.334 27.4175 137.985 27.4175H137.484V28.8051H136.717L136.722 28.7996ZM137.49 25.7467V26.7902H137.909C138.209 26.7902 138.41 26.7736 138.513 26.7347C138.617 26.6959 138.693 26.6348 138.753 26.5515C138.813 26.4683 138.84 26.3739 138.84 26.2629C138.84 26.1297 138.802 26.0187 138.72 25.9299C138.639 25.841 138.535 25.7911 138.41 25.7689C138.317 25.7522 138.138 25.7411 137.86 25.7411H137.49V25.7467Z" fill="#474D63"/>
<path d="M118.025 25.125H118.744V27.5729L120.279 25.125H121.041V28.7996H120.323V26.4017L118.787 28.7996H118.02V25.125H118.025Z" fill="#474D63"/>
<path d="M104.598 25.125H107.255V28.7996H106.488V25.7467H105.35V27.3175C105.35 27.7672 105.333 28.0835 105.301 28.2612C105.268 28.4388 105.192 28.5776 105.072 28.6775C104.952 28.7774 104.767 28.8273 104.511 28.8273C104.424 28.8273 104.261 28.8218 104.021 28.8051V28.2334H104.19C104.348 28.2334 104.457 28.2168 104.511 28.1724C104.566 28.1279 104.593 28.028 104.593 27.8615V27.2287V25.1305L104.598 25.125Z" fill="#474D63"/>
<path d="M103.46 28.7996H102.627L102.295 27.967H100.782L100.471 28.7996H99.66L101.136 25.125H101.947L103.466 28.7996H103.46ZM102.05 27.3453L101.528 25.9798L101.016 27.3453H102.05Z" fill="#474D63"/>
<path d="M84.7633 25.125H85.482V27.5729L87.0174 25.125H87.7796V28.7996H87.0609V26.4017L85.5255 28.7996H84.7578V25.125H84.7633Z" fill="#474D63"/>
<path d="M80.5382 28.7996V25.125H81.3059V26.5737H82.8032V25.125H83.5709V28.7996H82.8032V27.1954H81.3059V28.7996H80.5382Z" fill="#474D63"/>
<path d="M75.5072 28.7996H74.6742L74.342 27.967H72.8284L72.5181 28.7996H71.7068L73.1823 25.125H73.9936L75.5126 28.7996H75.5072ZM74.097 27.3453L73.5743 25.9798L73.0625 27.3453H74.097Z" fill="#474D63"/>
<path d="M69.6433 28.7996V25.7467H68.5162V25.125H71.5272V25.7467H70.4056V28.7996H69.6378H69.6433Z" fill="#474D63"/>
<path d="M60.6432 25.125H61.4109V26.5959H62.4345C62.9191 26.5959 63.2675 26.707 63.4853 26.9234C63.7031 27.1399 63.812 27.4064 63.812 27.7116C63.812 27.9614 63.7467 28.1779 63.616 28.35C63.4853 28.5276 63.3329 28.6442 63.1695 28.7052C63.0007 28.7663 62.7612 28.7996 62.4399 28.7996H60.6486V25.125H60.6432ZM61.4109 28.1835H62.1568C62.3964 28.1835 62.5652 28.1724 62.6577 28.1502C62.7503 28.1279 62.832 28.078 62.9082 27.9947C62.979 27.917 63.0171 27.8171 63.0171 27.7005C63.0171 27.534 62.9572 27.4064 62.832 27.3286C62.7067 27.2509 62.4944 27.2121 62.1895 27.2121H61.4109V28.1835Z" fill="#474D63"/>
<path d="M56.7883 25.125H59.4453V28.7996H58.6776V25.7467H57.5397V27.3175C57.5397 27.7672 57.5234 28.0835 57.4907 28.2612C57.458 28.4388 57.3818 28.5776 57.262 28.6775C57.1422 28.7774 56.9571 28.8273 56.7012 28.8273C56.6141 28.8273 56.4507 28.8218 56.2112 28.8051V28.2334H56.38C56.5379 28.2334 56.6468 28.2168 56.7012 28.1724C56.7557 28.1279 56.7829 28.028 56.7829 27.8615V27.2287V25.1305L56.7883 25.125Z" fill="#474D63"/>
<path d="M48.202 28.8606V25.125H49.4434C49.9117 25.125 50.2166 25.1417 50.3636 25.1805C50.5814 25.236 50.7665 25.3581 50.9135 25.5469C51.0605 25.7356 51.1367 25.9798 51.1367 26.274C51.1367 26.5016 51.0932 26.6959 51.0115 26.8513C50.9244 27.0067 50.8155 27.1288 50.6848 27.2176C50.5541 27.3064 50.418 27.3675 50.2819 27.3953C50.0968 27.4286 49.83 27.4508 49.4815 27.4508H48.9806V28.8606H48.2075H48.202ZM48.9752 25.7578V26.818H49.3999C49.7048 26.818 49.9062 26.7958 50.0097 26.7569C50.1131 26.7181 50.1948 26.657 50.2492 26.5737C50.3091 26.4905 50.3364 26.3961 50.3364 26.2851C50.3364 26.1519 50.2982 26.0353 50.2111 25.9465C50.1295 25.8577 50.026 25.8022 49.9008 25.78C49.8082 25.7633 49.6231 25.7522 49.3454 25.7522H48.9697L48.9752 25.7578Z" fill="#474D63"/>
<path d="M128.12 25.1247H129.633C129.933 25.1247 130.156 25.1358 130.303 25.1635C130.45 25.1858 130.581 25.2413 130.7 25.3134C130.815 25.3911 130.913 25.491 130.989 25.6187C131.065 25.7464 131.103 25.8907 131.103 26.0461C131.103 26.2182 131.054 26.3736 130.962 26.5179C130.864 26.6622 130.738 26.7677 130.575 26.8399C130.804 26.9065 130.983 27.0175 131.109 27.1729C131.234 27.3283 131.294 27.5171 131.294 27.728C131.294 27.8945 131.256 28.0555 131.174 28.2165C131.092 28.3719 130.983 28.4995 130.847 28.5939C130.711 28.6883 130.537 28.7438 130.336 28.766C130.21 28.7771 129.9 28.7882 129.41 28.7937H128.12V25.1191V25.1247ZM128.887 25.7353V26.5845H129.388C129.688 26.5845 129.873 26.5845 129.943 26.5734C130.074 26.5568 130.178 26.5124 130.254 26.4402C130.33 26.3681 130.368 26.2737 130.368 26.1516C130.368 26.0295 130.336 25.9462 130.27 25.874C130.205 25.8019 130.112 25.7575 129.982 25.7464C129.905 25.7353 129.688 25.7353 129.328 25.7353H128.887ZM128.887 27.1951V28.1776H129.595C129.873 28.1776 130.047 28.172 130.118 28.1554C130.232 28.1332 130.325 28.0888 130.395 28.0111C130.466 27.9334 130.504 27.8279 130.504 27.7002C130.504 27.5892 130.477 27.4949 130.423 27.4171C130.368 27.3394 130.287 27.2839 130.183 27.2506C130.08 27.2173 129.851 27.1951 129.502 27.1951H128.887Z" fill="#474D63"/>
<path d="M76.3131 25.1247H77.8267C78.1262 25.1247 78.3494 25.1358 78.4964 25.1635C78.6434 25.1858 78.7741 25.2413 78.8939 25.3134C79.0082 25.3911 79.1062 25.491 79.1825 25.6187C79.2587 25.7464 79.2968 25.8907 79.2968 26.0461C79.2968 26.2182 79.2478 26.3736 79.1553 26.5179C79.0572 26.6622 78.932 26.7677 78.7687 26.8399C78.9973 26.9065 79.177 27.0175 79.3023 27.1729C79.4275 27.3283 79.4874 27.5171 79.4874 27.728C79.4874 27.8945 79.4493 28.0555 79.3676 28.2165C79.2859 28.3719 79.177 28.4995 79.0409 28.5939C78.9048 28.6883 78.7306 28.7438 78.5291 28.766C78.4039 28.7771 78.0935 28.7882 77.6035 28.7937H76.3131V25.1191V25.1247ZM77.0808 25.7353V26.5845H77.5817C77.8812 26.5845 78.0663 26.5845 78.1371 26.5734C78.2678 26.5568 78.3712 26.5124 78.4474 26.4402C78.5237 26.3681 78.5618 26.2737 78.5618 26.1516C78.5618 26.0295 78.5291 25.9462 78.4638 25.874C78.3984 25.8019 78.3004 25.7575 78.1752 25.7464C78.099 25.7353 77.8812 25.7353 77.5218 25.7353H77.0808ZM77.0808 27.1951V28.1776H77.7886C78.0663 28.1776 78.2405 28.172 78.3113 28.1554C78.4257 28.1332 78.5182 28.0888 78.589 28.0111C78.6598 27.9334 78.6979 27.8279 78.6979 27.7002C78.6979 27.5892 78.6707 27.4949 78.6162 27.4171C78.5618 27.3394 78.4801 27.2839 78.3767 27.2506C78.2732 27.2173 78.0445 27.1951 77.6961 27.1951H77.0808Z" fill="#474D63"/>
<path d="M97.2372 25.1254V26.6907C97.3624 26.6796 97.4604 26.6352 97.5257 26.5519C97.5911 26.4687 97.6836 26.28 97.798 25.9913C97.9504 25.6083 98.1029 25.3641 98.2608 25.2586C98.4187 25.1532 98.68 25.1032 99.0448 25.1032C99.0612 25.1032 99.0993 25.1032 99.1537 25.1032V25.6527H99.0448C98.8924 25.6527 98.778 25.6694 98.7018 25.7082C98.631 25.7471 98.5711 25.8026 98.5276 25.8803C98.484 25.958 98.4187 26.1134 98.3261 26.3521C98.2826 26.4798 98.2281 26.5853 98.1737 26.6685C98.1192 26.7518 98.0212 26.835 97.8851 26.9072C98.0539 26.9572 98.1954 27.0515 98.3098 27.1903C98.4187 27.3291 98.5439 27.5344 98.6746 27.7898L99.1918 28.8H98.2934L97.8361 27.8508C97.8361 27.8508 97.8143 27.812 97.7925 27.7731C97.7762 27.7454 97.749 27.6898 97.7 27.601C97.602 27.4234 97.5257 27.3124 97.4604 27.268C97.4005 27.218 97.3188 27.1958 97.2317 27.1958V28.8055H96.4858V27.1958C96.3987 27.1958 96.3225 27.218 96.2571 27.268C96.1918 27.3124 96.1156 27.429 96.0176 27.6066C95.9631 27.7065 95.9304 27.762 95.9196 27.7787C95.9032 27.8064 95.8869 27.8286 95.876 27.8564L95.4186 28.8055H94.5203L95.0375 27.7953C95.1627 27.5455 95.2825 27.3513 95.3969 27.2014C95.5112 27.0571 95.6528 26.9572 95.827 26.9072C95.6909 26.8295 95.5929 26.7518 95.5384 26.6685C95.484 26.5853 95.435 26.4798 95.386 26.3466C95.2989 26.1134 95.2335 25.958 95.19 25.8803C95.1464 25.8026 95.0865 25.7415 95.0157 25.7027C94.9449 25.6638 94.8252 25.6472 94.6564 25.6472C94.6346 25.6472 94.6019 25.6472 94.5584 25.6472V25.0977C94.6128 25.0977 94.6509 25.0977 94.6673 25.0977C95.0375 25.0977 95.3043 25.1532 95.4568 25.2531C95.6092 25.3585 95.7617 25.6028 95.9141 25.9802C96.0339 26.2744 96.121 26.4631 96.1863 26.5408C96.2517 26.6241 96.3442 26.6685 96.4749 26.6796V25.1143H97.2208L97.2372 25.1254Z" fill="#474D63"/>
<path d="M67.1279 27.4506L67.8683 27.6782C67.754 28.0778 67.5634 28.3776 67.3021 28.5719C67.0353 28.7661 66.7032 28.866 66.2948 28.866C65.7939 28.866 65.3801 28.6995 65.0534 28.3665C64.7267 28.0334 64.5688 27.5783 64.5688 27.001C64.5688 26.3904 64.7322 25.913 65.0589 25.5745C65.3856 25.2359 65.8157 25.0693 66.3438 25.0693C66.8066 25.0693 67.1823 25.2026 67.4763 25.469C67.6506 25.6244 67.7758 25.852 67.8629 26.1462L67.1061 26.3238C67.0625 26.1351 66.97 25.9852 66.823 25.8742C66.6814 25.7632 66.5072 25.7077 66.3057 25.7077C66.0226 25.7077 65.7994 25.8076 65.6197 26.0019C65.4454 26.1961 65.3583 26.5125 65.3583 26.951C65.3583 27.4173 65.4454 27.7448 65.6142 27.9446C65.7885 28.1444 66.0117 28.2388 66.2839 28.2388C66.4854 28.2388 66.6651 28.1778 66.8066 28.0501C66.9536 27.9224 67.0571 27.7281 67.1224 27.4562L67.1279 27.4506Z" fill="#474D63"/>
<path d="M114.84 26.1292L114.094 25.9627C114.252 25.3632 114.709 25.0635 115.461 25.0635C115.907 25.0635 116.239 25.1578 116.468 25.3466C116.697 25.5353 116.805 25.7573 116.805 26.0127C116.805 26.1903 116.756 26.3457 116.653 26.49C116.55 26.6288 116.397 26.7565 116.19 26.8619C116.441 26.9452 116.631 27.0617 116.756 27.2172C116.882 27.3726 116.947 27.5613 116.947 27.7833C116.947 28.1053 116.827 28.3662 116.582 28.566C116.337 28.7658 115.972 28.8657 115.488 28.8657C115.09 28.8657 114.78 28.8047 114.551 28.6715C114.323 28.5438 114.148 28.3051 114.034 27.9554L114.736 27.7334C114.807 27.9554 114.905 28.0997 115.025 28.1608C115.145 28.2274 115.292 28.2607 115.466 28.2607C115.706 28.2607 115.885 28.2107 115.994 28.1108C116.103 28.0109 116.157 27.8944 116.157 27.7611C116.157 27.6113 116.098 27.4891 115.972 27.4003C115.847 27.306 115.657 27.2616 115.406 27.2616H115.232V26.7065H115.319C115.553 26.7065 115.733 26.6565 115.858 26.5511C115.983 26.4512 116.043 26.3124 116.043 26.1459C116.043 26.0127 115.994 25.9016 115.891 25.8073C115.787 25.7129 115.646 25.6685 115.455 25.6685C115.134 25.6685 114.927 25.8239 114.84 26.1292Z" fill="#474D63"/>
<path d="M140.425 26.9847C140.425 26.6128 140.484 26.2964 140.599 26.0411C140.686 25.8523 140.8 25.6858 140.953 25.536C141.1 25.3861 141.263 25.2751 141.443 25.2029C141.677 25.1085 141.949 25.0586 142.259 25.0586C142.82 25.0586 143.267 25.2251 143.599 25.5637C143.936 25.9023 144.1 26.3686 144.1 26.9625C144.1 27.5564 143.931 28.0227 143.599 28.3557C143.267 28.6888 142.82 28.8608 142.265 28.8608C141.709 28.8608 141.252 28.6943 140.92 28.3613C140.588 28.0282 140.419 27.5675 140.419 26.9847H140.425ZM141.214 26.9569C141.214 27.3733 141.312 27.6896 141.513 27.9061C141.709 28.1226 141.965 28.2281 142.27 28.2281C142.575 28.2281 142.826 28.1226 143.022 27.9061C143.218 27.6952 143.316 27.3732 143.316 26.9458C143.316 26.5184 143.223 26.2131 143.033 26.0022C142.842 25.7968 142.592 25.6914 142.276 25.6914C141.96 25.6914 141.704 25.7968 141.513 26.0078C141.323 26.2187 141.225 26.5351 141.225 26.9569H141.214Z" fill="#474D63"/>
<path d="M132.051 26.9847C132.051 26.6128 132.111 26.2964 132.225 26.0411C132.312 25.8523 132.426 25.6858 132.579 25.536C132.726 25.3861 132.889 25.2751 133.069 25.2029C133.303 25.1085 133.575 25.0586 133.885 25.0586C134.446 25.0586 134.893 25.2251 135.225 25.5637C135.562 25.9023 135.726 26.3686 135.726 26.9625C135.726 27.5564 135.557 28.0227 135.225 28.3557C134.893 28.6888 134.446 28.8608 133.891 28.8608C133.336 28.8608 132.878 28.6943 132.546 28.3613C132.214 28.0282 132.045 27.5675 132.045 26.9847H132.051ZM132.84 26.9569C132.84 27.3733 132.938 27.6896 133.14 27.9061C133.336 28.1226 133.591 28.2281 133.896 28.2281C134.201 28.2281 134.452 28.1226 134.648 27.9061C134.844 27.6952 134.942 27.3732 134.942 26.9458C134.942 26.5184 134.849 26.2131 134.659 26.0022C134.468 25.7968 134.218 25.6914 133.902 25.6914C133.586 25.6914 133.33 25.7968 133.14 26.0078C132.949 26.2187 132.851 26.5351 132.851 26.9569H132.84Z" fill="#474D63"/>
<path d="M108.442 25.1252H109.21V26.6572H109.825C109.869 26.202 110.032 25.8246 110.321 25.5193C110.604 25.214 111.018 25.0586 111.562 25.0586C112.107 25.0586 112.499 25.2251 112.809 25.5526C113.119 25.8801 113.272 26.3464 113.272 26.9569C113.272 27.3566 113.206 27.6952 113.07 27.9783C112.934 28.2614 112.744 28.4778 112.499 28.6333C112.254 28.7887 111.949 28.8664 111.584 28.8664C111.219 28.8664 110.914 28.8109 110.696 28.6943C110.479 28.5833 110.283 28.3946 110.119 28.1448C109.956 27.8895 109.858 27.6008 109.831 27.2789H109.215V28.8053H108.448V25.1308L108.442 25.1252ZM110.587 26.968C110.587 27.3733 110.669 27.6896 110.838 27.9117C111.007 28.1337 111.241 28.2447 111.546 28.2447C111.851 28.2447 112.09 28.1337 112.248 27.9172C112.406 27.6952 112.482 27.3677 112.482 26.9292C112.482 26.4907 112.39 26.202 112.21 26.0022C112.03 25.8079 111.802 25.708 111.519 25.708C111.235 25.708 111.023 25.8079 110.849 26.0078C110.675 26.2076 110.587 26.5295 110.587 26.9736V26.968Z" fill="#474D63"/>
<path d="M51.9371 27.018C51.9371 26.635 51.997 26.3186 52.1114 26.0577C52.1985 25.869 52.3183 25.6969 52.4653 25.5471C52.6177 25.3972 52.7811 25.2862 52.9607 25.2085C53.2003 25.1085 53.4725 25.0586 53.7829 25.0586C54.3437 25.0586 54.7956 25.2307 55.1332 25.5693C55.4708 25.9134 55.6395 26.3852 55.6395 26.9958C55.6395 27.6064 55.4707 28.0726 55.1386 28.4112C54.8065 28.7498 54.3546 28.9219 53.7938 28.9219C53.233 28.9219 52.7756 28.7498 52.438 28.4112C52.1005 28.0726 51.9371 27.6064 51.9371 27.0125V27.018ZM52.7321 26.9903C52.7321 27.4121 52.8301 27.734 53.0315 27.9505C53.233 28.167 53.4834 28.278 53.7938 28.278C54.1041 28.278 54.3546 28.167 54.5506 27.9505C54.7466 27.734 54.8446 27.4066 54.8446 26.9736C54.8446 26.5406 54.7466 26.2242 54.556 26.0133C54.3655 25.8024 54.1096 25.6969 53.7883 25.6969C53.4671 25.6969 53.2112 25.8024 53.0206 26.0189C52.8246 26.2298 52.7266 26.5517 52.7266 26.9847L52.7321 26.9903Z" fill="#474D63"/>
<path d="M133.281 20.3566C132.274 20.3566 131.506 20.018 130.983 19.3409C130.461 18.6637 130.199 17.659 130.199 16.3268V9.91016H132.704V15.7606C132.704 17.337 133.248 18.1308 134.332 18.1308C134.816 18.1308 135.29 17.9754 135.742 17.6701C136.199 17.3648 136.57 16.8985 136.853 16.2713V9.91016H139.357V17.1539C139.357 17.4259 139.406 17.6257 139.499 17.7422C139.591 17.8588 139.744 17.9254 139.956 17.9365V20.1679C139.706 20.2179 139.499 20.2512 139.33 20.2678C139.161 20.2789 139.009 20.29 138.873 20.29C138.426 20.29 138.062 20.1846 137.778 19.9681C137.501 19.7516 137.332 19.4574 137.283 19.08L137.228 18.2585C136.793 18.9634 136.232 19.4907 135.546 19.846C134.86 20.1957 134.109 20.3733 133.286 20.3733L133.281 20.3566Z" fill="#474D63"/>
<path d="M70.6778 20.1624L67.068 9.91016H69.6488L72.137 18.0309L74.6416 9.91016H76.9991L73.3893 20.1624H70.6778Z" fill="#474D63"/>
<path d="M118.243 12.2306C117.481 12.2417 116.805 12.3971 116.206 12.6913C115.608 12.9855 115.177 13.424 114.916 14.0124V20.2181H112.411V9.96037H114.709V12.1529C114.883 11.8032 115.09 11.4868 115.324 11.2037C115.559 10.9262 115.814 10.6764 116.092 10.471C116.364 10.2601 116.642 10.1047 116.925 9.99367C117.208 9.88266 117.475 9.82715 117.736 9.82715H118.047C118.118 9.82715 118.183 9.8327 118.243 9.84935V12.2362V12.2306Z" fill="#474D63"/>
<path d="M147.715 20.3572C146.942 20.3572 146.267 20.1796 145.695 19.8188C145.123 19.458 144.671 18.9751 144.35 18.3589V22.7329H141.846V9.90516H144.034V11.6647C144.394 11.0653 144.862 10.5935 145.439 10.2438C146.011 9.89961 146.675 9.72754 147.421 9.72754C148.08 9.72754 148.69 9.86631 149.256 10.1494C149.817 10.4325 150.301 10.8099 150.704 11.2873C151.107 11.7647 151.428 12.3253 151.657 12.9692C151.886 13.6131 152.005 14.2958 152.005 15.0118C152.005 15.7279 151.902 16.455 151.69 17.1045C151.477 17.7595 151.183 18.3256 150.802 18.8085C150.421 19.2915 149.969 19.6689 149.446 19.9464C148.924 20.2184 148.352 20.3572 147.726 20.3572H147.715ZM146.871 18.1258C147.247 18.1258 147.59 18.0425 147.911 17.8705C148.227 17.6984 148.499 17.4708 148.722 17.1877C148.945 16.8991 149.12 16.566 149.245 16.1886C149.37 15.8111 149.43 15.417 149.43 15.0118C149.43 14.5789 149.359 14.1792 149.223 13.8073C149.087 13.4354 148.896 13.1135 148.651 12.836C148.406 12.564 148.123 12.3475 147.791 12.1921C147.459 12.0366 147.105 11.9589 146.719 11.9589C146.479 11.9589 146.239 12.0033 145.989 12.0866C145.739 12.1699 145.51 12.292 145.298 12.4474C145.085 12.6028 144.895 12.786 144.726 12.9969C144.557 13.2079 144.432 13.4354 144.345 13.6797V16.0887C144.568 16.6771 144.911 17.16 145.374 17.5485C145.837 17.9315 146.332 18.1258 146.871 18.1258Z" fill="#474D63"/>
<path d="M127.433 11.3262C126.992 10.8377 126.453 10.4491 125.827 10.1605C125.196 9.87186 124.482 9.72754 123.687 9.72754C122.892 9.72754 122.174 9.87186 121.537 10.1605C120.9 10.4491 120.361 10.8377 119.92 11.3262C119.479 11.8146 119.136 12.3808 118.902 13.0191C118.667 13.6575 118.548 14.3346 118.548 15.0562C118.548 15.7778 118.667 16.4328 118.902 17.0712C119.136 17.7095 119.479 18.2757 119.92 18.7641C120.361 19.2526 120.9 19.6412 121.537 19.9298C122.174 20.2184 122.887 20.3628 123.687 20.3628C124.488 20.3628 125.201 20.2184 125.838 19.9298C126.475 19.6412 127.009 19.2526 127.444 18.7641C127.88 18.2757 128.217 17.7095 128.452 17.0712C128.686 16.4328 128.805 15.7612 128.805 15.0562C128.805 14.3513 128.686 13.663 128.452 13.0191C128.212 12.3808 127.874 11.8146 127.433 11.3262ZM126.05 16.2885C125.92 16.666 125.74 16.9935 125.506 17.2654C125.277 17.5374 125.005 17.7539 124.695 17.9038C124.384 18.0536 124.047 18.1314 123.687 18.1314C123.328 18.1314 122.99 18.0536 122.68 17.9038C122.37 17.7539 122.098 17.543 121.869 17.2654C121.64 16.9935 121.455 16.666 121.324 16.2941C121.194 15.9222 121.128 15.5059 121.128 15.0507C121.128 14.5955 121.194 14.1959 121.324 13.8184C121.455 13.441 121.635 13.1135 121.869 12.8415C122.098 12.5695 122.37 12.353 122.68 12.1976C122.99 12.0422 123.328 11.9645 123.687 11.9645C124.047 11.9645 124.384 12.0422 124.695 12.1921C125.005 12.3419 125.277 12.5529 125.506 12.8304C125.735 13.1024 125.92 13.4299 126.05 13.8073C126.181 14.1848 126.246 14.5955 126.246 15.0396C126.246 15.4837 126.181 15.9166 126.05 16.2941V16.2885Z" fill="#474D63"/>
<path d="M92.3859 20.1629H89.8813V14.4068C89.8813 13.5853 89.7452 12.9858 89.4675 12.6084C89.1953 12.2309 88.8141 12.0422 88.3295 12.0422C88.0791 12.0422 87.8232 12.0922 87.5618 12.1976C87.3005 12.3031 87.0555 12.4474 86.8214 12.6361C86.5927 12.8249 86.3803 13.0524 86.1952 13.3133C86.0101 13.5742 85.8685 13.8628 85.7814 14.1737V20.1629H83.2769V9.90516H85.5364V11.8035C85.8958 11.1485 86.4239 10.6434 87.1045 10.2771C87.7905 9.91071 88.5637 9.72754 89.4239 9.72754C90.0337 9.72754 90.5347 9.8441 90.9212 10.0772C91.3078 10.3104 91.6073 10.6212 91.8196 10.9987C92.032 11.3761 92.179 11.8091 92.2606 12.292C92.3423 12.7749 92.3804 13.2634 92.3804 13.7574V20.1574L92.3859 20.1629Z" fill="#474D63"/>
<path d="M65.4183 11.315C64.9772 10.8321 64.4382 10.4491 63.8121 10.1605C63.1805 9.87186 62.4672 9.72754 61.6723 9.72754C60.8774 9.72754 60.1532 9.87186 59.5108 10.1605C58.8683 10.4491 58.3238 10.8377 57.8773 11.3262C57.4309 11.8146 57.0879 12.3808 56.8483 13.0302C56.6087 13.6741 56.4944 14.3624 56.4944 15.0951C56.4944 15.8278 56.6142 16.4717 56.8592 17.11C57.1042 17.7484 57.4472 18.309 57.8991 18.7919C58.3456 19.2748 58.8901 19.6578 59.5271 19.9353C60.1641 20.2129 60.8719 20.3572 61.656 20.3572C62.7504 20.3572 63.6977 20.1074 64.4872 19.6023C65.2767 19.1027 65.8538 18.4588 66.2186 17.6762L64.068 17.049C63.9046 17.4653 63.6052 17.8039 63.1587 18.0592C62.7177 18.3145 62.244 18.4422 61.7485 18.4422C61.4218 18.4422 61.1115 18.3811 60.812 18.2646C60.5126 18.148 60.2458 17.9759 60.0062 17.7539C59.7667 17.5319 59.5761 17.2654 59.4291 16.949C59.2821 16.6382 59.1841 16.2774 59.146 15.8722H66.7196C66.7468 15.7667 66.7577 15.6391 66.7686 15.4781C66.774 15.3227 66.7794 15.1562 66.7794 14.9896C66.7794 14.2958 66.6651 13.6353 66.431 12.9914C66.2023 12.353 65.8647 11.7924 65.4237 11.3095L65.4183 11.315ZM59.1078 14.1737C59.1351 13.7962 59.2167 13.4521 59.3583 13.1357C59.4999 12.8248 59.685 12.5529 59.9082 12.3308C60.1314 12.1088 60.3928 11.9367 60.6868 11.8146C60.9808 11.6925 61.2966 11.6314 61.6287 11.6314C62.3148 11.6314 62.8974 11.8646 63.3765 12.3253C63.8556 12.786 64.1279 13.4077 64.1878 14.1737H59.1024H59.1078Z" fill="#474D63"/>
<path d="M56.4943 20.0798C55.8845 19.4248 55.3564 18.6532 55.0297 17.7929H50.7828V6.26953H48.202V20.163H56.5814C56.5542 20.1353 56.5215 20.1075 56.4998 20.0798H56.4943Z" fill="#474D63"/>
<path d="M108.312 18.5977C107.25 19.7078 106.019 20.2629 104.609 20.2629C103.738 20.2629 102.916 20.0797 102.148 19.7134C101.381 19.347 100.716 18.8474 100.15 18.2091C99.5838 17.5708 99.1318 16.8159 98.8052 15.95C98.473 15.084 98.3097 14.146 98.3097 13.1413C98.3097 12.1866 98.473 11.2929 98.8052 10.4492C99.1373 9.60547 99.5892 8.87277 100.172 8.23999C100.749 7.6072 101.435 7.10209 102.219 6.73574C103.003 6.36384 103.858 6.18066 104.778 6.18066C106.025 6.18066 107.092 6.45265 107.985 7.00217C108.878 7.5517 109.548 8.28994 109.994 9.21137L108.067 10.699C107.729 10.0051 107.261 9.4778 106.656 9.11145C106.052 8.74511 105.393 8.56193 104.685 8.56193C104.125 8.56193 103.613 8.68405 103.145 8.93383C102.676 9.18361 102.279 9.52221 101.947 9.94962C101.615 10.3826 101.359 10.8766 101.179 11.4372C100.999 11.9978 100.907 12.5918 100.907 13.219C100.907 13.8462 101.005 14.479 101.206 15.0507C101.408 15.6169 101.68 16.1109 102.028 16.5272C102.377 16.9435 102.791 17.2766 103.27 17.5153C103.749 17.754 104.272 17.8761 104.832 17.8761C106.117 17.8761 107.277 17.2433 108.312 15.9777V15.0008H105.638V13.0247H110.441V20.1685H108.312V18.6032V18.5977Z" fill="#474D63"/>
<path d="M78.5018 8.4783V5.875H81.0064V8.4783H78.5018ZM78.5018 20.1626V9.90484H81.0064V20.157H78.5018V20.1626Z" fill="#474D63"/>
<path d="M12.6753 26.2184L12.6807 26.2129H12.06H6.30497V11.8587V7.06283H6.31042L0 0.640625V7.06283V7.34036V7.57349V25.9409V26.2184L6.30497 32.6406H10.1489H18.8224H18.9803L12.6753 26.2184Z" fill="#474D63"/>
<path d="M34.1493 13.8014H28.2091L34.1493 19.9738V20.5511V21.7723V26.2129H22.503V7.05728L34.2418 7.06283L39.9969 0.640625H22.503L16.1926 7.06283V7.34036V25.9409V26.2184L22.503 32.6406H25.4105H34.0785H34.1493L40.4543 26.2184V21.7723V20.5733V19.9738L34.1493 13.8014Z" fill="#474D63"/>
</g>
<defs>
<clipPath id="clip0_74_222">
<rect width="152" height="32" fill="white" transform="translate(0 0.640625)"/>
</clipPath>
</defs>
</svg>
