<svg width="151" height="31" viewBox="0 0 151 31" fill="none" xmlns="http://www.w3.org/2000/svg">
<g clip-path="url(#clip0_132_199)">
<path d="M132.404 23.1001C131.404 23.1001 130.641 22.7721 130.122 22.116C129.602 21.46 129.343 20.4867 129.343 19.1962V12.9801H131.831V18.6477C131.831 20.1749 132.372 20.9438 133.448 20.9438C133.93 20.9438 134.4 20.7932 134.849 20.4975C135.303 20.2017 135.671 19.75 135.952 19.1424V12.9801H138.441V19.9974C138.441 20.2609 138.489 20.4545 138.581 20.5674C138.673 20.6803 138.825 20.7448 139.035 20.7556V22.9173C138.787 22.9657 138.581 22.9979 138.413 23.0141C138.246 23.0248 138.094 23.0356 137.959 23.0356C137.516 23.0356 137.153 22.9334 136.872 22.7237C136.596 22.514 136.428 22.229 136.38 21.8633L136.326 21.0675C135.893 21.7504 135.336 22.2612 134.654 22.6054C133.973 22.9441 133.226 23.1162 132.41 23.1162L132.404 23.1001Z" fill="#2A3D9E"/>
<path d="M70.2128 22.9119L66.6267 12.9801H69.1905L71.6624 20.847L74.1505 12.9801H76.4925L72.9064 22.9119H70.2128Z" fill="#2A3D9E"/>
<path d="M117.465 15.2278C116.708 15.2385 116.037 15.3891 115.442 15.6741C114.847 15.9591 114.42 16.3839 114.16 16.9539V22.9657H111.672V13.0285H113.955V15.1525C114.128 14.8137 114.333 14.5072 114.566 14.233C114.798 13.9641 115.053 13.7221 115.328 13.5232C115.599 13.3188 115.875 13.1683 116.156 13.0607C116.437 12.9532 116.702 12.8994 116.962 12.8994H117.27C117.341 12.8994 117.405 12.9048 117.465 12.9209V15.2331V15.2278Z" fill="#2A3D9E"/>
<path d="M146.743 23.1001C145.975 23.1001 145.304 22.928 144.736 22.5785C144.169 22.229 143.72 21.7612 143.4 21.1643V25.4016H140.912V12.9747H143.087V14.6793C143.444 14.0985 143.909 13.6415 144.482 13.3027C145.05 12.9693 145.71 12.8026 146.451 12.8026C147.106 12.8026 147.711 12.937 148.274 13.2113C148.831 13.4855 149.312 13.8512 149.713 14.3136C150.113 14.7761 150.432 15.3192 150.659 15.9429C150.886 16.5667 151.005 17.2281 151.005 17.9218C151.005 18.6154 150.903 19.3199 150.692 19.949C150.481 20.5835 150.189 21.132 149.81 21.5998C149.431 22.0677 148.982 22.4333 148.463 22.7022C147.944 22.9657 147.376 23.1001 146.754 23.1001H146.743ZM145.905 20.9384C146.278 20.9384 146.619 20.8578 146.938 20.6911C147.252 20.5244 147.522 20.3039 147.744 20.0297C147.966 19.7501 148.139 19.4274 148.263 19.0618C148.387 18.6961 148.447 18.3143 148.447 17.9218C148.447 17.5024 148.377 17.1152 148.241 16.7549C148.106 16.3946 147.917 16.0828 147.673 15.8139C147.43 15.5504 147.149 15.3407 146.819 15.1901C146.489 15.0396 146.137 14.9643 145.753 14.9643C145.515 14.9643 145.277 15.0073 145.029 15.088C144.78 15.1686 144.553 15.2869 144.342 15.4375C144.131 15.588 143.941 15.7655 143.774 15.9698C143.606 16.1742 143.482 16.3946 143.395 16.6312V18.965C143.617 19.535 143.958 20.0028 144.417 20.3792C144.877 20.7502 145.369 20.9384 145.905 20.9384Z" fill="#2A3D9E"/>
<path d="M126.595 14.3513C126.157 13.8781 125.621 13.5017 124.999 13.222C124.372 12.9424 123.663 12.8026 122.874 12.8026C122.084 12.8026 121.37 12.9424 120.737 13.222C120.104 13.5017 119.569 13.8781 119.131 14.3513C118.693 14.8245 118.352 15.3729 118.119 15.9913C117.887 16.6097 117.768 17.2658 117.768 17.9648C117.768 18.6638 117.887 19.2984 118.119 19.9167C118.352 20.5351 118.693 21.0836 119.131 21.5568C119.569 22.03 120.104 22.4064 120.737 22.686C121.37 22.9657 122.079 23.1055 122.874 23.1055C123.669 23.1055 124.377 22.9657 125.01 22.686C125.643 22.4064 126.173 22.03 126.606 21.5568C127.039 21.0836 127.374 20.5351 127.606 19.9167C127.839 19.2984 127.958 18.6477 127.958 17.9648C127.958 17.2819 127.839 16.6151 127.606 15.9913C127.368 15.3729 127.033 14.8245 126.595 14.3513ZM125.221 19.1586C125.091 19.5242 124.913 19.8415 124.68 20.105C124.453 20.3684 124.183 20.5782 123.874 20.7233C123.566 20.8685 123.231 20.9438 122.874 20.9438C122.517 20.9438 122.181 20.8685 121.873 20.7233C121.565 20.5782 121.294 20.3738 121.067 20.105C120.84 19.8415 120.656 19.5242 120.526 19.1639C120.396 18.8037 120.332 18.4004 120.332 17.9594C120.332 17.5185 120.396 17.1313 120.526 16.7657C120.656 16.4 120.835 16.0828 121.067 15.8193C121.294 15.5558 121.565 15.3461 121.873 15.1955C122.181 15.0449 122.517 14.9697 122.874 14.9697C123.231 14.9697 123.566 15.0449 123.874 15.1901C124.183 15.3353 124.453 15.5396 124.68 15.8085C124.907 16.072 125.091 16.3893 125.221 16.7549C125.351 17.1206 125.416 17.5185 125.416 17.9487C125.416 18.3788 125.351 18.7983 125.221 19.1639V19.1586Z" fill="#2A3D9E"/>
<path d="M91.7781 22.9119H89.29V17.3357C89.29 16.5398 89.1548 15.9591 88.8789 15.5934C88.6085 15.2278 88.2298 15.0449 87.7485 15.0449C87.4996 15.0449 87.2454 15.0933 86.9858 15.1955C86.7262 15.2977 86.4828 15.4375 86.2502 15.6203C86.023 15.8031 85.8121 16.0236 85.6282 16.2763C85.4443 16.5291 85.3036 16.8087 85.2171 17.1098V22.9119H82.729V12.9747H84.9737V14.8137C85.3307 14.1792 85.8553 13.6899 86.5315 13.335C87.213 12.9801 87.981 12.8026 88.8356 12.8026C89.4414 12.8026 89.9391 12.9155 90.3231 13.1414C90.7071 13.3672 91.0046 13.6684 91.2156 14.034C91.4265 14.3997 91.5725 14.8191 91.6537 15.2869C91.7348 15.7547 91.7727 16.2279 91.7727 16.7065V22.9065L91.7781 22.9119Z" fill="#2A3D9E"/>
<path d="M64.9878 14.3405C64.5497 13.8727 64.0142 13.5017 63.3922 13.222C62.7647 12.9424 62.0562 12.8026 61.2665 12.8026C60.4768 12.8026 59.7574 12.9424 59.1191 13.222C58.4809 13.5017 57.94 13.8781 57.4965 14.3513C57.0529 14.8245 56.7122 15.3729 56.4742 16.0021C56.2362 16.6259 56.1226 17.2926 56.1226 18.0024C56.1226 18.7122 56.2416 19.336 56.485 19.9544C56.7284 20.5728 57.0692 21.1159 57.5181 21.5837C57.9616 22.0515 58.5025 22.4226 59.1354 22.6914C59.7682 22.9603 60.4714 23.1001 61.2502 23.1001C62.3374 23.1001 63.2786 22.8581 64.0629 22.3688C64.8472 21.8848 65.4205 21.2611 65.7829 20.5029L63.6464 19.8952C63.4841 20.2985 63.1866 20.6265 62.7431 20.8739C62.305 21.1213 61.8344 21.2449 61.3422 21.2449C61.0177 21.2449 60.7094 21.1858 60.4119 21.0729C60.1144 20.9599 59.8493 20.7932 59.6114 20.5782C59.3734 20.3631 59.1841 20.105 59.038 19.7984C58.892 19.4973 58.7946 19.1478 58.7567 18.7553H66.2805C66.3076 18.6531 66.3184 18.5294 66.3292 18.3735C66.3346 18.2229 66.34 18.0616 66.34 17.9003C66.34 17.2281 66.2264 16.5882 65.9938 15.9645C65.7667 15.3461 65.4313 14.803 64.9932 14.3351L64.9878 14.3405ZM58.7189 17.1098C58.7459 16.7442 58.8271 16.4108 58.9677 16.1043C59.1083 15.8031 59.2922 15.5396 59.514 15.3246C59.7358 15.1095 59.9954 14.9428 60.2875 14.8245C60.5795 14.7062 60.8933 14.647 61.2232 14.647C61.9047 14.647 62.4835 14.8729 62.9595 15.3192C63.4354 15.7655 63.7059 16.3677 63.7654 17.1098H58.7135H58.7189Z" fill="#2A3D9E"/>
<path d="M56.1226 22.8312C55.5168 22.1967 54.9922 21.4493 54.6676 20.6158H50.4487V9.45256H47.8849V22.9119H56.2092C56.1821 22.885 56.1497 22.8581 56.128 22.8312H56.1226Z" fill="#2A3D9E"/>
<path d="M107.599 21.3955C106.544 22.471 105.322 23.0087 103.921 23.0087C103.056 23.0087 102.239 22.8312 101.476 22.4763C100.714 22.1214 100.054 21.6375 99.4912 21.0191C98.9286 20.4007 98.4797 19.6694 98.1552 18.8305C97.8252 17.9917 97.663 17.0829 97.663 16.1096C97.663 15.1847 97.8252 14.319 98.1552 13.5017C98.4851 12.6843 98.9341 11.9745 99.5128 11.3615C100.086 10.7485 100.768 10.2592 101.547 9.90426C102.325 9.54398 103.175 9.36653 104.089 9.36653C105.327 9.36653 106.388 9.63002 107.275 10.1624C108.162 10.6947 108.827 11.4099 109.27 12.3025L107.356 13.7436C107.02 13.0715 106.555 12.5606 105.955 12.2057C105.354 11.8508 104.7 11.6734 103.997 11.6734C103.44 11.6734 102.931 11.7917 102.466 12.0337C102.001 12.2756 101.606 12.6037 101.276 13.0177C100.946 13.4371 100.692 13.9157 100.513 14.4588C100.335 15.0019 100.243 15.5773 100.243 16.1849C100.243 16.7926 100.34 17.4056 100.54 17.9594C100.741 18.5079 101.011 18.9865 101.357 19.3898C101.703 19.7931 102.114 20.1157 102.59 20.3469C103.066 20.5782 103.586 20.6965 104.143 20.6965C105.419 20.6965 106.571 20.0834 107.599 18.8574V17.911H104.943V15.9967H109.714V22.9173H107.599V21.4009V21.3955Z" fill="#2A3D9E"/>
<path d="M77.9854 11.5927V9.07077H80.4734V11.5927H77.9854ZM77.9854 22.9119V12.9747H80.4734V22.9065H77.9854V22.9119Z" fill="#2A3D9E"/>
<path d="M12.5919 24.7785L12.5973 24.7731H11.9807H6.26349V10.8675V6.22151H6.2689L0 0V6.22151V6.49037V6.71622V24.5096V24.7785L6.26349 31H10.0822H18.6985H18.8554L12.5919 24.7785Z" fill="#2A3D9E"/>
<path d="M33.9246 12.7495H28.0235L33.9246 18.7291V19.2883V20.4713V24.7731H22.355V6.21613L34.0165 6.22151L39.7337 0H22.355L16.0861 6.22151V6.49037V24.5096V24.7785L22.355 31H25.2433H33.8543H33.9246L40.1881 24.7785V20.4713V19.3098V18.7291L33.9246 12.7495Z" fill="#FE5C01"/>
</g>
<defs>
<clipPath id="clip0_132_199">
<rect width="151" height="31" fill="white"/>
</clipPath>
</defs>
</svg>
