<svg width="92" height="20" viewBox="0 0 92 20" fill="none" xmlns="http://www.w3.org/2000/svg">
<path d="M63.8723 0.479004L66.333 6.34479L72.509 6.94293L67.8538 11.1663L69.2101 17.4018L63.8723 14.1462L58.5345 17.4018L59.8908 11.1663L55.2356 6.94293L61.4116 6.34479L63.8723 0.479004Z" fill="#F8C511"/>
<path d="M82.0342 0.479004L84.4949 6.34479L90.6708 6.94293L86.0157 11.1663L87.3719 17.4018L82.0342 14.1462L76.6964 17.4018L78.0526 11.1663L73.3975 6.94293L79.5734 6.34479L82.0342 0.479004Z" fill="#F8C511"/>
<path d="M9.38523 0.479004L11.8459 6.34479L18.0219 6.94293L13.3667 11.1663L14.723 17.4018L9.38523 14.1462L4.04746 17.4018L5.40371 11.1663L0.74854 6.94293L6.92452 6.34479L9.38523 0.479004Z" fill="#F8C511"/>
<path d="M27.5475 0.479004L30.0082 6.34479L36.1841 6.94293L31.529 11.1663L32.8852 17.4018L27.5475 14.1462L22.2097 17.4018L23.5659 11.1663L18.9108 6.94293L25.0867 6.34479L27.5475 0.479004Z" fill="#F8C511"/>
<path d="M45.7093 0.479004L48.17 6.34479L54.346 6.94293L49.6908 11.1663L51.0471 17.4018L45.7093 14.1462L40.3716 17.4018L41.7278 11.1663L37.0726 6.94293L43.2486 6.34479L45.7093 0.479004Z" fill="#F8C511"/>
</svg>
