<svg width="27" height="29" viewBox="0 0 27 29" fill="none" xmlns="http://www.w3.org/2000/svg">
<path d="M0.00541806 28.3333L1.83062 21.4545C0.627954 19.34 -0.00390235 16.9351 1.81335e-05 14.4872C1.81335e-05 6.83993 6.04396 0.641006 13.5 0.641006C20.9561 0.641006 27 6.83993 27 14.4872C27 22.1344 20.9561 28.3333 13.5 28.3333C11.1143 28.3372 8.7705 27.6897 6.70951 26.4571L0.00541806 28.3333ZM8.62786 7.99054C8.45353 8.00164 8.28317 8.04874 8.12701 8.129C7.98057 8.21406 7.84688 8.32039 7.73011 8.44469C7.56811 8.60115 7.47631 8.73685 7.37776 8.86838C6.87882 9.53438 6.61044 10.3519 6.61501 11.1918C6.61771 11.8702 6.79051 12.5307 7.06051 13.1482C7.61266 14.3972 8.52121 15.7195 9.72136 16.9448C10.0103 17.2398 10.2924 17.5361 10.5962 17.8116C12.0857 19.1567 13.8608 20.1267 15.7802 20.6445L16.5483 20.765C16.7981 20.7788 17.0478 20.7595 17.2989 20.747C17.6921 20.7262 18.076 20.617 18.4235 20.4271C18.6476 20.3053 18.7529 20.2444 18.9405 20.1225C18.9405 20.1225 18.9986 20.0838 19.1093 19.9979C19.2915 19.8595 19.4036 19.7611 19.5548 19.5991C19.6668 19.4801 19.764 19.3402 19.8383 19.181C19.9436 18.9553 20.0489 18.5247 20.0921 18.1661C20.1245 17.8919 20.115 17.7424 20.111 17.6496C20.1056 17.5015 19.9854 17.3478 19.8545 17.2827L19.0688 16.9213C19.0688 16.9213 17.8943 16.3965 17.1774 16.0615C17.1018 16.0277 17.0208 16.0084 16.9385 16.0047C16.8461 15.995 16.7528 16.0056 16.6647 16.0359C16.5767 16.0663 16.4961 16.1156 16.4282 16.1805V16.1778C16.4214 16.1778 16.331 16.2567 15.3549 17.4696C15.2989 17.5468 15.2217 17.6052 15.1332 17.6372C15.0448 17.6693 14.949 17.6736 14.8581 17.6496C14.7701 17.6255 14.684 17.5949 14.6003 17.5582C14.4329 17.4862 14.3748 17.4585 14.2601 17.4073L14.2533 17.4045C13.481 17.0587 12.7659 16.5916 12.1338 16.0199C11.9637 15.8676 11.8058 15.7015 11.6438 15.5408C11.1126 15.0192 10.6498 14.429 10.2668 13.7852L10.1871 13.6536C10.1299 13.5652 10.0836 13.4699 10.0494 13.3698C9.99811 13.1662 10.1318 13.0028 10.1318 13.0028C10.1318 13.0028 10.4598 12.6345 10.6124 12.4352C10.7394 12.2694 10.8579 12.0971 10.9674 11.9187C11.1267 11.6556 11.1767 11.3856 11.093 11.1765C10.715 10.2295 10.3235 9.28654 9.92116 8.35054C9.84151 8.165 9.60526 8.03208 9.39061 8.00577C9.31771 7.99746 9.24481 7.98915 9.17191 7.98362C8.99061 7.97438 8.80894 7.97623 8.62786 7.98915V7.99054Z" fill="#2CB742"/>
</svg>
