<svg width="17" height="16" viewBox="0 0 17 16" fill="none" xmlns="http://www.w3.org/2000/svg">
<path d="M13.7898 5.0903L13.3637 5.5359C12.6812 3.57499 11.2314 1.98152 9.41431 1.19237L9.73106 0.862428C10.1989 0.375098 10.9479 0.383301 11.4045 0.862428L13.7898 3.34709C14.2501 3.82313 14.2573 4.60333 13.7898 5.0903Z" fill="#FE5C01"/>
<path d="M7.00012 3C4.51871 3 2.5 5.01858 2.5 7.49974C2.5 9.98114 4.51871 12 7.00012 12C9.48129 12 11.5 9.98119 11.5 7.49974C11.5 5.01863 9.48129 3 7.00012 3Z" fill="#FE5C01"/>
<path d="M7.0535 1.33693C3.46813 1.19992 0.5 4.18666 0.5 7.91506C0.5 11.5459 3.33594 14.5 6.82 14.5H11.8159C12.5457 14.5 13.1384 13.8827 13.1384 13.1225V8.06477C13.1384 4.48148 10.4086 1.46277 7.0535 1.33693V1.33693ZM6.81987 11.7293C4.80091 11.7293 3.15819 10.0182 3.15819 7.91516C3.15819 5.81226 4.80091 4.10138 6.81987 4.10138C8.83884 4.10138 10.4814 5.81226 10.4814 7.91516C10.4814 10.0182 8.83884 11.7293 6.81987 11.7293Z" fill="#FE5C01"/>
<path d="M16.5 9.77729V13.1684C16.5 13.2576 16.4652 13.3468 16.4036 13.4082C16.3449 13.4694 16.2632 13.5085 16.1734 13.5085H13.7555C13.78 13.3827 13.7914 13.2551 13.7914 13.1225V10.7025H15.8469V9.77733C15.8469 9.59029 15.9922 9.43719 16.1734 9.43719C16.353 9.43719 16.5 9.59025 16.5 9.77729Z" fill="#FE5C01"/>
</svg>
