<svg width="120" height="120" viewBox="0 0 120 120" fill="none" xmlns="http://www.w3.org/2000/svg">
<path fill-rule="evenodd" clip-rule="evenodd" d="M36.1572 93.7832H36.4464V93.1469C36.5003 93.2217 36.5601 93.2921 36.6252 93.3573C36.8698 93.6028 37.1818 93.7703 37.5216 93.8384C37.8615 93.9065 38.2139 93.8723 38.5343 93.7399C38.8546 93.6076 39.1285 93.3832 39.3212 93.0951C39.5139 92.807 39.6168 92.4682 39.6168 92.1216C39.6168 91.775 39.5139 91.4361 39.3212 91.148C39.1285 90.8599 38.8546 90.6355 38.5343 90.5032C38.2139 90.3709 37.8615 90.3366 37.5216 90.4047C37.1818 90.4729 36.8698 90.6403 36.6252 90.8859C36.5601 90.9493 36.5003 91.0178 36.4464 91.091V88.6827H36.1572V93.7832V93.7832ZM36.8408 91.1015C37.0431 90.8993 37.3007 90.7617 37.5812 90.7059C37.8617 90.6502 38.1524 90.6789 38.4166 90.7883C38.6808 90.8978 38.9066 91.0831 39.0654 91.3209C39.2243 91.5587 39.3091 91.8382 39.3091 92.1242C39.3091 92.4102 39.2243 92.6897 39.0654 92.9275C38.9066 93.1653 38.6808 93.3506 38.4166 93.4601C38.1524 93.5696 37.8617 93.5982 37.5812 93.5425C37.3007 93.4868 37.0431 93.3491 36.8408 93.1469C36.6364 92.9546 36.4983 92.7024 36.4464 92.4266V91.8271C36.4979 91.5496 36.636 91.2956 36.8408 91.1015ZM42.6249 90.6545H42.3041L41.2525 92.8367L40.2008 90.6545H39.8801L41.0684 93.2048L40.2429 94.9715H40.5636L42.6249 90.6545ZM47.3573 88.6143C46.7486 88.6142 46.1586 88.8253 45.6882 89.2117C45.2178 89.598 44.896 90.1356 44.7777 90.7328C44.6595 91.3299 44.7521 91.9496 45.0399 92.4861C45.3276 93.0225 45.7925 93.4425 46.3554 93.6744C46.9183 93.9063 47.5441 93.9356 48.1262 93.7575C48.7083 93.5793 49.2106 93.2047 49.5472 92.6975C49.8839 92.1903 50.0342 91.582 49.9723 90.9764C49.9105 90.3708 49.6404 89.8054 49.2082 89.3768C48.969 89.1289 48.681 88.9332 48.3625 88.802C48.044 88.6708 47.7017 88.6069 47.3573 88.6143V88.6143ZM49.0032 89.5871C49.3813 89.9672 49.616 90.4666 49.6673 91.0003C49.7187 91.534 49.5835 92.069 49.2848 92.5142C48.9862 92.9595 48.5424 93.2875 48.0291 93.4424C47.5159 93.5973 46.9648 93.5696 46.4696 93.3639C45.9745 93.1583 45.5659 92.7874 45.3134 92.3145C45.0609 91.8415 44.9801 91.2956 45.0848 90.7698C45.1894 90.244 45.4731 89.7706 45.8874 89.4304C46.3017 89.0901 46.8212 88.9039 47.3573 88.9035C47.6639 88.8982 47.9683 88.9561 48.2515 89.0737C48.5347 89.1913 48.7906 89.3661 49.0032 89.5871V89.5871ZM51.7164 90.6387L50.8436 91.6904V89.2874H50.5543V93.7464H50.8436V92.1689L51.1222 91.8219L52.1739 93.7674H52.5315L51.301 91.5905L52.074 90.6387H51.7164ZM54.0669 92.3845C54.1282 92.4428 54.177 92.5129 54.2105 92.5907C54.2439 92.6684 54.2613 92.7521 54.2614 92.8367C54.2621 92.9209 54.2462 93.0045 54.2146 93.0826C54.183 93.1607 54.1363 93.2318 54.0773 93.2919C54.0182 93.3519 53.9478 93.3997 53.8703 93.4326C53.7927 93.4655 53.7094 93.4828 53.6252 93.4835C53.539 93.4856 53.4532 93.4702 53.3731 93.4382C53.293 93.4062 53.2203 93.3583 53.1593 93.2973C53.0983 93.2363 53.0504 93.1636 53.0184 93.0835C52.9864 93.0034 52.971 92.9177 52.9731 92.8314L52.6892 92.8998C52.6905 93.0127 52.715 93.1242 52.7611 93.2273C52.8072 93.3304 52.874 93.423 52.9574 93.4992C53.1318 93.6733 53.3682 93.771 53.6147 93.771C53.8611 93.771 54.0975 93.6733 54.2719 93.4992V93.4992C54.4434 93.3234 54.5395 93.0876 54.5395 92.842C54.5395 92.5963 54.4434 92.3605 54.2719 92.1847C54.0963 92.0272 53.8999 91.8945 53.6883 91.7903C53.5704 91.7205 53.4594 91.6395 53.357 91.5484C53.2909 91.484 53.2457 91.4013 53.2269 91.311C53.2082 91.2206 53.217 91.1267 53.252 91.0414C53.2871 90.956 53.3468 90.8831 53.4236 90.832C53.5004 90.7808 53.5907 90.7538 53.683 90.7544C53.7411 90.7517 53.7991 90.761 53.8534 90.7818C53.9077 90.8026 53.9571 90.8345 53.9985 90.8754C54.0858 90.977 54.1375 91.1044 54.1457 91.2382L54.3981 91.1383C54.3976 91.0532 54.3796 90.9692 54.3452 90.8914C54.3108 90.8136 54.2608 90.7437 54.1983 90.6861C54.1297 90.6172 54.0475 90.5634 53.957 90.5281C53.8665 90.4928 53.7696 90.4768 53.6725 90.481C53.5744 90.4801 53.4772 90.4992 53.3868 90.5372C53.2964 90.5751 53.2147 90.6312 53.1467 90.7018C53.008 90.8417 52.9301 91.0307 52.9301 91.2277C52.9301 91.4247 53.008 91.6136 53.1467 91.7535C53.3057 91.8892 53.4826 92.0025 53.6725 92.09C53.8176 92.1779 53.9548 92.2782 54.0826 92.3897L54.0669 92.3845ZM57.5689 90.6387H57.2481L56.1965 92.8209L55.1448 90.6387H54.8241L56.0124 93.189L55.2132 94.9715H55.5339L57.5689 90.6387ZM63.8788 88.6669L62.0331 91.0857L60.1875 88.6669H59.7721V93.7674H60.0613V88.9771L62.0331 91.5642L64.0102 88.9771V93.7674H64.2942V88.6669H63.8788ZM68.3588 90.6387H68.0696V91.0804C68.0142 91.0069 67.9545 90.9367 67.8908 90.8701C67.6459 90.6253 67.3339 90.4586 66.9943 90.391C66.6546 90.3235 66.3026 90.3582 65.9827 90.4908C65.6627 90.6233 65.3893 90.8477 65.1969 91.1357C65.0045 91.4236 64.9019 91.7621 64.9019 92.1084C64.9019 92.4547 65.0045 92.7932 65.1969 93.0812C65.3893 93.3691 65.6627 93.5935 65.9827 93.7261C66.3026 93.8586 66.6546 93.8933 66.9943 93.8258C67.3339 93.7583 67.6459 93.5916 67.8908 93.3467V93.3467C67.9539 93.2784 68.0118 93.21 68.0696 93.1364V93.7727H68.3588V90.6387ZM67.67 93.1259C67.4686 93.3278 67.2119 93.4653 66.9323 93.5212C66.6528 93.5771 66.3629 93.5488 66.0994 93.4399C65.8359 93.3309 65.6107 93.1463 65.4522 92.9093C65.2937 92.6722 65.2091 92.3935 65.2091 92.1084C65.2091 91.8233 65.2937 91.5446 65.4522 91.3076C65.6107 91.0706 65.8359 90.8859 66.0994 90.777C66.3629 90.668 66.6528 90.6397 66.9323 90.6956C67.2119 90.7515 67.4686 90.8891 67.67 91.091C67.8691 91.2915 68.006 91.5453 68.0644 91.8219V92.3897C68.0098 92.6703 67.8703 92.9273 67.6647 93.1259H67.67ZM68.7953 90.6387V90.9279H69.4315V93.7674H69.7155V90.9279H70.357V90.6387H69.7155V89.3084H69.4315V90.6387H68.7953ZM70.8092 93.7674H71.0984V91.2803C71.1443 91.1814 71.2085 91.0922 71.2877 91.0173C71.4697 90.8375 71.7153 90.7367 71.9712 90.7367C72.2271 90.7367 72.4727 90.8375 72.6548 91.0173C72.7464 91.1058 72.8188 91.2121 72.8677 91.3297C72.9165 91.4473 72.9407 91.5736 72.9388 91.7009V93.7674H73.228V91.6641C73.228 91.3475 73.1033 91.0436 72.8809 90.8182C72.6585 90.5928 72.3562 90.4641 72.0396 90.46H71.9765C71.8148 90.4571 71.6542 90.4868 71.5042 90.5473C71.3543 90.6078 71.218 90.6979 71.1036 90.8123V88.6774H70.8144V93.7779L70.8092 93.7674ZM74.49 91.0857C74.6242 90.9514 74.7837 90.8448 74.9592 90.7721C75.1346 90.6993 75.3227 90.6619 75.5127 90.6619C75.7026 90.6619 75.8907 90.6993 76.0662 90.7721C76.2417 90.8448 76.4011 90.9514 76.5354 91.0857V91.0857C76.6934 91.2447 76.8106 91.4396 76.8772 91.6536H74.1429C74.2154 91.4386 74.3379 91.244 74.5005 91.0857H74.49ZM77.2085 91.9481C77.2095 91.7472 77.1699 91.5482 77.0922 91.363C77.0145 91.1778 76.9003 91.0101 76.7563 90.8701C76.5114 90.6253 76.1994 90.4586 75.8597 90.391C75.5201 90.3235 75.168 90.3582 74.8481 90.4908C74.5282 90.6233 74.2547 90.8477 74.0624 91.1357C73.87 91.4236 73.7673 91.7621 73.7673 92.1084C73.7673 92.4547 73.87 92.7932 74.0624 93.0812C74.2547 93.3691 74.5282 93.5935 74.8481 93.7261C75.168 93.8586 75.5201 93.8933 75.8597 93.8258C76.1994 93.7583 76.5114 93.5916 76.7563 93.3467C76.8412 93.2698 76.9171 93.1833 76.9824 93.0891L76.6774 92.9787C76.6301 93.0312 76.588 93.0838 76.5407 93.1312C76.4064 93.2655 76.247 93.3721 76.0715 93.4448C75.896 93.5175 75.7079 93.5549 75.5179 93.5549C75.328 93.5549 75.1399 93.5175 74.9644 93.4448C74.7889 93.3721 74.6295 93.2655 74.4952 93.1312C74.3562 92.9942 74.2468 92.8302 74.1735 92.6494C74.1003 92.4685 74.0648 92.2746 74.0693 92.0795C74.0693 92.0269 74.0693 91.9743 74.0693 91.9218L77.2085 91.9481ZM80.9524 90.6387L80.1268 93.21L79.3906 91.1698H79.2276L78.4915 93.21L77.6659 90.6387H77.3347L78.3863 93.7674H78.5704L79.296 91.7272L80.0269 93.7674H80.2057L81.2573 90.6387H80.9524ZM82.8611 92.3845C82.9217 92.4431 82.9698 92.5134 83.0023 92.5911C83.0349 92.6688 83.0512 92.7524 83.0504 92.8367C83.0504 93.0078 82.9832 93.1721 82.8632 93.2941C82.7431 93.416 82.58 93.486 82.4089 93.4887C82.3239 93.4888 82.2398 93.4721 82.1613 93.4396C82.0828 93.4071 82.0115 93.3595 81.9514 93.2994C81.8305 93.1736 81.7627 93.006 81.7621 92.8314L81.4782 92.8998C81.4805 93.0131 81.5059 93.1247 81.5529 93.2278C81.6 93.3309 81.6676 93.4232 81.7516 93.4992C81.8376 93.5852 81.9396 93.6535 82.0519 93.7C82.1643 93.7466 82.2847 93.7706 82.4063 93.7706C82.5279 93.7706 82.6483 93.7466 82.7606 93.7C82.8729 93.6535 82.975 93.5852 83.0609 93.4992V93.4992C83.235 93.3248 83.3327 93.0884 83.3327 92.842C83.3327 92.5955 83.235 92.3591 83.0609 92.1847C82.8871 92.0273 82.6925 91.8946 82.4825 91.7903C82.3629 91.7205 82.2502 91.6395 82.146 91.5484C82.0799 91.484 82.0346 91.4013 82.0159 91.311C81.9972 91.2206 82.006 91.1267 82.041 91.0414C82.076 90.956 82.1358 90.8831 82.2126 90.832C82.2894 90.7808 82.3797 90.7538 82.472 90.7544C82.5302 90.751 82.5884 90.76 82.6428 90.7809C82.6972 90.8018 82.7465 90.834 82.7875 90.8754C82.876 90.9768 82.9295 91.104 82.94 91.2382L83.1871 91.1383C83.1863 91.0538 83.1688 90.9702 83.1353 90.8926C83.1019 90.815 83.0534 90.7447 82.9926 90.6861C82.8521 90.5486 82.6633 90.4716 82.4667 90.4716C82.2702 90.4716 82.0814 90.5486 81.9409 90.6861C81.8022 90.8259 81.7244 91.0149 81.7244 91.2119C81.7244 91.4089 81.8022 91.5979 81.9409 91.7377C82.099 91.8747 82.2761 91.9881 82.4667 92.0743C82.611 92.1634 82.7481 92.2636 82.8769 92.374L82.8611 92.3845Z" fill="white"/>
<path fill-rule="evenodd" clip-rule="evenodd" d="M80.1266 77.6876C80.0898 77.8769 80.0477 78.0662 80.0109 78.2607C79.8321 79.1441 79.6113 80.0486 79.3379 80.9635C79.0904 81.8402 78.7166 82.6763 78.2284 83.4454C77.7025 84.2289 77.224 84.497 76.8665 84.2762C76.4312 83.9103 76.1542 83.3903 76.0935 82.8249C75.8517 81.5285 75.7111 80.2152 75.6729 78.897C75.6098 77.3476 75.594 75.9121 75.6255 74.5905C75.6215 73.7469 75.6707 72.9039 75.7728 72.0665C75.8058 71.9328 75.8027 71.7928 75.7639 71.6607C75.7251 71.5286 75.6519 71.4092 75.5519 71.3146C75.4638 71.234 75.3577 71.1757 75.2424 71.1446C75.1271 71.1135 75.0061 71.1105 74.8894 71.1358C74.7566 71.1684 74.6362 71.239 74.5428 71.3389C74.4494 71.4388 74.3871 71.5637 74.3635 71.6984C74.3635 71.7668 74.3215 71.8457 74.3005 71.9298C74.1547 71.5271 73.9129 71.1661 73.5958 70.8781V70.8781C73.4184 70.7091 73.2117 70.5737 72.9859 70.4785C72.4362 70.2752 71.8319 70.2752 71.2822 70.4785C70.7051 70.6811 70.1638 70.974 69.6784 71.3461C68.7006 72.1939 67.9596 73.281 67.5278 74.5011C67.1762 75.4322 66.9533 76.407 66.8653 77.3984L66.8179 77.4667C66.5077 78.0294 66.1659 78.6288 65.8031 79.2756C65.3404 80.1327 64.8882 80.953 64.436 81.7365C64.0722 82.3833 63.6738 83.0099 63.2423 83.6137C62.9005 84.0816 62.6534 84.2657 62.5062 84.1395C62.3589 84.0133 62.3589 83.5295 62.5062 82.6093C62.6534 81.6891 62.9216 80.5376 63.2266 79.3387C63.5315 78.1398 63.8102 76.8989 64.0363 75.6895C64.2536 74.6243 64.3191 73.5338 64.2309 72.4504C64.0942 71.4776 63.8102 70.8413 63.3896 70.5364C63.1797 70.3882 62.9369 70.2935 62.6821 70.2605C62.4274 70.2275 62.1684 70.2572 61.9278 70.3471C61.3223 70.5511 60.7668 70.8808 60.2977 71.3146C59.4399 72.1181 58.6952 73.0344 58.084 74.0384C57.46 75.0655 57.0113 75.8665 56.7379 76.4414C56.6695 76.5571 56.6117 76.657 56.5749 76.7358C56.3856 77.0882 56.212 77.4457 56.049 77.7875L56.0964 77.1828C56.17 76.352 56.2436 75.6895 56.3172 75.1952C56.3368 75.0679 56.3234 74.9377 56.2783 74.8171C56.2332 74.6965 56.1579 74.5895 56.0595 74.5063C55.972 74.427 55.8661 74.3706 55.7514 74.3421C55.6367 74.3137 55.5168 74.3141 55.4023 74.3433C55.1656 74.459 54.9711 74.948 54.8133 75.8104C54.7082 76.4204 54.6188 77.0408 54.5609 77.6613C52.7836 81.3912 51.5865 83.5681 50.9695 84.1921C50.6646 84.5181 50.4858 84.4129 50.4437 83.8818C50.397 83.0955 50.427 82.3066 50.5331 81.5261C50.6435 80.4745 50.8013 79.3755 50.9958 78.1871C51.1904 76.9988 51.3849 75.9103 51.569 74.927C51.753 73.9437 51.895 73.2286 51.9844 72.8237C52.0065 72.7269 52.0206 72.6284 52.0265 72.5292C52.1053 72.1191 52.1737 71.7458 52.2315 71.4197C52.2894 71.0937 52.3314 70.8939 52.3525 70.7519C52.4899 70.012 52.5777 69.2636 52.6154 68.5119C52.6417 68.0461 52.5682 67.5799 52.3998 67.1448C52.3406 66.961 52.2436 66.7917 52.115 66.6477C51.9864 66.5037 51.829 66.3882 51.6531 66.3087C51.435 66.2474 51.2053 66.2387 50.9832 66.2835C50.761 66.3283 50.5527 66.4253 50.3754 66.5664C49.3215 67.3353 48.4329 68.308 47.762 69.4269C46.8404 70.8441 46.0148 72.3215 45.2906 73.8491C44.5124 75.4756 43.8236 77.0233 43.2241 78.4921C43.3479 77.0935 43.3865 75.6887 43.3398 74.2855C43.3358 73.322 43.1577 72.3672 42.814 71.4671C42.7207 71.1567 42.5421 70.8787 42.2985 70.6649C42.0549 70.4511 41.7562 70.31 41.4363 70.2577C40.8369 70.1946 40.0955 70.6152 39.2016 71.5197C38.1709 72.5503 37.2437 74.3556 36.4199 76.9357C36.4199 76.3467 36.4567 75.8472 36.4778 75.4318C36.4981 75.2605 36.4794 75.0868 36.4229 74.9237C36.3664 74.7607 36.2737 74.6126 36.1518 74.4906C36.0592 74.4111 35.9442 74.3623 35.8227 74.351C35.7011 74.3397 35.5791 74.3664 35.4734 74.4275C35.3453 74.51 35.2412 74.625 35.172 74.7607C35.1027 74.8965 35.0706 75.0482 35.0791 75.2004C35.0423 75.7788 35.0107 76.5045 34.9844 77.3616L34.8109 77.5667C34.448 78.0842 33.9957 78.533 33.4753 78.8917C32.9312 79.2755 32.3561 79.6132 31.7559 79.9013C31.5771 78.3238 31.3667 76.7832 31.1143 75.3214C30.862 73.8596 30.6201 72.5503 30.3835 71.3935L30.3098 71.0043C30.2362 70.5995 30.0837 70.3681 29.8629 70.305C29.7566 70.2735 29.6446 70.2667 29.5353 70.2849C29.426 70.3031 29.3222 70.3459 29.2319 70.4102C29.1435 70.4569 29.0666 70.5227 29.0066 70.6027C28.9466 70.6827 28.905 70.7749 28.8848 70.8729C28.7829 71.765 28.5963 72.6453 28.3275 73.502C27.9085 74.843 27.3182 76.1243 26.5712 77.3143C25.8982 78.3659 25.3566 78.8917 24.9622 78.9706C24.5678 79.0495 24.2944 78.7024 24.1577 78.0031C24.0349 76.9177 24.0632 75.8206 24.2418 74.743C24.3832 73.6142 24.5957 72.4955 24.8781 71.3935C24.9885 70.9833 24.9517 70.6941 24.7676 70.5364C24.6645 70.4506 24.5455 70.386 24.4173 70.3463C24.2892 70.3066 24.1545 70.2926 24.021 70.305C23.7079 70.3139 23.3978 70.3688 23.1008 70.468C23.0147 70.4937 22.9366 70.541 22.874 70.6055C22.8114 70.6699 22.7664 70.7493 22.7432 70.8361C22.7064 71.0149 22.7853 71.1253 22.9798 71.1726C23.11 71.1948 23.2338 71.245 23.3426 71.3198C23.364 71.3715 23.3751 71.4269 23.3751 71.4828C23.3751 71.5388 23.364 71.5942 23.3426 71.6459C22.976 73.1371 22.7542 74.6603 22.6801 76.1942C22.6608 76.7274 22.7282 77.2602 22.8799 77.7717C22.5871 79.1277 22.1681 80.4533 21.6284 81.7312C20.9857 83.3281 20.173 84.8513 19.2044 86.2743C18.4807 87.4619 17.4412 88.4249 16.2019 89.056C15.9496 89.1543 15.6803 89.2017 15.4095 89.1953C15.1387 89.189 14.8719 89.1291 14.6244 89.0191C14.1304 88.7911 13.7004 88.4442 13.373 88.0096C13.052 87.5885 12.7984 87.1202 12.621 86.6214C13.8214 85.8107 14.8549 84.7772 15.6656 83.5768C16.4417 82.4536 17.1073 81.2579 17.6532 80.0065C18.1685 78.8444 18.5683 77.6344 18.8468 76.3941C19.0207 75.6511 19.1089 74.8907 19.1097 74.1278C19.0729 72.7238 18.7995 71.7878 18.3 71.3304C18.0575 71.104 17.755 70.9524 17.4286 70.8937C17.1021 70.8349 16.7657 70.8715 16.4596 70.9991C15.6482 71.2942 14.9171 71.775 14.3247 72.403C13.6251 73.106 13.0491 73.9219 12.621 74.8166C11.8105 76.6338 11.2447 78.5505 10.9384 80.5165C10.5772 82.5227 10.6381 84.5822 11.1172 86.5635C10.6352 86.7182 10.1233 86.7561 9.62383 86.674C6.31113 85.3173 5.98512 79.3124 8.2041 70.3734C8.30927 69.9685 8.41443 69.5741 8.53012 69.1955L9.1874 69.1429C10.4336 69.0588 11.6746 68.9116 12.905 68.717C14.1053 68.5324 15.2703 68.1653 16.3597 67.6285C17.2206 67.202 18.0057 66.6371 18.6838 65.9564C19.2304 65.4079 19.6614 64.7553 19.9511 64.0371C20.4208 62.7226 20.4208 61.5991 19.9511 60.6666C19.4506 59.721 18.6279 58.986 17.6322 58.5948C16.4859 58.1292 15.2354 57.9811 14.0121 58.1662C12.7888 58.3513 11.638 58.8626 10.6807 59.6465C8.84089 61.3304 7.41708 63.4184 6.52146 65.7461V65.7461C6.09535 66.7652 5.72325 67.806 5.40671 68.8642C4.26171 69.0429 3.164 69.4487 2.17814 70.0579C1.27059 70.66 0.572393 71.529 0.179998 72.545C0.125153 72.6617 0.0811492 72.7831 0.048541 72.9078C0.00148788 73.0411 -0.00939846 73.1844 0.0169914 73.3232C0.0748323 73.5125 0.26413 73.5546 0.574367 73.4599C0.676972 73.4329 0.771811 73.3822 0.851263 73.3119C0.930714 73.2416 0.992562 73.1536 1.03184 73.0551C1.07079 72.9591 1.08861 72.8559 1.08407 72.7525C1.07953 72.649 1.05275 72.5478 1.00554 72.4556C1.33353 71.764 1.83993 71.1723 2.4726 70.7414C3.29516 70.2009 4.21777 69.8308 5.18586 69.653C4.82188 70.9928 4.5409 72.3537 4.34454 73.7281C3.94983 76.2896 3.94983 78.8963 4.34454 81.4578C4.5005 82.4824 4.79779 83.4805 5.22793 84.4234C5.62099 85.3014 6.23298 86.0636 7.00522 86.6372C7.86535 87.23 8.89572 87.5255 9.93933 87.4785C10.4156 87.4793 10.8886 87.3993 11.338 87.2419C11.5417 87.7848 11.8537 88.2806 12.2551 88.6991C12.6565 89.1177 13.1388 89.4502 13.6727 89.6764C14.212 89.8973 14.7948 89.9918 15.3763 89.9526C15.9578 89.9134 16.5226 89.7416 17.0275 89.4503C18.1606 88.7169 19.1118 87.735 19.8091 86.5793C20.7298 85.1724 21.5 83.6726 22.1069 82.1045C22.3751 81.4161 22.6068 80.714 22.801 80.0012C22.9524 79.4828 23.0649 78.9537 23.1376 78.4185C23.1376 78.4185 23.1376 78.4553 23.1376 78.4711C23.2581 78.7592 23.4446 79.0149 23.682 79.2177C23.9195 79.4204 24.2013 79.5645 24.5047 79.6384C25.0831 79.7611 25.7316 79.4298 26.4503 78.6446C27.1593 77.7583 27.7546 76.7867 28.2223 75.7526C28.4572 75.2443 28.657 74.792 28.8217 74.3959C28.8901 75.2372 29.1267 78.0767 29.2634 81.0844C28.6219 81.4104 27.9909 81.7575 27.3757 82.1361C26.3239 82.7889 25.386 83.6095 24.5994 84.5654C23.6545 85.7444 22.9408 87.0914 22.4961 88.5354C22.007 90.2338 22.0228 91.6588 22.5539 92.8051C22.8364 93.4463 23.2961 93.9936 23.879 94.3826C24.4713 94.759 25.1657 94.9427 25.8666 94.9084C26.5827 94.89 27.2881 94.7295 27.9417 94.4361C28.5952 94.1427 29.1839 93.7224 29.6736 93.1995C30.6109 92.1317 31.2574 90.8405 31.5508 89.4503C31.8808 87.9445 32.0413 86.4066 32.0293 84.8651C32.0293 83.2982 31.9609 81.896 31.8242 80.6585C32.4306 80.3737 33.0174 80.0487 33.5805 79.6857C34.0754 79.3655 34.5277 78.9839 34.9266 78.5499C34.9266 79.209 34.9161 79.8505 34.895 80.4745C34.895 81.3684 34.8687 82.0519 34.8687 82.4989C34.8577 82.6104 34.8734 82.723 34.9145 82.8273C34.9557 82.9315 35.0211 83.0244 35.1054 83.0983C35.2604 83.2003 35.4489 83.238 35.6312 83.2035C35.7938 83.1939 35.9496 83.1353 36.0781 83.0352C36.1503 82.9686 36.2069 82.887 36.2442 82.7962C36.2814 82.7054 36.2983 82.6075 36.2937 82.5094C36.3739 81.1122 36.5816 79.7253 36.9142 78.3659C37.1881 77.0199 37.5841 75.7016 38.0973 74.4275C38.4937 73.5454 39.026 72.731 39.6748 72.0139C39.8827 71.8039 40.1098 71.6137 40.3531 71.446C42.3407 70.1315 41.1471 79.1599 40.5266 80.953C39.9062 82.746 40.3899 83.1509 41.7308 83.2561C41.8657 83.2877 42.006 83.2877 42.1409 83.2561C42.2501 83.2401 42.3524 83.1928 42.4354 83.1201C42.5184 83.0473 42.5787 82.9521 42.6089 82.8459C42.7351 82.257 42.9349 81.5366 43.2084 80.6848C43.4818 79.833 43.7289 79.1319 43.9498 78.5815C44.5282 77.1513 45.1925 75.6526 45.9426 74.0857C46.6371 72.6223 47.4276 71.2065 48.3089 69.8475C48.6969 69.2394 49.1368 68.6659 49.6234 68.1333C50.7434 67.455 50.5699 68.6592 50.2124 70.4259C49.6865 72.871 48.535 75.9576 47.9408 79.8908C47.1626 85.0649 48.9924 85.0386 50.2018 85.1859H50.3386C50.7592 85.1859 51.3587 84.6338 52.1369 83.5295C52.9826 82.2424 53.7414 80.9003 54.4084 79.5122C54.3716 80.3009 54.3664 81.0266 54.3822 81.6786C54.4084 82.5357 54.4873 83.0247 54.624 83.1404C54.7355 83.1889 54.8567 83.2109 54.9781 83.2045C55.0994 83.1981 55.2177 83.1636 55.3234 83.1036C55.43 83.0576 55.5231 82.9851 55.5939 82.8931C55.6648 82.8011 55.711 82.6926 55.7283 82.5778C55.8056 81.6233 55.9711 80.6781 56.2225 79.7541C56.447 78.8234 56.7696 77.9192 57.1848 77.0566C57.8631 75.7642 58.6327 74.5218 59.4879 73.339C59.8396 72.8682 60.2188 72.4187 60.6237 71.9929C61.7069 71.2515 62.054 72.5187 61.4493 74.7324C60.8402 76.9179 60.3696 79.1395 60.04 81.3841C59.4459 85.3541 61.1653 85.1648 62.0382 85.3016C62.38 85.3647 62.848 85.0702 63.4264 84.4234C64.2562 83.4096 64.9886 82.3198 65.6138 81.1686V81.1686C66.1396 80.2536 66.5287 79.5017 66.8285 78.9233C66.8681 79.9107 67.1267 80.877 67.5856 81.7522C67.8012 82.1808 68.1264 82.5448 68.5281 82.8071C68.9299 83.0693 69.3939 83.2206 69.873 83.2456C70.3141 83.2627 70.7528 83.1731 71.1519 82.9846C71.551 82.796 71.8987 82.514 72.1656 82.1624C72.7387 81.4261 73.1702 80.5899 73.4381 79.6962C73.6818 78.9397 73.8785 78.1687 74.027 77.3879C74.0743 77.1407 74.1217 76.9567 74.1585 76.8305C74.1585 77.919 74.1953 78.9338 74.2636 79.8172C74.3259 80.7057 74.4738 81.5862 74.7053 82.4463C74.7737 82.6935 74.8683 82.9721 74.9893 83.3402C75.1118 83.6836 75.2631 84.0161 75.4415 84.334C75.5638 84.5984 75.7556 84.8246 75.9963 84.9885C76.2371 85.1524 76.5179 85.2479 76.8086 85.2647C77.1049 85.2459 77.3935 85.1634 77.6549 85.0227C77.9163 84.882 78.1442 84.6866 78.323 84.4497C79.0298 83.5267 79.5366 82.4665 79.8111 81.3368C80.1028 80.3292 80.2947 79.2954 80.3843 78.2502C80.4419 77.8774 80.4419 77.4978 80.3843 77.125C80.3474 76.962 80.2528 77.1512 80.1266 77.6876ZM17.9897 59.6623C18.4031 59.9112 18.761 60.2423 19.0414 60.6351C19.6303 61.4448 19.6987 62.4965 19.2465 63.79C18.9874 64.4319 18.599 65.0137 18.1054 65.4989C17.4881 66.1081 16.7782 66.6157 16.0021 67.0028C14.956 67.5152 13.8396 67.8697 12.6894 68.0545C11.501 68.2402 10.2986 68.377 9.08223 68.4646H9.00862L8.71416 68.4909C11.2118 61.061 16.0021 59.0733 17.9897 59.6623ZM12.3371 80.7374C12.6176 78.9016 13.1483 77.1129 13.9146 75.4213V75.4213C14.2241 74.7767 14.6013 74.1668 15.0398 73.6019C15.4529 73.0434 15.9516 72.5536 16.5174 72.1506C16.6908 71.99 16.9116 71.8899 17.1467 71.8652C17.3818 71.8406 17.6185 71.8927 17.8215 72.0139C18.172 72.2593 18.3666 72.9604 18.4051 74.1172C18.4039 74.8258 18.3192 75.5318 18.1527 76.2205C17.8785 77.4166 17.4911 78.584 16.9959 79.7068C16.4783 80.9123 15.8406 82.0626 15.0924 83.1404C14.3635 84.2081 13.4522 85.139 12.4002 85.8905C12.0485 84.1928 12.0271 82.4432 12.3371 80.7374V80.7374ZM29.1635 88.7615C28.5168 92.4791 26.4923 94.3668 24.1577 93.6149C24.2071 93.6868 24.2675 93.7507 24.3365 93.8042C23.8678 93.4842 23.5024 93.0347 23.2848 92.5106C22.8291 91.5221 22.8291 90.2706 23.2848 88.7562C23.6831 87.4209 24.3288 86.1723 25.1883 85.0754C25.9144 84.1832 26.7769 83.4113 27.7438 82.7881C28.2696 82.4463 28.8217 82.1361 29.3844 81.8416C29.5128 84.1504 29.4372 86.466 29.1583 88.7615H29.1635ZM74.0691 73.1813C73.9008 74.1172 73.6852 75.1847 73.4223 76.3835C73.1737 77.5253 72.8505 78.6494 72.4548 79.7488C72.2008 80.5862 71.75 81.3507 71.1402 81.9783C71.0003 82.1103 70.828 82.2028 70.6407 82.2465C68.6636 81.5734 69.1053 77.8453 69.4576 76.3257C70.015 73.9227 71.156 71.4934 72.723 71.3198L72.9806 71.3935C73.4486 71.5565 73.8114 72.1506 74.0691 73.1813V73.1813ZM98.2571 68.88C97.9185 69.1291 97.6799 69.4908 97.584 69.9001C97.3527 70.7362 97.3053 71.3093 97.4526 71.6301C97.5998 71.9508 97.8259 71.9982 98.1256 71.7773C98.532 71.3721 98.8147 70.8596 98.9407 70.2997C99.13 69.5986 99.13 69.1412 98.9407 68.9273C98.7777 68.7117 98.5463 68.696 98.2571 68.901V68.88ZM110.183 77.1355C110.046 77.167 109.93 77.2932 109.82 77.5193C109.427 78.4301 108.908 79.2814 108.279 80.0485C107.699 80.8007 106.986 81.4405 106.176 81.9363C105.889 82.1418 105.554 82.2676 105.203 82.3008C104.851 82.3341 104.498 82.2736 104.178 82.1256C103.578 81.8206 103.151 80.9775 102.895 79.5963C102.83 79.1735 102.796 78.7464 102.795 78.3186C102.797 77.8546 102.825 77.3912 102.879 76.9304C102.987 76.248 103.133 75.5722 103.316 74.906C103.536 74.0399 103.846 73.1993 104.241 72.3978C104.356 72.0832 104.537 71.7964 104.771 71.5563C105.004 71.3162 105.286 71.1281 105.598 71.0043C105.72 70.9716 105.85 70.9778 105.968 71.0221C106.087 71.0664 106.189 71.1466 106.26 71.2515C106.377 71.4687 106.422 71.7168 106.392 71.9613C106.371 72.2768 106.423 72.4398 106.549 72.4504C106.681 72.4504 106.807 72.3715 106.933 72.1822C107.07 71.9687 107.123 71.7119 107.08 71.4618C107.06 71.2807 107.003 71.1056 106.913 70.9473C106.822 70.7891 106.7 70.651 106.555 70.5416V70.5416C106.309 70.3679 106.014 70.2793 105.713 70.2892C104.194 70.0684 101.38 71.1726 100.686 75.5475C100.487 76.7237 100.455 77.9222 100.592 79.1073C100.392 79.5017 100.176 79.9066 99.9502 80.322C99.7252 80.7433 99.4722 81.149 99.1931 81.5366C97.8995 82.1834 97.8469 80.0223 98.1046 78.3817C98.3991 76.4729 98.4885 74.906 98.6304 74.0804C98.8197 73.1234 98.8933 71.8877 97.3159 72.5871H97.2791C97.1769 72.591 97.0786 72.6273 96.9983 72.6906C96.918 72.7539 96.8598 72.841 96.8321 72.9394C96.6533 73.6966 96.478 74.6921 96.3063 75.9261C96.2221 76.5939 96.1538 77.2669 96.1117 77.94C95.8647 78.5444 95.5766 79.1312 95.2494 79.6962C94.8273 80.456 94.3153 81.1622 93.7245 81.7996C93.5443 81.9887 93.337 82.15 93.1093 82.2781C91.1111 82.7092 91.8841 77.0198 92.2153 73.6966C92.4414 71.4145 92.7832 68.7906 93.1093 66.6452C94.1241 66.9187 97.4526 67.9335 100.103 67.9177C103.394 67.9177 104.273 65.6988 104.393 64.6787C104.656 62.507 104.746 58.6159 101.906 53.9676C100.076 50.9599 97.6208 48.1046 92.4888 46.0802C84.6382 42.9252 84.3963 40.5275 84.0756 37.3515C83.7548 34.1755 83.3867 32.0617 81.0626 31.2098C78.7384 30.358 76.2565 31.1625 74.0691 31.9249C73.9324 31.5516 73.4381 31.457 71.7765 31.3202C70.1149 31.1835 69.0001 31.3728 66.5655 32.3351C64.131 33.2974 59.7298 34.0966 57.9104 35.632C56.0911 37.1674 55.3497 37.2936 54.7923 37.3935C54.2349 37.4934 52.9046 37.546 51.8687 37.6196C50.8328 37.6933 50.165 37.8247 50.0914 37.2568C50.0178 36.6889 51.0379 36.3682 52.1158 36.3682C52.6548 36.345 53.1869 36.2386 53.6933 36.0527C53.7512 36.1368 53.7301 36.8887 54.8501 36.9361C55.9702 36.9834 56.6432 35.4848 56.2068 34.7381C55.7703 33.9914 54.887 34.4226 54.9343 34.3858C55.0953 33.619 55.0276 32.8219 54.7397 32.0932C54.5694 31.7508 54.3287 31.4482 54.0333 31.2053C53.7379 30.9625 53.3944 30.7848 53.0255 30.684C52.3236 30.5277 51.6031 30.4711 50.8854 30.5157C50.3351 30.5171 49.7893 30.4154 49.2764 30.216C48.8084 30.032 48.7506 30.1266 48.7506 30.3948C48.7506 30.663 48.8873 30.826 48.3036 31.0626C47.7199 31.2992 47.0942 31.783 47.2046 32.3614C47.3151 32.9398 47.6726 33.718 47.3834 34.2544C47.0942 34.7907 45.8059 37.0728 45.3537 36.8835C44.9015 36.6942 45.543 35.7424 45.8059 35.0431C45.997 34.3217 45.9769 33.5607 45.7481 32.8504C45.6189 32.0087 45.6189 31.1523 45.7481 30.3107C45.8427 29.1538 46.1214 27.3766 46.1214 27.3766C47.5833 25.7461 49.1652 24.2275 50.8539 22.8334C52.71 21.3296 52.8678 22.418 54.7029 21.8712C56.538 21.3243 57.4004 20.3568 57.2795 20.1833C57.1585 20.0097 56.7011 19.873 55.1762 20.1833C54.1144 20.3857 53.0322 20.4598 51.9528 20.4041C50.9012 20.4041 50.9327 21.2559 49.0187 22.3128C47.3256 23.2278 45.7902 24.0165 44.5071 25.5887C43.2241 27.161 42.8929 29.7954 42.856 33.3026C42.8192 36.8099 42.5037 36.6732 42.0358 37.9089C41.5678 39.1445 40.1007 40.8955 40.0849 41.7684C40.118 42.4122 40.3433 43.0313 40.7317 43.5457C40.9 43.8559 40.8264 47.2843 41.1156 48.4411C41.4048 49.598 43.0348 51.349 42.693 51.3753C41.7421 51.4313 40.7887 51.4313 39.8378 51.3753C37.9816 51.3069 35.4629 51.2175 34.8372 50.902C34.4378 50.6663 33.9734 50.5649 33.5121 50.6128C32.3846 50.72 31.2499 50.7306 30.1205 50.6444C27.8385 50.5655 25.0989 50.5182 23.0482 50.2342C20.9975 49.9503 20.9449 49.6295 19.0834 49.2982C17.8057 49.0291 16.4859 49.0291 15.2081 49.2982C13.6306 49.5086 12.416 49.8241 11.9795 50.7653C11.9007 50.9493 11.9795 51.2543 12.7104 51.1123C12.905 51.0755 13.1889 50.8126 13.4939 50.923C13.7989 51.0335 14.2353 50.7443 15.6235 51.0177C17.0117 51.2911 16.5437 52.1062 17.4797 52.6951C18.4156 53.284 19.1255 52.3428 19.9879 52.0325C20.8502 51.7223 21.1605 51.7907 24.6625 53.2945C28.1645 54.7984 29.8734 53.7257 31.7453 53.8887C33.6173 54.0517 33.3228 54.9404 37.2928 56.0867C40.3606 56.9497 43.5845 57.1043 46.7209 56.5389C48.8242 56.2076 49.818 56.7965 51.5427 57.3802C53.2674 57.9639 54.8028 57.4538 56.0648 57.3066C57.3268 57.1593 61.0339 56.3706 63.542 55.971C66.0502 55.5713 66.7864 54.9614 69.2893 54.0833C71.7923 53.2051 72.9701 52.8318 74.5476 52.8055C76.1251 52.7792 76.8928 53.0947 78.3809 53.2051C79.8689 53.3156 80.4842 52.7634 81.5937 52.7477C82.7031 52.7319 84.2228 51.1018 83.4498 50.6444C83.2884 50.5697 83.1073 50.5489 82.9331 50.5848C82.759 50.6208 82.601 50.7117 82.4823 50.8442C81.8547 51.1584 81.1513 51.2896 80.4526 51.2228C78.7226 51.1386 78.791 49.803 78.1179 49.3666C77.9891 49.2912 77.8458 49.244 77.6973 49.2283C77.5489 49.2125 77.3988 49.2286 77.257 49.2753C77.1153 49.3221 76.9851 49.3985 76.8751 49.4994C76.7652 49.6004 76.678 49.7236 76.6193 49.8609C76.4984 50.2605 76.5247 51.0861 75.1365 51.207C73.7483 51.3279 73.1436 50.8757 69.8783 50.6812C66.6129 50.4866 66.1449 52.1114 64.4202 52.1798C62.6955 52.2481 61.1811 51.7801 58.9095 51.7433C56.638 51.7065 54.5294 52.4374 54.1771 52.3638C53.8248 52.2902 53.7932 51.0282 52.4892 50.1659C51.1851 49.3035 49.2869 49.3771 48.535 48.0626C47.783 46.748 48.6244 44.6552 51.8845 41.8894C55.1446 39.1235 58.105 38.5714 61.6123 36.894C65.1195 35.2166 65.9398 33.0187 69.0317 33.2132C72.1235 33.4078 72.8492 32.7715 72.8492 32.7715C74.2952 32.6243 75.6676 31.2519 78.933 31.3202C81.9354 31.62 83.0712 32.3719 83.4025 37.4777C83.7338 42.5834 85.5058 43.7403 92.1417 46.7164C102.132 51.186 104.12 61.1977 103.447 64.3211C103.153 66.9502 100.818 67.0238 99.6295 66.9818C98.8735 66.9244 98.123 66.8102 97.3842 66.64C96.0854 66.3508 94.9917 66.1142 93.2723 65.5883C93.4616 64.3947 93.6456 63.4272 93.7981 62.8593C94.1925 61.2292 94.6972 59.005 92.5466 60.5141C92.3301 60.6868 92.1262 60.8748 91.9367 61.0767C91.4671 61.6991 91.1404 62.4172 90.9797 63.1801C90.8482 63.7059 90.7325 64.2738 90.6274 64.8627C89.2452 64.4888 87.84 64.206 86.4207 64.0161C85.3039 63.8319 84.1607 63.8857 83.066 64.1739C82.6237 64.3002 82.2195 64.5338 81.8892 64.8539C81.559 65.1741 81.313 65.5709 81.173 66.009C81.0128 66.4312 80.9657 66.888 81.0363 67.3341C81.1204 67.618 81.2361 67.7547 81.3938 67.739C81.5516 67.7232 81.6462 67.5602 81.6725 67.2447C81.6688 66.8359 81.7622 66.432 81.945 66.0663C82.1278 65.7007 82.3949 65.3837 82.7242 65.1414C83.4089 64.7406 84.1992 64.5573 84.9905 64.6156C85.939 64.6532 86.8805 64.7942 87.7984 65.0362C88.7659 65.2886 89.6493 65.562 90.4275 65.825C90.2225 66.9397 90.0437 68.1123 89.9017 69.327C89.5771 71.8602 89.4365 74.4136 89.481 76.9672V76.9672C88.218 76.9123 86.9643 77.207 85.8581 77.819V77.819C83.5497 75.1899 82.7032 73.6703 82.477 71.7773C82.2562 69.7056 84.1334 68.5277 85.2166 68.88L85.5111 68.9641C85.7664 69.0759 86.0038 69.2247 86.2157 69.4058C86.7458 69.8779 87.1505 70.4741 87.3935 71.1411C87.5618 71.4828 87.7143 71.609 87.8562 71.5091C87.9982 71.4092 88.0298 71.1621 87.9509 70.7572C87.785 70.1958 87.4875 69.682 87.0833 69.2586C86.4962 68.5872 85.6852 68.1518 84.8012 68.0334C84.2111 67.96 83.6122 68.0124 83.0439 68.1874C82.4756 68.3623 81.9509 68.6557 81.5043 69.0483C80.6479 69.7952 80.1145 70.8451 80.0162 71.9771C79.907 73.2912 80.2809 74.5999 81.0678 75.6579C81.683 76.5045 82.4665 77.472 83.4078 78.5605L83.9651 79.223C83.2901 79.8063 82.7101 80.491 82.2457 81.2527C81.4307 82.6356 81.1152 83.7872 81.3097 84.6969C81.3826 85.1194 81.5476 85.5207 81.793 85.8724C82.0383 86.2241 82.358 86.5175 82.7294 86.7318C83.4284 87.1297 84.2233 87.328 85.0273 87.305C85.584 87.3132 86.1383 87.2297 86.6679 87.0578V87.0578H86.7257C86.831 87.0265 86.9346 86.9897 87.036 86.9474C87.496 86.7629 87.9027 86.4665 88.2191 86.085C90.2172 84.0974 88.624 80.9425 86.5154 78.6341L86.3103 78.4132C86.8731 78.119 87.4779 77.9133 88.1034 77.8033C88.568 77.7183 89.0416 77.6935 89.5126 77.7297C89.5126 78.1556 89.5599 78.5762 89.5967 78.9811C89.6846 79.8798 89.8878 80.7635 90.2014 81.6103C90.6431 82.6619 91.2373 83.2298 91.984 83.3139C92.7307 83.3981 93.4808 83.0668 94.2345 82.3201C94.7858 81.7318 95.2707 81.0846 95.6805 80.3903C95.812 80.1695 95.9382 79.9486 96.0644 79.7225C96.0641 80.2332 96.117 80.7425 96.2221 81.2422C96.3172 81.7857 96.525 82.3034 96.8321 82.7618C96.9602 82.9634 97.1462 83.1215 97.3658 83.2154C97.5855 83.3092 97.8283 83.3344 98.0625 83.2876C98.5959 83.1456 99.0684 82.8336 99.4086 82.399C99.8498 81.8765 100.237 81.311 100.565 80.7111C100.65 80.5639 100.728 80.4166 100.802 80.2747C101.328 82.1571 102.501 83.3402 104.246 83.3244C104.708 83.3554 105.17 83.2873 105.603 83.1246C106.602 82.7431 107.501 82.1388 108.232 81.3579C109.053 80.536 109.713 79.5676 110.178 78.5026C110.341 78.1763 110.424 77.8158 110.419 77.451C110.425 77.1986 110.314 77.1039 110.183 77.1355V77.1355ZM86.5732 82.5252C86.9187 83.013 87.162 83.5657 87.2884 84.15C87.3613 84.4623 87.3553 84.7879 87.2708 85.0973C87.1864 85.4067 87.0261 85.6901 86.8046 85.922C86.5655 86.1511 86.2836 86.3307 85.9751 86.4507C85.6665 86.5707 85.3373 86.6287 85.0063 86.6214C84.3232 86.6295 83.6514 86.4475 83.066 86.0955C82.7704 85.9257 82.5183 85.6897 82.3294 85.4059C82.1405 85.1222 82.0201 84.7984 81.9775 84.4602C81.8513 83.7136 82.13 82.7566 82.8136 81.5892C83.2453 80.8932 83.7768 80.2643 84.3911 79.7225C85.2376 80.7111 85.958 81.6418 86.5732 82.5252V82.5252ZM119.821 77.1197C119.634 77.0189 119.424 76.9664 119.211 76.9672C118.038 76.9133 116.87 77.1671 115.825 77.7034L115.772 77.656C112.617 74.8586 111.918 73.5967 112.407 71.1621C112.456 70.7765 112.599 70.409 112.825 70.0925C113.05 69.7759 113.351 69.5202 113.699 69.3483C114.048 69.1764 114.434 69.0936 114.822 69.1073C115.21 69.121 115.589 69.2308 115.925 69.4269V69.4269C116.455 69.8989 116.86 70.4952 117.103 71.1621C117.266 71.5039 117.423 71.6301 117.565 71.5302C117.707 71.4303 117.739 71.1831 117.66 70.7782C117.492 70.2176 117.195 69.7043 116.792 69.2796C116.205 68.6082 115.394 68.1729 114.51 68.0545C113.929 67.9792 113.338 68.0264 112.775 68.193C112.213 68.3596 111.692 68.642 111.245 69.022C110.389 69.7689 109.855 70.8188 109.757 71.9508C109.65 73.2647 110.023 74.5727 110.809 75.6316C111.429 76.4799 112.211 77.4475 113.154 78.5342L113.711 79.1967C113.042 79.7744 112.465 80.4519 112.002 81.2054C111.187 82.5883 110.872 83.7398 111.066 84.6495C111.139 85.0721 111.304 85.4734 111.549 85.8251C111.795 86.1768 112.115 86.4702 112.486 86.6845C113.185 87.0934 113.984 87.3009 114.794 87.2839C115.462 87.293 116.125 87.1696 116.745 86.9211V86.9632L117.008 86.8212C117.224 86.7166 117.426 86.5878 117.613 86.4373C121.031 84.0133 118.843 80.5691 116.414 78.2134C116.884 78.0021 117.379 77.8502 117.886 77.7612C118.457 77.6553 119.041 77.6411 119.616 77.7191C119.66 77.722 119.703 77.7156 119.744 77.7001C119.785 77.6847 119.822 77.6607 119.853 77.6297C119.927 77.5672 119.978 77.4823 120 77.3879C119.996 77.2932 119.937 77.2038 119.821 77.1197V77.1197ZM117.061 84.1079C117.134 84.4202 117.128 84.7458 117.043 85.0552C116.959 85.3646 116.798 85.6481 116.577 85.88C116.338 86.109 116.056 86.2887 115.747 86.4087C115.439 86.5287 115.11 86.5867 114.779 86.5793C114.096 86.5875 113.424 86.4054 112.838 86.0535C112.542 85.8843 112.29 85.6484 112.101 85.3645C111.912 85.0807 111.792 84.7566 111.75 84.4182C111.624 83.6715 111.902 82.7145 112.586 81.5472C113.018 80.8512 113.549 80.2222 114.163 79.6805C114.989 80.648 115.709 81.5787 116.324 82.4621C116.679 82.9551 116.929 83.5151 117.061 84.1079V84.1079Z" fill="url(#paint0_linear)"/>
<defs>
<linearGradient id="paint0_linear" x1="23.9579" y1="38.6292" x2="94.7288" y2="109.4" gradientUnits="userSpaceOnUse">
<stop stop-color="white"/>
</linearGradient>
</defs>
</svg>
