<svg width="40" height="40" viewBox="0 0 40 40" fill="none" xmlns="http://www.w3.org/2000/svg">
<path d="M19.9998 26.6666C20.9546 26.6666 22.2974 24.0848 22.4665 20H17.5332C17.7023 24.0848 19.0451 26.6666 19.9998 26.6666Z" fill="#8F42E5"/>
<path d="M12.584 18.3334H15.8501C15.9424 16.0634 16.4112 13.8059 17.2251 12.2129C14.7119 13.2195 12.8974 15.5472 12.584 18.3334Z" fill="#8F42E5"/>
<path d="M22.7754 12.2129C23.5892 13.8059 24.058 16.0634 24.1503 18.3334H27.4165C27.103 15.5472 25.2886 13.2195 22.7754 12.2129Z" fill="#8F42E5"/>
<path d="M19.9998 11.6667C19.0451 11.6667 17.7023 14.2485 17.5332 18.3334H22.4665C22.2974 14.2485 20.9547 11.6667 19.9998 11.6667Z" fill="#8F42E5"/>
<path d="M12.584 20C12.8974 22.7862 14.7119 25.1139 17.2251 26.1205C16.4112 24.5274 15.9424 22.27 15.8501 20H12.584Z" fill="#8F42E5"/>
<path d="M31.6667 5.00002H30V3.27589C30 1.19487 28.0371 -0.431998 25.922 0.102689L8.1432 5.01924C6.39476 5.1201 5 6.56002 5 8.3333V36.6666C5 38.505 6.495 39.9999 8.33335 39.9999H31.6667C33.505 39.9999 34.9999 38.505 34.9999 36.6666V8.3333C34.9999 6.49494 33.505 5.00002 31.6667 5.00002ZM26.35 1.71323C27.3225 1.46503 28.3332 2.25276 28.3332 3.27581V4.99995H14.4659L26.35 1.71323ZM24.1667 35H15C14.5394 35 14.1666 34.6272 14.1666 34.1666C14.1666 33.706 14.5394 33.3332 15 33.3332H24.1666C24.6272 33.3332 25 33.706 25 34.1666C25 34.6272 24.6272 35 24.1667 35ZM27.5 31.6674H11.6667C11.2061 31.6674 10.8333 31.2947 10.8333 30.834C10.8333 30.3734 11.2061 30.0007 11.6667 30.0007H27.5C27.9606 30.0007 28.3333 30.3734 28.3333 30.834C28.3333 31.2947 27.9606 31.6674 27.5 31.6674ZM20 28.3333C14.9454 28.3333 10.8333 24.2212 10.8333 19.1666C10.8333 14.1121 14.9454 10 20 10C25.0545 10 29.1666 14.1121 29.1666 19.1666C29.1666 24.2212 25.0545 28.3333 20 28.3333Z" fill="#8F42E5"/>
<path d="M22.7754 26.1205C25.2886 25.1139 27.1031 22.7861 27.4165 20H24.1503C24.058 22.27 23.5892 24.5274 22.7754 26.1205Z" fill="#8F42E5"/>
</svg>
