<?xml version="1.0" encoding="utf-8"?>
<!-- Generator: Adobe Illustrator 25.0.0, SVG Export Plug-In . SVG Version: 6.00 Build 0)  -->
<svg version="1.1" id="Layer_1" xmlns="http://www.w3.org/2000/svg" xmlns:xlink="http://www.w3.org/1999/xlink" x="0px" y="0px"
	 viewBox="0 0 258.5 51.5" style="enable-background:new 0 0 258.5 51.5;" xml:space="preserve">
<style type="text/css">
	.st0{fill:#8F42E5;}
	.st1{fill:#65BB56;}
	.st2{fill:url(#SVGID_1_);}
	.st3{fill:url(#SVGID_2_);}
	.st4{fill:url(#SVGID_3_);}
	.st5{fill:url(#SVGID_4_);}
</style>
<g>
	<g>
		<path class="st0" d="M16.8,32.9h8.1v4.4H10.5v-3.1l7.7-10.7h-7.4V19h13.7v3.1L16.8,32.9z"/>
		<path class="st0" d="M41.2,19h4.7v18.3h-4.7v-2.2c-1.4,1.8-3.4,2.7-6,2.7c-2.4,0-4.5-0.9-6.3-2.8c-1.7-1.9-2.6-4.2-2.6-6.9
			c0-2.7,0.9-5,2.6-6.9c1.7-1.9,3.8-2.8,6.3-2.8c2.6,0,4.6,0.9,6,2.7V19z M32.5,31.9c1,1,2.2,1.4,3.6,1.4c1.5,0,2.7-0.5,3.6-1.4
			c1-1,1.4-2.2,1.4-3.7c0-1.5-0.5-2.7-1.4-3.7c-1-1-2.2-1.4-3.6-1.4c-1.5,0-2.7,0.5-3.6,1.4c-1,1-1.4,2.2-1.4,3.7
			C31,29.7,31.5,30.9,32.5,31.9z"/>
		<path class="st0" d="M50.2,37.3V10.6h4.7v26.7H50.2z"/>
		<path class="st0" d="M74.8,35c-1.9,1.9-4.2,2.8-6.9,2.8c-2.7,0-5-0.9-6.9-2.8c-1.9-1.9-2.8-4.2-2.8-6.9c0-2.7,0.9-5,2.8-6.9
			c1.9-1.9,4.2-2.8,6.9-2.8c2.7,0,5,0.9,6.9,2.8c1.9,1.9,2.8,4.2,2.8,6.9C77.6,30.9,76.7,33.2,74.8,35z M64.4,31.8
			c0.9,1,2.1,1.4,3.5,1.4c1.4,0,2.6-0.5,3.6-1.4c1-1,1.4-2.2,1.4-3.6c0-1.5-0.5-2.7-1.4-3.6c-1-1-2.1-1.4-3.6-1.4
			c-1.4,0-2.6,0.5-3.5,1.4c-0.9,1-1.4,2.2-1.4,3.6C63,29.6,63.4,30.8,64.4,31.8z"/>
		<path class="st0" d="M95,19h4.6v17.4c0,2.8-0.9,5-2.8,6.5c-1.9,1.5-4.1,2.2-6.8,2.2c-2,0-3.7-0.4-5.2-1.1
			c-1.5-0.8-2.7-1.9-3.5-3.3l4-2.3c0.9,1.7,2.5,2.6,4.8,2.6c1.5,0,2.7-0.4,3.5-1.2c0.9-0.8,1.3-1.9,1.3-3.3v-2
			c-1.4,1.9-3.3,2.8-5.9,2.8c-2.6,0-4.8-0.9-6.5-2.7c-1.7-1.8-2.6-4-2.6-6.6c0-2.6,0.9-4.8,2.6-6.6c1.8-1.8,3.9-2.7,6.5-2.7
			c2.5,0,4.5,0.9,5.9,2.8V19z M86.2,31.5c1,0.9,2.2,1.4,3.7,1.4c1.5,0,2.7-0.5,3.7-1.4c1-0.9,1.4-2.1,1.4-3.6c0-1.4-0.5-2.6-1.4-3.6
			c-1-0.9-2.2-1.4-3.7-1.4c-1.5,0-2.7,0.5-3.7,1.4c-1,0.9-1.4,2.1-1.4,3.6C84.7,29.3,85.2,30.6,86.2,31.5z"/>
	</g>
	<g>
		<g>
			<path class="st1" d="M171.4,36.9h-5.5l-6.7-8.3v8.3h-4.7V11.3h4.7v15.4l6.3-8.1h5.6l-7.4,9L171.4,36.9z"/>
			<path class="st1" d="M178.4,21.7c0.4-1.2,1.2-2,2.2-2.6c1-0.6,2.1-0.9,3.4-0.9v5.3c-1.4-0.2-2.7,0.1-3.9,0.9
				c-1.1,0.8-1.7,2-1.7,3.8v8.7h-4.7V18.6h4.7V21.7z"/>
			<path class="st1" d="M190,29.7c0.6,2.3,2.4,3.4,5.2,3.4c1.8,0,3.2-0.6,4.1-1.8l3.8,2.2c-1.8,2.6-4.5,3.9-8,3.9
				c-3,0-5.5-0.9-7.3-2.7c-1.8-1.8-2.7-4.1-2.7-6.9c0-2.8,0.9-5.1,2.7-6.9c1.8-1.8,4.1-2.8,7-2.8c2.7,0,4.9,0.9,6.6,2.8
				c1.7,1.9,2.6,4.1,2.6,6.9c0,0.6-0.1,1.3-0.2,1.9H190z M190,26h9.3c-0.3-1.2-0.8-2.2-1.7-2.8c-0.8-0.6-1.8-0.9-2.9-0.9
				c-1.3,0-2.3,0.3-3.1,1C190.8,23.9,190.2,24.8,190,26z"/>
			<path class="st1" d="M221,11.3h4.7v25.6H221v-2.2c-1.4,1.8-3.4,2.7-5.9,2.7c-2.5,0-4.6-0.9-6.3-2.8c-1.7-1.9-2.6-4.2-2.6-6.9
				c0-2.7,0.9-5,2.6-6.9c1.7-1.9,3.8-2.8,6.3-2.8c2.6,0,4.5,0.9,5.9,2.7V11.3z M212.3,31.4c1,1,2.2,1.4,3.6,1.4
				c1.5,0,2.7-0.5,3.6-1.4c1-1,1.4-2.2,1.4-3.7c0-1.5-0.5-2.8-1.4-3.7c-1-1-2.2-1.4-3.6-1.4c-1.5,0-2.7,0.5-3.6,1.4
				c-1,1-1.4,2.2-1.4,3.7C210.9,29.2,211.4,30.5,212.3,31.4z"/>
			<path class="st1" d="M232.4,16.4c-0.8,0-1.5-0.3-2-0.9c-0.6-0.6-0.9-1.2-0.9-2c0-0.8,0.3-1.5,0.9-2c0.6-0.6,1.2-0.9,2-0.9
				c0.8,0,1.5,0.3,2.1,0.9c0.6,0.6,0.9,1.3,0.9,2c0,0.8-0.3,1.5-0.9,2C233.9,16.1,233.2,16.4,232.4,16.4z M230.1,36.9V18.6h4.7v18.3
				H230.1z"/>
			<path class="st1" d="M249.6,23.1h-4.1v7.6c0,0.6,0.2,1.1,0.5,1.4c0.3,0.3,0.8,0.5,1.4,0.5c0.6,0,1.4,0,2.3,0v4.3
				c-3.2,0.4-5.5,0.1-6.9-0.9c-1.3-1-2-2.7-2-5.2v-7.6h-3.2v-4.5h3.2v-3.7l4.7-1.4v5.1h4.1V23.1z"/>
		</g>
	</g>
	<g>
		<radialGradient id="SVGID_1_" cx="125.3706" cy="26.332" r="33.0552" gradientUnits="userSpaceOnUse">
			<stop  offset="0" style="stop-color:#3BBB24"/>
			<stop  offset="0.2898" style="stop-color:#3CB926"/>
			<stop  offset="0.4385" style="stop-color:#3EB32E"/>
			<stop  offset="0.5551" style="stop-color:#43A83B"/>
			<stop  offset="0.655" style="stop-color:#49984E"/>
			<stop  offset="0.7443" style="stop-color:#518467"/>
			<stop  offset="0.8259" style="stop-color:#5B6A85"/>
			<stop  offset="0.9019" style="stop-color:#674DA9"/>
			<stop  offset="0.9713" style="stop-color:#752BD2"/>
			<stop  offset="1" style="stop-color:#7B1BE5"/>
		</radialGradient>
		<path class="st2" d="M114.5,5.7h-8.9v8.9c0,4.9,4,8.9,8.9,8.9h8.9v-8.9C123.4,9.6,119.4,5.7,114.5,5.7z"/>
		<radialGradient id="SVGID_2_" cx="125.3706" cy="26.332" r="33.0577" gradientUnits="userSpaceOnUse">
			<stop  offset="0" style="stop-color:#3BBB24"/>
			<stop  offset="0.2898" style="stop-color:#3CB926"/>
			<stop  offset="0.4385" style="stop-color:#3EB32E"/>
			<stop  offset="0.5551" style="stop-color:#43A83B"/>
			<stop  offset="0.655" style="stop-color:#49984E"/>
			<stop  offset="0.7443" style="stop-color:#518467"/>
			<stop  offset="0.8259" style="stop-color:#5B6A85"/>
			<stop  offset="0.9019" style="stop-color:#674DA9"/>
			<stop  offset="0.9713" style="stop-color:#752BD2"/>
			<stop  offset="1" style="stop-color:#7B1BE5"/>
		</radialGradient>
		<path class="st3" d="M114.5,28.1c-4.9,0-8.9,4-8.9,8.9h0v8.9h8.8c0,0,0.1,0,0.1,0c4.9,0,8.9-4,8.9-8.9v-8.9H114.5z"/>
		<radialGradient id="SVGID_3_" cx="125.3716" cy="26.332" r="33.0574" gradientUnits="userSpaceOnUse">
			<stop  offset="0" style="stop-color:#3BBB24"/>
			<stop  offset="0.2898" style="stop-color:#3CB926"/>
			<stop  offset="0.4385" style="stop-color:#3EB32E"/>
			<stop  offset="0.5551" style="stop-color:#43A83B"/>
			<stop  offset="0.655" style="stop-color:#49984E"/>
			<stop  offset="0.7443" style="stop-color:#518467"/>
			<stop  offset="0.8259" style="stop-color:#5B6A85"/>
			<stop  offset="0.9019" style="stop-color:#674DA9"/>
			<stop  offset="0.9713" style="stop-color:#752BD2"/>
			<stop  offset="1" style="stop-color:#7B1BE5"/>
		</radialGradient>
		<path class="st4" d="M145.8,37c0-4.9-4-8.9-8.9-8.9h-8.9V37c0,4.9,4,8.9,8.9,8.9h8.9L145.8,37C145.8,37,145.8,37,145.8,37z"/>
	</g>
	<radialGradient id="SVGID_4_" cx="125.6211" cy="26.082" r="28.3196" gradientUnits="userSpaceOnUse">
		<stop  offset="0" style="stop-color:#3BBB24"/>
		<stop  offset="2.384134e-02" style="stop-color:#42AA38"/>
		<stop  offset="8.435727e-02" style="stop-color:#518566"/>
		<stop  offset="0.1472" style="stop-color:#5E648D"/>
		<stop  offset="0.2117" style="stop-color:#684AAD"/>
		<stop  offset="0.2782" style="stop-color:#7135C6"/>
		<stop  offset="0.3476" style="stop-color:#7626D7"/>
		<stop  offset="0.4218" style="stop-color:#7A1EE2"/>
		<stop  offset="0.5091" style="stop-color:#7B1BE5"/>
	</radialGradient>
	<path class="st5" d="M137,5.7C137,5.7,137,5.7,137,5.7c-5,0-8.9,4-8.9,8.9v8.9h8.9c4.9,0,8.9-4,8.9-8.9V5.7H137z"/>
</g>
</svg>
