<svg width="20" height="20" viewBox="0 0 20 20" fill="none" xmlns="http://www.w3.org/2000/svg">
<g clip-path="url(#clip0_503:5793)">
<path d="M2.24593 12.3265L3.72512 10.8473L10.3812 4.19153C11.6079 2.97401 13.5881 2.97769 14.8102 4.1998C16.0323 5.42192 16.036 7.40208 14.8185 8.62879L8.16268 15.2866C7.89045 15.559 7.44888 15.559 7.1765 15.2866C6.90427 15.0142 6.90427 14.5728 7.1765 14.3004L13.8323 7.64261C14.513 6.96189 14.513 5.85843 13.8323 5.17771C13.1516 4.49699 12.0481 4.49699 11.3674 5.17771L4.70961 11.8335L3.23042 13.3125C2.00494 14.5385 2.0054 16.5257 3.23119 17.751C4.45713 18.9763 6.44418 18.976 7.66967 17.7501L8.90204 16.5173L15.8045 9.61481L16.2977 9.1218C18.0214 7.3442 17.9995 4.5123 16.2487 2.76134C14.4977 1.01054 11.6658 0.988648 9.88821 2.71235L2.49274 10.108C2.31652 10.284 2.05975 10.3528 1.81922 10.2883C1.57853 10.2239 1.39051 10.036 1.32606 9.79532C1.2616 9.55464 1.33049 9.29802 1.50657 9.1218L8.90204 1.72633C11.2181 -0.579188 14.9633 -0.574901 17.274 1.73597C19.5849 4.04669 19.5892 7.79189 17.2837 10.108L9.88821 17.5034L8.654 18.7363C6.87411 20.4459 4.05338 20.4174 2.30856 18.672C0.563572 16.9267 0.53586 14.106 2.24593 12.3265Z" fill="#8F42E5"/>
</g>
<defs>
<clipPath id="clip0_503:5793">
<rect width="20" height="20" fill="white" transform="matrix(-1 0 0 1 20 0)"/>
</clipPath>
</defs>
</svg>
