<svg id="Layer_1" data-name="Layer 1" xmlns="http://www.w3.org/2000/svg" width="90" height="90" viewBox="0 0 90 90"><defs><style>.cls-1,.cls-3,.cls-4{fill:#8f42e5;}.cls-1{opacity:0.1;}.cls-2{fill:#bfa2f9;}.cls-4{opacity:0.2;}</style></defs><circle class="cls-1" cx="45" cy="45" r="45"/><path class="cls-2" d="M67.84,52.54c-.46-.68-1.63-1.76-6-5A105.1,105.1,0,0,0,45.78,37.35l-1.64-.85-3.27,1L39.74,38.9c-2.12,2.63-5,4.2-7.46,4-.86,0-1-.14-1.3-.61,0,0-.08-.1-.07-.74,0-1.14.37-2,2.87-5.51,1.33-1.88,1.33-2,1.33-2.3,0-1-.85-1.1-2.54-1.35a9.9,9.9,0,0,1-4.14-1.28c-1.25-.75-1.25-.75-1.55-.75-.61,0-.61,0-5.41,8.53l-4.86,8.64,1.17,1.37c.39.46,1,1.22,1.36,1.67.79,1,1,1.26,1.51,1.26.3,0,.5-.06,1.27-.67A2.48,2.48,0,0,1,24,50.76a3.28,3.28,0,0,1,2.13,1.72l1.06,2.12,1.59-2.15a2.24,2.24,0,0,1,2-1.13,3.06,3.06,0,0,1,3,3l0,1.92h1.5a3.64,3.64,0,0,1,2,1.2,3.3,3.3,0,0,1,.7,2L37.94,61l1.55.24A3.34,3.34,0,0,1,42,63a2.71,2.71,0,0,1-.11,2.84c-.32.49-.92,1.4-.25,2.07.12.12.27.26,1.41.64a19.64,19.64,0,0,0,5.58,1,5.57,5.57,0,0,0,2.46-.47S54,67.37,53.53,66h0a4.73,4.73,0,0,0,2.35.15,3.25,3.25,0,0,0,2.6-2.34l.06-.2a1.87,1.87,0,0,0,0-1.66,2.72,2.72,0,0,0,1,.12,3.83,3.83,0,0,0,2.89-1,3.31,3.31,0,0,0,1-2.85l0-.54.25.15,1.33-.05a3.39,3.39,0,0,0,2-.55A3.54,3.54,0,0,0,67.84,52.54Z"/><path class="cls-3" d="M68.47,38.77c-.2-.35-4.37-7.8-4.56-8l-.08-.09c-.43-.44-1-.36-2.21-.07s-2.5.27-5.46-.41a29.18,29.18,0,0,0-8.06-1c-1.32,0-3.09.07-3.9.14a31.13,31.13,0,0,0-5.73.94,3.86,3.86,0,0,0-2,1.19c-.84,1-4.07,5.58-5,7.13s-1,1.73-1,2.78c0,.85,0,1.52.94,2s3,0,4.06-.4a13.19,13.19,0,0,0,5.31-4.44l.29-.43,1.38-.45c.81-.26,1.42-.43,1.62-.49a100,100,0,0,1,9,5C56.12,44,61.76,48,64.88,50.52L67,52.27l1.18-.65a16.21,16.21,0,0,0,3.33-2.71l1.69-1.71ZM38.22,60.84a2.31,2.31,0,0,0,.34-1.39l-1-.07h1a3.57,3.57,0,0,0-1.6-3,3.45,3.45,0,0,0-2.89-.53,2,2,0,0,0,.35-1.3l-1-.07h1a3.86,3.86,0,0,0-1.81-3.19,3.09,3.09,0,0,0-3-.3c-.4.18-.82.56-2.64,3v-.09a3.59,3.59,0,0,0-5-3.43,11.78,11.78,0,0,0-2.83,3.81,3.32,3.32,0,0,0,.48,2.61,4,4,0,0,0,2.57,1.78,2.48,2.48,0,0,0,1.48-.13.75.75,0,0,0-.08.14,3.1,3.1,0,0,0,.14,2.93,3.67,3.67,0,0,0,2.79,2,2.52,2.52,0,0,0,2.06-.51,3.47,3.47,0,0,0,.46,2.25,3.59,3.59,0,0,0,2.73,1.85,2.5,2.5,0,0,0,2.35-.78A3.83,3.83,0,0,0,36.29,70a3.16,3.16,0,0,0,1.44.36A2.75,2.75,0,0,0,39.1,70a17.62,17.62,0,0,0,3.71-4.9,3.37,3.37,0,0,0-.89-3.19A3.3,3.3,0,0,0,38.22,60.84Z"/><path class="cls-3" d="M27.88,27.92c-.18-1-6.18-4.29-6.55-4.29s-.87.23-1.66,1.55v0C18.72,26.85,8.85,44.35,8.7,45c-.16,1,.39,1.29,3.07,2.94,2.49,1.5,3.08,1.73,3.41,1.73l.18,0c.72-.1.76-.1,6.73-10.7C28,28.49,27.94,28.36,27.88,27.92Z"/><path class="cls-2" d="M76.25,35.63c-2.41-4.29-5.46-9.6-6.44-11.11-.27-.42-.51-.78-1-.84-.31,0-.58-.06-3.5,1.74-2.54,1.57-3.14,2-3.08,2.8,0,.3,0,.52,5.79,10.78s5.93,10.37,6.26,10.55a1,1,0,0,0,.49.12,1.72,1.72,0,0,0,.58-.13c.24-.1,5.6-2.87,6-3.94C81.44,45.09,81.48,45,76.25,35.63Z"/><path class="cls-4" d="M62.84,48.27a258.28,258.28,0,0,1-21,19.78,6.91,6.91,0,0,0,1.19.47,19.64,19.64,0,0,0,5.58,1,5.57,5.57,0,0,0,2.46-.47S54,67.37,53.53,66h0a4.73,4.73,0,0,0,2.35.15,3.25,3.25,0,0,0,2.6-2.34l.06-.2a1.87,1.87,0,0,0,0-1.66,2.72,2.72,0,0,0,1,.12,3.83,3.83,0,0,0,2.89-1,3.31,3.31,0,0,0,1-2.85l0-.54.25.15,1.33-.05a3.39,3.39,0,0,0,2-.55,3.54,3.54,0,0,0,.85-4.7C67.41,51.91,66.39,51,62.84,48.27Z"/></svg>