<svg id="Layer_1" data-name="Layer 1" xmlns="http://www.w3.org/2000/svg" width="90" height="90" viewBox="0 0 90 90"><defs><style>.cls-1,.cls-2,.cls-5{fill:#8f42e5;}.cls-1{opacity:0.1;}.cls-3{fill:#bfa2f9;}.cls-4{fill:#e6dcff;}.cls-5{opacity:0.4;}.cls-6{fill:none;stroke:#8f42e5;stroke-linecap:round;stroke-linejoin:round;stroke-width:2px;}</style></defs><circle class="cls-1" cx="45" cy="45" r="45"/><path class="cls-2" d="M66.51,72.3a2,2,0,0,0,2-2.13L67.94,59a7.19,7.19,0,0,0-4.66-6.34L54.79,49.5l-3.64,2L45,51.88l-1-.73,1,3.15H37.51l-2.08-4.9h0l-8.84,3.31a7,7,0,0,0-4.52,6.15l-.6,11.31a2,2,0,0,0,2,2.13Z"/><polygon class="cls-3" points="49.45 55.68 44.18 54.26 44.18 54.24 45 54.25 45.18 54.24 45.18 54.26 40.55 55.68 42.88 60.6 40.55 72.31 49.45 72.31 47.12 60.6 49.45 55.68"/><path class="cls-4" d="M35.69,49.47a1.57,1.57,0,0,0-1,1.46A16.55,16.55,0,0,0,36,57.52a1.7,1.7,0,0,0,2.48.79L45,54.24,39.62,48Zm18.62,0L50.38,48,45,54.24l6.51,4.07A1.7,1.7,0,0,0,54,57.52a16.55,16.55,0,0,0,1.32-6.59A1.57,1.57,0,0,0,54.31,49.47Z"/><path class="cls-3" d="M51.72,41.73,45,45.84l-6.78-4.11v7.36a2,2,0,0,0,.94,1.71l5.09,3.27a1.35,1.35,0,0,0,1.47,0l5.11-3.27a2,2,0,0,0,.94-1.72Z"/><path class="cls-5" d="M38.17,41.74v6.67A14.7,14.7,0,0,0,45,50.06h0a14.69,14.69,0,0,0,6.77-1.65V41.74L45,45.86Z"/><rect class="cls-2" x="28.59" y="29" width="32.95" height="8.65" rx="2.84"/><path class="cls-3" d="M48.59,22.61l-7.32,1.16-7.73,4.15c0,.33,0,.66,0,1v6.31A11.57,11.57,0,0,0,45.06,46.8h0A11.57,11.57,0,0,0,56.63,35.23v-5.5l-2.39-5.25Z"/><path class="cls-2" d="M52.08,27.05a12,12,0,0,0,4.55,2.68v-.81A11.57,11.57,0,0,0,45.06,17.35h0A11.57,11.57,0,0,0,33.54,27.92C38.46,33.29,49.05,27.48,52.08,27.05Z"/><path class="cls-6" d="M31,35.89v-7.7A11.76,11.76,0,0,1,31.1,27,13.91,13.91,0,0,1,45,14.24h0a13.9,13.9,0,0,1,13.9,13.9V38.78A3.89,3.89,0,0,1,55,42.67h-9.9"/></svg>