<svg id="Layer_1" data-name="Layer 1" xmlns="http://www.w3.org/2000/svg" width="90" height="90" viewBox="0 0 90 90"><defs><style>.cls-1,.cls-3{fill:#8f42e5;}.cls-1{opacity:0.1;}.cls-2{fill:#bfa2f9;}.cls-4{fill:#e6dcff;}</style></defs><circle class="cls-1" cx="45" cy="45" r="45"/><rect class="cls-2" x="36.78" y="21.92" width="25.78" height="47.7" transform="translate(0.66 92.25) rotate(-86.15)"/><path class="cls-3" d="M72.64,39.84a5.6,5.6,0,0,1-3.81-4.26L32,33.1a5.6,5.6,0,0,1-4.33,3.71l-1,14.34A5.58,5.58,0,0,1,30.6,56l36.58,2.46a5.61,5.61,0,0,1,4.49-4.24Z"/><circle class="cls-2" cx="49.66" cy="45.77" r="10.12"/><rect class="cls-2" x="17.09" y="23.27" width="47.7" height="25.78" transform="translate(-4.18 5.37) rotate(-7.15)"/><path class="cls-3" d="M62.35,26a5.62,5.62,0,0,1-4.54-3.45L21.21,27.1a5.63,5.63,0,0,1-3.55,4.47l1.79,14.25a5.59,5.59,0,0,1,4.72,4l36.38-4.56a5.6,5.6,0,0,1,3.6-5Z"/><circle class="cls-2" cx="40.94" cy="36.16" r="10.12"/><circle class="cls-4" cx="38.95" cy="68.02" r="8.54"/><circle class="cls-2" cx="38.95" cy="68.02" r="6.43"/><circle class="cls-4" cx="57.82" cy="57.44" r="8.54"/><circle class="cls-2" cx="57.82" cy="57.44" r="6.43"/></svg>