<svg id="Layer_1" data-name="Layer 1" xmlns="http://www.w3.org/2000/svg" width="90" height="90" viewBox="0 0 90 90"><defs><style>.cls-1,.cls-4{fill:#8f42e5;}.cls-1{opacity:0.1;}.cls-2{fill:#fff;}.cls-3{fill:#bfa2f9;}.cls-5{fill:#e6dcff;}</style></defs><circle class="cls-1" cx="45" cy="45" r="45"/><path class="cls-2" d="M23.58,33.41a4.46,4.46,0,0,0-.82,0,1.25,1.25,0,0,1-1.34-.74,4.75,4.75,0,0,0-8.82.42,1.23,1.23,0,0,1-1.25.84,4,4,0,0,0-.77,0,3.37,3.37,0,0,0,.57,6.69h12.2a3.65,3.65,0,0,0,.23-7.29Z"/><path class="cls-2" d="M69.66,18.83a4.92,4.92,0,0,0-1.09.06,1.68,1.68,0,0,1-1.79-1A6.36,6.36,0,0,0,55,18.46a1.67,1.67,0,0,1-1.68,1.12,4.51,4.51,0,1,0-.27,9H69.36a4.89,4.89,0,0,0,.3-9.77Z"/><path class="cls-3" d="M51.39,27.88l-7.09-6.5L20,44.88V68.5A1.5,1.5,0,0,0,21.5,70H36l4-2,13,.75L54,70H68.5A1.5,1.5,0,0,0,70,68.5V38.88Z"/><path class="cls-4" d="M70,25H50.79L46.1,19.6a1.46,1.46,0,0,0-2.2,0L39.21,25H20a2,2,0,0,0-2,2V50h0a1.54,1.54,0,0,0,.48,1.13A1.44,1.44,0,0,0,20.57,51L45,22.89,69.43,51a1.43,1.43,0,0,0,2.08.12A1.54,1.54,0,0,0,72,50h0V27A2,2,0,0,0,70,25Z"/><polygon class="cls-5" points="29.42 48 35 48 35 61 27 61 27 48.64 29.42 48"/><rect class="cls-4" x="25" y="60" width="12" height="2" rx="1"/><path class="cls-4" d="M36,61H34V49.29a.29.29,0,0,0-.29-.29H28.29a.29.29,0,0,0-.29.29V61H26V49.08A2.08,2.08,0,0,1,28.08,47h5.84A2.08,2.08,0,0,1,36,49.08Z"/><polygon class="cls-5" points="57.42 48 63 48 63 61 55 61 55 48.64 57.42 48"/><rect class="cls-4" x="53" y="60" width="12" height="2" rx="1"/><path class="cls-4" d="M64,61H62V49.29a.29.29,0,0,0-.29-.29H56.29a.29.29,0,0,0-.29.29V61H54V49.08A2.08,2.08,0,0,1,56.08,47h5.84A2.08,2.08,0,0,1,64,49.08Z"/><circle class="cls-5" cx="45" cy="33.5" r="3.5"/><path class="cls-4" d="M40.33,47h9.33A1.33,1.33,0,0,1,51,48.33V68a0,0,0,0,1,0,0H39a0,0,0,0,1,0,0V48.33A1.33,1.33,0,0,1,40.33,47Z"/><path class="cls-5" d="M37.46,66H52.54A1.46,1.46,0,0,1,54,67.46V70a0,0,0,0,1,0,0H36a0,0,0,0,1,0,0V67.46A1.46,1.46,0,0,1,37.46,66Z"/><circle class="cls-3" cx="48.5" cy="57.5" r="1.5"/><rect class="cls-4" x="27" y="53" width="8" height="2"/><rect class="cls-4" x="55" y="53" width="8" height="2"/></svg>