<svg id="Layer_1" data-name="Layer 1" xmlns="http://www.w3.org/2000/svg" width="90" height="90" viewBox="0 0 90 90"><defs><style>.cls-1,.cls-3{fill:#8f42e5;}.cls-1{opacity:0.1;}.cls-2{fill:#bfa2f9;}.cls-4{fill:#e6dcff;}</style></defs><circle class="cls-1" cx="45" cy="45" r="45"/><path class="cls-2" d="M57.5,25.5l-4-8.5H28.63A3.62,3.62,0,0,0,25,20.63V69.38A3.62,3.62,0,0,0,28.63,73H63.38A3.62,3.62,0,0,0,67,69.38v-40Z"/><path class="cls-3" d="M54,17.5v8.88A3.62,3.62,0,0,0,57.63,30H67.5Z"/><rect class="cls-3" x="49" y="64" width="13" height="3" rx="1.5"/><path class="cls-3" d="M59.5,34h-27a1.5,1.5,0,0,0,0,3h27a1.5,1.5,0,0,0,0-3ZM49,41H33a1.5,1.5,0,0,0,0,3H49a1.5,1.5,0,0,0,0-3Zm0,7H33a1.5,1.5,0,0,0,0,3H49a1.5,1.5,0,0,0,0-3Zm0,7H33a1.5,1.5,0,0,0,0,3H49a1.5,1.5,0,0,0,0-3Z"/><path class="cls-2" d="M77.06,30.77l-.24-.19c-1.55-1.2-4.25-.3-6,2l-1.63,2.11-1,7.31L75,39.22l1.63-2.11C78.43,34.81,78.62,32,77.06,30.77Z"/><path class="cls-4" d="M58.76,48.13l-.77,1a6.47,6.47,0,0,0-1.1,2.09L55,57.45a1.17,1.17,0,0,0,.25,1.32,1.2,1.2,0,0,0,1.34-.08l5.55-3.44a6.57,6.57,0,0,0,1.75-1.59l.77-1,1.54-6.4Z"/><rect class="cls-3" x="63.18" y="35.18" width="7.41" height="17" transform="translate(40.7 -31.79) rotate(37.72)"/></svg>