<svg id="Layer_1" data-name="Layer 1" xmlns="http://www.w3.org/2000/svg" width="90" height="90" viewBox="0 0 90 90"><defs><style>.cls-1,.cls-4{fill:#8f42e5;}.cls-1{opacity:0.1;}.cls-2,.cls-6{fill:#fff;}.cls-3{fill:#bfa2f9;}.cls-5{fill:#e6dcff;}.cls-6{opacity:0.2;}</style></defs><circle class="cls-1" cx="45" cy="45" r="45"/><path class="cls-2" d="M47.1,14.23a4.89,4.89,0,0,0-1.09.06,1.69,1.69,0,0,1-1.8-1,6.37,6.37,0,0,0-11.82.56A1.66,1.66,0,0,1,30.72,15,4.53,4.53,0,0,0,26,19.07,4.52,4.52,0,0,0,30.45,24H46.79a4.89,4.89,0,0,0,.31-9.77Z"/><path class="cls-2" d="M76.1,36.23a4.89,4.89,0,0,0-1.09.06,1.69,1.69,0,0,1-1.8-1,6.37,6.37,0,0,0-11.82.56A1.66,1.66,0,0,1,59.72,37,4.53,4.53,0,0,0,55,41.07,4.52,4.52,0,0,0,59.45,46H75.79a4.89,4.89,0,0,0,.31-9.77Z"/><path class="cls-3" d="M23.06,18H66.81a2.63,2.63,0,0,1,2.63,2.63V67a0,0,0,0,1,0,0h-49a0,0,0,0,1,0,0V20.63A2.63,2.63,0,0,1,23.06,18Z"/><rect class="cls-4" x="18.43" y="64" width="53" height="7" rx="1.69"/><path class="cls-5" d="M23.93,29.25c-.15.31,3.71,3.09,3.58,4a3.66,3.66,0,0,0,.72,3.38c4.77,4.5,10.4,1.2,10.4-3.42C38.63,32.82,40,23,40,23H28.93Zm40.82.25L59.93,23H49s1.37,9.82,1.37,10.19c0,4.63,5.68,8,10.46,3.37a3.47,3.47,0,0,0,.68-3.31C61.31,32.37,64.9,29.81,64.75,29.5Z"/><path class="cls-6" d="M27.51,33.44a5.56,5.56,0,0,0,11.12,0c0-.08.07-.63.18-1.44H26.48C27.06,32.57,27.51,33.11,27.51,33.44ZM50.18,32c.11.81.17,1.36.17,1.44a5.57,5.57,0,0,0,11.13,0c0-.34.45-.88,1-1.44Z"/><path class="cls-4" d="M17.57,30.76A6.94,6.94,0,0,0,17,33.19a5.57,5.57,0,0,0,11.13,0C28.13,32.82,29.5,23,29.5,23h-9Zm54.86,0L69.5,23h-9s1.37,9.82,1.37,10.19a5.57,5.57,0,0,0,11.13,0A6.94,6.94,0,0,0,72.43,30.76ZM39.6,23s-.54,9.25-.54,10.19a5.74,5.74,0,0,0,5.63,5.55h.76A5.73,5.73,0,0,0,51,33.19c0-.94-.53-10.19-.53-10.19Z"/><path class="cls-6" d="M17,33.44a5.57,5.57,0,0,0,11.13,0c0-.08.07-.63.17-1.44H17.23A5.85,5.85,0,0,0,17,33.44ZM72.77,32H61.7c.1.81.17,1.36.17,1.44a5.57,5.57,0,0,0,11.13,0A5.85,5.85,0,0,0,72.77,32ZM39.12,32c0,.72-.06,1.25-.06,1.44A5.74,5.74,0,0,0,44.69,39h.76A5.73,5.73,0,0,0,51,33.44c0-.19,0-.72-.06-1.44Z"/><path class="cls-4" d="M52.58,44h8.71a2.14,2.14,0,0,1,2.14,2.15V66h-13V46.15A2.15,2.15,0,0,1,52.58,44Z"/><circle class="cls-5" cx="52.93" cy="54.5" r="1.5"/><rect class="cls-5" x="26.43" y="45" width="18" height="13" rx="1.66"/><path class="cls-4" d="M43.43,46V57h-16V46h16m.13-2H27.31a1.88,1.88,0,0,0-1.88,1.88V57.13A1.88,1.88,0,0,0,27.31,59H43.56a1.87,1.87,0,0,0,1.87-1.87V45.88A1.88,1.88,0,0,0,43.56,44Z"/><path class="cls-2" d="M39.06,56a1,1,0,0,1-.72-.31,1,1,0,0,1,0-1.41l2.29-2.2A1,1,0,0,1,42,53.52l-2.28,2.2A1,1,0,0,1,39.06,56Z"/><path class="cls-2" d="M34.06,56a1,1,0,0,1-.72-.31,1,1,0,0,1,0-1.41l7.28-7A1,1,0,0,1,42,48.72l-7.27,7A1,1,0,0,1,34.06,56Z"/></svg>