<svg id="Layer_1" data-name="Layer 1" xmlns="http://www.w3.org/2000/svg" width="90" height="90" viewBox="0 0 90 90"><defs><style>.cls-1,.cls-4{fill:#8f42e5;}.cls-1{opacity:0.1;}.cls-2{fill:#fff;}.cls-3{fill:#bfa2f9;}.cls-5{fill:#e6dcff;}</style></defs><circle class="cls-1" cx="45" cy="45" r="45"/><path class="cls-2" d="M73.23,36.71a3.61,3.61,0,0,0-.81,0A1.26,1.26,0,0,1,71.08,36a4.74,4.74,0,0,0-8.82.42,1.24,1.24,0,0,1-1.25.84,3.46,3.46,0,0,0-.78,0,3.41,3.41,0,0,0-2.78,3A3.37,3.37,0,0,0,60.81,44H73a3.65,3.65,0,0,0,.22-7.29Z"/><path class="cls-2" d="M25.23,36.71a3.61,3.61,0,0,0-.81,0A1.26,1.26,0,0,1,23.08,36a4.74,4.74,0,0,0-8.82.42,1.24,1.24,0,0,1-1.25.84,3.46,3.46,0,0,0-.78,0,3.41,3.41,0,0,0-2.78,3A3.37,3.37,0,0,0,12.81,44H25a3.65,3.65,0,0,0,.22-7.29Z"/><rect class="cls-3" x="65" y="49.5" width="11" height="16.5" rx="5.4"/><rect class="cls-3" x="69" y="61" width="3" height="10" rx="1.33"/><rect class="cls-4" x="46" y="28" width="21" height="42"/><rect class="cls-3" x="45" y="26" width="23" height="4" rx="1.09"/><rect class="cls-3" x="23.04" y="20" width="24.92" height="49"/><rect class="cls-4" x="22" y="18" width="27" height="4" rx="1.02"/><path class="cls-5" d="M40.89,25h-2l-.76,1.6L37.06,25H33.94L33,26.84,32.12,25h-2A1.11,1.11,0,0,0,29,26.11v5.28l3.53,3.26,6,.18L42,31.39V26.11A1.11,1.11,0,0,0,40.89,25Z"/><path class="cls-4" d="M39,31V25H37v6H34V25H32v6H29v3.89A1.11,1.11,0,0,0,30.11,36H40.89A1.11,1.11,0,0,0,42,34.89V31Z"/><path class="cls-5" d="M40.89,39h-2l-.76,1.6L37.06,39H33.94L33,40.84,32.12,39h-2A1.11,1.11,0,0,0,29,40.11v5.28l3.53,3.26,6,.18L42,45.39V40.11A1.11,1.11,0,0,0,40.89,39Z"/><path class="cls-4" d="M39,45V39H37v6H34V39H32v6H29v3.89A1.11,1.11,0,0,0,30.11,50H40.89A1.11,1.11,0,0,0,42,48.89V45Z"/><path class="cls-5" d="M40.89,53h-2l-.76,1.6L37.06,53H33.94L33,54.84,32.12,53h-2A1.11,1.11,0,0,0,29,54.11v5.28l3.53,3.26,6,.18L42,59.39V54.11A1.11,1.11,0,0,0,40.89,53Z"/><path class="cls-4" d="M39,59V53H37v6H34V53H32v6H29v3.89A1.11,1.11,0,0,0,30.11,64H40.89A1.11,1.11,0,0,0,42,62.89V59Z"/><rect class="cls-3" x="16" y="68" width="59" height="3" rx="1.22"/><path class="cls-5" d="M55.14,33H51.86a.85.85,0,0,0-.86.86v4.28a.85.85,0,0,0,.86.86h3.28a.85.85,0,0,0,.86-.86V33.86A.85.85,0,0,0,55.14,33Zm8,0H59.86a.85.85,0,0,0-.86.86v4.28a.85.85,0,0,0,.86.86h3.28a.85.85,0,0,0,.86-.86V33.86A.85.85,0,0,0,63.14,33Zm-8,8H51.86a.85.85,0,0,0-.86.86v4.28a.85.85,0,0,0,.86.86h3.28a.85.85,0,0,0,.86-.86V41.86A.85.85,0,0,0,55.14,41Zm8,0H59.86a.85.85,0,0,0-.86.86v4.28a.85.85,0,0,0,.86.86h3.28a.85.85,0,0,0,.86-.86V41.86A.85.85,0,0,0,63.14,41Zm-8,9H51.86a.85.85,0,0,0-.86.86v4.28a.85.85,0,0,0,.86.86h3.28a.85.85,0,0,0,.86-.86V50.86A.85.85,0,0,0,55.14,50Zm8,0H59.86a.85.85,0,0,0-.86.86v4.28a.85.85,0,0,0,.86.86h3.28a.85.85,0,0,0,.86-.86V50.86A.85.85,0,0,0,63.14,50Zm-8,8H51.86a.85.85,0,0,0-.86.86v4.28a.85.85,0,0,0,.86.86h3.28a.85.85,0,0,0,.86-.86V58.86A.85.85,0,0,0,55.14,58Zm8,0H59.86a.85.85,0,0,0-.86.86v4.28a.85.85,0,0,0,.86.86h3.28a.85.85,0,0,0,.86-.86V58.86A.85.85,0,0,0,63.14,58Z"/><rect class="cls-4" x="15" y="48.5" width="11" height="16.5" rx="5.4"/><rect class="cls-3" x="19" y="60" width="3" height="10" rx="1.33"/></svg>