<?xml version="1.0" encoding="utf-8"?>
<!-- Generator: Adobe Illustrator 25.0.0, SVG Export Plug-In . SVG Version: 6.00 Build 0)  -->
<svg version="1.1" id="Layer_1" xmlns="http://www.w3.org/2000/svg" xmlns:xlink="http://www.w3.org/1999/xlink" x="0px" y="0px"
	 viewBox="0 0 157.3 164.5" style="enable-background:new 0 0 157.3 164.5;" xml:space="preserve">
<style type="text/css">
	.st0{fill-rule:evenodd;clip-rule:evenodd;fill:#65A5BD;}
</style>
<g>
	<g>
		<path class="st0" d="M107.9,60.3c0,0,3.2,19.8,4.2,25.2c0.4,2.1,0.7,3.7,3,3.9c4.9,0.3,25.8,1,31.4,1.8c2.4,0.4,2.6-0.8,2-2.9
			c-0.8-3.1-1.6-8.4-2.2-10.4c-0.2-0.6-0.3-1.2,0.4-1.3c1.1-0.1,2,0,3.1,0c-9.1-6.1-26.3-11.9-36.9-12.1
			C110.9,62.1,109.3,60.9,107.9,60.3"/>
		<path class="st0" d="M85.6,89.1c1.8-0.5,5.7-1.1,7.4-0.1c1.1,0.6,1.5,1.1,2.9,1.1c1.2-0.1,5.2-0.1,7.8-0.7
			c1.9-0.4,2.8-0.7,2.9-3.1c0.1-5-2-19.4-2.3-20.1c-1.4-3-4.6-2-7.2-1.5c-4.2,0.7-10.1,1.6-12.2,2.9c-1.4,0.8-1.8,1.6-1.8,3
			c0,3.5,0,11.4,0,15.6C82.9,87.5,83.8,89.5,85.6,89.1"/>
		<path class="st0" d="M44.2,30.7l7.9,7.6c0,0,1.5,4.1,1.8,3.3c1.8-5,2.9-3.9,1.4-9c-1.2,0.2-3.4,0.1-5.3,0.4
			C50,33,46.9,31,44.2,30.7 M0.2,66.2l57.2-19.4l20.3,1.8l-9.5-11.1l-0.2,1l-4.4-3.4l5.4-2.4l4.2-3.5c0,0-1.4,0.3-1.8,0.3
			c-0.4,0-9.3-5.2-9.8-6.3s-0.2-2.8-0.2-2.8s-3.3-2.3-3.6-2.3c-0.3,0,0.4-1.2,0.4-1.2l-1.5-0.2l0.2-1c0.2-1,5.4-3.6,5.2-4.1L57.7,0
			c0,0-0.4,2-0.8,3.6c-0.3,1.6-6.6,9.3-6.8,9.3c-0.2,0-0.9-0.9-0.9-0.9s-0.4,1.1-0.5,1.4S40,27.3,40,27.3l-3.4-1.2
			c0,0-0.3,1.2-0.6,2.2c-0.4,0.9-2.6,3.5-2.8,3.7c-0.2,0.2-1.6,0.4-1.6,0.4l0.7,1.2l-2.7,4.6c0,0-0.3,0.4-0.2,1.4s-0.3,1.8-0.6,2.6
			c-0.3,0.8-9.2,7.4-9.2,7.4s-0.6-0.5-0.7-1.2s-0.2-1.5-0.2-1.7l4.6-9.3l-4.8,0.4c0,0,0.6-1.5,0.8-1.9c0.2-0.4,2.8-6.2,2.8-6.2
			l-0.8-2.3l-0.5-1.6c0,0-3,5.5-3.2,7.1C17.5,34,8.5,46.1,4.4,51.5C3.2,53.2,0.2,66.2,0.2,66.2z"/>
		<path class="st0" d="M116.6,51.9l34.6,14.6l-6.8-12.3c0,0-4.4-5.7-5.7-6.3c-1.3-0.6-6-9-6-9L124,35l-1.5-3c0,0-5.6-3.8-5.8-3.8
			c-0.2,0-2.1-1.4-2.1-1.7s1.9-1,2.2-1.1c0.3-0.2,0.6-1.9,0.8-2.3c0.2-0.5,2.3-2.2,2.3-2.2l-4.4-3.5c0.1-0.4,0.3-3,0.5-3.7
			c-1.8,1.4-2.7,4.2-5.7,6.4c-4.6,3.4-10.6,5.8-10.6,5.8l0.1-1.4c0,0-1-0.2-1.4-0.1c-0.4,0.2-1.3-1.2-1.7-1.9
			c-0.4-0.7-1.4-1.5-1.4-1.5L94,20.1l1.8-1.6l-3.5-2.7l-1.6-1.2l4.4-3.4c0.4-0.3-2.2-4.8-4.1-6.1l-7.5,3.5l-12.3,2.6
			c0,0-2.4-3.4-2.9-3C67.8,8.6,66,9.4,66,9.4l1.5,3.2l7.9,4.6c0,0,1.1,0.2,2.2,0.7c1.1,0.5,3.1,2.3,4,3c0.9,0.6,1.6,2.6,1.6,2.6
			l-3.6,1.3l7-0.1l1.8,1.3c0,0,4,2.1,4.5,2.1s5.8,2.4,5.9,2.4c1.2,0.6,2.7,4.5,2.7,4.5l2.7,2.5l2.5,3.9l4.6,10.1L116.6,51.9z"/>
		<path class="st0" d="M134.3,27.3c0,0-2,2.4-1.9,3s-0.8,1.7-0.8,1.7s3.5,2.7,4.1,3.2c0.5,0.5,1.6,4,2.4,4l1.4-5.7
			c0,0-1.6-3.2-2.3-3.6C136.5,29.7,134.3,27.3,134.3,27.3"/>
		<path class="st0" d="M125.1,105.4c0.2,1.6,0.7,4.6,0.9,5.8c0.7,4.3,2.9,8.4,8,7.3c3.3-0.7,10.9-2.5,13.8-3.2
			c3.2-0.8,3.9-2.7,3.6-5.5c-0.2-2.1-1-4.9-1.6-6.5c-0.3-0.8-0.8-1.4-1.9-1.4c-1.1,0-16.9,0.9-20.8,1.2
			C125.4,103.3,124.9,103.5,125.1,105.4"/>
		<polygon class="st0" points="52.8,103.9 52.8,112.8 0,102.3 		"/>
		<path class="st0" d="M41.4,132.4c0-3.8-1.2-6.9-2.6-6.9c-0.4,0-0.9,0.3-1.2,0.8c1.4,0,2.6,3.1,2.6,6.9c0,2.6-0.6,4.9-1.4,6.1
			c0,0,0,0,0,0C40.3,139.3,41.4,136.2,41.4,132.4"/>
		<path class="st0" d="M23.6,121.5c1.3,0,2.3,2.8,2.3,6.1c0,2.3-0.5,4.4-1.2,5.4c0,0,0,0,0,0c1.3,0,2.3-2.8,2.3-6.1s-1-6.1-2.3-6.1
			C24.3,120.8,23.9,121.1,23.6,121.5"/>
		<path class="st0" d="M20.5,124.7c0-3.4-1-6.1-2.3-6.1c-0.4,0-0.8,0.3-1.1,0.7c1.3,0,2.3,2.8,2.3,6.1c0,2.3-0.5,4.4-1.2,5.4
			c0,0,0,0,0,0C19.5,130.8,20.5,128.1,20.5,124.7"/>
		<path class="st0" d="M45.5,129c1.4,0,2.6,3.2,2.6,7.2c0,2.7-0.6,5.1-1.4,6.3c0,0,0,0,0,0c1.4,0,2.6-3.2,2.6-7.2
			c0-4-1.2-7.2-2.6-7.2C46.3,128.2,45.9,128.5,45.5,129"/>
		<path class="st0" d="M81.5,142.3c3.7,0,6.7,4.2,6.7,9.5c0,3.4-1.3,6.5-3.2,8.1c3.4-0.5,6-4.6,6-9.4c0-5.2-3-9.5-6.7-9.5
			c-1.3,0-2.5,0.5-3.5,1.4C81,142.3,81.2,142.3,81.5,142.3"/>
		<path class="st0" d="M115.2,137.4c6.2-0.4,7.1-0.4,13.5-2.2c0,0,0,2.8,0,4.5c-4,1.8-12.3,2.7-13.5,2.5L115.2,137.4L115.2,137.4z
			 M115.2,148.6v-4.8c6.4-0.6,6.8-0.5,13.5-2.5c0,0,0,3.1,0,4.8C124.7,148,115.2,149.1,115.2,148.6z M0.1,86.6l52.7-3.3l4.8-23.5
			l0,58.7c0,0.5-46-11-46-11l-0.1,9.2l5.2,1.9c0.6-1.6,1.7-2.3,2.4-2.2c0.8,0.2,1.6,1.1,2.1,2.8c0.6,1.8,0.8,3.7,0.8,5.7
			c0.2-1.6,0.5-3.6,1.3-5.1c1.4-2.5,3.2-1.7,4.2,1.1c1.1,3.2,1.2,7.8,0.3,11.1c-0.3,1.2-1,3.1-2.2,3.6c2.5-0.4,2.9-0.3,5.4-0.9
			c0.5-0.1,1-0.5,1.5-1c0.4,0.4,0.5,0.7,1.3,0.7c0.1,0,0.9-0.1,1.5-0.2c0-0.6-0.1-1.2-0.1-1.8c0-9.4,4.2-14,6.7-7.6
			c1.1,2.8,1.1,5.2,1.2,8.2l0,0.3c0.2-2.6,0.8-6.3,2.9-8c0.7-0.5,1.5-0.5,2.4,0.4c2,2,2.6,7.3,2.6,10.1c0,1.6-0.1,3.1-0.4,4.4
			l-1.1,3.8c-0.4,0.9-1.1,2-2.1,2.4l8-1.4l0,0c0.6-0.1,1.2-0.6,1.7-1.3c0.8,0.8,1.2,0.7,1.9,0.6l5.6-1c0.7-0.1,1.2-0.4,1.7-1.4
			c2.8,1.1,6,1.9,7.7,1.9c2.5-6,9.7-9.6,15.5-5.5c3.7,2.6,6,7.6,6,12.9c0,3.9-1.2,7.4-3.1,10c-1.1,1.5-2.3,2.6-3.9,3.5
			c3.1-1.5,4.9-2.3,7.9-3.8c2.3-1.2,3.9-4.3,4.9-6.9c7.4,1.4,18.6,0.6,24.6-1.5c11-3.8,25.7-11,28.9-14c0.9-0.8,1.4-2,1.7-3.5
			c-1.3,0.9-2.1,1.5-2.1,1.4l0-4l2.5-1.8c0-0.4,0-0.8-0.1-1.2c-1.2,0.9-2.1,1.5-2.4,1.6l0-4l2-1.4c-0.3-2.1-1.9-10.9-3-10
			c-1.1,0.9-1.4,1.8-2.2,2.4c-2.8,2.1-19.9,6.7-22.5,5.5c-1-0.5-2.2-4.2-6.7-3.9c-0.5,0.1-9.9-18.4-12.5-23.8
			c-0.6-1.2-2.1-1.8-3.4-1.8c-1.8,0-13.2,0.7-17.5,1.5c-2.9,0.5-6.2,1.2-6.2,4c0,4.5,0.3,14.2,0.1,14.9c-1.2,0.2-2.5-0.1-5.7-0.3
			c-2.4-0.2-3.1-1.1-3.1-3.1l0-42.8c0-3.6,1.7-4.5,4.4-5.5c3.6-1.3,25.6-6.5,28.4-5.5c0.3-0.6,1.6-1.7,3.7-1.9
			c-12.8-1.1-38.6-3.5-52.9-4.6L0.1,70.1L0.1,86.6L0.1,86.6z"/>
		<polyline class="st0" points="8.8,115.6 8.8,106.8 0.1,104.7 0.1,112.5 8.6,115.6 		"/>
	</g>
</g>
</svg>
