<svg width="26" height="18" viewBox="0 0 26 18" fill="none" xmlns="http://www.w3.org/2000/svg">
<path fill-rule="evenodd" clip-rule="evenodd" d="M0.75 1.5C0.75 0.947715 1.19772 0.5 1.75 0.5H24.25C24.8023 0.5 25.25 0.947715 25.25 1.5C25.25 2.05228 24.8023 2.5 24.25 2.5H1.75C1.19772 2.5 0.75 2.05228 0.75 1.5ZM0.75 9C0.75 8.44772 1.19772 8 1.75 8H16.75C17.3023 8 17.75 8.44772 17.75 9C17.75 9.55229 17.3023 10 16.75 10H1.75C1.19772 10 0.75 9.55229 0.75 9ZM0.75 16.5C0.75 15.9477 1.19772 15.5 1.75 15.5H24.25C24.8023 15.5 25.25 15.9477 25.25 16.5C25.25 17.0523 24.8023 17.5 24.25 17.5H1.75C1.19772 17.5 0.75 17.0523 0.75 16.5Z" fill="white"/>
</svg>
