<svg width="27" height="26" viewBox="0 0 27 26" fill="none" xmlns="http://www.w3.org/2000/svg">
<path d="M1.18101 0.317191C1.38416 0.114094 1.65967 0 1.94694 0C2.2342 0 2.50971 0.114094 2.71287 0.317191L13.8638 11.4681L25.0148 0.317191C25.2179 0.114094 25.4934 0 25.7807 0C26.068 0 26.3435 0.114094 26.5466 0.317191V0.317191C26.7497 0.52035 26.8638 0.795855 26.8638 1.08312C26.8638 1.37039 26.7497 1.64589 26.5466 1.84905L15.3957 13L26.5466 24.1509C26.7497 24.3541 26.8638 24.6296 26.8638 24.9169C26.8638 25.2041 26.7497 25.4797 26.5466 25.6828V25.6828C26.3435 25.8859 26.068 26 25.7807 26C25.4934 26 25.2179 25.8859 25.0148 25.6828L13.8638 14.5319L2.71287 25.6828C2.50971 25.8859 2.2342 26 1.94694 26C1.65967 26 1.38416 25.8859 1.18101 25.6828C0.977908 25.4797 0.863815 25.2041 0.863815 24.9169C0.863815 24.6296 0.977908 24.3541 1.18101 24.1509L12.332 13L1.18101 1.84905C0.977908 1.64589 0.863815 1.37039 0.863815 1.08312C0.863815 0.795855 0.977908 0.52035 1.18101 0.317191V0.317191Z" fill="#0042FF"/>
</svg>
