<svg width="18" height="18" viewBox="0 0 18 18" fill="none" xmlns="http://www.w3.org/2000/svg">
<path d="M13.8875 0.500144H4.1125C3.16406 0.491645 2.251 0.859798 1.57372 1.5238C0.896441 2.1878 0.510282 3.09339 0.5 4.04181V6.16681C0.5 6.35467 0.574628 6.53484 0.707466 6.66768C0.840304 6.80052 1.02047 6.87514 1.20833 6.87514C1.39619 6.87514 1.57636 6.80052 1.7092 6.66768C1.84204 6.53484 1.91667 6.35467 1.91667 6.16681V4.04181C1.92673 3.46905 2.16356 2.92367 2.57521 2.52529C2.98686 2.12692 3.53972 1.90809 4.1125 1.91681H13.8875C14.4603 1.90809 15.0131 2.12692 15.4248 2.52529C15.8364 2.92367 16.0733 3.46905 16.0833 4.04181V13.9585C16.0733 14.5312 15.8364 15.0766 15.4248 15.475C15.0131 15.8734 14.4603 16.0922 13.8875 16.0835H4.1125C3.53972 16.0922 2.98686 15.8734 2.57521 15.475C2.16356 15.0766 1.92673 14.5312 1.91667 13.9585V11.8335C1.91667 11.6456 1.84204 11.4654 1.7092 11.3326C1.57636 11.1998 1.39619 11.1251 1.20833 11.1251C1.02047 11.1251 0.840304 11.1998 0.707466 11.3326C0.574628 11.4654 0.5 11.6456 0.5 11.8335V13.9585C0.510282 14.9069 0.896441 15.8125 1.57372 16.4765C2.251 17.1405 3.16406 17.5086 4.1125 17.5001H13.8875C14.8359 17.5086 15.749 17.1405 16.4263 16.4765C17.1036 15.8125 17.4897 14.9069 17.5 13.9585V4.04181C17.4897 3.09339 17.1036 2.1878 16.4263 1.5238C15.749 0.859798 14.8359 0.491645 13.8875 0.500144Z" fill="#1D202C"/>
<path d="M2.625 9.00006C2.625 9.18792 2.69963 9.36809 2.83247 9.50092C2.9653 9.63376 3.14547 9.70839 3.33333 9.70839L12.6748 9.68714L9.61271 12.7493C9.54506 12.8146 9.49109 12.8928 9.45397 12.9792C9.41685 13.0656 9.39731 13.1586 9.39649 13.2526C9.39567 13.3467 9.41359 13.4399 9.44921 13.527C9.48482 13.614 9.53742 13.6931 9.60393 13.7596C9.67044 13.8261 9.74952 13.8787 9.83657 13.9143C9.92363 13.95 10.0169 13.9679 10.111 13.9671C10.205 13.9663 10.298 13.9467 10.3844 13.9096C10.4708 13.8725 10.5489 13.8185 10.6143 13.7508L13.8627 10.5024C14.2611 10.1039 14.4849 9.56353 14.4849 9.00006C14.4849 8.43658 14.2611 7.89618 13.8627 7.49768L10.6157 4.24927C10.4821 4.12024 10.3032 4.04884 10.1175 4.05046C9.93174 4.05207 9.75408 4.12656 9.62275 4.25789C9.49142 4.38923 9.41693 4.56688 9.41531 4.75261C9.4137 4.93833 9.4851 5.11726 9.61413 5.25085L12.633 8.27047L3.33333 8.29172C3.14547 8.29172 2.9653 8.36635 2.83247 8.49919C2.69963 8.63203 2.625 8.8122 2.625 9.00006Z" fill="#1D202C"/>
</svg>
