<svg width="16" height="22" viewBox="0 0 16 22" fill="none" xmlns="http://www.w3.org/2000/svg">
<path fill-rule="evenodd" clip-rule="evenodd" d="M0 8C0 3.58172 3.58172 0 8 0C12.4183 0 16 3.58172 16 8V14C16 18.4183 12.4183 22 8 22C3.58172 22 0 18.4183 0 14V8ZM8 2C4.68629 2 2 4.68629 2 8V14C2 17.3137 4.68629 20 8 20C11.3137 20 14 17.3137 14 14V8C14 4.68629 11.3137 2 8 2ZM8 4C8.55228 4 9 4.44772 9 5V8C9 8.55228 8.55228 9 8 9C7.44772 9 7 8.55228 7 8V5C7 4.44772 7.44772 4 8 4Z" fill="#1D202C"/>
</svg>
