<svg width="19" height="20" viewBox="0 0 19 20" fill="none" xmlns="http://www.w3.org/2000/svg">
<path fill-rule="evenodd" clip-rule="evenodd" d="M4.69671 2.50323C4.40347 2.35491 4.05717 2.35491 3.76393 2.50323C3.64525 2.56326 3.50782 2.68647 2.9762 3.21809L2.8317 3.36259C2.32174 3.87255 2.17004 4.03306 2.04988 4.24697L1.35239 3.85516L2.04988 4.24697C1.91176 4.49283 1.79917 4.92582 1.8 5.20781L1.00001 5.2102L1.8 5.20782C1.80075 5.45936 1.84012 5.61475 1.99102 6.14641C2.74395 8.79916 4.16435 11.3025 6.25441 13.3926C8.34447 15.4826 10.8478 16.903 13.5006 17.656C14.0322 17.8069 14.1876 17.8462 14.4392 17.847C14.7212 17.8478 15.1542 17.7352 15.4 17.5971C15.6139 17.477 15.7744 17.3253 16.2844 16.8153L16.4289 16.6708C16.9605 16.1392 17.0837 16.0017 17.1438 15.8831C17.2921 15.5898 17.2921 15.2435 17.1438 14.9503C17.0837 14.8316 16.9605 14.6942 16.4289 14.1626L16.2503 13.9839C15.9009 13.6346 15.8111 13.551 15.7381 13.5035C15.3956 13.2808 14.954 13.2808 14.6115 13.5035C14.5384 13.551 14.4487 13.6346 14.0993 13.9839C14.0924 13.9908 14.0854 13.9978 14.0784 14.0049C13.9951 14.0884 13.8977 14.1861 13.781 14.2697L13.3744 13.702L13.7809 14.2697C13.3637 14.5685 12.7938 14.6657 12.3011 14.5221C12.1638 14.482 12.051 14.4277 11.9561 14.382C11.9489 14.3785 11.9419 14.3751 11.935 14.3718C10.5259 13.6953 9.20602 12.7733 8.03986 11.6071C6.87369 10.441 5.95173 9.12112 5.27519 7.71203L5.99637 7.36577L5.27519 7.71203C5.27185 7.70508 5.26846 7.69804 5.26502 7.69089C5.2193 7.59599 5.16497 7.4832 5.12494 7.34589L5.89298 7.122L5.12494 7.34589C4.98131 6.85315 5.07847 6.28334 5.37727 5.86605L5.37727 5.86604C5.46087 5.7493 5.55855 5.65191 5.64209 5.56862C5.64919 5.56154 5.65619 5.55457 5.66306 5.54769C6.01242 5.19833 6.09599 5.10856 6.14352 5.03547L6.14352 5.03546C6.3662 4.69297 6.3662 4.25144 6.14352 3.90894C6.09599 3.83585 6.01242 3.74607 5.66306 3.39672L5.48443 3.21809C4.95281 2.68647 4.81538 2.56326 4.69671 2.50323ZM3.04177 1.07547C3.78906 0.697499 4.67158 0.697498 5.41886 1.07547C5.79789 1.26719 6.12881 1.59878 6.53317 2.00397C6.56037 2.03123 6.5879 2.05882 6.6158 2.08672L6.79444 2.26535C6.81281 2.28373 6.83098 2.30186 6.84892 2.31978C7.11559 2.58609 7.33313 2.80334 7.48492 3.0368L6.87777 3.43155L7.48492 3.0368C8.0524 3.9096 8.0524 5.0348 7.48492 5.90761C7.33314 6.14106 7.1156 6.35831 6.84893 6.62462C6.83098 6.64254 6.81282 6.66068 6.79444 6.67906C6.73855 6.73495 6.71007 6.76356 6.68951 6.78553C6.68351 6.79195 6.67974 6.79616 6.67761 6.7986C6.67662 6.80041 6.67485 6.80386 6.67274 6.80913C6.66879 6.81894 6.66495 6.83181 6.66243 6.84662C6.65991 6.86142 6.65926 6.87483 6.65973 6.8854C6.66004 6.89253 6.66079 6.89676 6.66106 6.89815C6.66161 6.89958 6.66297 6.90297 6.66565 6.90915C6.67471 6.92998 6.68785 6.95763 6.71756 7.01951C7.31702 8.26806 8.1345 9.43904 9.17123 10.4758C10.208 11.5125 11.3789 12.33 12.6275 12.9294L12.2812 13.6506L12.6275 12.9294C12.6894 12.9591 12.717 12.9723 12.7378 12.9813C12.744 12.984 12.7474 12.9854 12.7488 12.9859C12.7502 12.9862 12.7545 12.987 12.7616 12.9873C12.7722 12.9877 12.7856 12.9871 12.8004 12.9846C12.8152 12.982 12.8281 12.9782 12.8379 12.9743C12.8431 12.9721 12.8466 12.9704 12.8484 12.9694C12.8508 12.9673 12.855 12.9635 12.8615 12.9575C12.8834 12.9369 12.912 12.9084 12.9679 12.8526C12.9863 12.8342 13.0044 12.816 13.0224 12.7981C13.2887 12.5314 13.5059 12.3139 13.7394 12.1621C14.6122 11.5946 15.7374 11.5946 16.6102 12.1621C16.8437 12.3139 17.0609 12.5314 17.3272 12.7981C17.3451 12.816 17.3633 12.8342 17.3816 12.8526L17.5603 13.0312C17.5882 13.0591 17.6158 13.0866 17.643 13.1138C18.0482 13.5182 18.3798 13.8491 18.5715 14.2281C18.9495 14.9754 18.9495 15.8579 18.5715 16.6052C18.3798 16.9843 18.0482 17.3152 17.643 17.7195C17.6158 17.7467 17.5882 17.7743 17.5603 17.8022L17.4158 17.9467C17.3965 17.9659 17.3775 17.985 17.3586 18.0038C16.9274 18.4354 16.6111 18.7519 16.1836 18.9921C15.6971 19.2654 14.9925 19.4486 14.4344 19.447C13.9448 19.4455 13.5899 19.3447 13.1109 19.2086C13.0953 19.2042 13.0796 19.1997 13.0637 19.1952C10.1552 18.3697 7.41095 16.8119 5.12304 14.524C2.83513 12.236 1.27733 9.49175 0.451819 6.58328C0.447313 6.5674 0.442842 6.55167 0.438409 6.53607C0.302328 6.05713 0.201468 5.70215 0.200012 5.21258C0.198351 4.6545 0.381581 3.94992 0.654907 3.46335L0.654908 3.46335C0.895049 3.03586 1.21155 2.71962 1.64315 2.28836C1.66199 2.26954 1.68105 2.2505 1.70033 2.23122L1.84483 2.08672C1.87273 2.05882 1.90026 2.03123 1.92746 2.00397C2.33182 1.59878 2.66274 1.26719 3.04177 1.07547L3.40285 1.78935L3.04177 1.07547Z" fill="#A2A9B4"/>
</svg>
