<svg width="23" height="23" viewBox="0 0 23 23" fill="none" xmlns="http://www.w3.org/2000/svg">
<path d="M22.0971 2.6517L2.65165 22.0971C2.16374 22.585 1.37179 22.585 0.883883 22.0971C0.395978 21.6092 0.395978 20.8173 0.883883 20.3294L20.3293 0.883937C20.8172 0.396032 21.6092 0.396032 22.0971 0.883937C22.585 1.37184 22.585 2.1638 22.0971 2.6517Z" fill="white"/>
<path d="M20.3291 22.0971L0.883695 2.65165C0.395789 2.16374 0.395789 1.37179 0.883695 0.883883C1.3716 0.395978 2.16356 0.395978 2.65146 0.883883L22.0969 20.3293C22.5848 20.8172 22.5848 21.6092 22.0969 22.0971C21.609 22.585 20.817 22.585 20.3291 22.0971Z" fill="white"/>
</svg>
