<svg width="482" height="166" viewBox="0 0 482 166" fill="none" xmlns="http://www.w3.org/2000/svg">
<path fill-rule="evenodd" clip-rule="evenodd" d="M108.609 60.78C108.609 60.78 111.809 80.61 112.829 85.96C113.219 88.01 113.549 89.68 115.849 89.82C120.799 90.12 141.689 90.82 147.249 91.66C149.619 92.02 149.799 90.91 149.259 88.72C148.509 85.66 147.649 80.27 147.079 78.34C146.899 77.74 146.809 77.11 147.449 77.05C148.539 76.95 149.479 77.05 150.599 77.08C141.549 70.99 124.279 65.21 113.669 65.02C111.549 62.61 109.999 61.37 108.609 60.78Z" fill="white"/>
<path fill-rule="evenodd" clip-rule="evenodd" d="M86.2888 89.58C88.1188 89.12 92.0088 88.48 93.7388 89.45C94.8088 90.05 95.2388 90.58 96.5888 90.51C97.7588 90.46 101.749 90.42 104.349 89.83C106.199 89.41 107.159 89.1 107.209 86.69C107.319 81.69 105.199 67.3 104.879 66.6C103.489 63.61 100.329 64.6 97.6288 65.07C93.4388 65.8 87.5688 66.65 85.3788 68C84.0288 68.83 83.6088 69.56 83.5488 70.99C83.5488 74.46 83.5488 82.44 83.5488 86.59C83.5488 88.03 84.5288 90.01 86.2888 89.58Z" fill="white"/>
<path fill-rule="evenodd" clip-rule="evenodd" d="M44.9202 31.18L52.8302 38.74C52.8302 38.74 54.2902 42.86 54.5902 42.03C56.4002 37.02 57.4802 38.15 56.0402 33.04C54.8002 33.26 52.6002 33.15 50.7202 33.48C50.7302 33.48 47.6002 31.51 44.9202 31.18ZM0.910156 66.75L58.1402 47.32L78.4301 49.07L68.9302 37.99L68.7802 39.02L64.3902 35.65L69.8002 33.21L74.0102 29.67C74.0102 29.67 72.6302 30 72.2202 29.98C71.8102 29.96 62.9202 24.8 62.4002 23.69C61.8802 22.58 62.2102 20.9 62.2102 20.9C62.2102 20.9 58.9002 18.56 58.6402 18.6C58.3802 18.64 59.0502 17.41 59.0502 17.41L57.5302 17.25L57.7202 16.22C57.8902 15.26 63.1102 12.61 62.9302 12.15L58.3602 0.52002C58.3602 0.52002 57.9102 2.49002 57.5802 4.14002C57.2402 5.78002 51.0002 13.47 50.8102 13.47C50.6202 13.47 49.9502 12.61 49.9502 12.61C49.9502 12.61 49.5802 13.72 49.4702 13.97C49.3602 14.22 40.6902 27.86 40.6902 27.86L37.3102 26.67C37.3102 26.67 37.0502 27.9 36.6802 28.85C36.3102 29.8 34.1102 32.34 33.8902 32.51C33.6702 32.67 32.3302 32.96 32.3302 32.96L33.0002 34.2L30.3202 38.8C30.3202 38.8 30.0602 39.21 30.1002 40.16C30.1402 41.11 29.8402 42.01 29.5002 42.79C29.1702 43.57 20.3502 50.19 20.3502 50.19C20.3502 50.19 19.7902 49.7 19.6402 49C19.4902 48.3 19.3902 47.53 19.4902 47.31L24.0602 37.96L19.2302 38.39C19.2302 38.39 19.8302 36.87 20.0102 36.5C20.2002 36.13 22.8402 30.25 22.8402 30.25L22.0902 27.92L21.5702 26.3C21.5702 26.3 18.6002 31.81 18.3702 33.37C18.2002 34.57 9.21016 46.6 5.08016 52.06C3.87016 53.71 0.910156 66.75 0.910156 66.75Z" fill="white"/>
<path fill-rule="evenodd" clip-rule="evenodd" d="M117.339 52.43L151.949 66.98L145.129 54.72C145.129 54.72 140.719 49.05 139.459 48.43C138.199 47.8 133.489 39.41 133.489 39.41L124.699 35.52L123.219 32.56C123.219 32.56 117.579 28.71 117.389 28.71C117.189 28.71 115.249 27.31 115.249 27C115.249 26.69 117.159 26.03 117.429 25.87C117.699 25.71 118.009 24 118.209 23.54C118.399 23.07 120.539 21.36 120.539 21.36L116.109 17.82C116.179 17.39 116.419 14.85 116.589 14.09C114.759 15.46 113.879 18.28 110.919 20.45C106.349 23.81 100.279 26.26 100.279 26.26L100.329 24.86C100.329 24.86 99.3185 24.63 98.9285 24.78C98.5385 24.94 97.6085 23.61 97.2185 22.91C96.8285 22.21 95.8185 21.43 95.8185 21.43L94.7285 20.65L96.5185 19.02L93.0185 16.3L91.3885 15.06L95.7785 11.63C96.2085 11.29 93.6185 6.88001 91.6885 5.51001L84.1585 9.05001L71.8685 11.64C71.8685 11.64 69.4585 8.22001 68.9885 8.68001C68.5185 9.15001 66.7285 9.92001 66.7285 9.92001L68.2385 13.11L76.1685 17.7C76.1685 17.7 77.2585 17.93 78.3485 18.4C79.4385 18.87 81.4585 20.73 82.3185 21.36C83.1785 21.98 83.9485 23.93 83.9485 23.93L80.3685 25.25L87.3285 25.16L89.1585 26.49C89.1585 26.49 93.1285 28.59 93.6685 28.59C94.2085 28.59 99.4985 30.96 99.5785 31C100.819 31.62 102.259 35.48 102.259 35.48L104.969 37.95L107.429 41.89L111.979 51.98L117.339 52.43Z" fill="white"/>
<path fill-rule="evenodd" clip-rule="evenodd" d="M135.029 27.78C135.029 27.78 133.009 30.19 133.109 30.82C133.209 31.45 132.299 32.5 132.299 32.5C132.299 32.5 135.839 35.23 136.349 35.75C136.859 36.27 137.969 39.74 138.779 39.74L140.169 34.07C140.169 34.07 138.549 30.82 137.859 30.5C137.159 30.19 135.029 27.78 135.029 27.78Z" fill="white"/>
<path fill-rule="evenodd" clip-rule="evenodd" d="M125.81 105.9C126.03 107.54 126.53 110.47 126.75 111.74C127.49 116.05 129.7 120.13 134.77 119.07C138.04 118.39 145.7 116.56 148.54 115.88C151.73 115.12 152.43 113.16 152.14 110.37C151.92 108.28 151.11 105.42 150.52 103.9C150.22 103.14 149.73 102.53 148.65 102.52C147.51 102.5 131.72 103.45 127.88 103.68C126.15 103.78 125.55 103.98 125.81 105.9Z" fill="white"/>
<path fill-rule="evenodd" clip-rule="evenodd" d="M53.4992 104.42V113.34L0.699219 102.81L53.4992 104.42Z" fill="white"/>
<path fill-rule="evenodd" clip-rule="evenodd" d="M42.1291 132.92C42.1291 129.09 40.9591 125.98 39.5291 125.98C39.0791 125.98 38.6591 126.28 38.2891 126.82C39.7191 126.84 40.8791 129.94 40.8791 133.76C40.8791 136.4 40.3291 138.69 39.5191 139.86C39.5291 139.86 39.5291 139.86 39.5391 139.86C40.9591 139.86 42.1291 136.75 42.1291 132.92Z" fill="white"/>
<path fill-rule="evenodd" clip-rule="evenodd" d="M24.2793 122.05C25.5493 122.07 26.5693 124.81 26.5693 128.19C26.5693 130.52 26.0793 132.55 25.3593 133.59C25.3693 133.59 25.3693 133.59 25.3693 133.59C26.6393 133.59 27.6693 130.84 27.6693 127.45C27.6693 124.06 26.6393 121.31 25.3693 121.31C24.9793 121.31 24.6093 121.58 24.2793 122.05Z" fill="white"/>
<path fill-rule="evenodd" clip-rule="evenodd" d="M21.2496 125.22C21.2496 121.83 20.2196 119.08 18.9496 119.08C18.5496 119.08 18.1796 119.35 17.8496 119.82C19.1196 119.84 20.1396 122.58 20.1396 125.96C20.1396 128.29 19.6496 130.32 18.9296 131.36C18.9396 131.36 18.9396 131.36 18.9396 131.36C20.2196 131.36 21.2496 128.61 21.2496 125.22Z" fill="white"/>
<path fill-rule="evenodd" clip-rule="evenodd" d="M46.1797 129.55C47.6097 129.58 48.7697 132.77 48.7697 136.71C48.7697 139.43 48.2197 141.79 47.4097 143.01C47.4197 143.01 47.4197 143.01 47.4297 143.01C48.8697 143.01 50.0297 139.8 50.0297 135.85C50.0297 131.89 48.8597 128.69 47.4297 128.69C46.9797 128.68 46.5497 129 46.1797 129.55Z" fill="white"/>
<path fill-rule="evenodd" clip-rule="evenodd" d="M82.1599 142.81C85.8799 142.81 88.8999 147.06 88.8999 152.31C88.8999 155.76 87.5999 158.78 85.6499 160.44C89.0199 159.92 91.6399 155.89 91.6399 151C91.6399 145.76 88.6299 141.5 84.8999 141.5C83.6299 141.5 82.4299 142 81.4199 142.87C81.6599 142.83 81.9099 142.81 82.1599 142.81Z" fill="white"/>
<path fill-rule="evenodd" clip-rule="evenodd" d="M115.929 137.88C122.109 137.48 122.979 137.49 129.409 135.72C129.409 135.72 129.419 138.5 129.409 140.25C125.399 142.04 117.119 142.91 115.939 142.71V137.88H115.929ZM115.929 149.14V144.31C122.309 143.73 122.689 143.84 129.399 141.83C129.399 141.83 129.409 144.93 129.399 146.67C125.389 148.47 115.929 149.6 115.929 149.14ZM0.828594 87.0801L53.5686 83.7501L58.3786 60.2601L58.3486 118.94C58.3486 119.4 12.3986 107.97 12.3986 107.97L12.3386 117.21L17.5186 119.12C18.0986 117.49 19.1786 116.81 19.8886 116.95C20.6886 117.11 21.4586 118.1 21.9986 119.74C22.5986 121.57 22.7586 123.48 22.7586 125.4C22.9186 123.76 23.2886 121.75 24.0786 120.3C25.4686 117.76 27.2286 118.57 28.2686 121.42C29.4086 124.67 29.4686 129.2 28.5886 132.51C28.2686 133.69 27.5986 135.64 26.3486 136.1C28.8386 135.69 29.2886 135.76 31.7486 135.25C32.2786 135.14 32.7886 134.79 33.2486 134.24C33.6686 134.65 33.7886 134.9 34.5186 134.93C34.6286 134.93 35.3786 134.86 36.0586 134.74C36.0186 134.16 35.9986 133.56 35.9986 132.95C35.9986 123.5 40.2486 118.91 42.7386 125.32C43.8086 128.13 43.8186 130.57 43.9486 133.5L43.9386 133.78C44.1686 131.23 44.7086 127.44 46.8686 125.76C47.5586 125.22 48.3786 125.23 49.3186 126.19C51.3086 128.22 51.9186 133.5 51.9186 136.24C51.9186 137.83 51.7886 139.34 51.5586 140.69L50.4686 144.51C50.0586 145.42 49.3986 146.54 48.4186 146.91L56.4286 145.5L56.4586 145.49C57.0686 145.39 57.6286 144.94 58.1386 144.2C58.9086 144.95 59.3686 144.88 60.0586 144.76L65.6386 143.78C66.3286 143.65 66.8086 143.33 67.3586 142.39C70.1486 143.48 73.3386 144.31 75.0986 144.28C77.5786 138.24 84.7886 134.67 90.5686 138.75C94.2586 141.35 96.5686 146.34 96.5686 151.61C96.5686 155.46 95.3886 158.97 93.4686 161.58C92.3586 163.07 91.1786 164.16 89.5686 165.06C92.6286 163.57 94.5086 162.79 97.5186 161.24C99.8086 160.06 101.419 156.98 102.399 154.33C109.769 155.78 120.969 154.94 127.049 152.82C138.019 148.99 152.719 141.84 155.959 138.82C156.809 138.02 157.349 136.78 157.649 135.29C156.359 136.23 155.509 136.79 155.509 136.68L155.479 132.69L157.949 130.9C157.939 130.51 157.919 130.12 157.889 129.72C156.689 130.6 155.789 131.21 155.459 131.36L155.429 127.37L157.449 125.95C157.109 123.81 155.499 115.04 154.449 115.96C153.379 116.91 153.059 117.72 152.249 118.32C149.479 120.41 132.349 125.06 129.759 123.83C128.719 123.34 127.559 119.64 123.079 119.92C122.599 120 113.189 101.54 110.559 96.1701C109.979 94.9901 108.459 94.4101 107.209 94.3901C105.379 94.3601 94.0486 95.1201 89.6886 95.8801C86.7386 96.4001 83.4986 97.0401 83.5286 99.9001C83.5686 104.36 83.7986 114.14 83.6586 114.81C82.4586 115.03 81.1386 114.75 77.9286 114.51C75.5486 114.33 74.7986 113.42 74.7886 111.4L74.8286 68.6101C74.8286 65.0401 76.4886 64.1401 79.1786 63.1401C82.7586 61.8001 104.749 56.6801 107.529 57.6701C107.859 57.0801 109.149 55.9701 111.189 55.7701C98.4286 54.6701 72.5986 52.2801 58.3286 51.2101L0.808594 70.6201V87.0801H0.828594Z" fill="white"/>
<path fill-rule="evenodd" clip-rule="evenodd" d="M9.51007 116.13V107.28L0.830078 105.21V112.97L9.28008 116.09" fill="white"/>
<path d="M198.569 52.8399H190.709L189.619 56.5399H182.559L190.979 34.1499H198.529L206.939 56.5399H199.689L198.569 52.8399ZM197.129 47.9899L194.659 39.9399L192.209 47.9899H197.129Z" fill="white"/>
<path d="M241.218 42.7699H244.918C248.308 42.7699 250.828 43.3699 252.458 44.5699C254.088 45.7699 254.918 47.6299 254.918 50.1499C254.918 52.2199 254.168 53.7999 252.668 54.8899C251.168 55.9799 249.008 56.5299 246.198 56.5299H234.318V34.1399H241.218V42.7699V42.7699ZM241.218 51.7199H244.758C246.928 51.7199 248.008 50.9399 248.008 49.3699C248.008 47.9899 246.918 47.3099 244.758 47.3099H241.218V51.7199Z" fill="white"/>
<path d="M282.918 34.1399H289.838V41.9799H297.398V34.1399H304.348V56.5299H297.398V47.4699H289.838V56.5299H282.918V34.1399Z" fill="white"/>
<path d="M183.229 78.21H204.259V83.74H197.199V100.6H190.279V83.74H183.219V78.21H183.229Z" fill="white"/>
<path d="M207.358 78.21H218.858C221.368 78.21 223.238 78.81 224.488 80C225.738 81.19 226.358 82.89 226.358 85.09C226.358 87.35 225.678 89.12 224.318 90.39C222.958 91.66 220.888 92.3 218.088 92.3H214.298V100.61H207.348V78.21H207.358ZM214.308 87.7599H216.008C217.338 87.7599 218.278 87.53 218.818 87.07C219.358 86.61 219.628 86.0199 219.628 85.2899C219.628 84.5899 219.398 83.99 218.928 83.5C218.458 83.01 217.578 82.77 216.288 82.77H214.318V87.7599H214.308Z" fill="white"/>
<path d="M241.059 96.91H233.199L232.109 100.61H225.049L233.469 78.22H241.019L249.429 100.61H242.179L241.059 96.91ZM239.629 92.06L237.159 84.01L234.709 92.06H239.629Z" fill="white"/>
<path d="M252.309 78.21H259.229V86.05H266.789V78.21H273.739V100.6H266.789V91.5399H259.229V100.6H252.309V78.21Z" fill="white"/>
<path d="M324.119 100.6H317.219V83.71H309.609V100.6H302.709V78.21H324.119V100.6V100.6Z" fill="white"/>
<path d="M327.859 89.42C327.859 85.76 328.879 82.92 330.919 80.88C332.959 78.84 335.789 77.83 339.429 77.83C343.159 77.83 346.029 78.83 348.049 80.83C350.069 82.83 351.069 85.63 351.069 89.24C351.069 91.86 350.629 93.9999 349.749 95.6799C348.869 97.3599 347.599 98.66 345.929 99.59C344.259 100.52 342.189 100.99 339.699 100.99C337.169 100.99 335.079 100.59 333.429 99.78C331.779 98.97 330.429 97.7 329.409 95.96C328.369 94.22 327.859 92.04 327.859 89.42ZM334.779 89.45C334.779 91.71 335.199 93.34 336.039 94.32C336.879 95.31 338.019 95.8 339.469 95.8C340.959 95.8 342.109 95.32 342.919 94.35C343.729 93.38 344.139 91.64 344.139 89.14C344.139 87.03 343.709 85.49 342.859 84.52C342.009 83.55 340.859 83.06 339.399 83.06C338.009 83.06 336.889 83.5499 336.039 84.5399C335.189 85.5299 334.779 87.17 334.779 89.45Z" fill="white"/>
<path d="M354.758 78.21H366.258C368.768 78.21 370.638 78.81 371.888 80C373.138 81.19 373.758 82.89 373.758 85.09C373.758 87.35 373.078 89.12 371.718 90.39C370.358 91.66 368.288 92.3 365.488 92.3H361.698V100.61H354.748V78.21H354.758ZM361.708 87.7599H363.408C364.738 87.7599 365.678 87.53 366.218 87.07C366.758 86.61 367.028 86.0199 367.028 85.2899C367.028 84.5899 366.798 83.99 366.328 83.5C365.858 83.01 364.978 82.77 363.688 82.77H361.718V87.7599H361.708Z" fill="white"/>
<path d="M373.758 78.21H396.838V83.74H389.778V100.6H382.858V83.74H376.908L373.758 78.21Z" fill="white"/>
<path d="M400.008 78.21H406.928V86.05H414.488V78.21H421.438V100.6H414.488V91.5399H406.928V100.6H400.008V78.21Z" fill="white"/>
<path d="M432.968 86.84H436.668C440.058 86.84 442.578 87.44 444.208 88.64C445.848 89.84 446.668 91.7 446.668 94.22C446.668 96.29 445.918 97.87 444.418 98.96C442.918 100.05 440.758 100.6 437.948 100.6H426.068V78.21H432.968V86.84V86.84ZM432.968 95.7899H436.508C438.678 95.7899 439.758 95.01 439.758 93.44C439.758 92.06 438.668 91.38 436.508 91.38H432.968V95.7899ZM448.368 78.21H455.298V100.6H448.368V78.21Z" fill="white"/>
<path d="M458.348 78.21H465.968L469.928 85.1L473.788 78.21H481.328L474.358 89.06L481.998 100.6H474.228L469.808 93.41L465.388 100.6H457.658L465.388 88.9299L458.348 78.21Z" fill="white"/>
<path d="M206.238 144.67H199.338V127.78H191.728V144.67H184.828V122.28H206.238V144.67Z" fill="white"/>
<path d="M210.828 122.28H222.328C224.838 122.28 226.708 122.88 227.958 124.07C229.208 125.26 229.828 126.96 229.828 129.16C229.828 131.42 229.148 133.19 227.788 134.46C226.428 135.73 224.358 136.37 221.558 136.37H217.768V144.68H210.818V122.28H210.828ZM217.778 131.83H219.478C220.808 131.83 221.748 131.6 222.288 131.14C222.828 130.68 223.098 130.09 223.098 129.36C223.098 128.66 222.868 128.06 222.398 127.57C221.928 127.08 221.048 126.84 219.758 126.84H217.788V131.83H217.778Z" fill="white"/>
<path d="M233.428 122.28H251.968V127.06H240.358V130.62H251.128V135.19H240.358V139.6H252.308V144.67H233.428V122.28Z" fill="white"/>
<path d="M279.528 149.55H273.958V144.68H259.658V149.55H254.098V139.52H256.408C257.698 135.9 258.348 131.83 258.348 127.28V122.28H277.118V139.51H279.528V149.55ZM270.198 139.51V127.78H264.638V128.07C264.638 131.17 264.108 134.98 263.068 139.51H270.198Z" fill="white"/>
<path d="M303.699 144.67H296.799V127.78H289.189V144.67H282.289V122.28H303.699V144.67V144.67Z" fill="white"/>
<path d="M308.28 122.28H319.78C322.29 122.28 324.16 122.88 325.41 124.07C326.66 125.26 327.28 126.96 327.28 129.16C327.28 131.42 326.6 133.19 325.24 134.46C323.88 135.73 321.81 136.37 319.01 136.37H315.22V144.68H308.27V122.28H308.28ZM315.23 131.83H316.93C318.26 131.83 319.2 131.6 319.74 131.14C320.28 130.68 320.55 130.09 320.55 129.36C320.55 128.66 320.32 128.06 319.85 127.57C319.38 127.08 318.5 126.84 317.21 126.84H315.24V131.83H315.23Z" fill="white"/>
<path d="M352.328 122.28V144.67H345.828V132.37L337.448 144.67H330.918V122.28H337.438V134.67L345.858 122.28H352.328V122.28Z" fill="white"/>
<path d="M369.809 144.67V135.58H369.199L362.548 144.67H354.729L361.958 134.79C360.928 134.56 360.119 134.26 359.529 133.9C358.599 133.34 357.869 132.61 357.339 131.71C356.809 130.81 356.539 129.74 356.539 128.49C356.539 127.06 356.888 125.86 357.578 124.86C358.268 123.87 359.179 123.19 360.309 122.82C361.439 122.45 363.078 122.27 365.208 122.27H376.738V144.66H369.809V144.67ZM369.809 126.8H366.768C365.508 126.8 364.649 126.99 364.189 127.38C363.729 127.77 363.499 128.32 363.499 129.05C363.499 129.54 363.639 129.97 363.939 130.35C364.229 130.73 364.599 130.96 365.059 131.05C365.969 131.25 366.579 131.35 366.889 131.35H369.809V126.8Z" fill="white"/>
<path d="M270.879 56.5299V47.4399H270.269L263.619 56.5299H255.799L263.029 46.6499C261.999 46.4199 261.189 46.1199 260.599 45.7599C259.669 45.1999 258.939 44.4699 258.409 43.5699C257.879 42.6699 257.609 41.5999 257.609 40.3499C257.609 38.9199 257.959 37.7199 258.649 36.7199C259.339 35.7299 260.249 35.0499 261.379 34.6799C262.509 34.3099 264.149 34.1299 266.279 34.1299H277.809V56.5199H270.879V56.5299ZM270.879 38.6599H267.839C266.579 38.6599 265.719 38.8499 265.259 39.2399C264.799 39.6299 264.569 40.1799 264.569 40.9099C264.569 41.3999 264.709 41.8299 265.009 42.2099C265.299 42.5899 265.669 42.8199 266.129 42.9099C267.039 43.1099 267.649 43.2099 267.959 43.2099H270.879V38.6599Z" fill="white"/>
<path d="M379.78 122.28H400.81V127.81H393.75V144.68H386.83V127.81H379.77V122.28H379.78Z" fill="white"/>
<path d="M425.379 122.28V144.67H418.869V132.37L410.489 144.67H403.959V122.28H410.479V134.67L418.899 122.28H425.379V122.28Z" fill="white"/>
<path d="M210.478 34.1399V48.9499C210.478 50.0499 210.288 50.8099 209.898 51.2199C209.508 51.6399 208.848 51.8399 207.908 51.8399H207.898L209.678 56.6099C212.028 56.5899 213.748 56.2899 214.818 55.6899C215.928 55.0699 216.628 54.0899 216.928 52.7599C217.228 51.4299 217.378 49.3499 217.378 46.5199V39.6299H222.788V56.5199H229.708V34.1299H210.478V34.1399Z" fill="white"/>
<path d="M440.85 120.53C442.27 120.53 443.48 120.05 444.51 119.09C445.53 118.13 446.15 116.87 446.37 115.32H443.71H438.01H435.35C435.56 116.87 436.17 118.12 437.2 119.09C438.23 120.05 439.44 120.53 440.85 120.53Z" fill="white"/>
<path d="M444.96 122.28L436.54 134.67V122.28H430.02V144.67H436.55L444.93 132.38V144.67H451.43V122.28H444.96Z" fill="white"/>
<path d="M324.329 48.12C323.419 50.07 321.619 51.42 319.529 51.42C316.529 51.42 314.089 48.69 314.089 45.33C314.089 41.97 316.519 39.24 319.529 39.24C321.629 39.24 323.429 40.59 324.329 42.54L330.109 39.88C328.069 36.25 324.119 33.76 319.519 33.76C312.849 33.76 307.439 38.94 307.439 45.34C307.439 51.73 312.849 56.92 319.519 56.92C324.119 56.92 328.069 54.43 330.109 50.8L324.329 48.12Z" fill="white"/>
<path d="M294.228 92.2C293.318 94.15 291.518 95.5 289.428 95.5C286.428 95.5 283.988 92.77 283.988 89.41C283.988 86.05 286.418 83.32 289.428 83.32C291.528 83.32 293.328 84.67 294.228 86.62L300.008 83.96C297.968 80.33 294.018 77.84 289.418 77.84C282.748 77.84 277.338 83.02 277.338 89.42C277.338 95.82 282.748 101 289.418 101C294.018 101 297.968 98.51 300.008 94.88L294.228 92.2Z" fill="white"/>
</svg>
