<svg width="20" height="15" viewBox="0 0 20 15" fill="none" xmlns="http://www.w3.org/2000/svg">
<path d="M16.6667 0H3.33333C1.5 0 0 1.5 0 3.33333V11.6667C0 13.5 1.5 15 3.33333 15H16.6667C18.5 15 20 13.5 20 11.6667V3.33333C20 1.5 18.5 0 16.6667 0ZM18 4.83333L11.4167 9.25C11 9.5 10.5 9.66667 10 9.66667C9.5 9.66667 9 9.5 8.58333 9.25L2 4.83333C1.66667 4.58333 1.58333 4.08333 1.83333 3.66667C2.08333 3.33333 2.58333 3.25 3 3.5L9.58333 7.91667C9.83333 8.08333 10.25 8.08333 10.5 7.91667L17.0833 3.5C17.5 3.25 18 3.33333 18.25 3.75C18.4167 4.08333 18.3333 4.58333 18 4.83333Z" fill="#B2D2DE"/>
</svg>
