<svg width="19" height="19" viewBox="0 0 19 19" fill="none" xmlns="http://www.w3.org/2000/svg">
<path d="M18.5018 13.9441L15.8447 11.2926C14.8957 10.3456 13.2825 10.7244 12.9029 11.9554C12.6182 12.8077 11.6693 13.2812 10.8152 13.0918C8.91728 12.6183 6.35509 10.1562 5.88061 8.16758C5.59592 7.31527 6.1653 6.36831 7.01936 6.08425C8.25301 5.70547 8.63259 4.09563 7.68363 3.14866L5.02655 0.497157C4.26738 -0.165719 3.12863 -0.165719 2.46436 0.497157L0.661336 2.29639C-1.14169 4.19032 0.851128 9.20924 5.31124 13.66C9.77134 18.1107 14.8008 20.1941 16.6987 18.3001L18.5018 16.5009C19.1661 15.7433 19.1661 14.6069 18.5018 13.9441Z" fill="#B2D2DE"/>
</svg>
