<svg width="26" height="18" viewBox="0 0 26 18" fill="none" xmlns="http://www.w3.org/2000/svg">
<path d="M21.4502 12.813C20.2316 12.813 19.2402 13.8046 19.2402 15.023C19.2402 16.2416 20.2316 17.233 21.4502 17.233C22.6686 17.233 23.6602 16.2416 23.6602 15.023C23.6602 13.8046 22.6686 12.813 21.4502 12.813ZM21.4502 15.673C21.0917 15.673 20.8002 15.3815 20.8002 15.023C20.8002 14.6645 21.0917 14.373 21.4502 14.373C21.8088 14.373 22.1002 14.6645 22.1002 15.023C22.1002 15.3815 21.8088 15.673 21.4502 15.673Z" fill="#65A5BD"/>
<path d="M21.2387 3.62646H17.4204C17.1331 3.62646 16.9004 3.85944 16.9004 4.14646V14.2865C16.9004 14.5735 17.1331 14.8065 17.4204 14.8065H17.9719C18.2293 14.8065 18.4573 14.6211 18.4906 14.3658C18.6946 12.8021 19.9419 11.8324 21.4506 11.8324C22.9594 11.8324 24.2066 12.8022 24.4107 14.3658C24.444 14.6211 24.6718 14.8065 24.9294 14.8065H25.4803C25.7674 14.8065 26.0003 14.5735 26.0003 14.2865V9.21646C26.0003 9.09428 25.9574 8.97622 25.8792 8.88288L21.6375 3.81288C21.5388 3.69486 21.3927 3.62646 21.2387 3.62646ZM17.9404 7.78646V5.18647C17.9404 4.89945 18.1731 4.66646 18.4604 4.66646H20.751C20.9052 4.66646 21.0516 4.73512 21.1503 4.85365L23.3169 7.45365C23.599 7.79241 23.3582 8.30647 22.9173 8.30647H18.4604C18.1731 8.30647 17.9404 8.07378 17.9404 7.78646Z" fill="#65A5BD"/>
<path d="M0.52 14.8067H1.85148C2.10889 14.8067 2.3369 14.6213 2.37016 14.366C2.57425 12.8024 3.82149 11.8326 5.33026 11.8326C6.83902 11.8326 8.08626 12.8024 8.29035 14.366C8.32361 14.6214 8.55137 14.8067 8.80903 14.8067H15.34C15.6271 14.8067 15.86 14.5738 15.86 14.2867V1.28672C15.86 0.999704 15.627 0.766724 15.34 0.766724H0.52C0.232683 0.766724 0 0.999704 0 1.28672V14.2867C0 14.5738 0.232683 14.8067 0.52 14.8067Z" fill="#65A5BD"/>
<path d="M5.32914 12.813C4.11054 12.813 3.11914 13.8046 3.11914 15.023C3.11914 16.2416 4.11054 17.233 5.32914 17.233C6.54749 17.233 7.53914 16.2416 7.53914 15.023C7.53914 13.8046 6.54749 12.813 5.32914 12.813ZM5.32914 15.673C4.97062 15.673 4.67914 15.3815 4.67914 15.023C4.67914 14.6645 4.97062 14.373 5.32914 14.373C5.68766 14.373 5.97914 14.6645 5.97914 15.023C5.97914 15.3815 5.68766 15.673 5.32914 15.673Z" fill="#65A5BD"/>
</svg>
