<svg id="Layer_1" data-name="Layer 1" xmlns="http://www.w3.org/2000/svg" width="182.84" height="78.15" viewBox="0 0 182.84 78.15"><defs><style>.cls-1{fill:#0f4f7b;}.cls-2{fill:#3eacce;}.cls-3{fill:#fff;}</style></defs><path class="cls-1" d="M83.22,7.58l8.89-1.32L90,2A3.47,3.47,0,0,0,86.89,0h-7.6a3.49,3.49,0,0,0-3.12,2L74.08,6.26,83,7.58v0l.12,0,.13,0Z"/><path class="cls-1" d="M70.35,20,1.76,18l-.19,1.31a42.57,42.57,0,0,0-.3,4.87h0v.33h0c.07,9.44,2.86,14.72,4.89,17.31a5.36,5.36,0,0,0,4.25,2.08H97.7a3.13,3.13,0,0,0,3.13-3.13V23.2L92,22.52Z"/><path class="cls-2" d="M97.7,4.74H10.41A5.39,5.39,0,0,0,6.16,6.82,23.89,23.89,0,0,0,1.76,18a23.79,23.79,0,0,0,4.4,11.12,5.36,5.36,0,0,0,4.25,2.08H92.28a8.55,8.55,0,0,0,8.55-8.55V7.87A3.13,3.13,0,0,0,97.7,4.74Z"/><path class="cls-2" d="M112.85,47V12.7a3.56,3.56,0,0,1,3.56-3.56h15.34a12,12,0,0,1,7.14,2.36l20,17.11s9.2,1.6,16.24,5a7,7,0,0,1,3.58,4,89.72,89.72,0,0,1,4.12,23.63A2.83,2.83,0,0,1,180,64.17H12.13a6.17,6.17,0,0,1-5.77-4l-2.3-6.07a3.45,3.45,0,0,1,3.23-4.68h103.1A2.46,2.46,0,0,0,112.85,47Z"/><path class="cls-1" d="M149.79,28.54,136.23,16.21a5,5,0,0,0-2.95-1H123a1.78,1.78,0,0,0-1.76,2l1.28,10.34a3.63,3.63,0,0,0,3.06,3.15l21.75,3.77a3.32,3.32,0,0,0,3.5-1.87h0A3.31,3.31,0,0,0,149.79,28.54Z"/><rect class="cls-1" x="81.78" y="53" width="27.94" height="16" rx="4.03"/><circle class="cls-1" cx="162.1" cy="65.26" r="12.89"/><circle class="cls-2" cx="162.1" cy="65.26" r="4.72"/><circle class="cls-1" cx="59.49" cy="65.26" r="12.89"/><circle class="cls-2" cx="59.49" cy="65.26" r="4.72"/><circle class="cls-1" cx="29.83" cy="65.26" r="12.89"/><circle class="cls-2" cx="29.83" cy="65.26" r="4.72"/><rect class="cls-2" y="39.28" width="105.15" height="5.59" rx="2.79"/><path class="cls-3" d="M57.71,22.09l0,0a6,6,0,0,0-2.78-5.42c-1.64-1-3.73-1.8-3.37-4a.55.55,0,0,0-.78-.57c-1.26.62-2.64,2.7-1,6.22.94,1.81-.14,2.58-1,2.53s-1.61-1.5-1.43-3.05a.55.55,0,0,0-.93-.47,6.71,6.71,0,0,0-2,5.17h0a6.66,6.66,0,0,0,13.31-.4Z"/><path class="cls-2" d="M103.71,59.73H87.79a1.66,1.66,0,0,1,0-3.31h15.92a1.66,1.66,0,0,1,0,3.31Z"/><path class="cls-3" d="M94.31,12.49H78.39a1.65,1.65,0,0,1,0-3.3H94.31a1.65,1.65,0,0,1,0,3.3Z"/><path class="cls-3" d="M18.88,12.49H13.12a1.65,1.65,0,1,1,0-3.3h5.76a1.65,1.65,0,1,1,0,3.3Z"/></svg>