<svg xmlns="http://www.w3.org/2000/svg" width="186.23" height="86.05" viewBox="0 0 186.23 86.05"><defs><style>.cls-1{fill:#3eacce;}.cls-2{fill:#0f4f7b;}</style></defs><g id="Layer_2" data-name="Layer 2"><g id="Layer_1-2" data-name="Layer 1"><path class="cls-1" d="M177.44,63.7h1.77a5.38,5.38,0,0,0,4.45-2.35l2.08-3a2.84,2.84,0,0,0-.32-3.59l-3.24-3.31a2.83,2.83,0,0,0-3.22-.59l-1.52.69-2.18-3.46,1.43-1.22a2.16,2.16,0,0,0,.53-2.58l-2.12-4.32a2.12,2.12,0,0,0-1.54-1.17l-3.81-.7-3.09-4.84a3.66,3.66,0,0,0-2.88-1.68L123.3,29.19a3.6,3.6,0,0,1-2.61-1.37l-13-16.44a2.68,2.68,0,0,0-2.06-1L11.24,9.63a2.64,2.64,0,0,0-2.65,2.45L6.08,45.68a3.69,3.69,0,0,1-3.67,3.41h0A2.4,2.4,0,0,0,0,51.68l.77,9.8a2.41,2.41,0,0,0,2.4,2.22H177.44Z"/><path class="cls-2" d="M19,15H37.92a1.68,1.68,0,0,1,1.68,1.67v14.1a1.68,1.68,0,0,1-1.68,1.67H17.08a1.67,1.67,0,0,1-1.67-1.8l1-13.2A2.64,2.64,0,0,1,19,15ZM73.68,32.44H50.45l-3.37-4.7a1.73,1.73,0,0,1-.31-1V16.67A1.68,1.68,0,0,1,48.45,15H73.68a1.67,1.67,0,0,1,1.67,1.67v14.1A1.67,1.67,0,0,1,73.68,32.44Zm40.86-5.91h-3.1a1.67,1.67,0,0,0-1.67,1.67v2.57a1.67,1.67,0,0,1-1.67,1.67h-21a1.7,1.7,0,0,1-1.37-.7l-2.86-4a1.73,1.73,0,0,1-.31-1V16.67A1.68,1.68,0,0,1,84.21,15h20a2.64,2.64,0,0,1,2.07,1Z"/><rect class="cls-1" x="37.78" width="59.81" height="5.47" rx="2.73" transform="translate(135.38 5.47) rotate(-180)"/><rect class="cls-2" x="60" y="66.99" width="68.44" height="5.47" rx="2.73" transform="translate(188.44 139.45) rotate(180)"/><circle class="cls-2" cx="155.14" cy="67.21" r="18.84"/><circle class="cls-1" cx="155.14" cy="67.21" r="6.89"/><circle class="cls-2" cx="33.47" cy="67.21" r="18.84"/><circle class="cls-1" cx="33.47" cy="67.21" r="6.89"/></g></g></svg>