<svg id="Layer_1" data-name="Layer 1" xmlns="http://www.w3.org/2000/svg" width="213.5" height="70.23" viewBox="0 0 213.5 70.23"><defs><style>.cls-1{fill:#0f4f7b;}.cls-2{fill:#3eacce;}</style></defs><path class="cls-1" d="M124.05,38.92l1.14-2.38a3.66,3.66,0,0,1,3.29-2.08h3.31a3.65,3.65,0,0,0,3.13-1.77v0a3.65,3.65,0,0,1,3.13-1.77h5.4a3.66,3.66,0,0,1,3.6,3l1.42,7.88-21.58-.36Z"/><path class="cls-2" d="M158.13,38.71H113a4,4,0,0,0-3,1.37L102,49.27H9.45l-3-28.79c-.08-.83-1.35-1.16-2.09-.54L1.35,22.51a3.44,3.44,0,0,0-1.33,3l2.76,26.9h0A3.49,3.49,0,0,0,3,53.48l.57,1.71a7.91,7.91,0,0,0,7.5,5.39H99.47a4,4,0,0,0,3-1.37l11.87-13.54h38.41a4.59,4.59,0,0,0,3.5-1.63l2.8-3.3A1.23,1.23,0,0,0,158.13,38.71Z"/><path class="cls-2" d="M202.82,60.58s3.85-.06,6.92-.27a4,4,0,0,0,3.72-3.94c.16-9.5-.13-22.2-1.19-23.39-1-4.32-2.61-10.79-2.61-10.79l-1.9-6.48a5.5,5.5,0,0,0-2.31-3.1,11.14,11.14,0,0,0-5.24-1.73c-3.12-2.83-14.72-5.47-21.11-6.63a4.14,4.14,0,0,0-4.8,3.32c-1.19,6.59-1.94,20.59-3.24,34.84a2.14,2.14,0,0,0,1.66,2.27c3.43.77,5,1.32,5,1.32l-1.26,3.27H118.63a3.19,3.19,0,0,0-3,4.21l.57,1.71a7.91,7.91,0,0,0,7.5,5.39h79.14Z"/><path class="cls-1" d="M203.62,20.07c.59,2,1.54,5.46,2.33,9.39a2.65,2.65,0,0,1-3,3.14c-6.59-1.08-13.28-3.38-13.28-3.56s.46-5.31.75-8.46A2.64,2.64,0,0,1,193,18.17h8.05A2.64,2.64,0,0,1,203.62,20.07Z"/><circle class="cls-1" cx="134.65" cy="62.03" r="8.21"/><circle class="cls-2" cx="134.65" cy="62.03" r="3"/><circle class="cls-1" cx="154.18" cy="62.03" r="8.21"/><circle class="cls-2" cx="154.18" cy="62.03" r="3"/><circle class="cls-1" cx="186.2" cy="62.03" r="8.21"/><circle class="cls-2" cx="186.2" cy="62.03" r="3"/><circle class="cls-1" cx="22.03" cy="62.03" r="8.21"/><circle class="cls-2" cx="22.03" cy="62.03" r="3"/><circle class="cls-1" cx="41.92" cy="62.03" r="8.21"/><circle class="cls-2" cx="41.92" cy="62.03" r="3"/><circle class="cls-1" cx="61.8" cy="62.03" r="8.21"/><circle class="cls-2" cx="61.8" cy="62.03" r="3"/><path class="cls-2" d="M24.92,30.52l-4.72-6A2.37,2.37,0,0,1,19.68,23V15.86a2.4,2.4,0,0,1,1.63-2.28L26,12,27.47,2a2,2,0,0,1,2-2h17a5.89,5.89,0,0,1,5.27,3.27l6.57,10.65h22.4a2.38,2.38,0,0,1,2,1.07l1.86,2.79A2.39,2.39,0,0,1,84.71,20L78.79,34.72a2.35,2.35,0,0,1-2.19,1.47H27.91Z"/><rect class="cls-1" x="14.22" y="28.11" width="56.66" height="16.16" rx="8.08"/><path class="cls-1" d="M30.11,4.42l-1,5.83A1.53,1.53,0,0,0,30.66,12h6.07a1.54,1.54,0,0,0,1.53-1.61l-.41-5.83a1.53,1.53,0,0,0-1.53-1.46H31.64A1.54,1.54,0,0,0,30.11,4.42ZM49,4.56a2.94,2.94,0,0,0-1.73-1.5H42.12a1.21,1.21,0,0,0-1.21,1.27L41.78,20A1.23,1.23,0,0,0,43,21.15h7a1.23,1.23,0,0,0,1-.48l4-5.15a1.23,1.23,0,0,0,.12-1.29Z"/><polygon class="cls-1" points="90.13 26.15 80.08 26.15 82.19 28.11 83.72 28.77 91.73 35.32 90.13 26.15"/><path class="cls-1" d="M62.11,20.75H94.68a0,0,0,0,1,0,0v3.35a0,0,0,0,1,0,0H62.11a1.56,1.56,0,0,1-1.56-1.56v-.22a1.56,1.56,0,0,1,1.56-1.56Z" transform="translate(40.62 -49.4) rotate(46.64)"/><path class="cls-2" d="M39.09,34.3H90.55a0,0,0,0,1,0,0v3.35a0,0,0,0,1,0,0H39.09A1.67,1.67,0,0,1,37.41,36v0A1.67,1.67,0,0,1,39.09,34.3Z"/><path class="cls-1" d="M89.87,22.8h.62a1.37,1.37,0,0,1,1.34,1.06l3.1,13.06,3.26,2.74a1.07,1.07,0,0,1,.38.82v.17a1.07,1.07,0,0,1-1.07,1.07h-6A1.82,1.82,0,0,1,89.71,40L88.49,24.29A1.39,1.39,0,0,1,89.87,22.8Z"/></svg>